<svg version="1.2" xmlns="http://www.w3.org/2000/svg" viewBox="0 0 496 222" width="496" height="222" preserveAspectRatio="xMidYMid"><style>.cvflogotext{fill:black}.cvflogot{fill:#609}.cvflogor{fill:#ffb000}.cvflogob{fill:#1a69f9}.cvflogol{fill:#f06}</style><path class="cvflogot" d="m56.9 44.3l26.4 26.4c7.8 7.7 18 11.6 28.2 11.6 10.3 0 20.5-3.9 28.3-11.6l26.4-26.4-16-16-26.4 26.3c-3.4 3.4-7.8 5.1-12.3 5.1-4.4 0-8.8-1.7-12.2-5.1l-26.4-26.3zm35.7-25.2c0 10.5 8.5 18.9 18.9 18.9 10.5 0 19-8.4 19-18.9 0-10.5-8.5-19-19-19-10.4 0-18.9 8.5-18.9 19z"/><path class="cvflogor" d="m176 56.9l-26.4 26.3c-7.8 7.8-11.7 18.1-11.7 28.3 0 10.2 3.9 20.5 11.7 28.3l26.4 26.4 16-16.1-26.4-26.4c-3.3-3.3-5-7.7-5-12.2 0-4.4 1.7-8.9 5-12.2l26.4-26.4zm27.4 35.1c-10.5 0-19 8.5-19 18.9 0 10.5 8.5 19 19 19 10.5 0 18.9-8.5 18.9-19 0-10.4-8.4-18.9-18.9-18.9z"/><path class="cvflogob" d="m166.2 182.1l-26.4-26.3c-7.8-7.8-18-11.7-28.3-11.7-10.2 0-20.4 3.9-28.2 11.7l-26.4 26.3 16 16.1 26.4-26.4c3.4-3.4 7.8-5.1 12.2-5.1 4.5 0 8.9 1.7 12.3 5.1l26.4 26.4zm-35.7 20.7c0-10.5-8.5-19-19-19-10.4 0-18.9 8.5-18.9 19 0 10.5 8.5 18.9 18.9 18.9 10.5 0 19-8.4 19-18.9z"/><path class="cvflogol" d="m43.9 166.2l26.4-26.4c7.8-7.8 11.7-18.1 11.7-28.3 0-10.2-3.9-20.5-11.7-28.3l-26.4-26.3-16 16 26.4 26.4c3.3 3.3 5 7.8 5 12.2 0 4.5-1.7 8.9-5 12.2l-26.4 26.4zm-24.2-36.3c10.5 0 19-8.5 19-19 0-10.4-8.5-18.9-19-18.9-10.5 0-19 8.5-19 18.9 0 10.5 8.5 19 19 19z"/><path class="cvflogotext" fill-rule="evenodd" d="m269.8 73.2c-2.8 0-5.4-0.6-7.8-1.5-2.4-1-4.5-2.5-6.2-4.4-1.8-1.9-3.2-4.2-4.2-7q-1.5-4.2-1.5-9.6c0-3.6 0.5-6.9 1.6-9.7 1.1-2.8 2.6-5.1 4.4-7 1.8-1.9 4-3.3 6.3-4.3 2.4-1 4.9-1.4 7.5-1.4 1.7 0 3.1 0.1 4.5 0.3q1.9 0.3 3.5 0.8c1 0.3 1.8 0.6 2.5 0.9 0.7 0.3 1.3 0.6 1.6 0.8l-1.3 3.6q-1.5-0.9-3.9-1.8c-1.7-0.6-3.6-0.9-5.9-0.9-2.7 0-5.1 0.4-7.1 1.4-2 0.9-3.7 2.2-5 3.8-1.4 1.6-2.4 3.6-3.1 5.9-0.7 2.3-1 4.8-1 7.6 0 2.9 0.3 5.5 1 7.8 0.7 2.2 1.7 4.2 3 5.8q1.9 2.5 4.9 3.7c1.9 0.9 4.1 1.3 6.6 1.3 2.7 0 5-0.2 6.9-0.8 1.8-0.5 3.3-1 4.2-1.5l1.2 3.6c-0.3 0.2-0.8 0.4-1.5 0.7-0.7 0.2-1.6 0.5-2.7 0.8-1.1 0.3-2.3 0.5-3.7 0.7-1.5 0.3-3.1 0.4-4.8 0.4zm50.3-1c-0.9-2.1-1.6-4.1-2.3-6.1-0.7-1.9-1.3-3.8-1.9-5.7h-21q-1.2 2.8-2.1 5.7c-0.7 2-1.5 4-2.2 6.1h-4.5c1.7-4.4 3.2-8.6 4.7-12.5 1.4-3.9 2.8-7.5 4.3-11 1.3-3.4 2.7-6.8 4.1-9.9 1.4-3.2 2.8-6.4 4.4-9.6h3.7c1.5 3.2 3 6.4 4.3 9.6 1.4 3.1 2.8 6.5 4.2 9.9 1.4 3.5 2.8 7.1 4.3 11 1.5 3.9 3.1 8.1 4.7 12.5zm-14.7-38.2c-1.6 3.6-3.1 7.2-4.6 10.9-1.5 3.7-3 7.6-4.6 11.9h18.4c-1.5-4.3-3.1-8.3-4.6-12-1.6-3.6-3.1-7.2-4.6-10.8zm44.9 32c-0.4-1-1-2.4-1.7-4.1-0.8-1.7-1.6-3.6-2.6-5.6q-1.5-3-2.9-6.2c-1-2.2-2-4.2-2.9-6-0.9-1.9-1.8-3.5-2.4-5-0.7-1.4-1.3-2.4-1.6-2.9-0.5 5.2-1 10.7-1.3 16.8-0.3 6-0.6 12.4-0.8 19.1h-4.2c0.4-7.8 0.8-15.3 1.3-22.5 0.5-7.1 1.1-14 1.8-20.5h3.7c1.2 2 2.6 4.4 3.9 7.1 1.5 2.7 2.8 5.5 4.3 8.5 1.3 2.9 2.7 5.8 4 8.6 1.3 2.9 2.5 5.4 3.5 7.7 0.9-2.3 2.1-4.8 3.4-7.7 1.3-2.8 2.7-5.7 4-8.6 1.4-3 2.8-5.8 4.3-8.5 1.4-2.7 2.7-5.1 3.9-7.1h3.5c0.8 6.5 1.3 13.4 1.8 20.5 0.5 7.2 0.9 14.7 1.3 22.5h-4.3c-0.3-6.7-0.5-13.1-0.8-19.1-0.4-6.1-0.8-11.7-1.3-16.8-0.4 0.5-0.9 1.5-1.6 2.9-0.7 1.5-1.5 3.1-2.4 5-0.9 1.9-1.9 3.8-2.9 6q-1.4 3.2-2.9 6.2c-1 2-1.8 3.9-2.6 5.6q-1.2 2.5-1.8 4.1zm45.3-37.2c6.1 0 10.6 1.2 13.6 3.5 3 2.4 4.5 5.6 4.5 9.9 0 2.5-0.5 4.6-1.3 6.2-0.9 1.7-2.1 3.2-3.7 4.2-1.6 1-3.6 1.8-5.9 2.3-2.4 0.4-5 0.7-8 0.7h-5.8v16.6h-4.3v-42.2c1.5-0.4 3.3-0.7 5.3-0.9 2-0.2 3.9-0.3 5.6-0.3zm0.2 3.6c-1.6 0-2.9 0.1-4 0.2-1.1 0.1-2 0.2-2.8 0.2v19h5.3c2.3 0 4.4-0.1 6.2-0.4 1.8-0.2 3.4-0.7 4.7-1.5 1.3-0.7 2.4-1.7 3-3 0.7-1.3 1.1-2.9 1.1-4.9 0-1.9-0.4-3.5-1.2-4.7-0.8-1.3-1.8-2.3-3.1-3-1.2-0.7-2.7-1.2-4.3-1.5-1.6-0.2-3.2-0.4-4.9-0.4zm41.2 40.8c-2.8 0-5.2-0.5-7.2-1.3-2.1-0.9-3.7-2.1-4.9-3.6-1.3-1.6-2.2-3.3-2.8-5.4-0.5-2.1-0.8-4.2-0.8-6.7v-27.1h4.2v26.6c0 2.3 0.3 4.4 0.9 6.1 0.6 1.7 1.3 3.1 2.3 4.2 1 1.1 2.2 2 3.6 2.5 1.4 0.5 3 0.8 4.7 0.8 1.8 0 3.4-0.3 4.8-0.8 1.4-0.5 2.6-1.4 3.6-2.5 0.9-1.1 1.7-2.5 2.3-4.2 0.6-1.7 0.9-3.8 0.9-6.1v-26.6h4.2v27.1c0 2.4-0.3 4.6-0.9 6.7-0.5 2.1-1.4 3.8-2.7 5.4-1.2 1.5-2.9 2.7-4.9 3.6-1.9 0.8-4.4 1.3-7.3 1.3zm36.1-3.7q5.1 0 7.8-1.8c1.9-1.2 2.8-3.2 2.8-5.9 0-1.6-0.3-2.9-0.9-4-0.6-1-1.5-1.9-2.4-2.7-1-0.7-2.2-1.3-3.5-1.8-1.3-0.6-2.6-1.1-4-1.7q-2.7-1.1-4.8-2.1c-1.5-0.7-2.6-1.6-3.6-2.6-1-0.9-1.8-2-2.3-3.1-0.5-1.2-0.8-2.6-0.8-4.3 0-3.7 1.3-6.5 3.7-8.4 2.4-1.8 5.8-2.8 10.2-2.8 1.2 0 2.3 0 3.4 0.2 1.1 0.2 2.2 0.4 3.2 0.7 0.9 0.3 1.8 0.6 2.6 0.9 0.8 0.3 1.5 0.7 2 1l-1.5 3.6c-1.1-0.9-2.6-1.5-4.3-2.1-1.7-0.5-3.6-0.7-5.6-0.7-1.4 0-2.6 0.2-3.8 0.4-1.2 0.3-2.1 0.7-2.9 1.3-0.9 0.6-1.5 1.4-2 2.3-0.4 0.9-0.7 2-0.7 3.3 0 1.3 0.3 2.5 0.7 3.4 0.6 0.9 1.2 1.7 2.1 2.3 0.9 0.7 2 1.3 3.1 1.9 1.2 0.5 2.6 1.1 3.9 1.6 1.7 0.8 3.4 1.5 4.9 2.1 1.5 0.7 2.8 1.6 3.9 2.5 1.1 1 2 2.1 2.7 3.5 0.6 1.4 1 3.1 1 5q0 5.9-4.1 8.8c-2.8 1.9-6.4 2.9-11.1 2.9-1.6 0-3.2-0.1-4.5-0.3-1.4-0.2-2.6-0.5-3.7-0.8q-1.6-0.5-2.7-1c-0.7-0.3-1.3-0.6-1.8-0.8l1.4-3.6c0.4 0.2 1 0.5 1.7 0.8 0.7 0.3 1.5 0.7 2.5 1 0.9 0.3 2 0.6 3.2 0.8 1.4 0.1 2.7 0.2 4.2 0.2zm-218.4 19c1.3 3.7 2.5 7.1 3.7 10.5 1.1 3.3 2.3 6.5 3.4 9.5 1.1 3.1 2.3 6.1 3.4 9.1 1.2 3 2.4 6 3.8 9 1.3-3 2.5-5.9 3.7-8.9 1.1-3 2.3-6 3.5-9.1 1.2-3.1 2.3-6.3 3.4-9.6 1.2-3.4 2.4-6.9 3.6-10.6h4.5c-1.9 5.5-3.6 10.2-5.1 14.3-1.5 4.1-3 7.8-4.3 11.1q-1.9 5-3.7 9.2c-1.1 2.8-2.4 5.6-3.7 8.5h-3.9c-1.3-2.9-2.5-5.8-3.8-8.5-1.2-2.8-2.4-5.9-3.7-9.2-1.3-3.3-2.8-7-4.3-11.1-1.4-4.1-3.2-8.9-5.1-14.4h4.6zm39.1 0h4.2v43h-4.2zm44.1 12.9c0 3.3-0.8 5.8-2.5 7.7-1.7 1.9-4 3.2-6.7 4 0.6 0.9 1.5 2 2.6 3.4 1 1.4 2.1 2.9 3.2 4.6q1.7 2.6 3.4 5.3c1.1 1.8 2 3.6 2.7 5.2h-4.6c-0.8-1.6-1.8-3.3-2.8-4.9-1-1.7-2-3.3-3.1-4.9-1-1.5-2.1-2.9-3-4.2-1-1.3-1.9-2.5-2.6-3.6-1.3 0.2-2.7 0.2-4 0.2h-7v17.5h-4.3v-42.3c1.5-0.4 3.3-0.7 5.3-0.9 2-0.2 3.8-0.3 5.6-0.3 5.9 0 10.4 1.1 13.4 3.4 3 2.3 4.4 5.5 4.4 9.8zm-17.4-9.6c-1.5 0-2.9 0.1-4.1 0.1-1.2 0.2-2.2 0.2-2.9 0.3v18.3h5.8c2 0 3.8 0 5.5-0.2 1.8-0.2 3.3-0.6 4.6-1.3 1.3-0.6 2.3-1.5 3.1-2.8 0.7-1.1 1.1-2.8 1.1-4.9 0-1.9-0.4-3.5-1.1-4.8q-1.1-1.8-3-2.9c-1.1-0.7-2.6-1.2-4.1-1.5-1.6-0.2-3.2-0.3-4.9-0.3zm54.5-3.3v3.6h-13.8v39.4h-4.2v-39.4h-13.8v-3.6zm22.2 44c-2.8 0-5.2-0.4-7.3-1.3-2-0.8-3.6-2.1-4.8-3.6-1.3-1.5-2.2-3.3-2.8-5.4-0.5-2-0.8-4.2-0.8-6.6v-27.1h4.2v26.5c0 2.4 0.3 4.4 0.9 6.1 0.6 1.7 1.3 3.2 2.3 4.3q1.5 1.6 3.6 2.4c1.4 0.5 3 0.8 4.7 0.8 1.8 0 3.4-0.3 4.8-0.8q2.1-0.8 3.6-2.4c0.9-1.1 1.7-2.6 2.3-4.3 0.6-1.7 0.8-3.7 0.8-6.1v-26.5h4.3v27.1c0 2.3-0.3 4.6-0.9 6.6-0.6 2.1-1.4 3.9-2.7 5.4-1.2 1.6-2.9 2.8-4.9 3.6-1.9 0.9-4.4 1.3-7.3 1.3zm55.8-0.9c-0.9-2.1-1.6-4.2-2.3-6.1-0.7-2-1.4-3.8-2-5.7h-21c-0.7 1.9-1.5 3.7-2.1 5.7-0.7 1.9-1.4 4-2.2 6.1h-4.4c1.6-4.5 3.1-8.6 4.6-12.6 1.4-3.9 2.8-7.5 4.3-10.9 1.4-3.5 2.8-6.8 4.1-10 1.4-3.2 2.8-6.4 4.4-9.6h3.7c1.5 3.2 3 6.4 4.4 9.6 1.3 3.2 2.7 6.5 4.1 10 1.4 3.4 2.8 7 4.3 10.9 1.5 4 3.1 8.1 4.8 12.6zm-14.8-38.2c-1.6 3.5-3.1 7.2-4.6 10.8-1.5 3.7-3 7.7-4.6 11.9h18.4c-1.5-4.3-3.1-8.2-4.6-11.9-1.5-3.7-3.1-7.3-4.6-10.8zm50.1 34.5v3.6h-24.5v-43h4.2v39.4zm-210.1 23.2v6h-21.3v11h18.7v6h-18.7v18.2h-6.8v-41.2zm12.7 0.2v41h-6.9v-41.1zm46.7 20.6c0 13.5-7.5 21.7-19.7 21.7-12.3 0-19.8-8.1-19.8-21.7 0-13.6 7.5-21.7 19.8-21.7 12.1 0 19.7 8.2 19.7 21.7zm-32.6 0c0 10 4.9 15.7 12.9 15.7 7.9 0 12.8-5.6 12.8-15.7 0-10.1-4.9-15.7-12.8-15.7-8 0-12.9 5.7-12.9 15.7zm67.6-8c-0.7-4.8-4.5-7.6-10.4-7.6-7.9 0-12.4 5.4-12.4 15.3 0 10 4.8 15.8 12.3 15.8 5.7 0.3 10.5-4 10.8-9.7h6.7c-0.4 9.3-7.5 15.9-17.8 15.9-11.7 0-18.9-8-18.9-21.7 0-13.6 7.3-21.7 19.4-21.7 10 0 16.3 5.4 17.1 14zm31.3-12.7q1.8 0 2.2 0 0.9-0.1 1.9 0c5.8 0.5 10.2 5.6 9.7 11.5 0.3 4.2-2.1 8-5.9 9.6 3.9 1.2 4.7 3.7 4.9 8.2l0.4 5.9c0.1 2.4 0.1 3.9 1.7 4.7v1.2h-7.7c-0.7-1.7-1.1-3.6-1-5.5l-0.3-4.9c-0.2-4.3-1.1-6.6-6.5-6.6h-10.2v17h-6.9v-41zm-10.9 5.8v12.7h9.8c5.5 0 8.1-1.7 8.1-6.4 0-4.8-2.8-6.3-8-6.3zm39.2-5.9v25.6c0 7 2.8 10.4 9.3 10.4 6.5 0 9.5-3.4 9.5-10.4v-25.6h6.9v26c0 10.6-6.1 16.3-16.4 16.3-10.7 0-16.2-5.6-16.2-16.3v-25.9zm63 0v6l-23.7 29.1h23.5v6.1h-31.9v-5.8l24-29.4h-22.6v-5.8z"/></svg>