<svg version="1.2" xmlns="http://www.w3.org/2000/svg" viewBox="0 0 1384 390" width="1384" height="390">
	<title>Novo Projeto</title>
	<style>
		.s0 { fill: #18181b } 
	</style>
	<path id="Path 15" fill-rule="evenodd" class="s0" d="m548.9 159.3v13.8c0 2.8-1.6 4.5-4.5 4.5h-98l-0.1 81.4 66 0.1c2.9 0 4.5 1.7 4.5 4.5v13.8c0 2.9-1.6 4.5-4.5 4.5h-65.9l-0.1 102.5c0 2.9-1.7 4.5-4.5 4.5h-16.8c-2.8 0-4.5-1.6-4.5-4.5v-225.1c0-2.9 1.7-4.5 4.5-4.5h119.4c2.9 0 4.5 1.6 4.5 4.5zm36.3 0v225.1c0 2.9-1.6 4.5-4.5 4.5h-16.7c-2.9 0-4.5-1.6-4.5-4.5v-225.1c0-2.8 1.6-4.5 4.5-4.5h16.7c2.9 0 4.5 1.7 4.5 4.5zm158 27.5c5.7 10.3 8.6 22.3 8.6 35.6v99.3c0 13.3-2.9 25.2-8.6 35.4-5.8 10.2-14 18.2-24.3 23.9-10.3 5.6-26.5 8.5-39.9 8.5-13.5 0-27.6-2.9-37.9-8.5-10.4-5.7-18.5-13.7-24.1-24-5.7-10.1-8.6-22-8.6-35.3v-99.3c0-13.3 2.9-25.3 8.6-35.6 5.6-10.3 13.7-18.4 24.1-24.1 10.3-5.6 24.4-8.5 37.9-8.5 13.4 0 29.6 2.9 39.9 8.5 10.3 5.7 18.5 13.8 24.3 24.1zm-28.9 2.5c-7.8-8.2-22.4-12.3-35.3-12.3-12.8 0-25.2 4.1-33 12.3-7.9 8.1-11.8 19-11.8 32.4v101c0 13.1 3.9 23.9 11.8 31.9 7.8 8 20.2 12.1 33 12.1 12.9 0 27.5-4.1 35.3-12.1 7.8-8 11.8-18.8 11.8-31.9v-101c0-13.4-4-24.3-11.8-32.4zm181.5-17.4c12.3 11.8 18.6 27.7 18.6 47.2v2.9c0 2.9-1.6 4.5-4.5 4.5l-16.7 0.7c-2.9 0-4.5-1.5-4.5-4.2v-4.6c0-12.3-3.9-22.3-11.6-29.9-7.8-7.6-22.1-11.5-34.6-11.5-12.5 0-24.8 3.8-32.4 11.3-7.6 7.5-11.4 17.6-11.4 30.1v106.9c0 12.5 3.8 22.6 11.4 30.1 7.6 7.5 24 11.3 36.5 11.3 12.5 0 22.7-3.8 30.5-11.4 7.7-7.6 11.6-17.7 11.6-30v-4.6c0-2.7 1.6-4.2 4.5-4.2l16.8 1c2.8 0 4.4 1.7 4.4 4.5v2.3c0 19.5-6.3 35.4-18.6 47.3-12.3 11.9-28.9 17.9-49.2 17.9-20.2 0-42.7-6.1-55.1-18.1-12.3-12-18.5-28-18.5-47.7v-104c0-19.7 6.2-35.7 18.5-47.6 12.4-11.9 30.9-17.9 51-17.9 20.3 0 41 6 53.3 17.7zm184.6 211.4l0.4 1.8c0 2.4-1.5 3.8-4.1 3.8h-17.4c-2.3 0-3.9-1.1-4.8-3.4l-40.6-101.3-0.2-0.2h-50.5l-0.1 100.4c0 2.9-1.6 4.5-4.5 4.5h-16.7c-2.9 0-4.5-1.6-4.5-4.5v-225.1c0-2.8 1.6-4.5 4.5-4.5h77.7c11.5 0 21.9 2.7 30.9 8.1 9.1 5.3 16.2 13 21.2 22.8 5 9.7 7.5 21 7.5 33.6 0 15.1-3.7 30.2-11 40.8-7.4 10.7-17.5 17.9-30.1 21.5zm-37.1-194.3c-6.8-7.6-15.7-11.4-26.7-11.4h-53.4l-0.1 0.1v85l53.5 0.1c11 0 19.9-3.8 26.7-11.4 6.7-7.6 10.1-19.7 10.1-32.1 0-12.5-3.4-22.7-10.1-30.3zm199.8-29.7v160.7c0 13.7-2.8 26-8.5 36.4-5.6 10.4-13.8 18.6-24.1 24.4-10.3 5.8-25.4 8.7-38.9 8.7-13.5 0-28.6-2.9-38.9-8.7-10.4-5.8-18.5-14-24.1-24.4-5.7-10.4-8.5-22.6-8.5-36.4v-160.7c0-2.9 1.6-4.5 4.5-4.5h16.7c2.8 0 4.5 1.6 4.5 4.5v162.1c0 13.6 4 24.7 11.8 32.9 7.8 8.2 21.3 12.4 34 12.4 12.7 0 26.2-4.2 34-12.4 7.8-8.3 11.8-19.3 11.8-32.9v-162.1c0-2.9 1.6-4.5 4.5-4.5h16.7c2.9 0 4.5 1.6 4.5 4.5zm139.1 20.1l-99.7 186.7h96.2c2.9 0 4.5 1.7 4.5 4.5v13.8c0 2.9-1.6 4.5-4.5 4.5h-120.4c-2.8 0-4.5-1.6-4.5-4.5v-15.4c0-1.5 0.4-5.1 1.1-6.8l99.7-184.6h-96.3c-2.8 0-4.5-1.7-4.5-4.5v-13.8c0-2.9 1.7-4.5 4.5-4.5h120.4c2.9 0 4.5 1.6 4.5 4.5v15.4c0 1.3-0.3 2.8-1 4.7zm-1020.1 183.9v20c0 3.6-2.9 6.6-6.4 6.6h-84l-13.9-14.2h-153.8l-13.9 14.2h-83.6c-3.6 0-6.5-3-6.5-6.6v-22c0-1.7 0.6-3.3 1.8-4.5l6.6-7.1v-161.7l-5.6-5.3v-19.6c-0.1-1.8 0.1-3.5 1.2-4.9 1.2-1.7 3.1-2.6 5.2-2.6h9.8v-62.8c0-2.2 1-4.2 2.8-5.4l0.7-0.5-0.4-0.7c-3.9-6.5-6-13.8-6-21.2 0-17.6 11.8-33.6 28.6-39l0.5-0.1 3.4-18.7c0.8-4.3 4.1-7.1 8.6-7.2 3.6 0 7.9 2.3 8.7 7.3l3.1 18.6 0.6 0.2c16.7 5.5 28.3 21.4 28.3 38.9 0 7.5-2.1 14.8-6 21.3l-0.5 0.7 0.8 0.6c1.8 1.1 2.9 3.2 2.9 5.4v49.3h13.4v-31.8l-4.6-4.3v-16.2c0-3.6 2.9-6.5 6.5-6.5h18.8c1.4 0 3 0.3 4 1.4l3.3 4.3h6l-0.8-4.5c-0.5-2.2-0.1-4.4 1.3-6 1.2-1.6 3.3-2.6 5.3-2.6h65.6c2.1 0 4 0.9 5.3 2.6 1.3 1.6 1.8 3.6 1.4 5.6l-1.6 4.9h5.8l3.8-4.3c1-1.1 2.5-1.3 3.9-1.3h18.7c3.6 0 6.5 2.9 6.5 6.4v16.2l-4.5 4.3v31.8h13.3v-49.5c0-2.2 1.1-4.2 2.8-5.4l0.8-0.5-0.5-0.7c-3.9-6.5-5.9-13.8-5.9-21.2 0-17.6 11.7-33.6 28.5-39l0.6-0.1 3.4-18.7c0.9-4.8 4.9-7.1 8.5-7.2 3.8 0 7.9 2.3 8.8 7.3l3.1 18.6 0.5 0.2c16.7 5.5 28.4 21.4 28.4 38.9 0 7.5-2.1 14.8-6.1 21.3l-0.4 0.7 0.7 0.5c1.9 1.3 3 3.3 3 5.5v62.5h10c2 0 3.9 0.9 5.2 2.6 1 1.4 1.2 3.1 1.1 5.2v19.4l-5.8 5.8v161.2l7.1 6.9q0.4 0.5 0.7 1l0.2 0.3q0.3 0.5 0.5 0.8c0.3 0.8 0.4 3.7 0.4 4.6zm-16.8 4.7l-10.5-10.5v-170.7l5.9-5.9v-9.8h-16.5v-70l-5.3-5v-13.7q1-0.8 1.8-1.7 0.6-0.6 1.1-1.2l0.1-0.1q0.4-0.5 0.8-1.1c2.7-3.6 4.3-8.1 4.3-13 0-12.3-10-22.3-22.3-22.3-12.3 0-22.2 10-22.2 22.3 0 3.9 1 7.7 2.8 10.9q1.2 2.4 3.1 4.2 1.1 1.2 2.3 2.2v13.5l-5.3 5.4v59.1h-39.6l-11-11.2v-43.3l-35.7 0.1v-11.5h-36.1v11.4h-35.7v44.2l-10 10.3h-40.6v-59.1l-5.3-5.3v-13.7q1-0.8 1.8-1.7 0.6-0.6 1.1-1.2l0.2-0.3q0.4-0.4 0.7-0.8c2.7-3.7 4.3-8.3 4.3-13.2 0-12.3-9.9-22.3-22.2-22.3-12.3 0-22.3 10-22.3 22.3 0 3.8 1 7.4 2.7 10.5q1.3 2.8 3.5 4.9 0.9 1 2 1.8v13.7l-5.4 5.5v69.5h-16.1v8.7l5.5 5.1v171.9l-8.5 8.7v5.5h63l14.1-14.2h169.6l14.2 14.2h65.7z"/>
</svg>