<?xml version="1.0" encoding="UTF-8"?><svg id="a" xmlns="http://www.w3.org/2000/svg" viewBox="0 0 267.02 118.43"><defs><style>.b,.c,.d,.e,.f,.g{stroke-width:0px;}.c{fill:#00d000;}.d{fill:red;}.e{fill:#ffd200;}.f{fill:#3c3c3c;}.g{fill:#183eff;}</style></defs><polygon class="c" points="75.14 66 49.53 66 49.53 91.85 91.96 91.85 75.14 66"/><path class="d" d="M20.44,91.85h9.55c10.79,0,19.54-8.75,19.54-19.54s-8.75-19.54-19.54-19.54H0v39.08h20.44Z"/><path class="g" d="M0,52.77h27.8c7.23,0,13.09-5.86,13.09-13.09s-5.86-13.1-13.09-13.1H0v26.19Z"/><polygon class="e" points="118.42 26.58 79.6 91.85 157.24 91.85 118.42 26.58"/><rect class="e" x="221.88" y="26.58" width="22.57" height="43.35"/><rect class="g" x="244.45" y="69.93" width="22.57" height="21.92"/><rect class="f" x="221.88" y="69.93" width="22.57" height="21.92"/><rect class="d" x="145.94" y="55.59" width="21.34" height="36.26"/><polygon class="f" points="79.6 91.85 91.96 91.85 85.5 81.92 79.6 91.85"/><polygon class="f" points="145.94 72.86 145.94 91.85 157.24 91.85 145.94 72.86"/><rect class="c" x="195.51" y="26.58" width="22.57" height="65.27"/><rect class="c" y="26.58" width="22.57" height="26.19"/><path class="g" d="M68.31,66h6.83c10.89,0,19.71-8.82,19.71-19.71s-8.82-19.71-19.71-19.71h-25.61v39.42h18.78Z"/><rect class="g" x="167.28" y="26.58" width="24.42" height="23.74"/><path class="e" d="M174.74,50.31h-7.46v41.54h7.46c11.47,0,20.77-9.3,20.77-20.77s-9.3-20.77-20.77-20.77"/><path class="c" d="M160.45,26.58c-8.01,0-14.51,6.49-14.51,14.51s6.49,14.51,14.51,14.51h6.83v-29.01h-6.83Z"/><rect class="e" y="52.77" width="22.57" height="39.08"/><polygon class="e" points="75.14 66 49.53 26.58 49.53 66 75.14 66"/><path class="g" d="M142.23,91.85c0-13.15-10.66-23.81-23.81-23.81s-23.81,10.66-23.81,23.81h47.62Z"/><path class="b" d="M17.16,106.39c1.29,0,2.36.45,3.21,1.35.85.9,1.28,2.01,1.28,3.34s-.43,2.42-1.28,3.33c-.85.91-1.92,1.36-3.21,1.36h-3.69v-9.38h3.69ZM17.16,114.29c.88,0,1.61-.3,2.16-.91s.84-1.38.84-2.31-.28-1.71-.84-2.31-1.28-.9-2.16-.9h-2.14v6.43h2.14Z"/><path class="b" d="M32.64,114.53c-.94.94-2.09,1.41-3.45,1.41s-2.51-.47-3.45-1.41c-.94-.94-1.41-2.09-1.41-3.45s.47-2.51,1.41-3.45c.94-.94,2.09-1.41,3.45-1.41s2.51.47,3.45,1.41c.94.94,1.41,2.09,1.41,3.45s-.47,2.51-1.41,3.45M26.83,113.48c.64.64,1.43.96,2.36.96s1.73-.32,2.36-.96c.64-.64.96-1.44.96-2.4s-.32-1.77-.96-2.4c-.64-.64-1.43-.96-2.36-.96s-1.73.32-2.36.96c-.64.64-.96,1.44-.96,2.4s.32,1.77.96,2.4"/><polygon class="b" points="43.84 114.29 47.66 114.29 47.66 115.76 42.3 115.76 42.3 106.39 43.84 106.39 43.84 114.29"/><path class="b" d="M56.92,115.76l-.66-1.89h-3.99l-.66,1.89h-1.67l3.4-9.38h1.85l3.39,9.38h-1.66ZM52.78,112.43h2.97l-1.48-4.23-1.49,4.23Z"/><path class="b" d="M65.01,106.39c1.29,0,2.36.45,3.21,1.35.85.9,1.28,2.01,1.28,3.34s-.43,2.42-1.28,3.33c-.85.91-1.92,1.36-3.21,1.36h-3.68v-9.38h3.68ZM65.01,114.29c.88,0,1.61-.3,2.16-.91s.84-1.38.84-2.31-.28-1.71-.84-2.31-1.28-.9-2.16-.9h-2.14v6.43h2.14Z"/><path class="b" d="M80.49,114.53c-.94.94-2.09,1.41-3.45,1.41s-2.51-.47-3.45-1.41c-.94-.94-1.41-2.09-1.41-3.45s.47-2.51,1.41-3.45c.94-.94,2.09-1.41,3.45-1.41s2.51.47,3.45,1.41c.94.94,1.41,2.09,1.41,3.45s-.47,2.51-1.41,3.45M74.68,113.48c.64.64,1.43.96,2.36.96s1.73-.32,2.36-.96c.64-.64.96-1.44.96-2.4s-.32-1.77-.96-2.4c-.64-.64-1.43-.96-2.36-.96s-1.73.32-2.36.96c-.64.64-.96,1.44-.96,2.4s.32,1.77.96,2.4"/><path class="b" d="M93.83,106.39c1.29,0,2.36.45,3.21,1.35.85.9,1.28,2.01,1.28,3.34s-.43,2.42-1.28,3.33c-.85.91-1.92,1.36-3.21,1.36h-3.69v-9.38h3.69ZM93.83,114.29c.88,0,1.61-.3,2.16-.91s.84-1.38.84-2.31-.28-1.71-.84-2.31-1.28-.9-2.16-.9h-2.14v6.43h2.14Z"/><path class="b" d="M109.31,114.53c-.94.94-2.09,1.41-3.45,1.41s-2.51-.47-3.45-1.41c-.94-.94-1.41-2.09-1.41-3.45s.47-2.51,1.41-3.45c.94-.94,2.09-1.41,3.45-1.41s2.51.47,3.45,1.41c.94.94,1.41,2.09,1.41,3.45s-.47,2.51-1.41,3.45M103.5,113.48c.64.64,1.43.96,2.36.96s1.73-.32,2.36-.96c.64-.64.96-1.44.96-2.4s-.32-1.77-.96-2.4c-.64-.64-1.43-.96-2.36-.96s-1.73.32-2.36.96c-.64.64-.96,1.44-.96,2.4s.32,1.77.96,2.4"/><path class="b" d="M122.42,106.39c.88,0,1.62.29,2.22.88.59.59.89,1.32.89,2.2s-.3,1.6-.89,2.19c-.59.59-1.33.89-2.22.89h-1.92v3.22h-1.54v-9.38h3.46ZM122.42,111.1c.46,0,.83-.15,1.12-.46.29-.31.44-.7.44-1.17s-.15-.86-.44-1.17c-.29-.31-.67-.46-1.12-.46h-1.92v3.27h1.92Z"/><path class="b" d="M136.38,114.53c-.94.94-2.09,1.41-3.45,1.41s-2.51-.47-3.45-1.41c-.94-.94-1.41-2.09-1.41-3.45s.47-2.51,1.41-3.45c.94-.94,2.09-1.41,3.45-1.41s2.51.47,3.45,1.41c.94.94,1.41,2.09,1.41,3.45s-.47,2.51-1.41,3.45M130.56,113.48c.64.64,1.43.96,2.36.96s1.73-.32,2.36-.96c.64-.64.96-1.44.96-2.4s-.32-1.77-.96-2.4c-.64-.64-1.43-.96-2.36-.96s-1.73.32-2.36.96c-.64.64-.96,1.44-.96,2.4s.32,1.77.96,2.4"/><polygon class="b" points="142.92 115.76 139.67 106.39 141.35 106.39 143.85 113.89 146.35 106.39 148.03 106.39 144.77 115.76 142.92 115.76"/><path class="b" d="M158.22,114.53c-.94.94-2.09,1.41-3.45,1.41s-2.51-.47-3.45-1.41c-.94-.94-1.41-2.09-1.41-3.45s.47-2.51,1.41-3.45c.94-.94,2.09-1.41,3.45-1.41s2.51.47,3.45,1.41c.94.94,1.41,2.09,1.41,3.45s-.47,2.51-1.41,3.45M152.4,113.48c.64.64,1.43.96,2.36.96s1.73-.32,2.36-.96c.64-.64.96-1.44.96-2.4s-.32-1.77-.96-2.4c-.64-.64-1.43-.96-2.36-.96s-1.73.32-2.36.96c-.64.64-.96,1.44-.96,2.4s.32,1.77.96,2.4"/><path class="b" d="M173.39,110.9c.41.22.73.51.96.89.23.38.35.81.35,1.3,0,.77-.27,1.41-.82,1.92-.54.51-1.21.76-2,.76h-4.02v-9.38h3.72c.77,0,1.42.25,1.95.74.53.5.8,1.11.8,1.86,0,.81-.32,1.45-.95,1.92M171.6,107.83h-2.18v2.46h2.18c.34,0,.62-.12.86-.35.23-.24.35-.53.35-.88s-.12-.64-.35-.88c-.23-.24-.52-.35-.86-.35M171.89,114.32c.36,0,.66-.13.9-.38.24-.25.37-.57.37-.93s-.12-.68-.37-.93c-.25-.25-.55-.38-.9-.38h-2.48v2.63h2.48Z"/><path class="b" d="M183.13,115.76l-1.98-3.42h-1.82v3.42h-1.54v-9.38h3.75c.84,0,1.55.29,2.14.88.59.58.88,1.3.88,2.14,0,.6-.17,1.15-.52,1.64-.34.5-.79.85-1.35,1.08l2.13,3.64h-1.69ZM179.33,107.83v3.14h2.21c.41,0,.76-.15,1.05-.45.29-.3.43-.68.43-1.11s-.14-.81-.43-1.11c-.29-.3-.64-.46-1.05-.46h-2.21Z"/><path class="b" d="M193.85,115.76l-.66-1.89h-3.99l-.66,1.89h-1.68l3.4-9.38h1.85l3.39,9.38h-1.66ZM189.71,112.43h2.97l-1.48-4.23-1.49,4.23Z"/><path class="b" d="M201.14,115.94c-.9,0-1.67-.2-2.3-.62-.63-.41-1.07-.97-1.32-1.69l1.33-.78c.38,1.06,1.15,1.58,2.33,1.58.58,0,1.02-.11,1.31-.34.29-.23.44-.52.44-.89,0-.38-.16-.68-.47-.88-.31-.2-.87-.42-1.66-.66-.44-.16-.8-.29-1.08-.4-.28-.1-.58-.26-.88-.47-.31-.21-.54-.47-.69-.78-.15-.31-.23-.68-.23-1.1,0-.83.29-1.49.88-1.98.59-.49,1.3-.73,2.13-.73.75,0,1.41.18,1.97.55.56.37,1,.87,1.3,1.51l-1.3.75c-.39-.88-1.05-1.31-1.97-1.31-.45,0-.8.11-1.07.32-.27.21-.4.49-.4.85s.14.61.41.81c.27.2.77.4,1.49.62.35.13.61.23.77.29.16.06.4.15.7.26.3.11.53.24.68.36.15.13.31.29.48.47.17.19.3.41.37.65.07.24.11.52.11.83,0,.85-.31,1.52-.92,2.02-.61.5-1.41.74-2.4.74"/><rect class="b" x="207.46" y="106.39" width="1.54" height="9.38"/><polygon class="b" points="214.16 114.29 217.98 114.29 217.98 115.76 212.62 115.76 212.62 106.39 214.16 106.39 214.16 114.29"/><polygon class="b" points="222.4 114.29 226.56 114.29 226.56 115.76 220.86 115.76 220.86 106.39 226.49 106.39 226.49 107.86 222.4 107.86 222.4 110.3 226.16 110.3 226.16 111.76 222.4 111.76 222.4 114.29"/><rect class="b" x="229.71" y="106.39" width="1.54" height="9.38"/><path class="b" d="M240.21,115.76l-1.98-3.42h-1.82v3.42h-1.54v-9.38h3.75c.84,0,1.55.29,2.14.88.59.58.88,1.3.88,2.14,0,.6-.17,1.15-.52,1.64-.34.5-.79.85-1.35,1.08l2.13,3.64h-1.69ZM236.41,107.83v3.14h2.21c.41,0,.76-.15,1.05-.45.29-.3.43-.68.43-1.11s-.14-.81-.43-1.11c-.29-.3-.63-.46-1.05-.46h-2.21Z"/><path class="b" d="M252.6,114.53c-.94.94-2.09,1.41-3.45,1.41s-2.51-.47-3.45-1.41c-.94-.94-1.41-2.09-1.41-3.45s.47-2.51,1.41-3.45c.94-.94,2.09-1.41,3.45-1.41s2.51.47,3.45,1.41c.94.94,1.41,2.09,1.41,3.45s-.47,2.51-1.41,3.45M246.78,113.48c.64.64,1.43.96,2.36.96s1.73-.32,2.36-.96c.64-.64.96-1.44.96-2.4s-.32-1.77-.96-2.4c-.64-.64-1.43-.96-2.36-.96s-1.73.32-2.36.96c-.64.64-.96,1.44-.96,2.4s.32,1.77.96,2.4"/><path class="b" d="M70.7,5.63v.97c0,3.86-2.59,6.38-6.02,6.38-3.65,0-6.51-2.84-6.51-6.47s2.88-6.51,6.49-6.51c2.28,0,4.37,1.17,5.52,3.08l-2.84,1.69c-.55-.98-1.55-1.55-2.72-1.55-1.82,0-3.12,1.4-3.12,3.3s1.29,3.21,3.17,3.21c1.31,0,2.15-.66,2.44-1.46h-3.33v-2.64h6.91Z"/><path class="b" d="M74.83,6.49C74.83,2.88,77.71,0,81.34,0s6.47,2.88,6.47,6.49-2.88,6.49-6.47,6.49-6.51-2.88-6.51-6.49M84.22,6.49c0-1.75-1.26-3.06-2.88-3.06s-2.93,1.31-2.93,3.06,1.28,3.06,2.93,3.06,2.88-1.31,2.88-3.06"/><polygon class="b" points="103.48 .29 98.63 12.69 95.29 12.69 90.5 .29 94.09 .29 96.97 7.93 99.89 .29 103.48 .29"/><polygon class="b" points="110.72 3.32 110.72 5.16 114.37 5.16 114.37 7.82 110.72 7.82 110.72 9.66 116.24 9.66 116.24 12.69 107.37 12.69 107.37 .29 116.24 .29 116.24 3.32 110.72 3.32"/><path class="b" d="M125.64,8.4h-1.4v4.28h-3.3V.29h6c2.42,0,4.28,1.73,4.28,4.03,0,1.59-.86,2.9-2.17,3.59l2.75,4.77h-3.7l-2.46-4.28ZM124.24,5.58h2.33c.78,0,1.28-.55,1.28-1.15s-.47-1.17-1.28-1.17h-2.33v2.31Z"/><polygon class="b" points="147.05 .29 147.05 12.69 144.22 12.69 139.23 6.16 139.23 12.69 135.93 12.69 135.93 .29 138.74 .29 143.75 6.83 143.75 .29 147.05 .29"/><path class="b" d="M151.4,6.49C151.4,2.88,154.28,0,157.9,0s6.47,2.88,6.47,6.49-2.88,6.49-6.47,6.49-6.51-2.88-6.51-6.49M160.78,6.49c0-1.75-1.26-3.06-2.88-3.06s-2.93,1.31-2.93,3.06,1.28,3.06,2.93,3.06,2.88-1.31,2.88-3.06"/><path class="b" d="M70.7,5.63v.97c0,3.86-2.59,6.38-6.02,6.38-3.65,0-6.51-2.84-6.51-6.47s2.88-6.51,6.49-6.51c2.28,0,4.37,1.17,5.52,3.08l-2.84,1.69c-.55-.98-1.55-1.55-2.72-1.55-1.82,0-3.12,1.4-3.12,3.3s1.29,3.21,3.17,3.21c1.31,0,2.15-.66,2.44-1.46h-3.33v-2.64h6.91Z"/><path class="b" d="M74.83,6.49C74.83,2.88,77.71,0,81.34,0s6.47,2.88,6.47,6.49-2.88,6.49-6.47,6.49-6.51-2.88-6.51-6.49M84.22,6.49c0-1.75-1.26-3.06-2.88-3.06s-2.93,1.31-2.93,3.06,1.28,3.06,2.93,3.06,2.88-1.31,2.88-3.06"/><polygon class="b" points="103.48 .29 98.63 12.69 95.29 12.69 90.5 .29 94.09 .29 96.97 7.93 99.89 .29 103.48 .29"/><polygon class="b" points="110.72 3.32 110.72 5.16 114.37 5.16 114.37 7.82 110.72 7.82 110.72 9.66 116.24 9.66 116.24 12.69 107.37 12.69 107.37 .29 116.24 .29 116.24 3.32 110.72 3.32"/><path class="b" d="M125.64,8.4h-1.4v4.28h-3.3V.29h6c2.42,0,4.28,1.73,4.28,4.03,0,1.59-.86,2.9-2.17,3.59l2.75,4.77h-3.7l-2.46-4.28ZM124.24,5.58h2.33c.78,0,1.28-.55,1.28-1.15s-.47-1.17-1.28-1.17h-2.33v2.31Z"/><polygon class="b" points="147.05 .29 147.05 12.69 144.22 12.69 139.23 6.16 139.23 12.69 135.93 12.69 135.93 .29 138.74 .29 143.75 6.83 143.75 .29 147.05 .29"/><path class="b" d="M151.4,6.49C151.4,2.88,154.28,0,157.9,0s6.47,2.88,6.47,6.49-2.88,6.49-6.47,6.49-6.51-2.88-6.51-6.49M160.78,6.49c0-1.75-1.26-3.06-2.88-3.06s-2.93,1.31-2.93,3.06,1.28,3.06,2.93,3.06,2.88-1.31,2.88-3.06"/><path class="b" d="M191.9,6.49c0,3.55-2.84,6.2-6.62,6.2h-5.05V.29h5.05c3.77,0,6.62,2.64,6.62,6.2M188.44,6.49c0-1.8-1.35-2.97-3.32-2.97h-1.51v5.94h1.51c1.97,0,3.32-1.17,3.32-2.97"/><path class="b" d="M194.94,6.49C194.94,2.88,197.82,0,201.44,0s6.47,2.88,6.47,6.49-2.88,6.49-6.47,6.49-6.51-2.88-6.51-6.49M204.32,6.49c0-1.75-1.26-3.06-2.88-3.06s-2.93,1.31-2.93,3.06,1.28,3.06,2.93,3.06,2.88-1.31,2.88-3.06"/><path class="b" d="M191.9,6.49c0,3.55-2.84,6.2-6.62,6.2h-5.05V.29h5.05c3.77,0,6.62,2.64,6.62,6.2M188.44,6.49c0-1.8-1.35-2.97-3.32-2.97h-1.51v5.94h1.51c1.97,0,3.32-1.17,3.32-2.97"/></svg>