<svg version="1.2" xmlns="http://www.w3.org/2000/svg" viewBox="0 0 327 130" width="327" height="130"><style>.a{fill:#009ade}.b{fill:#0a96d3}</style><path class="a" d="m66.2 76.4c2.7 0 5.2 2.1 5.2 7 0 4.8-2.5 6.9-5.2 6.9-2.7 0-5.2-2.1-5.2-6.9 0-4.9 2.5-7 5.2-7zm0 12c1.5 0 2.7-1.3 2.7-5 0-3.7-1.2-5-2.7-5-1.5 0-2.7 1.3-2.7 5 0 3.7 1.2 5 2.7 5z"/><path class="a" d="m73.1 81.8c0-0.6 0-1.2-0.1-1.6h2.1c0 0.6 0 1.2 0 1.8h0.1c0.3-0.8 1-2 2.4-2 0.2 0 0.3 0.1 0.4 0.1v2.2q-0.3 0-0.6 0c-1 0-2 0.6-2 2.4v5.5h-2.3"/><path class="a" d="m79.4 91.7c0.5 0.3 1.6 0.8 2.8 0.8 2.2 0 2.5-1.5 2.5-3.1v-0.9c-0.4 0.7-1 1.6-2.5 1.6-1.4 0-3.4-0.9-3.4-4.9 0-2.8 1-5.2 3.5-5.2 1.4 0 2 0.8 2.5 1.7h0.1c0-0.5 0-1 0-1.5h2.1q0 0.8-0.1 1.5v7.4c0 3.1-0.9 5.3-4.4 5.3-1.5 0-2.7-0.4-3.3-0.6m3.5-5.4c1.5 0 2-1.1 2-3.4 0-2-0.7-3.2-1.8-3.1-1.2 0-1.7 1.1-1.7 3.2 0 2.3 0.7 3.3 1.5 3.3"/><path class="a" d="m89.3 80.8c0.6-0.3 1.5-0.8 3-0.8 3 0 3.6 1.5 3.6 4v4.4c0 0.7 0.1 1.4 0.2 1.7h-2.1c-0.1-0.3-0.1-0.8-0.1-1.3h-0.1c-0.5 0.8-1.3 1.5-2.7 1.5-1.4 0-2.8-1.1-2.8-2.9 0-2.7 2.1-3.4 5-3.4h0.5v-0.4c0-1-0.5-1.9-1.8-1.9-1.1 0-2.2 0.6-2.6 1m4.4 2.6h-0.2c-2 0-3.2 0.4-3.2 1.8 0 1 0.6 1.6 1.5 1.6 1.4 0 1.9-1.1 1.9-2.9z"/><path class="a" d="m97.8 81.8c0-0.6 0-1.2-0.1-1.6h2.2c0 0.5 0.1 1 0.1 1.5 0.3-0.6 1-1.7 2.6-1.7 2.1 0 2.8 1.7 2.8 3.7v6.5h-2.3v-6c0-1.6-0.4-2.2-1.3-2.2-1.2 0-1.7 1.1-1.7 2.3v5.9h-2.3"/><path class="a" d="m107.4 75.9h2.3v2.4h-2.3m0 1.9h2.3v9.9h-2.3z"/><path fill-rule="evenodd" class="a" d="m111.2 88.1l4.1-6.1h-4v-1.8h6.3v2l-4 6.1h4.1v1.9h-6.5"/><path class="a" d="m119.5 80.8c0.6-0.3 1.5-0.8 3-0.8 3 0 3.7 1.5 3.7 4v4.4c0 0.7 0 1.4 0.1 1.7h-2.1c-0.1-0.3-0.1-0.8-0.1-1.3-0.6 0.8-1.3 1.5-2.7 1.5-1.5 0-2.9-1.1-2.9-2.9 0-2.7 2.1-3.4 5.1-3.4h0.4v-0.4c0-1-0.4-1.9-1.8-1.9-1.1 0-2.1 0.6-2.6 1m4.4 2.6h-0.2c-1.9 0-3.1 0.4-3.1 1.8 0 1 0.6 1.6 1.5 1.6 1.3 0 1.8-1.1 1.8-2.9 0 0 0-0.5 0-0.5z"/><path class="a" d="m134.6 89.9c-0.6 0.2-1.4 0.4-2.3 0.4h-0.1l-0.4 1.1c0.2-0.1 0.4-0.2 0.8-0.2 1 0 1.6 0.6 1.6 1.5 0 1.2-1.2 1.7-2.1 1.7-0.8 0-1.6-0.1-1.9-0.3l0.3-0.8c0.3 0.1 0.7 0.3 1.3 0.3 0.6 0 1-0.4 1-0.8 0-0.5-0.4-0.8-0.9-0.8-0.4 0-0.6 0.1-0.7 0.2l-0.4-0.3 0.6-1.7c-2.5-0.4-3.6-2.5-3.6-5 0-2.9 1.4-5.2 4.6-5.2 0.7 0 1.6 0.2 2 0.4l-0.1 1.9c-0.4-0.2-1-0.5-1.6-0.5-1.8 0-2.5 1.3-2.5 3.4 0 1.8 0.8 3.3 2.6 3.3 0.6 0 1.3-0.3 1.6-0.5"/><path class="a" d="m136.2 80.8c0.6-0.3 1.5-0.8 3-0.8 3 0 3.7 1.5 3.7 4v4.4c0 0.7 0 1.4 0.1 1.7h-2.1c-0.1-0.3-0.1-0.8-0.1-1.3h-0.1c-0.6 0.8-1.3 1.5-2.7 1.5-1.4 0-2.8-1.1-2.8-2.9 0-2.7 2.1-3.4 5-3.4h0.5v-0.4c0-1-0.5-1.9-1.8-1.9-1.1 0-2.2 0.6-2.6 1m0.2-3.8c0-0.7 0.4-2.3 1.8-2.3 0.8 0 1.5 0.7 2.1 0.7 0.4 0 0.5-0.4 0.5-0.8h1.2c0 0.6-0.4 2.3-1.7 2.3-0.8 0-1.5-0.7-2.1-0.7-0.5 0-0.7 0.4-0.7 0.8zm4.2 6.4h-0.2c-2 0-3.2 0.4-3.2 1.8 0 1 0.6 1.6 1.5 1.6 1.4 0 1.9-1.1 1.9-2.9z"/><path class="a" d="m148.7 80c1.9 0 4.2 1.1 4.2 5.2 0 4-2.3 5.1-4.2 5.1-2 0-4.3-1-4.3-5.1 0-4.2 2.3-5.2 4.3-5.2zm0 8.6c1.5 0 1.8-1.8 1.8-3.5 0-1.6-0.3-3.4-1.8-3.4-1.5 0-1.9 1.8-1.9 3.4 0 1.7 0.4 3.5 1.9 3.5z"/><path class="a" d="m61.4 93.6h3.8c2.6 0 4 1.6 4 4.1 0 2.6-1.4 4.1-4 4.1h-1.4v5.3h-2.4m3.3-7.1c1.5 0 2.2-0.8 2.2-2.3 0-1.5-0.7-2.2-2.2-2.2h-0.9v4.4h0.9z"/><path class="a" d="m70 97.8c0.7-0.4 1.6-0.8 3.1-0.8 2.9 0 3.6 1.5 3.6 4v4.4c0 0.7 0.1 1.4 0.2 1.8h-2.1c-0.1-0.4-0.1-0.9-0.1-1.4h-0.1c-0.6 0.8-1.3 1.5-2.7 1.5-1.5 0-2.8-1.1-2.8-2.9 0-2.7 2.1-3.4 5-3.4h0.5v-0.4c0-1-0.5-1.9-1.8-1.9-1.2 0-2.2 0.6-2.6 1m4.4 2.6h-0.2c-2 0-3.2 0.4-3.2 1.8 0 0.9 0.6 1.6 1.5 1.6 1.4 0 1.9-1.1 1.9-2.9 0 0 0-0.5 0-0.5z"/><path class="a" d="m78.6 98.8c0-0.6 0-1.2-0.1-1.6h2.2c0 0.5 0.1 1 0.1 1.5 0.3-0.6 1-1.7 2.5-1.7 2.2 0 2.9 1.7 2.9 3.7v6.5h-2.4v-6c0-1.6-0.3-2.2-1.3-2.2-1.2 0-1.6 1.1-1.6 2.3v5.8h-2.3"/><path fill-rule="evenodd" class="a" d="m87.7 100.7h4.3v1.9h-4.3z"/><path class="a" d="m100.4 103.9h-4.5l-0.9 3.2h-2.4l4.4-13.5h2.6l4.1 13.5h-2.4m-1.4-5.1l-1.6-6.3h-0.1l-1.8 6.3c0 0 3.5 0 3.5 0z"/><path class="a" d="m104.6 98.8q0-1.1-0.1-1.6h2.3c0 0.5 0.1 1 0.1 1.5 0.4-0.7 1.1-1.7 2.4-1.7 1.7 0 2.2 1.1 2.5 1.6 0.4-0.7 1.1-1.6 2.5-1.6 2.1 0 2.8 1.6 2.8 4v6.1h-2.3v-6.3c0-1.2-0.4-1.8-1.3-1.8-1 0-1.5 1-1.5 2.1v6h-2.3v-6.3c0-1.2-0.4-1.8-1.3-1.8-1 0-1.5 1-1.5 2.1v6h-2.3"/><path class="a" d="m125.8 106.7c-0.4 0.2-1.4 0.6-2.8 0.6-3.1 0-4.4-2.3-4.4-5 0-3 1.5-5.3 3.9-5.3 2.1 0 3.8 1.3 3.8 5.3v0.5h-5.5c0 1.7 0.6 2.7 2.4 2.7 1.4 0 2.1-0.4 2.5-0.7m-1.6-3.5c0-1.8-0.6-2.7-1.6-2.7-1.2 0-1.7 1.4-1.7 2.7z"/><path class="a" d="m127.9 98.8c0-0.6 0-1.2 0-1.6h2c0.1 0.6 0.1 1.2 0.1 1.8 0.3-0.8 1-2 2.5-2 0.1 0 0.2 0.1 0.4 0.1v2.2c-0.2 0-0.4-0.1-0.7-0.1-0.9 0-2 0.6-2 2.5v5.4h-2.3"/><path class="a" d="m134.3 92.9h2.4v2.4h-2.4m0 1.9h2.3v9.9h-2.3z"/><path class="a" d="m145.2 106.9c-0.6 0.2-1.4 0.4-2.3 0.4-3.2 0-4.5-2.3-4.5-5.1 0-2.9 1.4-5.2 4.6-5.2 0.7 0 1.6 0.2 2 0.4l-0.1 1.9c-0.4-0.2-1-0.5-1.6-0.5-1.8 0-2.5 1.3-2.5 3.4 0 1.9 0.8 3.3 2.6 3.3 0.6 0 1.3-0.3 1.6-0.5"/><path class="a" d="m146.8 97.8c0.6-0.4 1.5-0.8 3-0.8 3 0 3.7 1.5 3.7 4v4.4c0 0.7 0 1.4 0.1 1.8h-2.1c-0.1-0.4-0.1-0.9-0.1-1.4h-0.1c-0.5 0.8-1.3 1.5-2.6 1.5-1.5 0-2.9-1.1-2.9-2.9 0-2.7 2.1-3.4 5-3.4h0.5v-0.4c0-1-0.5-1.9-1.8-1.9-1.1 0-2.2 0.6-2.6 1m4.4 2.6h-0.2c-2 0-3.1 0.4-3.1 1.8 0 0.9 0.6 1.6 1.4 1.6 1.4 0 1.9-1.1 1.9-2.9v-0.5z"/><path class="a" d="m155.3 98.8c0-0.6 0-1.2 0-1.6h2.1c0 0.5 0.1 1 0.1 1.5 0.4-0.6 1-1.7 2.6-1.7 2.2 0 2.8 1.7 2.8 3.7v6.5h-2.3v-6c0-1.6-0.4-2.2-1.3-2.2-1.2 0-1.7 1.1-1.7 2.3v5.8h-2.3"/><path class="a" d="m165.2 97.8c0.6-0.4 1.5-0.8 3-0.8 3 0 3.7 1.5 3.7 4v4.4c0 0.7 0 1.4 0.1 1.8h-2.1c-0.1-0.4-0.1-0.9-0.1-1.4h-0.1c-0.5 0.8-1.3 1.5-2.6 1.5-1.5 0-2.9-1.1-2.9-2.9 0-2.7 2.1-3.4 5-3.4h0.5v-0.4c0-1-0.5-1.9-1.8-1.9-1.1 0-2.2 0.6-2.6 1m4.4 2.6h-0.2c-2 0-3.1 0.4-3.1 1.8 0 0.9 0.5 1.6 1.4 1.6 1.4 0 1.9-1.1 1.9-2.9v-0.5z"/><path class="a" d="m69.2 109.5v12.8c0 0.7 0 1.3 0.1 1.7h-2.2c0-0.3 0-0.9 0-1.6h-0.1c-0.3 0.9-1 1.7-2.5 1.7-2.4 0-3.4-2.3-3.4-5.1 0-3.3 1.3-5.2 3.3-5.2 1.4 0 2.2 0.9 2.5 1.6v-5.9m-1.8 12.9c1.4 0 1.8-1.6 1.8-3.4 0-1.9-0.5-3.4-1.8-3.4-1.2 0-1.7 1.3-1.7 3.3 0 2.3 0.4 3.5 1.7 3.5z"/><path class="a" d="m71.5 114.6c0.7-0.3 1.6-0.7 3.1-0.7 2.9 0 3.6 1.5 3.6 4v4.3c0 0.7 0.1 1.4 0.1 1.8h-2c-0.1-0.4-0.2-0.9-0.2-1.4-0.6 0.8-1.3 1.5-2.7 1.5-1.5 0-2.8-1-2.8-2.9 0-2.7 2.1-3.4 5-3.4h0.5v-0.3c0-1-0.5-1.9-1.8-1.9-1.2 0-2.2 0.5-2.6 0.9m4.4 2.6h-0.2c-2 0-3.2 0.4-3.2 1.9 0 0.9 0.6 1.5 1.5 1.5 1.4 0 1.9-1 1.9-2.8 0 0 0-0.6 0-0.6z"/><path class="a" d="m84.8 121.4c0.5 0.3 1.5 0.8 2.8 0.8 1 0 1.9-0.6 1.9-1.9 0-1-0.5-1.4-1.7-2.1l-1.2-0.7c-1.2-0.7-2.1-1.8-2.1-3.5 0-2.5 1.9-3.7 4.1-3.7 1.4 0 2.3 0.4 2.7 0.5l-0.1 2c-0.6-0.2-1.3-0.6-2.4-0.6-1.2 0-1.8 0.7-1.8 1.6 0 1.1 0.6 1.4 1.3 1.9l1.4 0.8c1.6 0.9 2.3 1.7 2.3 3.6 0 2.8-1.9 4.1-4.4 4.1q-1.9 0-2.9-0.6"/><path class="a" d="m94.1 114.6c0.7-0.3 1.6-0.7 3.1-0.7 2.9 0 3.6 1.5 3.6 4v4.3c0 0.7 0.1 1.4 0.2 1.8h-2.1c-0.1-0.4-0.1-0.9-0.1-1.4h-0.1c-0.6 0.8-1.3 1.5-2.7 1.5-1.5 0-2.8-1-2.8-2.9 0-2.7 2.1-3.4 5-3.4h0.5v-0.3c0-1-0.5-1.9-1.8-1.9-1.2 0-2.2 0.5-2.6 0.9m4.4 2.6h-0.2c-2 0-3.2 0.4-3.2 1.9 0 0.9 0.6 1.5 1.5 1.5 1.4 0 1.9-1 1.9-2.8 0 0 0-0.6 0-0.6z"/><path class="a" d="m110.3 122.3c0 0.7 0 1.2 0 1.7h-2.1c0-0.5-0.1-1-0.1-1.5l-0.1-0.1 0.1 0.1c-0.5 0.7-1.1 1.7-2.6 1.7-2.2 0-2.8-1.7-2.8-3.7v-6.5h2.3v6c0 1.5 0.4 2.2 1.4 2.2 1.2 0 1.5-1.2 1.5-2.5v-5.7h2.4m-3.7-3.9h2.1l-1.9 2.8h-1.4z"/><path class="a" d="m119.9 109.5v12.8c0 0.7 0 1.3 0.1 1.7h-2.1c-0.1-0.3-0.1-0.9-0.1-1.6h-0.1c-0.3 0.9-1 1.7-2.5 1.7-2.4 0-3.4-2.3-3.4-5.1 0-3.3 1.3-5.2 3.3-5.2 1.4 0 2.2 0.9 2.5 1.6v-5.9m-1.8 12.9c1.4 0 1.8-1.6 1.8-3.4 0-1.9-0.5-3.4-1.8-3.4-1.2 0-1.7 1.3-1.7 3.3 0 2.3 0.4 3.5 1.7 3.5z"/><path class="a" d="m128.8 123.5c-0.5 0.2-1.5 0.6-2.9 0.6-3.1 0-4.4-2.3-4.4-5 0-2.9 1.5-5.3 4-5.3 2 0 3.8 1.3 3.8 5.4v0.4h-5.6c0 1.7 0.7 2.8 2.5 2.8 1.4 0 2.1-0.5 2.5-0.8m-1.7-3.5c0-1.7-0.5-2.6-1.6-2.6-1.2 0-1.7 1.3-1.7 2.6z"/><path class="a" d="m28.1 127.3c-15.5 0-28.1-12.1-28.1-27 0-14.9 12.6-27 28.1-27 15.5 0 28.1 12.1 28.1 27 0 14.9-12.6 27-28.1 27zm0-52.8c-14.8 0-26.8 11.6-26.8 25.8 0 14.2 12 25.7 26.8 25.7 14.8 0 26.8-11.5 26.8-25.7 0-14.2-12-25.8-26.8-25.8z"/><path class="a" d="m28.1 119.8c-11.5 0-20.9-8.7-20.9-19.5 0-10.8 9.4-19.6 20.9-19.6 11.5 0 20.9 8.8 20.9 19.6 0 10.8-9.4 19.5-20.9 19.5zm0-37.7c-10.8 0-19.5 8.2-19.5 18.2 0 10 8.8 18.2 19.5 18.2 10.8 0 19.5-8.2 19.5-18.2 0-10-8.8-18.2-19.5-18.2z"/><path fill-rule="evenodd" class="a" d="m5.9 90.9l0.4 1.3h1.3l-1 0.8 0.4 1.1-1.2-0.9-1.1 1 0.5-1.2-1.2-0.8h1.4"/><path class="a" d="m7.1 94.3l-1.3-1-1 1-0.2-0.1 0.5-1.2-1.3-0.8h1.5l0.6-1.5 0.4 1.5h1.5l-1.1 0.8m-2.4-0.7l1 0.6-0.4 1.1 0.9-0.9 1.1 0.8-0.3-1 0.8-0.6h-1.2l-0.3-1.2-0.5 1.2h-1.2z"/><path fill-rule="evenodd" class="a" d="m48.8 109.6l0.3 1.3h1.4l-1 0.8 0.4 1.1-1.2-0.9-1.1 1 0.4-1.2-1.1-0.8 1.3 0.1"/><path class="a" d="m50 113l-1.3-1-1.1 1-0.1-0.1 0.4-1.2-1.3-0.8h1.6l0.6-1.5 0.4 1.5h1.5l-1.1 0.8m-2.5-0.7l1 0.7-0.4 1 1-0.9 1 0.8-0.3-0.9 0.9-0.7h-1.2l-0.3-1.2-0.5 1.2h-1.2z"/><path fill-rule="evenodd" class="a" d="m7.3 109.3l0.4 1.3h1.4l-1 0.8 0.3 1.1-1.1-0.9-1.1 1 0.4-1.2-1.1-0.8 1.3 0.1"/><path class="a" d="m8.6 112.7l-1.3-1-1.1 1-0.1-0.1 0.4-1.2-1.3-0.8h1.6l0.6-1.5 0.4 1.5h1.5l-1.1 0.8m-2.5-0.7l1 0.6-0.4 1.1 1-0.9 1 0.8-0.3-1 0.9-0.6h-1.2l-0.4-1.2-0.4 1.2z"/><path fill-rule="evenodd" class="a" d="m50.4 90l0.5 1.3h1.2l-0.9 0.7 0.3 1.2-1.1-1-1.1 1.1 0.4-1.3-1.2-0.7h1.4"/><path class="a" d="m51.7 93.4l-1.3-1.1-1.1 1-0.1-0.1 0.4-1.2-1.3-0.8h1.5l0.6-1.5 0.6 1.5h1.4l-1.1 0.8m-2.5-0.7l1 0.7-0.4 1 1-0.9 1 0.8-0.3-0.9 0.8-0.7h-1l-0.5-1.2-0.5 1.3z"/><path class="a" d="m29.8 100.3q0.1 0 0.3 0"/><path fill-rule="evenodd" class="a" d="m13.9 115.6l0.5 0.5-2.7 2.9-0.7-0.5 0.8-3.2-2 2.1-0.6-0.5 2.8-2.9 0.7 0.5-0.8 3.1"/><path class="a" d="m29.1 79.6h-0.9l1.9-3.8 1 0.1 1.1 4-1-0.1-0.1-0.8-1.6-0.2m0.3-0.6l1.1 0.1-0.4-1.6z"/><path fill-rule="evenodd" class="a" d="m34.8 79.8l1.9 0.6-0.2 0.7-2.8-0.9 1.3-3.6 0.8 0.2"/><path class="a" d="m41.1 82.2c-0.6 0.9-1.4 0.9-2.3 0.4-0.3-0.2-0.7-0.6-0.8-1.1q-0.1-0.4 0.3-0.9l1.5-2.2 0.7 0.4-1.4 2.2c-0.4 0.4-0.2 0.8 0.1 1 0.5 0.3 0.9 0.2 1.1-0.2l1.5-2.1 0.8 0.4"/><path fill-rule="evenodd" class="a" d="m43 85.3l-0.7-0.5 2.2-2.5-1-0.7 0.5-0.5 2.6 2-0.5 0.5-0.9-0.7"/><path class="a" d="m24.5 78.7c0.1 0.3 0.3 0.6 1 0.5 0.4 0 0.9-0.2 0.8-0.6-0.1-0.3-0.4-0.3-0.8-0.4h-0.5c-0.7 0-1.4-0.1-1.5-0.9-0.1-0.5 0-1.3 1.4-1.5 1.2-0.1 1.7 0.6 1.8 1.1l-0.8 0.1c-0.1-0.2-0.2-0.6-1-0.5-0.3 0.1-0.7 0.2-0.6 0.6 0.1 0.3 0.3 0.3 0.5 0.3l1 0.1c0.6 0.1 1.2 0.2 1.3 0.9 0.2 1.2-1 1.5-1.4 1.5-1.5 0.2-1.9-0.5-2-1"/><path class="a" d="m15.1 78.8c0.5-0.2 1.9-0.6 2.8 1 0.9 1.6-0.2 2.4-0.7 2.7-0.5 0.2-1.9 0.7-2.8-1-0.9-1.6 0.3-2.4 0.7-2.7zm1.7 3.1c0.4-0.2 0.9-0.8 0.3-1.7-0.5-1-1.2-1-1.6-0.7-0.4 0.2-0.9 0.7-0.4 1.7 0.6 0.9 1.3 0.9 1.7 0.7z"/><path class="a" d="m9.2 83.6l1.4-1.5c0.8-0.7 1.5-0.3 1.7-0.1 0.4 0.3 0.5 0.7 0.3 1.1 0.3-0.2 0.6-0.2 1.1 0.3 0.4 0.4 0.6 0.4 0.7 0.4h0.1l-0.6 0.7c-0.2-0.1-0.4-0.2-0.7-0.5-0.4-0.3-0.6-0.5-1 0l-0.7 0.6 1.2 1-0.6 0.6m-0.4-2.7c0.4-0.3 0.4-0.6 0.1-0.9-0.2-0.1-0.4-0.2-0.8 0.1l-0.8 0.7 0.8 0.8c0 0 0.7-0.7 0.7-0.7z"/><path fill-rule="evenodd" class="a" d="m39.4 117.9l0.7-0.4 2 3.4-0.8 0.4-2.9-1.6 1.5 2.4-0.8 0.4-2-3.4 0.8-0.4 2.9 1.6"/><path class="a" d="m40.9 116.8l1.4-1c1.1-0.8 2.1-0.1 2.6 0.5 0.5 0.6 1 1.8 0 2.6l-1.5 1m0.3-1l0.6-0.5c0.6-0.4 0.3-1.1-0.1-1.6-0.7-0.9-1.3-0.6-1.6-0.4l-0.6 0.5z"/><path fill-rule="evenodd" class="a" d="m47.8 116.3l-0.6 0.6-3.1-2.6 0.6-0.6"/><path fill-rule="evenodd" class="a" d="m49.1 87.3l-1.3-1.7-0.7 0.5 1.2 1.5-0.6 0.4-1.2-1.5-0.8 0.6 1.4 1.7-0.6 0.5-1.9-2.4 3.3-2.4 1.8 2.3"/><path class="a" d="m16.6 117.6c0.5 0.3 1.5 1.3 0.4 2.8-1.1 1.5-2.4 0.9-2.9 0.6-0.4-0.3-1.5-1.3-0.4-2.8 1.2-1.5 2.5-0.9 2.9-0.6zm-2.1 2.8c0.4 0.3 1.1 0.4 1.8-0.5 0.7-0.9 0.3-1.5-0.1-1.7-0.4-0.3-1.1-0.4-1.8 0.5-0.6 0.9-0.2 1.5 0.1 1.7z"/><path fill-rule="evenodd" class="a" d="m21 119.7l0.9 0.3-2.9 3.2-0.7-0.3 0.2-4.1 0.8 0.3-0.3 3.1"/><path fill-rule="evenodd" class="a" d="m22.4 124.2l-0.8-0.2 1.1-3.8 0.8 0.2"/><path fill-rule="evenodd" class="a" d="m32.2 124.5h-0.8l-0.2-3.2-0.6 3.3h-0.8l-1-3.2 0.2 3.3h-0.8l-0.3-3.9h1.3l1 3 0.5-3.1 1.3-0.1"/><path class="a" d="m37 122c0.3 1.1-0.2 1.6-1.2 1.9-0.4 0.1-1 0.1-1.4-0.2q-0.4-0.2-0.6-0.8l-0.7-2.5 0.9-0.2 0.7 2.4c0.1 0.6 0.5 0.7 0.9 0.6 0.6-0.1 0.7-0.4 0.6-0.9l-0.7-2.5 0.9-0.2"/><path class="a" d="m9.6 89.3l-0.5 0.7-3.4-2.2 1-1.5c0.5-0.7 1.2-0.8 1.8-0.3 0.4 0.2 1 0.8 0.4 1.7l-0.6 0.8m-0.1-1c0.4-0.6 0-0.8-0.2-0.9-0.3-0.2-0.6-0.1-0.9 0.3l-0.4 0.5 1 0.7z"/><path class="a" d="m32.2 115.7c0.3 0.6-0.5 0.5-0.8 0.7h-0.2c0-0.4 0.4-1 1-0.7z"/><path class="a" d="m27.7 103.7v0.3h-1c-0.1-0.6 0.8-0.7 1-0.3z"/><path fill-rule="evenodd" class="a" d="m29.6 96.9l0.5-0.6 1.4-0.1 0.6-0.1-0.3 0.5-0.7 0.3 0.1-0.3h-0.9l-0.4 0.3"/><path fill-rule="evenodd" class="a" d="m33 96.2l0.4-0.1 0.5 0.2-0.3 0.3-0.5 0.1-0.2 0.3-0.3-0.2-0.5 0.1v-0.2l0.4-0.1-0.2-0.2 0.2-0.2"/><path fill-rule="evenodd" class="a" d="m34.4 96.7l0.3-0.3 0.5 0.1-0.2 0.3-0.7 0.1"/><path fill-rule="evenodd" class="a" d="m30.3 97.3h0.6l-0.1 0.3h-0.6"/><path fill-rule="evenodd" class="a" d="m34.2 97.2l0.3-0.2 0.2 0.2-0.2 0.1"/><path fill-rule="evenodd" class="a" d="m33.9 97.8l0.3 0.3 0.2-0.1-0.1-0.6"/><path fill-rule="evenodd" class="a" d="m35 98l0.1-0.3-0.5-0.2"/><path fill-rule="evenodd" class="a" d="m35 98l0.1-0.3"/><path fill-rule="evenodd" class="a" d="m35.5 97.7l0.2 0.1-0.1 0.8-0.2-0.7"/><path class="a" d="m31 100.3c0.6-0.4 0.9-0.6 1.7-0.8-0.1 0.3 0.1 0.4 0.3 0.5 0.6-0.6 0.9-0.1 1.3 0.3 0.3 0.2 0.5 0.3 0.8 0.2q0-0.1 0.1-0.2h0.3c0.3 0.9 1.8 1.4 2 2.5 0.9 0.4 2.1 0 2.8 1 1.9 1.9-2.2 2.7-1.5 4.7-0.4 1.3-1.4 1.5-2.7 1.7-0.4 1-1.2 1.4-2.1 2-1.3-0.1-1.5 0.9-2.6 1.2-0.4 1.3-1.5 1.7-1.9 3 0.3 0.4 1 0.2 0.8 0.7-0.9 0.1-2-0.5-2.1-1.4 0.4-2.8 2.5-4.9 2.7-7.7-1.4-1-1.7-2.9-1.6-4.7 0.9-0.5 0.7-1.4 1-2l-0.5-0.5c-0.5 0.7-0.9-0.4-1.6 0q0-0.3-0.2-0.5c-0.3-0.4-0.8-0.7-1.1-1-1-0.3-2.2-0.4-3.1-1-1.2-0.1-0.5-1.4-1.6-1.7-0.1 0.1-0.4 0.2-0.3 0.5-1.7-0.5-1-2.3-1.8-3.3q0.3-1 0.1-1.9-0.2-0.7-0.6-1.3c-1.7-1.7-3.6 1.3-5.6 0.3q1.1-0.1 1.9-1c-0.2-0.3-0.6-0.4-0.5-0.8l0.2-0.2-0.2-0.3 0.2-0.2c-0.1-0.1-0.3-0.3-0.2-0.5 1-0.8 2.3-1.8 3.9-1.7 1.2-0.5 2.9 0.9 4-0.5-0.6 0-1.2-0.8-0.6-1.2 0.4 0 0.8-0.6 1.1 0 0.3-0.2 0.2-0.5 0.2-0.8 0.9-0.5 1.8 0.9 2.1-0.2h0.6c-0.1 0.2 0.1 0.3 0.2 0.5l0.3-0.3 0.3 0.3c0.7-0.7 1.1 0.6 2.1 0.2 0.7 0.4 1.1 1.4 1.3 2.2-0.3 0-0.6 0-0.8 0.3l1.1 1c0.3-0.2 0.2-0.5 0.2-0.8 1.3 0.6 2 1.9 2.6 3-1.3 0.2-2.6 0.8-3.4 2 0.9 2-2.7 1.9-1 3.9l-0.6 0.5c0-0.4-0.2-0.8-0.5-1.2-1.4 0.8-3.7-0.8-3.4 1.7 0.3 0.3 0.3 0.8 0.8 1 0.6 0.3 0.9-0.5 1.3-0.7v-0.2h1c0.6 0.9-1.1 1.9 0.6 2.2 0 0.3 0.1 0.6-0.3 0.7 0.2 0.4 0.4 0.5 0.6 0.5q0.3 0 0.7 0h0.3c0.2 0 0.4 0.1 0.5 0.2q0.3-0.1 0.4-0.2m-2.8-11.9c0-0.5-0.1-1.4 0.3-2l0.3-0.3q-0.2 0.1-0.3 0.3l-0.5-0.5 0.2-0.3c-0.3 0.2-0.5-0.3-0.7-0.4-0.4 0.9 1.9 2.1-0.3 2.2-0.1-0.2-0.3-0.3-0.3-0.5h-0.2v0.2h0.2c-0.1 0.2-0.3 0.4-0.5 0.3 0 0.3 0.1 0.6-0.3 0.7h0.6c0.1 0.2 0.3 0.3 0.2 0.5 0.4 0.1 0.9-0.2 1.1 0.3-0.1-0.3 0.1-0.4 0.2-0.5m-1.8-3c0.2-0.2 0.1-1.1-0.3-1.2-0.3 0.5 0.8 0.8 0 1.2"/><path class="a" d="m50.5 95.4q0.3-0.1 0.9-0.1 0.6 0 0.8 0.2c0.2 0.2 0.3 0.4 0.3 0.7 0 0.2 0 0.5-0.2 0.6q-0.4 0.3-0.9 0.3-0.1 0-0.2 0v0.9h-0.7m0.7-1.5c0 0 0.1 0 0.2 0 0.3 0 0.4-0.1 0.4-0.3 0-0.2-0.1-0.4-0.4-0.4q-0.1 0-0.2 0.1c0 0 0 0.6 0 0.6z"/><path class="a" d="m51.7 101l-0.2 0.6h-0.8l0.8-2.6h1l0.8 2.6h-0.8l-0.1-0.6m-0.1-0.5l-0.2-0.5c0-0.2-0.1-0.4-0.1-0.5 0 0.1-0.1 0.3-0.1 0.5l-0.1 0.5c0 0 0.5 0 0.5 0z"/><path fill-rule="evenodd" class="a" d="m51.1 102.7v1h0.9v-1h0.7v2.6h-0.7v-1h-0.9v1h-0.8v-2.6"/><path class="a" d="m52 107.7c0 0.8-0.5 1.4-1.3 1.4-0.9 0-1.3-0.6-1.3-1.4 0-0.7 0.5-1.3 1.3-1.3 0.9 0 1.3 0.6 1.3 1.3zm-1.9 0c0 0.5 0.3 0.8 0.6 0.8 0.4 0 0.6-0.3 0.6-0.8 0-0.5-0.2-0.8-0.6-0.8-0.4 0-0.6 0.3-0.6 0.8z"/><path class="a" d="m6.1 98c0 0.9-0.5 1.4-1.3 1.4-0.9 0-1.4-0.6-1.4-1.3 0-0.8 0.6-1.4 1.4-1.4 0.9 0 1.3 0.6 1.3 1.3zm-1.9 0c0 0.5 0.2 0.8 0.6 0.8 0.3 0 0.5-0.3 0.5-0.8 0-0.4-0.2-0.8-0.5-0.8-0.4 0-0.6 0.4-0.6 0.8z"/><path class="a" d="m3.4 100.9q0.3 0 0.9 0 0.6 0 0.9 0.2c0.2 0.1 0.3 0.3 0.3 0.6q0 0.4-0.2 0.7-0.4 0.2-1 0.2-0.1 0-0.1 0v0.9h-0.8m0.8-1.4c0 0 0.1 0 0.1 0 0.3 0 0.5-0.2 0.5-0.4 0-0.2-0.1-0.3-0.4-0.3q-0.2 0-0.2 0v0.7z"/><path class="a" d="m4.6 106.5c0.2 0.1 0.5 0.1 0.7 0.1q0.4 0 0.4-0.2c0-0.1-0.1-0.2-0.4-0.3-0.5-0.1-0.8-0.4-0.8-0.8 0-0.4 0.4-0.8 1.1-0.8 0.3 0 0.6 0.1 0.7 0.2l-0.1 0.5c-0.1 0-0.3-0.1-0.6-0.1q-0.3 0-0.3 0.2c0 0.1 0.1 0.2 0.4 0.3 0.5 0.2 0.8 0.4 0.8 0.8 0 0.4-0.4 0.8-1.2 0.8-0.3 0-0.7-0.1-0.8-0.1"/><path fill-rule="evenodd" class="a" d="m187.1 111.7h139.9v0.5h-139.9z"/><path fill-rule="evenodd" class="a" d="m205.3 76.3l-0.1 0.7v0.2 0.7l0.3 0.1h0.3l0.3 0.1 0.2 0.1 0.2 0.1 0.3 0.1 0.1 0.1 0.1 0.1h0.1v0.1l0.1 0.1h0.1l0.1 0.1v0.1l0.1 0.1v0.1l0.1 0.1 0.1 0.1v0.1 0.1l0.1 0.1v0.1 0.1 0.2 0.1 0.1 0.1l-0.1 0.1v0.2l-0.3-0.2-0.3-0.1-0.3-0.1-0.3-0.1-0.3-0.1-0.3-0.1-0.4-0.1h-0.3v0.5l0.3 0.1h0.3l0.3 0.1 0.3 0.1 0.3 0.1 0.3 0.1 0.2 0.1 0.3 0.1-0.1 0.1v0.1l-0.1 0.1-0.2 0.2-0.1 0.1-0.2 0.1-0.2 0.1-0.2 0.1-0.2 0.1-0.3 0.1-0.2 0.1-0.3 0.1-0.2 0.1-0.6 0.2-0.7 0.1-0.3 0.1-0.4 0.1-0.3 0.1-0.4 0.1h-0.2l-0.2 0.1-0.2 0.1-0.2 0.1-0.1 0.1-0.2 0.1-0.2 0.1-0.1 0.1-0.2 0.1-0.1 0.1-0.2 0.1-0.1 0.1-0.2 0.2-0.1 0.1-0.1 0.2-0.1 0.1-0.1 0.2-0.1 0.2v0.2l-0.1 0.2v0.2 0.2 0.2 0.2 0.2 0.2 0.2l0.1 0.2v0.1l0.1 0.2 0.1 0.1 0.1 0.2 0.1 0.1v0.2l0.1 0.1 0.2 0.1 0.1 0.1 0.1 0.1 0.1 0.1 0.1 0.1 0.1 0.1 0.2 0.1 0.1 0.1 0.1 0.1 0.3 0.1 0.2 0.1 0.3 0.1 0.2 0.1 0.2 0.1h0.3v-0.2l-0.1-0.2v-0.2-0.2-0.3-0.2-0.4l-0.2-0.1-0.2-0.2h-0.2l-0.1-0.1-0.1-0.1v-0.1l-0.1-0.1-0.1-0.1v-0.1l-0.1-0.2v-0.1l-0.1-0.2v-0.1-0.2l0.1-0.1v-0.2-0.1l0.1-0.1 0.1-0.1v-0.1l0.1-0.1 0.1-0.1h0.1l0.1-0.1 0.2-0.1 0.1-0.1h0.1l0.2-0.1 0.1-0.1h0.2l0.3-0.2 0.4-0.1 0.4-0.1 0.3-0.1 0.8-0.2 0.7-0.2 0.3-0.1 0.3-0.1 0.3-0.1 0.2-0.1 0.3-0.1 0.2-0.1 0.2-0.1 0.2-0.1 0.1-0.1 0.2-0.1 0.2-0.1 0.1-0.2 0.1-0.1 0.1-0.1 0.1-0.1 0.1-0.2 0.1 0.1 0.1 0.1 0.1 0.1h0.1v0.1h0.1l-1.7 1.7-0.1-0.1-0.1-0.1-0.1-0.1-0.1-0.1-0.6 0.2 0.2 0.1 0.2 0.1 0.2 0.2 0.1 0.1-0.6 0.7h-0.1l-0.7 0.1-0.1 0.2h-0.2l0.4-0.4-0.1-0.1-0.4 0.5h0.1v0.2l0.1 0.1 0.1 0.2h-0.5l-0.6-0.3v2.4l0.5 0.2 0.5 0.2 0.5 0.3 0.4 0.3 0.5 0.4 0.3 0.5 0.1 0.5 0.1 0.3v0.3l-0.1 0.6-0.1 0.5-0.4 0.5-0.4 0.3-0.1 0.1-0.2 0.1-0.1 0.1-0.2 0.1h-0.1l-0.2 0.1-0.1 0.1-0.8 0.2h-0.1-0.1v0.1h-0.1v1.3l0.4 0.2 0.4 0.2 0.4 0.3 0.3 0.4 0.1 0.1 0.2 0.4 0.2 0.4 0.1 0.6v1.1l-0.1 0.2-0.1 0.1-0.2 0.1h-0.3l-0.2 0.1h-0.3l-0.2 0.1h-0.3-0.2-0.3v0.5h0.2 0.3 0.3l0.2-0.1h0.3l0.2-0.1h0.3l0.2-0.1h0.3l0.2-0.1 0.3-0.1 0.2-0.1 0.2-0.1h0.3l0.2-0.1 0.3-0.1 0.2-0.2 0.2-0.1 0.2-0.1 0.3-0.1 0.2-0.1 0.2-0.2 0.2-0.1 0.2-0.1 0.2-0.2 0.2-0.1 0.2-0.2 0.2-0.2 0.2-0.1 0.2-0.2 0.2-0.1 0.2-0.2 1.6 1.6-0.2 0.2-0.2 0.3-0.3 0.2-0.2 0.2-0.3 0.2-0.2 0.2-0.3 0.2-0.3 0.2-0.2 0.1-0.3 0.2-0.3 0.2-0.3 0.1-0.3 0.2-0.3 0.1-0.3 0.2-0.3 0.1-0.3 0.1-0.3 0.2-0.3 0.1-0.3 0.1-0.3 0.1-0.3 0.1h-0.4l-0.3 0.1-0.3 0.1h-0.4l-0.3 0.1h-0.3-0.4l-0.3 0.1h-0.4-0.3-0.7l-0.3-0.1h-0.4-0.3l-0.4-0.1h-0.3l-0.3-0.1-0.3-0.1h-0.4l-0.3-0.1-0.3-0.1-0.3-0.1-0.3-0.1-0.3-0.1-0.3-0.2-0.3-0.1-0.3-0.1-0.3-0.2-0.3-0.1-0.3-0.2-0.3-0.2-0.3-0.1-0.2-0.2-0.3-0.2-0.3-0.2-0.2-0.2-0.3-0.2-0.2-0.2-0.3-0.2-0.2-0.2-0.2-0.2 1.6-1.7 0.4 0.3 0.3 0.3 0.4 0.3 0.4 0.3 0.4 0.3 0.4 0.2 0.2 0.1 0.2 0.1 0.2 0.1 0.2 0.1 0.2 0.1 0.3 0.1 0.2 0.1 0.2 0.1 0.2 0.1 0.3 0.1h0.2l0.2 0.1 0.3 0.1h0.2l0.2 0.1h0.3l0.2 0.1h0.3 0.2l0.3 0.1v-0.5l-0.3-0.1h-0.2-0.3l-0.2-0.1h-0.2l-0.2-0.1h-0.3l-0.2-0.1-0.4-0.1-0.5-0.2-0.4-0.1-0.4-0.2-0.4-0.2-0.4-0.3-0.4-0.2-0.4-0.2-0.3-0.3-0.4-0.2-0.3-0.3-0.3-0.3 0.4-0.4 0.6 0.1 0.3-0.4 0.8 0.1 0.2-0.3v-0.2l0.2 0.2 0.3 0.2 0.2 0.1 0.2 0.2 0.3 0.1 0.2 0.1 0.3 0.2 0.3 0.1 0.2 0.1 0.3 0.1 0.3 0.1h0.2l0.3 0.1 0.3 0.1h0.3l0.3 0.1v-0.5l-0.3-0.1h-0.4l-0.3-0.1-0.3-0.1-0.3-0.1-0.3-0.1-0.3-0.1-0.3-0.2-0.3-0.1-0.2-0.2-0.3-0.1-0.3-0.2-0.2-0.2-0.3-0.2-0.2-0.2-0.2-0.2 1.6-1.7 0.2 0.2 0.2 0.1 0.1 0.1 0.2 0.1 0.2 0.1 0.1 0.1 0.2 0.1 0.2 0.1 0.1-0.2v-0.2l-0.1-0.1-0.2-0.1-0.1-0.1-0.2-0.1-0.1-0.1-0.2-0.1-0.1-0.1-0.1-0.1 1.7-1.7 0.1 0.1 0.1 0.1h0.1l0.1 0.1 0.1 0.1h0.1l0.1 0.1h0.2v-0.5h-0.2l-0.1-0.1-0.2-0.1-0.1-0.1 0.5-0.5-0.5-0.2-0.4 0.3-0.1-0.1-0.1-0.1-0.1-0.2-0.1-0.2-0.3-0.1h-0.1l-0.4-0.3-0.4-0.2-0.3-0.3-0.3-0.3-0.1-0.4-0.2-0.3-0.1-0.4-0.2-0.4v-0.5l0.1-0.5 0.1-0.5v-0.2l0.3-0.6 0.1-0.1v-0.1l0.2-0.2-1.6-1.6 0.2-0.2 0.2-0.2 0.3-0.2 0.2-0.2 0.3-0.2 0.2-0.1 0.3-0.2 0.3-0.1 0.2-0.2 0.3-0.1 0.3-0.1 0.3-0.1 0.3-0.1 0.3-0.1h0.3l0.3-0.1v-0.5l-0.3 0.1h-0.4l-0.3 0.1-0.3 0.1-0.3 0.1-0.4 0.1-0.3 0.2-0.2 0.1-0.3 0.2-0.3 0.1-0.3 0.2-0.3 0.2-0.2 0.2-0.3 0.2-0.2 0.2-0.3 0.2-0.2-0.2-0.3 0.4 0.2 0.1-0.3 0.3-0.2 0.3-0.3 0.3-0.2 0.4-0.2 0.3-0.2 0.3-0.2 0.4-0.2 0.3-0.1 0.4-0.1 0.4-0.2 0.4-0.1 0.4v0.4l-0.1 0.4v0.2 0.2l-0.1 0.2v0.2h-2.3v-0.3-0.2l0.1-0.3v-0.3-0.2l0.1-0.3v-0.2l0.1-0.3v-0.2l0.1-0.3 0.1-0.2v-0.3l0.1-0.2 0.1-0.3 0.1-0.2 0.1-0.2 0.1-0.3 0.1-0.2 0.1-0.2 0.1-0.3 0.2-0.2 0.1-0.2 0.1-0.2 0.2-0.2 0.1-0.3 0.2-0.2 0.1-0.2 0.2-0.2 0.1-0.2 0.2-0.2 0.2-0.2 0.1-0.2 0.8 0.8 0.5-0.2-0.9-0.9 0.2-0.2 0.2-0.2 0.2-0.1 0.2-0.2 0.2-0.2 0.3-0.1 0.2-0.2 0.2-0.1 0.4-0.9-0.3 0.2-0.3 0.2-0.4 0.2-0.3 0.3-0.3 0.2-0.3 0.2-0.2 0.3-0.3 0.2-1.7-1.6 0.3-0.2 0.2-0.2 0.2-0.2 0.2-0.2 0.2-0.2 0.2-0.1 0.3-0.2 0.2-0.2 0.2-0.1 0.3-0.2 0.2-0.1 0.2-0.2 0.3-0.1 0.2-0.1 0.3-0.2 0.2-0.1 0.3-0.1 0.3-0.1 0.2-0.1 0.3-0.2 0.2-0.1h0.3l0.3-0.1 0.3-0.1 0.2-0.1 0.3-0.1h0.3l0.3-0.1h0.3l0.2-0.1h0.3l0.3-0.1v-0.5l-0.7 0.1-0.6 0.1-0.7 0.2-0.6 0.2-0.7 0.2-0.6 0.2-0.6 0.3-0.6 0.2-0.5 0.4-0.6 0.3-0.5 0.3-0.6 0.4-0.5 0.4-0.4 0.4-0.5 0.5-0.5 0.5-0.4 0.4-0.4 0.6-0.3 0.5-0.4 0.5-0.3 0.6-0.3 0.6-0.3 0.6-0.3 0.6-0.2 0.6-0.2 0.6-0.2 0.7-0.1 0.6-0.1 0.7-0.1 0.7-0.1 0.6v0.7 0.8l0.1 0.7 0.1 0.7 0.1 0.7 0.2 0.7 0.2 0.7 0.2 0.7 0.3 0.6 0.2 0.7 0.4 0.6 0.3 0.6 0.4 0.6 0.4 0.5 0.4 0.6 0.4 0.5 0.5 0.5 0.5 0.5 0.5 0.4 0.6 0.4 0.5 0.4 0.6 0.4 0.6 0.3 0.7 0.4 0.6 0.2 0.7 0.3 0.6 0.2 0.7 0.2 0.7 0.2 0.7 0.1 0.7 0.1 0.8 0.1h0.7 0.7l0.8-0.1 0.7-0.1 0.7-0.1 0.7-0.2 0.7-0.2 0.6-0.2 0.7-0.3 0.6-0.2 0.7-0.4 0.6-0.3 0.5-0.4 0.6-0.4 0.6-0.4 0.5-0.4 0.5-0.5 0.4-0.5 0.5-0.5 0.4-0.6 0.4-0.5 0.4-0.6 0.3-0.6 0.4-0.6 0.2-0.7 0.3-0.6 0.2-0.7 0.2-0.7 0.2-0.7 0.1-0.7 0.1-0.7v-0.7l0.1-0.8-0.1-0.7v-0.6l-0.1-0.7-0.1-0.7-0.1-0.7-0.2-0.6-0.2-0.6-0.3-0.7-0.2-0.6-0.3-0.6-0.3-0.5-0.3-0.6-0.4-0.5-0.4-0.6-0.4-0.5-0.4-0.5-0.4-0.4-0.5-0.5-0.5-0.4-0.5-0.4-0.5-0.4-0.6-0.3-0.5-0.4-0.6-0.3-0.6-0.3-0.6-0.2-0.6-0.3-0.7-0.2-0.6-0.1-0.7-0.2-0.6-0.1-0.7-0.1v0.5h0.3l0.3 0.1h0.3l0.3 0.1h0.3l0.2 0.1 0.3 0.1 0.3 0.1h0.3l0.2 0.1 0.3 0.1 0.3 0.1 0.3 0.1 0.2 0.2 0.3 0.1 0.2 0.1 0.3 0.1 0.2 0.2 0.3 0.1 0.3 0.1 0.2 0.2 0.2 0.1 0.3 0.2 0.2 0.2 0.2 0.1 0.3 0.2 0.2 0.2 0.2 0.2 0.3 0.1 0.2 0.2 0.2 0.2 0.2 0.2-1.6 1.6 0.1-0.2-0.2-0.1-0.3-0.1 0.1-0.1-0.2-0.7-0.4-0.4-1.2-0.7-0.2 0.1-0.2 0.1 0.3 0.5-0.2-0.1-0.2-0.1-0.2-0.1-0.2-0.1-0.2-0.2-0.2-0.2-0.2-0.2-0.2-0.2-0.2-0.1-0.2-0.2-0.3-0.1-0.2-0.2-0.3-0.1-0.2-0.1-0.3-0.1h-0.3l-0.2-0.1h-0.3l-0.2-0.1h-0.3zm-1.1 17.8l-0.4 0.1-0.2 0.1v6.4l0.1 0.5v0.2l0.2 0.2 0.1 0.1 0.1-0.1 0.1-0.2 0.1-0.2v-0.5l0.2-6.7-0.3 0.1zm-0.7-2.1l0.6-0.2 0.4-0.1 0.2-6.8-0.8 0.2-0.5 0.1c0 0 0.1 6.8 0.1 6.8zm-12.2-14.4l0.3-0.4 0.2-0.4 0.3-0.4 0.3-0.4 0.2-0.4 0.3-0.3 0.1-0.2 0.2-0.1 0.1-0.2 0.1-0.1-0.3 0.1-0.2 0.1-0.3 0.1-0.2 0.1-0.3 0.1-0.2 0.1-0.2 0.1-0.2 0.1-0.3 0.2-0.2 0.1-0.2 0.2-0.2 0.1-0.2 0.2-0.2 0.2-0.2 0.1-0.1 0.2-0.2 0.2-0.2 0.2-0.1 0.2-0.2 0.2-0.1 0.3-0.1 0.2-0.2 0.2-0.1 0.2-0.1 0.3-0.1 0.2-0.1 0.2-0.1 0.3-0.1 0.2-0.1 0.3v0.2l-0.1 0.3 0.2-0.2 0.2-0.2 0.3-0.2 0.2-0.2 0.5-0.4 0.4-0.3 0.3-0.2 0.2-0.2 0.2-0.1 0.2-0.2 0.2-0.2 0.1-0.2 0.2-0.1 0.1-0.2zm-1.4 4.4l-0.1 0.1-0.1 0.2-0.1 0.1-0.2 0.1-0.3 0.3-0.3 0.3-0.3 0.3-0.4 0.3-0.2 0.2-0.2 0.2-0.2 0.2-0.2 0.2-0.1 0.1-0.1 0.2-0.1 0.1-0.1 0.2-0.1 0.2-0.1 0.2-0.1 0.2-0.1 0.1-0.1 0.3-0.1 0.2v0.2l-0.1 0.2-0.1 0.2v0.2l-0.1 0.2v0.2l-0.2-1.6-0.1-0.7-0.2-0.6v-0.4-0.3l-0.1-0.4v-0.3-0.3-0.4-0.3-0.3-0.4-0.3l0.1-0.3 0.1-0.3-0.3 0.4-0.2 0.5-0.1 0.2-0.1 0.2-0.2 0.2-0.1 0.2v0.3l-0.1 0.2-0.1 0.2-0.1 0.3v0.2l-0.1 0.3v0.2 0.7 0.1l0.1 0.2v0.2 0.2l0.1 0.1v0.2l0.1 0.3 0.1 0.3 0.1 0.3 0.2 0.3 0.2 0.6 0.3 0.6 0.1 0.3 0.2 0.3 0.1 0.3 0.1 0.3v-0.1-0.1l0.1-0.1v-0.2l0.1-0.2 0.1-0.2 0.1-0.3 0.2-0.3 0.1-0.2 0.2-0.3 0.2-0.3 0.2-0.2 0.1-0.3 0.2-0.2 0.2-0.2 0.2-0.2 0.1-0.2 0.2-0.2 0.2-0.2 0.1-0.2 0.2-0.3 0.1-0.2 0.1-0.1 0.1-0.2 0.1-0.2 0.1-0.2 0.2-0.3 0.1-0.4 0.2-0.5 0.2-0.6zm-1.3 4.2l-0.3 0.3-0.2 0.3-0.2 0.4-0.3 0.3-0.2 0.3-0.2 0.3-0.1 0.3-0.2 0.3-0.1 0.2v0.2l-0.1 0.2v0.1l-0.1 0.2v0.2l-0.1 0.2v0.2l-0.1 0.2v0.2 0.2 0.2 0.2 0.7l-0.1-0.2v-0.2l-0.1-0.2v-0.2l-0.1-0.2-0.1-0.2-0.1-0.2-0.1-0.3-0.2-0.4-0.2-0.4-0.2-0.4-0.3-0.4-0.2-0.4-0.2-0.4-0.2-0.4-0.2-0.4v-0.2l-0.1-0.2-0.1-0.2v-0.2l-0.1-0.2v-0.2-0.1-0.2l-0.1 0.4-0.1 0.4v0.3l-0.1 0.4v0.3 0.3 0.3 0.3l0.1 0.3v0.2l0.1 0.3v0.2l0.1 0.3 0.1 0.2 0.1 0.2 0.1 0.2 0.1 0.2 0.2 0.3 0.1 0.2 0.2 0.2 0.3 0.4 0.3 0.4 0.3 0.4 0.4 0.5 0.4 0.5 0.4 0.5v-0.2-0.2-0.2-0.2-0.2l0.1-0.2v-0.2l0.1-0.3 0.1-0.4 0.2-0.4 0.2-0.5 0.2-0.5 0.2-0.4 0.2-0.5v-0.3l0.1-0.2 0.1-0.3 0.1-0.2v-0.3l0.1-0.2v-0.3l0.1-0.3v-0.3-0.2-0.3-0.3zm0.3 12v-0.2l-0.1-0.2v-0.2-0.2l-0.1-0.3v-0.2-0.3-0.2-0.5l0.1-0.5v-0.6l0.1-0.5v-0.5-0.6-0.2-0.3-0.5-0.3-0.3l-0.1-0.2v-0.3l-0.1-0.3-0.1-0.2v-0.3l-0.1-0.2-0.3 0.7-0.2 0.8-0.1 0.3-0.1 0.4-0.1 0.4v0.3l-0.1 0.4v0.4 0.2 0.2 0.2 0.2 0.3 0.2 0.2l0.1 0.2v0.3l0.1 0.2v0.2l0.1 0.3-0.1-0.2-0.1-0.2-0.2-0.2-0.2-0.3-0.2-0.3-0.2-0.4-0.3-0.4-0.4-0.4-0.4-0.4-0.4-0.5-0.4-0.5-0.4-0.5-0.4-0.5-0.3-0.5-0.2-0.2-0.2-0.2-0.1-0.2-0.1-0.2v0.4 0.5l0.1 0.5 0.1 0.4 0.1 0.4 0.2 0.4 0.1 0.4 0.2 0.3 0.2 0.3 0.2 0.3 0.2 0.3 0.2 0.3 0.3 0.3 0.2 0.2 0.3 0.3 0.2 0.2 0.3 0.2 0.2 0.2 0.3 0.2 0.2 0.2 0.5 0.3 0.5 0.3 0.3 0.3 0.4 0.2 0.1 0.1 0.1 0.1 0.1 0.1 0.1 0.1zm-2.7-13.2l0.1-0.2 0.2-0.3 0.1-0.2 0.1-0.3 0.2-0.2 0.2-0.2 0.1-0.2 0.2-0.2 0.2-0.2 0.2-0.2 0.2-0.1 0.2-0.2 0.4-0.3 0.4-0.4 0.5-0.3 0.4-0.3 0.2-0.2 0.2-0.2 0.2-0.2 0.2-0.2 0.1-0.2 0.2-0.2 0.1-0.2 0.2-0.3 0.1-0.2 0.1-0.3 0.1-0.3 0.1-0.3-0.2 0.2-0.2 0.2-0.2 0.2-0.2 0.1-0.5 0.4-0.5 0.3-0.4 0.3-0.5 0.3-0.2 0.2-0.3 0.2-0.2 0.1-0.2 0.2-0.2 0.3-0.2 0.2-0.2 0.2-0.1 0.2-0.2 0.2-0.1 0.2-0.1 0.3-0.1 0.2 0.1-0.3 0.1-0.4 0.1-0.4v-0.3l0.1-0.4 0.1-0.3v-0.3-0.3l0.1-0.4v-0.4-0.2l0.1-0.3v-0.2l0.1-0.2 0.2-0.3 0.1-0.4 0.1-0.1 0.1-0.2 0.1-0.1 0.1-0.2-0.3 0.2-0.2 0.2-0.2 0.2-0.2 0.2-0.2 0.2-0.2 0.2-0.1 0.3-0.2 0.2-0.1 0.3-0.1 0.2-0.2 0.3v0.2l-0.1 0.3-0.1 0.3-0.1 0.3v0.3 0.2l-0.1 0.3v0.2 0.3 0.5 0.5l0.1 0.4v0.5l0.1 0.6v0.5zm5.8 16.6l-0.1-0.2-0.1-0.2-0.1-0.2-0.1-0.2-0.1-0.2-0.1-0.2v-0.2l-0.1-0.3-0.1-0.4-0.1-0.5-0.1-0.5-0.1-0.5-0.1-0.5-0.1-0.5-0.1-0.2-0.1-0.3v-0.2l-0.1-0.3-0.1-0.2-0.1-0.3-0.1-0.2-0.1-0.2-0.2-0.2-0.1-0.3-0.2-0.2-0.2-0.2v0.5 1.2 0.4 1l0.1 0.4v0.3 0.2l0.1 0.1v0.2l0.1 0.1v0.2l0.1 0.2v0.1l0.1 0.2 0.1 0.1 0.1 0.2 0.1 0.1 0.1 0.2-0.2-0.2-0.2-0.2-0.3-0.2-0.3-0.2-0.1-0.1-0.2-0.2-0.2-0.1-0.2-0.1-0.2-0.1-0.2-0.1-0.2-0.1-0.3-0.1-0.1-0.1h-0.2l-0.1-0.1-0.1-0.1-0.3-0.1-0.2-0.2-0.3-0.2-0.2-0.2-0.2-0.2-0.3-0.2-0.4-0.4-0.3-0.4-0.4-0.4-0.3-0.3 0.1 0.3 0.1 0.5 0.2 0.5 0.2 0.4 0.2 0.4 0.3 0.4 0.2 0.4 0.2 0.3 0.3 0.3 0.3 0.2 0.3 0.3 0.2 0.2 0.3 0.2 0.3 0.2 0.3 0.2 0.3 0.1 0.3 0.1 0.3 0.2 0.3 0.1 0.3 0.1h0.3l0.5 0.2 0.5 0.1 0.3 0.1h0.2l0.2 0.1 0.2 0.1h0.2l0.1 0.1 0.1 0.1 0.2 0.1zm3.7 2.6l-0.1-0.2v-0.1l-0.1-0.1-0.1-0.2-0.1-0.3-0.2-0.4-0.2-0.4-0.1-0.4-0.2-0.4-0.2-0.5-0.2-0.2-0.1-0.2-0.1-0.3-0.1-0.2-0.2-0.2-0.1-0.2-0.2-0.3-0.1-0.2-0.2-0.2-0.2-0.2-0.2-0.2-0.2-0.2-0.2-0.2-0.2-0.1-0.3-0.2-0.2-0.1 0.2 0.8 0.3 0.7 0.1 0.4 0.1 0.3 0.1 0.3 0.1 0.3 0.1 0.3 0.2 0.3v0.2l0.1 0.1 0.1 0.2 0.1 0.1 0.1 0.1 0.1 0.2 0.1 0.1 0.2 0.1 0.1 0.2 0.1 0.1 0.2 0.1 0.1 0.2-0.2-0.2-0.4-0.1-0.4-0.2-0.4-0.1-0.3-0.1-0.2-0.1-0.3-0.1-0.2-0.1h-0.3l-0.2-0.1h-0.3l-0.3-0.1h-0.4l-0.4-0.1-0.3-0.1-0.4-0.1-0.2-0.1-0.3-0.1-0.2-0.1-0.3-0.1-0.2-0.1-0.2-0.2-0.2-0.1-0.1-0.1-0.4-0.2-0.4-0.3 0.3 0.5 0.3 0.4 0.3 0.4 0.3 0.4 0.3 0.3 0.3 0.3 0.3 0.3 0.3 0.2 0.3 0.2 0.4 0.1 0.3 0.2 0.3 0.1 0.4 0.1 0.3 0.1 0.3 0.1h0.4 0.3l0.3 0.1h0.3 0.3 0.6l0.5-0.1h0.3 0.2 0.5l0.2 0.1h0.2 0.1l0.2 0.1zm20.9-26.6l-0.3-0.4-0.2-0.4-0.3-0.4-0.3-0.4-0.2-0.4-0.3-0.3-0.1-0.2-0.1-0.1-0.2-0.1-0.1-0.1h0.3l0.2 0.1 0.3 0.1 0.2 0.1 0.3 0.1 0.2 0.1 0.2 0.1 0.2 0.1 0.3 0.2 0.2 0.1 0.2 0.2 0.2 0.1 0.2 0.2 0.2 0.2 0.2 0.2 0.1 0.2 0.2 0.1 0.2 0.2 0.1 0.3 0.2 0.2 0.1 0.2 0.2 0.2 0.1 0.2 0.1 0.3 0.1 0.2 0.1 0.2 0.1 0.3 0.1 0.2 0.1 0.2 0.1 0.3 0.1 0.2v0.3l-0.2-0.2-0.2-0.2-0.3-0.2-0.2-0.2-0.5-0.4-0.4-0.3-0.2-0.2-0.3-0.2-0.2-0.1-0.2-0.2-0.1-0.2-0.2-0.1-0.1-0.2-0.2-0.2zm1.4 4.4l0.1 0.1 0.1 0.2 0.2 0.1 0.1 0.2 0.3 0.2 0.3 0.3 0.4 0.3 0.4 0.4 0.1 0.1 0.2 0.2 0.2 0.2 0.2 0.2 0.1 0.1 0.1 0.2 0.1 0.1 0.1 0.2 0.1 0.2 0.1 0.2 0.1 0.2 0.1 0.2 0.1 0.2 0.1 0.2 0.1 0.2v0.2l0.1 0.2 0.1 0.2v0.2l0.1 0.2 0.2-1.6 0.1-0.7 0.1-0.6v-0.4l0.1-0.3v-0.3-0.4l0.1-0.3v-0.4-0.3-0.3l-0.1-0.4v-0.3l-0.1-0.3-0.1-0.3 0.3 0.4 0.2 0.5 0.1 0.2 0.2 0.2 0.1 0.2 0.1 0.3 0.1 0.2 0.1 0.2v0.2l0.1 0.3v0.2l0.1 0.3v0.2 0.3 0.2 0.2 0.1 0.2l-0.1 0.2v0.2 0.1l-0.1 0.2-0.1 0.3-0.1 0.3-0.1 0.3-0.1 0.3-0.3 0.6-0.3 0.6-0.1 0.3-0.1 0.3-0.2 0.3-0.1 0.3v-0.1-0.1-0.1l-0.1-0.1-0.1-0.3-0.1-0.2-0.1-0.3-0.2-0.3-0.1-0.2-0.2-0.3-0.2-0.3-0.2-0.2-0.1-0.3-0.2-0.2-0.2-0.2-0.2-0.2-0.1-0.2-0.1-0.1-0.2-0.3-0.2-0.2-0.2-0.2-0.1-0.2-0.1-0.2-0.1-0.2-0.1-0.2-0.1-0.2-0.2-0.3-0.1-0.4-0.2-0.5-0.2-0.6zm1.3 4.2l0.3 0.3 0.2 0.3 0.3 0.4 0.2 0.3 0.2 0.3 0.2 0.3 0.2 0.3 0.1 0.4 0.1 0.1 0.1 0.2v0.2l0.1 0.1v0.2l0.1 0.2v0.2l0.1 0.2v0.2 0.2 0.2 0.2l0.1 0.2v0.8-0.3-0.2l0.1-0.2 0.1-0.2 0.1-0.2v-0.2l0.1-0.2 0.1-0.2 0.2-0.5 0.2-0.4 0.3-0.4 0.2-0.4 0.2-0.4 0.2-0.4 0.2-0.4 0.2-0.4 0.1-0.2v-0.2l0.1-0.2v-0.2l0.1-0.2v-0.1-0.2-0.2l0.1 0.4 0.1 0.4 0.1 0.4v0.3 0.3 0.3 0.3 0.3 0.3l-0.1 0.3v0.2l-0.1 0.3-0.1 0.2-0.1 0.2-0.1 0.2-0.1 0.3-0.1 0.2-0.1 0.2-0.2 0.2-0.1 0.2-0.3 0.4-0.4 0.4-0.3 0.4-0.4 0.5-0.4 0.5-0.4 0.5v-0.2-0.2-0.2-0.2-0.2l-0.1-0.2v-0.2l-0.1-0.2-0.1-0.5-0.2-0.4-0.2-0.5-0.2-0.4-0.2-0.5-0.1-0.5-0.1-0.2-0.1-0.3-0.1-0.2-0.1-0.3v-0.3l-0.1-0.2v-0.3l-0.1-0.3v-0.2-0.3-0.3-0.3zm-0.3 12.1v-0.3l0.1-0.2v-0.2l0.1-0.2v-0.3-0.2-0.2-0.3-0.5l-0.1-0.5v-0.5-0.6l-0.1-0.5v-0.6-0.2-0.3-0.5-0.3-0.3l0.1-0.2v-0.3l0.1-0.2 0.1-0.3 0.1-0.2 0.1-0.3 0.2 0.8 0.2 0.7 0.1 0.4 0.1 0.3 0.1 0.4 0.1 0.4v0.3 0.4 0.2l0.1 0.2v0.2 0.3l-0.1 0.2v0.2 0.2l-0.1 0.2v0.3 0.2l-0.1 0.2-0.1 0.3 0.1-0.1 0.1-0.2 0.2-0.3 0.2-0.3 0.2-0.3 0.3-0.4 0.3-0.4 0.3-0.4 0.4-0.4 0.4-0.5 0.4-0.5 0.4-0.5 0.4-0.5 0.4-0.4 0.1-0.3 0.2-0.2 0.1-0.2 0.1-0.2v0.5 0.4l-0.1 0.5-0.1 0.4-0.1 0.4-0.1 0.4-0.2 0.4-0.2 0.3-0.2 0.3-0.2 0.4-0.2 0.3-0.2 0.2-0.3 0.3-0.2 0.3-0.3 0.2-0.2 0.2-0.3 0.2-0.2 0.2-0.3 0.2-0.2 0.2-0.5 0.3-0.4 0.3-0.4 0.3-0.3 0.2-0.2 0.1-0.1 0.1-0.1 0.1v0.1zm-3.2 3.5l0.1-0.2 0.1-0.2 0.1-0.2 0.1-0.2 0.1-0.2 0.1-0.2v-0.3l0.1-0.2 0.1-0.5 0.1-0.4 0.1-0.5 0.1-0.5 0.1-0.5 0.1-0.5 0.1-0.3 0.1-0.2v-0.3l0.1-0.2 0.1-0.3 0.1-0.2 0.1-0.2 0.2-0.2 0.1-0.3 0.1-0.2 0.2-0.2 0.2-0.2v0.4 1.3 0.3 0.4 0.4 0.3l-0.1 0.3v0.4 0.1l-0.1 0.2v0.1 0.2l-0.1 0.2-0.1 0.1v0.2l-0.1 0.1-0.1 0.2-0.1 0.1-0.1 0.2-0.1 0.1 0.2-0.1 0.2-0.2 0.3-0.3 0.3-0.2 0.1-0.1 0.2-0.1 0.2-0.1 0.2-0.1 0.2-0.1 0.2-0.2 0.3-0.1 0.2-0.1h0.1l0.2-0.1 0.1-0.1h0.2l0.2-0.2 0.3-0.2 0.2-0.1 0.2-0.2 0.3-0.2 0.2-0.2 0.4-0.4 0.4-0.4 0.3-0.4 0.4-0.4-0.1 0.3-0.2 0.5-0.2 0.5-0.2 0.5-0.2 0.4-0.2 0.4-0.3 0.3-0.2 0.3-0.3 0.3-0.2 0.3-0.3 0.2-0.3 0.3-0.3 0.2-0.3 0.1-0.3 0.2-0.3 0.2-0.3 0.1-0.3 0.1-0.3 0.1-0.2 0.1-0.3 0.1-0.6 0.1-0.5 0.2h-0.2l-0.2 0.1-0.3 0.1h-0.2l-0.1 0.1-0.2 0.1-0.1 0.1-0.1 0.1zm-3.8 2.5l0.1-0.1 0.1-0.1v-0.2l0.1-0.1 0.2-0.4 0.1-0.3 0.2-0.4 0.2-0.4 0.2-0.5 0.2-0.4 0.1-0.3 0.1-0.2 0.1-0.2 0.2-0.2 0.1-0.3 0.2-0.2 0.1-0.2 0.2-0.2 0.2-0.2 0.1-0.2 0.2-0.2 0.2-0.2 0.2-0.2 0.3-0.2 0.2-0.1 0.2-0.2-0.2 0.8-0.2 0.8-0.1 0.3-0.1 0.4-0.1 0.3-0.2 0.3-0.1 0.3-0.1 0.3-0.1 0.1-0.1 0.2-0.1 0.1-0.1 0.2-0.1 0.1-0.1 0.1-0.1 0.2-0.1 0.1-0.2 0.1-0.1 0.2-0.1 0.1-0.2 0.1 0.3-0.1 0.3-0.1 0.4-0.2 0.5-0.2 0.2-0.1h0.2l0.3-0.1 0.3-0.1 0.2-0.1h0.3l0.2-0.1h0.3l0.4-0.1h0.4l0.4-0.1 0.3-0.1 0.3-0.1 0.2-0.1 0.3-0.1 0.2-0.2 0.2-0.1 0.2-0.1 0.2-0.1 0.2-0.1 0.3-0.3 0.4-0.2-0.2 0.5-0.3 0.4-0.3 0.4-0.3 0.3-0.3 0.4-0.3 0.2-0.4 0.3-0.3 0.2-0.3 0.2-0.4 0.2-0.3 0.1-0.3 0.2-0.3 0.1h-0.4l-0.3 0.1h-0.3l-0.3 0.1h-0.4-0.3-0.3-0.6-0.5-0.3-0.2-0.5-0.2-0.1l-0.2 0.1h-0.2zm9.6-19.1l-0.1-0.3-0.1-0.3-0.1-0.2-0.2-0.2-0.1-0.3-0.2-0.2-0.2-0.2-0.1-0.2-0.2-0.2-0.2-0.1-0.2-0.2-0.3-0.2-0.4-0.3-0.4-0.3-0.4-0.4-0.4-0.3-0.2-0.2-0.2-0.2-0.2-0.2-0.2-0.2-0.2-0.2-0.2-0.2-0.1-0.2-0.2-0.3-0.1-0.2-0.1-0.3-0.1-0.3-0.1-0.3 0.2 0.2 0.2 0.2 0.2 0.2 0.3 0.2 0.4 0.3 0.5 0.3 0.5 0.3 0.4 0.3 0.3 0.2 0.2 0.2 0.2 0.2 0.2 0.2 0.2 0.2 0.2 0.2 0.2 0.2 0.1 0.2 0.2 0.2 0.1 0.3 0.1 0.2 0.2 0.2-0.1-0.3-0.1-0.4-0.1-0.3-0.1-0.4-0.1-0.3v-0.4l-0.1-0.3v-0.3-0.4l-0.1-0.4v-0.2-0.2l-0.1-0.2-0.1-0.3-0.1-0.3-0.2-0.4-0.1-0.1-0.1-0.2-0.1-0.1v-0.1l0.2 0.2 0.2 0.1 0.2 0.2 0.3 0.2 0.1 0.3 0.2 0.2 0.2 0.2 0.1 0.2 0.2 0.3 0.1 0.2 0.1 0.3 0.1 0.2 0.1 0.3v0.3l0.1 0.3v0.3l0.1 0.2v0.3 0.2 0.3 0.5 0.5 0.5l-0.1 0.5v0.5l-0.1 0.5zm-31.3 19.6l0.3 0.2 0.2 0.1 0.3 0.1 0.3 0.1h0.4 0.3 0.4 0.3l0.4-0.1 0.4-0.1h0.4l0.4-0.1 0.8-0.2 0.9-0.2 0.5-0.1 0.4-0.1 0.5-0.1 0.5-0.1 0.4-0.1h0.5l0.5-0.1h0.5 0.5 0.5 0.5l0.4 0.1 0.5 0.1 0.5 0.1 0.5 0.1 0.5 0.2 0.6-0.2 0.6-0.1 0.6-0.1 0.5-0.1 0.6-0.1h0.5 0.5 0.5 0.4l0.5 0.1h0.4l0.4 0.1 0.4 0.1 0.4 0.1 0.4 0.1 0.4 0.1 0.7 0.2 0.7 0.2h0.4l0.3 0.1 0.4 0.1h0.3l0.4 0.1h0.4 0.3l0.4-0.1h0.4l0.4-0.1 0.4-0.1 0.4-0.2-0.4 0.4-0.3 0.2-0.4 0.3-0.4 0.2-0.5 0.2-0.4 0.1-0.4 0.2-0.4 0.1h-0.5l-0.4 0.1h-0.4-0.5l-0.4-0.1h-0.5l-0.4-0.1h-0.4l-0.5-0.1-0.4-0.1-0.4-0.1-0.4-0.1-0.9-0.2-0.7-0.2-0.4-0.1-0.3-0.1-0.4-0.1-0.3-0.1h-0.3l-0.3-0.1h-0.3-0.2l0.3 0.1 0.3 0.2 0.2 0.2 0.3 0.1 0.2 0.2 0.3 0.2 0.2 0.1 0.2 0.2 0.2 0.2 0.2 0.2 0.2 0.2 0.2 0.1 0.2 0.2 0.2 0.2 0.2 0.2 0.1 0.2h-0.2l-0.3 0.1h-0.2-0.3l-0.1-0.2-0.1-0.2-0.2-0.2-0.2-0.2-0.1-0.1-0.2-0.2-0.3-0.2-0.2-0.2-0.2-0.2-0.2-0.1-0.3-0.2-0.3-0.2-0.2-0.1-0.3-0.2-0.3-0.1-0.4-0.2-0.2 0.1-0.3 0.1-0.2 0.1-0.3 0.1-0.2 0.2-0.3 0.1-0.2 0.2-0.3 0.1-0.2 0.2-0.2 0.2-0.2 0.2-0.2 0.2-0.2 0.2-0.2 0.3-0.2 0.2-0.2 0.3h-0.2l-0.3-0.1h-0.2-0.3l0.4-0.4 0.3-0.4 0.2-0.2 0.2-0.1 0.2-0.2 0.2-0.2 0.2-0.2 0.3-0.1 0.2-0.2 0.2-0.2 0.3-0.1 0.3-0.2 0.2-0.2 0.3-0.1h-0.2-0.2-0.3-0.2l-0.3 0.1-0.3 0.1-0.3 0.1-0.4 0.1-0.7 0.2-0.8 0.2-0.4 0.1-0.4 0.1-0.5 0.1-0.4 0.1h-0.5l-0.4 0.1h-0.5l-0.4 0.1h-0.5-0.4-0.5l-0.4-0.1-0.5-0.1-0.4-0.1-0.4-0.1-0.5-0.2-0.4-0.2-0.4-0.3-0.4-0.3-0.4-0.3zm14.4-9v0.3 0.2 0.4l0.2 0.2 0.3 0.2h0.1l0.1 0.1 0.2 0.1 0.1 0.1 0.1 0.2 0.1 0.1 0.1 0.1 0.1 0.2 0.1 0.1 0.1 0.2 0.1 0.2v0.2-0.3l0.1-0.2-0.1-0.3v-0.2l-0.1-0.2-0.1-0.2-0.1-0.2-0.1-0.2-0.1-0.2-0.1-0.1-0.2-0.1-0.1-0.2-0.2-0.1-0.2-0.1-0.2-0.1-0.2-0.1zm0.2-7.1v0.2 0.2 0.2 0.2 0.4 0.2 0.2l0.1 0.1h0.2l0.1 0.1h0.1l0.1 0.1 0.1 0.1v0.1h0.1v0.1 0.1l0.1 0.1v0.2l-0.1 0.2v0.1l-0.1 0.1v0.1l-0.1 0.1-0.2 0.1h-0.1l-0.1 0.1-0.2 0.1h-0.2l-0.1 0.1-0.2 0.1-0.4 0.1-0.4 0.1-0.2 0.1h-0.1l-0.2 0.1-0.2 0.1h-0.2l-0.2 0.1-0.1 0.1-0.2 0.1-0.1 0.2-0.1 0.1-0.1 0.1-0.1 0.2-0.1 0.2v0.1 0.2 0.4 0.1l0.1 0.1v0.1l0.1 0.2 0.1 0.1 0.1 0.1 0.4 0.3 0.4 0.3v-0.3-0.4-0.3l-0.1-0.4v-0.1l0.1-0.1v-0.1h0.1l0.1-0.1 0.1-0.1 0.1-0.1h0.2l0.3-0.1 0.3-0.2 0.4-0.1 0.3-0.1 0.3-0.1 0.2-0.1 0.3-0.1 0.2-0.1 0.2-0.1 0.3-0.1 0.2-0.1 0.2-0.2 0.1-0.1 0.1-0.1 0.1-0.1v-0.1l0.1-0.1v-0.1l0.1-0.1v-0.1l0.1-0.1v-0.1-0.1-0.2-0.4-0.1-0.1-0.1l-0.1-0.1v-0.1l-0.1-0.1v-0.1l-0.1-0.2-0.1-0.1-0.2-0.2-0.1-0.1-0.2-0.1-0.2-0.2-0.2-0.1-0.2-0.1-0.2-0.1-0.3-0.1-0.2-0.1-0.2-0.1zm-14.9-0.3h2.3v-0.3-0.3-0.2l0.1-0.3v-0.3-0.2l0.1-0.3 0.1-0.3v-0.2l0.1-0.3 0.1-0.3v-0.2l0.1-0.3 0.1-0.2 0.1-0.3 0.1-0.2 0.1-0.3 0.1-0.2 0.2-0.2 0.1-0.3 0.1-0.2 0.2-0.2 0.1-0.3 0.1-0.2 0.2-0.2 0.1-0.2 0.2-0.2 0.2-0.2 0.1-0.2 0.2-0.2 0.2-0.2 0.2-0.2-1.7-1.7-0.2 0.3-0.2 0.2-0.2 0.2-0.2 0.3-0.2 0.2-0.2 0.3-0.2 0.3-0.2 0.2-0.2 0.3-0.1 0.2-0.2 0.3-0.2 0.3-0.1 0.3-0.2 0.3-0.1 0.2-0.1 0.3-0.2 0.3-0.1 0.3-0.1 0.3-0.1 0.4-0.1 0.3-0.1 0.3-0.1 0.3v0.3l-0.1 0.3-0.1 0.4v0.3l-0.1 0.3v0.4 0.3 0.3 0.4zm19.3-6.6v-0.2l0.1-0.1v-0.2l0.1-0.2v-0.2-0.2-0.3l0.1-0.2v-0.3l-0.1-0.1v-0.2-0.1-0.2l-0.1-0.1v-0.2l0.1 0.1 0.1 0.1 0.2 0.1 0.1 0.1 0.1 0.3v0.5 0.3l0.6 0.8-0.3 0.1 0.2 0.2-0.5 0.5-0.2-0.3-0.1 0.3-0.1-0.1-0.1-0.1h-0.1l-0.1-0.1zm-6.8-5.2l-0.4 0.2-0.4 0.1-0.3 0.2-0.4 0.1-0.1 0.1h-0.2-0.1l-0.2 0.1h-0.1l-0.2 0.1h-0.1l-0.1 0.1-0.2 0.1h-0.1l-0.1 0.1-0.1 0.1-0.1 0.1-0.2 0.1-0.1 0.1-0.1 0.1-0.1 0.1-0.1 0.2-0.1 0.1v0.1l-0.1 0.2-0.1 0.1-0.1 0.1-0.1 0.2v0.2l-0.1 0.1-0.1 0.2v0.2l-0.1 0.3-0.1 0.4v0.1l-0.1 0.1v0.1l-0.1 0.2v0.1h-0.1v0.1l-0.1 0.1-0.1 0.1h-0.1l-0.1 0.1h-0.1-0.1-0.1l-0.1 0.1h-0.2 0.1 0.1 0.2 0.1 0.2l0.1-0.1-0.1 0.2v0.1 0.2l-0.1 0.1 0.1-0.2 0.1-0.2 0.1-0.2 0.2-0.2v-0.1h0.1l0.1-0.1v-0.1h0.1l0.1-0.1h0.1l0.6-0.2 0.4-0.2 0.4-0.2 0.2-0.1 0.1-0.1 0.2-0.1 0.2-0.1 0.2-0.2 0.2-0.1 0.1-0.1 0.2-0.2 0.2-0.2 0.1-0.1 0.2-0.2 0.1-0.2 1-0.6v-1.6zm-3.2 2.5l0.2-0.4h0.3l-0.2 0.4zm4.6-8h-0.3l-0.3 0.2-0.2 0.1-0.2 0.2-0.1 0.2-0.1 0.3v0.5 0.6l0.1 0.6 0.2 1 0.2 7.5 0.7-0.2 0.6-0.1 0.2-7.2 0.2-1 0.1-0.6v-0.6-0.5l-0.1-0.3-0.1-0.2-0.2-0.2-0.1-0.1-0.3-0.1c0 0-0.3 0-0.3-0.1zm2.7 4.8l0.1-0.1-0.2-0.1h-0.7l-0.2 0.1-0.4-0.1v0.1l0.7 0.1c0 0 0.7 0 0.7 0zm-1.4 15.1l-0.1-0.2-0.2-0.1h-0.1v0.8l0.3-0.3 0.1-0.1v-0.1zm9-7.8l0.1 0.1v-0.1l-0.4-0.7-0.5-0.8-0.4-0.3-0.1-0.2-0.2-0.3-0.3-0.2-0.2-0.2 1.7-1.7 0.2 0.3 0.2 0.2 0.2 0.2 0.2 0.3 0.2 0.2 0.2 0.3 0.2 0.2 0.2 0.3 0.2 0.3 0.1 0.2 0.2 0.3 0.1 0.3 0.2 0.2 0.1 0.3 0.2 0.3 0.1 0.3 0.1 0.3 0.2 0.3 0.1 0.3 0.1 0.3 0.1 0.3v0.3l0.1 0.3 0.1 0.4 0.1 0.3v0.3l0.1 0.3v0.4 0.3l0.1 0.3v0.4 0.3h-2.3v-0.3-0.4l-0.1-0.3v-0.3l-0.1-0.3v-0.3l-0.1-0.4-0.1-0.3v-0.3l-0.1-0.3-0.1-0.3-0.2-0.3-0.1-0.3-0.1-0.3-0.1-0.2-0.2-0.3zm-3.3-1.4l0.6 0.1 0.1 0.1v0.3l0.8 0.5 0.1-0.1 1 1.2 0.4-0.2 0.1 0.2 0.2 0.3 0.1 0.3 0.1 0.2v0.3l0.1 0.2 0.1 0.3 0.1 0.3v0.3l0.1 0.2v0.3l0.1 0.3v0.3 0.3l0.1 0.3v0.3h-2.3v-0.2l-0.1-0.3v-0.2-0.2l-0.1-0.3v-0.2-0.2l-0.1-0.2 0.1-0.1 0.1-0.7-0.1-0.8-0.3-0.9-0.6-1 0.1 0.1 0.1-0.1-0.5-0.3-0.1 0.1 0.6 0.8 0.3 0.6 0.2 0.6 0.1 0.4 0.1 0.7h-0.3v-0.2l-0.1-0.2v-0.1l-0.1-0.2v-0.1l-0.1-0.2v-0.3l-0.2-0.2h-0.1v-0.1l-0.1-0.1-0.1-0.1h0.1l-0.1-0.2 0.2-0.1-0.1-0.1-0.2 0.1 0.1-0.3-0.2-0.1-0.1 0.2-0.2-0.3-0.2-0.3-0.2-0.2-0.2-0.3 0.6-0.6zm-1 1v0.1l0.3 0.3h0.1l0.2 0.2 0.1 0.3 0.2 0.2 0.2 0.3-0.3 0.1v0.3l0.7 0.4 0.1 0.3 0.1 0.2 0.1 0.3 0.1 0.2-0.1 0.2-0.3 0.2v0.3l-0.2 0.1-0.1 0.2-0.1-0.1h-0.3l0.1-0.2 0.2-0.5 0.1-0.1-0.4-0.4-0.4 0.1-0.1 0.3-0.1 0.3-0.3-0.2v-0.2l0.1-0.1 0.1 0.2 0.1-0.1-0.1-0.2h-0.2v0.1l-0.6-0.6-0.2-0.1 0.1-0.1 0.2-0.1h-0.2-0.2l0.1 0.2h-0.2l-0.1-0.2-0.2-0.2-0.1-0.2-0.2-0.2 1.7-1.6zm-1.5 2.5h-0.1v0.3l-0.3-0.2-0.2 0.1 0.2 0.2v0.2l-0.2-0.1-0.2-0.1h0.2v-0.1l-0.2-0.1 0.1-0.5 0.2-0.3 0.1 0.2 0.1 0.1 0.1 0.2 0.1 0.1zm1.1 12.6l0.2-0.4-0.1-0.3 0.4-0.3v-0.1l-0.3-0.2 0.2-0.4 0.4-0.5-0.4-0.4h-0.2l-0.2-0.2 0.1-0.1 0.2-0.1 0.1-0.1 0.1-0.1 0.9 0.8v0.1l0.1 0.1 0.6 0.6-0.2 0.2-0.2 0.3-0.3 0.2-0.3 0.2-0.2 0.2-0.3 0.2-0.3 0.2-0.3 0.1zm0.2-4.2l0.1-0.2-0.2-0.7-0.3 0.4-0.2-0.2 0.1-0.1 0.2-0.4-0.1-0.2 0.2-0.3-0.1-0.3-0.1-0.3-0.2-0.1-0.1 0.2 0.1-0.2 0.1-0.3 0.1-0.2 0.1-0.2 0.2-0.1 0.2-0.1 0.1-0.2-0.1-0.1h0.1 0.2 0.4 0.2l0.6-0.2-0.1-0.2-0.1-0.2 0.3 0.1 0.2-0.1-0.1-0.2-0.4 0.1-0.4-0.1-0.3-0.6v-0.1h1.8v0.4 0.4l-0.1 0.4v0.3l-0.1 0.4-0.1 0.3-0.2 0.4-0.1 0.3-0.2 0.4-0.1 0.3-0.2 0.3-0.2 0.3-0.2 0.3-0.2 0.3-0.2 0.3-0.3 0.2-0.3-0.3zm-0.9-0.2h-0.1l-0.1 0.1-0.5-0.1h-0.1l-0.3-0.2-0.3-0.1 0.4-0.3 0.2-0.1 0.8 0.7zm1.3-5.3v-0.1l0.3-0.2v-0.1l0.1-0.1 0.3-0.1v-0.1l-0.3-0.1 0.4-0.2 0.5-0.1 0.1-0.2 0.2-0.2 0.2-0.2v-0.3l0.1 0.1v0.1 0.1 0.1l-0.2 0.6-0.1 0.3 0.3-0.3 0.1-0.2 0.1 0.3v0.3 0.3 0.3h-2.1zm-2.8-3.9l-0.2 0.1-0.1 0.2-0.1-0.1-0.4 0.1 0.1 0.2 0.3-0.1h0.1v-0.1l0.2-0.1 0.2-0.1h0.2l-0.3-0.1zm4.4 11.4l0.1-0.2-0.2-0.9h-0.1v-0.1l-0.3-0.2-0.1 0.3v0.5l-0.7-0.7 0.2-0.3 0.3-0.3 0.2-0.3 0.2-0.3 0.2-0.4 0.2-0.3 0.2-0.4 0.2-0.3 0.1-0.4 0.1-0.3 0.1-0.4 0.1-0.4 0.1-0.4 0.1-0.4v-0.4-0.4h2.4v0.3l-0.1 0.2v0.3 0.2 0.3l-0.1 0.2v0.3l-0.1 0.2v0.3l-0.1 0.2-0.1 0.3-0.1 0.2v0.3l-0.1 0.2-0.1 0.2-0.1 0.3-0.1 0.2-0.1 0.2-0.1 0.3-0.1 0.2-0.2 0.2-0.1 0.2-0.1 0.2-0.2 0.3-0.1 0.2-0.2 0.2-0.1 0.2-0.2 0.2-0.1 0.2-0.2 0.2-0.1 0.2-0.2 0.1-0.3-0.3zm-15.3-7l-0.1 0.6 0.2 0.2-0.2 0.4h-0.4v-0.3l-0.1-0.3v-0.3-0.3h0.7l-0.1 0.1zm-1.1 0.7l-0.3 0.1-0.1 0.2-0.6 0.8 0.1 1-0.7 0.2h-0.2l-0.1-0.3-0.1-0.4-0.1-0.4-0.1-0.4-0.1-0.4v-0.4-0.4l-0.1-0.4h2.4v0.2 0.2 0.2 0.2zm-2.4 2.3v0.1h-0.1l-0.1-0.2-0.7-0.1 0.2 0.3-0.6-0.1 0.1-0.2-0.1-0.1-0.4 0.2-0.2 0.3v0.6l0.6 1.3 0.2 0.3 0.1 0.1-0.3-0.7-0.1-0.4 0.1-0.1-0.1-0.2h0.3l0.3 0.5 0.1 0.1v-0.4l0.1 0.1 0.1 0.2 0.3 0.1 0.2-0.1h0.1v0.3l0.1 0.2h0.2l0.4 0.8 0.3 0.1 0.1-0.4 0.2 0.3 0.2 0.2 0.2 0.3 0.2 0.3 0.2 0.2 0.2 0.3 0.2 0.2 0.2 0.2-1.6 1.7-0.3-0.2-0.2-0.3-0.2-0.2-0.2-0.3-0.2-0.2-0.2-0.3-0.2-0.2-0.2-0.3-0.1-0.2-0.2-0.3-0.2-0.3-0.1-0.3-0.2-0.3-0.1-0.2-0.2-0.3-0.1-0.3-0.1-0.3-0.2-0.3-0.1-0.3-0.1-0.3-0.1-0.3-0.1-0.4v-0.3l-0.1-0.3-0.1-0.3v-0.3l-0.1-0.4v-0.3l-0.1-0.3v-0.4-0.3-0.3h2.3v0.4 0.4l0.1 0.4v0.3l0.1 0.4 0.1 0.4 0.1 0.4 0.1 0.3zm2.6 3.8l0.2-0.2 0.6 0.3 0.1 0.1-0.4 0.3-0.1-0.1-0.2-0.1-0.1-0.2-0.1-0.1zm2-2l0.1-0.6-0.3-0.5v-0.9l-0.3-0.5v-0.4l-0.3-0.7-0.3-0.1 0.1-0.3-0.1-0.3 0.1-0.3h0.4l0.1-0.2v-0.1h0.5v0.1l0.1 0.2-0.1 0.5-0.1 0.1 0.2 0.5-0.1 0.1-0.1-0.1h-0.1l0.2 0.2 0.1 0.3h0.1l0.1-0.3h-0.2v-0.6l0.2-0.7-0.1-0.1-0.1-0.1h0.1l-0.1-0.1h0.5v0.3 0.2l0.1 0.3v0.3l0.1 0.2 0.1 0.3 0.1 0.2 0.1 0.2 0.1 0.3 0.1 0.2 0.1 0.2 0.2 0.2 0.1 0.3 0.2 0.2 0.1 0.2 0.2 0.2-1.7 1.6-0.1-0.1-0.1-0.1-0.2-0.2-0.1-0.1zm-0.1-5.4l-0.2-0.3v-0.4l0.3-0.2 0.5 0.1 0.1 0.1v0.1 0.1 0.1 0.2 0.1 0.1h-0.7zm1.2 0.9v0.1l0.2 0.3h0.4l0.4 0.2h0.1l0.3 0.2-0.2 0.1 0.4 0.2v-0.2l0.2-0.3 0.2 0.2 0.2 0.3-0.4 0.1 0.2 0.3 0.2-0.1v-0.2l0.2-0.1 0.1-0.5v-0.1l0.1 0.1 0.1 0.2v0.1l0.1 0.1v0.1l0.1 0.1 0.1 0.1 0.1 0.1-1.7 1.7-0.2-0.2-0.1-0.2-0.1-0.1-0.2-0.2-0.1-0.2-0.1-0.2-0.1-0.2-0.1-0.2-0.1-0.2v-0.2l-0.1-0.2-0.1-0.2v-0.2l-0.1-0.2v-0.2l-0.1-0.2zm1.1-4.7l-0.1 0.1-0.5 0.6-0.4 0.7h-0.1-0.3l-0.3 0.3 0.3-0.1 0.3-0.1v0.2l-0.3 0.1h-0.1l-0.3 0.3-0.4-0.1-0.5 1 0.1 0.2-0.3 0.3v0.3h-1v-0.4-0.4l0.1-0.4 0.1-0.3 0.1-0.4 0.1-0.4 0.1-0.3 0.1-0.3 0.2-0.4 0.1-0.3 0.2-0.3 0.2-0.3 0.2-0.3 0.2-0.3 0.3-0.3 0.2-0.3 1.7 1.7zm11.3-6.5l-0.1-0.2-0.3-0.2-0.3 0.2 0.3 0.2 0.4 0.2zm-1.4 6.6v0.2l0.4-0.1 0.1-0.2-0.3-0.4 0.2-0.2 0.4 0.2v-0.1l-0.1-0.1 0.1-0.2-0.1-0.1-0.4 0.1-0.1 0.3-0.1 0.2 0.2 0.2-0.1 0.1-0.2 0.1zm-17 10.6v-0.1l-0.2-0.5h-0.3zm9.7-8.9v0.2l0.2 0.3 0.1 0.2 0.3 0.2v-0.2l-0.2-0.3 0.1-0.2 0.1-0.1v-1l-0.3 0.2-0.1 0.2-0.2 0.2v0.3zm-5-4.4l-0.2-0.1 0.3-0.1-0.1 0.2zm20.6 6.8h-2.3v0.2 0.3 0.3l-0.1 0.2v0.3l-0.1 0.3v0.2l-0.1 0.3v0.3l-0.1 0.2-0.1 0.3v0.2l-0.1 0.3-0.1 0.2-0.1 0.3-0.1 0.2-0.1 0.3-0.1 0.2-0.2 0.2-0.1 0.3-0.1 0.2-0.1 0.2-0.2 0.2-0.1 0.3-0.2 0.2-0.1 0.2-0.2 0.2-0.1 0.2-0.2 0.2-0.2 0.2-0.2 0.2-0.1 0.2 1.6 1.7 0.2-0.3 0.2-0.2 0.2-0.2 0.2-0.3 0.2-0.2 0.2-0.3 0.2-0.2 0.2-0.3 0.2-0.3 0.1-0.2 0.2-0.3 0.2-0.3 0.1-0.3 0.2-0.2 0.1-0.3 0.1-0.3 0.1-0.3 0.2-0.3 0.1-0.3 0.1-0.3 0.1-0.3 0.1-0.3v-0.4l0.1-0.3 0.1-0.3v-0.3l0.1-0.4v-0.3l0.1-0.3v-0.3-0.4-0.3z"/><path class="a" d="m234.3 77.3c2 0 3.7 1.6 3.7 5.3 0 3.8-1.7 5.4-3.7 5.4-1.9 0-3.7-1.6-3.7-5.4 0-3.7 1.8-5.3 3.7-5.3zm0 9.2c1.1 0 2-1 2-3.9 0-2.8-0.9-3.9-2-3.9-1 0-1.9 1.1-1.9 3.9 0 2.9 0.9 3.9 1.9 3.9z"/><path class="a" d="m239.2 81.4q0-0.7-0.1-1.2h1.5c0 0.4 0.1 0.9 0.1 1.4 0.2-0.6 0.7-1.6 1.8-1.6q0.1 0.1 0.2 0.1v1.7q-0.2-0.1-0.4-0.1c-0.7 0-1.4 0.5-1.4 1.9v4.2h-1.7"/><path class="a" d="m243.6 89c0.4 0.3 1.1 0.7 2 0.7 1.6 0 1.8-1.2 1.8-2.4v-0.8c-0.3 0.6-0.7 1.3-1.8 1.3-1 0-2.4-0.7-2.4-3.8 0-2.1 0.7-4 2.5-4 1 0 1.4 0.7 1.8 1.4 0-0.4 0.1-0.8 0.1-1.2h1.5q-0.1 0.6-0.1 1.2v5.6c0 2.4-0.6 4.2-3.1 4.2-1.1 0-2-0.4-2.4-0.5m2.5-4.2c1 0 1.4-0.9 1.4-2.6 0-1.6-0.5-2.5-1.3-2.5-0.9 0.1-1.2 0.9-1.2 2.5 0 1.8 0.5 2.6 1.1 2.6z"/><path class="a" d="m250.6 80.6c0.5-0.2 1.2-0.6 2.2-0.6 2.1 0 2.6 1.2 2.6 3.1v3.4c0 0.5 0.1 1.1 0.1 1.4h-1.5c-0.1-0.3-0.1-0.7-0.1-1.1-0.4 0.6-0.9 1.2-1.9 1.2-1.1 0-2.1-0.9-2.1-2.3 0-2.1 1.6-2.6 3.7-2.6h0.3v-0.3c0-0.7-0.3-1.4-1.3-1.4-0.8 0-1.6 0.4-1.9 0.7m3.2 2h-0.2c-1.4 0-2.2 0.3-2.2 1.4 0 0.7 0.4 1.2 1 1.2 1 0 1.4-0.8 1.4-2.2v-0.4z"/><path class="a" d="m256.8 81.4q0-0.7-0.1-1.2h1.5c0.1 0.4 0.1 0.8 0.1 1.1 0.3-0.4 0.7-1.3 1.9-1.3 1.5 0 2 1.3 2 2.9v4.9h-1.7v-4.6c0-1.1-0.2-1.6-0.9-1.6-0.9 0-1.2 0.8-1.2 1.8v4.4h-1.6"/><path class="a" d="m263.5 76.9h1.7v1.8h-1.7m0.1 1.5h1.6v7.6h-1.6z"/><path fill-rule="evenodd" class="a" d="m266.4 86.3l2.9-4.7h-2.8v-1.4h4.5v1.5l-2.9 4.7h3v1.4h-4.7"/><path class="a" d="m272.5 80.6c0.4-0.2 1.1-0.6 2.1-0.6 2.2 0 2.7 1.2 2.7 3.1v3.4c0 0.5 0 1.1 0.1 1.4h-1.5c-0.1-0.3-0.1-0.7-0.1-1.1h-0.1c-0.4 0.6-0.9 1.2-1.9 1.2-1 0-2-0.9-2-2.3 0-2.1 1.5-2.6 3.6-2.6h0.3v-0.3c0-0.7-0.3-1.4-1.3-1.4-0.8 0-1.5 0.4-1.8 0.7m3.1 2h-0.1c-1.5 0-2.3 0.3-2.3 1.4 0 0.7 0.4 1.2 1.1 1.2 1 0 1.3-0.8 1.3-2.2v-0.4z"/><path class="a" d="m282.9 87.7c-0.4 0.1-0.9 0.3-1.6 0.3h-0.1l-0.2 0.8c0.1-0.1 0.3-0.1 0.5-0.1 0.7 0 1.2 0.4 1.2 1.1 0 0.9-0.9 1.4-1.5 1.4-0.6 0-1.1-0.2-1.4-0.3l0.2-0.6c0.3 0.1 0.5 0.2 0.9 0.2 0.5 0 0.7-0.3 0.7-0.6 0-0.4-0.2-0.6-0.6-0.6-0.2 0-0.4 0.1-0.5 0.1l-0.3-0.2 0.4-1.3c-1.8-0.3-2.5-2-2.5-3.9 0-2.2 1-4 3.3-4 0.5 0 1.1 0.2 1.4 0.4l-0.1 1.4c-0.3-0.1-0.7-0.4-1.1-0.4-1.3 0-1.8 1-1.8 2.6 0 1.4 0.6 2.5 1.8 2.5 0.4 0 1-0.2 1.2-0.3"/><path class="a" d="m284.4 80.6c0.4-0.2 1.1-0.6 2.2-0.6 2.1 0 2.6 1.2 2.6 3.1v3.4c0 0.5 0 1.1 0.1 1.4h-1.5c-0.1-0.3-0.1-0.7-0.1-1.1-0.5 0.6-1 1.2-2 1.2-1 0-2-0.9-2-2.3 0-2.1 1.5-2.6 3.6-2.6h0.3v-0.3c0-0.7-0.3-1.4-1.3-1.4-0.8 0-1.5 0.4-1.8 0.7m0.1-2.9c0-0.6 0.3-1.8 1.3-1.8 0.6 0 1.1 0.5 1.5 0.5 0.3 0 0.4-0.3 0.4-0.6h0.8c0 0.5-0.2 1.8-1.2 1.8-0.5 0-1-0.5-1.5-0.5-0.3 0-0.5 0.2-0.5 0.6zm3 4.9h-0.1c-1.5 0-2.3 0.3-2.3 1.4 0 0.7 0.4 1.2 1.1 1.2 0.9 0 1.3-0.8 1.3-2.2v-0.4z"/><path class="a" d="m293.3 80c1.4 0 3 0.9 3 4 0 3.1-1.6 4-3 4-1.4 0-3-0.8-3-4 0-3.2 1.6-4 3-4zm0 6.7c1.1 0 1.3-1.4 1.3-2.7 0-1.3-0.2-2.6-1.3-2.6-1 0-1.3 1.3-1.3 2.6 0 1.3 0.3 2.7 1.3 2.7z"/><path fill-rule="evenodd" class="a" d="m238.1 93.5h-0.1l-2.3 8.7h-1.2l-2.2-8.7h-0.1v8.7h-1.5v-10.4h2.5l2 7.7 1.9-7.7h2.5v10.4h-1.5"/><path class="a" d="m246.3 100.9q0 0.7 0.1 1.3h-1.6q0-0.6 0-1.2h-0.1c-0.3 0.6-0.7 1.3-1.8 1.3-1.5 0-2-1.3-2-2.9v-4.9h1.7v4.6c0 1.2 0.3 1.7 0.9 1.7 0.9 0 1.2-0.9 1.2-1.9v-4.4h1.6"/><path class="a" d="m247.8 95.8q0-0.8-0.1-1.3h1.5c0 0.4 0.1 0.8 0.1 1.2 0.3-0.5 0.7-1.3 1.8-1.3 1.6 0 2.1 1.3 2.1 2.8v5h-1.7v-4.6c0-1.2-0.3-1.7-0.9-1.7-0.9 0-1.2 0.8-1.2 1.8v4.5h-1.7"/><path class="a" d="m260.1 91v9.9c0 0.5 0.1 1 0.1 1.3h-1.5c-0.1-0.3-0.1-0.7-0.1-1.2-0.3 0.6-0.8 1.3-1.8 1.3-1.7 0-2.5-1.8-2.5-4 0-2.5 0.9-3.9 2.4-3.9 1 0 1.5 0.6 1.8 1.2v-4.6m-1.3 9.9c1 0 1.3-1.2 1.3-2.6 0-1.4-0.4-2.6-1.3-2.6-0.9 0-1.2 1-1.2 2.6 0 1.7 0.2 2.6 1.2 2.6z"/><path class="a" d="m261.5 91.2h1.7v1.8h-1.7m0 1.5h1.6v7.7h-1.6z"/><path class="a" d="m265 94.9c0.5-0.2 1.1-0.5 2.2-0.5 2.1 0 2.6 1.1 2.6 3.1v3.3c0 0.6 0 1.1 0.1 1.4h-1.5c-0.1-0.3-0.1-0.7-0.1-1.1-0.4 0.7-1 1.2-1.9 1.2-1.1 0-2.1-0.8-2.1-2.3 0-2 1.5-2.6 3.6-2.6h0.3v-0.2c0-0.8-0.3-1.5-1.2-1.5-0.8 0-1.6 0.4-1.9 0.7m3.1 2h-0.1c-1.4 0-2.2 0.3-2.2 1.5 0 0.7 0.4 1.1 1 1.1 1 0 1.3-0.8 1.3-2.2z"/><path fill-rule="evenodd" class="a" d="m271.4 91h1.6v11.2h-1.6z"/><path class="a" d="m283.9 91v9.9c0 0.5 0 1 0 1.3h-1.5c-0.1-0.3-0.1-0.7-0.1-1.2-0.3 0.6-0.8 1.3-1.8 1.3-1.7 0-2.5-1.8-2.5-4 0-2.5 0.9-3.9 2.4-3.9 1 0 1.5 0.6 1.8 1.2v-4.6m-1.3 9.9c1 0 1.3-1.2 1.3-2.6 0-1.4-0.4-2.6-1.3-2.6-0.9 0-1.2 1-1.2 2.6 0 1.7 0.2 2.6 1.2 2.6z"/><path class="a" d="m285.6 94.9c0.4-0.2 1.1-0.5 2.1-0.5 2.2 0 2.7 1.1 2.7 3.1v3.3c0 0.6 0 1.1 0 1.4h-1.4c-0.1-0.3-0.1-0.7-0.1-1.1h-0.1c-0.4 0.7-0.9 1.2-1.9 1.2-1 0-2-0.8-2-2.3 0-2 1.5-2.6 3.6-2.6h0.3v-0.2c0-0.8-0.3-1.5-1.3-1.5-0.8 0-1.5 0.4-1.8 0.7m3.1 2h-0.1c-1.4 0-2.3 0.3-2.3 1.5 0 0.7 0.4 1.1 1.1 1.1 1 0 1.3-0.8 1.3-2.2z"/><path class="a" d="m295.2 100.2c0.3 0.2 1.1 0.6 2 0.6 0.7 0 1.4-0.5 1.4-1.5 0-0.8-0.4-1.1-1.2-1.6l-0.9-0.5c-0.9-0.6-1.5-1.4-1.5-2.8 0-1.8 1.4-2.8 2.9-2.8 1 0 1.7 0.3 2 0.4l-0.1 1.6c-0.4-0.2-1-0.5-1.7-0.5-0.9 0-1.3 0.5-1.3 1.2 0 0.8 0.4 1.1 0.9 1.4l1 0.7c1.1 0.7 1.7 1.3 1.7 2.8 0 2.1-1.4 3.1-3.2 3.1q-1.4 0-2.1-0.4"/><path class="a" d="m301.9 94.9c0.4-0.2 1.1-0.5 2.1-0.5 2.2 0 2.7 1.1 2.7 3.1v3.3c0 0.6 0 1.1 0.1 1.4h-1.5c-0.1-0.3-0.1-0.7-0.1-1.1h-0.1c-0.4 0.7-0.9 1.2-1.9 1.2-1 0-2-0.8-2-2.3 0-2 1.5-2.6 3.6-2.6h0.3v-0.2c0-0.8-0.3-1.5-1.3-1.5-0.8 0-1.5 0.4-1.8 0.7m3.1 2h-0.1c-1.4 0-2.3 0.3-2.3 1.5 0 0.7 0.4 1.1 1.1 1.1 1 0 1.3-0.8 1.3-2.2z"/><path class="a" d="m313.2 100.9q0 0.7 0.1 1.3h-1.6q0-0.6 0-1.2h-0.1c-0.3 0.6-0.7 1.3-1.8 1.3-1.5 0-2-1.3-2-2.9v-4.9h1.7v4.6c0 1.2 0.3 1.7 1 1.7 0.8 0 1.1-0.9 1.1-1.9v-4.4h1.6m-2.6-3h1.5l-1.3 2.1h-1.1c0 0 0.9-2.1 0.9-2.1z"/><path class="a" d="m320.3 91v9.9c0 0.5 0 1 0 1.3h-1.5c-0.1-0.3-0.1-0.7-0.1-1.2-0.3 0.6-0.8 1.3-1.8 1.3-1.7 0-2.5-1.8-2.5-4 0-2.5 0.9-3.9 2.4-3.9 1 0 1.5 0.6 1.8 1.2v-4.6m-1.3 9.9c1 0 1.3-1.2 1.3-2.6 0-1.4-0.4-2.6-1.3-2.6-0.9 0-1.2 1-1.2 2.6 0 1.7 0.2 2.6 1.2 2.6z"/><path class="a" d="m326.6 101.8c-0.3 0.2-1.1 0.5-2 0.5-2.3 0-3.2-1.8-3.2-3.9 0-2.3 1.1-4 2.8-4 1.5 0 2.7 0.9 2.7 4.1v0.3h-3.9c0 1.3 0.5 2.1 1.7 2.1 1 0 1.5-0.3 1.8-0.6m-1.1-2.6q-0.1-2.1-1.2-2.1c-0.8 0-1.2 1.1-1.2 2.1z"/><path class="b" d="m187.2 117.1h2.3q0.8 0 1.2 0.2 0.5 0.2 0.8 0.5 0.3 0.3 0.5 0.8 0.2 0.4 0.2 0.9 0 0.4-0.1 0.8-0.1 0.3-0.3 0.6-0.3 0.3-0.6 0.5-0.3 0.2-0.9 0.4 0.5 0.1 0.7 0.3 0.2 0.2 0.3 0.6l1.3 3.7h-1.2l-1.1-3.1q-0.2-0.6-0.5-0.9-0.3-0.2-0.9-0.2h-0.6v4.2h-1.1v-9.3zm1.1 4.1h0.9q0.5 0 0.8-0.1 0.4-0.1 0.6-0.4 0.2-0.2 0.3-0.5 0-0.3 0.1-0.6-0.1-0.8-0.5-1.2-0.5-0.3-1.2-0.3h-0.9v3.1z"/><path class="b" d="m194.6 123.3q0 1.2 0.5 1.8 0.4 0.6 1.4 0.6 0.4 0 0.8-0.2 0.4-0.2 0.7-0.4l0.1 1q-0.4 0.2-0.9 0.3-0.5 0.1-1 0.1-1.4 0-2-0.9-0.7-1-0.7-2.6 0-0.8 0.1-1.4 0.2-0.7 0.5-1.1 0.4-0.5 0.9-0.7 0.4-0.3 1.1-0.3 1.1 0 1.7 0.9 0.6 0.9 0.6 2.4v0.6h-3.8zm2.7-0.9q0-2.1-1.3-2.1-0.3 0-0.5 0.1-0.2 0.1-0.4 0.4-0.2 0.2-0.3 0.6-0.1 0.4-0.1 1c0 0 2.6 0 2.6 0z"/><path class="b" d="m204.5 126.7q0 0.7-0.3 1.2-0.2 0.5-0.6 0.8-0.4 0.3-0.9 0.5-0.5 0.1-1.1 0.1-0.2 0.1-0.5 0-0.2 0-0.5-0.1-0.3 0-0.5-0.1-0.3-0.1-0.4-0.2v-1.1q0.4 0.3 0.9 0.4 0.5 0.2 0.9 0.2 1.1 0 1.5-0.6 0.4-0.5 0.4-1.4v-1.1q-0.6 1.2-1.8 1.2-1 0-1.7-0.9-0.6-0.8-0.6-2.6 0-1.8 0.7-2.6 0.6-0.9 1.8-0.9 0.5 0 0.9 0.3 0.4 0.3 0.7 0.8l0.1-1h1q0 0.3 0 0.6 0 0.3 0 0.7c0 0 0 5.8 0 5.8zm-4.1-3.7q0 1.3 0.4 1.9 0.3 0.7 1.1 0.7 0.8 0 1.1-0.7 0.4-0.6 0.4-1.9 0-1.3-0.4-1.9-0.3-0.7-1.1-0.7-0.8 0-1.1 0.7-0.4 0.6-0.4 1.9z"/><path class="b" d="m207.3 118.2h-1.3v-1.4h1.2zm-1.1 1.5h1.1v6.8h-1.1z"/><path class="b" d="m209.2 120.1q0.4-0.3 0.9-0.4 0.5-0.2 1-0.2 0.3 0 0.6 0.1 0.3 0.1 0.6 0.2 0.2 0.1 0.3 0.2 0.2 0.1 0.3 0.2 0.2 0.2 0.4 0.6 0.2 0.3 0.2 1.1v3.5q-0.1 0.3 0 0.6 0 0.2 0 0.4h-1l-0.1-0.9q-0.2 0.4-0.7 0.7-0.4 0.3-1.2 0.3-0.8 0-1.4-0.5-0.5-0.5-0.5-1.4 0-0.5 0.1-0.9 0.2-0.4 0.6-0.8 0.4-0.3 1-0.4 0.6-0.2 1.4-0.2h0.7v-0.3q0-0.4-0.1-0.7 0-0.2-0.2-0.4-0.1-0.2-0.4-0.3-0.3-0.1-0.7-0.1-0.5 0-1 0.2-0.4 0.2-0.7 0.5l-0.1-1.1zm3.9-3.1q-0.1 0.7-0.4 1-0.3 0.4-0.7 0.4-0.2 0-0.4 0-0.2-0.1-0.6-0.3-0.3-0.1-0.4-0.2-0.1 0-0.2 0-0.1 0-0.3 0.1-0.2 0.1-0.2 0.5h-0.7q0.1-0.7 0.4-1.1 0.3-0.3 0.9-0.3 0.1 0 0.4 0 0.2 0.1 0.6 0.3 0.2 0.1 0.3 0.1 0.1 0.1 0.1 0.1 0.4 0 0.5-0.6h0.7zm-0.7 6.1q-0.2 0-0.4 0h-0.4q-1 0-1.5 0.4-0.4 0.4-0.5 1 0 0.5 0.3 0.9 0.3 0.3 0.9 0.3 0.3 0 0.6-0.2 0.3-0.1 0.5-0.3 0.2-0.3 0.4-0.6 0.1-0.3 0.1-0.6v-0.9z"/><path class="b" d="m214.7 123q0-1.6 0.7-2.5 0.7-1 2-1 1.3 0 2 1 0.7 0.9 0.7 2.5 0 1.6-0.7 2.5-0.7 1-2 1-1.3 0-2-1-0.7-0.9-0.7-2.5zm1.1 0q0 1.3 0.4 1.9 0.4 0.7 1.2 0.7 0.8 0 1.2-0.7 0.3-0.6 0.3-1.9 0-1.3-0.3-1.9-0.4-0.7-1.2-0.7-0.8 0-1.2 0.7-0.4 0.6-0.4 1.9z"/><path class="b" d="m229.4 125.2q0 0.3 0 0.6 0 0.3 0 0.6h-1l-0.1-1q-0.1 0.2-0.3 0.4-0.1 0.2-0.3 0.4-0.3 0.1-0.5 0.2-0.3 0.1-0.7 0.1-1 0-1.7-0.9-0.6-0.8-0.6-2.6 0-1.7 0.6-2.6 0.7-0.9 1.7-0.9 0.6 0 1 0.3 0.4 0.2 0.7 0.8h0.1v-4.2h1.1c0 0 0 8.8 0 8.8zm-1.2-2.2q0-1.3-0.3-1.9-0.4-0.7-1.1-0.7-0.8 0-1.2 0.7-0.3 0.6-0.3 1.9 0 1.3 0.3 1.9 0.4 0.7 1.2 0.7 0.7 0 1.1-0.7 0.3-0.6 0.3-1.9z"/><path class="b" d="m231.1 120.1q0.4-0.3 0.9-0.4 0.5-0.2 1-0.2 0.4 0 0.7 0.1 0.3 0.1 0.5 0.2 0.2 0.1 0.4 0.2 0.2 0.1 0.2 0.2 0.3 0.2 0.4 0.6 0.2 0.3 0.2 1.1v3.5q0 0.3 0 0.6 0 0.2 0.1 0.4h-1l-0.1-0.9q-0.3 0.4-0.7 0.7-0.4 0.3-1.2 0.3-0.9 0-1.4-0.5-0.6-0.5-0.6-1.4 0-0.5 0.2-0.9 0.2-0.4 0.6-0.8 0.3-0.3 0.9-0.4 0.6-0.2 1.5-0.2h0.6v-0.3q0-0.4 0-0.7 0-0.2-0.2-0.4-0.2-0.2-0.5-0.3-0.3-0.1-0.6-0.1-0.5 0-1 0.2-0.5 0.2-0.8 0.5l-0.1-1.1zm3.2 3q-0.1 0-0.3 0h-0.5q-0.9 0-1.4 0.4-0.5 0.4-0.5 1 0 0.5 0.3 0.9 0.3 0.3 0.9 0.3 0.3 0 0.6-0.2 0.3-0.1 0.5-0.3 0.2-0.3 0.3-0.6 0.1-0.3 0.1-0.6v-0.9z"/><path class="b" d="m236.7 125.1q0.3 0.2 0.7 0.4 0.4 0.1 0.9 0.1 0.6 0 0.9-0.3 0.3-0.3 0.3-0.7 0-0.3-0.2-0.6-0.2-0.2-0.6-0.4l-0.8-0.3q-0.7-0.4-1-0.8-0.3-0.3-0.3-1 0-0.4 0.1-0.8 0.2-0.3 0.5-0.6 0.3-0.3 0.7-0.4 0.4-0.2 0.9-0.2 0.4 0 0.7 0.1 0.4 0.1 0.7 0.2l-0.1 0.9q-0.2-0.1-0.6-0.2-0.3-0.1-0.7-0.1-0.5 0.1-0.8 0.3-0.3 0.3-0.3 0.7 0 0.4 0.3 0.6 0.3 0.3 0.8 0.5l0.4 0.2q0.6 0.2 1 0.7 0.4 0.4 0.4 1 0 0.5-0.2 0.8-0.1 0.4-0.3 0.7-0.3 0.3-0.7 0.4-0.4 0.2-1 0.2-0.5 0-1-0.1-0.5-0.1-0.8-0.3v-1z"/><path class="b" d="m247.9 117.1l3 9.3h-1.2l-0.7-2.4h-3.5l-0.8 2.4h-1.1l3-9.3zm0.8 5.9l-1.4-4.7-1.5 4.7z"/><path class="b" d="m251.8 121.1q0-0.4 0-0.7 0-0.4 0-0.8h1.1v1q0.3-0.5 0.7-0.8 0.4-0.3 1-0.3 1.1 0 1.6 1.1 0.2-0.5 0.6-0.8 0.4-0.3 1-0.3 0.9 0 1.4 0.5 0.6 0.6 0.6 1.7v4.7h-1.1v-4.7q0-0.6-0.3-0.9-0.3-0.3-0.8-0.3-0.6 0-0.9 0.4-0.3 0.4-0.3 1.3v4.2h-1.1v-4.7q0-0.6-0.3-0.9-0.3-0.3-0.7-0.3-0.7 0-1 0.4-0.3 0.4-0.3 1.3v4.2h-1.1v-5.3z"/><path class="b" d="m262.2 123.3q0 1.2 0.4 1.8 0.5 0.5 1.4 0.6 0.4-0.1 0.8-0.2 0.5-0.2 0.8-0.4v1q-0.4 0.2-0.9 0.3-0.5 0.1-1 0.1-1.3 0-2-0.9-0.7-1-0.7-2.6 0-0.8 0.2-1.4 0.2-0.7 0.5-1.1 0.3-0.5 0.8-0.7 0.5-0.3 1.1-0.3 1.2 0 1.8 0.9 0.6 0.8 0.6 2.3v0.6c0 0-3.8 0-3.8 0zm2.7-0.8q0-2.1-1.3-2.1-0.3 0-0.6 0.1-0.2 0.1-0.4 0.3-0.2 0.3-0.3 0.7-0.1 0.4-0.1 1c0 0 2.7 0 2.7 0zm-1.2-5.7h1.3l-1.3 1.9h-0.9c0 0 0.9-1.9 0.9-1.9z"/><path class="b" d="m267.2 121.1q0-0.4 0-0.7 0-0.4 0-0.8h1l0.1 1.1q0.3-0.6 0.7-0.9 0.5-0.3 1.2-0.3v1.2q-0.2-0.1-0.4-0.1-0.7 0-1.1 0.6-0.4 0.5-0.4 1.6v3.6h-1.1v-5.3z"/><path class="b" d="m272.4 118.2h-1.2v-1.4h1.2zm-1.2 1.5h1.1v6.8h-1.1z"/><path class="b" d="m278 120.8q-0.3-0.1-0.6-0.2-0.3-0.1-0.7-0.1-0.8 0-1.3 0.6-0.5 0.6-0.5 2 0 1.2 0.5 1.8 0.5 0.6 1.3 0.6 0.4 0 0.7-0.1 0.3-0.1 0.6-0.2l0.1 1q-0.3 0.1-0.7 0.2-0.4 0.1-0.7 0.1-0.8 0-1.3-0.3-0.6-0.2-1-0.7-0.3-0.5-0.5-1.1-0.2-0.6-0.2-1.3 0-0.8 0.2-1.5 0.2-0.7 0.6-1.1 0.4-0.5 0.9-0.7 0.6-0.3 1.3-0.3 0.3 0 0.7 0.1 0.4 0.1 0.6 0.2v1z"/><path class="b" d="m279.4 120.1q0.4-0.3 0.9-0.4 0.5-0.2 1-0.2 0.4 0 0.7 0.1 0.3 0.1 0.5 0.2 0.2 0.1 0.4 0.2 0.1 0.1 0.2 0.2 0.2 0.2 0.4 0.6 0.2 0.3 0.2 1.1v3.5q0 0.3 0 0.6 0 0.2 0.1 0.4h-1l-0.1-0.9q-0.3 0.4-0.7 0.7-0.5 0.3-1.2 0.3-0.9 0-1.4-0.5-0.6-0.5-0.6-1.4 0-0.5 0.2-0.9 0.2-0.4 0.5-0.8 0.4-0.3 1-0.4 0.6-0.2 1.5-0.2h0.6v-0.3q0-0.4 0-0.7-0.1-0.2-0.2-0.4-0.2-0.2-0.5-0.3-0.3-0.1-0.6-0.1-0.6 0-1 0.2-0.5 0.2-0.8 0.5l-0.1-1.1zm3.2 3q-0.1 0-0.3 0h-0.5q-0.9 0-1.4 0.4-0.5 0.4-0.5 1 0 0.5 0.3 0.9 0.3 0.3 0.9 0.3 0.3 0 0.6-0.2 0.3-0.1 0.5-0.3 0.2-0.3 0.3-0.6 0.1-0.3 0.1-0.6c0 0 0-0.9 0-0.9z"/><path class="b" d="m285 125.1q0.3 0.2 0.7 0.4 0.4 0.1 0.8 0.1 0.7 0 1-0.3 0.3-0.3 0.3-0.7 0-0.3-0.2-0.6-0.2-0.2-0.7-0.4l-0.7-0.3q-0.7-0.4-1-0.8-0.3-0.3-0.3-1 0-0.4 0.1-0.8 0.2-0.3 0.5-0.6 0.3-0.3 0.7-0.4 0.4-0.2 0.8-0.2 0.5 0 0.8 0.1 0.4 0.1 0.7 0.2l-0.1 0.9q-0.2-0.1-0.6-0.2-0.3-0.1-0.7-0.1-0.5 0.1-0.8 0.3-0.3 0.3-0.3 0.7 0 0.4 0.3 0.6 0.3 0.3 0.8 0.5l0.4 0.2q0.6 0.2 1 0.7 0.4 0.4 0.3 1 0 0.5-0.1 0.8-0.1 0.4-0.4 0.7-0.2 0.3-0.6 0.4-0.4 0.2-1 0.2-0.5 0-1-0.1-0.5-0.1-0.8-0.3v-1z"/><path class="a" d="m66.9 55.6c-21.1 0-33.4-9.4-33.4-27.8 0-18.4 12.3-27.8 33.4-27.8 21.1 0 33.7 9.8 33.7 27.8 0 18.1-12.6 27.9-33.7 27.9m0-13c9.1 0 9.4-9.1 9.5-14.9-0.1-5-0.7-14.9-9.5-14.9-8.8 0-9.3 9.9-9.3 14.9 0 5.8 1 14.9 9.3 14.9z"/><path class="a" d="m106.5 0.9h39.8c9.5 0 22.1 4 22.1 18.5 0 14.5-10.1 19.8-22.1 19.8h-16.6v15.5h-23.2v-53.8zm22.6 25.8h5.1c5.5 0 11.1-0.9 11.1-6.9 0-6-5.6-6.4-11.2-6.4h-5c0 0 0 13.3 0 13.3z"/><path class="a" d="m184.4 0.9h31.9l21.5 53.8h-24.3l-3.9-11.6h-19.6l-3.7 11.6h-23c0 0 21.1-53.8 21.1-53.8zm8.8 29.2h13.4l-6.5-17.6h-0.2l-6.7 17.6z"/><path class="a" d="m289.6 15.6c-5.2-1.6-11.3-2.7-17.9-2.7-3.6 0-9.9 0.1-9.9 3.6 0 7 31.7 0.4 31.7 21.1 0 14.4-16 18-29.4 18-8.9 0-16.2-0.7-24.9-2.5v-14c6.3 2.4 13.9 3.6 20.8 3.6 5.4 0 10.3-1 10.3-3.7 0-7.3-31.7-0.7-31.7-21.6 0-14.8 17.3-17.4 31-17.4 6.5 0 13.7 0.7 20 1.8 0 0 0 13.8 0 13.8z"/></svg>