<?xml version="1.0" encoding="UTF-8"?><svg id="b" xmlns="http://www.w3.org/2000/svg" viewBox="0 0 137.3 33"><defs><style>.d{fill:#212121;fill-rule:evenodd;stroke-width:0px;}</style></defs><g id="c"><path class="d" d="M8.5,12.9v-7.2l-3,5.5h-.9L1.6,5.7v7.2H0V2.8h1.7l3.4,6.2,3.3-6.2h1.7v10.1h-1.6ZM15.3,2.8h1.6v10.1h-1.6V2.8ZM23.6,5.8v7.1h-1.6V2.8h1.3l5.7,7.3V2.8h1.7v10.1h-1.4l-5.7-7.1ZM35.7,2.9h1.6v10.1h-1.6V2.9ZM48.5,5.3c-.27-.27-.63-.5-1.1-.7-.53-.2-1.1-.3-1.7-.3-.67,0-1.13.1-1.4.3-.33.27-.5.63-.5,1.1v.3c.07.13.13.23.2.3,0,.13.07.23.2.3s.27.13.4.2c.07.07.2.1.4.1.2.07.4.13.6.2.13.07.37.13.7.2.4.07.77.17,1.1.3s.63.27.9.4c.33.13.57.3.7.5.2.2.33.43.4.7.13.33.2.67.2,1,0,.4-.07.77-.2,1.1-.13.33-.3.6-.5.8-.27.27-.53.47-.8.6-.33.13-.67.23-1,.3-.4.07-.8.1-1.2.1-.8,0-1.53-.1-2.2-.3-.73-.27-1.4-.6-2-1l.7-1.4c.33.27.83.57,1.5.9.67.27,1.33.4,2,.4.67,0,1.17-.13,1.5-.4.33-.2.5-.5.5-.9,0-.2-.03-.37-.1-.5s-.17-.23-.3-.3c-.07-.13-.17-.23-.3-.3-.13-.07-.33-.17-.6-.3-.27-.07-.5-.13-.7-.2-.2-.07-.47-.13-.8-.2-.53-.13-.97-.27-1.3-.4s-.63-.3-.9-.5c-.27-.27-.47-.53-.6-.8-.13-.27-.2-.6-.2-1,0-.47.1-.9.3-1.3.2-.4.47-.73.8-1,.33-.27.7-.47,1.1-.6.47-.13.97-.2,1.5-.2,1.2,0,2.33.4,3.4,1.2l-.7,1.3ZM61.5,4.3h-3.4v8.7h-1.6V4.3h-3.4v-1.4h8.4v1.4ZM72.7,11.6v1.4h-7V2.9h6.8v1.4h-5.2v2.9h4.5v1.3h-4.5v3.1h5.4ZM69.9,1.8l-1.1-.3.9-1.5h1.4l-1.2,1.8ZM77.3,12.9V2.8h4.4c.47,0,.9.1,1.3.3.33.2.67.43,1,.7.27.33.47.7.6,1.1s.2.8.2,1.2c0,.67-.17,1.3-.5,1.9-.4.53-.87.9-1.4,1.1l2.3,3.8h-1.8l-2.2-3.5h-2.3v3.5h-1.6ZM78.9,8h2.8c.4,0,.77-.2,1.1-.6.27-.33.4-.77.4-1.3,0-.53-.17-.97-.5-1.3-.33-.4-.7-.6-1.1-.6h-2.7v3.8ZM89.6,2.8h1.6v10.1h-1.6V2.8ZM95.7,7.9c0-.67.1-1.3.3-1.9.27-.67.6-1.23,1-1.7.47-.47,1-.83,1.6-1.1.6-.27,1.23-.4,1.9-.4.73,0,1.4.13,2,.4.6.33,1.1.73,1.5,1.2.47.47.8,1,1,1.6.27.67.4,1.3.4,1.9,0,.67-.13,1.33-.4,2-.27.6-.6,1.13-1,1.6-.4.47-.93.83-1.6,1.1-.6.27-1.23.4-1.9.4-.53,0-1.07-.07-1.6-.2-.53-.2-1-.47-1.4-.8-.33-.33-.67-.73-1-1.2-.27-.4-.47-.87-.6-1.4-.13-.47-.2-.97-.2-1.5ZM100.5,11.6c.53,0,1-.1,1.4-.3.4-.2.73-.5,1-.9.27-.33.47-.7.6-1.1.13-.47.2-.93.2-1.4s-.07-.93-.2-1.4c-.13-.4-.33-.77-.6-1.1-.33-.4-.7-.7-1.1-.9-.4-.2-.83-.3-1.3-.3s-.9.13-1.3.4c-.47.2-.83.47-1.1.8-.27.33-.47.73-.6,1.2-.13.4-.2.83-.2,1.3,0,.67.13,1.27.4,1.8.2.53.57,1,1.1,1.4.53.33,1.1.5,1.7.5h0ZM116.2,13V2.8h3.6c.8,0,1.53.13,2.2.4.6.27,1.1.63,1.5,1.1.4.47.73,1,1,1.6.2.6.3,1.27.3,2,0,1.53-.47,2.77-1.4,3.7-.87.93-2.07,1.4-3.6,1.4h-3.6ZM119.8,4.3h-2v7.3h2c.73,0,1.33-.17,1.8-.5.53-.33.93-.77,1.2-1.3.2-.6.3-1.23.3-1.9,0-1.07-.27-1.93-.8-2.6-.6-.67-1.43-1-2.5-1ZM131.9,2.8h1.5l3.9,10.2h-1.7l-1-2.8h-4l-1,2.8h-1.7l4-10.2ZM134.3,9l-1.7-4.5-1.6,4.5h3.3ZM45.9,26.1c-.07,0-.13-.03-.2-.1s-.2-.13-.4-.2c-.2-.13-.4-.23-.6-.3-.2-.07-.43-.13-.7-.2-.27-.07-.53-.1-.8-.1-.53,0-.8.17-.8.5v.2c.07.07.13.1.2.1l.2.2c.07,0,.13.03.2.1.13.07.27.1.4.1.07,0,.2.03.4.1.2.07.37.13.5.2.4.13.73.23,1,.3.27.13.53.3.8.5.33.13.57.33.7.6.13.2.27.43.4.7.07.33.1.67.1,1,0,.47-.07.9-.2,1.3-.13.33-.33.63-.6.9-.2.27-.5.47-.9.6-.33.13-.67.23-1,.3-.33.07-.7.1-1.1.1-.73,0-1.5-.1-2.3-.3-.8-.2-1.5-.5-2.1-.9l1.2-2.4c0,.07.07.1.2.1.07.07.23.17.5.3.2.13.43.23.7.3.27.13.57.23.9.3s.63.1.9.1c.53,0,.8-.13.8-.4,0-.13-.03-.23-.1-.3-.07-.07-.17-.17-.3-.3-.2-.07-.37-.1-.5-.1-.13-.07-.33-.13-.6-.2-.27-.13-.5-.2-.7-.2-.93-.33-1.6-.7-2-1.1-.4-.47-.6-1.07-.6-1.8,0-.53.1-1.03.3-1.5.2-.4.5-.73.9-1,.33-.33.73-.57,1.2-.7.4-.13.87-.2,1.4-.2,1.07,0,2.33.37,3.8,1.1l-1.2,2.3Z"/><path class="d" d="M53.3,22.8h3.2l3.2,10.1h-2.8l-.7-2h-2.7l-.6,2h-2.8l3.2-10.1ZM55.8,29.1l-.9-3.5-1,3.5h1.9ZM67.4,33c-.6,0-1.17-.07-1.7-.2-.53-.2-.97-.47-1.3-.8-.33-.27-.63-.6-.9-1-.2-.47-.37-.93-.5-1.4-.07-.47-.1-1-.1-1.6v-5.2h2.8v5.2c0,.4.03.73.1,1,.07.27.17.53.3.8s.3.47.5.6c.27.13.53.2.8.2.33,0,.63-.07.9-.2.2-.13.37-.33.5-.6.13-.27.23-.53.3-.8.07-.33.1-.67.1-1v-5.2h2.8v5.2c0,.73-.1,1.4-.3,2-.13.6-.4,1.13-.8,1.6-.33.47-.8.83-1.4,1.1-.6.2-1.3.3-2.1.3h0ZM68.3,22.4l-1.7-.4.7-2.1h2.4l-1.4,2.5ZM76.5,33v-10.1h3.9c.8,0,1.53.1,2.2.3.67.27,1.2.63,1.6,1.1s.7,1,.9,1.6c.27.6.4,1.27.4,2,0,1.53-.47,2.77-1.4,3.7-.93.93-2.17,1.4-3.7,1.4h-3.9ZM80.4,25.3h-1.2v5.3h1.2c.67,0,1.2-.27,1.6-.8.4-.47.6-1.1.6-1.9s-.2-1.43-.6-1.9-.93-.7-1.6-.7ZM96.7,30.6v2.4h-7.2v-10.1h7.1v2.4h-4.3v1.4h3.7v2.3h-3.7v1.6h4.4Z"/></g></svg>