<?xml version="1.0" encoding="UTF-8"?><svg id="b" xmlns="http://www.w3.org/2000/svg" viewBox="0 0 130.8 68"><defs><style>.d{fill:#17549e;fill-rule:evenodd;stroke-width:0px;}</style></defs><g id="c"><path class="d" d="M28.1,46.9c-5.1,0-9.1-3.6-9.1-8.1v-15.4h6.9v16c0,2,1.7,3.6,4,3.6,2.1,0,4-1.6,4-3.6v-16h3.2v15.4c0,4.5-4,8.1-9,8.1ZM8.8,37.7l-4.3-1.3c-2.6-.9-4.5-3.5-4.5-6.4,0-3.7,3-6.7,6.8-6.7h8.3v3h-5.8c-1.2,0-2.2.9-2.2,2.1,0,.8.5,1.6,1.4,1.9l4.1,1.4c2.8.8,4.3,3.7,4.3,7,0,4.1-3.3,7.5-7.4,7.5H.6v-3.4h7.7c1.1,0,2.3-1.1,2.3-2.6,0-1.2-.7-2.2-1.8-2.5ZM47.8,37.7l-4.3-1.3c-2.7-.9-4.6-3.5-4.6-6.4,0-3.7,3-6.7,6.8-6.7h8.3v3h-5.8c-1.2,0-2.2.9-2.2,2.1,0,.8.5,1.6,1.4,1.9l4.1,1.4c2.9.8,4.4,3.7,4.4,7,0,4.1-3.4,7.5-7.5,7.5h-8.9v-3.4h7.6c1.2,0,2.4-1.1,2.4-2.6,0-1.2-.6-2.2-1.7-2.5ZM105.8,46h2.7v17.3c-.4-1.8-1.4-12.3-1.2-15.7-.4-.3-1.5-1.6-1.5-1.6ZM104.6,47h-.2c-11.6.4-22-.1-41.9-2.1v-22.1c4,.7,16.3,2,20.2,1.9l2.9,2.9,19,19.4ZM85.7,0h22.2v21.5h-22.2V0ZM130.8,22.8v22.1h-26.4l-20.6-20.8c-.9,0-13.9-1.2-15.3-1.3h62.3ZM107.9,68h-22.1c-.2-1.3-1.7-7.6-1.9-19.9,10.1.9,21.9.1,21.9.1.2,3,1,13.4,2.1,19.8Z"/></g></svg>