<?xml version="1.0" encoding="UTF-8"?><svg id="b" xmlns="http://www.w3.org/2000/svg" viewBox="0 0 544.85 229.61" width="544.85" height="229.61"><defs><style>.d{fill:#006;stroke-width:0px;}.e{fill:none;stroke:#006;stroke-miterlimit:10;stroke-width:5px;}</style></defs><g id="c"><path class="e" d="M161.55,68.05c0-25.82-20.93-46.75-46.75-46.75s-46.75,20.93-46.75,46.75c-25.82,0-46.75,20.93-46.75,46.75s20.93,46.75,46.75,46.75c0,25.82,20.93,46.75,46.75,46.75s46.75-20.93,46.75-46.75"/><circle class="d" cx="114.8" cy="6.39" r="6.39"/><circle class="d" cx="6.39" cy="114.8" r="6.39"/><circle class="d" cx="114.8" cy="223.22" r="6.39"/><path class="d" d="M176.91,114.8l-38.35-12.76,10.62-21.62-21.62,10.62-12.76-38.35-12.76,38.35-21.62-10.62,10.62,21.62-38.35,12.76,38.35,12.76-10.62,21.62,21.62-10.62,12.76,38.35,12.76-38.35,21.62,10.62-10.62-21.62,38.35-12.76ZM114.8,127.52c-7.02,0-12.72-5.69-12.72-12.72s5.69-12.72,12.72-12.72,12.72,5.69,12.72,12.72-5.69,12.72-12.72,12.72Z"/><path class="d" d="M193.36,68.14c1.45-.23,3.53-.42,6.63-.42,2.86,0,4.89.59,6.21,1.6,1.28.95,2.21,2.59,2.21,4.6,0,1.85-.61,3.53-1.83,4.6-1.61,1.46-3.96,2.14-6.88,2.14-.69,0-1.31-.05-1.76-.13v6.91h-4.58v-19.3ZM197.93,77c.42.1.96.14,1.75.14,2.49,0,4.14-1.13,4.14-3.16,0-1.83-1.41-2.81-3.79-2.81-1.04,0-1.74.08-2.09.15v5.68Z"/><path class="d" d="M210.95,78.06c0-2.31-.03-3.63-.12-4.82h3.96l.15,2.81h.11c.77-2.26,2.69-3.16,4.17-3.16.42,0,.62,0,.99.09v4.28c-.38-.08-.77-.15-1.32-.15-1.9,0-3.01.96-3.27,2.32-.04.27-.05.56-.05.84v7.18h-4.62v-9.38Z"/><path class="d" d="M237.71,80.17c0,4.95-3.81,7.62-8.17,7.62s-7.97-2.75-7.97-7.32,3.14-7.57,8.28-7.57c4.67,0,7.85,3.05,7.85,7.27ZM226.39,80.36c0,2.42,1.24,4.19,3.29,4.19,1.89,0,3.23-1.5,3.23-4.22,0-2.14-.97-4.19-3.21-4.19s-3.32,2.07-3.32,4.22Z"/><path class="d" d="M255.31,73.24c-.06.79-.12,1.89-.12,4.14v7.84c0,2.62-.54,5.04-2.31,6.57-1.72,1.47-4.04,1.8-6.14,1.8s-4.27-.44-5.62-1.23l.93-3.49c.95.57,2.73,1.22,4.58,1.22,2.15,0,4.02-1.06,4.02-3.84v-.93h-.06c-.95,1.25-2.43,1.98-4.26,1.98-3.61,0-6.53-2.64-6.53-6.92,0-4.53,3.22-7.48,6.98-7.48,2.23,0,3.54.93,4.31,2.13h.06l.13-1.78h4ZM250.57,79.23c0-.25-.01-.51-.07-.74-.35-1.35-1.34-2.21-2.76-2.21-1.69,0-3.21,1.34-3.21,4,0,1.94,1.15,3.7,3.23,3.7,1.36,0,2.41-.92,2.71-2.03.08-.34.11-.83.11-1.19v-1.52Z"/><path class="d" d="M258.95,78.06c0-2.31-.03-3.63-.12-4.82h3.96l.15,2.81h.11c.77-2.26,2.69-3.16,4.17-3.16.42,0,.62,0,.99.09v4.28c-.38-.08-.77-.15-1.32-.15-1.9,0-3.01.96-3.27,2.32-.04.27-.05.56-.05.84v7.18h-4.62v-9.38Z"/><path class="d" d="M279.02,87.44l-.28-1.41h-.1c-.98,1.14-2.54,1.76-4.36,1.76-3.14,0-4.87-2.17-4.87-4.35,0-3.69,3.32-5.52,8.95-5.5v-.14c0-.63-.32-1.8-2.8-1.79-1.55,0-3.28.55-4.25,1.14l-.85-2.91c1.06-.6,3.09-1.33,5.89-1.33,4.87,0,6.62,2.72,6.62,6.2v4.84c0,1.43.08,2.76.23,3.5h-4.16ZM278.49,80.79c-2.68-.02-4.49.58-4.49,2.17,0,1.06.73,1.63,1.88,1.63,1.23,0,2.23-.84,2.53-1.77.07-.24.08-.53.08-.79v-1.24Z"/><path class="d" d="M286.73,77.87c0-1.84-.05-3.38-.12-4.62h3.87l.18,2.01h.1c.56-.85,1.85-2.36,4.58-2.36,1.93,0,3.5,1.01,4.15,2.6h.06c.59-.82,1.25-1.41,1.98-1.83.83-.5,1.76-.77,2.93-.77,2.77,0,5.15,1.89,5.15,6.41v8.14h-4.46v-7.49c0-2.21-.82-3.36-2.35-3.36-1.14,0-1.92.77-2.23,1.62-.12.35-.17.82-.17,1.16v8.08h-4.46v-7.65c0-2.04-.82-3.21-2.3-3.21-1.32,0-2.02,1.02-2.29,1.69-.14.38-.17.78-.17,1.13v8.04h-4.46v-9.57Z"/><path class="d" d="M322.06,87.44l-.28-1.41h-.1c-.98,1.14-2.54,1.76-4.36,1.76-3.14,0-4.87-2.17-4.87-4.35,0-3.69,3.32-5.52,8.95-5.5v-.14c0-.63-.32-1.8-2.8-1.79-1.55,0-3.28.55-4.25,1.14l-.85-2.91c1.06-.6,3.09-1.33,5.89-1.33,4.87,0,6.62,2.72,6.62,6.2v4.84c0,1.43.08,2.76.23,3.5h-4.16ZM321.53,80.79c-2.68-.02-4.49.58-4.49,2.17,0,1.06.73,1.63,1.88,1.63,1.23,0,2.23-.84,2.53-1.77.07-.24.08-.53.08-.79v-1.24Z"/><path class="d" d="M348.85,79.28h-8.11v4.43h9.05v3.73h-13.67v-19.55h13.22v3.73h-8.6v3.93h8.11v3.73Z"/><path class="d" d="M367.69,66.67v16.51c0,1.7.05,3.42.12,4.26h-4.14l-.18-2.24h-.06c-1.02,1.79-2.93,2.59-4.94,2.59-3.46,0-6.61-2.72-6.61-7.29-.03-4.71,3.24-7.61,6.95-7.61,1.92,0,3.46.62,4.18,1.66h.06v-7.89h4.62ZM363.06,79.46c0-.25-.01-.55-.06-.79-.29-1.29-1.42-2.32-2.96-2.32-2.25,0-3.45,1.75-3.45,3.96s1.32,3.83,3.43,3.83c1.51,0,2.71-1.08,2.96-2.41.07-.33.08-.69.08-1.04v-1.23Z"/><path class="d" d="M385.86,82.82c0,1.96.05,3.49.12,4.62h-4.01l-.2-2.17h-.1c-.52.85-1.9,2.52-4.81,2.52s-5.39-1.74-5.39-6.29v-8.26h4.62v7.44c0,2.15.77,3.41,2.49,3.41,1.38,0,2.19-.95,2.51-1.75.11-.25.14-.53.14-.85v-8.26h4.62v9.57Z"/><path class="d" d="M401.26,87.05c-.93.43-2.59.74-4.46.74-4.92,0-8.03-2.91-8.03-7.31,0-4.07,2.92-7.58,8.65-7.58,1.26,0,2.69.21,3.8.62l-.75,3.38c-.61-.28-1.48-.52-2.82-.52-2.5,0-4.14,1.63-4.12,3.9,0,2.62,1.97,3.94,4.23,3.94,1.22,0,2.15-.21,2.92-.52l.59,3.35Z"/><path class="d" d="M412.62,87.44l-.28-1.41h-.1c-.98,1.14-2.54,1.76-4.36,1.76-3.14,0-4.87-2.17-4.87-4.35,0-3.69,3.32-5.52,8.95-5.5v-.14c0-.63-.32-1.8-2.8-1.79-1.55,0-3.28.55-4.25,1.14l-.85-2.91c1.06-.6,3.09-1.33,5.89-1.33,4.87,0,6.62,2.72,6.62,6.2v4.84c0,1.43.08,2.76.23,3.5h-4.17ZM412.09,80.79c-2.68-.02-4.49.58-4.49,2.17,0,1.06.74,1.63,1.88,1.63,1.23,0,2.23-.84,2.53-1.77.07-.24.08-.53.08-.79v-1.24Z"/><path class="d" d="M431.91,87.05c-.93.43-2.59.74-4.46.74-4.92,0-8.03-2.91-8.03-7.31,0-4.07,2.92-7.58,8.65-7.58,1.26,0,2.69.21,3.8.62l-.75,3.38c-.61-.28-1.48-.52-2.82-.52-2.5,0-4.14,1.63-4.12,3.9,0,2.62,1.97,3.94,4.23,3.94,1.22,0,2.15-.21,2.92-.52l.59,3.35Z"/><path class="d" d="M439.42,69.24c0,1.23-.92,2.25-2.5,2.25s-2.43-1.02-2.43-2.25.93-2.25,2.47-2.25,2.44.99,2.46,2.25ZM434.63,87.44v-14.2h4.62v14.2h-4.62Z"/><path class="d" d="M458.29,80.17c0,4.95-3.81,7.62-8.17,7.62s-7.96-2.75-7.96-7.32,3.14-7.57,8.28-7.57c4.67,0,7.85,3.05,7.85,7.27ZM446.96,80.36c0,2.42,1.24,4.19,3.29,4.19,1.89,0,3.23-1.5,3.23-4.22,0-2.14-.97-4.19-3.21-4.19s-3.32,2.07-3.32,4.22Z"/><path class="d" d="M461.19,77.87c0-1.84-.05-3.38-.12-4.62h4.01l.21,2.08h.1c.52-.84,2.04-2.42,4.7-2.42,2.97,0,5.52,1.86,5.52,6.38v8.17h-4.62v-7.53c0-2.04-.78-3.33-2.53-3.33-1.41,0-2.19.99-2.51,1.8-.12.27-.14.67-.14,1.02v8.04h-4.62v-9.57Z"/><path class="d" d="M488.05,87.44l-.28-1.41h-.1c-.98,1.14-2.54,1.76-4.36,1.76-3.14,0-4.87-2.17-4.87-4.35,0-3.69,3.32-5.52,8.95-5.5v-.14c0-.63-.32-1.8-2.8-1.79-1.55,0-3.28.55-4.25,1.14l-.85-2.91c1.06-.6,3.09-1.33,5.89-1.33,4.87,0,6.62,2.72,6.62,6.2v4.84c0,1.43.08,2.76.23,3.5h-4.17ZM487.52,80.79c-2.68-.02-4.49.58-4.49,2.17,0,1.06.74,1.63,1.88,1.63,1.23,0,2.23-.84,2.53-1.77.07-.24.08-.53.08-.79v-1.24Z"/><path class="d" d="M495.76,66.67h4.62v20.77h-4.62v-20.77Z"/><path class="d" d="M525.36,66.67v16.51c0,1.7.05,3.42.12,4.26h-4.14l-.18-2.24h-.06c-1.02,1.79-2.93,2.59-4.94,2.59-3.46,0-6.61-2.72-6.61-7.29-.03-4.71,3.24-7.61,6.95-7.61,1.92,0,3.46.62,4.18,1.66h.06v-7.89h4.62ZM520.73,79.46c0-.25-.01-.55-.06-.79-.29-1.29-1.42-2.32-2.96-2.32-2.25,0-3.45,1.75-3.45,3.96s1.32,3.83,3.43,3.83c1.51,0,2.71-1.08,2.96-2.41.07-.33.08-.69.08-1.04v-1.23Z"/><path class="d" d="M532.64,81.78c.16,1.7,2.15,2.59,4.33,2.59,1.63,0,2.95-.19,4.31-.64l.63,3.08c-1.64.67-3.5.98-5.56.98-5.12,0-8.1-2.88-8.1-7.3,0-3.22,2.17-7.59,7.65-7.59,5.12,0,6.84,3.97,6.84,7.22,0,.69-.09,1.37-.17,1.67h-9.93ZM538.42,78.64c0-.81-.47-2.75-2.77-2.75-2.08,0-2.91,1.67-3.07,2.75h5.83Z"/><path class="d" d="M202.33,126.41l-8.71-24.78h6.37l3.39,10.42c1.01,3.04,1.84,5.77,2.55,8.92h.07c.73-2.99,1.65-5.92,2.62-8.77l3.61-10.57h6.15l-9.17,24.78h-6.89Z"/><path class="d" d="M225.97,103.34c0,1.56-1.16,2.86-3.15,2.86s-3.07-1.29-3.07-2.86,1.18-2.86,3.11-2.86,3.08,1.26,3.11,2.86ZM219.93,126.41v-17.99h5.83v17.99h-5.83Z"/><path class="d" d="M248.95,108.42c-.08,1-.15,2.4-.15,5.25v9.93c0,3.32-.69,6.39-2.91,8.32-2.17,1.86-5.1,2.29-7.74,2.29s-5.38-.55-7.09-1.55l1.18-4.42c1.2.72,3.44,1.55,5.77,1.55,2.71,0,5.07-1.35,5.07-4.86v-1.18h-.07c-1.2,1.58-3.07,2.5-5.37,2.5-4.55,0-8.23-3.34-8.23-8.78,0-5.74,4.06-9.48,8.81-9.48,2.81,0,4.46,1.18,5.44,2.7h.07l.17-2.26h5.05ZM242.98,116c0-.32-.02-.65-.08-.94-.44-1.71-1.69-2.81-3.48-2.81-2.13,0-4.05,1.7-4.05,5.07,0,2.46,1.44,4.68,4.07,4.68,1.71,0,3.04-1.16,3.41-2.58.1-.44.14-1.05.14-1.5v-1.93Z"/><path class="d" d="M259.58,103.34c0,1.56-1.16,2.86-3.15,2.86s-3.07-1.29-3.07-2.86,1.18-2.86,3.11-2.86,3.08,1.26,3.11,2.86ZM253.54,126.41v-17.99h5.83v17.99h-5.83Z"/><path class="d" d="M264.18,100.09h5.83v26.32h-5.83v-26.32Z"/><path class="d" d="M285.73,126.41l-.35-1.79h-.13c-1.23,1.45-3.2,2.23-5.5,2.23-3.96,0-6.14-2.75-6.14-5.52,0-4.67,4.18-6.99,11.28-6.97v-.17c0-.8-.41-2.28-3.53-2.27-1.96,0-4.13.7-5.37,1.44l-1.08-3.69c1.33-.76,3.89-1.69,7.42-1.69,6.13,0,8.35,3.44,8.35,7.86v6.13c0,1.81.1,3.5.29,4.44h-5.25ZM284.49,100.45l3.8,5.73h-3.74l-1.96-3.29h-.07l-1.96,3.29h-3.74l3.8-5.73h3.87ZM285.06,117.99c-3.38-.03-5.66.73-5.66,2.75,0,1.34.93,2.06,2.37,2.06,1.55,0,2.81-1.07,3.18-2.24.09-.31.1-.68.1-1v-1.58Z"/><path class="d" d="M295.45,114.28c0-2.33-.07-4.28-.15-5.86h5.06l.26,2.63h.13c.66-1.07,2.57-3.07,5.93-3.07,3.74,0,6.96,2.36,6.96,8.08v10.35h-5.83v-9.54c0-2.58-.98-4.22-3.19-4.22-1.78,0-2.76,1.25-3.16,2.28-.15.35-.18.85-.18,1.29v10.19h-5.83v-12.13Z"/><path class="d" d="M333.02,125.91c-1.17.54-3.26.94-5.63.94-6.2,0-10.13-3.69-10.13-9.27,0-5.16,3.69-9.61,10.91-9.61,1.59,0,3.4.27,4.79.79l-.95,4.28c-.76-.36-1.87-.65-3.56-.65-3.15,0-5.22,2.06-5.19,4.94,0,3.32,2.48,4.99,5.33,4.99,1.54,0,2.71-.27,3.68-.65l.74,4.25Z"/><path class="d" d="M342.49,103.34c0,1.56-1.16,2.86-3.15,2.86s-3.07-1.29-3.07-2.86,1.18-2.86,3.12-2.86,3.08,1.26,3.11,2.86ZM336.45,126.41v-17.99h5.83v17.99h-5.83Z"/><path class="d" d="M358,126.41l-.35-1.79h-.13c-1.23,1.45-3.2,2.23-5.5,2.23-3.96,0-6.14-2.75-6.14-5.52,0-4.67,4.18-6.99,11.28-6.97v-.17c0-.8-.41-2.28-3.53-2.27-1.96,0-4.13.7-5.37,1.44l-1.08-3.69c1.33-.76,3.89-1.69,7.42-1.69,6.13,0,8.35,3.44,8.35,7.86v6.13c0,1.81.1,3.5.29,4.44h-5.25ZM357.33,117.99c-3.38-.03-5.66.73-5.66,2.75,0,1.34.93,2.06,2.37,2.06,1.56,0,2.81-1.07,3.18-2.24.09-.31.1-.68.1-1v-1.58Z"/><path class="d" d="M380,119.24c.2,2.16,2.71,3.28,5.46,3.28,2.05,0,3.72-.24,5.43-.81l.79,3.9c-2.06.84-4.41,1.24-7.01,1.24-6.46,0-10.21-3.65-10.21-9.26,0-4.08,2.74-9.62,9.64-9.62,6.45,0,8.62,5.03,8.62,9.15,0,.87-.12,1.74-.22,2.12h-12.52ZM387.29,115.26c0-1.03-.59-3.49-3.49-3.49-2.62,0-3.67,2.11-3.87,3.49h7.36Z"/><path class="d" d="M396.25,114.28c0-2.33-.07-4.28-.15-5.86h4.88l.23,2.55h.13c.7-1.08,2.33-2.99,5.78-2.99,2.43,0,4.41,1.28,5.23,3.29h.07c.74-1.04,1.57-1.79,2.49-2.32,1.05-.64,2.22-.97,3.7-.97,3.49,0,6.49,2.39,6.49,8.12v10.32h-5.63v-9.5c0-2.79-1.04-4.26-2.96-4.26-1.44,0-2.42.98-2.81,2.06-.15.45-.22,1.04-.22,1.47v10.23h-5.63v-9.69c0-2.58-1.03-4.07-2.9-4.07-1.66,0-2.55,1.29-2.88,2.14-.18.48-.21.99-.21,1.44v10.18h-5.63v-12.13Z"/><path class="d" d="M438.34,120.35c1.64.87,4.16,1.75,6.89,1.75s4.09-1.03,4.09-2.66c0-1.44-1.2-2.33-4.43-3.28-4.36-1.26-7.52-3.4-7.52-7.47,0-4.31,3.83-7.49,9.84-7.49,3.2,0,5.4.6,7.1,1.37l-1.39,4.61c-1.07-.48-3.08-1.29-5.82-1.29-2.55,0-3.77,1.09-3.77,2.34,0,1.6,1.57,2.27,4.95,3.35,4.73,1.53,7.03,3.73,7.03,7.53,0,4-3.09,7.74-10.54,7.74-3.06,0-6.15-.85-7.71-1.72l1.27-4.78Z"/><path class="d" d="M470.39,126.41l-.35-1.79h-.13c-1.23,1.45-3.2,2.23-5.5,2.23-3.96,0-6.14-2.75-6.14-5.52,0-4.67,4.18-6.99,11.28-6.97v-.17c0-.8-.41-2.28-3.53-2.27-1.96,0-4.13.7-5.37,1.44l-1.08-3.69c1.33-.76,3.89-1.69,7.42-1.69,6.13,0,8.35,3.44,8.35,7.86v6.13c0,1.81.1,3.5.29,4.44h-5.25ZM469.72,117.99c-3.38-.03-5.66.73-5.66,2.75,0,1.34.93,2.06,2.37,2.06,1.56,0,2.81-1.07,3.18-2.24.09-.31.1-.68.1-1v-1.58Z"/><path class="d" d="M498.22,120.55c0,2.48.07,4.42.15,5.86h-5.06l-.25-2.75h-.13c-.66,1.08-2.4,3.19-6.06,3.19s-6.79-2.21-6.79-7.96v-10.47h5.83v9.43c0,2.73.96,4.32,3.14,4.32,1.75,0,2.77-1.2,3.17-2.21.13-.32.18-.68.18-1.07v-10.46h5.83v12.13ZM495.47,100.45l-4.73,5.73h-4.07l3.36-5.73h5.45Z"/><path class="d" d="M521.82,100.09v20.92c0,2.16.07,4.34.15,5.39h-5.22l-.22-2.83h-.07c-1.28,2.26-3.7,3.28-6.23,3.28-4.36,0-8.33-3.45-8.33-9.24-.04-5.97,4.09-9.64,8.76-9.64,2.42,0,4.36.79,5.27,2.11h.07v-9.99h5.83ZM515.99,116.29c0-.31-.02-.69-.08-1-.36-1.64-1.79-2.95-3.73-2.95-2.84,0-4.36,2.21-4.36,5.02s1.67,4.85,4.32,4.85c1.9,0,3.41-1.36,3.74-3.05.09-.42.1-.87.1-1.31v-1.56Z"/><path class="d" d="M531.01,119.24c.2,2.16,2.71,3.28,5.46,3.28,2.05,0,3.72-.24,5.43-.81l.79,3.9c-2.06.84-4.41,1.24-7.01,1.24-6.46,0-10.21-3.65-10.21-9.26,0-4.08,2.74-9.62,9.64-9.62,6.45,0,8.62,5.03,8.62,9.15,0,.87-.12,1.74-.22,2.12h-12.52ZM538.3,115.26c0-1.03-.59-3.49-3.49-3.49-2.62,0-3.67,2.11-3.87,3.49h7.36Z"/><path class="d" d="M193.26,151.69c0-1.84-.05-3.38-.12-4.62h4.01l.21,2.08h.1c.52-.84,2.04-2.42,4.7-2.42,2.97,0,5.52,1.86,5.52,6.38v8.17h-4.62v-7.53c0-2.04-.78-3.33-2.53-3.33-1.41,0-2.19.99-2.51,1.8-.12.27-.14.67-.14,1.02v8.04h-4.62v-9.57Z"/><path class="d" d="M220.12,161.26l-.28-1.41h-.1c-.98,1.14-2.54,1.76-4.36,1.76-3.14,0-4.87-2.17-4.87-4.36,0-3.69,3.32-5.52,8.95-5.5v-.14c0-.63-.32-1.8-2.8-1.79-1.55,0-3.28.55-4.25,1.14l-.85-2.91c1.06-.6,3.09-1.33,5.89-1.33,4.87,0,6.62,2.72,6.62,6.2v4.84c0,1.43.08,2.76.23,3.5h-4.16ZM219.59,154.61c-2.68-.02-4.49.58-4.49,2.17,0,1.06.73,1.63,1.88,1.63,1.23,0,2.23-.84,2.53-1.77.07-.24.08-.53.08-.79v-1.24Z"/><path class="d" d="M227.85,157.27c.89.55,2.8,1.16,4.19,1.16s2.02-.45,2.02-1.14c0-.73-.46-1.06-2.23-1.55-3.16-.86-4.46-2.51-4.43-4.3,0-2.71,2.39-4.73,6.14-4.73,1.82,0,3.47.42,4.37.88l-.8,3.13c-.67-.34-2.1-.88-3.44-.88-1.11,0-1.79.38-1.79,1.12,0,.7.64,1.05,2.52,1.59,2.9.82,4.14,2.18,4.17,4.4,0,2.56-2.06,4.64-6.51,4.64-2.07,0-3.83-.45-5.05-1.06l.84-3.28Z"/><path class="d" d="M247.85,141.71h13.09v3.73h-8.46v4.3h7.91v3.73h-7.91v7.79h-4.62v-19.55Z"/><path class="d" d="M263.65,151.88c0-2.31-.03-3.63-.12-4.82h3.96l.15,2.81h.11c.77-2.26,2.69-3.16,4.17-3.16.42,0,.62,0,.99.09v4.28c-.38-.08-.77-.15-1.32-.15-1.9,0-3.01.96-3.27,2.32-.04.27-.05.56-.05.84v7.18h-4.62v-9.38Z"/><path class="d" d="M290.41,153.99c0,4.95-3.81,7.62-8.17,7.62s-7.97-2.75-7.97-7.33,3.14-7.57,8.28-7.57c4.67,0,7.85,3.05,7.85,7.27ZM279.08,154.17c0,2.42,1.23,4.19,3.29,4.19,1.88,0,3.23-1.5,3.23-4.22,0-2.14-.97-4.19-3.21-4.19s-3.32,2.07-3.32,4.22Z"/><path class="d" d="M293.31,151.69c0-1.84-.05-3.38-.12-4.62h4.01l.21,2.08h.1c.52-.84,2.04-2.42,4.7-2.42,2.97,0,5.52,1.86,5.52,6.38v8.17h-4.62v-7.53c0-2.04-.78-3.33-2.53-3.33-1.41,0-2.19.99-2.51,1.8-.12.27-.14.67-.14,1.02v8.04h-4.62v-9.57Z"/><path class="d" d="M316.39,142.94v4.12h3.31v3.44h-3.31v4.7c0,1.73.34,2.65,1.84,2.65.63,0,1.12-.07,1.42-.15l.04,3.48c-.58.23-1.72.42-3.04.42-1.54,0-2.8-.58-3.52-1.34-.83-.88-1.23-2.31-1.23-4.26v-5.51h-1.96v-3.44h1.96v-3.1l4.49-1.03Z"/><path class="d" d="M325.84,155.6c.16,1.7,2.15,2.59,4.33,2.59,1.63,0,2.95-.19,4.31-.64l.63,3.08c-1.64.67-3.5.98-5.56.98-5.12,0-8.1-2.88-8.1-7.3,0-3.22,2.17-7.59,7.65-7.59,5.12,0,6.84,3.97,6.84,7.22,0,.69-.09,1.37-.17,1.67h-9.93ZM331.63,152.46c0-.81-.47-2.75-2.77-2.75-2.08,0-2.91,1.67-3.07,2.75h5.83Z"/><path class="d" d="M343.52,143.06c0,1.23-.92,2.25-2.5,2.25s-2.44-1.02-2.44-2.25.93-2.25,2.47-2.25,2.44.99,2.46,2.25ZM338.73,161.26v-14.2h4.62v14.2h-4.62Z"/><path class="d" d="M347.17,151.88c0-2.31-.03-3.63-.12-4.82h3.96l.15,2.81h.11c.76-2.26,2.69-3.16,4.17-3.16.42,0,.62,0,.99.09v4.28c-.38-.08-.77-.15-1.32-.15-1.9,0-3.01.96-3.27,2.32-.04.27-.05.56-.05.84v7.18h-4.62v-9.38Z"/><path class="d" d="M367.24,161.26l-.28-1.41h-.1c-.98,1.14-2.54,1.76-4.36,1.76-3.14,0-4.87-2.17-4.87-4.36,0-3.69,3.32-5.52,8.95-5.5v-.14c0-.63-.32-1.8-2.8-1.79-1.55,0-3.28.55-4.25,1.14l-.85-2.91c1.06-.6,3.09-1.33,5.89-1.33,4.87,0,6.62,2.72,6.62,6.2v4.84c0,1.43.08,2.76.23,3.5h-4.17ZM366.71,154.61c-2.68-.02-4.49.58-4.49,2.17,0,1.06.74,1.63,1.88,1.63,1.23,0,2.23-.84,2.53-1.77.07-.24.08-.53.08-.79v-1.24Z"/><path class="d" d="M374.96,157.27c.89.55,2.8,1.16,4.19,1.16s2.02-.45,2.02-1.14c0-.73-.46-1.06-2.23-1.55-3.16-.86-4.46-2.51-4.43-4.3,0-2.71,2.39-4.73,6.14-4.73,1.82,0,3.47.42,4.37.88l-.8,3.13c-.67-.34-2.1-.88-3.44-.88-1.11,0-1.79.38-1.79,1.12,0,.7.64,1.05,2.52,1.59,2.9.82,4.14,2.18,4.17,4.4,0,2.56-2.06,4.64-6.5,4.64-2.07,0-3.83-.45-5.05-1.06l.84-3.28Z"/></g></svg>