<svg id="Camada_3" xmlns="http://www.w3.org/2000/svg" version="1.1" viewBox="0 0 100 100">
  <!-- Generator: Adobe Illustrator 29.1.0, SVG Export Plug-In . SVG Version: 2.1.0 Build 142)  -->
  <defs>
    <style>
      .st0 {
        fill: #80d8c9;
      }

      .st1 {
        fill: #fff;
      }

      .st2 {
        fill: #1f62aa;
      }

      .st3 {
        fill: #43bac2;
      }

      .st4 {
        fill: #3a2e86;
      }

      .st5 {
        fill: #0397ce;
      }
    </style>
  </defs>
  <g>
    <path class="st4" d="M9.175,73.956c-.251-.531-.479-1.065-.699-1.601-12.923,14.137-4.407,18.795,11.51,17.115-4.078-3.903-7.726-9.003-10.811-15.514Z"/>
    <path class="st0" d="M27.102,25.725c1.939-1.113,3.972-2.09,6.098-2.894,33.888-12.818,36.6-3.652,37.355,8.996,5.907,3.692,13.058,8.866,21.848,15.98.638.516,1.232,1.042,1.786,1.576,6.326-13.984-1.925-29.629-39.972-43.532C13.592-8.996,20.907,6.912,27.102,25.725Z"/>
    <path class="st5" d="M88.294,79.528c12.02-7.563,16.129-20.267,5.896-30.146-2.179,4.817-6.085,9.437-11.104,13.721,3.792,5.652,5.968,11.258,5.208,16.425Z"/>
    <path class="st0" d="M17.821,32.876C-.687,29.668-5.089,45.057,6.073,60.174c-.032-9.987,4.408-19.857,11.749-27.298Z"/>
    <path class="st3" d="M70.556,31.826c.458,7.672.197,16.625,5.736,22.731,2.563,2.826,4.879,5.691,6.794,8.546,5.019-4.284,8.925-8.904,11.104-13.721-.553-.534-1.148-1.06-1.786-1.576-8.791-7.113-15.942-12.287-21.848-15.98Z"/>
    <path class="st5" d="M6.073,60.174c.013,4.095.775,8.207,2.404,12.181,1.315-1.439,2.845-2.973,4.62-4.611-2.794-2.454-5.132-5.007-7.024-7.57Z"/>
    <path class="st4" d="M56.445,85.55c-3.98-.516-7.739-1.22-11.287-2.077-9.04,3.125-17.881,5.227-25.172,5.996,11.767,11.262,27.141,12.491,43.088,8.357,17.042-4.418,24.133-10.908,25.22-18.299-7.843,4.934-19.051,7.682-31.849,6.022Z"/>
    <path class="st0" d="M29.59,34.061c-.704-2.783-1.583-5.591-2.488-8.337-3.436,1.973-6.559,4.392-9.281,7.151.907.157,1.842.351,2.817.6,3.654.933,6.543,1.019,8.952.586Z"/>
    <path class="st3" d="M70.556,31.826c-.755-12.648-3.467-21.814-37.355-8.996-2.126.804-4.159,1.781-6.098,2.894.904,2.746,1.784,5.553,2.488,8.337,13.189-2.369,11.849-20.437,40.966-2.235Z"/>
    <path class="st2" d="M13.096,67.743c-1.775,1.639-3.304,3.172-4.62,4.611.22.536.448,1.071.699,1.601,3.084,6.511,6.732,11.61,10.811,15.514,7.291-.77,16.133-2.871,25.172-5.996-13.992-3.383-24.632-9.202-32.062-15.73Z"/>
    <path class="st3" d="M25.009,57.932c7.319-5.515,6.938-14.554,4.581-23.87-2.409.433-5.298.347-8.952-.586-.975-.249-1.91-.443-2.817-.6-7.341,7.441-11.781,17.311-11.749,27.298,1.892,2.562,4.23,5.115,7.024,7.57,3.182-2.938,7.121-6.201,11.913-9.812Z"/>
    <path class="st2" d="M83.086,63.103c-9.913,8.46-24.148,15.607-37.928,20.37,3.547.858,7.307,1.561,11.287,2.077,12.798,1.659,24.006-1.088,31.849-6.022.76-5.167-1.416-10.773-5.208-16.425Z"/>
    <path class="st5" d="M29.59,34.061c2.357,9.316,2.738,18.356-4.581,23.87-4.792,3.611-8.731,6.873-11.913,9.812,7.43,6.528,18.07,12.347,32.062,15.73,13.779-4.764,28.015-11.91,37.928-20.37-1.915-2.855-4.23-5.72-6.794-8.546-5.54-6.106-5.278-15.059-5.736-22.731-29.117-18.201-27.776-.134-40.966,2.235Z"/>
  </g>
  <path class="st1" d="M50.001,30.612c1.188,0,2.278.654,2.844,1.696l17.449,32.313c.541,1.002.517,2.213-.065,3.191-.582.977-1.64,1.575-2.779,1.575h-34.898c-1.139,0-2.189-.598-2.779-1.575-.59-.977-.606-2.189-.065-3.191l17.449-32.313c.565-1.042,1.656-1.696,2.844-1.696ZM50.001,44.184c-1.074,0-1.939.864-1.939,1.939v9.048c0,1.074.864,1.939,1.939,1.939s1.939-.864,1.939-1.939v-9.048c0-1.074-.864-1.939-1.939-1.939ZM52.158,61.633c.048-.8-.347-1.559-1.034-1.979-.687-.412-1.551-.412-2.238,0-.687.42-1.083,1.179-1.034,1.979-.048.8.347,1.559,1.034,1.979.687.412,1.551.412,2.238,0,.687-.42,1.082-1.179,1.034-1.979Z"/>
</svg>