<?xml version="1.0" encoding="UTF-8"?>
<svg id="Camada_3" xmlns="http://www.w3.org/2000/svg" version="1.1" viewBox="0 0 100 100">
  <!-- Generator: Adobe Illustrator 29.1.0, SVG Export Plug-In . SVG Version: 2.1.0 Build 142)  -->
  <defs>
    <style>
      .st0 {
        fill: #80d8c9;
      }

      .st1 {
        fill: #fff;
      }

      .st2 {
        fill: #1f62aa;
      }

      .st3 {
        fill: #43bac2;
      }

      .st4 {
        fill: #3a2e86;
      }

      .st5 {
        fill: #0397ce;
      }
    </style>
  </defs>
  <g>
    <path class="st0" d="M34.001,8.916c.556-.128,1.111-.233,1.665-.33C24.981-6.865,18.775.327,17.024,15.993c4.557-3.087,10.158-5.504,16.978-7.077Z"/>
    <path class="st4" d="M75.956,36.473c.648,2.102,1.147,4.267,1.462,6.483,5.031,35.33-4.228,35.977-16.377,33.998-4.741,4.89-11.149,10.66-19.739,17.592-.624.503-1.247.962-1.87,1.38,11.927,9.074,28.491,4.487,49.665-29.127,22.61-35.892,5.993-32.261-13.143-30.327Z"/>
    <path class="st4" d="M12.095,83.808c4.643,13.177,15.823,19.845,27.338,12.118-4.109-3.126-7.668-7.87-10.674-13.613-6.155,2.437-11.926,3.331-16.664,1.495Z"/>
    <path class="st0" d="M71.127,26.018c6.93-17.113-6.733-24.637-23.409-17.138,9.474,2.106,17.897,8.487,23.409,17.138Z"/>
    <path class="st2" d="M61.041,76.954c-7.369-1.2-15.801-3.367-22.754.654-3.217,1.861-6.42,3.474-9.528,4.705,3.006,5.743,6.565,10.487,10.674,13.613.623-.418,1.246-.877,1.87-1.38,8.59-6.932,14.997-12.702,19.739-17.592Z"/>
    <path class="st0" d="M47.718,8.88c-3.884-.863-7.943-1.01-12.052-.294,1.088,1.573,2.22,3.372,3.401,5.429,2.914-2.161,5.825-3.864,8.651-5.135Z"/>
    <path class="st5" d="M13.078,51.892c1.325-3.717,2.782-7.182,4.341-10.41-1.063-9.361-1.197-18.313-.395-25.489C3.876,24.9-.52,39.421.048,55.641c.607,17.333,5.269,25.541,12.047,28.167-3.03-8.597-3.279-19.963.983-31.916Z"/>
    <path class="st5" d="M67.53,37.081c2.787-.082,5.632-.327,8.426-.609-1.148-3.727-2.785-7.247-4.829-10.455-.34.839-.72,1.696-1.16,2.58-1.652,3.314-2.341,6.074-2.436,8.483Z"/>
    <path class="st2" d="M61.041,76.954c12.148,1.979,21.407,1.332,16.377-33.998-.316-2.216-.814-4.381-1.462-6.483-2.793.282-5.639.527-8.426.609-.525,13.19,16.883,15.766-6.489,39.872Z"/>
    <path class="st3" d="M39.067,14.015c-1.181-2.057-2.313-3.856-3.401-5.429-.554.097-1.109.202-1.665.33-6.82,1.573-12.421,3.99-16.978,7.077-.802,7.176-.668,16.128.395,25.489,6.147-12.732,13.899-21.719,21.648-27.468Z"/>
    <path class="st3" d="M45.865,27.57c3.69,8.218,12.339,9.785,21.665,9.511.096-2.409.785-5.169,2.436-8.483.441-.884.821-1.742,1.16-2.58-5.512-8.651-13.935-15.032-23.409-17.138-2.827,1.271-5.738,2.974-8.651,5.135,2.117,3.689,4.382,8.174,6.798,13.555Z"/>
    <path class="st2" d="M28.759,82.313c-5.937-11.343-9.72-26.561-11.34-40.83-1.558,3.228-3.015,6.693-4.341,10.41-4.262,11.952-4.013,23.318-.983,31.916,4.738,1.836,10.51.942,16.664-1.495Z"/>
    <path class="st5" d="M67.53,37.081c-9.326.273-17.976-1.293-21.665-9.511-2.416-5.381-4.681-9.866-6.798-13.555-7.749,5.749-15.502,14.736-21.648,27.468,1.62,14.27,5.403,29.488,11.34,40.83,3.108-1.231,6.311-2.844,9.528-4.705,6.952-4.021,15.384-1.854,22.754-.654,23.372-24.106,5.963-26.682,6.489-39.872Z"/>
  </g>
  <path class="st1" d="M42.244,42.244v-5.171c0-2.852-2.319-5.171-5.171-5.171h-5.171v-.646c0-2.497,2.028-4.525,4.525-4.525h.646c1.43,0,2.585-1.155,2.585-2.585s-1.155-2.585-2.585-2.585h-.646c-5.357,0-9.695,4.339-9.695,9.695v10.988c0,2.852,2.319,5.171,5.171,5.171h5.171c2.852,0,5.171-2.319,5.171-5.171ZM47.415,52.585h-5.171c-2.852,0-5.171,2.319-5.171,5.171v5.171c0,2.852,2.319,5.171,5.171,5.171h5.171v.646c0,2.497-2.028,4.525-4.525,4.525h-.646c-1.43,0-2.585,1.155-2.585,2.586s1.155,2.585,2.585,2.585h.646c5.357,0,9.695-4.339,9.695-9.695v-10.988c0-2.852-2.319-5.171-5.171-5.171ZM62.927,42.244v-5.171c0-2.852-2.319-5.171-5.171-5.171h-5.171v-.646c0-2.497,2.028-4.525,4.525-4.525h.646c1.43,0,2.585-1.155,2.585-2.585s-1.155-2.585-2.585-2.585h-.646c-5.357,0-9.695,4.339-9.695,9.695v10.988c0,2.852,2.319,5.171,5.171,5.171h5.171c2.852,0,5.171-2.319,5.171-5.171ZM68.098,52.585h-5.171c-2.852,0-5.171,2.319-5.171,5.171v5.171c0,2.852,2.319,5.171,5.171,5.171h5.171v.646c0,2.497-2.028,4.525-4.525,4.525h-.646c-1.43,0-2.585,1.155-2.585,2.586s1.155,2.585,2.585,2.585h.646c5.357,0,9.695-4.339,9.695-9.695v-10.988c0-2.852-2.319-5.171-5.171-5.171Z"/>
</svg>