<?xml version="1.0" encoding="UTF-8"?>
<svg id="Camada_3" xmlns="http://www.w3.org/2000/svg" version="1.1" viewBox="0 0 100 100">
  <!-- Generator: Adobe Illustrator 29.1.0, SVG Export Plug-In . SVG Version: 2.1.0 Build 142)  -->
  <defs>
    <style>
      .st0 {
        fill: #80d8c9;
      }

      .st1 {
        fill: #fff;
      }

      .st2 {
        fill: #1f62aa;
      }

      .st3 {
        fill: #43bac2;
      }

      .st4 {
        fill: #3a2e86;
      }

      .st5 {
        fill: #0397ce;
      }
    </style>
  </defs>
  <g>
    <path class="st4" d="M32.735,86.255c-.524-.274-1.032-.564-1.534-.861-1.426,18.869,8.117,17.548,19.559,6.817-5.6-.697-11.599-2.599-18.025-5.956Z"/>
    <path class="st0" d="M17.093,37.319c.834-2.029,1.827-4.007,2.998-5.901C38.763,1.223,46.532,6.911,54.911,16.523c6.903-.55,15.694-.656,26.964-.188.818.034,1.608.101,2.37.2-3.651-14.854-19.75-22.426-58.134-11.026C-14.874,17.682.654,26.015,17.093,37.319Z"/>
    <path class="st5" d="M98.183,43.988c4.766-13.109.166-25.636-13.938-27.453,1.258,5.117,1.041,11.096-.256,17.465,6.452,2.257,11.609,5.431,14.195,9.988Z"/>
    <path class="st4" d="M14.22,48.484c-16.483,8.374-10.459,23.209,7.597,28.643-6.173-7.923-8.77-18.393-7.597-28.643Z"/>
    <path class="st3" d="M54.911,16.523c5.083,5.831,10.39,13.105,18.491,14.691,3.749.734,7.328,1.646,10.587,2.786,1.297-6.369,1.514-12.348.256-17.465-.763-.098-1.552-.166-2.37-.2-11.27-.468-20.061-.362-26.964.188Z"/>
    <path class="st4" d="M21.817,77.127c2.531,3.249,5.66,6.069,9.384,8.268.145-1.921.4-4.043.782-6.394-3.701-.303-7.105-.953-10.166-1.874Z"/>
    <path class="st4" d="M76.926,67.576c-3.438,1.939-6.817,3.598-10.126,5.01-5.162,7.821-10.799,14.71-16.04,19.626,16.157,2.01,28.965-6.086,38.92-18.786,10.638-13.572,12.202-22.918,8.503-29.437-3.11,8.553-10.204,17.353-21.257,23.587Z"/>
    <path class="st5" d="M24.175,42.48c-2.266-1.798-4.683-3.511-7.083-5.161-1.479,3.597-2.437,7.364-2.872,11.165.808-.41,1.66-.808,2.577-1.185,3.438-1.415,5.756-3.052,7.378-4.818Z"/>
    <path class="st3" d="M54.911,16.523C46.532,6.911,38.763,1.223,20.091,31.418c-1.171,1.894-2.164,3.871-2.998,5.901,2.4,1.65,4.817,3.364,7.083,5.161,8.88-9.669-3.294-23.246,30.735-25.957Z"/>
    <path class="st2" d="M31.983,79.001c-.382,2.351-.637,4.473-.782,6.394.502.297,1.01.587,1.534.861,6.426,3.357,12.425,5.26,18.025,5.956,5.241-4.916,10.878-11.805,16.04-19.626-13.05,5.569-24.974,7.221-34.817,6.415Z"/>
    <path class="st2" d="M35.281,64.167c2.342-8.705-3.522-15.669-11.105-21.686-1.622,1.766-3.94,3.403-7.378,4.818-.917.377-1.769.775-2.577,1.185-1.173,10.25,1.424,20.72,7.597,28.643,3.061.921,6.465,1.571,10.166,1.874.685-4.215,1.764-9.134,3.298-14.834Z"/>
    <path class="st2" d="M83.989,34c-2.562,12.579-9.321,26.664-17.189,38.585,3.309-1.412,6.689-3.071,10.126-5.01,11.053-6.234,18.148-15.034,21.257-23.587-2.586-4.557-7.742-7.731-14.195-9.988Z"/>
    <path class="st5" d="M24.175,42.48c7.583,6.018,13.447,12.981,11.105,21.686-1.534,5.7-2.612,10.619-3.298,14.834,9.843.806,21.766-.846,34.817-6.415,7.868-11.921,14.627-26.006,17.189-38.585-3.259-1.14-6.838-2.052-10.587-2.786-8.102-1.586-13.409-8.86-18.491-14.691-34.029,2.711-21.855,16.288-30.735,25.957Z"/>
  </g>
  <path class="st1" d="M68.098,56.464v-23.269c0-2.141-1.737-3.878-3.878-3.878h-24.562c-4.282,0-7.756,3.474-7.756,7.756v25.855c0,4.282,3.474,7.756,7.756,7.756h25.854c1.43,0,2.586-1.155,2.586-2.585s-1.155-2.585-2.586-2.585v-5.389c1.503-.533,2.586-1.971,2.586-3.66ZM48.573,43.648h4.204v1.621h-4.204v-1.621ZM41.671,39.093h3.209l3.354,10.815h-2.631l-.834-2.776h-3.097l-.77,2.776h-2.535l3.306-10.815ZM60.342,65.513h-20.684c-1.43,0-2.585-1.155-2.585-2.585s1.155-2.585,2.585-2.585h20.684v5.171ZM61.635,49.908h-8.408v-1.316l5.151-7.413v-.064h-4.669v-2.022h7.847v1.412l-5.038,7.317v.064h5.119v2.022ZM43.741,43.008c-.192-.642-.385-1.444-.545-2.086h-.032c-.161.642-.321,1.46-.498,2.086l-.642,2.295h2.391l-.674-2.295Z"/>
</svg>