<?xml version="1.0" encoding="UTF-8"?>
<svg id="Camada_3" xmlns="http://www.w3.org/2000/svg" version="1.1" viewBox="0 0 100 100">
  <!-- Generator: Adobe Illustrator 29.1.0, SVG Export Plug-In . SVG Version: 2.1.0 Build 142)  -->
  <defs>
    <style>
      .st0 {
        fill: #80d8c9;
      }

      .st1 {
        fill: #fff;
      }

      .st2 {
        fill: #1f62aa;
      }

      .st3 {
        fill: #43bac2;
      }

      .st4 {
        fill: #3a2e86;
      }

      .st5 {
        fill: #0397ce;
      }
    </style>
  </defs>
  <g>
    <path class="st4" d="M79.071,85.57c-.499.338-1.007.654-1.517.963,16.482,9.897,19.844.851,15.554-14.182-3.311,4.635-7.911,9.071-14.037,13.219Z"/>
    <path class="st0" d="M27.077,77.012c-1.447-1.667-2.771-3.45-3.934-5.353-18.538-30.336-9.649-34.605,3.101-37.619,2.801-6.359,6.908-14.183,12.723-23.939.422-.708.861-1.376,1.315-2.005C25.025,4.528,10.439,15.304,2.455,54.476c-8.525,41.827,6.48,31.905,24.622,22.536Z"/>
    <path class="st0" d="M71.919,8.33c-9.645-10.216-23.241-11.879-31.637-.234,5.256,1.229,10.591,4.158,15.764,8.22,5.138-4.675,10.491-7.784,15.873-7.986Z"/>
    <path class="st4" d="M35.86,84.662c-.265,18.413,16.111,19.874,29.687,6.388-10.159,1.835-20.924-.66-29.687-6.388Z"/>
    <path class="st3" d="M26.245,34.041c7.734-1.828,16.889-3.194,22.206-9.634,2.46-2.981,5.002-5.729,7.597-8.09-5.173-4.062-10.508-6.991-15.764-8.22-.454.63-.893,1.297-1.315,2.005-5.815,9.755-9.922,17.58-12.723,23.939Z"/>
    <path class="st4" d="M65.547,91.05c4.165-.752,8.227-2.23,12.008-4.517-1.678-1.007-3.486-2.204-5.442-3.618-2.045,3.135-4.264,5.849-6.566,8.135Z"/>
    <path class="st5" d="M83.211,37.929c.12,3.928.013,7.678-.285,11.251,4.646,8.145,8.217,16.285,10.183,23.171,9.555-13.373,8.314-28.408,1.522-43.027-7.258-15.622-15.013-21.282-22.711-20.994,6.293,6.665,10.906,16.968,11.291,29.599Z"/>
    <path class="st5" d="M35.159,73.108c-2.719,1.181-5.433,2.536-8.082,3.903,2.565,2.955,5.533,5.526,8.782,7.65.013-.902.059-1.838.154-2.822.357-3.689-.024-6.489-.855-8.732Z"/>
    <path class="st3" d="M26.245,34.041c-12.75,3.013-21.64,7.282-3.101,37.619,1.163,1.903,2.487,3.686,3.934,5.353,2.648-1.368,5.363-2.722,8.082-3.903-4.549-12.28-22.72-7.724-8.914-39.068Z"/>
    <path class="st2" d="M72.113,82.915c1.956,1.414,3.764,2.611,5.442,3.618.51-.309,1.017-.625,1.517-.963,6.127-4.148,10.726-8.585,14.037-13.219-1.965-6.886-5.537-15.026-10.183-23.171-1.175,14.093-5.373,25.397-10.813,33.735Z"/>
    <path class="st2" d="M60.196,73.209c-6.799-6.056-15.937-4.055-25.037-.101.831,2.243,1.212,5.042.855,8.732-.095.984-.141,1.92-.154,2.822,8.763,5.729,19.528,8.223,29.687,6.388,2.301-2.286,4.521-5,6.566-8.135-3.506-2.535-7.465-5.741-11.917-9.706Z"/>
    <path class="st3" d="M56.047,16.316c10.217,8.023,19.798,20.448,26.879,32.864.298-3.573.405-7.322.285-11.251-.385-12.631-4.998-22.934-11.291-29.599-5.382.202-10.735,3.311-15.873,7.986Z"/>
    <path class="st5" d="M35.159,73.108c9.1-3.954,18.238-5.955,25.037.101,4.452,3.965,8.41,7.17,11.917,9.706,5.44-8.338,9.638-19.642,10.813-33.735-7.081-12.416-16.662-24.841-26.879-32.864-2.595,2.361-5.136,5.11-7.597,8.09-5.317,6.441-14.471,7.807-22.206,9.634-13.806,31.344,4.365,26.788,8.914,39.068Z"/>
  </g>
  <g>
    <path class="st1" d="M62.926,46.119c0,3.708-1.204,7.133-3.231,9.912l10.227,10.235c1.01,1.01,1.01,2.65,0,3.66-1.01,1.01-2.65,1.01-3.66,0l-10.227-10.235c-2.779,2.028-6.204,3.231-9.912,3.231-9.282,0-16.803-7.521-16.803-16.803s7.521-16.803,16.803-16.803,16.803,7.521,16.803,16.803ZM46.123,57.752c6.422,0,11.633-5.211,11.633-11.633s-5.211-11.633-11.633-11.633-11.633,5.211-11.633,11.633,5.211,11.633,11.633,11.633Z"/>
    <path class="st1" d="M39.975,46.192c0-3.396,2.751-6.147,6.147-6.147,1.865,0,3.534.83,4.663,2.143.254.298.703.331.999.077.296-.254.331-.703.077-.999-1.386-1.617-3.443-2.639-5.739-2.639-4.179,0-7.565,3.387-7.565,7.565v1.182c0,.393.316.709.709.709s.709-.316.709-.709v-1.182ZM53.525,44.628c-.08-.384-.458-.629-.839-.547-.381.083-.629.458-.547.839.086.411.133.836.133,1.274v1.182c0,.393.316.709.709.709s.709-.316.709-.709v-1.182c0-.535-.056-1.058-.163-1.563l-.003-.003ZM46.122,40.99c-.561,0-1.105.089-1.611.254-.449.148-.553.7-.245,1.061.21.245.556.319.869.233.313-.086.644-.13.987-.13,2.089,0,3.783,1.693,3.783,3.783v.736c0,.745-.044,1.486-.13,2.225-.05.431.278.822.715.822.349,0,.647-.254.689-.6.098-.81.148-1.625.148-2.444v-.736c0-2.872-2.329-5.201-5.201-5.201l-.003-.003ZM43.01,43.021c-.269-.313-.748-.337-1.002-.012-.683.881-1.088,1.983-1.088,3.183v.736c0,.715-.077,1.43-.231,2.125-.1.461.233.919.706.919.31,0,.588-.207.656-.511.189-.83.287-1.679.287-2.536v-.736c0-.804.251-1.549.677-2.16.213-.307.236-.727-.006-1.011v.003ZM46.122,43.355c-1.566,0-2.837,1.271-2.837,2.837v.736c0,1.061-.136,2.113-.408,3.136-.112.423.198.857.635.857.281,0,.529-.183.603-.455.31-1.153.47-2.341.47-3.537v-.736c0-.848.689-1.537,1.537-1.537s1.537.689,1.537,1.537v.736c0,1.073-.103,2.14-.307,3.189-.08.411.228.804.644.804.301,0,.561-.207.621-.502.228-1.147.343-2.314.343-3.49v-.736c0-1.566-1.271-2.837-2.837-2.837ZM46.831,46.192c0-.393-.316-.709-.709-.709s-.709.316-.709.709v.736c0,1.77-.325,3.526-.96,5.178l-.174.452c-.142.366.041.777.408.916.366.139.777-.041.916-.408l.174-.452c.697-1.815,1.055-3.741,1.055-5.686v-.736Z"/>
  </g>
</svg>