<?xml version="1.0" encoding="UTF-8"?>
<svg xmlns="http://www.w3.org/2000/svg" version="1.1" viewBox="0 0 100 100">
  <g>
    <path style="fill: #3a2e86" d="M79.071,85.57c-.499.338-1.007.654-1.517.963,16.482,9.897,19.844.851,15.554-14.182-3.311,4.635-7.911,9.071-14.037,13.219Z"/>
    <path style="fill: #80d8c9" d="M27.077,77.012c-1.447-1.667-2.771-3.45-3.934-5.353-18.538-30.336-9.649-34.605,3.101-37.619,2.801-6.359,6.908-14.183,12.723-23.939.422-.708.861-1.376,1.315-2.005C25.025,4.528,10.439,15.304,2.455,54.476c-8.525,41.827,6.48,31.905,24.622,22.536Z"/>
    <path style="fill: #80d8c9" d="M71.919,8.33c-9.645-10.216-23.241-11.879-31.637-.234,5.256,1.229,10.591,4.158,15.764,8.22,5.138-4.675,10.491-7.784,15.873-7.986Z"/>
    <path style="fill: #3a2e86" d="M35.86,84.662c-.265,18.413,16.111,19.874,29.687,6.388-10.159,1.835-20.924-.66-29.687-6.388Z"/>
    <path style="fill: #43bac2" d="M26.245,34.041c7.734-1.828,16.889-3.194,22.206-9.634,2.46-2.981,5.002-5.729,7.597-8.09-5.173-4.062-10.508-6.991-15.764-8.22-.454.63-.893,1.297-1.315,2.005-5.815,9.755-9.922,17.58-12.723,23.939Z"/>
    <path style="fill: #3a2e86" d="M65.547,91.05c4.165-.752,8.227-2.23,12.008-4.517-1.678-1.007-3.486-2.204-5.442-3.618-2.045,3.135-4.264,5.849-6.566,8.135Z"/>
    <path style="fill: #0397ce" d="M83.211,37.929c.12,3.928.013,7.678-.285,11.251,4.646,8.145,8.217,16.285,10.183,23.171,9.555-13.373,8.314-28.408,1.522-43.027-7.258-15.622-15.013-21.282-22.711-20.994,6.293,6.665,10.906,16.968,11.291,29.599Z"/>
    <path style="fill: #0397ce" d="M35.159,73.108c-2.719,1.181-5.433,2.536-8.082,3.903,2.565,2.955,5.533,5.526,8.782,7.65.013-.902.059-1.838.154-2.822.357-3.689-.024-6.489-.855-8.732Z"/>
    <path style="fill: #43bac2" d="M26.245,34.041c-12.75,3.013-21.64,7.282-3.101,37.619,1.163,1.903,2.487,3.686,3.934,5.353,2.648-1.368,5.363-2.722,8.082-3.903-4.549-12.28-22.72-7.724-8.914-39.068Z"/>
    <path style="fill: #1f62aa" d="M72.113,82.915c1.956,1.414,3.764,2.611,5.442,3.618.51-.309,1.017-.625,1.517-.963,6.127-4.148,10.726-8.585,14.037-13.219-1.965-6.886-5.537-15.026-10.183-23.171-1.175,14.093-5.373,25.397-10.813,33.735Z"/>
    <path style="fill: #1f62aa" d="M60.196,73.209c-6.799-6.056-15.937-4.055-25.037-.101.831,2.243,1.212,5.042.855,8.732-.095.984-.141,1.92-.154,2.822,8.763,5.729,19.528,8.223,29.687,6.388,2.301-2.286,4.521-5,6.566-8.135-3.506-2.535-7.465-5.741-11.917-9.706Z"/>
    <path style="fill: #43bac2" d="M56.047,16.316c10.217,8.023,19.798,20.448,26.879,32.864.298-3.573.405-7.322.285-11.251-.385-12.631-4.998-22.934-11.291-29.599-5.382.202-10.735,3.311-15.873,7.986Z"/>
    <path style="fill: #0397ce" d="M35.159,73.108c9.1-3.954,18.238-5.955,25.037.101,4.452,3.965,8.41,7.17,11.917,9.706,5.44-8.338,9.638-19.642,10.813-33.735-7.081-12.416-16.662-24.841-26.879-32.864-2.595,2.361-5.136,5.11-7.597,8.09-5.317,6.441-14.471,7.807-22.206,9.634-13.806,31.344,4.365,26.788,8.914,39.068Z"/>
  </g>
  <path style="fill: #fff" d="M57.69,41.027c0-7.788-6.891-14.102-15.384-14.102s-15.384,6.314-15.384,14.102c0,3.173,1.146,6.105,3.077,8.461l-2.852,5.384c-.393.745-.256,1.659.337,2.259.593.601,1.514.737,2.259.337l6.538-3.461c1.851.721,3.886,1.122,6.025,1.122,8.493,0,15.384-6.314,15.384-14.102ZM42.306,50.009c-1.168,0-2.112-.944-2.112-2.112s.944-2.112,2.112-2.112,2.112.944,2.112,2.112-.944,2.112-2.112,2.112ZM43.891,42.252v.251c0,.878-.706,1.584-1.584,1.584s-1.584-.706-1.584-1.584v-.535c0-1.353.977-2.324,1.987-2.654.422-.139.871-.363,1.201-.68.284-.277.508-.66.508-1.294,0-1.168-.944-2.112-2.112-2.112v-.007c-1.168,0-2.112.944-2.112,2.112,0,.878-.706,1.584-1.584,1.584s-1.584-.706-1.584-1.584c0-2.918,2.363-5.281,5.281-5.281s5.281,2.363,5.281,5.281c0,3.116-2.376,4.436-3.697,4.918ZM69.997,64.872c1.931-2.356,3.077-5.288,3.077-8.461,0-6.602-4.944-12.139-11.618-13.677-.343,3.454-1.719,6.568-3.804,9.126h8.163c.645,0,1.166.521,1.166,1.166s-.521,1.166-1.166,1.166h-10.441c-1.038.893-2.185,1.669-3.407,2.332h13.848c.645,0,1.166.521,1.166,1.166s-.521,1.166-1.166,1.166h-13.99c-.645,0-1.166-.521-1.166-1.166,0-.221.077-.415.183-.591-2.526,1.169-5.343,1.84-8.28,1.877,1.314,6.562,7.588,11.538,15.127,11.538,2.139,0,4.174-.401,6.025-1.122l6.538,3.461c.745.393,1.659.256,2.259-.337.601-.593.737-1.514.337-2.259l-2.852-5.384ZM61.735,63.518h-9.909c-.645,0-1.166-.521-1.166-1.166s.521-1.166,1.166-1.166h9.909c.645,0,1.166.521,1.166,1.166s-.521,1.166-1.166,1.166Z"/>
</svg>