<?xml version="1.0" encoding="UTF-8"?>
<svg id="Camada_3" xmlns="http://www.w3.org/2000/svg" version="1.1" viewBox="0 0 100 100">
  <!-- Generator: Adobe Illustrator 29.1.0, SVG Export Plug-In . SVG Version: 2.1.0 Build 142)  -->
  <defs>
    <style>
      .st0 {
        fill: #80d8c9;
      }

      .st1 {
        fill: #fff;
      }

      .st2 {
        fill: #1f62aa;
      }

      .st3 {
        fill: #43bac2;
      }

      .st4 {
        fill: #3a2e86;
      }

      .st5 {
        fill: #0397ce;
      }
    </style>
  </defs>
  <g>
    <path class="st0" d="M59.051,12.525c.54.177,1.067.372,1.589.574-1.444-18.324-10.339-15.494-19.646-3.332,5.438-.249,11.436.592,18.057,2.758Z"/>
    <path class="st4" d="M81.221,56.88c-.493,2.082-1.145,4.141-1.98,6.148-13.304,32.008-21.55,27.827-30.961,19.984-6.495,1.658-14.854,3.2-25.661,4.598-.784.101-1.547.166-2.288.197,5.685,13.643,22.147,18.265,57.022,1.047,37.239-18.385,21.208-23.83,3.868-31.975Z"/>
    <path class="st5" d="M2.975,63.77c-2.594,13.349,3.65,24.606,17.356,24.037-1.958-4.7-2.64-10.468-2.35-16.787-6.482-1.107-11.866-3.305-15.007-7.25Z"/>
    <path class="st5" d="M82.299,45.705c14.46-10.728,6.517-23.965-11.492-26.217,7.058,6.585,11.087,16.197,11.492,26.217Z"/>
    <path class="st2" d="M48.28,83.013c-5.708-4.758-11.845-10.862-19.799-11.055-3.681-.09-7.226-.378-10.5-.937-.29,6.319.391,12.087,2.35,16.787.741-.031,1.503-.095,2.288-.197,10.807-1.397,19.166-2.939,25.661-4.598Z"/>
    <path class="st5" d="M70.807,19.489c-2.894-2.7-6.294-4.891-10.168-6.389.147,1.865.219,3.942.204,6.258,3.571-.316,6.911-.25,9.963.131Z"/>
    <path class="st0" d="M19.724,37.674c2.987-2.422,5.961-4.567,8.903-6.462,3.756-8.344,8.103-15.872,12.366-21.444-15.691.719-26.691,10.58-34.289,24.387C-1.415,48.909-1.516,58.126,2.975,63.77c1.692-8.71,7.144-18.309,16.749-26.097Z"/>
    <path class="st4" d="M73.707,53.092c2.426,1.353,4.983,2.599,7.514,3.788.875-3.691,1.228-7.459,1.078-11.175-.709.526-1.461,1.047-2.279,1.559-3.065,1.92-5.031,3.869-6.313,5.828Z"/>
    <path class="st2" d="M48.28,83.013c9.41,7.843,17.657,12.024,30.961-19.984.835-2.008,1.486-4.066,1.98-6.148-2.531-1.189-5.089-2.436-7.514-3.788-7.024,10.725,6.591,21.747-25.426,29.921Z"/>
    <path class="st3" d="M60.844,19.357c.015-2.316-.057-4.393-.204-6.258-.523-.202-1.05-.398-1.589-.574-6.621-2.166-12.619-3.007-18.057-2.758-4.263,5.572-8.61,13.1-12.366,21.444,11.606-7.477,22.72-11.014,32.217-11.854Z"/>
    <path class="st2" d="M59.906,34.119c-.938,8.73,5.683,14.445,13.801,18.972,1.283-1.959,3.248-3.908,6.313-5.828.818-.512,1.571-1.033,2.279-1.559-.405-10.02-4.434-19.632-11.492-26.217-3.053-.382-6.393-.447-9.963-.131-.027,4.153-.324,9.046-.938,14.762Z"/>
    <path class="st3" d="M17.982,71.02c.572-12.48,4.92-27.091,10.645-39.809-2.943,1.896-5.916,4.04-8.903,6.462-9.605,7.788-15.056,17.387-16.749,26.097,3.14,3.945,8.525,6.144,15.007,7.25Z"/>
    <path class="st5" d="M73.707,53.092c-8.118-4.527-14.739-10.242-13.801-18.972.614-5.716.911-10.609.938-14.762-9.497.84-20.611,4.377-32.217,11.854-5.726,12.718-10.073,27.329-10.645,39.809,3.274.559,6.819.847,10.5.937,7.954.193,14.09,6.298,19.799,11.055,32.017-8.174,18.402-19.196,25.426-29.921Z"/>
  </g>
  <path class="st1" d="M29.316,50c0-11.425,9.259-20.684,20.684-20.684s20.684,9.259,20.684,20.684-9.259,20.684-20.684,20.684-20.684-9.259-20.684-20.684ZM44.53,41.201c-.614.339-.994.994-.994,1.689v14.22c0,.703.38,1.349.994,1.689.614.339,1.357.331,1.963-.04l11.635-7.11c.574-.356.929-.978.929-1.656s-.356-1.301-.929-1.656l-11.635-7.11c-.598-.364-1.349-.38-1.963-.04v.016Z"/>
</svg>