<?xml version="1.0" encoding="UTF-8"?>
<svg xmlns="http://www.w3.org/2000/svg" version="1.1" viewBox="0 0 100 100">

  <circle style="fill: #fff" cx="42.502" cy="42.494" r="20.095"/>
  <g>
    <path style="fill: #3a2e86" d="M84.996,92.008c-1.872,0-3.631-.729-4.953-2.051l-18.603-18.617c-5.638,3.706-12.148,5.655-18.938,5.655-19.024,0-34.502-15.478-34.502-34.501S23.478,7.992,42.502,7.992s34.501,15.477,34.501,34.501c0,6.791-1.95,13.302-5.656,18.94l18.604,18.617c2.73,2.731,2.73,7.175,0,9.906-1.322,1.322-3.081,2.051-4.953,2.051ZM42.502,21.993c-11.305,0-20.501,9.197-20.501,20.501s9.196,20.501,20.501,20.501,20.501-9.197,20.501-20.501-9.196-20.501-20.501-20.501Z"/>
    <path style="fill: #fff" d="M42.502,9.992c17.954,0,32.502,14.548,32.502,32.502,0,7.172-2.328,13.798-6.25,19.173l19.782,19.798c1.953,1.953,1.953,5.125,0,7.078-.977.977-2.258,1.465-3.539,1.465s-2.563-.488-3.539-1.465l-19.782-19.798c-5.375,3.922-12.001,6.25-19.173,6.25-17.954,0-32.502-14.548-32.502-32.502S24.548,9.992,42.502,9.992M42.502,64.995c12.422,0,22.501-10.079,22.501-22.501s-10.079-22.501-22.501-22.501-22.501,10.079-22.501,22.501,10.079,22.501,22.501,22.501M42.502,5.992C22.375,5.992,6,22.367,6,42.494s16.375,36.502,36.502,36.502c6.634,0,13.015-1.759,18.649-5.115l17.476,17.49c1.701,1.701,3.963,2.638,6.369,2.638s4.667-.936,6.368-2.636c3.511-3.511,3.511-9.224,0-12.735l-17.477-17.491c3.357-5.635,5.116-12.017,5.116-18.652,0-20.127-16.375-36.502-36.502-36.502h0ZM42.502,60.995c-10.202,0-18.501-8.3-18.501-18.501s8.3-18.501,18.501-18.501,18.501,8.3,18.501,18.501-8.3,18.501-18.501,18.501h0Z"/>
  </g>
  <path style="fill: #0397ce" d="M42.502,57.968c1.838,0,3.316-1.478,3.316-3.316v-8.842h8.842c1.838,0,3.316-1.478,3.316-3.316s-1.478-3.316-3.316-3.316h-8.842v-8.842c0-1.838-1.478-3.316-3.316-3.316s-3.316,1.478-3.316,3.316v8.842h-8.842c-1.838,0-3.316,1.478-3.316,3.316s1.478,3.316,3.316,3.316h8.842v8.842c0,1.838,1.478,3.316,3.316,3.316Z"/>
</svg>