<svg version="1.2" xmlns="http://www.w3.org/2000/svg" viewBox="0 0 368 400" width="368" height="400"><style>.a{fill:#fff}.b{fill:none}</style><path class="a" d="m360.1 269c-3 0.5-6 1-8.9 1.5-6.1 0.8-12.5 1.2-18.2-1.4-10.6-4.8-17.1-21.9-4.8-28.5 3.7-2 10-2.3 12.5-5.9 1.4-2.1 1.5-5.4 1.7-8.1q-2-0.6-4.1-1c-7 7.5-16.8 10.4-26.6 13.3-2 0.6-4.2 1.3-6.6 2-1 3-3 5.2-5.8 6.8-1.3 0.7-2.7 1.2-4 1.7-0.4 0.3-0.9 0.5-1.3 0.7-1.1 0.5-2.2 0.8-3.3 0.8q-0.6 1.4-0.8 3.1c-0.2 1.6-0.8 2.9-1.7 3.9-0.7 2.6-2.7 4.7-6.2 4.7-5.8 0-7.7-6.1-5.6-10.1-1-7.9-7.5-13.3-11.4-20.1q-0.2 0.1-0.4 0.1 0.1-0.3 0.1-0.6-0.3-0.4-0.5-0.9c-5.3-10.4-9.2-21.4-10.3-33-0.2-2 0.4-3.6 1.5-4.7-5.2-9.2-12.4-17.2-22.1-22.5-8.2-4.6-17.1-6.7-26.5-6.9q-1 0-2.1 0 0.5-1.2 0.9-2.3 0.4-0.9 0.7-1.8c-1.4 0.2-2.7 0.1-4-0.3-2.7-0.8-3.5-2.9-3.1-4.8-2.2-0.3-4.4-1.1-6.5-2.6-4.7-3.1-0.3-10.7 4.4-7.6 6.8 4.5 8.1-3.7 13.8-5.4 1.6-0.5 3.1-0.3 4.4 0.2 0.7-0.9 1.8-1.6 3.3-1.6 6.7 0 13.1-0.1 17.4-5.8 2-2.6 4-4.8 6.9-5.8q0.8-0.4 1.8-0.4 0.7-0.1 1.5 0c1.2 0 2.1 0.4 2.8 1 2.3-0.5 0.5-5.9-1.2-7.5-3.4-3.4 0.2-8 4.3-7.4 3.7 0.6 8.9 2.3 7.1-3.5-0.8-2.5-1.9-4.9-1.2-7.6q-0.8 0.4-1.7 0.7c-2.1 0.6-4.5 0.8-6.7 0.8-1.2 0-2.1-0.9-2.1-2.1-0.1-1.1 1-2.1 2.1-2.1q1.5 0 3.1-0.1 0.1 0 0.1 0 0.1-0.1 0.2-0.1 0.4 0 0.7-0.1 0.7-0.1 1.4-0.3 0.3-0.1 0.7-0.3 0.1-0.1 0.3-0.1 0.6-0.3 1.2-0.6 0.3-0.2 0.6-0.4 0.1-0.1 0.3-0.2 0 0 0-0.1 0.6-0.4 1.1-0.9c0.9-0.9 2.2-0.8 3 0q0.2 0.1 0.3 0.4 0.3-0.3 0.6-0.6c2.2-2.6 0.1-6.3-0.6-9.6-0.4-1.9 0.3-3.7 1.7-4.7q-1.1-3.4-2.3-6.6c0.7-3.6 1.1-7.3 1.3-11-1.6 0.1-3.1 0.2-4.2 0.2-3.5 0.1-5.4-3.7-3.8-6.6 1.1-2.1 5.7-8 4.8-10.3-0.8-2-4.8-3.3-6.4-4.5-3.9-3.1-2.7-6.3-0.5-9.3 3.1-0.9 3.6-5.1 0.8-7.1-1.2-0.8-2.2-1.8-3.1-2.9-0.5-0.6-1.3-1-2.1-1.1q-0.1-0.5-0.1-0.9l0.1-0.3c0.4-1.1 0.1-2.3-0.6-3.3-1.4-3.2-6.6-3.1-7.4 0.6q-0.2-0.1-0.4-0.2c-1.3 1.5-2.8 2.8-4.8 3.7-3.1 1.5-6.4-0.2-6.6-3.8-0.3-3.5 0.9-6.7 1.5-10.1-5.2-0.4-10.6 0.1-15.8 0.4-5.4 0.2-10.3-1.2-13.8 3.6-4.3 6-11.4 8.4-16.5 1.6-1.9-2.5-2.7-6.5-5.3-8.4-3.6-2.6-10.4-1.1-14.4 0-4.4 1.3-8.1 3.8-12.8 4.5-1.5 0.2-3.2 0.2-4.9 0.1-5.9 4.7-14.2 6.3-20.4 1.8-6.7 4.7-12.6 10.6-17.6 16.8q-1.3 1.6-2.6 3.3c0.8 0.8 1.4 1.9 1.4 3.2 0.1 2.3-2.1 4.4-4.4 4.4-0.9-0.1-1.8-0.2-2.6-0.5-4.4 5.8-8.6 11.8-11.9 18q-0.7 1.4-1.4 2.7c0.7 2.3 1.7 4.4 3.5 6.1q0.5 0.4 0.8 0.9c5-0.3 10 0.8 11.3 5.5 2 6.9-7.4 10.1-12.5 10.4-3.6 0.2-4.9-3.4-3.9-6-5.8 2.1-6.3 6.5-3.4 11.6 1.9 3.4 5.2 6.1 6.4 9.8 0.8 2.4 0.2 4.5-0.3 6.6 3.3-1.2 6.5-2.2 10.2-2.5 5.7-0.3 5.4 8.1 0 8.8-4.5 0.6-8.5 3.1-12.8 4.3 5.4 10 15.1 18.6 26.1 22.7 3.5 3.1 7.6 5.5 12 7.1q0.3 1 0.6 2.1c0.8-0.4 1.8-0.4 2.9-0.1 3.3 1 7 2.7 10.5 1.5 3.3-1.1 6.1 2.4 5.4 5.4-1.1 4.5-0.6 9-4.1 12.5-2.9 2.8-7.3 4.1-11.1 2.3-2.4 0.6-5.1 0.6-7.4 1.1q-0.8 0.2-1.6 0.1-0.3 0.2-0.6 0.4-0.3 0.2-0.7 0.3c-2.1 0.6-4.3 1.1-6.5 1.5q-2.5 0.5-4.8 1.4c-1.3 0.1-2.7 0-3.8 0.2-1.9 0.2-3.5 0.8-5 1.9-3.3 2.4-5.7 6.5-8.2 9.7-0.3 0.3-0.4 0.7-0.6 1.1q-0.6 0-1.2 0.1 0 0.2-0.1 0.4c-2.4 5.4-4.7 12.2-9.3 16.4-2.1 2-6.2 1.9-7.9 3.8-0.5 0.6-0.6 3.3-0.9 4.2-0.5 1.3-1.1 2.4-1.8 3.5-3.1 5-8.5 8.3-13.8 10.5-2.8 1.2-5.7 2-8.6 2.4-2.3 0.4-4.9 0.2-7 1.3-2.6 1.4-4.8 5-6.8 7.1-2.6 2.7-5.3 5.1-8.1 7.5-1.9 1.5-4 2.9-5.1 5.2-1.3 2.7-1 6-1.8 8.8-1.4 5-4.9 8.8-8.7 12.1-3.4 3.1-12.3 8.5-7.3 13.3 1.4 1.2 1.6 2.8 1.2 4.1 1.3 0.6 2.6 1.5 3.8 2.7 2.9 2.9 5.7 5.9 8.5 8.9 1 0.2 2 0.8 2.8 1.9 5.5 8.1 12.3 14.2 19.9 20.3 8.3 6.6 15.9 14.2 25.1 19.6 10.2 6 20.6 11.7 30.9 17.5 10 5.7 19.5 12.9 31.5 9.7 2.4-0.6 4.8 0.8 5.5 3.1q0.5 2.1 0.7 4.1c-1 0.4-1.8 1.1-2.1 2.4 10.1-5.7 23.6-5.8 33.6-0.2 3.8 2 7.3 4.6 11.2 6.6q3.1 1.6 6.3 3c0 0.1 0.4 0.2 0.8 0.4 0.7 0.2 1.8 0.7 2.1 0.8 5.8 2.2 11.6 4.1 17.3 6.6 1.9 0.9 3.9 1.9 5.8 2.8q0.2 0.1 0.4 0.2c0.1 0 1.3 0.5 1.9 0.7q2.7 1 5.1 2.4c0.8-4.2 1.4-8.5 2.6-12.6 1.4-4.5 3.1-8.9 4-13.6 1-5.8 10-3.3 8.9 2.5-0.3 1.5-0.7 3-1.1 4.4 1.3 0.7 2.2 2 2.2 3.9 0.1 4.1 1 8.1 2.4 11.8 4.9-2.8 11.1-4.4 16.7-4.5 0.1 0 0.7 0.1 1.4 0.2 1-0.9 1.9-1.9 2.8-2.7q0.1-0.1 0.2-0.2c0.7-1.3 1.8-3.3 1.8-3.4 2.5-5.3 7.2-8.6 12.6-10-0.8-9.2-2.3-18.4-4.9-27.5-1-3.3-2.5-6.3-4.3-9.1-0.3-5.4-0.4-10.8-0.2-16.2-5.6-2.5-4.7-12.8 2.9-12.8 1.3 0 2.4 0.4 3.3 0.9q4.7-0.7 9.3-1.7c0.3-0.8 0.9-1.5 1.7-2.2 6.4-5.7 17.5-9.7 17.9-19.4 0.2-6.3 9.3-9.6 12.5-3.4 2.3 4.7 5.4 5.9 10 7.8q1.7 0.7 3.2 1.6c0.3-0.2 0.7-0.4 1.2-0.6 0.4-0.1 0.8-0.3 1-0.4q1.6-0.5 3.1-1c1.5 0.5 3 0.9 4.5 1.5 1.9 0.8 4.1 1.2 6.5 1.3 0.3-3.6 3.3-5.8 6.7-6.1 6.4-0.7 13.3-2.4 17.9-7.2 2.4-2.5 3.8-5.4 5.2-8.5 0.4-1 1-3.1 1.7-3.9q0 0 0-0.1c-2 0.8-5.3 0.6-7.5 1zm-219.2 56.9c-1 4.1-4.3 7.3-7.4 10-5.1 4.5-10.6 7.9-17.6 6.8-5.6-0.9-10.9-3.8-15.7-6.9-12.2-8-23.2-18.8-31.6-30.7-4.6-6.5-12.9-19.9-3.1-25.8q0.2-0.1 0.3-0.1-0.2-0.2-0.4-0.4 0.2-0.4 0.5-0.8 0.9-1.2 1.7-2.3 0.7-0.8 1.3-1.5 3.2-3.6 6.6-7.1c-1-1.5-1.1-3.5 0.8-5 3.8-3.1 7.9-5.1 12.4-6.6q1.7-1.2 3.5-2.4 0.7 0.5 1.5 0.9c4.9-1.3 10.4-3.8 15.6-3.7 5.1 0 7.9 3.5 9.6 7.9 2.5 6.2 5.8 12 8.5 18.2 4.8 11.1 7.6 22.8 11.6 34.2 1.7 4.8 3.3 10.1 2 15.3z"/><path class="b" d="m171.5 210.7c-4.4 0.4-8.3 0.8-12.3 1.2 3.3 0.9 10.2 0.1 12.3-1.2z"/><path class="b" d="m144.3 330.8c-0.7-0.8-2.3-0.1-2-1.7 0.2-1-0.1-2.3 1.6-2.3q-0.1-0.1-0.1-0.1l0.1 0.1-0.1-0.1q0.1 0 0.2 0c1.1-1.1 3.1-1.2 3.2-3.2q0 0 0 0 0 0 0-0.1c-2.6 1.7-5.3 3-9 2.9 2.1 2 2.2 5.5 6.1 4.5z"/><path class="b" d="m61.6 279.5c1.8-1.5 3.5-3.3 5.3-4.7 1.6-1.2 2.8-2.2 1.1-4.2-0.5-0.6-0.7-1.7-0.1-2.3 0.4-0.3 1.5-0.4 1.9 0 2.7 2 2.3-0.6 2.2-1.7-0.6-5-2-9.8-3.8-14.5-2.8-7.1-7.9-12.6-12.6-18.4-0.8-0.9-1.6-2.3-2.5-2.4-3.4-0.4-5.6-2.8-8.3-4.4-1.7-0.9-3.2-1.1-4.4 0.8-2.3 3.6-5.2 6.5-8.4 9.4-3.3 2.9-8 4-10.4 8-0.3 0.4-0.8-0.2-0.9-0.1-1.4 0.4-2.8 0.9-2.8 2.7 0 1.8 1.2 1.8 2.6 2 5 0.7 10 1.2 14.8 2.8 1.2 0.4 2.3 0.6 2.8-0.9 0.6 0.8 0.7 2.1 2 2.3 0.2 0 0.5 0.2 0.5 0.1 2.5-2.1 2.6 2.8 4.7 1.6 0.2 2.6 2.6 3.2 4.2 4.4 4.1 3.1 6.6 7 6 12.4-0.2 1.7 0.2 3.3 1.7 4.3 1.2 0.9 1.3 1 0.1 1.6-0.9 0.5-0.6 1-0.3 1.5 0.3 0.6 0.3 1.5 1.2 1.7 0.8-0.7-0.3-1.5 0.5-2.2 1.4 1.4 1.5 1.5 3 0.3z"/><path class="b" d="m73.7 269.5c0.6 0.2 1.3 0.4 1.8-0.2 0.4-0.4 0-0.8-0.4-1.1-0.8-0.4-0.2-1.5-1.1-2.3-0.3 1-0.4 1.8-0.7 2.5-0.1 0.5-0.1 1 0.4 1.1z"/><path class="b" d="m35.6 254.9c6.1 5.4 11.8 10.5 17.4 15.5 0-4.9-10.3-14.4-17.4-15.5z"/><path class="b" d="m151.3 156.4c-0.2 1.8 0.5 3.2 1.4 4.8 1.2 2.1 2.6 4 4.1 5.9 0.1-0.5 0.3-1.1 0.1-1.5-1.7-2.9-0.9-5.8 0-8.7 0.7-2.2 1.1-4.7-0.2-6.4-1.2-1.4-3.4 0.4-5.1 0.7-0.8 0.2-1.6 1-2.8 1.7 2.4 0.4 2.8 1.8 2.5 3.5z"/><path class="b" d="m254.8 68.1c1.5 0.9 2.7 1.7 3.6 2.8 0.5 0.7 1.4 1.2 1.7 0.2 0.5-1.3 1.8-2.8 0.3-4.4-1.8 0.4-3.7 0.4-5.6 1.4z"/><path class="b" d="m77.6 206.5c0.6 0.2 1.2 0 1.4-0.5 0.9-1.7 1.7-3.4 1.8-5.9-1.8 1.6-2.6 3.4-3.4 5.1-0.2 0.4-0.5 1.1 0.2 1.3z"/><path class="b" d="m135.5 184.6c1.9 0.6 4-0.6 4.4-2.6 0.2-1.1 0.9-1.2 1.8-1.3 0.1 0.8-0.4 1.2-0.6 1.6-0.8 1.7-0.2 2.5 1.6 2.4 2.3-0.1 4.4-0.4 6.4-2.3 1.8-1.8 3.8-3.7 5.9-5.2 0.8-0.6 1.1-0.6 2 0 3.7 2.2 7.9 2.8 11.8 4.7-7.1-8.8-17.9-14-20.5-25.9-1.5 1.4 0 3.3-1.5 4.4-0.3 0.3 0.3 0.9 0.8 0.7 1.4-0.5 1.8 0.3 2.1 1.4 0.3 1.2-0.3 1.8-1.4 2.6-1.3 1-2.9 2.1-2.8 4.3 0 0.6 0.4 1.6-0.6 1.9-0.9 0.2-1.1-0.8-1.5-1.4-0.9-1.5-1.8-2.1-2.7 0.1-1.9 4.3-3.9 8.6-5.8 12.9-0.3 0.7-0.5 1.3 0.6 1.7z"/><path class="b" d="m144.6 163.3c1.3-0.4 0.4-2.4 0.9-3.6 0.2-0.6-0.7-1.1-1.7-0.8 0.6 1 1.5 2-0.1 2.9-1.2 0.7-1.6 2.4-0.9 3.1 1.1 0.9 0.7-1.3 1.8-1.6z"/><path class="b" d="m253 108.9c1.4 1 2.3 3.2 4.7 1.6 0.4-0.3 0.8 2.1 1.1 0.1 0.1-0.7 0-2.1-1.1-1.7-1.7 0.6-3.1-0.6-4.7 0z"/><path class="b" d="m163.3 242.4c0.6 0.7 1.5 1.3 2.4 0.5 1-0.9 1.7-2 1.3-3.5-0.4-1.3-1.4-2.3-2.5-2.4-1.6-0.1-0.4 1.7-1.4 2.4-0.9 0.1-0.1-1.8-1.4-1.1-0.6 0.4-0.6 1.1-0.2 1.7 0.5 0.8 1.1 1.7 1.7 2.4z"/><path class="b" d="m256.4 107.8c0.6 0.3 1.2 0 1.2-1.1-0.5-0.8-0.5-2.6-1.8-2.3-0.9 0.2-2.8-0.9-2.8 0.9 0 1.8 2.1 1.7 3.4 2.5z"/><path class="b" d="m152.5 142.7c0.6-1 0.6-2.5-1.1-3.1-0.8 1.1-1 2.5-2.7 2.8 1.4 1.3 2.9 1.5 3.8 0.3z"/><path class="b" d="m167.9 343.2c-2.5-4.8-6.8-7.4-11.4-9.8-1.3-0.6-2.4-1.1-3.9-0.9-3.4 0.5-6.9 0.7-10.3 1 0.8 0.6 1.7 1.1 2.5 1.6 1.2 0.8 1.3 2.6 2.8 2.7 4.3 0.4 8.2 2.2 12.2 3.5 2.8 1 5.4 2.7 8.7 3.1-0.3-0.6-0.4-0.9-0.6-1.2z"/><path class="b" d="m136.3 336.6c-2.8-1.3-3.2 1.6-4.6 2.6-0.3 0.2-0.4 0.8 0 0.9 1.7 0.3 2.5-1.3 3.7-1.9 0.7-0.3 1.2-0.7 1.3-1.5-0.1 0-0.3 0-0.5-0.1z"/><path class="b" d="m233.3 130.1c2.9 0.1 2.3-2.5 3.5-3.8-2.5 1.2-6.3 1.2-5 5.8 1.5-0.2 0.7-2.1 1.5-2z"/><path class="b" d="m150.5 129.7c-1-1.7-2.1-3-1.6-5.1-1.1 0-0.9 1.3-1.6 1.2-2.8-0.5-5.7-0.8-8.2-1.9-1.7-0.8-3.1-2.6-4.5-4.2-1.2-1.3-2.6-3-4.4-3.8 0.1 2.1 1.3 4.7 2.5 5.1 1.8 0.7 1.8 1.9 2.4 3 0.5 0.8 1.2 1.6 1.8 2.4 1.8 2.1 4 4 6.6 5.7-2.2 0.3-2.8-1.4-3.9-2.2-1.3-0.8-2.4-1.8-3.5-2.7-1.2 2.5 0.1 4.8 0.5 6.9 0.4 2.1 2.8 3.8 5.2 4.3 2 0.4 3.2-1 4.2-2.7 0.2-0.4 0.1-1 1-1 2.1-0.2 4.5-3.3 3.5-5.1z"/><path class="b" d="m101.4 95.6c1-1 2.1-1.7 3.6-0.4q-0.8-1.9-2.5-3.2c-0.8 0.6 0.6 1.7-0.4 2.2-1.1 0.4-0.9-0.9-1.3-1.3-0.6-0.6-1.3-0.7-2-0.6-0.9 0.2-0.7 1-0.6 1.6 0 0.6 0 1.2 0 1.8 0.8 0.6 0.4-2.3 1.5-0.4 0.5 0.8 1.2 0 1.7 0.3z"/><path class="b" d="m217 61.1c-0.2-1.4 1.1-2.6 0.4-4.2-1.9 1.3-1.5 2.7-0.4 4.2z"/><path class="b" d="m97.5 97.7c0.2-0.1 0.2-0.6 0.1-0.7-0.8-1-1.6-2.5-3-2.4-1.2 0.2-1.8 1.5-1.6 2.9 0.1 0.3 0.6 1.1-0.1 1-2.9-0.5-2.1 2.4-3.2 3.5 2.4 0.1 3.9-1.3 5.8-2.3-0.6-1-1.5-1.8-1.4-3.6 0.7 1.3 1.9 0.9 2.5 1.7 0.6 0.8-1 2.7 0.8 2.5 1.2 0-0.9-1.7 0.1-2.6z"/><path class="b" d="m226.1 129.7c0.6 1.7 2 0.7 2.7 1.5 0.4 0.5 1.1 0.9 1.6 0.3 0.6-0.5 0.5-1.4 0.2-2-0.3-0.7-1-1.2-1.7-2-0.6 1.3-1.1 2.5-2.8 2.2z"/><path class="b" d="m220.4 81.8c-0.8 3 0.1 5.9 0.4 8.8 0.1 0.5 0.2 1.1 0.9 1.2 0.4 0.1 0.7-0.4 0.6-0.7-1.4-3-0.7-6.3-1.9-9.3z"/><path class="b" d="m108.4 92c0.2-0.2 0.5-0.6 0.5-0.8-0.4-2.1-2.1-2.7-3.7-3.6-0.1-0.1-0.2 0-0.4 0-0.5 0.1-1.2-0.1-1.1 0.9 0.1 0.5 4.3 3.7 4.7 3.5z"/><path class="b" d="m97 90.8c0.6-0.6-0.1-0.9-0.4-1.3-1.5-1.6-2.8-3.3-3.6-5.4-0.3-0.8-1-1.5-1.7-2.1-0.5-0.3-1.4-0.3-1.8 0.2-0.4 0.6 0.2 0.9 0.6 1.2q0 0 0 0 0 0 0 0.1 2.7 3.5 5.5 7c0.3 0.4 0.9 0.8 1.4 0.3z"/><path class="b" d="m133.4 64.3c0.4 2.7 2.9 4 5.5 2.7q0 0 0-0.1 0 0 0.1 0c0.4-2.7 0.4-5.3-0.6-7.9-1.4 0.9-1.2 2.4-1.1 3.8-2.4-0.1-2.1-2.4-3.3-3.5q0 0 0 0 0 0-0.1 0c-0.6 1.6-0.8 3.2-0.5 5z"/><path class="b" d="m127.6 51.7c1.7 1.1 2.6 3.2 4.6 3.8 0.4-0.4 0.8-0.7 1.1-1.2 0.4-0.6 1.9 1.3 1.8-0.8-0.1-1.2 0-2.2-1.7-2.8-1.1-0.3-3-1.6-3-1.9-0.4-2.1-2.3 0.2-2.7-1.1 0.5 1.4-1.3 3.1-0.1 3.9z"/><path class="b" d="m135.8 71.2c1.7 0.4 1.4 3 3.5 3.3-0.5-1.5-1.5-2.7-1.7-4.2-0.1-0.8-1.1-0.2-1.6 0-0.4 0.2-0.5 0.8-0.2 0.9z"/><path class="b" d="m116.3 25.3c1.1 0.7-1.5 4.2 2.1 2.7 0.3-0.1 0.6 0.5 0.6 1 0.1 0.6-0.6 1.2 0.3 2 0.4-1.5 0.4-3 0.1-3.5-0.6-0.8-1.4-1.4-1.1-2.6 0.2-0.5 0.7-1.2-0.1-1.6-0.7-0.3-0.7 0.6-1 0.7-0.8 0.1-1.6 0.8-0.9 1.3z"/><path class="b" d="m226.7 128.3c0.3 0.2 0.6-0.2 0.5-0.9-1.2-0.3-2.5-0.8-3.9-0.9-0.7-0.1-1.2 0.8-1 1.3 1.1 2.4 3-0.7 4.4 0.5z"/><path class="b" d="m93.6 62.7c0.3 0.1 0.4 0.8 0.7 1.1 0.4 0.3 1 0.4 1.6 0.1 0.6-0.2-0.2-1.6 0.8-1.2 0.9 0.2 0.5 1.2 0.5 1.9 0 0.2 0.6 0.5 0.9 0.8 0.3-1.7 0.6-4.3-1.3-4.2-3.8 0.1-2.5-2.3-2.6-3.9-0.1-0.7 0.2-1.3-0.8-1.3-1.2 0-1.6-0.2-1.3-1.8 0.3-1.1-1.3-2.8-2.4-2.9-1.1-0.2-1 2-0.7 2.6 1.6 2.9 0.2 7.4 4.6 8.8z"/><path class="b" d="m99.9 107.4c1.3 1.7 2.7 3.4 4.4 5.5-1.9-0.4-2.9-1.2-3.3-2.2-0.5-1.4-1.6-1.7-2.6-2.3-1.3-0.9-2.6 0.1-3.8 0.6-1.6 0.6 0.3 1.6-0.1 2.5-0.3-0.3-0.5-0.4-0.7-0.6-1.4-1.7-2.6-0.5-3.6 0.4-1.5 1.3 0.2 1.9 0.8 2.6 0.9 1.2 2.6 2 3 4.3-1.6-1.6-2.6-3.1-4.8-4 1.5 3.9 3.8 6.4 6.7 8.2 1.6 1 3.7 1.6 4.9-0.9 0.4-1 0.9-2.1 2.3-1.9q0 0 0 0 0 0 0.1 0c1.2-1.3 2.7-1.5 4.3-1.1 0.4 0.1 0.6 0.6 0.3 0.8-1.5 0.7-3.1 0.6-4.6 0.3q0 0-0.1 0 0 0 0 0c-0.2 1 1.4 2.6 0.2 2.7-1.6 0-1.7 0.6-1.8 1.7-0.1 1.3 0.9 1.8 1.9 2.3q2 0.8 4 1.6c0.6 0.2 1.6 0.4 0.7 1.2-0.8 0.7-1.4 1.4 0.1 1.5 1.1 0 2.4 2.7 3.3 0.1 0.4-1.2 1-0.7 1.6-0.7 1.1 0 2.7 1.1 3.2-0.9 0.5-1.7 2.2-3.7-0.3-5.2q-3.2-1.9-6.3-3.8c-0.4-0.2-0.9-0.2-1-0.7 0-0.6 0.4-0.9 0.8-0.9 0.8-0.1 1.7-0.7 2.4 0.2 0.9 1.2 2.3 1.2 3.6 1.7 1.7 0.6 4.1 1.3 4.7 2.7 0.9 1.8 2.2 2.6 3.6 3.5 1.3-2.3-2.3-2.3-1.8-4.2 2.4 0.6 3 2.2 2.7 4.3-0.3 1.6-1 1.5-2.1 0.9-3.4-1.9-3.6-1.8-3.9 2.4 0.5-0.4 0.9-0.6 1.1-1 0.6-1 1.3-0.2 1.9-0.1 0.2 0 0.5 0.4 0.4 0.6-0.2 0.9-0.9 0.6-1.5 0.6-0.8 0-1.1 0.6-1.4 1.1 1 0.2 1.8 0.7 2.4 1.5 1 1.2 2.5 1.7 3.8 2.5 0.7 0.4 1.8 0.5 1.3-0.6-0.6-1.3-0.1-2.3 0.7-2.8 1.4-0.9 1 1.7 2.3 1.5 0.9-1.3-0.8-2.1-0.7-3.2q0 0 0 0c-1.1-1.3-2.1-2.5-3.3-4 1.6-0.4 2.3 1 3.3 1.2 1.8-3.5-2.8-3.9-3.5-7 0.8 0.7 1.1 1 1.4 1.2 0.7 0.4 1 2.1 2.4 0.3 1.3-1.7-0.5-1.4-0.8-2-1.2-2-4.1-2-4.9-4.2 0.9-1 1.4 0.7 2-0.1 0.2-0.1 0.1-0.5 0-0.8-0.3-0.8-1.1-0.9-1.8-0.8-0.7 0-1.4 0.4-1.9 0.2-0.8-0.3-2.4-0.7-1.4-1.8 1.1-1.4 0.1-1.9-0.6-2.2-1.1-0.6-1.6-1.3-1.8-2.4q0 0-0.1 0 0-0.1 0.1-0.1l-2.6-1.5c0.9-0.2 2.2 0.5 2.8-1.1-2.9-0.5-5.1-2-6.9-4.2-0.9-1.1-2-1.5-3.4-1.1-1 0.3-1.8-0.1-2.1-1.2-0.7-2.2-2.5-2.7-4.5-2.8-0.1 0.6-0.4 1.6-0.2 1.7 1.6 0.6 1.9 2 2.4 3.4 0.1 0.3 0.9 0.6 1.1 0.5 1.5-0.8 2.3 0.3 3.4 1 0.5 0.4 1.3 0.8 1.7-0.2 0.1-0.4-1.1-1.1 0.1-1 0.6 0 1.1 0.8 1.6 1.3 0.2 0.3 0.7 0.5 0.2 1.1-1.1 1.3-1.1 1.5-0.2 2.5 1 1.2 2.1 1.9 3.4 0.4-1.5 2.2-0.7 3.7 1.8 4.5-1.5 0.8-2.6 0.4-3.5-0.5-1.5-1.4-3-2.8-4.5-4.2-0.8-0.8-1.8-1.4-2.6-0.6-1 1 0.3 1.5 0.8 2.2q2.6 2.9 5.3 5.9c-2.4-0.5-3.1-2.9-4.9-4-1.7-1.2-2.4-3.9-5.1-3.7q0 0-0.1 0 0 0-0.1 0c-0.4 0.8-1.4 1-2.1 1.4zm-0.8 8.9c2.2 0.4 2.3-0.5 2-1.8q-0.1-0.1-0.1-0.2v-0.1c0 0 0 0.1 0 0.1q0-0.1-0.1-0.1c-1.9-1-3.4-2.6-4.5-4.6 1.4 1.6 4.1 1.9 4.5 4.6q0.1 0 0.1 0 0.1 0.2 0.1 0.3c1.1 1.5 3.3 0.9 4.8 3.2-2.4-1.6-4.6 0.1-6.8-1.4zm9.9-2.2c-2.8-1.4-4.5-4.2-6.5-6 1.9 1.7 4.3 3.9 6.5 6z"/><path class="b" d="m136.3 94.7c-0.4-0.6-0.9-0.8-1.5-0.4-0.5 0.3-0.7 0.8-0.3 1.2 1.7 1.8 2.5 4.4 4.3 6.1 0.1-2.6-1.1-4.8-2.5-6.9z"/><path class="b" d="m149.6 138.4c-0.1 1.5 1 1.1 1.8 1.2 1-2 1-2.4-0.1-2.4-0.9 0-1.7 0.2-1.7 1.2z"/><path class="b" d="m142.5 105.5c-0.3-0.6-0.3-1.6-1.4-1.2-1 0.3-1.1 1.2-0.9 2 0.3 1.8 5.2 4.6 6.8 3.9 0.5-0.2 0.5-0.6 0.1-0.8-0.1-0.1-0.4 0-0.6 0.1q0-0.1 0 0-0.1 0-0.1 0 0 0-0.1 0 0 0 0-0.1c-1.7-0.8-3-2.1-3.8-3.9z"/><path class="b" d="m142.4 114.3c0.5 0.5 0 0.8-0.4 1-2.4 1.7-1.5 3.5-0.1 5.3 1.5 1.7 5.1 2.8 6.4 1.9 0.7-0.5 0.7-1.2 0.6-2-0.1-2.1-0.6-4.1-1-6.2-0.3-1.1-0.4-1.8-1.9-1.9-2-0.1-3.8-1.2-5.4-2.4-3.1-2.5-3.1-4.6 0.2-6.8 0.9-0.7 1.1-1.1 0.1-1.8 0.2-0.3-0.4-1.7 0.9-0.7 0.9 0.6 1.9 1.2 2.6 2 0.7 0.9 1.1 2 1.6 2.9-0.7 0.7-1.2-0.5-1.8 0.1 0 1.6 1.9 2 2.2 3.5 0.1-1.1 0.6-2.1 1.3-2.9 2.4-2.7 2.3-5.5 0.2-8.4-0.1 0.4-0.2 0.7-0.3 0.9-0.6 0.7 0.2 2.4-1.3 2.3-1 0-1.3-1.4-1.7-2.3-0.8-1.7-0.2-4.1-2.8-4.8-0.3-0.1-0.1-0.6 0.1-0.9 1.5-1.7 0.7-3.3-0.6-4.5-1.4-1.2-3-0.9-4.4 0.3-0.2 0.2-0.2 0.7-0.7 0.2-2-2.1-4-0.4-5.6 0.5-1.2 0.6-1.9 2.9-1.1 3.7 0.9 1 2.4-0.2 3.4-1.3 0.2-0.3 0.6-1.1 0.8-0.7 1.3 1.9 2.7 0.3 4 0.2 0.7 0 1.9 0.3 1.2 1.1-1.1 1.2-0.1 2 0.2 2.6 1.2 2 1.7 4 1.7 6.2-0.7-0.1-1.4 0-2 0.3q0 0 0 0c-0.9 0.5-1.6 0.6-2.2-0.4-1-1.6-2-3.1-3.1-4.5-0.6-0.6-0.5-2.5-2.5-1.3-1.7 1-1.6 1.8-1.2 3.4 0.7 2.2 1.2 4.6 1.4 6.9 0.4 3.1 1.7 5.2 5 5.9 1.4 0.3 2.8 0.9 4.3 0.9 1.1 0 1.3 1.1 1.9 1.7z"/><path class="b" d="m131 127.3c-0.6 1.4-1.4-0.3-1.9 0.1-0.3 0.9 1.2 1.8 0.1 2.7 0.8 0 1 0.9 1.7 1.3 0.2-1.2 0.5-2.3 0.7-3.4 0.1-0.9-0.5-1.1-0.6-0.7z"/><path class="b" d="m218.4 134.9c0.7 0.4 1.6 0.7 2.5 0.3 0.1-1-1.5-0.5-1.2-1.8 1.6 0.5 3.3 0.9 4.8 1.4 0.8 0.3 1.5 0.6 1.8-0.4 0.2-0.7 0.1-1.4-0.8-1.8-0.9-0.3-1.7-1-2.6-1.5-1.2-0.8-2.7-2.9-3.1 0.7 0 0.3-0.9 0.6-1.5 0.9-0.7 0.4-2.1-0.2-2 1.2 0.1 0.9 1.4 0.6 2.1 1z"/><path class="b" d="m134.4 142.4c1.9 1.2 3.3 1.6 5.3 0.6-1.7-1.1-3.2-0.9-5.3-0.6z"/><path class="b" d="m138 137.4c-0.2-0.6-0.7-1.7-1.7-1.7-0.9 0-0.6 1.6-1.4 2.1 0.7 0.4-0.2 1.9 1.1 1.8 0.9-0.1 1.9-0.5 2-2.2z"/><path class="b" d="m119.6 132.1c0-0.1-0.3-0.5-0.5-0.8-1.3-0.6-2.5-0.3-3.3 0.8-0.7 1 0.7 1.1 1.1 2.3-3.2-2.3-6.9-1.1-9.9-2.9-0.5-0.3-1.3-0.8-1.6 0-0.4 0.7 0.5 1.1 0.9 1.5 4.4 4 9.6 5.2 16 4.3-2.6-1.3-5.5-2.1-2.7-5.2z"/><path class="b" d="m132.8 186.7c-0.2 0.4-0.2 0.8 0.3 1 1.4 0.4 2.6-0.3 3.6-1.2 0.1 0 0-0.1 0-0.2-2.4-0.5-3.6-0.4-3.9 0.4z"/><path class="b" d="m127.3 104.8v-7.8c-1.7 3.1-1.6 5.5 0 7.8z"/><path class="b" d="m151.1 145.7c0.2 0.2 0.5 0.5 0.8 0.6 0.5 0.1 1.1 0.2 1.7 0.3 0.4-0.2 1.5 0 1.3-0.4-1.1-1.6 1.6-2.2 0.7-3.6-0.3-0.5-0.9-0.3-1.1 0.1-0.5 1.3-1.3 2.2-2.8 2.2-0.2 0-0.4 0.5-0.6 0.8z"/><path class="b" d="m156.5 135.1q-1.5-0.1-2.9-0.2c0.8 0.6 1.8 5.3 2.9 0.2z"/><path class="b" d="m150.1 184q4.6-2.5 4.8-4.9c-1.9 1.4-3.6 2.7-4.8 4.9z"/><path class="b" d="m169 185.4c0.1 0 0.6-0.3 0.8-0.6 0.2-0.4-0.2-0.6-0.5-0.8-1.2-0.9-2.3-2-4.3-2.1 0.4 2.4 2.4 2.8 4 3.5z"/><path class="b" d="m304.9 243.1q2.8-2.9 5.7-5.9c-2.7 1.2-4.3 3.4-5.7 5.9z"/><path class="b" d="m239.7 223c-0.3 0.3-0.3 0.9-0.1 1 1.8 0.5 1.9 2.7 3.8 3.7-0.2-2.1-1.4-3.1-2.2-4.4-0.3-0.4-0.9-0.6-1.5-0.3z"/><path class="b" d="m250.7 288.1c0.1-0.4-0.1-1.6-0.8-1.3-1 0.4-2 1.2-2.6 2.1-0.3 0.5 0.6 0.8 1.3 0.9 1.1-0.1 1.9-0.6 2.1-1.7z"/><path class="b" d="m275.5 268c0.4 0.6 1.1 1.2 1.8 0.5 0.6-0.5 0.6-1.1-0.2-1.9-1.5-1.4-1.2-2.9 0.5-4 0.5-0.4 0.4-0.8 0.3-1.2-0.3-1.4-0.8-2.6-1.8-3.8-0.7 1.3 0.3 2.7-0.4 3.8-0.7-0.2-0.7-0.7-0.8-1.2-0.5-4-1.8-4.9-5.6-4.1q-1.2 0.3-2.4 0.5c-2.4 0.5-4.3 1.2-3.5 4.3 0.3 0.8-0.5 1.8-0.4 2.6 0.1 1.9-2.3 2.7-1.8 4.4 0.3 1.5 0.1 2.6-1.1 3.7 4-1.2 7.3-3.5 11.2-4.5 1.7-0.4 3-0.6 4.2 0.9z"/><path class="b" d="m250.5 291.6c-0.5-0.1-1.1 0.1-1.6 0.3-0.8 0.4-0.7 1.2-0.4 1.9 0.6 1.5 1.4 2.9 2 4.4q0.3-0.1 0.5-0.1-0.1-2.4-0.3-4.8c-0.1-0.6 0.6-1.4-0.2-1.7z"/><path class="b" d="m238.3 233.7c-0.4-1.3-0.6-3-2.7-3.1-1.1 0-2.1 0.4-1.8 1.8 0.4 1.7 0.4 3.8 2.4 4.2 1.5 0.3 1.8-1.4 2.1-2.9z"/><path class="b" d="m363.3 270.2c0.4-0.7 2-1.1 0.9-2.1-0.7-0.7-1.9-1.1-2.9 0.1q0 0 0 0c0.1 2.6-2.3 3.3-3.7 5.7-0.2-2 1.3-2.1 1.2-3.3-2.3 0.8-4.4 1.6-6.6 2.4-0.9 0.4-1.4 1-1.2 1.9 0.3 1.1 1.2 0.4 1.8 0.3 1.2-0.2 2.4-1 3.5-0.7 2.3 0.5 3.6-0.7 4.9-2.2 0.7-0.7 1.5-1.4 2.1-2.2z"/><path class="b" d="m352.3 278.9c-1.2-0.1-2.2-0.2-3.4 0.4-4.6 2-9 4.7-14 6.1 10.5 1.5 22.6-4.1 25.9-7.9-2.9 1.3-5.7 1.7-8.5 1.4z"/><path class="b" d="m336.6 281.3c0.1-0.2 0.5-0.3 0.7-0.4 2.5-0.1 4.4-1.9 6.6-2.7 1.6-0.5 3.5-1 5.1-3.1-5.8 0.6-10.9 1-15.9 2.8-4.9 1.9-9.6 2.4-13.5-2.2-0.6-0.8-5-0.7-5.5 0.1-0.7 1.6 0.7 2.4 1.6 3.3 3.6 3.3 8.6 3.9 12.7 6.4 0.3 0.2 1.1 0.1 1.3-0.1 1.6-2.6 5.6-1.1 6.9-4.1z"/><path class="b" d="m290.8 264.4c-0.3-0.4 0.1-1.7-1.2-1.2-0.8 0.4-2.4-0.3-2.5 1.4 0 0.5 0.4 1.3-0.7 1-1.7-0.5-2 0.5-2.2 1.9-0.3 2-0.9 3.9-4.2 2.8 1.3 1.6 1.1 2.2-0.3 3.1-1.5 0.9-2.6 0.9-4.1 0.4-0.8-0.2-1.9 0.8-2.8 0.8-1.3 0 0.6 2.8-1.4 1.4-1.2-0.8-1.8 0.1-2.5 0.6-0.4 0.2-0.7 0.6-1.1 0.9-0.3 0.3-0.7 0.4-1.2 0.1q1.6-1.9 2.4-4.5c0.1-0.5 0.5-0.5 0.8-0.5 0.7-0.1 1.3 0 1.9-0.1 1.2-0.2 2.3-0.7 1.9-2.1-0.3-1.3-1.4-1.6-2.6-1-2.8 1.4-5.8 2.3-8.6 4-2.6 1.4-3.8 4.3-6.8 5.4-1.5 0.5-2.3 3.1-3.3 4.8-0.2 0.5-0.6 1.3 0.2 1.7 0.9 0.4 1-0.5 1.4-1 1.2-1.5 1.6-3.6 3.6-5.6-0.4 2.7-1.7 4.2-2.7 5.8-1.3 2.1-2.3 4.6-2.7 6.7-0.5 3.1 0.8 6.4 2.6 9.2 0.2 0.4 0.6 0.7 0.9 1 1.2 0.9 2.4 1.7 3.6 2.5 1.6 1.2 3.5 2.1 4.6 3.6 1.5 1.9 4.7 2.6 6.2 0.7 2.9-3.8 6.3-7 10.6-9.2 1-0.6 2.7-0.7 2.9-1.8 0.6-3.2 5.7-2.6 5.3-6.5 0 0 0.1-0.1 0.2-0.1 3.4-0.5 3.5-3.6 4.5-6 0.6-1.4 0.6-3 2.6-3.7 1.6-0.5 2.2-4.3 1.3-5.8-2.3-3.5-4.4-7.1-6.6-10.6z"/><path class="b" d="m262 307.6c-2-1.5-3.5-3.5-6.2-4.6 1.5 3.8 3.4 5.2 6.2 4.6z"/><path class="b" d="m272.5 307.3c2.1-1.3 4.3-2.5 5.2-5.2-2.4 1.2-4 3-5.2 5.2z"/><path class="b" d="m335.8 275.3c-3.9-4.8-7.4-5-13.7-0.6 4.4 3.7 9 3.2 13.7 0.6z"/><path class="b" d="m252 304c-1.4 0.3-0.9 1.2-0.6 1.9q1.7 5.4 3.4 10.9c0.3 0.9 0.4 1.9 1.6 3-0.8-5.2-2.6-9.7-3.1-14.4-0.1-0.8 0.1-1.8-1.3-1.4z"/><path class="b" d="m358.9 268.4c-4.9 2.3-10.5 2.9-16 5.5 7-0.6 12.6-3.4 18.4-5.7-0.9-0.3-1.6-0.1-2.4 0.2z"/><path  d="m143.8 326.8q0.1 0 0.1 0l-0.1-0.1c0 0 0 0.1 0 0.1z"/><path  d="m79.7 258.9q0 0 0 0 0 0 0 0z"/><path  d="m132 364c-2.2 1.3-4.4 1.2-6.8 0.8-4.4-0.5-8.9-1.3-13.3 0.5 6 1.6 12.3 1.3 18.6 2.4q0.7-0.4 1.6-0.7c1.3-0.4 2.6-0.6 4-0.8q-0.1-0.2 0-0.4c0.1-0.9 0.8-0.4 1.3-0.5 2.2-0.6 4.6-0.2 6.9-1 2.8-0.9 5.8-1.2 9-1.9-1.8-0.9-1.8-2.3-1.9-3.6 4-0.5 7.8-1.6 11.7-1.4 1 0.1 2-0.4 1.5-1.7-0.8-1.9 0.5-2.1 1.8-2.4 0.7-0.2 1.6-0.3 1-1.4-1-1.8-0.9-4.2-3.1-5.4-1.1-0.6-2.2-0.7-3.2-1.2-0.5-0.3-1-0.7-0.8-1.3 0.2-0.9 0.8-0.9 1.5-0.6 1.8 0.6 3.5 1.4 5.3 2.1 0.7 0.2 1.5 1.1 2.2 0.2 0.7-0.8 0.3-1.8-0.3-2.5-1.1-1.6-2-3.4-3.4-4.6-4.6-4.4-9.1-9-16.5-7.7-3 0.5-3.9-0.5-5.3-4.1-1.6 0-1.3 1.3-1.5 2.3-0.3 1.6 1.3 0.9 1.9 1.7-3.8 1-3.9-2.5-6.1-4.5 3.8 0.1 6.5-1.2 9-2.9-0.2-1.7-0.4-3.3-2.8-3.4-0.2 0.8 1.7 1.9 0 2.4-1.5 0.4-1.4-1.3-1.5-2 0-2-0.9-3.7-1.2-5.8 1.3 3.3 2.2-0.3 2.9-0.6-2.7-1.1-2.5-4.4-3.4-7.1-1.2-3.6-2.2-7.3-3.8-10.8-0.5-0.9-2.1-0.9-1.6-1.7 0.7-1.3-0.2-2.1-0.3-3.1-0.5-2.9-2.2-5.3-3.1-8.1-1.7-5.4-4-10.6-6.2-15.9-2.1-5-4.4-10-6.6-15-0.2-0.4-0.5-1 0-1.2 0.6-0.2 1.1 0.1 1.3 0.7 0.1 0.4-0.2 0.9 0.3 1.2 0.2-0.4-0.1-1.1 0.6-1.3 1.3 1.3 1.9 2.8 2.1 4.5 0.1-3.9-1-8.7-4.6-9.6-1-0.3-1.2-0.8-0.6-1.6 0.5-0.6 1.6-0.5 1.8-1.5 0.4-1.7-1.3-0.1-1.5-1.1-0.6-3-1.4-6.1-2-9.2q-0.4-2 1.5-3.2c2.3-1.3 4.4-2.9 6.7-4.3 5.7-3.5 11.3-7 18.3-7.5 4-0.3 8.1-1.6 12.3-2.5-1.1-0.8-1.9 0.5-3.1-0.4 6.2-2.9 12.9-0.7 18.9-2.4 6.1-1.8 12.5-0.2 18.7-1.6-9.5-1-19-2.1-28.4-0.7-7.9 1.1-15.9 1.9-23.1 5.7-2.7 1.5-5.5 2.4-8.6 2.4-2.8 0-5.7 0.2-8.5 0.5-1.3 0.1-2.9 0.1-4 1.8 4.6-0.3 8.9-0.6 13.7-0.9-4.9 3.4-9.7 5.4-13.7 8.8-1.3 1.2-1.9 0.4-2.3-0.8q-1.4-4.7-2.9-9.4c-1.2-3.8-3.7-7-5.7-10.5-3-5.1-6-10.3-9.4-15.2-0.5-0.7-0.9-1.6-1.9-1.1-1.2 0.6-0.3 1.4 0 2.1 2.3 4.3 4.2 8.7 5.3 13.4 0.1 0.7 0.2 1.7 1.5 2.4-0.8-3.1-1.4-5.7-2.1-8.3 0.9 0.3 1.4 0.8 1.7 1.4 4.1 7 7.8 14.2 10.5 21.9 0.7 2.2 1 4.7 1 7.1 0 1.1-1.6 2.3 0.9 2.4 0.2 0 0.6 0.4 0.7 0.7 0.6 3.2 2.4 6.3 1.4 10.1 0.1-2.8-2.9-1.3-3.5-3.2-1-3.3-3.3-5.9-5.3-8.5-2.3-3.1-4.8-6.1-7.7-8.8-1.3-1.2-2.9-2.2-4-3.7-2.4-3.1-5.3-5.8-8.8-7.9-0.4 1.1 0.2 1.5 0.7 2 1.1 0.8 2.2 1.6 3 2.6 5 5.6 10.6 10.8 15 17 0.6 0.9 2.3 0.5 2.3 1.9 0.1 2 1.3 3.5 2.4 4.8 1.2 1.3 1 2.9 2 4.3 2.7 3.9 4.8 8.3 6.1 13 0 0.2 0.2 0.4 0.3 0.6 0.7-0.2 0-1.2 1-1.3 0.6 2.4 0.7 5.1 2.1 7.4 2.1 3.4 3.2 7.2 4.7 10.9 1.3 3.2 0.7 7.2 4.5 9.6 1.4 0.9 0.3 4.4 2.5 5.8-0.2 5.7 3.1 10.5 4 16.1 0.8 4.6 3 9.1 4.2 13.8 0.8 3.1 0.7 3.4-2.5 3.5-2.1 0-3.2 0.4-1.6 2.7 0.7 1 0.8 2.6-0.9 2.2-2.2-0.4-3 1.3-3.5 2.3-2 4.9-6.2 7.3-10.1 10.1-1.3 0.9-2.7 2.7-4.3 0.2-0.2-0.3-0.7-0.4-0.9 0-0.9 1.6-1.9 0.5-2.8 0.1-6.2-2.8-11.7-6.7-17.4-10.4-4.4-3-8.4-6.4-12.3-10-6.2-5.8-11.8-11.9-16.7-18.8-0.9-1.3 0.1-2.9-0.9-4-2.9-3.5-4.4-7.7-6.9-11.4-0.4-0.7-0.6-1.3 0-2.1 1.1-1.4 2.1-2.9 3.1-4.4-1.1 1.1-2.2 2.2-3.4 3.4-0.4 0.5-0.7 0.4-1.1 0-0.4-0.6-0.7-1-0.1-1.7 2.5-2.7 5.5-4.9 8.3-7.3 0.3-0.3 0.8-0.6 1.1-0.1 0.4 0.6-0.1 1-0.6 1.3 1.9-1 3.4-2.3 4.4-4.2 0.6-1 1.6-1.9 2.9-2.2 2.5-0.7 3-1.6 1.2-3.5-0.7-0.7-0.6-1.6-1.1-2.2-1.8-2.8-1.8-2.7 1.4-3.7 1.1-0.4 2.9-0.3 2.5-2.4-1.5 1.3-3.5 1.4-5.3 1.9-1.2 0.3-1.6-0.4-1.9-1.4-1.5-5.3-3.1-10.5-6.5-15-4.1-5.4-8.1-10.7-13.3-15.1-1-0.8-2.3-1.3-1.4-3 0.4-0.7-0.4-1.3-1.1-0.7-1.8 1.7-3.5 1.1-4.9-0.3-1.9-1.8-3.9-0.6-5.9-0.6-0.3 0-0.6 0.3-0.4 0.6 1.3 2.2-1.2 3-1.7 4.5-0.3 0.9-1.2-0.3-1.4 0.5-0.8 4.1-4.6 5.8-7.4 7.7-3.3 2.3-6.4 5-10.1 6.8-2.5 1.2-2 2.7-1.5 5.1 0.4 1.6 1.6 2.8 1.9 4.4 0.2 1 0.6 2-0.5 2.7-2.5 1.6-3.9 4.4-6.2 6.1-4.5 3.4-7.6 7.8-10.7 12.4-1.4 2.2-2 3.7 0 6 3.1 3.7 5.4 8 8.7 11.5 7.4 7.5 15.7 14.2 23.7 21.1 2.3 2 5.5 2.9 7 5.7 0.6 1.1 1.6 1.7 2.4 2.6 2.6 2.6 6 4.1 8.6 6.5 3.8 3.7 7.9 7 12.1 10 3.9 2.8 7.5 5.9 11.6 8.2 5 2.8 9.6 6.4 15.2 8.2-6.2-4.3-13-7.8-18.8-12.8 5.6 1.9 10.3 5.5 15.6 8.2 0.1-1-0.3-1.5-0.7-1.8-3-2.1-6-4.1-9.1-6.1-0.8-0.5-1.9-0.5-2.9-1-2.2-1.1-3.2-3.1-5-4.4-1.8-1.4-3.7-2.6-5.5-3.9-0.9 1.5-0.1 2 0.9 2.4 0.9 0.3 1.7 0.6 2.5 1.1 0.4 0.2 0.9 0.8 0.6 1.3-0.3 0.7-1 0.4-1.4 0.1-1.7-1.3-4.2-1.9-4.1-4.9 0.1-1.4-2-2.2-3-2.2-1.5 0 0.9 1.3-0.4 2.1q-5.4-4.5-10.9-9.1c-1.9-1.6-4.1-2.9-5.5-4.8-3.2-4.3-7.6-7.4-10.8-11.7-0.4-0.4-0.9-1.5-1.7-0.8-1 1-1.4 0.2-2-0.3-6.3-5.4-11.5-11.9-16.9-18.1-2.8-3-4.4-7.1-8.6-8.9-1.3-0.6-1.8-1.7-0.5-3.1 1.2-1.4 2.3-3 3.2-4.7 2.4-4.1 6.3-6.5 9.6-9.7 3-2.9 6.1-5.7 9.8-7.6 3.3-1.8 5.5-1.5 8.4 0.8 2.9 2.4 5.8 4.7 8.7 7.1 0.4 0.4 1.7 0.3 1.2 1.4-0.5 1.1-1.4 0.6-2.1 0.3-2.7-1.2-5.5-1.3-8.4-1 3 0.6 6 1.4 8.9 2.5 3.1 1.1 6.4 1.7 6.9 5.9 0.1 0.7 0.9 1.3 1.2 2.1 1.3 2.4 2.5 4.8 3.9 7.1 1.1 2 0.5 5.1 3.4 6.1 0.4 0.1 0.7 1.3 0.5 2-0.2 0.6-0.4 1.2 0.1 1.6 1.9 1.3 2.4 3.5 3.5 5.3 7.1 11.9 15.6 22.7 26.1 31.7 4.6 3.9 9.5 7.4 14 11.4 5 4.2 10.7 5.6 17.1 6.1-1.8 0.4-2.4 2-3.5 3.3 2.3-0.4 4.7 0.1 6.6-1.2 1.6-1.1 3-2.5 4.5-3.7 0.7-0.6 1.3-1.9 2.2-1 1.1 1.1 1.6 0.2 2.3-0.2 0.9-0.6 1.7-1.4 2.8-1.7 2.3-0.6 3.5-2.5 5.1-4.2-0.9-0.4-1.2 0.2-1.7 0.3 0.1-0.4 0.2-0.8 0.1-1.2-0.7-2.5-0.1-3.1 2.3-2.6 1 0.2 2 0.5 3.1 0.7 1 1.1 1.7 2.3 1.8 3.9-1.6 0.4-2.6-1.7-4.4-1 2.6 2.6 6.5 1.7 9.3 4.1-4.9-0.1-9.6-0.2-14.3 1.2 0.8 1.2 1.6 1.3 2.5 1.2q6.6-0.7 13.3-0.8c1 0 2.1-0.5 2.9 0.2 3.5 2.7 7.5 4.5 11.1 7.1 0.6 0.5 1.6 1.3 1 2.3-0.6 0.8-1.5 0.1-2.3-0.2-5-1.6-10-3.4-15.2-4.6-4.5-1-9.2-1.2-13.8-1.9-0.4-0.1-0.8-0.5-0.8 0.2-0.2 1.6-1.7 1.3-2.7 2 11.2 0.5 21.9 2.7 32 7.5-2.7 0.6-5.4 0.9-8.1 0.8-7.7-0.4-15.3-0.9-22.9-2.3-0.8-0.2-1.7-0.2-2 0.9-0.8 2.7-1.7 5.4-1.2 8.9 1.4-1.9 1.7-3.8 1.9-5.5 0.2-1.9 1.5-2.7 2.6-1.8 1.5 1 4.5-1.1 4.6 2.3 0 0 0.3 0.2 0.5 0.1 2.1-0.5 4.2 0.2 6.2 0.3 2.1 0.1 3.6 0.5 5.7 2-2.5 0.5-4.5 0.8-6.5 1.2-3.9 0.7-8 0.4-11.5 2.4zm39.5-153.3c-2.1 1.4-9 2.1-12.3 1.2 3.9-0.4 7.9-0.8 12.3-1.2zm-98.2 57.8c0.2-0.8 0.4-1.5 0.7-2.5 0.8 0.7 0.3 1.8 1.1 2.3 0.4 0.2 0.8 0.6 0.4 1.1-0.5 0.6-1.2 0.3-1.8 0.2-0.6-0.2-0.5-0.6-0.4-1.1zm-15.1 13c-0.9-0.2-0.9-1.1-1.2-1.7-0.3-0.5-0.7-0.9 0.3-1.4 1.2-0.7 1.1-0.8-0.2-1.7-1.5-1-1.8-2.6-1.6-4.3 0.5-5.4-1.9-9.3-6.1-12.4-1.6-1.2-4-1.8-4.1-4.4-2.2 1.2-2.3-3.6-4.7-1.6-0.1 0.1-0.3-0.1-0.5-0.1-1.4-0.2-1.5-1.5-2-2.3-0.6 1.5-1.7 1.3-2.8 0.9-4.9-1.6-9.9-2.1-14.9-2.8-1.3-0.2-2.5-0.2-2.5-2 0-1.8 1.4-2.2 2.7-2.7 0.2-0.1 0.7 0.5 0.9 0.1 2.5-4 7.2-5.1 10.5-8 3.2-2.9 6.1-5.8 8.3-9.4 1.2-1.9 2.7-1.7 4.4-0.8 2.7 1.6 4.9 4 8.4 4.4 0.9 0.1 1.7 1.5 2.4 2.4 4.7 5.8 9.8 11.3 12.6 18.4 1.9 4.7 3.2 9.5 3.8 14.5 0.1 1.2 0.6 3.7-2.1 1.7-0.5-0.3-1.6-0.3-1.9 0-0.7 0.7-0.4 1.7 0.1 2.3 1.6 2 0.4 3-1.1 4.2-1.9 1.4-3.5 3.2-5.3 4.7-1.5 1.3-1.5 1.2-3-0.3-0.8 0.8 0.3 1.6-0.4 2.2zm-22.6-26.5c7.1 1.1 17.3 10.6 17.4 15.5-5.6-5-11.3-10.1-17.4-15.5zm101.1 81.8c-0.2 0.7-0.7 1.2-1.3 1.5-1.3 0.6-2.1 2.2-3.7 1.9-0.4-0.1-0.4-0.7-0.1-0.9 1.5-1 1.9-3.9 4.6-2.6 0.1 0.1 0.3 0.1 0.5 0.1zm10.9 1.1c-1.5-0.1-1.7-1.9-2.9-2.7-0.7-0.5-1.6-1-2.4-1.6 3.4-0.3 6.9-0.5 10.3-0.9 1.5-0.3 2.6 0.2 3.8 0.9 4.6 2.3 8.9 5 11.5 9.7 0.1 0.3 0.3 0.6 0.5 1.2-3.3-0.4-5.8-2.1-8.6-3-4-1.4-7.9-3.1-12.2-3.6z"/><path  d="m144.5 314q0.1 0.1 0.3 0.2-0.1-0.2-0.3-0.2z"/><path  d="m118.1 107.7c0 0 0-0.1 0-0.1q0 0-0.1 0 0 0 0 0.1 0 0 0.1 0z"/><path  d="m231.1 122.8q-0.1 0.2 0.1 0.6 0-0.4-0.1-0.6z"/><path  d="m55.5 225.2c5-2.4 9.1-6.1 14.1-8.5 4.7-2.3 5.2-1.1 2.9-7.2-0.8-1.9 0-2.3 1.6-2.2 2.2 0.3 4.3 0.6 6.7 0.9-1.4-2.7 0.2-5.1 1.2-7 2.9-5.7 6.6-10.9 9.9-16.3 0.5-0.7 0.8-1.5 1.8-1.6 0.8-0.1 1.4-0.6 1.4-1.4 0-3.6 3.4-5 5.1-7.4 0.6-0.8 1.8-2 2.8-2 2.9 0.2 5.5-2.5 8.6-1 2.3-3.1 4.8 3.5 7.1-0.2 0.1 0.2 0.3 0.3 0.3 0.5 0.1 1.3 0.9 0.5 1.5 0.5 2.6 0.1 4.9-1.1 7.4-1.5 2.8-0.3 5.7 0.3 8.4-0.6 0.7-0.2 1.3-0.1 1.6 0.5 0.4 0.7 0.1 1.2-0.2 1.8-2.3 4.8-5 9.4-8.9 13.2 0.7 0.7 3 0.4 1.2 2.2-0.8 0.9 0.3 0.9 0.9 1 4.2 0.2 8.4 0 12.3-1.3 4.2-1.4 8.5-2.4 12.8-3.3 0.1-0.1 0.2-0.3 0.2-0.5-0.4-0.7-1.4 0.2-1.9-0.6 2.3-3.1 3-3.2 5-0.6 0.5 0.6 1 0.9 1.8 1.3 1.7 0.8 3.2 2.2 4.6 3.5 1.2 1.1 0.9 3.2-0.5 3.2-3.1-0.2-1.2 1.2-0.8 2.2 0.9-0.4 2-2.6 2.4-1.3 0.5 1.9 1 0.5 1.2 0.2 1.3-1.6 2.5-3.3 2.5-5.5 1.1-0.2 1.4 1.9 2 1 1.3-1.8 2.1-0.2 2.8 0.2 1.3 0.7 2.3 1.8 3.6 2.5 1.8 1.1 2.9 2.7 4 4.3 0.1 0.1 0.6 4 0.6 5.1-1-2.2-2.6-3.4-3.8-4.8-0.3-0.4-0.9-0.7-1.5-0.3-0.4 0.4-0.3 1 0.1 1.3 3.5 3.1 5.7 7.8 10.6 9.4 0.5 0.1 0.9 0.3 0.7 0.9-0.5 2 1.1 2.8 2.1 4.1 1.7 2.4 4.8 2.8 6.7 4.9 0.1 0.1 0.5 0 0.7-0.1 0.3-0.2 0.5-0.6 0.2-0.9-1.6-1.6-2.3-4-4.7-5-1.4-0.6-3.5-0.7-3.2-3.4 0.4-2.2-2.4-3.3-2.6-6.1 4.3 4.2 8.4 7.8 11.6 12.3 1 1.4 1 3.3 2.7 4.3 0.6 0.3 1 1.2 1.8 0.6 0.8-0.6 1.8-1.4 1.2-2.5-1.5-2.9-0.2-5.7 0.4-8.5 0.5-2.6 1.9-5 1.8-7.9-0.1-2.8 1.2-5.7 2-8.5 0.2-0.7 0.5-2.2 1.7-1.5 1.4 0.9 3.2 0.8 4.1 2.4 0.1 0.1-0.2 0.5-0.4 0.6-1.9 1.5-2.5 3.5-3.1 5.8-0.4 1.7-1.4 3.4-2.2 5.1 1.2-0.8 2-1.9 2.7-3 1.5-2.5 2.8-5.2 4.4-7.6 1.4-1.9 1.1-2.4-1-3.4-2.6-1.2-5.6-2-6.9-5.1-0.3-0.7-0.5-0.9 0.3-1.7 1.3-1.4 4.2-2.2 3.1-5.1-0.1-0.2 0.2-1.1 0.7-0.7 1.3 1.1 1.3-0.3 1.6-0.8 1.7-2.6 3.6-5 5.8-7.2 0.2 1.6 0.7 3 0.7 4.2-0.1 1.5-2.8 0.1-3.6 1.9 1 0.3 1.6 1.3 2.5 0.6 1.8-1.5 2-1.6 2.7 0.7 0.4 1.3 2.1 2.1 1.3 3.8 1 0.3 0.8 2.4 1.8 1.8 1.2-0.7 1-0.1 0.9 0.5-0.5 2.1 1.1 3 2.3 3.7 0.8 0.4 2.5 0.5 3.2-0.5 0.6-1-0.6-1.8-1.2-2.5-0.5-0.6-1.3-0.9-1.7-1.4-2.2-3.2-4.1-6.5-4.3-10.5 0-1.1-2.9-5-3.9-5.3-8-1.8-15.8-4.1-22.4-9.5-2.1-1.8-4.2-3.6-6.5-5.4-0.4 1-0.4 2.2-1.7 2.3-0.4 0-1.1 0.3-0.7 0.8 1.1 1.2 0.2 2.2 0 3.4-0.3 1.2-0.5 2.6 1.2 3.1 0.6 0.2 0.8 0.3 0.2 0.7-1.1 0.8-0.7 1.8-0.5 2.7 0.1 0.2 0.5 0.3 0.7 0.3 1.1-0.4 1.3-1.4 1.2-2.5 0-0.1 0-0.4 0.1-0.5 1.2-1.1-0.3-3.8 0.8-3.6 1.4 0.3 0.9 2.7 0.8 4.3-0.1 1.9 1.2 2.4 2.6 3.2 0.3-1.9-2.1-2.3-1.6-2.6 2-1.3-0.1-3 0.8-4.5 1.6 1.2 3.2 2.2 4.7 3.3 1.3 0.9 3.1 2.4 3.8 2.4 4.5 0.1 7.5 2.3 9.9 6 0.3-1.4-0.2-2.5-1.5-3.7 2.4 0.4 4.3 0.4 6.2 1.4-3.9 3.6-7.3 7.5-10.6 11.4-1.5 1.7-1.9 1.3-2.9-0.3-2.7-4.6-6.1-8.6-10.5-12.5 1.7 3-1.2 1.1-1.3 2.1 0.6 1.1 1 2.6 2 3.3 2.4 1.8 2.7 3.4 1.9 6.4-1.5 5.3-6.3 9.6-11.6 8.7-0.6-0.1-1.7-0.5-1.7 0.6 0 0.9 1.1 0.8 1.8 0.9 4.3 0.3 7.5-1.8 10.3-4.9 0.7-0.9 0.3-3.4 2.9-2.3 1.1 0.4 2.8-0.8 3.9 1.3 0.4-2.1-1.9-3.1-1-5.1 1.4 2.4 3.3 4.3 2.8 7.3-0.6-0.3-1.1-0.6-1.5-0.8-0.1 0.3-0.4 0.6-0.4 0.9 0.1 0.8 0.8 0.9 1.4 1.2 1.6 0.7 3.6 1.2 1.6 3.6-0.3 0.4-0.2 0.8 0.4 1.1 1.1 0.4 1.1 0.4 0.8 1.5-1.1 4.2-4.3 7.6-3.4 12.8-1.1-1.8-0.6-3.2-1.2-4.8-1.9 4.1 2.2 8.1-0.9 11.7-0.6-0.1-0.8-0.7-1.1-1.1-2.7-3.4-5.2-7.1-8.3-10.1-6-5.8-12.2-11.6-19-16.5-3.4-2.5-6.2-5.7-9.2-8.6-1.6-1.5-4.1-1.7-5.1-3.9-0.6-1.2-1.7-2-3.1-2.2q0 0 0 0c1.2-2.4 0-5.2 1.4-7.5 0.5-0.9 0.5-1.9 0.5-3.1-0.1-3.9-0.1-8 0.7-11.9 0.5-2.1 0.9-3.3-2.1-3.8 1.4-0.5 1.9-1 1.9-2 0-1.7 1.4-1.6 2.1-1.1 1.7 1.3 3.8 1.6 5.7 2.5 6 3.1 12 6 18.6 7.6 1.4 0.3 2.6 1 4 0.9 0.5 0 1.2 0.2 1.4-0.6 0.4-1.9 0.4-2 2.5-1.8 3.7 0.3 6.9 0.1 10.1-2.6 2.4-1.9 5.3-3.3 7.8-5.4 0.4-0.3 0.9-1.1 1.6-0.6 1.3 0.9 1.6-0.5 1.5-1-0.4-2.2 1.1-1.6 2-1.3 2.1 0.6 4.4 0.7 6.2 1.5 3.3 1.5 5.8 0.1 8.3-1.5 3.8-2.4 5.8-6.3 7.7-10.2 0.2-0.5 0.9-0.9 0.2-1.4-0.5-0.4-0.9 0.1-1.4 0.4-2 1.3-4.1 2.3-6.4 1.2-1.3-0.6-2.2-1.8-3.3-2.8 1.4-0.2 2.8-0.8 3.2 0.1 0.1-1.3 2.7-0.1 3.6-0.9-0.2-0.3-0.3-0.5-0.4-0.5-0.9-0.2-2.4-0.1-2-1.6 0.4-1.3 1.5-0.1 2.3-0.1 0.4 0 1.4 0.8 1.1-0.4-0.2-0.8-0.1-1.3 0.5-1.3 0.9 0.1 1.1 0.9 1.1 1.7 0 1-1.3 1.6-0.9 2.7 1.4-0.7 2.2-1.8 2.3-3.5 2.5 1.9 5 3.5 7.3 5.3 0.4 0.3 0.7 1 1.3 0.5 0.4-0.3 0.9-1.1 0.7-1.4-1-1.8-0.3-4.8-3.3-5.3-0.5 0.9 0.5 1.6 0.5 3.1-2.5-2.8-5.5-3.9-7.9-5.7-1.3-0.9-1.5-0.8-2 0.3-0.8 1.7-1.6 1.7-2.8 0.3-0.4-0.4-0.9-1.2-1.7-0.8-0.5 1.4 1.8 1.3 1.3 2.7-0.6 1.9-3.1 0.5-4 2-0.7-0.5-1.4-1-2-1.7-0.1-0.1 0.1-0.6 0.3-0.9 0.2-0.3 0.5-0.1 0.6 0.2 0.2 0.8 0.8 1.1 1.4 0.7 0.8-0.4 0.5-1.5 0.3-2-0.9-2 0.2-2.6 2.9-2.5-1.7-0.9-2.4-1.7-1.9-2.6 0.7-1.2 1.1 1 1.9 0.3 0.6-0.6 1.3 0.6 2.4 0.1-2.1-1.5-3.7-3.1-3.4-5.5 0.2-1.8-1.6-4 1.3-5-0.9-0.8-1.5 0.6-2.1-0.1 0.3-0.9 1.5-2.1 0.9-2.5-1.6-1.1-0.4-2.5-0.7-3.6-0.3-1.3 0.7-2.8-0.2-3.6-2.4-2.4-2.4-5.7-3.6-8.5-0.1-0.3 0-1.1 0.3-1.2 3.4-1.7 0.9-3.4-0.1-4.8-1-1.4-2.3-2.5-1.7-4.5 1.6 0.9 2 2.5 3 3.6 0.7 0.8 1.2 2.3 2.5 1.3 1.1-1-0.4-1.7-0.9-2.4-1.6-2.5-4.5-4.4-3.8-8.1 0.2-0.9-0.3-1.9-0.3-2.9 0.1-1-0.4-2.3-1.8-2.3-1.9 0.2-1.9 0.3-2.2-1.7-0.1-1.1-0.8-1.8-1.4-2.6-1.4-1.9-3.5-1.1-5.1-1.9 0.3 1 0.8 1.9-0.5 2.9-1.8 1.3-1.3 3.2-0.5 5 0.9 1.8 2.4 3.2 3.9 4.5 1.1 1 1.4 2.2 1.8 3.4 0.1 0.5-0.4 1.1-0.5 1-1.3-1.6-1.9 0.7-3.1 0.4-1.3-0.4-2.3 0.1-3 1.6-0.6 1.3-2.2 0.5-3.4 0.8-0.3 0.1-1-0.2-0.9-0.7 0.6-3-1-1-1.5-0.6-2 1.4-2.2 4-4.1 5.5 1.2 0.7 2.1 0.1 3.1-0.3 3.2-1.2 6.5-0.8 9.8-0.4 2.7 0.3 4.2 1.6 3 4.6-0.1 0.3 0 0.7 0 1.1 0.4 6.6 2 13 3.4 19.5 0.1 0.7 0.5 1.5 1.7 1.7-0.7-2.4-1.6-4.5-0.3-7 0.8 1.4-0.1 2.4 0.3 3.5 2.1 5.5 1.3 10.9-0.7 16.3-0.9 2.4-3.4 3.4-4.2 5.2-0.9 2.1-0.7 4.8-2.3 6.7-3.6 4.2-7.2 8.2-11.9 11.2-3.5 2.3-7.5 3.6-11.7 3.1-4.6-0.4-9.1-1.5-13.7-2.1-4.5-0.6-7.9-4.4-12.8-4.1-1.2 0.1-2-1.6-3.4-2.1-3.3-1.3-6.3-3.1-5.8-7.5 0.1-1.1-0.9-1.7-1.8-1.6-1.1 0.1-0.7 1.1-0.6 1.8 0 0.6 0.6 1.2-0.1 2.1-1.4-1.6-1.7-3.6-2.9-5.2-1.3-1.8 0.1-3.8 1.1-5.9-2.1 1.5-2.6 0.8-3-1.2-0.6-3.1-0.6-6.3-1.7-9.3-0.4-1.2-0.2-2.3 1.7-2.8 3.1-0.7 5.9-2.2 8.3-4.7-2.3 0-1.2-2.3-2.7-2.9 1.2-0.5 1.6 0.9 2.5 0.6-1.2-2.1-1.9-4.5-4.7-4.7-0.7-0.1-1.5-0.2-2.2-0.3-0.6-0.1-1-0.6-1.2-1.1-0.3-0.9 0.7-0.6 1-0.9q3.6-4.2 7.2-8.4-0.3-0.3-0.5-0.6c-1.8 2.8-4.8 3.8-7.2 5.5-2.4 1.8-5.7 1-6.4-2-0.7-3.4-4.5-3.3-5.8-5.8q-0.2 0.1-0.4 0.2c0.2 1.2 1.8 1.9 1 3.5-1.1-0.7-2.4-0.8-2.9-2.3-0.9-2.2-1.7-1-2.8 0.4 2.2-0.3 2.4 0.1 1.2 1.7-1.3 1.5-2.6 1.4-4.1 1.1-0.4-0.1-1.2-1-1.3-0.1-0.1 2.2-1.9 4-1.8 6.2 0.2 2.3-0.2 3.4-3.1 2.2 2.1 1.7 1.8 3.5 1.1 5.5-1.8 5.2 1.2 9.2 3.6 13.3 0.2 0.4 0.8 0.9 1.2 0.9 2.4-0.2 4.6 1.1 7 0.9 0.6-0.1 2.1-0.9 2 0.8 0 2-1.6-0.3-2.3 0.8 1.1 1 1.3 2.3 1 3.8-0.1 0.5-0.3 0.9-0.9 0.9-0.3 0-0.8-0.3-0.8-0.5 0-2.9-3.3-2.9-4.3-5-0.4-1-1.6-1.2-1.7 0.6-0.4 0-1 0-1.1-0.5-0.5-2.3-2.5-3.3-3.9-5.2 0.1 2.5-1.5 2.7-3 3.1 0.3-2.1-1.4-7.3-2.5-7v2.3c-0.6-0.5-0.9-0.9-1.5-0.9 0.2 1.2 0.7 1.9 1.8 2.4 0.7 0.4 1.7 0.9 0.6 2.3-1 1.1 0.6 1.5 1.4 1.7 0.5 0.2 1.2-0.1 1.9-0.2 0.7 0 1.5 0.1 1.8 0.9 0.1 0.3 0.2 0.6 0 0.8-0.6 0.8-1.1-1-2 0.1 0.8 2.1 3.7 2.2 4.9 4.2 0.3 0.6 2.1 0.2 0.8 2-1.4 1.8-1.7 0.1-2.4-0.3-0.3-0.2-0.6-0.5-1.4-1.2 0.7 3 5.3 3.5 3.5 7-1-0.2-1.7-1.6-3.3-1.2 1.2 1.4 2.2 2.7 3.3 3.9q0 0 0 0c-0.1 1.2 1.6 1.9 0.7 3.3-1.3 0.1-0.9-2.4-2.3-1.6-0.8 0.5-1.3 1.5-0.7 2.9 0.5 1-0.6 1-1.3 0.6-1.3-0.8-2.8-1.3-3.8-2.6-0.6-0.7-1.4-1.3-2.4-1.4 0.3-0.5 0.6-1.1 1.4-1.1 0.6 0 1.3 0.3 1.5-0.6 0-0.2-0.2-0.6-0.4-0.7-0.6-0.1-1.3-0.8-1.9 0.2-0.2 0.3-0.6 0.6-1.1 0.9 0.3-4.1 0.5-4.2 3.9-2.3 1.1 0.6 1.8 0.7 2.1-0.9 0.3-2.2-0.3-3.7-2.7-4.4-0.5 2 3.1 2 1.8 4.3-1.4-1-2.7-1.7-3.6-3.5-0.6-1.4-3-2.1-4.7-2.8-1.3-0.5-2.7-0.5-3.6-1.7-0.7-0.8-1.6-0.2-2.4-0.1-0.4 0-0.8 0.2-0.8 0.8 0.1 0.6 0.6 0.6 1 0.8q3.1 1.8 6.3 3.7c2.5 1.6 0.8 3.5 0.3 5.3-0.5 2-2.1 0.9-3.2 0.9-0.6 0-1.2-0.6-1.6 0.7-0.9 2.6-2.2-0.1-3.3-0.2-1.5 0-0.9-0.8-0.1-1.4 0.9-0.9-0.1-1-0.7-1.2q-2-0.9-4-1.7c-1-0.4-2-0.9-1.9-2.3 0.1-1 0.2-1.6 1.8-1.7 1.2 0-0.4-1.6-0.2-2.6-1.5-0.2-1.9 0.9-2.4 1.8-1.2 2.6-3.2 2-4.8 1-2.9-1.9-5.2-4.4-6.7-8.2 2.2 0.9 3.2 2.4 4.8 3.9-0.4-2.3-2.1-3-3.1-4.2-0.5-0.8-2.2-1.3-0.7-2.6 1-1 2.1-2.1 3.6-0.4 0.1 0.2 0.4 0.3 0.6 0.5 0.5-0.8-1.4-1.8 0.2-2.5 1.2-0.5 2.4-1.5 3.8-0.6 1 0.7 2.1 1 2.6 2.4 0.4 0.9 1.4 1.8 3.3 2.2-1.7-2.1-3.1-3.8-4.4-5.5 0.7-0.4 1.6-0.6 2.1-1.4-4.6 0.5-8.7 2.4-12.7 4.5-1.2 0.7-1.8 2-1.7 3 0.4 3 1.5 6 3.9 7.8 1.8 1.4 3.2 3.6 5.8 3.9 0.3 0 0.7 0.3 0.6 0.7 0 3 1.2 0.4 1.9 0.4-0.4 3.1 2.6 4.2 3.9 6.2 3.3 4.8 8.8 6.1 14.3 6.9 1.2 0.1 2 0.5 2.9 1.3 5.9 5.4 12.6 7.6 20.5 4.7 3.6-1.4 7.4 0.1 9.3 3.6-1.6 0.6-3.1 1-3.4-1.5 0-0.6-1.1-1-1.1-0.6-0.2 2.5-1.9 2.8-3.8 2.9-0.2 0-0.4 0.4-0.4 0.6 0.4 2.8-0.7 5.6-0.5 8.5 0.4 4.4-1.6 7.5-4.6 8.1-1.2 0.2-2.4 0.4-3.5 0.4-7.8 0.2-15.5 0.7-23.2 1.8-5.1 0.7-10.4 1.6-14 6.3-2.2 2.8-4.9 5.4-6.7 8.6-1 1.9-2.2 3.6-3.4 5.3-3.1 4.5-6.4 8.9-9.3 13.5-1.3 2-2.5 2.9-4.8 2.7-1.5-0.2-2.5 0.4-2.3 2.1 0.1 0.8 0.4 1.6 0.7 2.4 1.2 2.8 1 4-1.7 5.5-5.2 2.8-9.9 6.5-15.3 8.8-1.3 0.5-1.7 1.4-0.9 3.4-0.3-3.2 2-2.2 3-2.6zm181.3-98.9c-1.2 1.2-0.6 3.9-3.5 3.7-0.8 0 0 1.9-1.5 2.1-1.3-4.6 2.5-4.6 5-5.8zm-19.8-65.2c-1.1-1.5-1.5-2.9 0.4-4.2 0.7 1.6-0.6 2.8-0.4 4.2zm4.7 30.7c-0.7-0.1-0.8-0.7-0.9-1.3-0.3-2.9-1.2-5.7-0.4-8.7 1.2 2.9 0.5 6.3 1.9 9.3 0.1 0.3-0.2 0.8-0.6 0.7zm7.2 35.7c0.7 0.8 1.3 1.3 1.7 2 0.3 0.6 0.4 1.5-0.2 2-0.5 0.6-1.2 0.2-1.6-0.3-0.7-0.8-2.1 0.2-2.7-1.5 1.7 0.3 2.2-0.9 2.8-2.2zm-5.6-1c1.4 0.1 2.7 0.6 3.9 0.9 0.1 0.7-0.2 1.1-0.5 0.9-1.4-1.2-3.3 1.9-4.4-0.5-0.2-0.5 0.3-1.4 1-1.3zm-4.9 6.2c0.5-0.3 1.4-0.6 1.5-0.9 0.3-3.6 1.8-1.5 3-0.7 0.9 0.5 1.7 1.2 2.6 1.5 0.9 0.4 1.1 1.1 0.9 1.8-0.3 1-1.1 0.7-1.8 0.4-1.6-0.5-3.2-0.9-4.8-1.4-0.3 1.3 1.2 0.8 1.1 1.8-0.9 0.4-1.8 0.1-2.5-0.3-0.7-0.4-2-0.1-2-1-0.2-1.4 1.3-0.8 2-1.2zm-91-27.9c-1.7-2.4-1.7-4.7 0-7.8zm-21.1 28.2c-0.4-0.4-1.2-0.8-0.9-1.5 0.4-0.9 1.1-0.3 1.6 0 3 1.8 6.7 0.6 9.9 2.9-0.4-1.2-1.8-1.4-1.1-2.3 0.8-1.1 2-1.4 3.3-0.8 0.2 0.3 0.6 0.7 0.5 0.8-2.7 3.1 0.2 3.8 2.7 5.1-6.4 1-11.6-0.2-16-4.2zm30.5 53.5c-1.1 0.9-2.2 1.6-3.7 1.1-0.4-0.1-0.4-0.5-0.3-0.9 0.4-0.8 1.5-0.9 4-0.5 0 0.1 0 0.3 0 0.3zm3.9-16.6c1-2.1 1.8-1.5 2.8 0 0.3 0.6 0.5 1.6 1.4 1.3 1-0.2 0.7-1.2 0.6-1.9-0.1-2.1 1.5-3.3 2.9-4.3 1-0.7 1.6-1.3 1.3-2.6-0.3-1-0.7-1.9-2.1-1.4-0.5 0.2-1.1-0.4-0.8-0.6 1.5-1.1 0-3.1 1.5-4.4 2.7 11.9 13.4 17.1 20.5 25.9-3.9-1.9-8.1-2.6-11.7-4.7-1-0.6-1.3-0.6-2.1-0.1-2.1 1.6-4 3.4-5.9 5.2-1.9 1.9-4.1 2.2-6.4 2.4-1.8 0.1-2.4-0.7-1.6-2.4 0.3-0.5 0.8-0.8 0.6-1.7-0.8 0.2-1.6 0.2-1.8 1.4-0.4 2-2.4 3.1-4.4 2.5-1.1-0.3-0.9-1-0.6-1.7 2-4.3 3.9-8.6 5.8-12.9zm29.1 14.8c-0.1 0.3-0.6 0.7-0.8 0.6-1.6-0.7-3.6-1-3.9-3.4 1.9 0 3 1.2 4.3 2 0.3 0.2 0.6 0.5 0.4 0.8zm-13.3-49.6c-1 5.1-2 0.4-2.9-0.2q1.4 0.1 2.9 0.2zm-2 7.6c0.2-0.5 0.8-0.6 1.1-0.1 0.9 1.4-1.8 2-0.7 3.6 0.2 0.4-0.9 0.1-1.3 0.3-0.6-0.1-1.2-0.1-1.7-0.3-0.3-0.1-0.5-0.4-0.8-0.6 0.2-0.2 0.4-0.7 0.6-0.7 1.5-0.1 2.3-0.9 2.8-2.2zm-3.2-5.6c1.1 0 1.2 0.4 0.2 2.4-0.9 0-2 0.3-1.9-1.1 0-1 0.9-1.2 1.7-1.3zm-15-25.4c-3.4-0.7-4.6-2.8-5-5.9-0.3-2.4-0.7-4.7-1.4-7-0.5-1.6-0.6-2.4 1.2-3.3 2-1.2 1.9 0.6 2.4 1.3 1.2 1.4 2.2 2.9 3.1 4.4 0.7 1.1 1.4 1 2.2 0.5q0 0 0 0c0.7-0.3 1.4-0.5 2.1-0.3 0-2.2-0.6-4.3-1.7-6.2-0.4-0.6-1.3-1.5-0.3-2.7 0.8-0.8-0.4-1.1-1.1-1-1.3 0.1-2.7 1.7-4-0.3-0.2-0.3-0.6 0.5-0.9 0.8-0.9 1-2.5 2.2-3.3 1.3-0.8-0.8-0.2-3.1 1-3.7 1.7-0.9 3.6-2.7 5.7-0.5 0.4 0.5 0.5-0.1 0.7-0.3 1.4-1.1 3-1.5 4.4-0.3 1.3 1.2 2.1 2.8 0.6 4.5-0.3 0.4-0.5 0.9-0.2 0.9 2.6 0.7 2.1 3.2 2.9 4.9 0.4 0.8 0.6 2.2 1.7 2.3 1.4 0 0.7-1.7 1.2-2.4 0.2-0.2 0.2-0.5 0.3-0.8 2.1 2.9 2.2 5.6-0.1 8.4-0.7 0.8-1.2 1.7-1.3 2.8-0.3-1.4-2.2-1.9-2.3-3.4 0.7-0.7 1.2 0.6 1.8-0.1-0.5-1-0.8-2.1-1.5-2.9-0.7-0.8-1.8-1.4-2.7-2.1-1.3-0.9-0.7 0.4-0.9 0.8 1.1 0.7 0.9 1.1-0.1 1.7-3.2 2.3-3.3 4.4-0.2 6.8 1.6 1.3 3.4 2.4 5.4 2.5 1.6 0 1.7 0.7 1.9 1.9 0.4 2 1 4.1 1.1 6.2 0 0.7 0.1 1.4-0.6 1.9-1.4 1-5-0.1-6.4-1.9-1.4-1.7-2.4-3.5 0.1-5.2 0.3-0.3 0.9-0.6 0.4-1-0.7-0.6-0.8-1.8-2-1.8-1.4 0-2.8-0.5-4.2-0.8zm-1.5-17.4c0.7-0.5 1.1-0.3 1.6 0.4 1.4 2.1 2.5 4.3 2.5 6.9-1.9-1.8-2.6-4.3-4.3-6.2-0.4-0.4-0.2-0.8 0.2-1.1zm11.7 15.1q0 0 0 0 0 0 0 0c0.3-0.1 0.5-0.2 0.7-0.1 0.4 0.3 0.3 0.6-0.1 0.8-1.7 0.7-6.6-2-6.9-3.8-0.1-0.9-0.1-1.7 0.9-2.1 1.2-0.4 1.2 0.6 1.4 1.2 0.9 1.8 2.1 3.1 3.9 4q0 0 0 0 0 0 0.1 0zm-14.9 18.5c-0.1 1.1-0.4 2.2-0.6 3.4-0.7-0.3-1-1.2-1.8-1.3 1.2-0.8-0.3-1.8-0.1-2.7 0.6-0.3 1.3 1.3 1.9-0.1 0.2-0.4 0.8-0.1 0.6 0.7zm2.9 14.4c2-0.3 3.5-0.4 5.3 0.6-2 1-3.4 0.7-5.3-0.6zm0.5-4.6c0.8-0.5 0.5-2.1 1.4-2.1 1 0 1.5 1.1 1.7 1.7-0.1 1.7-1.1 2.2-2.1 2.2-1.2 0.1-0.4-1.3-1-1.8zm11-2c-0.9 1.6-2.2 3.1-4.1 2.7-2.4-0.5-4.9-2.2-5.2-4.4-0.4-2.1-1.8-4.3-0.5-6.8 1.1 0.9 2.2 1.9 3.4 2.7 1.2 0.7 1.8 2.4 4 2.1-2.7-1.7-4.8-3.5-6.6-5.7-0.6-0.8-1.3-1.5-1.8-2.4-0.7-1.1-0.7-2.2-2.5-2.9-1.2-0.5-2.3-3-2.5-5.1 1.9 0.8 3.3 2.4 4.5 3.8 1.3 1.6 2.8 3.3 4.5 4.1 2.5 1.2 5.4 1.4 8.2 1.9 0.7 0.2 0.5-1.2 1.6-1.1-0.6 2 0.6 3.4 1.5 5 1 1.8-1.3 4.9-3.5 5-0.8 0.1-0.7 0.7-1 1.1zm2.8 6.7c1.6-0.4 1.9-1.8 2.7-2.8 1.7 0.5 1.7 2.1 1 3-0.8 1.2-2.3 1-3.7-0.3zm2.9 8.9c1.7-0.4 3.9-2.1 5-0.7 1.3 1.6 0.9 4.2 0.3 6.3-0.9 2.9-1.7 5.8-0.1 8.8 0.2 0.3 0 0.9 0 1.5-1.5-1.9-2.9-3.8-4.2-6-0.9-1.5-1.6-3-1.3-4.8 0.3-1.7-0.1-3-2.6-3.4 1.3-0.8 2-1.6 2.9-1.7zm-7.9 10.6c1.6-0.9 0.7-1.9 0.1-2.9 1-0.4 1.9 0.2 1.7 0.8-0.6 1.2 0.4 3.1-0.9 3.5-1.1 0.4-0.7 2.6-1.8 1.6-0.8-0.7-0.4-2.3 0.9-3zm6.3 22.2c1.3-2.3 2.9-3.6 4.8-5q-0.2 2.4-4.8 5zm-72.6 21.1c0.8-1.7 1.5-3.4 3.4-5-0.1 2.4-1 4.1-1.8 5.8-0.3 0.5-0.8 0.8-1.4 0.6-0.7-0.3-0.5-0.9-0.2-1.4z"/><path  d="m103.1 119.6q0 0 0 0.1 0 0 0 0v-0.1z"/><path  d="m214.7 55.1q0 0-0.1 0c-1.5 0.2-2.3-1.2-3.5-1.8-0.5-0.3-1.1-1-1.6-0.2-0.4 0.7 0.3 1.1 0.8 1.5 1.4 0.8 2.8 1.4 4.3 0.5q0 0 0.1 0h-0.1z"/><path  d="m366.3 268.5c1-1.2 0.8-1.9-0.9-2.1-1.8-0.3-3.5-0.1-5.3 0.4-4.1 1.2-7.9 4-12.5 2.9-0.3 0-0.8 0.4-1.1 0.7-3.8 3.4-8.6 3.6-12.6 0.4-0.3-0.2-0.7-0.7-0.6-0.8 0.8-1.6-0.1-0.9-1-1-3.1-0.2-6.4-3.6-7.5-6.5-1.4-3.7-1.5-7.5-2-11.2-0.9-6.2-0.4-7 5.4-9.9 1.7-0.9 3.6-1.4 5.2-2.4 3.4-1.9 6.9-4 6.8-9-2.2 3.8-2.3 3.6-6.2 5.5-4.6 2.2-9.1 4.9-12.1 9.2-0.8 1.1-1.7 1.6-3 2 0.1-1.2-0.8-2.2 0-3.3 1-1.4 0.9-1.5-0.4-2.8-0.9 0.3-0.4 1.9-1.2 1.6-1.1-0.4-1.2-0.4-0.9 0.8q1.6 7.8 2.3 15.8c0.1 0.7 0.2 1.5 0.8 2 2.7 2.9 4 6.9 8 8.6 0.5 0.2 1.5 0.6 0.5 1.6-2.6 2.3-8.2 2.6-10.9 0.6-0.7-0.5-1.5-2.2-2.6-1-1.1 1.1 0.6 1.7 1.1 2.6 0 0.1-0.1 0.3-0.1 0.6-1.7 0.4-3.3 0.9-4.6-0.9-0.3-0.4-0.7-0.6-1.2-0.4-0.4 0.1-0.6 0.5-0.5 0.9 0.7 4.1 2.9 8.2 6.2 9.7 4.1 1.9 8.1 4.4 12.7 5.4 5 1.1 5 1.4 7.2 5.8-5.6-1.3-10.5-4.5-15.9-6.3-6.3-2.2-13-3.5-16.6-10.1q-0.2-0.2-0.4-0.4c-0.8-0.6-1.2-1-0.3-2.1 0.5-0.6 1-2.1 0.2-2.8-1.2-1-1.1 1.4-2.1 1.3-1.5-1.8-3.1-3.4-4.4-5.2-2.5-3.3-6.2-6-4.8-11 0.5-1.5-1.3-1-2.2-1.4 1.6-1.7 1.3-4.2 3.7-5.2 6.5-2.6 12.4-6 17.2-11.3 2-2.2 4-3.7 7.3-3.2 2.5 0.5 4.8-0.2 6.9-1.8 5.3-4 11.4-6.6 16.1-11.4 0.1-0.1 0.5-0.1 0.7-0.1 0.4 1.1-0.1 2.4 0.6 3.5 1.1-1 0.6-2.3 1-3.4 0.3-0.7 0.8-1.6-0.2-2.1-0.9-0.5-1.6 0.1-2.2 0.7-3.7 4.2-8.9 6.3-13.4 9.4-3.3 2.2-6.6 4.2-11.1 3.2-3.5-0.6-6.7 0.8-9.2 4.1-2.7 3.6-5.6 7.4-10.3 9-1.8 0.6-3.5 1.7-5 2.9-1.9 1.6-3.6 3.3-4.4 5.9-0.8 2.8-2.6 5.3-4.7 7.6-2-4.7-3.9-9.1-5.7-13.4-1.1-2.3-1.8-4.6-1.4-7.2 0.2-1.4-0.3-2.8-1.7-3-3.9-0.5-4.7-3.9-5.9-6.4-2.6-5.6-4.3-11.5-6.7-17.2-1.8-4.4-2.3-9.3-5.2-13.4-0.8-1-1-2.6-0.6-3.9 0.5-1.6 0-2.8-1.1-3.8 0.7-0.3 1.6 1.5 1.7-0.7 0.2-2.6 0-5.2 0.3-7.7 0.3-2.6 0.5-5.4-1.7-7.3-2.6-2.3-5-4.6-8.3-5.9-1.9-0.8-4-1.3-5.6-2.7-0.3-0.3-0.4-1.5-1.3-0.4-0.8 0.8 0 1.1 0.5 1.4 3.4 1.9 6.2 4.7 9.5 6.8 2.3 1.5 3.4 3.2 3.1 6.1-0.2 2.3 0.1 4.7 0.1 7 0 2.4 0.6 5-0.2 7.1-1 2.7-0.5 5.1 0 7.7 0.5 2.3 2.3 4.5 2.2 6.6-0.1 2.9 0.5 5.4 1.5 8 0.5-2.1-1.3-4.4 0.2-6.8 0.3 0.6 0.4 0.9 0.5 1.1 1.6 2.4 1 5.6 2.8 7.9 2.2 3 3.6 6.6 5.7 9.7 1.2 1.8 3 4.6 1.6 7-2 3.3 0.4 2.5 2 2.6 1.9 0.2 4.5 3.2 4.3 5.1-0.4 3.4-2 4.7-5.5 5.2-2.1 0.2-3-0.2-2.5-2.4 0.7-3 0-5.2-2.7-7-3.7-2.5-7-5.6-10.4-8.4-0.8-0.7-2-1.3-1.7-2.6 0.3-1.3-0.5-2-1.1-2.9q-4-5.7-7.9-11.5c-1 0.1 0.4 2-1.1 1.9-0.4-0.3-0.2-0.7-0.1-1 0.7-1.8-0.7-4.3 1.6-5.7-2-3.6 1.1-2.1 2.5-2.4 0.4-0.1 0.9 0 1.1-0.7-0.3-1.2-1.8-0.2-2.2-1.3 0.5-0.2 1-0.4 1.7-0.6q-3.9-1.4-3.3-3.9c-1-0.5-0.7 1.3-1.7 1.1-0.6-1.8 0.9-2.8 1.7-4.4-2.1 0.7-3.1 2.1-3.3 3.7-0.3 1.6-1 2.1-2.4 2-5.9-0.2-11.8 0.5-17.7 1.1-2.1 0.2-4.4 0.1-6.7 1.9 2 0.2 3.4 0.2 4.9 0 6.4-0.8 12.7-1.4 19.1-0.1 0.8 0.2 1.7 0.1 2.1 1.1 1 2.5 1.1 5.2 0.8 7.9-0.2 1.3-0.7 2.1-2 2.6-5.6 2.2-11.2 4.1-17.4 4-0.9-0.1-2.2 0-2.7 1.2 0.1 0.2 0.2 0.4 0.4 0.5q0.6 0.1 1.3 0.1c5.8 0 11.3-1.2 16.7-3.1 1.2-0.4 2.3-1.3 2.8 0.8 0.1 0.5 1 0.9 1.5 1.1 1.4 0.4 2 1.2 2 2.8 0.1 2.1 1.4 3.7 2.7 5.2 1.1-0.7 0.1-2 1.5-2.7-0.1 2.6-1 4.7-2.3 6.8-1.1 1.7-2.3 2.4-4.5 1.9-4-0.9-8.1-1.4-12.1-2.1-1.3-0.2-2.6-0.4-3.8 0.1-1.5 0.6-2.6 2.3-4-0.9-1.3-2.9-3.3-5.7-5-8.5-1-1.6-0.5-1.9 1-2.4-1.8-0.8-2.8 0.2-3.4 1.1-0.7 0.8 0.3 1.7 0.8 2.3 1 1.3 1.8 2.7 2.3 4.6-2.5-1.5-2.5-4.5-4.6-6-0.5 1.3 0.4 2 0.9 2.8 3.7 6.2 7.6 12.3 10.1 19.1 1.8 4.9 3.4 9.8 5.9 14.5 0.3 0.7 0.5 1.5 2.1 1.4-2.9-3.8-4-8-5.1-12.1 2.7 3.1 3.5 7.2 5.1 10.8 0.6 1.2 1 2.4 2.6 2.6 5.6 0.8 11.2 0.9 16.8-0.2-3.8 0.3-7.6-0.7-11.5-0.4-3.8 0.2-7.1-1.9-8.3-5.6-2.1-6.3-5.6-11.7-8.6-17.5-0.5-0.8-1.5-1.8-0.7-2.7 0.8-0.8 2.1-0.7 3.3-0.4 2.9 0.7 5.8 1.7 8.7 2 2.2 0.2 4.7 1 7.7-0.1-4.6-1.4-8.7-1.1-12.4-2.8 3.9-0.1 7.6 0.8 11.3 1.6 0.5 0.1 1 0.3 1.1 0.8 0.4 1.2 0.9 0.7 1.8 0.5 3.1-0.6 4.7-2.8 6.4-5 0.5-0.6 0.7-1.2 1.7-0.8 2.3 0.9 3.1 4 6 3.9 0 0 0 0.3 0.1 0.4 0.3 1.6 0.2 1.7 1.7 2 0.9 0.3 1.5 0.6 1.7 1.6 0.4 2.1 1.5 3.2 3.9 2.2 0.7-0.3 1.3 0.2 1.5 0.9 0.3 0.9-0.3 0.9-1.1 1.1-0.7 0.1-2 0.6-1.1 1.5 2 1.7 1.1 3.7 1 5.6 0 0.2 0.2 0.6-0.2 0.5q-0.5-1-0.9-1.9c-0.1 0-0.2 0.1-0.5 0.3 1.5 2.9 0.7 5.8-0.2 8.8-1.6 5.2-4.2 9.9-6.4 14.8-1 2.2-1.6 5-5.3 2.3 2.7 2.4 1.6 3.8-0.4 5.3-1.7 1.3-3.4 6.6-2.8 8.5 1.6 5.2 3.4 10.4 5 15.7 0.8 2.5 1.4 5.1 2.2 7.6 0.5 1.6-0.9 3.3-0.1 4.6 2 3.4 2.4 7.3 3.6 10.9 1.6 4.9 2.8 9.8 4.3 14.7 1.5 5.2 3.1 10.4 4 15.8 0.5 2.6 0.8 5.3 2.5 7.5 0.4 0.4 0.9 0.9 1 1.5 1 0.4 1.9 1.1 2.5 1.8 2.3-2.1 4.3-4.5 6-7.2 0 0-0.1-0.1-0.2-0.4-1.9 1.2-2.4 4-5.2 4.4 0.6-3.3-2.1-5.9-1.8-9.1 1.2 0 0.5 1.7 1.7 1.4-1.2-3.4-2.9-6.6-3.4-10-0.5-4.3-0.7-8.6-1.6-12.7-0.6-2.9-0.7-5.8-1.5-8.6-0.7 5.1 0.5 10.2 0.9 15.3-1.9-2.7-2-5.9-2-9.7-0.4 1-0.4 1.4-0.7 1.6-0.3 0.2-0.4-0.2-0.4-0.4q-0.1-0.8-0.1-1.6c0.3-2.8 0-3.9-1.5-6.3-0.3-0.5 0.1-1.1 0-1.6 0-0.7-0.4-1.4-0.4-2.1 0.1-1.9 0.9 1.1 1.1-0.1 0.2-1.3-0.1-2.6-1.1-3.2-1.2-0.7-0.8-1.1-0.2-1.8 0.5-0.5 1.3-0.6 1.4-1.5-1.4 0.3-1.7-0.4-1.8-1.6-0.2-1.8-0.3-3.7-0.9-5.4-0.5-1.1-1.2-2.5-0.5-3.2 0.7-0.6 2.2 0.1 3.3 0.4 3.6 1.1 7.1 1 10.7-0.4 4.6-1.8 8.2-5 12.1-7.8 1-0.8 1.2-0.8 2.7-0.5 0.2 0.1 0.4 0 0.5-0.1 0.9-2 3.5-2.8 4-5.1 0.5-2.9 2.1-5.2 4-7.3 0.9-1 2-1.2 1.6-3.2-0.3-1.5 1.2-3.4 1.9-5.1 0.3-0.8 0.6-1.5 1.1-2.2 0.2-0.5 0.7-1 1.2-0.4 1.8 2.1 4 3.7 5.4 6.1 0.6 0.8 1.5 1.4 2.4 1.7 9.2 3.5 18.2 7.2 27.7 9.7 0.9 0.2 2 0.5 2.6-0.3 1.2-1.8 0.2-3.9 0.7-5.9 0.2-1.1-1.4-0.5-1.9-0.9-0.8-0.7-2.1-0.8-2.4-2.4 1.1 0.4 2.4-1.2 3 0.9 0.1 0.4 0.9 0.7 1.1 0.2 0.7-1.8 2.1-0.9 3.2-0.9 1.5 0 2.9-0.2 4.2-0.9 2.3-1.2 4.7-2.3 7.1-3.1 3.5-1.2 6.3-3.6 9.2-5.8 1.4-1.1 1.8-2.3-0.5-2.8-1.6-0.3-1.2-1-0.5-1.8 1.5-1.7 3-3.3 4.4-4.9zm-55.7-31.3q-2.9 2.9-5.7 5.9c1.3-2.5 3-4.7 5.7-5.9zm-71-13.3c-0.2-0.1-0.2-0.7 0.1-0.9 0.6-0.3 1.2-0.2 1.5 0.3 0.8 1.2 2 2.3 2.2 4.3-1.9-1-2-3.2-3.8-3.7zm21.6 43.9c-0.5-1.6 1.9-2.5 1.8-4.3-0.1-0.9 0.7-1.9 0.4-2.7-0.8-3.1 1.1-3.8 3.5-4.3q1.2-0.2 2.4-0.5c3.8-0.8 5.1 0.2 5.6 4.2 0.1 0.4 0.1 0.9 0.8 1.2 0.7-1.2-0.3-2.5 0.4-3.8 1 1.1 1.5 2.4 1.8 3.7 0.1 0.5 0.2 0.9-0.3 1.2-1.7 1.1-2 2.6-0.5 4 0.8 0.9 0.8 1.4 0.2 2-0.7 0.6-1.4 0.1-1.8-0.6-1.2-1.5-2.6-1.3-4.2-0.8-3.9 1-7.2 3.3-11.2 4.4 1.2-1.1 1.4-2.1 1.1-3.7zm-13.9 21c0.6-0.9 1.6-1.7 2.6-2.1 0.7-0.3 0.9 1 0.8 1.4-0.2 1.1-1 1.6-2.1 1.7-0.7-0.1-1.6-0.5-1.3-1zm3.2 9.4c-0.7-1.5-1.4-2.9-2-4.4-0.3-0.7-0.4-1.5 0.4-1.9 0.5-0.3 1.1-0.5 1.5-0.3 0.9 0.3 0.2 1.1 0.3 1.6q0.1 2.4 0.3 4.8-0.2 0.1-0.5 0.2zm4.3 18.5q-1.7-5.4-3.4-10.8c-0.3-0.8-0.8-1.6 0.6-1.9 1.4-0.4 1.2 0.5 1.3 1.3 0.5 4.8 2.3 9.3 3.1 14.5-1.3-1.1-1.3-2.1-1.6-3.1zm41.3-35.8c-2 0.6-2 2.3-2.6 3.7-1.1 2.4-1.1 5.5-4.6 6 0 0-0.2 0.1-0.2 0.1 0.5 3.9-4.7 3.2-5.3 6.5-0.2 1-1.8 1.2-2.9 1.7-4.3 2.2-7.6 5.5-10.6 9.2-1.5 1.9-4.6 1.2-6.1-0.7-1.1-1.5-3.1-2.4-4.7-3.5-1.1-0.9-2.4-1.7-3.5-2.5-0.4-0.3-0.7-0.7-1-1.1-1.8-2.8-3.1-6.1-2.5-9.1 0.4-2.2 1.4-4.7 2.7-6.8 1-1.6 2.2-3 2.7-5.8-2 2-2.4 4.1-3.7 5.7-0.3 0.4-0.4 1.4-1.3 0.9-0.9-0.4-0.5-1.2-0.2-1.6 1-1.7 1.8-4.3 3.2-4.9 3-1.1 4.3-3.9 6.8-5.4 2.8-1.6 5.9-2.6 8.7-4 1.2-0.6 2.3-0.3 2.6 1 0.4 1.4-0.8 1.9-1.9 2.2-0.6 0.1-1.3 0-1.9 0-0.4 0.1-0.8 0.1-0.9 0.5q-0.7 2.6-2.3 4.5c0.4 0.4 0.8 0.3 1.2 0 0.4-0.3 0.6-0.8 1-1 0.8-0.4 1.3-1.4 2.6-0.5 2 1.4 0.1-1.4 1.3-1.4 1 0 2.1-1 2.8-0.8 1.6 0.5 2.7 0.5 4.2-0.5 1.4-0.8 1.6-1.4 0.3-3.1 3.3 1.1 3.8-0.7 4.1-2.8 0.2-1.3 0.6-2.4 2.3-1.9 1.1 0.3 0.7-0.5 0.7-0.9 0.1-1.8 1.6-1 2.5-1.4 1.2-0.6 0.8 0.7 1.1 1.2 2.2 3.6 4.4 7.1 6.6 10.7 0.9 1.4 0.4 5.3-1.2 5.8zm-23.6 26.3c1.1-2.1 2.7-3.9 5.2-5.2-1 2.8-3.2 3.9-5.2 5.2zm-16.8-4.2c2.8 1.1 4.2 3 6.2 4.5-2.8 0.6-4.7-0.7-6.2-4.5zm103.2-34.6c0.7-0.3 1.5-0.6 2.3-0.2-5.7 2.3-11.3 5.1-18.3 5.7 5.5-2.6 11.1-3.2 16-5.5zm-23.2 6.8c-4.6 2.7-9.3 3.2-13.6-0.6 6.3-4.3 9.8-4.2 13.6 0.6zm-6.1 10.1c-0.1 0.3-1 0.3-1.3 0.1-4-2.4-9-3-12.6-6.3-0.9-0.9-2.4-1.7-1.6-3.3 0.4-0.8 4.8-0.9 5.5-0.1 3.9 4.6 8.6 4 13.5 2.2 4.9-1.8 10-2.3 15.8-2.8-1.5 2.1-3.4 2.6-5 3.1-2.3 0.8-4.1 2.6-6.6 2.7-0.3 0-0.6 0.2-0.7 0.4-1.4 3-5.4 1.5-7 4.1zm5.3-0.1c5-1.3 9.3-4 14-6.1 1.1-0.5 2.1-0.4 3.3-0.3 2.8 0.3 5.6-0.1 8.6-1.4-3.3 3.8-15.4 9.4-25.9 7.8zm26.3-13c-1.4 1.5-2.7 2.7-5 2.2-1-0.3-2.2 0.5-3.4 0.7-0.6 0.1-1.5 0.8-1.8-0.3-0.3-0.9 0.2-1.5 1.1-1.9 2.2-0.8 4.4-1.6 6.6-2.4 0.2 1.2-1.3 1.3-1.1 3.3 1.4-2.4 3.8-3.1 3.6-5.7q0.1 0 0.1 0c0.9-1.2 2.2-0.8 2.9-0.1 1 1-0.5 1.4-1 2.1-0.5 0.8-1.3 1.4-2 2.1z"/><path  d="m111.7 39.9c0.7 2 1.4 4.6 3.5 6 1.3 0.9 3.1 0.6 4.3 2 0.2 0.4 0.7 0.6 0.7 1.2 0 0.5-0.4 0.7-0.9 0.9-0.6 0.2-0.9-0.1-1.3-0.6-0.6-0.6-0.3-1.8-2-1.9 1.1 2.1 2.3 3.9 2 6.1 0.7-0.8 0.5-1.8 1.4-2.4 1.6-1.1 2.6-0.7 3 1.3 0.1 0.7 0.1 1.7 1.1 1.5 0.9-0.2 0.7-1.1 0.7-1.8-0.1-0.6-0.8-1.4 0.4-1.5 0.6 0 1.2 0.6 1.3 1.2 0.2 0.6-0.1 1.3 0.1 1.9 0.3 1.4 0.4 2.8 1.1 4.4 1.5 2.8 4.3 4.4 5.4 7.3 0.7 1.7 1.6 2.9 3.7 2.8-1.7 2.7-1.5 3.6 0.5 5.5 0.5 0.4 1.2 1.1 1.2 1.7 0.3 2.8 3 4.2 4.5 5.7 2.2 2.1 3.2 5 5.8 7-0.7-1.5 3.3-2.5 0.5-3.5-2.5-1-3.2-3.4-5.3-4.5-0.7-0.4-1.1-1-0.6-1.8 0.2-0.5 0.4-0.9 1-0.8 0.7 0 1.1 0.6 1.2 1.2 0.1 1.9 1.3 2 2.7 2.4 2.3 0.5 5 0.4 5.7 3.5 0.1 0.4 0.3 0.7 0.4 1-0.2-3.6 4.2-3.6 4.3-6.5 0-0.3 0.8-0.1 1 0.4 0.1 0.4 0.2 0.7 0.7 0.2 2.3-2.4 5.6-1.5 8.4-2.2 4.3-1 8.7-0.7 13.1-0.8 2.2-0.1 4.3-0.8 6.5-2.4-2.3-0.4-4 0.7-5.7 0 0.6-0.6 2-0.7 1.4-1.8-0.6-1.1-1.4 0.2-2 0.2-1.7 0-3.2 0.4-4.8 0.5-1.1 1.3-2.6 1.5-4.1 1.9-3.2 0.7-6.1-1-9.2-0.5h0.1q0-0.3-0.1-0.5 0 0.2 0 0.5c-0.5 0-1-0.9-1.3 0.2-0.5 1.7-1.9 1.9-3.4 1.9-1.3-1.9-4.1-1.3-5.5-3.1-1 1.6 0.1 2.5 0.9 3.6 0.5 0.6 0.5 1.8 1.6 1.4 1.2-0.5-0.2-1.5 0.1-2.3 1 0.2 1.9 0.3 2.9 0.4-2.8 4.1-6.5 4.6-9.6 1-1.9-2.2-4.4-3.6-6.4-5.6-0.6-0.6-1.5-0.4-1.7 0.1-0.6 1.5 0.8 0.1 1 0.6 0.7 1.3 1.1 2.7 0.2 4.1-1.1 1.8-1.9-0.7-3.1-0.3 1.9-1.2 1.6-3.1 0.7-4-1.6-1.9-1.2-3.8-0.9-5.7-2.6 1.2-5.1-0.1-5.5-2.8-0.3-1.8-0.1-3.4 0.5-5-0.6 0-2 0.3-1.4-0.3 1.9-1.6-0.5-2.3-0.3-3.4 0.6-0.2 1.2-0.1 1.8 0.2 0.9 0.7 1.7 0.3 1.6-0.8-0.3-1.8 0.8-3.2 1.6-4.6-1.9-0.7-4.8 0.3-4.1-3.4 0.2-0.8-0.7-1.8-2-2-0.3 1.2 1.7 1.4 0.8 2.9-1-1.2-3-0.8-3.4-2.8-0.1-0.2-1.3-1.5-2.5-1.3-0.2 0-0.5 0.4-0.4 0.5 0.3 0.9 1.1 1.2 1.8 1.5 0.1 0.1 0 0.3 0 0.8-1.1-0.3-2.8-1.6-2.7 1.3-0.4-2.2-1.1-3.9-2-5.5-0.5 0.3 0.2 1.4-0.9 1.6-0.4-1.8-0.2-4.4-2.4-4.6-2.3-0.1-2.6-2.6-4.5-2.9-0.3 0-0.4-1 0.5-1 0.5-0.1 1.2 0.4 1.6-0.2-1.5-1.8-2.9-3.6-4.4-5.4 5.7 3.2 10.5 7.2 13.9 12.8 1.1-1.9-0.9-2.7-1.4-4.3 3 0.8 2.2 5.6 6.1 4.9-0.1-0.4-0.2-0.8-0.4-1-3.1-2.3-3.7-3.7-3.4-6.7 0.3-1.8 0.3-3.7-1.2-5.1-3.4-3.2-5.4-7.2-7.1-11.3-0.5-1.1-0.6-2.2 0.3-2.8 1.7-1.3 0.8-2.8 0.7-4.3 0-0.5-0.6-1.2-1.1-0.8-1.7 1.5-5.5 0.6-5.4 4.4 0 0.3-0.3 0.7-0.6 0.9-2.3 1.3-1.7 3.2-0.7 4.9 0.8 1.4 0.3 3.1 1.3 4.4 0.2 0.4 0.2 0.7-0.1 1-0.5 0.4-1-0.2-1.1-0.2-1.5 0.4-1.2-2.3-3.2-1.6-4.4 1.3-5.4 3.6-2.7 7.3 1.2 1.6 2.8 3 1.3 5.2 1.6 0.2 3-0.1 3.9 2.4zm25.9 30.4c0.2 1.5 1.2 2.7 1.7 4.2-2.1-0.4-1.8-2.9-3.6-3.4-0.3 0-0.1-0.7 0.3-0.9 0.5-0.2 1.4-0.8 1.6 0zm-9.9-22.6c0.4 1.4 2.3-1 2.6 1.1 0.1 0.3 2 1.6 3.1 2 1.7 0.5 1.5 1.6 1.6 2.8 0.2 2-1.3 0.1-1.8 0.8-0.2 0.4-0.7 0.8-1 1.1-2.1-0.6-2.9-2.7-4.6-3.8-1.3-0.8 0.6-2.6 0.1-3.9zm-10.5-23.8c0.3 0 0.3-1 0.9-0.7 0.9 0.4 0.4 1.1 0.2 1.7-0.4 1.1 0.5 1.8 1.1 2.6 0.3 0.4 0.2 1.9-0.1 3.4-0.9-0.7-0.3-1.3-0.3-1.9 0-0.5-0.3-1.2-0.6-1-3.6 1.4-1.1-2.1-2.2-2.8-0.7-0.4 0.2-1.1 1-1.3z"/><path  d="m138.9 66.9c0 0 0 0.1 0 0.1q0 0 0.1 0h-0.1 0.1q0 0 0-0.1-0.1 0-0.1 0z"/><path  d="m140.6 278.4c2 0.1 3.5 0.9 4.8-0.9 0.2 0.7 0.4 1 0.4 1.4 0.2 2.3 1.1 2.3 3.2 1.5 5.9-2.1 11.8-3.9 17.8-5.7 5.5-1.6 11.2-2.3 16.9-3 2.2-0.3 4.4-1 6.7-1.3 3.5-0.4 4.1-1.2 3-4.9-0.7-2.2-1.3-4.6-1.6-6.9q-1-8.1-5.6-14.9c-0.4-0.7-0.9-1.6-1.9-1.2-1.3 0.6 0 1.3 0.1 2 0.1 0.6 0.2 1.3 0.4 1.9 1.2 2.3 0.9 5.4 3.1 7.3 1 0.9 1 2 1.5 3 0.8 1.8-0.1 3.9 1.2 5.4 1.2 1.4 0.8 3.3 1.6 4.8 0.7 1.2-0.3 2-1.8 2.2-4.6 0.5-9.3 0.6-13.8 1.8-7.7 2.1-15.6 3.8-23 6.6-0.3 0.1-1 0.1-1 0-0.6-2-1.9-1.1-2.8-0.6-1.5 1-2.3 0.5-2.6-1.1-0.2-0.8-0.4-1.5-0.6-2.2-2.2-8.4-3.7-17.2-7.2-25.3-0.8-1.9 0-2 1.6-1.7 8.6 1.4 17.4 2.1 25.9 4.3 2.2 0.6 3.9 0.1 5.9-1.5 2.7-2.1 4.8-5.8 9.1-5.4 0.6 0.1 0.5-0.4 0.4-0.7-0.2-1.2 0.7-1.5 1.5-1.9 1.5-0.8 1.9-1.9 1.3-3.5-1.1-3-1.8-6.2-3.3-8.9-1.1-2-2.3-4.5-5.6-4.3-1.4 0.2-2.4 0.9-3.5 1.4-4.1 1.4-8.3 1.3-12.4 2.4-7.6 2-15.3 2.6-23.2 1.7-0.8-0.1-2.1-0.8-2.4 0.4-0.3 1.2 1.1 1.5 1.9 2.1 0.2 0.2 0.8 0.2 1.3 0.1 6.4-1.2 12.9-1 19.3-2.4 6.1-1.4 12.3-2.6 18.5-4 2.3-0.6 3.2 1.1 3.1 2.6-0.4 3.4 0.8 5.6 3.3 7.6 1.9 1.4 1.4 3.1-0.4 4.3-3.4 2.1-6.7 4.4-9.7 7-1.5 1.3-2.9 1.7-4.7 1.1-4.1-1.3-8.4-1.7-12.6-2.3-4.5-0.7-9.1-0.8-13.6-1.4-2.1-0.2-4-0.7-4-3.5 0-0.7-0.6-1.4-2.1-2.1 1.7 2.5 1.4 4.8 2.7 6.7 0.3 0.5 1 1.4 0.1 1.9-1 0.6-0.9-0.7-1.2-1.2-1-1.4-1.7-2.9-2.9-4-0.7-0.8-1.2-2.9-2.2-2.2-1.4 1 0.3 2.3 0.9 3.2 2.1 3.3 4.3 6.5 6.5 9.7 0.6 0.8 0.5 1.6-0.2 2.6-1.9-1.7-1.9-4.2-3.5-5.9 0.9 2.3 0.4 5.6 3.3 6.5 2.9 1 2.2 3 2.7 5-1.2 0-0.4-1.4-1.3-1.2-0.8 1.5 0 2.1 1.1 2.7 0.5 0.2 1.4 0.2 0.9 1.2-1.4 2.8 0.4 5.2 1.4 7.4 1.9 4.1 1.8 4.9-2.7 6.3z"/><path  d="m173 1.7q0 0 0.1 0 0-0.1 0-0.1z"/><path  d="m189.6 24.2c0 0 0-0.1 0-0.1q0 0-0.1 0c0 0 0.1 0.1 0.1 0.1z"/><path  d="m145.1 21.3c-2-2-2.2-4.1-2.6-6.1-0.3-1.4-0.3-2.4 1.2-2.8 1.2-0.3 2.3-1 3.6 0.5 1.3 1.5 2.1 3.5 4.1 4.5 1.2-1.4-0.2-2.9 0-4.3 1 0.3 1.5 1.1 1.3 1.7-0.8 2.4 0.4 4.5 0.7 6.8 0.1 0.5 0 0.8 0.6 0.9 0.5 0 1-0.1 0.9-0.7-0.3-1.1 0.4-2.5-0.9-3.3-0.6-0.4-0.7-0.8-0.3-1.4 0.9-1.4 0.8-3.3 1.4-4.9 0.7-2.1 2.2-2.5 3.6-3.2 1.6-0.7 0.9 1.8 2.1 2-0.6-2.7-0.2-3.6 2.4-4.5 1.3-0.5 2.8-0.8 4.2-1.2 1.6-0.6 3 0.2 4.5 0.7 1.6 0.6-0.1 1.8 0.3 2.6 0.2 0.4 0.2 0.9 1 1.1 0.2-1-0.2-2.3 1.1-2.7 1.7-0.5 1.1 1.3 1.7 1.9 0.1 0.1 0.3 0.2 0.5 0.3 3.9 1.6 6.2 5.2 9.3 7.9 2 1.7 5.5 3.1 3.8 7 1.4 0.1 1.9 1.5 2.8 2.4 0.8-4.1 0.2-7.4-4.1-9.3 3 0.3 5.1 0.9 5.2 4.5 0 1.4 0.7 3 1 5 0.6-1.2 0-2.3 1-2.6 1-0.3 0.8 1.4 2 1.4 0.3-1.9 0.7-3.8 1.1-6 1.3 1.9 2.5 3.4 3.6 5-0.3-1.8-1.3-3.4-2.1-4.9-1-1.8 0.2-2.7 0.6-4 0.2-0.6 0.9-0.5 1.1 0 0.9 2.4 2.9 4.2 4.2 6.3 0.2 0.4-0.4 1.2 0.6 1 0.3-0.1 0.8-0.3 0.9-0.5 0.3-0.5-0.2-0.9-0.5-1.1-2.7-2.3-2.9-6-5.1-8.6-0.3-0.3-0.4-1-0.5-1.5-0.2-0.5-0.3-1 0.3-1.1 0.4-0.1 1.2 0 1.2 0.2 0.7 2.3 3.6 3.4 3.4 6.1 0.9-3.3-2.7-5.2-2.5-8.6 1.8 0.9 4-0.9 5.4 0.8 1.9 2.2 3.4 4.8 5.2 7.3 0.5-1.4 0-2.2-0.9-3.2-1.3-1.6-3.1-3.1-2.1-5.6 0 0 0.1 0 0.1 0q-0.1 0-0.1 0c-0.6-0.6-0.8-2-1.9-1.5-2.4 1.2-5 0.8-7.5 0.9-0.7 0.1-1.7 0-1.7 1 0.2 2.8-1.8 4.5-3.1 6.5-0.5-1-1.1-2-1.7-3.1-0.2-0.4-0.3-1.1-1.1-0.7-0.7 0.4-0.6 1.1-0.2 1.7 0.4 0.6 1.2 0.9 1.3 1.7 0.1 1.2 1.8 2.4 0.4 3.7-1.4 1.2-2-0.2-2.7-1.1-0.1-0.1-0.2-0.1-0.3-0.1-4 0.8-5.8-1.9-7.4-5.4 0.4 2.8-0.9 2-1.6 1.2-2.9-3.2-7.3-5-9.3-9.2-0.3-0.7-0.8-1.2-1.6-1.1-0.3 0.9 1.1 1.4 0.6 2.6-2.3-0.7-4.7-1.8-7-0.3-0.4-1.3 2.1-0.8 0.8-1.9-0.7-0.5-2.8-0.9-3.1 0.5-0.5 2.4-2.4 2.4-3.9 3.1-0.6 0.3-1.3 0.7-1.8-0.1-0.5-0.9 0.3-1.3 0.8-1.7 0.4-0.3 1.1-0.1 0.9-1.1-3.9 2.1-7.8 4-11.4 7.1 0.9-0.1 1.3 0 1.7-0.1 0.7-0.2 1.4-1.1 1.9-0.2 0.5 0.9-0.7 1.1-1.2 1.6-0.5 0.5-1 0.6-1.9 0.3-2.6-0.9-4.7-2.2-5.7-5.5-0.6 1.6-0.2 2.4 0.3 3.3 0.4 0.7 0.7 1.5-0.3 2.1-1.1 0.4-1.5-0.5-2-1.1-0.4-0.5 0-1.6-1.6-1.4 0.7 2.1 1.5 4.2 1.5 6.4 0 3.2 0.8 4.7 3.5 6z"/><path  d="m107.3 109.6c1.8 1.2 2.5 3.5 4.9 4q-2.7-2.9-5.3-5.9c-0.6-0.6-1.8-1.1-0.9-2.1 0.9-0.8 1.8-0.3 2.7 0.5 1.4 1.5 3 2.9 4.5 4.3 0.9 0.8 1.9 1.3 3.5 0.5-2.6-0.9-3.3-2.3-1.8-4.5-1.3 1.4-2.4 0.7-3.4-0.4-0.9-1-0.9-1.2 0.2-2.5 0.4-0.6 0-0.8-0.2-1.1-0.5-0.5-1.1-1.3-1.6-1.4-1.2 0 0 0.7-0.2 1.1-0.3 1-1.1 0.6-1.7 0.2-1-0.7-1.8-1.8-3.3-1-0.3 0.1-1.1-0.2-1.2-0.5-0.4-1.4-0.8-2.8-2.4-3.5-0.1 0 0.2-1 0.3-1.7 2 0.2 3.8 0.7 4.5 2.9 0.3 1.1 1.1 1.5 2.1 1.2 1.4-0.4 2.5 0 3.4 1.1 1.7 2.2 3.9 3.7 6.9 4.2-0.6 1.5-1.9 0.9-2.9 1l2.6 1.6c0.6-0.9 1-1.9 1.7-2.7 0.6-0.6 0.5-1.1 0.1-1.6-0.4-0.5-0.8-0.3-1.4 0-1.8 0.8-3 0.3-3-1.9 0-0.4-0.1-0.9-0.3-1.1-2-1.6 0-1.6 1.1-1.9-1.5-0.9-3.5 0-4.2-2.1 2.6-0.8 1.9-1.8 0.4-3.3-1.2-1.2-2-2.8-2.9-4.3-1.4-2.3-3.1-3-5.6-2.3-0.3 0.1-0.9-0.1-1.3-0.3-1.2-0.9-2.5-1.9-3.7-2.9 0.6-0.7 1.2 0.4 1.6-0.3 0.2-0.4-0.1-0.9-0.4-1.2-1-1-2.2 0.5-3.3-0.3-0.2-0.2-0.3 0.4-0.2 0.8 0.7 2.1-0.7 1.4-1.5 1-0.8-0.3-1.5-0.9-2.2-1.3 0.8-1.4 2.7-1.2 3.4-2.7-2.2 1.6-4.8 0.7-7.2 1.5-2.1 0.8-4.4 0.6-3.7-2.9 0-0.2-0.3-0.4-0.4-0.6-0.6 0.2-0.9 0.6-0.9 1-0.3 2.7 2.3 4.9 5.9 5.2-0.5 1.2-0.6 2.2 0.7 3.2 1.5 1.3 2.6 3.1 3.8 4.6 0.2 0.3 0.3 0.6 0.5 0.9-2.6-0.3-1.4 2.4-2.6 3.4-2.8 2.6-4.1 6.3-5.6 9.9 2.8-2.2 5.8-3.8 9.3-3.8 3.5 0 6.7 1.3 10 2.6-1.2 1.3-3 0.3-3.9 1.7 2.6-0.1 3.4 2.5 5.1 3.7zm-2.5-22.1c0.2 0 0.3 0 0.4 0 1.5 0.9 3.3 1.6 3.7 3.6 0 0.3-0.3 0.7-0.5 0.8-0.4 0.2-4.6-3-4.7-3.4-0.2-1 0.6-0.9 1.1-1zm-14.7-4.1q0 0 0 0 0 0 0-0.1c-0.5-0.3-1.1-0.6-0.6-1.1 0.4-0.5 1.3-0.6 1.8-0.2 0.7 0.5 1.4 1.3 1.7 2.1 0.8 2 2.1 3.7 3.6 5.3 0.3 0.4 1 0.7 0.4 1.3-0.5 0.5-1.1 0.1-1.4-0.3q-2.8-3.5-5.5-7zm7.3 16.9c-1.8 0.1-0.2-1.8-0.8-2.6-0.6-0.8-1.8-0.3-2.5-1.7-0.1 1.9 0.8 2.7 1.4 3.7-1.9 0.9-3.5 2.4-5.8 2.2 1.1-1.1 0.3-4 3.2-3.5 0.6 0.1 0.2-0.7 0.1-1-0.2-1.4 0.4-2.7 1.6-2.8 1.3-0.2 2.2 1.3 3 2.3 0.1 0.2 0.1 0.6-0.1 0.8-1.1 0.8 1.1 2.5-0.1 2.6zm2.3-5.1c-1.1-1.9-0.7 1-1.5 0.4 0-0.5 0-1.2 0-1.8-0.1-0.6-0.3-1.3 0.6-1.5 0.7-0.2 1.4-0.1 2 0.5 0.4 0.5 0.2 1.7 1.3 1.3 1-0.4-0.4-1.5 0.4-2.1q1.7 1.2 2.5 3.1c-1.5-1.3-2.6-0.6-3.6 0.4-0.5-0.2-1.2 0.6-1.7-0.3z"/><path  d="m102.2 105.9c0 0-0.1 0-0.1 0q-0.1 0.1-0.1 0.1 0.1 0 0.1 0 0.1 0 0.1-0.1z"/><path  d="m164.2 67.4c-2.3 1.1-4.6 1.7-7.1 1.2-1.7-0.3-2.4-1.4-2.3-2.9 0.1-1.4 1.1-1.6 2.3-0.6 0.5 0.4 0.6-0.5 0.7-0.8 0.2-1.2 1.2-1.4 2.2-1.9 2-1 4 0.6 6 0.2 0.5-0.1 1.1 1.1 1.5 0 0.4-0.8-0.2-1.4-1-1.6-3-0.8-5.9-1.4-8.6 0.8-0.5 0.4-1 1.1-1.6 0.5-0.6-0.7 0.2-1.3 0.6-1.6 2-1.5 4.2-2.6 6.9-1.8 1.6 0.5 3.2 1.1 4.9 1.7 0.6 0.2 1.3 0.5 1.6-0.3 0.3-0.7-0.2-1.2-0.8-1.6-1-0.6-2.1-1.1-3-1.8-1.5-0.9-2.6-5-1.6-5 1.7-0.2 1.7-1.3 2-2.8 0.7 1 0.2 2.3 1.3 2.3 2.4 0.1 4 1.9 6 2.8 3.5 1.6 4.1 2.8 3.2 6.2-0.2 1-0.6 2.1 0.3 2.8 0.8 0.7 1.7-0.1 2.5-0.4 0.5-0.2 1.2-0.3 1.4-1.1-0.4 0-0.7 0-0.9 0.1-0.8 0.2-1.5 1-2.3 0.4-0.5-0.4 0-1 0.1-1.5 0.4-1.3 1.2-1.3 2.4-1.1 0.7 0.2 1.6 0.5 2.4-0.3-1.1-1.2-2.1-2.5-1.8-4.1 0.2-0.7 0.7 0.8 1.4 0.5-1.2-1.7 0.5-4.4-2.3-5.3-0.5 1.5 0.6 3.1-0.1 4.8-0.5-1.4-3.1-1.8-2.1-3 2.4-2.8 0-4-1.3-5.6-0.7-0.9-1.3-1.7-0.7-2.8 1.1 0.1 0.1 1.5 1.2 1.6 0.2-1 0.6-2-0.8-2.5-0.9-0.3-1.9-0.1-2.1 0.8-0.5 1.9 0.3 3.5 2.1 4.4-0.9 1.1-1.6 0.8-2.4 0-0.4-0.4-0.9-1-1.5-1.2-3.4-1-9.7 2.1-11.1 5.5-0.6 1.4-1.1 1.4-2-0.3-0.1 1.7 0.3 2.6 1.4 3.2 0.5 0.2 1.1 0.4 0.9 1.1-0.2 0.7-0.9 0.5-1.4 0.5-2.8 0.2-5 2.2-6.6 3.7-1.5 1.3-2 2.2-3.9 1.3-0.3-0.1-1 0.1-1 0.7 0 0.2 0.2 0.6 0.4 0.6 2.7 0.3 1 2.2 0.8 2.9-0.6 1.5-1.8 0.4-2.8 0.1 0.5 0.4 0.9 0.9 1.4 1.3 1.9 1.6 2.9 1.3 3.6-1.2 0 1.4 1 3-0.8 3.5-2.5 0.8-3.7-0.3-4.3-3.4q-0.8 2.5-1.5 4.9c0.9-0.1 1.9-0.4 2.5 0.4 0.9 1.2 1.3 1 2.5 0.1 1.1-0.9 2.2 0.2 2.2 1.8 1.3-1.5 2.8-2.4 4.8-2 1.1 0.2 1.7 0 2.2-1.1 0.1-0.4 0.5-1.1 1.2-0.7 0.6 0.4 0.7 1 0.3 1.7-0.4 0.6-1 1.2-1.5 2.2 1.7-1.2 3-1.7 3.2 0.6 0.3-2.8 1-5.4 3.3-7.7-1.4-0.1-1.9 0.6-2.5 0.8z"/><path  d="m249.6 97.5c4.2 1.1 7.5-0.4 10.5-3.1 0.9-0.9 2-1.1 3.2-0.4 1 0.5 2-0.2 1.6-0.9-0.4-1-0.4-2.8-2.4-2.8 0.4 1.2 1.1 2.7-1 1.8-1.2-0.4-1.2 0.3-1.8 0.8-0.8 0.9-1.6 1.7-2.5 2.4-1.1 0.8-2.3 1.4-3.2-0.2-0.4-0.6-0.9-0.9-1.5-1-0.7 0.7 0.7 1.2 0.1 1.7-0.5 0.5-1.3 0.3-1.7-0.1-1.5-1.4-3.4-0.4-5.2-1.2 0.7 1.2 1 2.2 0.1 2.9-1.7 1.4-1.7 2.9-0.5 4.5 1.6 2.3 1.9 5.4 4.3 7.3-4.5-1.3-8.5-4.5-13.4-2.6 0.8 0.7 0.3 3.7 3.3 2.2 0.5 0.6-0.9 1.7-0.2 1.8 2 0.1 1.6 1.7 2 2.7 0.4 0.7 0.9 0.7 1.6 0.4 0.8-0.4 1.4-1.3 0.8-1.7-1.2-0.9-0.6-2.6-1.9-3.5 3.9 3.3 8.9 2.8 13.2 4.6 2.9 1.2 5.1-0.1 4.8-2.5-0.4-3.3-1.4-6.4-2.7-9.4-0.6-1.3-1.2-2-2.1-0.2-0.6 1-1.4 2.1-2.8 0.8-0.8-0.8-0.4 0.1-0.6 0.3-1 1-2 0.8-3.1 0.1-1.5-0.9-1.9-2.1-1.5-3.7 0.4-1.6 2-1.2 2.6-1.1zm9.2 13.2c-0.3 2-0.7-0.4-1.1-0.1-2.4 1.6-3.3-0.6-4.7-1.7 1.7-0.5 3 0.7 4.7 0.1 1.1-0.4 1.2 1 1.1 1.7zm-3-6.2c1.3-0.3 1.3 1.5 1.8 2.3 0 1.1-0.6 1.4-1.2 1-1.2-0.7-3.4-0.6-3.4-2.4 0-1.8 1.9-0.7 2.8-0.9z"/><path  d="m202.7 56.1c1-3.3 4.2-4.6 4.6-8.1-1.2 1.1-2.5 1.8-2.9 2.8-1.3 3.2-2.4 1-3.6 0.1-0.6 0.7 0.6 2.1-0.7 2.3-0.9 0.2-1.9-1.1-1.8-1.3 1-2.9-2.9-3.3-2.9-5.7 0-1-0.9 0.1-1.4-0.3-0.5-0.4-0.8 0.1-0.7 0.6 0.1 0.6 0.5 1.2 0 1.9-1.3-2.4-3.1-3.8-6-4.2-1.7-0.2-4-1.1-4.8-3.4-0.2-0.4-0.2-1-0.8-0.8-0.4 0.1-0.9 0.3-1.2 0.6-0.3 0.5 0.1 0.9 0.5 1.1 1.4 0.8 1.8 1.9 1.3 3.5-0.2 0.7 0.3 1.5 0.7 2.3 1.8 3.7 5.5 7.2 1.7 12 3.8-3 4.2-4.6 2.6-8.6q-0.5-1.1-0.9-2.3c-0.2-0.8 0.1-1.5 0.9-1.8 0.7-0.3 1.5-0.3 1.9 0.5 1 1.9 2.8 3.2 3.9 4.9 0.7 1 1.8 2.3 0.9 4.1-0.9 1.7-1.9 1.5-3.3 1.2-0.6-0.2-1.5 0-1.4 0.9 0.1 0.6 0.3 1.1 1.1 1.5 1.9 1 2.7-1 4.2-1 3.8-0.1 4.4-0.9 4.1-4.6 4 1.1 1.2 3.6 0.5 6.4 3.2-3.1 5.4-6 9.1-6.9-2.3-0.7-3.7 0.8-5.6 2.3z"/><path  d="m257.6 66.3c-1.3 0.5-3.1 0.6-4.3-0.9-1.8-2.3-2.2-5.1-3.1-7.7-2 0.8-2.2 1-1 2.7 1.1 1.4 0.6 2.8 1 4.2 0.3 1.2-0.4 3.6 2.2 2.5 1.1 3-2.1 5.2-1.9 8.6 1.4-3.7 2.4-1.7 3.5-0.2 0.3 0.5 0.7 0.9 1.3 1.7 0.4-1.2 1.8-1.3 1.7-2.9-1.5 1.6-2.7 0.6-3.5-0.4-1.3-1.7 0.2-2.6 1.4-3.5 0.5 0.9 0.7 2 1.8 2.2 0.9 0.2 2.5-0.3 2 1.3-0.5 1.7-0.7 4.3-2.6 4.4-4.7 0.2-9.1-0.9-12.8-4.2-1.2-1.1-2.4-3.6-4.7-1.8 1.6 3.7 5.2 5.6 7.3 8.8 1.7-2.5 1.6-2.4 4.9-1.8 4.6 0.8 9.3 1.5 13.5-1.6 2.2-1.7 4.4-3.7 6.6-5.5 0.1-0.1-0.1-0.3-0.1-0.5-1.4 0.3-2.2 1.6-3.5 2-1.9 0.6-1.2-2.1-2.9-2.4 0.3 1.8 1.9 3.6 0 4.9-1.9 1.3-1.9-1.8-3.4-1.9-0.5 0.9 0.7 1.8 0.2 2.8-2.2-0.2-2.7-1.1-1.6-2.9 1.1-1.6 1.5-3.5 2.4-5.3 1.1-2.1-0.1-2.2-1.4-2.3 0.6-0.6 0.6-2.3 2.2-1.3 0.5 0.2 1.1-0.2 1-0.6-0.4-1.7 0.7-2.8 1.1-4.2 0.3-0.8 0-1.6-0.7-1.8-1-0.2-0.8 0.7-0.9 1.3-0.5 3.4-2.8 5.2-5.7 6.3zm2.5 4.8c-0.3 1-1.2 0.5-1.7-0.2-0.9-1.2-2.1-1.9-3.6-2.8 1.9-1 3.8-1 5.6-1.4 1.5 1.5 0.3 3-0.3 4.4z"/><path  d="m94.4 41.7c0 0 0 0-0.1 0q0 0 0 0h0.1z"/><path  d="m88.6 60.1c1.4-0.7 1.3 0.3 1.1 1.1-0.5 1.6 0.5 2.2 1.6 3 2.7 1.9 6 1.9 8.9 3.4 1 0.5 1.3-0.5 1.8-1.1q0.1 0 0.1 0 0-0.1 0-0.1l-0.1 0.1c-0.1-1 0.7-2.3-0.8-3-0.2 0.9 0.7 1.9-0.3 2.5-1 0.6-1.9 0-2.7-0.6 1.7-1.7 2.1-3.7-0.4-4.9-2.1-0.9-3.6-1.4-2.2-4 0.1-0.3-0.2-1.3-0.6-1.4-1.5-0.6-1.6-2.1-2.3-3.2-3-4.2-2.6-7.3 1.6-10.2 1.2-2 2-0.8 2.7 0.4 0.6 1.1 1 2.6 3 2.2-3.9-4.4-3.6-5.7 1.3-7.2 1.5-0.5 2.4-0.5 3.3 1.2 0.8 1.4 1.8 2.7 2.3 4.3 0.2 0.5 0.2 1.2 1.1 1.3 2.3 0.1 3.8 1.7 4.7 3.5 1 2 2.5 3.4 4.4 4.6q-4.7-7.2-9.5-14.5l0.1 0.1q0.1 0 0.1 0-0.1 0-0.1 0c-0.6-1.9-2.2-1.9-3.7-1.7-7.1 0.6-12 4.9-15.3 10.6-2.1 3.7-1.7 8.5-0.7 12.9 0.1 0.3 0.5 0.8 0.6 0.7zm1.1-8.9c1.1 0.2 2.7 1.8 2.4 3-0.3 1.6 0.1 1.8 1.3 1.8 1 0 0.7 0.6 0.8 1.3 0.1 1.6-1.2 4 2.6 3.8 1.9 0 1.6 2.6 1.3 4.3-0.3-0.3-0.8-0.6-0.9-0.8 0-0.8 0.4-1.7-0.5-2-1-0.3-0.2 1.1-0.8 1.3-0.6 0.3-1.2 0.2-1.6-0.1-0.3-0.3-0.4-1-0.7-1.1-4.4-1.4-3-6-4.6-8.8-0.3-0.6-0.4-2.8 0.7-2.7z"/><path  d="m200.8 127.8c1.6 0 3.5-0.1 4.3-2.1 0.2-0.4 0.7-1 1.1-1.1 0.9 0 0 1.3 0.9 1.5q0.4-2.8-2.4-2.6c-0.5 0.1-1 0.1-1.2-0.4-0.1-0.3 0.2-0.7 0.2-1 0.1-0.7 1.4-0.3 1-1.3-2.1-1.4-4.5-0.8-6.7-0.9-3.6-0.2-7 0.5-10.7 0.2-4.5-0.4-9.1 0.8-13.7 0.4-0.7-0.1-1.1 0.3-1.2 0.9 0 0.6 0.4 0.9 0.8 1 1.2 0.1 2.4 0.1 3.6 0.2 0.5 0 1.2-0.5 1.4 0.2 1 3.2 3.3 1.3 4.5 0.8 2.4-1 5-1.3 7.2-0.8 1.8 0.4 4.8 0.4 5.4 3.5 0.1 0.6 1.5 0.6 1.5 0.1-0.2-1.5 2-3 0.1-4.7 1 0.3 2.3-0.4 2.1 1.5-0.1 0.9-1.4 3.5 1.6 3.3 0.1 0-1.3 1.3 0.2 1.3z"/><path  d="m226.3 17.6c0.3 0.6 0.6 1.9 0.4 2-2.8 1.5 0.3 2.3 0.4 3.4 0.1 2.2 1.7 1.6 2.7 0.9 1-0.9 1.4-0.9 1.7 0.4 0.2 0.6 0.5 1 1.3 1.2-1.1-2.7 1.5-2.1 2.5-3 1.4-1.4 2.3 0 3.2 1.1 0.7-1.1-0.9-2.4 0.6-3 0.6-0.3 0.2 0.9 0.9 1.1 0.5-0.6-0.4-1.8 0.9-2 2.6-0.4 2.9-1 2.8-3.5-0.1-0.9 0-1.8 0-2.7 0-0.4-0.2-1 0.3-1.2 0.7-0.3 0.8 0.4 1.1 0.8 1.8 2 2.6 4.6 4.1 6.7 0.4 0.7 1.1 1.3 1.7 0.7 0.7-0.6-0.2-1.1-0.5-1.6-2.3-3-4.5-6.1-3.3-10.3 0.3-0.9 0.1-2 0.1-3-0.3 1.8-0.6 3.6-1.3 5.6-1.1-0.8-1.3-1.7-1.7-2.5-0.4-0.7-0.2-2.1-1.6-1.8-1.4 0.4-1.1 1.7-0.7 2.5 1.2 2.5-1.2 4.7-0.3 7.2 0 0.1-0.3 0.4-0.5 0.6-2.4 2.1-4.9 4.1-8.1 4.8-1.8 0.4-2.9 0.2-3.8-1.9-1-2.4-1.1-4.8-1.4-7.5-1.8 1.5-2.3 3-1.5 5z"/><path  d="m170.2 94.5c1.5-0.1 3.1-0.2 4.5-0.7 1.5-0.5 2.1-1.9 1.9-3.3-0.2-1.6-1.5-0.4-2.4-0.7-0.7-0.2-1.6 0.7-2.2-0.6 2.4-1.5 5-1.3 7.6-1.7 0.9-0.2 2.1-0.2 1.8-1.5-0.2-1.1-1.3-0.9-2.3-0.8-1.1 0.1-2.3 0.4-3.5 0.5-5.1 0.5-10.6 0.3-14.7 4.3-1.1 1-3.6 1.9-2.5 3.6 1.1 1.9 2.8-0.3 4.2-0.8 0.5-0.2 0.8-0.7 1.3-1 1.7-1 3.3-2.2 5.5-2.4-0.1 1.3-0.2 2.5-0.2 3.6-0.1 0.7-0.2 1.6 1 1.5z"/><path  d="m201.5 77.9c-0.8-0.3-1.3 0.2-1.6 1-0.2 0.7-1 1-1.1 1.8-0.2 2.5-1.3 4.5-3 6.3-0.8 1-0.8 2.1 0 3 0.6 0.8 1 1.7 1.5 2.5 1.8 2.8 3.8 5.5 7.7 7.2-2.9-2.9-2.6-3.9 1.3-5.1-2-0.1-2-2.1-2.9-2.3-3-0.8-2.9-0.7-3.3-3.9-0.4-3.1 1.6-5.7 1.6-8.6 0-0.7 0.9-1.5-0.2-1.9z"/><path  d="m248 34.3q0.1 0 0.1 0l-0.1-0.1c0 0 0 0.1 0 0.1z"/><path  d="m246.2 34c-1 1.4-3 1.5-3.4-0.2-0.4-1.5-1.6-1.7-2.4-2.6 0.6 2.2 1.7 4.1 3.7 5.2-0.9 1.2-2.7-1.2-2.6 0.7 0.2 1.8-1.1 1.7-1.6 1.7-1.6 0-3.8 1.6-4.5 0-1.2-2.7-3.1-1.7-5.4-2 1.4 2 4.2 2.7 3.1 5.3 0 0.1 0.4 0.6 0.5 0.6 1.8-0.6 3.4 1.5 5.2 0.6 0-0.7-1.8-1.1-0.7-1.9 1.5-1.1 3.6-1.1 5.4-2.7-0.3 1-0.5 1.5-0.7 2.5 1.3-1.2 2.3-0.5 3.4-0.4 0.4 0 1 0.8 1.4 0 0.2-0.6 0-1.1-0.6-1.3-0.6-0.2-1.1-0.5-0.8-1.2 0.4-0.6 1 0 1.5 0 1.7 0.1 3.4 1.2 5.4 0.4-0.5-0.1-0.8-0.2-1.1-0.3-3.9-1.1-4-1.2-4-4.1-0.7 0.9-1-1.4-1.8-0.3z"/><path  d="m202.4 106.9c-0.3 0.5-0.9 0.6-1.5 0.6-2.1-0.2-4.5 0.5-6.3-1.7-0.4-0.5-2.4-0.5-3.1 0-1.9 1.4-3.1 0.7-4.3-0.8-0.4-0.4-0.8-0.7-1.4-0.5-0.5 0.1-0.8 0.5-0.7 1 0.3 1.8 1.7 2.7 2.8 3.9 0.9 0.8 1.8 0.3 2.8-0.3 1.3-0.9 2.5-0.9 4.1-0.1 2.1 0.9 4.4 1.8 6.8 1.5 2.8-0.4 6.6-4.6 7.3-7.9-2.7 1-5.3 1.6-6.5 4.3z"/><path  d="m209.8 87.1c0.2 1.5 1 2 2.3 2.2 1.4 0.2 2-0.9 2.7-1.8 0.6-0.7 0.3-1.9 1.5-2.2 0.7-0.2 1.5-0.4 1.3-1.4-0.3-1-1.3-1.1-2.2-1.1-2.7 0.2-5.4 0.7-8.1 0.4-0.7-0.1-1.6-0.1-1.7 0.5-0.5 2.2-2.5 3.5-3.1 5.5 2.9 1.1 4.4-0.3 5.6-2.5 0.7-1.1 1.6-1 1.7 0.4z"/><path  d="m156.3 237.5c-1.5 0.9-1.5 2-1.1 3.3 0.6 1.5 1.2 3 3.1 3.1 0.9 0 1.8-0.2 2.7 0.3 1.8 1.1 1.7 0.7 3.4 0.1 2.3-0.8 3.4-2.5 4.5-4.3 1.1 0.5-0.2 1.7 1 2.1 1-1.5 0.5-3.2 0.4-6.2-1.1 4-1.9 1.7-2.5 1.2-1.9-1.3-4.3-2.5-6.1-1.2-1.4 1.1-2.8 3.3-2.3 5.7 0.1 0.5 0.4 1.1-0.3 1.4-0.6 0.2-1-0.3-1.5-0.6-1.9-1.2-0.9-3.1-1.3-4.9zm5.4 0.8c1.2-0.6 0.5 1.2 1.4 1.1 1-0.7-0.2-2.5 1.4-2.4 1.1 0.1 2.1 1.1 2.5 2.4 0.4 1.5-0.3 2.6-1.3 3.5-0.9 0.8-1.8 0.2-2.4-0.5-0.7-0.7-1.2-1.6-1.8-2.4-0.4-0.6-0.4-1.3 0.3-1.7z"/><path  d="m105.2 69.6c2.5 1.9 2.3 4.3-0.5 5.6-1.1 0.5-2.2 1-3.2 1.5-0.8 0.4-1.4 1-0.5 1.7 0.5 0.4 0.3 2.2 1.3 1.4 1.9-1.2 2.8-0.5 3.3 1.6 0.5-1 0.4-1.8 0-2.2-1.7-2-1.2-3.1 1-4.3 1-0.6 2.8-1.5 2.6-2.7-0.4-2.4-2.7-3.8-4.1-5.6-0.8-1.1-2 0-3-0.1 0.4 1.6 1.9 2.2 3.1 3.1z"/><path  d="m186.6 24c-2.2-0.5-2.1 1.1-1.5 2 2.5 3.4 4.4 7.3 7.6 10.4 0.8-1.1 0.9-1.8 0.1-3-2.1-2.7-3.9-5.5-3.3-9.2-1 0-2 0.1-2.9-0.2z"/><path  d="m189.6 24.2l-0.1-0.1q0 0 0 0.1 0 0 0.1 0z"/><path  d="m84.6 257.9c6.6-3.1 13.2-5.9 20.6-7.1 2.2-0.4 4.6-0.7 6.7-1.7-3 0.1-5.8 0.7-8.7 1.1-8.4 1.2-15.7 5.5-23.4 8.7 1.8 0.8 3.3-0.3 4.8-1z"/><path  d="m79.7 258.9q0 0 0 0 0 0 0 0z"/><path  d="m239.7 233.8c0.1-2.7-1.6-4.6-4.3-4.5-1.7 0.1-3.6 0.5-3.8 2.7-0.3 2 3.3 6.4 4.9 6.4 2.3 0 3.2-1.3 3.2-4.6zm-5.9-1.4c-0.3-1.4 0.7-1.8 1.8-1.7 2.1 0 2.3 1.7 2.7 3-0.3 1.5-0.6 3.2-2.1 2.9-2-0.3-2-2.5-2.4-4.2z"/><path  d="m248.7 40.7c2 2.4 5.3 2.7 7.9 4.4 1.4 1 3.4 1.7 4.1 3.1 0.7 1.6-1.6 2-2.5 3.1-0.5 0.6-0.8 1.2-1.7 1.3-0.6 0.1-1.1 0.4-0.5 1.1 0.4 0.5 0.8 0.9 1.5 0.1 1.3-1.5 2.9-2.9 4.2-4.5 0.7-0.8 0.8-1.7-0.3-2.6-3.4-2.7-7.5-4.3-11.3-6.4-0.4-0.2-1.1-0.3-1.4 0.4z"/><path  d="m133 25c1.3-0.9 1.9-0.3 2.5 0.8 0.5 0.8 1.1 1.5 2 2.8-0.2-2-0.7-3-1.4-4-0.3-0.6-0.7-1.5-0.4-1.8 2.3-1.9 0.7-3.2-0.6-4.7-0.4-0.5-0.5-1.5-1.5-0.9-1.2 0.6 0 1.1 0.3 1.7 1.6 3.1 1.7 3.2-1.9 5.5-1.3 0.9-1.5 1.9-1 3 0.8 1.5 1.9 3.1 3.9 4.3-0.4-1.8-1.4-2.7-2.2-3.8-0.8-0.9-1.3-1.9 0.2-2.9z"/><path  d="m305 260.6c1.6 0.4 1.3 1.7 1.7 2.8 0.5 1.5 1.1 3 1.6 4.6 0.2 0.6 0.7 1 1.2 0.7 0.7-0.3 0.2-0.9 0-1.3-0.5-1.1-1.2-2.1-1.6-3.2-1.5-4.1-3.1-8.1-3.7-12.4-0.2-1.1-1-0.9-1.7-1.2-1.1 0.3-0.8 1-0.3 1.6 1.6 2 2.6 4.2 2.2 7-0.1 0.4 0.3 1.3 0.6 1.4z"/><path  d="m227.6 6.5c-0.4-1.2-1.2-0.8-1.9-0.8-2.8-0.3-5.6 0.7-8.6-0.4-1-0.4-4.2-0.5-5.6 1.8 5.4 0.3 10.8 0.3 16.2-0.6z"/><path  d="m82.7 78.9c0-1 0.2-2 0.6-2.9 1.1-2.6 3.2-3.4 5.6-1.9 1.2 0.8 2.3 0.4 3.4 0.3 0.2 0 0.5-0.3 0.6-0.5 0.1-0.4-0.3-0.7-0.6-0.7-2.4-0.4-4.7-1.2-7.1-0.5-3.3 1-5.1 6.5-2.7 9.3 0.1-1.3 0.2-2.2 0.2-3.1z"/><path  d="m225.5 52.3c-0.1-1.1-1.8-1.8-2.9-1.2-1.5 0.9 0 1.7 0.4 2.4 1.4 2.5 4.1 4 5.1 7.1 0.5-1.1 0.4-1.9 0.4-2.6 0.1-2.6-2.8-3.3-3-5.7z"/><path  d="m82.2 85c-0.3 3.3 3.3 4.3 4 7.2 0.4 1.6 4.9 1.9 6.3 0.8-5.1-0.6-6.1-1.7-9.1-10.5-1 0.6-1.1 1.4-1.2 2.5z"/><path  d="m212.2 51.7c0.4 1 1.2 2 2.3 2.5 0.6 0.3 1.3 0.4 1.5-0.5-0.1-0.2-0.1-0.4-0.2-0.5-2.5-2.5-3.5-5.6-4.1-8.9-0.2-0.7-1.1-0.9-1.5-0.1-0.4 0.7-0.9 1.7-0.2 2.5 1.1 1.5 1.6 3.3 2.2 5z"/><path  d="m229.2 46.3c2.3 1.7 3.5 5.6 2.3 8.4 1.4-0.8 2.5-1 3.9-0.1-2.9-4.3-3.7-9.2-6.6-13 0 1.2 0.4 2.4 0 3.5q-0.3 0.7 0.4 1.2z"/><path  d="m160.5 30.2c1.3-0.3 2.2 0.5 2.9 1.6 0.4 0.8 1 1.5 1.9 1.3 0.8-0.1 0.6-1 0.6-1.6 0-1-0.7-1.4-1.6-1.5-2.6-0.2-4.4-1.3-4.7-4.1-0.1-0.5-0.2-1.4-1-0.9-0.9 0.5 0.2 0.8 0.4 1.2 0.9 1.9 0 3.6-2.9 3.9 2.5 0.7 2.4 0.6 4.4 0.1z"/><path  d="m94.4 41.7l-0.1 0.1q0 0 0.1 0 0-0.1 0-0.1z"/><path  d="m97.9 50.6c1-1.6 1.1-3.1-0.6-4.5-0.7-0.5-1.2-1.2-1.2-2.3 0-1-0.6-1.8-1.7-2-1.8 4.1 1.7 6.1 3.5 8.8z"/><path  d="m196.1 118.5c1-0.9 1.9-1.1 3.7-1.1-3.2-1.5-8.9-0.8-10.4 1-0.4 0.5-0.1 1.1 0.2 1.1 2.2-0.4 4.7 0.5 6.5-1z"/><path  d="m250.9 30.9c0 2.6-1.5 0.4-2.2 0.7 0.4 1 0.5 2-0.6 2.6 0.4 0.4 0.9 0.8 1.4 0.5 2-1 3.9-2.1 5.8-3.3 2.7-1.7 2.8-3.2 0.6-5.6q0 0.3 0 0.5c0.5 4-0.3 4.9-4.5 4.3-0.3 0-0.5 0-0.5 0.3z"/><path  d="m255.9 25.8q0 0 0 0z"/><path  d="m248.1 34.3q0 0 0 0 0-0.1 0-0.1c0 0 0 0.1 0 0.1z"/><path  d="m161.7 195.3c-0.5-0.5-1.2 0.2-1.6 0.7-0.5 0.6 0.2 0.8 0.5 1.2 0.9 1.2 2 1.1 3.3 0.7 1.4-0.1 2.5 1.3 3.9 1.5 0.5 0.2 0.7 1.5 1.4 0.5 0.6-0.9-0.4-1.2-1-1.6-2-1.3-4.6-1.3-6.5-3z"/><path  d="m234.7 100.1c3 0.4 3.1 0.4 4.9 2 1.2 1.1 2.1 0.7 3.4 0.2-3.2-1.8-5.4-4.4-8.6-5.5-0.1 0.7-0.2 1.6-0.3 2.5 0 0.4 0.1 0.8 0.6 0.8z"/><path  d="m158.6 22.9c0.5 0.3 1 0.9 1.7 0.3 0.1-0.1 0.1-0.7 0-0.7-1.9-1.3-2.5-3.2-3-5.3-0.1-0.7-1.3-1.4-1.9-1.1-1.2 0.5-0.1 1.4 0.2 1.9 1 1.6 1 3.1 0.7 5.3 0.9-2.7 1.5-0.8 2.3-0.4z"/><path  d="m235.8 78.5c2.7 0.7 3 0.9 3.5 4.3 0.5-1.5 1.4-2.2 2.6-2.9-3.2 0.3-3.1-3-4.9-4-0.3-0.2-0.1-1.1-0.7-0.7-0.6 0.5-1.2 1.2-1 2.3 0.1 0.4-0.1 0.8 0.5 1z"/><path  d="m186.7 124.1c0.1 3 1.6 3.6 3.9 3.2 0.7-0.2 1.4-0.2 2.1-0.1 0.6 0.1 1.3 1.3 1.6 0 0.2-0.9-0.7-1.3-1.4-1.3-2.2 0-4.2-0.5-6.2-1.8z"/><path  d="m134 59.3c0 0 0 0 0-0.1q0 0.1-0.1 0.1 0.1 0 0.1 0 0 0 0 0z"/><path  d="m137.3 62.8c-0.1-1.4-0.3-2.9 1.1-3.8 1 2.6 1 5.2 0.6 7.9 1.3 0.3 2.7 1.7 3.8-0.4 1.3 2.2-0.8 2-2.2 2.5 1.7 1.1 3 2.4 4.9 2.1 0.1-1.5 0-3 0.1-4.6 0.1-0.9-0.1-1.6-0.8-1.6 0.5-0.2 0.9-0.7 1.2-1.4-1.7-0.3-3.1-1.1-4.8-1.6 1.3 0.7 0.3 3.1 2.5 3.1q-0.5 0.7-0.9 1.4c-0.7 0.1-1-0.1-1.5-0.7-1.6-2.5 0.4-5.5-2.5-8.1 1.7 0.4 2.1 1.6 3.1 1 0.3-0.2 0.3-0.9 0.1-1-1.6-0.6-1.3-3-3.3-3.3-0.5-0.1-1-1.5-1.7-0.8-0.6 0.6-0.4 1.6 0 2.3 0.3 0.5 0.8 0.7 1.3 1-1.9 0-2.3 2.6-4.3 2.5 1.2 1.1 0.9 3.4 3.3 3.5z"/><path  d="m252.8 54.4c-0.7-2.2-0.8-5-4.2-4.9-0.5 0-1.2-0.3-1.4 0.3-0.1 0.4-0.1 1 0.1 1.3 0.3 0.5 0.9 0.7 1.4 0.2 0.5-0.5 1.6-0.6 1.5-0.1-0.8 2.6 1.9 2 2.6 3.2z"/><path  d="m101.1 40c-0.9 0.4-0.3 1.1-0.1 1.7 0.7 2 2.8 3 3.5 5 0 0.2 0.4 0.2 0.6 0.3 1.1-0.1 1-0.4 0.7-1.2-0.7-2-3-2.8-3.5-4.9-0.1-0.5-0.6-1.1-1.2-0.8z"/><path  d="m136.5 14.3c-1-1.7-3.5-0.2-4.1-2.3 0.9-0.6 1.6 0.9 2.5 0.2-2-2-3.8-1.5-5.5 0.2 2.4 0.1 4 3.4 7.1 1.9z"/><path  d="m129.3 12.5c0 0 0.1-0.1 0.1-0.1h-0.1q0.1 0 0 0 0 0 0 0.1z"/><path  d="m243.1 299.3c-1.9 4.3 3.5 5.3 2.8 8.5 1.1-3.4-1.6-5.4-2.8-8.5z"/><path  d="m210.3 16.3c0.2-3-0.5-5.1-2.2-6.8-0.5-0.5-1-0.4-1.4 0.1-0.9 0.9 0.4 1.4 0.4 2.1 0.1 0.3 0.2 0.7 0.7 0.6 0.1-0.4 0.2-0.8 0.2-1.3 1.8 1.3 0.2 3.7 2.3 5.3z"/><path  d="m219.8 16c-2.6-1.9-2.2-5.8-5.1-7.5 1.5 2.7 1.8 6.1 5.1 7.5z"/><path  d="m234.3 67.4c-0.5 0.7-0.1 1.7 0.7 2 1.2 0.6 2.5 1.5 4.5 1-1.3-1-2.4-1.8-3.2-2.7-0.7-0.7-1.4-1.1-2-0.3z"/><path  d="m147.2 323.5q0 0 0-0.1 0 0 0 0.1 0 0 0 0 0 0 0 0z"/><path  d="m143.9 326.8c0 0 0.1-0.1 0.1-0.1q-0.1 0-0.2 0l0.1 0.1z"/><path  d="m144 326.7c2-0.3 4 1.4 6.3-0.3-1.4-0.6-2.5-1.1-1.9-2.8 0.2-0.6-0.7-0.2-1.2-0.1-0.1 2-2.1 2.1-3.2 3.2z"/><path  d="m167.4 43.5c-1.6-1-0.2-2.8-0.9-3-2.6-0.8-2.2-2.8-2.3-4.9-1.6 1.7-0.5 3.4-0.7 4.9 2.5-0.6 1.3 3 3.9 3z"/><path  d="m229.2 11c1 0.1 3.7-3.1 3.6-4.3-0.1-0.1-0.2-0.5-0.5-0.6-0.5-0.2-0.8 0-1 0.5-0.3 1.3-1 2.2-2.4 2.6-0.5 0.2-0.4 0.9-0.2 1.4 0 0.2 0.3 0.4 0.5 0.4z"/><path  d="m85.6 83.6q2.5 3.9 4.9 7.8c-0.5-3.4-2.6-5.7-4.9-7.8z"/><path  d="m170.6 40.9c1.4-2.1-0.1-2.5-1.3-3.7-0.8-0.7-1-0.2-1.4-0.1-1.1 0.2-0.5 0.9-0.1 1.3 0.9 0.9 1.8 1.6 2.8 2.5z"/><path  d="m179.7 237.4c-0.8 2.4-3.6 3.3-3.8 6 0.8-1.2 1.7-2.3 3-2.9 1.9-0.8 1.9-0.8 0.8-3.1z"/><path  d="m241 67.1c-1-1.2-1.8-2.7-3.8-2.7 1.3 1.4 2.6 2.8 3.9 4.3 0.3 0.3 0.6 0.7 1.1 0.6 0.7-0.2 0.4-0.9 0.5-1.4 0.4-2.1-1.2-0.1-1.7-0.8z"/><path  d="m116.6 94.6c1.2 1.1 2.5 2.2 4.3 3.6-0.7-2.3-2.4-3.1-2.9-4.5-0.4-1.3-1-0.9-1.5-0.6-0.8 0.4-0.4 1.1 0.1 1.5z"/><path  d="m136.4 17.1c1.4 1.5 1.7 4.1 4.9 5-1.6-2-2.9-3.4-3-5.4 0-0.7-0.6-0.9-1.2-0.7-0.6 0.1-1.2 0.7-0.7 1.1z"/><path  d="m124.9 12.4c1.7 0.4 3-1.3 4.4 0 0.3-2.4-1.4-2.8-3.4-3.5 2 1.9 0.6 2.7-1 3.5z"/><path  d="m234.5 74.2c2-0.3 0.5-0.9 0-1.1-2.1-0.8-2 0.5-1.6 2.1 0.3 0.6-0.7 2.1 0.6 2.1 1.4 0.1 0.7-1.5 0.9-2.3 0.1-0.2-0.5-0.7 0.1-0.8z"/><path  d="m204.4 184.9c-0.7-0.1-0.9 0.3-1.1 0.9-0.7 1.7-0.1 3.2 0.9 4.8 1.5-1.5-0.4-3.2 0.6-4.6 0.2-0.3 0.5-1.1-0.4-1.1z"/><path  d="m119.1 54.9c-0.3 0.5 0.1 1 0.6 0.7 1.1-1 1.8 1 2.8 0.4-0.6-1.9-2.7-2.7-3.1-4.8q0 0 0 0c-0.4 1.2 0.4 2.5-0.3 3.7z"/><path  d="m121.4 14.4c0.6 0.3 2.1 0.2 2.4-0.7 0.8-2.6-2.6-0.7-2.7-2.4-0.2 1.1-1.2 2.4 0.3 3.1z"/><path  d="m125.6 253.1c-0.4 0.4-0.2 0.9 0.1 1.2 1.2 1.4 1.2 3.4 2.6 4.8 0.3-2-0.6-3.8-1.4-5.5-0.2-0.5-0.7-1-1.3-0.5z"/><path  d="m226.4 46.7c0.7 2 0.5 4.2 2.4 6.1-0.3-3.3-1.1-5.4-2.4-6.1z"/><path  d="m108.6 175.4c0.9-1.3 2.5-1.6 3.4-2.8-1.9 0.8-3.9 0.1-6 0.8 1.7-0.3 2.6 0.3 2.6 2z"/><path  d="m232.7 85.4c0.8 0.9 1.3 1.4 3 0.5-2.5-0.3-2.4-2.2-3.3-3.4-0.3-0.5-0.8-1.2-1.5-0.4-0.2 0.2 0 0.8 0 1.2 2-0.7 1.2 1.4 1.8 2.1z"/><path  d="m147.1 16.4c-0.1-0.5 0.1-1.3-0.8-1-0.4 0.2-0.8 0.7-1.1 1.1 1.2 0.9 0.5 3 2.3 3.8-0.2-1.4-0.3-2.6-0.4-3.9z"/><path  d="m255.9 25.8q0 0 0 0 0 0 0 0z"/><path  d="m251.9 21.7c-0.6 1.6 0.2 2.8 0.6 3.5 0.6 0.8 1.9 2.7 3.4 0.6-2.1-0.4-2.7-2.4-4-4.1z"/><path  d="m129.1 25.5c-0.8-0.2-1.2 0.5-1.6 0.8-0.7 0.5 0.2 0.7 0.4 1 0.5 1 1.4 1.7 2.5 2.5 0-1.5-1.3-2.1-1.1-3.2 0.1-0.5 0.4-0.9-0.2-1.1z"/><path  d="m165.1 264.5c-1.7 1.8-3.4 3.6-5.5 5.9 2.2-2.1 4.6-3.3 5.5-5.9z"/><path  d="m205 117.1c0.2-0.3-0.2-0.6-0.5-0.7-1.5-0.5-2.8-0.8-3.6 1.3 1.3-0.6 2.9 1.1 4.1-0.6z"/><path  d="m91.1 352.5q3.8 3.2 6.4 3.5c-2.1-1.1-3.5-2.8-6.4-3.5z"/><path  d="m150.2 60.8c-1.5-1-2-1.8-2.2-2.9 0-0.4-0.3-0.9-0.9-0.7-0.3 0.1-0.4 0.5-0.7 0.8 1.1 0.7 1.1 2.8 3.8 2.8z"/><path  d="m110.1 52.9c0.4 2 0.9 2.5 3.6 4.1-0.3-0.9-1-1.5-1.7-2-0.9-0.5-0.6-2-1.9-2.1z"/><path  d="m173 1.7l0.1-0.1q-0.1 0-0.1 0 0 0 0 0z"/><path  d="m168.4 1.2c1.9-0.7 3.1 0.7 4.6 0.4-1.1-1.9-2.8-2.2-4.6-0.4z"/><path  d="m195.7 184.8c2.4-0.4 3.2-2.3 3.9-4.2-1.3 1.3-2.5 2.7-3.9 4.2z"/><path  d="m120.2 92.6c0.1-2.5-2.4-3.1-3.4-4.8-0.2 2.6 3.1 2.6 3.4 4.8z"/><path  d="m168.9 73.7q0 0.4 0.1 0.8 3.7-0.6 7.5-1.2c-2.6-0.4-5.1 0.2-7.6 0.4z"/><path  d="m176.5 73.3c0 0 0.1 0 0.1 0q0 0 0 0 0 0 0 0 0 0 0.1 0h-0.2z"/><path  d="m188.5 188.8c2.5 0.2 3.6-1.3 4.9-2.3-1.5 0.5-3.1 0.7-4.9 2.3z"/><path  d="m148.3 20.6c0.5 1.8 0.8 3.3 2.6 3.8-0.9-1.1-0.7-2.8-2.6-3.8z"/><path  d="m122.3 58.8c-0.6 2.1-0.9 3.9 2.4 2.7-1.4-0.4-2-1.5-2.4-2.7z"/><path  d="m105.2 218.5c-0.4-1.5-0.8-3-1.4-5.3-0.5 2.5 0.2 4 1.4 5.3z"/><path  d="m147.2 269.3c-0.1-2.9-0.4-3.6-2.8-5.8 1.1 2.2 1.9 4 2.8 5.8z"/><path  d="m151.6 78.5c-0.1-3.3-2.5-4-4.3-5.2 0.9 2 2.4 3.4 4.3 5.2z"/><path  d="m108.9 114c-2.1-2-4.5-4.2-6.4-6 1.9 1.9 3.6 4.7 6.4 6z"/><path  d="m100.9 114.3q0.1 0.1 0.2 0.2-0.1-0.1-0.1-0.3c0 0-0.1 0.1-0.1 0.1z"/><path  d="m101.1 114.5c0.3 1.3 0.2 2.2-2 1.8 2.2 1.4 4.3-0.2 6.8 1.4-1.5-2.3-3.8-1.8-4.8-3.2z"/><path  d="m100.9 114.3l0.1-0.1q0 0-0.1 0c0 0 0 0.1 0 0.1z"/><path  d="m96.4 109.6c1.1 2 2.6 3.6 4.5 4.6-0.4-2.7-3.1-3-4.5-4.6z"/><path  d="m103.1 119.6v0.1q0.1-0.1 0.1-0.1-0.1 0-0.1 0z"/><path  d="m107.8 119.3c0.3-0.2 0.1-0.7-0.3-0.8-1.6-0.4-3.1-0.1-4.3 1.1 1.5 0.3 3.1 0.5 4.6-0.3z"/></svg>