<svg version="1.2" xmlns="http://www.w3.org/2000/svg" viewBox="0 0 300 400" width="300" height="400"><style>.a{fill:#fff}</style><path class="a" d="m227.3 147.9q0 0 0 0 0 0 0 0 0 0 0 0z"/><path class="a" d="m8.4 375.6c0.5 5.8 1.4 11.5 2.2 17.3 49-0.7 98.1-4 147.2-0.6 5.4 0.4 10.5 1.9 14.8 4.5 2.3-0.7 4.7-1.1 7.2-1.2 1.1-0.1 2.1-0.2 3.2-0.3q3.5-0.6 7-1.3c5.5-1 10.9-2 16.3-2.8-0.1-0.9 0-1.8 0.3-2.9q0.1-0.6 0.4-1.2 0-1.3 0.5-2.6c-0.9-4.7-0.3-9.8-0.3-14.4 0.1-3.1 0.1-6.1 0-9.1 0-1-0.4-2.5-0.3-3.5-0.1 0-0.1-0.1-0.2-0.1-3.8-2.6-3.3-9.2 0.3-11.8q0.1-4.3 0.2-8.5c0-9.1 14.2-9.1 14.1 0q0 5.4-0.2 10.9c1.6 2.3 1.5 5.8-0.1 8.3 0.2 2.1 0.3 4.2 0.4 5.9q0.1 3.1 0 6.1c1.6 0.6 2.9 1.7 3.7 3 1.1 1.9 1.2 3.8 0.6 5.5 1.1 2 1.4 4.7 0.2 7.1-1 2.1-3.1 4.2-4.5 6 11.5 0 22.5 2.2 33.2 7.7q1.8 0.9 3.4 2.1 6 0 12.1-0.4c2-0.2 3.9-0.4 5.9-0.5q0.5-0.1 0.8-0.1 0.5-0.1 1-0.1c0.3-0.1 0.6-0.1 0.9-0.1q2.5-2 4.7-4.2c5.4-5.3 5.4-11.7 2.6-16.8 4.2-7.6 6.3-15.9 5.1-25.3-1.8-13.2-8.2-25.9-12.9-38.3-4.7-12.3-9.5-24.5-14.1-36.9-2-5.4-3.9-10.9-5.5-16.5-0.9-2.9-1.5-5.9-2.2-8.9-0.2-0.9-0.3-1.5-0.4-1.9-0.3-1.9-0.4-4-0.4-6-0.3-11.1 2.1-21.7-0.5-32.7-2.5-10.9-9.4-19.3-18.5-24.6q-0.7-5.3-2.5-10.5c4-8.1 2.9-16.3-1.9-22.9-1.3 0.3-2.6 0.6-3.9 0.4q-1.9 0-3.5-1l-1.4-1.1c-1.4-1.2-2-3.1-2.1-5-0.1-1.7 0.8-3.7 2.1-4.9q0.3-0.4 0.7-0.7c-1.2-3.7-2.4-7.5-3.7-11.2-3.2-8.4-7.5-15.2-12.8-21.5-2.1-12.5-3.6-25-5.6-37.3q-0.4-2.3-0.7-4.6c3.8-3.8 6.2-8.9 5.5-14.4-1.3-11.5-5.5-19-14.8-25.8q-1.7-1.2-3.7-1.9c-1.4-2.2-3-4.3-4.9-6.2-6.4-6.6-15.2-10.2-23.8-12.9-9.4-3.1-20.1-5-29.6-1.3-7.2 2.7-12.4 6.8-16 12.2q-10.4 4.5-20.8 9c-0.5 0.2-0.9 0.5-1.3 0.7-10-0.4-20 5.4-22.5 15.8q-4.5 18.7-7.1 37.9c-2.2 15.4-7.3 34.4 3 47.8 2.4 3 5.3 5.3 8.7 7-0.4 0.4-0.7 0.8-1 1.3-2.3 4.7-4.6 9.3-7.3 13.8-2.5 4.2-5.3 10.1-9.8 12.3-0.5 0.2-0.8 0.5-1.1 0.9q-0.7 0.1-1.3 0.2c-5.6 0.5-5.6 9.2 0 8.7 2.6-0.3 5.2-0.7 7.6-1.5 1.8 0.2 3.5 0.5 5.2 1.7q1.2 0.8 2.2 1.4c-4 3.7-6.2 9-11.2 11.3-3.7 1.7-6.9 3.5-9.5 6.1-1.7 1.2-2.8 3-3.7 4.9-1 2.1-0.4 4.1 1 5.3-1.1 3.7-1.5 7.7-0.9 12.1q0.5 3.4 1.7 6.4c-2.9 3.9-4.6 8.6-4.2 12.8 0.4 3.3 0.5 6.6 0.4 10 0-1.3-0.8 3.5-0.8 3.8l-0.5 1.4q-0.1 0.1-0.2 0.3c-3.9 6.2-7.9 12.7-11.4 19.1-8 14.4-13.7 30.2-16.6 46.4-1 5.8-0.1 12.2 2.7 17.2-6.5 14.8-8.5 29.7-6.9 45.8z"/><path  d="m34.4 385.9c1.6 1.4 1.7-0.4 2.2-1.1 4.8-6.9 6.3-15.2 9.6-22.8 0.6-1.5-0.5-3.2-2-3.7-1.8-0.6-1.7 1.2-2.3 2.3-1.2 2.4-2.8 4.6-5.3 7.2 0.4-2.5 2.4-4.4-0.4-5.5-0.4-0.2 0.1-0.5 0.2-0.7 0.1-2.6 0.3-5.2 1.2-7.6 1.6-4.4 0.1-8.8 0.6-13.2-1.3 3.4-0.9 6.9-0.9 10.5 0.1-2.4-2.5-3.7-2.8-3.1-1.5 3-3.4 0.7-4.9 0.7-3.5 0.1-6.2 1.7-7.1 4.9 0.7 0.2 1.1-0.2 1.5-0.7 3.3-3.4 8.8-2.7 11.2 1.4 0.3 0.6 0.9 1.5-0.2 1.5-2.1-0.2-1.4 1.3-1.3 2.1 0 1.4 0.4 2.9 0.7 4.3 0.9 3.7 0.9 7.2-1.5 10.6-3.1 4.6-5.6 9.6-8.5 14.3-1.1 1.8-2 3.6-3 5.4q2.5-0.1 4.9-0.1c-1.4-4.1 2.3-6.7 3.5-10.1 0.3-0.8 1-1.6 1.7-2.7 1.3 3.6-1.4 5.2-3 7-1.5 1.7-0.1 4-0.8 5.7q1.6 0 3.3-0.1c0.8-1.6 1.5-3.3 2.2-5.1 0.2-0.6 0.8-1 1.3-1.4zm6.1-15l0.7 0.3c-0.9 2.5-1.8 5.1-2.9 7.6-0.6 1.4-1.3-0.1-2-0.1 1.1-1.4 2.3-2.4 2.3-4.1 0.1-1.5 1.4-2.4 1.9-3.7zm-2.3-0.9c-0.5 2.8-1.2 5.4-4.6 6.2 1.6-2.2 3.1-4.2 4.6-6.2z"/><path  d="m3.3 376.1c4.5 1.9 6.7 6.2 9.6 9.8 0.8-1.1 0.5-2.1 0.4-3.2-0.1-1.1-1.5-1.3-1.5-2.4-0.1-0.9 1-1.9-0.3-2.9-0.8 0.5 0.3 1.6-0.9 2.1-2.5-2.5-5.5-4.4-4.9-9 1.1-8.9 1.6-17.9 2.4-26.9 0.1-1.4 0.7-2.5 2.2-3.1 1.7-0.6 3-1.8 4-3.7-1.2 0.1-2 0.1-2.3 0.9-0.5 1.2-1.8 1.4-2.4 1.1-1.2-0.4-0.3-1.7-0.3-2.6 0.1-1 0.3-2.1 0.6-3.1 1.1-5.7 0-5 5.9-5.7 0.9-0.2 2.2-0.7 2.9 0.4 0.5 1-0.7 1.7-1 2.5-0.8 1.7-2.8 2.9-2.3 5.6 1.9-2.5 3.9-4.3 5-7 1.8 1.5 3.4 2.8 5.1 4.2-1-2.8-3.6-4.3-4.8-6.9 0.9 0 1.8 0.3 2.3-0.1 2.4-1.7 3.2-0.1 4.1 1.7 0.4 0.8 1.2 2.1 1.9 2.1 3.8 0.4 4.9 3.2 5.9 6.1 0.2 0.3 0.7 0.6 1.2 0.8 0.5 0.2 0.5-0.2 0.6-0.7 0.6-2.8 1.4-5.7 2.8-8.6-1.2 0.3-1.3 1.4-2.2 1.4-0.8 0-1.6-0.3-2.3-0.1-2.3 0.9-5.4-0.3-6.3-2.5-0.5-1.4-0.7-2.7 1.4-3.2 1-0.3 2.5-0.3 3.2-1.6 1.9 0.8 4.4 0.9 4.7 3.8 0.1-1.4 0.5-2.8-0.2-4.1-1.1-2.3-1.3-4.7-1-7.3 0.4-3.4 0.5-3.8 3-5.8 0.2-0.1 0-0.5 0.1-0.7 1.4-2.9-0.1-5.9 0.6-8.8-1.2 0.2-0.5 2.3-2 1.7-1-0.4-0.7-1.6-0.7-2.4-0.1-1.8-0.3-3.7 0.5-5.4 0.2-0.4 0.6-0.9 0.2-1.3-1.7-1.5-0.5-3 0-4.4 3.9-11.6 8.5-22.8 13.4-34 0.3-0.7 0.6-1.4 0.7-2.2 1.1-5 1.9-10 3.3-14.9 0.5-2 0.6-4.3 2.1-6.7 0.7 3 2 5.5 1 7.6-1.3 3.3-0.1 6.6-1.1 10-1 3.5 0.1 7.6 0 11.5-0.1 2.4 2.1 5.1-1.1 7.2-0.4 0.2-0.1 1.8 0.9 2.1 1.5 0.5 0.6-1.1 1.1-1.5 0.4-0.3 0.4-1.1 0.4-1.6q0.4-7.4 0.7-14.8c0-1.4-0.3-2.8 0.8-4.9 0.7 6.4 2.7 11.8 2.9 17.5 0.1 2.5 0.7 4.7-0.6 7.3-3.2 6.3-3.4 12.7 0.9 18.8 0.8 1.1 2.1 2.2 1.6 3.9-1.2 4.3-1.9 8.8-1.8 13.3 0 4.7-2.2 9.1-1.9 13.8 0.3 3.3 0.3 6.5 0.2 9.8-0.3 6.5-1.3 12.9-1.2 19.4 0 6.9-0.8 13.8-1.1 20.6-0.3 6.2-1.2 12.3-1.7 18.4q-0.3 2.2-0.5 4.3 1.7 0 3.3-0.1 0.1-2 0.2-4c0.4-7.7 1.2-15.5 1.6-23.3 0.5-10.4 2.4-20.7 3.7-31 0.5-4-0.3-8 0.9-11.8 0.3-0.9-0.3-1.7-1.3-1.8 0-1.1 0-2.2-0.5-3.3-1.6-3.9 0-7.8 0-11.8 0-2 0.8-4 1-6 0.2-2.3 1.2-2.2 2.6-0.8 0.1-1.2 0-1.9-1.2-2.1-0.7-0.1-0.9-0.7-0.9-1.3 0.1-0.8 0.8-0.7 1.3-1 2.3-1.6 4.9-0.1 7.4-0.7 1.3-0.4 1.5 1.3 1.7 2.3 3.3 15 8 29.7 13.4 44.1 2.7 7.1 5.4 14.2 8.7 21 2.5 5 2.6 9.9 1.7 15-0.7 4.3-1.6 8.6-2.3 12.9q-0.3 1.4-0.5 2.8 1.4 0 2.7 0c1.4-6 2.8-12 2.6-18.4 2.7 0.3 2.2 3.3 4.6 3.7-0.3-1.4-0.8-2.5-1.5-3.5-1.1-1.9-2-3.8-0.8-6 0.3-0.6 0.3-1.5 1-1.6 1.2-0.3-0.1 1.5 1.2 1.4 0.4-1.4 0.7-2.6-0.2-4.1-0.7-1.1-0.4-2.2 0-3.6 1-3.6 1.4-7.3 2.2-11 0.7-2.8 0.8-5.7 2.6-8.3 0.8-1.2 0.7-3.3 1-4.9 0.1-0.6 0.2-1.9 1.3-0.6 0.2 0.3 0.6-0.1 0.5-0.3-2-3-0.2-6.2 0.6-8.8 1.2-4.2 0.8-8.4 1.1-12.6 0.2-2.9 1.4-5.6 2.8-8.1 1-1.8 0.6-3.8 1.4-5.8 0.7-1.6 1.6-3.4 1.9-5.4 0.8-4.6 2.8-8.8 5.1-12.8-0.8-1.4-1.9 1.3-2.3-0.3-0.1-0.8 0.9-1.8 1.9-2.1 0.5-0.1 1.1-0.3 1-0.7-0.9-3 2.6-4.3 2.7-7 0.1-2.8 1.5-5.5 2.5-7.9 1.2-2.8 1.6-6 3.5-8.8 1.7-2.4 2.3-5.8 3.8-8.6 2.3-4.1 3.9-8.6 7.1-12.3-0.5 2.5-2.1 4.7-2.1 7.4 1.6-3.6 3.2-7.1 4.8-10.7 1.5-3.3 3.1-6.6 4.6-10 0.6-1.3 1.5-1.1 2.6-0.6 4.5 2 8.2 5.4 12.7 7.4 1.4 0.6 3.8-0.1 4.1 2.5 0 0.6 1 0.2 1.6 0.1 2.7-0.8 2.6 0.8 2.1 2.5-0.5 1.6-1.2 3.1-1.9 4.6-1.8 3.5-3.5 4-7.2 2.3-5.6-2.6-8.2-1.7-11.7 3.2-4.3 6.3-6.1 13.6-9.2 20.4q-4.6 9.9-6.8 20.7c-0.5 2.2-1.3 4.3-0.8 6.5 0.1 0.7 0.1 1.5-0.5 1.9-2.9 2-4.3 4.9-5.3 8.1-0.2 0.5-0.5 0.4-0.9 0.2-1.1-0.6-1.9-0.1-2.5 0.8-1.2 2.1-1.1-0.6-1.8-0.4-0.1 0.4 0 1-0.3 1.3-3.2 3.6 0.7 6.6 1 10 0 0.2 0.9 0.6 1.5 0.6 2.7 0 5.4 0.1 8.1 1 2.3 0.8 4.6-0.2 6.9-0.7 1.7-0.3 2.6-0.1 3.6 1.4 1.4 2.1 2.8 4.2 5.2 5.4 1.4 0.6 2.4 2.1 2.8 3.6 1 3.3 3.8 3.2 6.2 3 2.3-0.2 5.3 0.2 5.9-3.5 0.1-1.3 1.2-2.5 1.2-3.9 0-2-1.5-3-3.3-2-1.5 0.8-3.1 1.5-4.9 1.8-1.3 0.1-2.7 1.3-4.1-0.2-1.8-2-2.9-4.3-3.7-6.9-0.2-0.6 0.5-0.9 1.1-1 4.3-0.7 7.6-3.1 11.2-5.5 4.1-2.8 6.4-6.9 9.9-10 1.1-1.1 1.4-2.6 2-3.9 1.6-3.5 4-6.2 7.2-8.4 1.3-0.9 2-1.3 3.5 0.5 1.7 1.9 2.6 4.3 4.4 6.2 1.1 1 1.9 3.6 2.6 5.6 1.4 4.3 4.7 7.6 6.6 11.8 0.8 2 1.8 4 3.1 5.8 1.6 2.1 0.6 4.5-0.1 6.9 1.7 0.1 0.9-1.6 2-1.8 0.1 0.1 0.4 0.2 0.5 0.4 1.4 3.6-1.4 6.1-2.1 9.2-0.1 0.4-1 0.6-0.9 1.4 0.4 3.1-1.2 8.2-2.1 11.4-0.7 2.6-2.7 4.6-2.7 7.6 0 2.5-1.2 5-2.5 7.3-0.6 1.1-0.3 1.9 0.9 2.1 3.1 0.4 4.8 3.1 7.6 3.9-0.2 1.1-1.1 1.2-1.6 1.5-4.8 2.7-4.3 2.7-4.1 8.2 0.3 5.7 1.3 11.4 1.3 17.2q0.1 2.5 0.2 4.9 2.4-0.3 4.7-0.6 1.2-0.2 2.3-0.3c-0.9-4.5-1.1-9-1.2-13.6 0-3.9-0.2-7.9 0.1-11.8 0.2-1.7 0.9-3.4 2.5-4.5 1.9-1.2 1.5-2-0.4-2.6-1.3-0.5-2.5-1.2-3.7-1.8-3.5-1.5-3.7-1.9-2.5-5.4 2.1-5.9 4.4-11.6 7-17.3 0.4-0.8 0.8-2.1 2-1.7 1.4 0.5 2.2 1.9 3.1 3 0.2 0.3-0.7 0.8-1.2 1.1-2.9 1.5-2.9 2.1-0.5 3.9 2 1.5 3.1 3.8 3.7 6 0.5 1.5 1.6 2.7 1.7 4.5 0.1 4-1.8 6.1-5.3 7.2-2 0.6-2.2 1.3-0.7 2.7 0.8 0.8 1.9 1.5 1.1 3-0.3 0.6 0.2 1.4 0.6 1.5 2.4 0.8 3.4 3.2 5.2 4.7 1.6 1.5 2.4 4.5 2.1 7.2 0 0.4-0.6 0.8-0.1 1.3 3 3.1 0.7 5.2-1.3 7.4q-2.1 2.3-4.3 4.6 3.1-0.1 6.1 0 0.3-0.4 0.6-0.9c0.5-0.6 1.4-1.1 1.1-2.2-0.2-0.6-0.6-1.4 0.5-1.6 0.3-0.1 0.8 0 1 0.2 0.6 0.7 0.4 1.5-0.1 2.1q-1.1 1.3-2.1 2.4 1.1 0.1 2.2 0.2c0.9-2 2.7-4.5 3.6-4.7 1-0.3 1.1 0.4 0.9 1.1q0.9-2.4 1.8-4.8c-2.7-0.5-3.2-1.9-2.1-4.4 4.7-10.8 14-15.6 24.7-17.4 7.8-1.2 14.5 3.3 20.9 7.4 1.4 0.9 0.1 3 1.9 3.8 2 0.8 2.1 3.6 4.2 4.2 0 2.2-2.1-1-1.8 0.8 0.2 1.8 1.9 0.6 2.9 0.7-0.1 0.9-0.4 1.6-1.2 1.9-0.4 0.2-1.7-0.9-0.9 0.7 0.2 0.4-0.1 2.3 1.5 1.2 1.3-0.9 1.1 0.3 1.3 1 0.4 1.2 0.4 2.5 1 3.6 1.6 3.3 0 5.3-2.4 7.2q-3.8 3-7.6 6.1 0.2 0 0.4-0.1 2.7-0.4 5.4-0.4c1.5-1.6 3-3.1 4.8-4.4 1.8-1.3 3.4-3.6 2.4-6-1.2-2.9-1.3-6-2.1-9-0.3-1 0.2-1.7 0.7-2.4 1.9-2.5 3.8-5 5.5-7.6 1.5-2.1 3.5-4.3 0.5-6.8-0.2-0.2-0.3-0.7-0.2-1.1 1.2-5.2 0-10.7 1.7-15.8 0.6-1.7 0.5-2.6-1.1-3.5-2.8-1.6-4.8-3.6-3.6-7.3 0.2-0.8 0.1-1.9-0.7-2.8-1.7 2.6-4.2 0.4-6.3 1.2-2.2 0.9-2.2-0.6-1.7-2.1 1.5-3.2 2.2-6.9 5.2-9.3 0.4-0.3 0.4-0.9 0.3-1.4-1.1-4.3-2.3-5.2-7.1-5.4-0.8 0-1.6 0.3-2.4 0.1-1.8-0.5-4.6-1-4.2-3.1 0.5-2.3-0.4-3.8-0.9-5.6-0.6-2.6-1.2-5.1-1.8-7.7 2.1 2.4 2.3 5.8 5.1 8.6-1-4.3-2.4-7.7-3.4-11.2-1.2-4.5-3-8.8-4.4-13.3-2.7-9-5.7-18-7.6-27.3-0.7-3.3 0.9-6.6-0.9-9.7-0.9-1.6-0.8-3.3-0.7-5.1q0.1-4.8 0.1-9.5c0-4.1 0-8.2 2.1-11.9 1.3-2.3 1.1-4.6-0.2-6.9-1.4-2.6-2.2-5.4-1-8.4 0.6-1.6 0.4-2.8-1.7-2.9-0.8 0-1.4-0.5-1.6-1.4-0.4-1.9-1.7-3.5-1.7-5.5-1.1-0.1-0.9 1.9-1.7 1.1-1.6-1.7-4.1-1.8-6.2-3.8 2.1 0.3 3.4 0.6 4.8 0.8 0.7 0.1 1.2 1.9 2 0.3 0.8-1.6-1-1.3-1.7-1.6-4-1.3-8.7-1.2-11.9-4.6 0-0.1-0.3 0.1-0.5 0.2-2.1 0.6-3.4-0.7-3.8-2.3-0.8-2.9-1.7-5.7-1.7-8.7 0-6-0.5-12 0.7-18 0.2-1 0.5-2.2-1.1-2.6-3.8-0.8-7.3-2.7-11.2-3.5-2.9-0.5-3.1-1.1-1.3-3.7 2.9 3.7 9.6 5 12.5 2.4-2.2 0-4.3 0.1-6.4 0-2.1 0-3.9-0.7-4.8-2.7-0.5-1.2-1.3-2.6-0.1-3.8 2.3-2.5 2.4-5.9 4.2-8.6 1.2-1.7-0.6-2.6-1.7-3.4-0.9-0.7-1.6-2-3.2-0.5-1.6 1.6-3.5 0.5-4.1-2.5 1.1 0.9 2.2 1.1 2.8-0.1 0.6-1.4-1-1-1.6-1.5-2.8-2.4-5.1-5.1-6.8-8.5-1.7-3.3-2-6.9-3.4-10.1-3.7-9-3.9-18.4-3.7-27.9 0-3.9 0.1-8-0.3-11.8-1-8.8-0.9-17.4 0.9-26 0.4-2-0.1-3.5-1.1-4.9-1.1-1.5-2.5-2.9-4.1-4.1-3.3-2.5-6.1-5.7-10-7.8-2.2-1.3-4.4-3.5-6.9-4.8-1.7-0.9-2.4-1.8-2.1-3.5 0.5-2.7-0.9-4.6-2.9-5.9-1.8-1.1-3.9-1.9-5.8-2.4-7.8-1.8-15.2-5.4-23.2-6.3-2.6-0.3-5-1.8-7.7-1.2 1.4 1.3 3.2 1.5 4.9 1.9 3 0.7 5.9 1.4 8.8 2 5.7 1.1 10.9 3.5 16.6 4.8 6.6 1.4 7.2 2.4 7.5 9 0 1.2 0.4 2 1.5 2.5 1.5 0.7 3.3 1.2 4.2 2.1 4.3 3.9 8.8 7.8 13.3 11 4.7 3.4 5.3 6.9 4.7 11.5-0.7 5.1-1 10.1-0.9 15.2 0 4.8 1.6 9.7-0.9 14.3-0.1 0.3 0.5 0.9 0.8 1.4 0.5-0.8 0.9-0.7 1 0.2 0 2 0.3 4.1-0.6 6-0.3 0.4-1 0.7-0.4 1.3 1.5 1.7 0.9 3.5 0.3 5.2-0.6 1.7-0.6 3.4-0.4 5.1 0.3 2.1 1.9 4.2 1.8 5.5-0.2 3.7 1.5 6.5 2.9 9.4 0.2 0.5 0.2 1-0.2 1.4-0.8 1-0.3 1.5 0.6 2.1 0.7 0.4 0.6 1.4 1 2 1.5 2.3 1 5.1 2.7 7.7 1.4 1.9 3 4 4.2 6.2 2 3.6 5 6.6 6.5 10.5 0.2 0.4 1.1 0.8 0.1 1.7-1.7 1.6-2.1 4.1-2.7 6.3-0.5 2.1-1.9 5.5 2.9 4.2 0.2 0 0.5 0.4 0.7 0.5 2.9 1.1 5.5 2.7 8.6 3.1 1.2 0.2 2 0.8 1.7 1.9-0.6 2.3-0.1 4.7-0.3 6.9-0.4 4.8-0.3 9.5 0.1 14.3 0.2 1.6 0.9 3.7-0.2 4.7-0.9 0.8-2.3-0.8-3.3-1.7q-0.1-0.1-0.3-0.1c-4.8-0.6-8.6-3.9-13.2-5.3-3.5-1-5.7-5-9.9-4.8-0.6 0.1 0.4-1.2-0.6-1.3-0.9 0.8-0.8 2.2-1.8 2.8q-0.2-3.9-0.5-7.9c-1 0.2-0.7 1.7-2.2 1.7-0.4-5.3 1.1-10.6 0.9-15.9-0.5 0.1-0.6 0.1-0.6 0.1-0.2 0.1-0.4 0.3-0.4 0.4-0.2 3.5-2 2.8-4.1 1.7-5.4-2.9-10.7-6-15.6-9.7-1.6-1.2-3.3-2.4-5.3-2.9 0.8 1.3 1.9 2.2 2.8 3.2 0.5 0.5 0.7 1.2 0.4 1.9-0.3 0.6-0.7 0.7-1.2 0.6-1.9-0.3-4.3-4.4-3.4-6.2 0.2-0.5 0.4-0.7 0.1-1.2-1-1.6-1.2-3.3-0.7-5.2 0.3-1 0.3-2.3-1.2-3.1-0.6-0.2-0.7-1.9 0-1.8 3.5 0.4 1-1.9 1.2-2.8 0.3-1.1-0.9-2.2-0.6-3.8 0.8 0.6 0.5 1.9 1.5 2.1 1.8-2.2-0.2-5.7 2.7-7.6 0.2-0.1 0-0.5-0.4-0.5-1.7-0.1-1.1-1.2-0.9-2.1 0.5-2 1.3-4.5 1-5.8-0.7-3.7 1.5-2.7 3.2-2.8 5.9-0.3 6-0.3 6.6-6.4 0.1-1.7 1.1-2.7 2.6-3.1 4.3-1.1 6.2-3.9 6.1-8.2 0-0.5 0.1-1 0.1-1.5 1.3-8.7 0-11.6-7.4-15.7-3.3-1.8-7-2.9-10.6-0.7-3.3 2-6.9 4-5.1 9.1 0.2 0.6 0.1 1.6-0.9 1.9-0.8 0.2-1.2-0.6-1.6-1.1-1.2-2-2.8-3.4-5.3-4.2-1.9-0.6-3.9-2.7-3.5-4.7 0.3-1.2 3.1-1.7 5-1.1 1.5 0.5 4.2-2 4.5 2.1-0.2-2.1 0.1-3.6 2.3-4 0.5-0.1 1-0.6 0.8-1.3-0.1-0.5-0.7-0.8-1.1-0.6-4 1.2-7.2-1.2-11-2.2 2.2-0.4 4-0.5 5.8-1 1.7-0.4 4.6 0 4.5-2.2 0-2.5-2.9-2.3-4.9-2.7-1.9-0.5-4.2-0.3-5.8-1.2-6.7-4-14.2-6.3-20.8-10.4-4.2-2.7-5.7-9.9-1.8-13.3 1.4-1.2 2.8-2.2 4.1-3.3 1-0.9 3.1-1.5 2.1-2.9-0.8-1.2-2 0.8-3 1.3-1.9 1-3.9 2.4-5.9 1.5-1.2-0.6-1.6-0.3-2.4 0.2-2.9 2-5.8 4.2-9.6 4.3-0.4 0-0.6 0-0.9 0.4-2.1 3-5.5 4.3-8.7 5.3-3.8 1.3-7.7 2.6-11.3 4.5-1 0.5-1.8 1.8-3 1-1.2-0.7 1.2-1.5 0.2-2.5-1.2 0-1.4 0.8-1.5 1.8 0 0.8-4.3 3.5-4.7 3.1-2.2-2.9-2.8 0.2-4.1 1q-0.3-0.8-0.6-1.5c-3 3.5-6.4 1.2-9.6 1-3.4-0.2-6.6-0.7-9.6-2.7 0.1 2.6-0.6 4.8-3.2 5.9 0-1.9 0.4-3.9 0-5.6-1.3-5 1.6-8.3 4.2-11.7 1.3-1.6 2.9-3 4.5-4.3 2.4-1.8 4.5-4 8.2-3.2 2.6 0.6 5.1-0.4 7.5-1.7 0.7-0.4 1.1-0.7 0.7-1.5-0.4-0.9-1-0.4-1.7-0.1-1.3 0.8-2.5 1.9-4.1 1.7-4-0.5-7.2 0.7-10.5 3.1-7.9 5.6-11.5 13.4-12.8 22.7-0.9 5.7-0.7 11.4-1 17.1-0.3 5.4-1.4 10.7-1.6 16.2-0.2 4.8-0.3 9.6-1.7 14.4-1 3.2-1.4 6.8-1.9 10.2-0.4 3.2 0.2 6.8-2.1 10-1.2 1.7-2.5 4.2-2.7 6.8 3.2-1.1 2.4-4.7 4.6-7-0.3 3-1.3 5.1-2.2 7.2-0.3 0.8-0.5 1.5 0.6 1.8 3.6 1.1 7.8 0.9 10.1 4.7 5.7-0.9 4.7 1.5 2.3 4.7 0 0 0 0.1 0 0.2-0.7 5.8-3.5 10.7-6.6 15.3-2.8 4.1-6.1 7.7-10.5 10-2.3 1.2-4.8 1.4-6.3 4.3-1.3 2.7-1.9 2.8 1.1 3.5 1.3 0.3 2.2 1.1 3.5 1.4 5.1 1.4 10.2 1.2 15.3 0.4 0.7-0.1 1.5-0.5 1.9 0.2 0.5 0.8-0.5 1.2-0.8 1.7-3 4.7-7.9 7.1-12.2 10.2-0.7 0.4-2.2 0.6-2.8 0.2-3.3-2.2-5.3 0.9-8.2 1.2 1 0.9 2.8 0 2.8 1.6-0.1 1.3-0.1 2.7-1.6 3.8-1.6 1.2-3.8 2.6-3.3 5 0.8 3.6 1 7.4 3 10.6 1.6 2.3 2.1 4.8 2 7.4-0.5 9.5-2.6 18.7-5.7 27.6-2.5 6.8-3.8 14-6.6 20.8-1.8 4.3-3.2 8.9-5.1 13.2-3.3 7.6-5.4 15.5-8.8 23-2.7 5.9-4.8 12.1-8.2 17.7-1.9 3.2-1.8 3.7 1.4 6 0.6 0.4 1.1 0.8 1.6 1.3 0.5 0.5 1.6 0.8 1.4 1.7-0.3 0.9-1.4 0.7-2.2 0.9-1.9 0.6-4.4 0.1-4.9 2.9-0.9 4.5-1.7 9-2.7 13.5-1.2 5.4-1.8 11.2-1.4 17 0.2 2.9-0.7 6.1-2.5 8.7-2.2 3.1-1.8 5.8 0.8 8.2q0 0 0 0zm61.2-37.6q-1 7.2-1.9 14.4c-0.6-4.8 0.2-9.8 0.3-14.7 0-0.6 0.1-1.3 0.9-1.2 1.1 0.1 0.7 0.9 0.7 1.5zm0.5-3.5c0 0.5-0.5 0.9-1 0.8-0.6 0-0.8-0.5-0.7-1.1 0.3-1.3-0.3-3 1.7-4 0 1.6 0 2.9 0 4.3zm0.9-15.3c0.2 2.2-1.5 3.8-1.5 6-0.8-1.9-0.2-3.7-0.1-5.5 0.1-0.9 0.9-0.8 1.6-0.5zm88.9-106.6c-1.8 2.3-1.8 5.5-3.7 7.6-1.1 1.1 0.6 2.6-1 3.7-0.7 0.4-0.6 1.1-1.4 0.6-3.1 7.5-8.8 13.9-9.9 23.1-0.8-1.6-0.1-2.4-0.9-3.4-1.1 3.1-3.1 5.7-2.7 9.1 0.1 0.3 0.1 0.8 0 0.9-2.1 1.3-1.5 4.2-3.6 5.8-1.2 1-1.2 3.5-2.8 4.7 1.9 1.2 0.7 2.9 0 3.8-3.2 3.9-4.2 8.9-6.9 13.1-1.7 2.8-2.3 6.7-3.7 10 1.4 0.8 1.3-0.9 2.2-0.7 0.2 0.9 0.1 1.7-0.7 2.3-0.6 0.5-1.7-0.5-2.1 0.5-0.4 1.3 1.3 0.3 1.5 1.2 0.4 1.9-0.3 3.9-1.1 5.3-2.3 3.9-2.1 8.5-3.6 12.6-0.6 1.7-1 3.5-1.7 5.1-1.9 3.9-1.2 8.4-3 12.4-0.3 0.7 0.1 1.7 0.2 2.9-3.4-2.7-5.3-6.2-7.3-9.5-7.9-12.6-14.3-26-18.6-40.2-1-3.5-2.1-7-2.2-10.5-0.1-2.2 0.3-4-1.8-5.3 0.6-3-2.3-3.3-3.7-4.5-1.3-1.2-1.3-1.8-1-3.6 0.9-5.8 3.1-11.3 4-17.1 0.4-2.4 0.9-5 2.1-7.3 0.2-0.6 0.8-1.3 1.3-1.4 3.9-1 5.5-4.5 6.8-7.2 1.8-3.6 3.6-7.2 5.4-10.8 1.5-3 2-6.4 4.3-9.1 1-1.2-0.2-1.4-1-1.6-2.4-0.6-4.7-0.1-7-0.2-1.7 0-3.4-0.1-4.8-0.9-0.3-0.2-0.7-0.5-0.7-0.8-0.1-0.6 0.4-0.7 0.9-0.8 4.7-1 9.3-2 13.9-2.8 1.6-0.3 2.9 1.7 2.7 3.3-0.3 2.2 0.4 4.5 0.4 6.6 0.1 2.2 0 4.4-0.1 6.7-0.4 5.4 0.2 10.9 0.9 16.4 1.7-0.5 0.7-2 1.8-2.7 0.7 1.8-0.2 3.7 0.4 5.3 0.3 0.8-1.5 2.1 0 2 1.2-0.1 2.6 1 3.7-0.4 1.4-1.8 3-3.4 4.7-5 0.9-0.9 1.9-1.3 2.9-1.9 1.6-1.1 3.5-2 3.6-4.4 0-1 0.8-2.3 1.7-2 2.1 0.5 2.9-0.9 4-1.9 5.2-5 11.2-9 16.8-13.6 4.6-3.8 9.3-7.6 13.3-12.2 4-4.8 9.1-8.3 14.1-12-2.1 3.4-2.5 7.7-5.9 10.5-0.7-1.5 1.5-2.4 0.7-3.8-1.5 0.3-1.8 1.6-2 2.7-0.6 2.7-2.8 4.7-3.2 7.5-3.8 0.4-1.5 3.7-2.5 5.5-1.1 2.2-2.2 4.5-3.7 6.4zm51.3 176c-0.5-1.7-1.1-3.4-0.1-5.2 0.6 1.8 1 3.5 0.1 5.2zm15.6-254.8c-0.3-0.4-0.7-1 0-1.5 0.4-0.3 1-0.7 1.6-0.3 1.1 0.7 2.4 0.7 3.7 1 0 1-0.8 1.1-1.1 1.6-0.7 0.9-0.4 2.9-1.8 2.6-1.4-0.2-1.7-2.2-2.4-3.4zm-26.2-55.9c1.2 2.5 0.7 5.1 0.1 7.6 0.4-2.5-0.4-5.1-0.1-7.6zm-178.7 244.7c2-2.5 3.6-0.9 5.3 0.5-2.2 2.6-3.7 0.2-5.3-0.5zm17.1-24.2c0.8 5.7 0.8 11.4 1.3 17.1 0.1 2-0.1 4.1-1.9 5.5-1.2-0.7-2.3 0-3.3 0.5-3.1 1.7-5.9 1.1-8.5-1.1-6.6-5.4-6.4-3.3-1.4-9.9 3.6-4.8 6-10.1 8.1-15.6 1.3-3.5 2.8-7 4.6-10.3 1-1.8 0.8-3.9 2.2-6.1 0.6 4 1.2 7.5-0.4 10.8-1.5 3-1.1 6.1-0.7 9.1zm7.1-51.6c0.4 3-0.7 5.5-1.2 7.9-1.2 5.9-3.2 11.5-4.2 17.4-0.3 1.6 0.2 4.6-3 4.9-0.4 0-0.4 0.2-0.4 0.6 0.4 3 0.2 5.7-2.2 8.1-0.7 0.7-0.6 2.7-1.2 4.1-2 4.3-3.7 8.8-5.6 13.1-1.7 3.9-4.5 7.2-7.5 10.1 8.9-21.8 17.4-43.6 25.3-66.2zm21.6-2.6c-1-2.9-1.6-5.8 0-9.2 0.8 3.3 0.1 6.3 0 9.2zm-14.3-55c3.1-1.9 6.2-3.8 9.8-4.8 4.4-1.3 8.7-3.1 10.7-7.8 2.2-1.2 3.1-3.3 4-5.4 0.4-1 0-1.5-1.1-2.4-2.9-2.4-6.1-2.3-9.5-2.6 1.8 1.8 4.8 0.3 6.7 2.6-4.6 1-9.1 1.2-13.6 0.8-1.5-0.1-2.7-0.8-3.9-1.7-1.9-1.4-2.1-2.4 0-3.6 3.6-2.1 6.6-5 9.8-7.7 3.1-2.6 4.7-6.4 7.2-9.5 0.6-0.7 0.1-2.1 0.3-3.1 0.2-1-0.4-2.9 1.9-2.1 0.5 0.2 0.6-0.4 0.7-0.7 1-3.4 2.1-6.7 2.5-10.1 0.4-3.7-0.6-4.8-4.7-5.4-1.3-0.2-3 0.3-3.5-1.8-0.2-1-0.6-0.3-1.2 0-1.7 0.8-3.7-0.4-3.5-2.2 0.3-3.2 2-6.1 2-9.4 0-0.4 0.5-0.9 1.1-0.7 0.6 0.2 1 0.6 0.9 1.5-0.1 2.7 0 5.3 0.1 8 0-4 1.9-7.9-0.2-12-0.5-1 0.7-2.3 0.6-3.7-0.1-4.1 0.9-8.1 1.7-12 0.8-3.7 1.3-7.5 2-11.2 0.9-4.6 1.4-9.2 2.2-13.8 0.4-2.2 0.2-4.2-0.9-6.3-0.6 4.6-1.1 9.2-1.7 14.3-0.8-4.5-0.3-13.1 0.9-16.3 0.3-0.6 0.3-0.5 1.4-0.6 1.2-0.1 0.7-1.2 0.8-1.9 0.2-4 2.1-6.7 6.1-7.8 3.2-0.9 5.3 0.5 5.4 3.8 0.1 4.4-1.4 8.8 0.9 13.1 1.1-0.6 0.6-1.9 0.3-2.6-1.5-3.7 0.5-7.3 0-10.9-0.1-0.7-0.3-1.7 1.1-1.4 0.9 0.2 2.2 0.1 1.9 1.6-0.9 4.6-0.3 9.3-1.1 13.9-0.1 0.8 0.1 1.6-1 0.4-0.4-0.4-2.2 0.2-2 1.9 0.7 6.4 0.6 12.9 2.9 19 0.6 1.8-1.2 1.7-1.2 2.7q0 4.6 0 9.1c0 0.5 0.2 1 0.8 1 0.8-0.1 0.9-0.7 0.8-1.3-0.1-0.6-0.3-1.2-0.4-1.7 0-0.2 0.3-0.6 0.5-0.6 0.2-0.1 0.5 0.1 0.8 0.2-0.8 1.4 1.3 3.5-1 4.5 1.3 1.6 2.2 3.3 0.8 5.4-0.6 0.8 0.1 1.7 0.1 2.5 0 1.5 0.3 3.1-2.2 2.6-0.9-0.1-1.8 0.1-1 1.5 0.8 1.2-1.3 3.2 0.6 3.9 4 1.3 2.3 4.7 3.2 7.3 0.7 0 1.7-1.9 2.4 0.4 0.6 1.8 2.1 3.1 3.6 4.5 4.5 4.2 9.6 7.7 13.9 12.2 2 2 4.7 3.6 7 5.6 2.4 2.1 3.5 5.8 2.2 8.8-0.1 0.3-0.4 0.7-0.5 0.7-4.4-1.5-2.1 2.6-3.3 3.8-0.3-2.2-1.6-2.5-2.9-0.9-3.5 4.5-8.2 7.3-13 10.2-0.4 0.3-1 0.5-0.8 1.4 1.9 0 2.9-2.3 5.3-1.6-1.8 2.3-4.4 3-6.7 4.1-1.7 0.8-2.3 1.8-3 3.7-1.2 2.8-0.5 4.3 0.9 6.4 1.1 0.5 0-2.1 1.4-1.3 1 0.5 2.2 1.2 2.3 2.4 0.3 2 1.1 3.7 1.9 5.5 0.6 1.5 0.2 2.5-1.4 3.5-6.3 3.6-13.1 5.8-20.1 7.3-1.4 0.3-2.8 0.3-4.3 0.9-0.9 0.3-2.7 0.5-3-1.6-0.4 3.5-0.1 6.8 0.3 10.1 0.4 3 2.2 4.4 5.1 4.2 2.8-0.2 5.3-0.4 6.7-3.7 0.8-1.9 3.3-2.9 4-5.1 0.2-0.4 0.7-0.4 1.1-0.1 1.8 1.3 3.9 2.1 6 2.8 1.2 0.4 1.5 1.5 0.8 2.9-1.9 3.3-3.6 6.7-5.2 10.2-0.9 1.8-2.3 2.7-3.9 3.6-1.7-3.3 2.3-5.5 1.4-8.7-0.8 2.2-1.8 4.1-4.2 4.8-0.8 0.2-0.3 0.8-0.2 1.1 0.7 3.8 0.5 4.3-3.1 5.5-2.3 0.8-4.7 1.5-7.1 1.8-2.8 0.3-3.5-0.8-2.8-3.5 0.2-0.9 0.5-1.7 0.8-2.5 0.2-0.8 0.3-1.5 0.2-2.3-0.8 1-0.5 2.6-1.6 3.3-1.2 0.9-0.6 2.7-2.1 3.7-0.5-2.7 0.8-5.6-0.9-8-0.9 0.7 0 1.8-0.6 2.8-1.7-1-2.2-2.8-2.9-4.1-1.1-2.3-2.1-2.6-4.1-0.6 0.9-3.5 0.3-6.3-2.8-8-1 0.8 0.3 2.1-0.8 3.2-1.7-3.3-3.4-6.3-4.9-9.6-1.8-4.2-2.8-8.4-2.8-12.9 0-1.5 0.5-2.6 1.8-3.4zm27.9 95.8c-0.8-0.1-1.1-1-1-1.9-0.5 2.1 1.5 5-2.5 5.8-1.8 0.4-2.3-0.7-3.1-1.3-0.7-0.5-1-1.3-0.1-2.6 0.8-1.4 0.2-3.7 0.2-6.2-2 1.6-2.7 3.1-1.6 4.8 0.5 0.9-0.2 0.8-0.4 1.1-0.9 1.1-0.8-0.3-1-0.4-2.8-2.5-2.5-5.5-1.2-8.5 0.5-1.3 0.7-2.2-0.8-3.2-0.8 2.1-1.5 4-1.8 6-0.5-3.1-0.4-6.2 1.3-9 0.2-0.4 0.6-1.1 1.3-0.9 0.7 0.2 0.6 0.9 0.4 1.5-0.4 1.3 0.4 2.4 0.9 3.5 0.2 0 0.5 0.1 0.6 0 1.3-1 3.1-2.9 4.3-1.7 1.2 1.1 1.6 3.6 1.6 5.5 0.1 2.1 0.4 3.8 1.9 5.3-1.4-3.4-0.4-7.2-2.4-11.3 3.2 1.7 4.9 3.4 4.6 6.2-0.2 1.9 0.8 3.8 0 5.6-0.3 0.6 0 1.9-1.2 1.7zm-8.6-36.7c-0.1-3.2 0-6.4 0.1-9.6 0-1.8 0.7-2.9 2.6-3.1 2-0.2 3.9-0.7 5.8-1 1.8-0.2 2.7 0.2 2.3 2.4-1.4 6.8-2.7 13.7-3.8 20.6-0.4 2.4-1.1 3.9-4 3.1 1.5 0.2 2 1.3 2.4 2.4 0.1 0.3 0.2 0.6 0.1 0.8-0.1 0.2-0.7 0.3-0.7 0.2-0.9-2-3.4 2.4-4.2-1.3-1.1-4.8-0.5-9.6-0.6-14.5zm1.1-15c3.5-0.8 6.9-1.6 10.5-2.4-0.9 2.3-6.5 3.7-10.5 2.4zm39.8 104.4c-1.1 3.4-2.4 7.1-2.7 10.8-0.2 2.2-1.3 4.3-0.4 6.6 0.2 0.5 0.3 1.2-0.3 1.6-1.4 1.4-2.1 3.2-2.7 5.5-2-3-3.1-6-4.4-9-8.3-19.2-14.6-39-20.1-59.1-0.6-2-0.3-3.4 1.2-4.7 1.5-1.4 2.2-3.2 2.5-5.2 0.1-1.4-0.3-2.5-1.8-2.8 0.2-1.9 2-3.9 0.4-5.7-1.4-1.6 0.1-4.4-1.6-5.1-3.4-1.3-0.5-2.1 0.1-3 0.1-0.2 0.8 0 1.3 0 1.2 4.3 0.7 8.9 1.9 13 0.8 3.1 2 6.2 3.1 9.3 2.7 7.1 5.4 14.1 8.9 20.9 4 7.7 8.5 15.1 13.5 22.2 1 1.3 2 2.1 1.1 4.7zm-31.2-49c0.3-2.5 0.6-5 2.4-7-0.7 2.4-0.1 5.2-2.4 7zm86.1 30.9c1-0.2 1.9-0.6 2.8-0.9 1.1-0.4 2.5-1.8 3 0.2 0.5 1.7-0.4 3.1-2.3 3.5-0.4 0-0.9 0-1.5 0.1-0.6-0.1-1.3 0-2-0.3-0.7-0.2-1.5-0.5-1.5-1.4-0.1-1.2 0.8-1 1.5-1.2zm-71.5-266.4c0.3-0.7 0.5-1.7 1.5-1.3 0.8 0.4 0.1 1.3-0.1 1.8-0.8 2-1.6 4-1.6 6.7 0.4-1.5 0.7-2.5 1-3.5 1.2-3.8 2.8-6.6 7.5-7.4 4.1-0.6 7.9-3.1 11.6-5 4.5-2.3 9.3-4 14-5.9 3.6-1.4 7.1-2.8 10.9-4.3-0.9 1.9-1.7 3.8-2.8 5.6q-1.1 1.7 0.2 2.8c3.3 3.1 7.1 5.6 11 7.7 3.3 1.7 7 2.9 8.2 7.1 0.6 1.9 2 3.4 3.8 4.5 1.4 0.9 2.7 2.2 0.9 4-0.7 0.7-0.2 1.4 0.2 2.1 2.8 6.2 7.8 10.6 13 14.6 2 1.5 3.7 3.1 3.8 5.6 0.1 2.3 1.2 2.8 3.3 3.2 4.9 0.7 5.4 0.6 6.3-4 0.3-1.3 1-2 2.1-2.6 2.2-1.3 2.2-2.6 0.2-4.2-0.3-0.2-0.6-0.6-1-0.7-1.8-0.5-2.9-1.5-2.3-3.5 0.6-1.6 2.5-1.2 3.5-1.3 1.5-0.1 3.1 1 2.8 3.2 0 0.4 0.2 0.7 0.6 1 0.2-1.5 0.8-3.5-0.8-4.3-1.8-0.9-2.8-3.1-6.1-1.5-3.9 1.9-3.9 5.5-5.8 8.1-0.7 0.9-1.3 3.3 1.8 2.5 0.5-0.2 1.3 0.4 1.6 1 0.3 1-0.7 1.1-1.2 1.4-0.4 0.3-1 0.2-1.3 0.5-0.7 0.5-1 2.3-2 1.3-0.8-0.7-1-2.4-0.8-3.6 0.5-4 2.6-7.5 3.7-11.3 0.6-2.3 3.5-3.8 5.9-3.5 2.6 0.4 4.8 1.9 7.1 3.1 1.3 0.7 2.1 1.8 1.9 3.4-0.8 4.5-0.2 9.1-0.5 13.7 0 1.1-0.3 1.9-1.5 2.1-2.4 0.3-4.2 1.9-6.2 3.1-2.2 1.4-2.6 4.2-0.7 5.9-1.8 0.3-3.4 0.7-5 0.9-4.2 0.5-4.2 0.5-4.3-3.5-0.5 1.7 0.2 3.6-1.2 5 2.7 2.1 0 4.3 0.1 6.5 0.1 4.8-0.9 9.3-3.9 13.3-0.3 0.3-0.6 1.1-0.6 1.2 3.3 2 0.7 4.5 0.7 6.8 0.1 0.9-0.2 1.8-0.2 2.6 0.1 1.7 0.9-1.6 1.2 0.2 0.4 2.4 1.2 4.7 1.5 7.1 0.4 2.6-1.8 2.8-3.9 3.4 5.4-0.6 4.5 3.5 4.9 6.2 0.4 2.6 1.5 4.9 2.3 7.4 0.4 1.3 1.6 1.8 2.9 2.2 2.7 0.9 3.1 2.5 1.8 5-3.2 6-8.2 10.4-13.5 14.5-6.3 4.7-11.8 10.3-17.4 15.8-3.1 3.1-5.7 6.8-9.8 8.8-1 0.5-1.5 1.8-1.9 2.4-1.5 3.1-4.4 4.7-6.8 6.5-7.3 5.2-14.1 11-20.5 17.1-1.6 1.5-2.3 1-2.7-0.8-1.7-8.8-2.4-17.7-3.2-26.6 0.4 2.3 0.9 4.5 1.8 6.7-0.8-3.9-0.1-7.9-1.8-11.7-0.6-1.6-0.3-3.6-0.3-5.3-0.1-1.9 0.1-3.8-0.2-5.6-1.1-5 1-8.7 4.7-11.6 3.3-2.4 6.1-5.4 9.3-8.3 1 3.7 0.1 7.4 0 11.4 1.3-0.6 1.6-1.3 1.8-2 0.1-0.8-0.1-2.2 1-1.9 1.2 0.3 0.1 1.4 0.1 2.2 0 0.6-0.4 1.2 0.5 1.7 0.4-2 1.5-3.8 0.9-6.1-0.8-2.6 0.9-4.4 3.4-5.6 3.1-1.4 6.1-3.2 8.5-5.5 1.2-1 1-3.5 1.4-5.4 1.3 1.2 0.4 2.5-0.1 4.3 2.8-1.9 5.5-3.1 7-6 0.3-0.6 1.4-0.7 2.1-1.2 3.8-2.6 6.2-6.5 9.8-9.3 1.1-0.9 2.1-2.3 3.1-3.4 2-2.4 1-4.3 0-6.9-1.3 1.9 0.9 3.7-1 5.5-1.2 1.1-2 3-3.9 4.3 0.5-3.1 2.8-4.9 3.3-7.9-2.8 4.2-7.6 4.7-11.4 6.8-4 2.1-7.3 5.6-12.4 6.1 1-3 4.5-1.5 5.7-4.1-4 0.9-7.2 2.9-10.6 4.2-5.5 2.1-7.4 1.6-10.2-3.9-0.2-0.4-0.6-0.9-1-1-2.2-0.5-3.1-2.2-3.8-4-1.1-2.9-3.1-4.2-6.2-4.1-1.3 0.1-3.1-0.3-4-1.2-3-3.1-6.6-5.5-9.1-9.3-3.4-5.1-3.5-10.4-3.4-16.1 0-3.8 0-7.6-0.3-11.3-0.3-3.7 1.1-7.4-0.1-11.1-0.2-0.9-0.5-2-0.5-3.4 1.5 1.2 1.9 3.9 4.3 3.3 2.7-0.8 4.9-1.1 8 0 3.3 1.2 8.3-2.7 9-5.4 2.2 1.1 2.5 3.3 2.9 5.3 1.1 5.2-0.5 10.2-1.8 15.1-0.2 0.6-0.4 1.2-0.6 1.7-1.1 2.9-0.9 5.2 2.6 6.4 2.2 0.7 4.1 2.1 6.2 3 2.7 1 4.2-0.2 6-1.8 1.7-1.4 3.1-4.3 6.3-2.5 1 0.5 1.6-0.7 1.7-1.5 0.2-1.7 0.2-3.4-0.8-5.2-1.5 1.5 0.3 3.4-0.8 4.8-2.5-1.8-4.5-0.4-6.6 1.2-1.2 0.9-2.1 2.8-3.7 2.5-2.5-0.5-4.2-2.6-6.4-3.8-0.6-0.3 0.1-1.1 0-1.6-0.5-6.1 2.3-11.8 1.9-17.8-0.2-3.4 0.3-6.8-0.5-10.1-3.4 1.1-3.6 1-3.3-2.5-1.9 2.2-3.2 1.2-4.6-0.3-1.2-1.4-3.4-1.6-4.1-3.7-0.1-0.2-1.3-0.2-1.9-0.1-2.7 0.5-5.1 1-8 0.6-1.6-0.2-3.4 1.1-4.8-1-0.1 0 0.1 1.4-0.9 1.5-0.1-0.1-0.4-0.2-0.4-0.3 0.7-5.9-0.4-12.1 1.9-17.9zm9.7 124.6c0 2 0.1 3.9-1.2 5.5 1.6 1.1 1.7-0.9 3-1 0.7 3.4 0.3 6.9 0.3 10.8-1.3-1.5-1.4-3.2-2.1-4.5-1.6-2.8-3.2-5.5-5.3-7.9-1.2-1.5-1-2.6 0.8-3.4 1.3-0.7 2.6-1.2 3.7-2.3 0.5-0.5 1.3-1.2 1.8 0 0.2 0.4 1.2 1.7-0.8 1.4-0.6-0.2-0.2 0.9-0.2 1.4zm-0.2 18c0.3 0.8 0.1 1.6-0.9 1.8-2 0.4-4 0.9-6.7 1.5 1.9-2.1 4.1-2.4 5.8-3.5 0.7-0.4 1.5-0.8 1.8 0.2zm64.4 24.2c-1.6-0.9-2.9-2.5-4.6-3.1-2.4-0.8-2-3.7-4.1-4.6-0.1 0 0.3-1.1 0.5-1.6q2.6-4.8 5.2-9.6c0 4-3.6 6.7-3.5 10.8q4.5-8.6 9.1-17.2c0.2-0.4 0.2-1 0.6-1.3 2.7-2.1 3.3-5.5 5-8.1 0.7-1.1 0.7-1.9 0.1-2.9-0.2-0.2-0.4-2.3 0.9-0.4 0 0.1 0.5 0 0.7-0.1 1.7-0.6 4-4.7 3.9-6.7 0-0.2-0.2-0.5-0.2-0.5 3.1-1.1 2.7-4.5 4.3-6.6 1.8-2.2 2.3-5.3 5.1-6.9 0.2-0.1 0.4-0.6 0.4-0.6-1.1-0.9-0.4-1.8 0.3-1.9 0.7-0.1 1.4 0.7 1.9 1.5 0.2 0.2 0.4 0.5 0.4 0.8 0 6.3 2.3 12.6 0.5 19.1-1.5 5.8-2 11.8-3.5 17.6-1.6 5.9-3.1 11.7-4.8 17.5-1 3.4-4.4 3.5-6.9 4.5-2.2 0.9-4.6 1-6.8 1.7-2 0.7-3.2-0.6-4.5-1.4zm36.3-35.2c1-0.9 0.6-1.8 0.4-2.7-0.6-2.6-0.2-5 0.3-7.5 0.2-1.2 0.7-2.3 2.3-2.1 2.2 1.6 4.5 3.1 6.9 4.3 2.1 1.1 4.5 2 6.2 3.4 1.3 1 2.6 0.7 3.8 1.4 1.7 0.9 3.2 1.7 3.8 3.7 1.7-1.4 3-0.2 4.3 0.8 0.5 0.4 1.2 0.6 1.9 0.7 2.4 0.5 3.6 2 4.3 4.3 0.7 2.8 1.6 5.5 3.2 8 0.6 1 1.3 1.9 3.1 2.2-2-2.4-3-4.9-4-7.3-0.4-0.9-0.8-2.1 0.4-2.5 1.1-0.4 2.3 0.3 2.5 1.5 0.3 1.3 0.5 2 2.3 2.1 3 0.1 8.1 5.5 8.4 8.2 2.4-1.3 2.3-1.1 3.3 3 1.2 4.8 0.5 9.5 0.7 14.3 0.1 3.1-0.7 6.2-0.7 9.3 0 0.5-0.1 1.1-0.7 1.1-1.8 0.2-1.2 1.3-0.7 2 0.5 0.6 1.9 0.5 1.1 1.8-0.2 0.3-0.6 0.7-0.8 0.7-1-0.3-1-1.3-1.4-2.1-0.1-0.1-0.3-0.2-0.4-0.3-0.6 0.3-0.6 0.9-0.4 1.3 1.5 2.6 0.7 5.9 2.3 8.4 1 1.6-2.2 3 0.3 4.2-1.5 2.7 1.3 5.4 0 8.3-1.1 2.6 0.9 5.1 1.9 7.4 0.5 1.1 0.9 1.9 0.3 3-3 5.9-6.5 11.3-12.3 15-3.2 2.1-6.4 3.3-10.4 2-5.1-1.7-10.5-1.8-15.8-2.1-1.4-0.1-2.5-0.7-3.9-0.8 1.6 1.7 3.7 2.3 5.8 2.2 4.9-0.5 9.3 1.6 13.9 2.5 3.8 0.8 7 0.1 10.5-2.2 4.5-2.9 7.7-6.8 11-10.8 0.7-0.8 0.9-1.7 1.5-2.5 0.6-0.8 0.8-2.6 2.1-2.4 1.4 0.1 1.8 1.5 2.2 2.8 0.8 2.3 2 4.5 2.4 6.8 0.8 4.8 3.2 8.9 4.3 13.5 1.3 5.4 2.6 10.8 2.9 16.5 0.1 1.6 1.4 3.2 1.5 4.9 0.2 1.6 0.6 3.3-2.1 2.9-0.8-0.2-1.6 0.3-2.4 1 1.9 1.2 3.9 0.3 5.7 0.3 1.1-0.1 1.9 0.2 2.4 0.9 0.4 0.5 0.7 1.2 0.2 1.6-0.8 0.7-0.8-0.4-1.2-0.5-0.8-0.3-2.3-0.6-2.5-0.2-0.8 1.3 0.7 1 1.3 1.5 1.1 0.9 0.5 1.7-0.2 2.7-1.2 1.7-0.4 3.3 1.7 3.9-0.2 0.8-2.1 1.5 0.1 2.4 1.4 0.6 0.9 2.5 1.7 3.6 0.5 0.8-0.6 1.1-1.5 1.2-2.7 0.4-5.4-0.4-8.1-0.5-0.4 0-0.9-0.3-1.4-0.2-0.8 0.1-1.9 0.2-1.9 1.4 0 1.2 0.9 1.3 1.8 1.4 4.8 0.7 9.5 1.3 14.3 2 1.2 0.2 2 0.7 1.7 2.1-1.3-0.3-0.9 0.6-0.8 1.3 0.6 2.1 1 4.3 2.5 6.2 1.2-1 0-2.3 0.7-3.5 1 1.7 2.2 3.1 2.7 5.1 1.6 6.8 1.8 13.7 2.6 20.5 0.2 1.9 0.5 4.5-1.8 4.5-1.5 0.1-2.8-2.3-2.8-4.4 0-0.8-0.2-1.5-0.4-2.3-0.3-0.9-1-1.8-2.1-1.9-1.3-0.1-0.4 1.5-1.2 2-3.8-3.1-7.8-6.1-12.4-8.2-1.5-0.7-2 0.5-3.2 0.2-5.5-1.5-11.3-0.5-16.9-0.9-1.1-0.1-2.1 0.1-3.2 0.6-4.2 2-8.4 4.4-11.5 7.8-2.1 2.3-4.6 4.9-5.5 8.8-3-4.3-4.8-8.8-7.8-12.5-0.8-1 0.1-1.8 0.9-2.4 1.3-1 2.7-1.9 4.1-2.9 8.2-5.6 16.4-11.3 24.8-16.6 3.5-2.1 6.6-4.8 9.8-7.3 1.5-1.2 2.8-2.5 4.6-3 0.7-0.2 1.5-0.7 1.2-1.4-0.4-0.9-1.2-0.3-1.7 0-4.6 2.2-9.5 3.7-14.1 5.7 2.7 0.6 4.9-1.5 8-1.7-2.8 3.2-6.3 5-9.2 7.3-1.3 1.1-2.6 2-4.1 2.7-1.1 0.5-2.1 2.9-3.7 0.6-0.2-0.3-1.5 0.2-2 0.8-1.3 1.9-2.6-0.1-3.7 0.1-1.5 0.4 1.5 2.2-0.8 3.2-2.6 1.1-4.9 3.1-7.4 4.6-1.1 0.7-2.4 0.9-2.6-0.9-0.3-4.8-3-8.5-5.7-12.2-0.3-0.5-1.4-1-0.4-1.7 0.7-0.5 1.1 0.3 1.5 0.9 0.4 0.8 0.7 1.8 1.9 2-0.3-4.6-0.4-4.7 4.2-6.2 10.6-3.6 21.4-6.5 32.6-7.8 3.2-0.3 6-1.3 8.8-2.8 1.6-0.8 1.8-1.7 0.4-3.1-3.1-3.1-6.8-3.4-10.8-2.7-4.4 0.6-8.8 1.7-13.2 2.3-2.8 0.3-5.3 2.8-8 4.2-4.9 2.6-9.6 5.5-14 8.8-0.4 0.3-0.8 0.6-1.7 0.4 1.7-3.4-0.6-5.5-2.8-7.6-0.8-0.9-0.5-1.5-0.2-2.5 0.7-1.7 3.6-4.1-0.6-5.3-0.3 0-0.6-0.9-0.5-0.9 1.7-1.3 0.9-2.1 0.1-3.7-0.6-0.9-0.6-1.7-1.8-1.2-2 0.9-2.5-0.5-3.3-1.8-2.8-5.1-4.5-10.7-7.5-15.8-2.6-4.4-5.8-8.5-8.6-12.7-0.9-1.4-0.8-1.8 0.3-2.8 8.9-8.1 17.9-16.2 26.8-24.3 6.5-6.1 12.5-12.8 18.3-19.6 0.4-0.6 0.7-1.3 0-1.4-1.4-0.4-2.5 0.8-3.7 1.3-0.6 0.3-1.5 1-0.7 1.9 1.1 1.2 0 2-0.6 2.7-3.4 3.3-6.8 6.5-10.1 9.9-3 3.1-6.1 6.2-9.1 9.3-0.3 0.4-0.6 0.8-1.6 0.3 6.3-7.6 11.2-16.4 20.2-21.1-0.4-1.3-2.1 0-1.9-1.6-0.2 0.5-0.4 1.4-0.7 1.5-3.5 0.9-5.1 4.2-7.8 6.1-0.7 0.5-1.5 1.5-2.2 0.8-0.8-0.9 0.4-1.4 1-2 2.6-2.7 5.2-5.4 8.4-7.5 0.5-0.3 1-1.2 1.7-0.3 0.3 0.4 0.1 0.9-0.3 1.3 1.1-1.1 2.2-2.2 3.2-3.4 0.4-0.4 1-0.8 0.5-1.4-0.5-0.6-1.1-0.4-1.6 0-3.6 2.4-7.1 5-10.3 8-8 7.5-14.3 16.5-22.5 23.9-0.7 0.6-1.3 1.6-1.9 2.4-1.1-0.8-0.1-1.8-0.4-2.5-1.3 0.1-1.1 1.3-1.8 1.8-0.4-0.1-0.5-0.3-0.4-0.6 1.5-4.9 4.3-9.3 6-14.2 0.4-1.3 2.1-2.5 2.2-4.4 0.1-0.5 1.2-0.8 0-1.5-1-0.6-1.4 0.1-1.5 0.6-1.4 4.6-5.3 8-5.9 12.9-0.4 4.4-2.8 8-4.8 11.7-0.5 1-1.5 1.8-0.4 3-1-0.1-1.8 0.1-2.5 0.7-1-2.1 1-2.7 1.5-4 1-2.8 1.7-5.7 2.3-8.6 0.3-1.9 1.4-3.5 1.6-5.6 0.5-5.1-0.7-5.7-4.4-7.9-4.6-2.8-4.8-2.6-0.6-6.3q0.5-0.3 0.9-0.7c1 1.1-1.2 1.3-0.3 2.4 3.1-2.1 4.7-6 8.5-7.4-4-4.3-9.4-3.5-14.2-4.8-4.1-1-5.2-3.9-2.7-7.3 0.7-0.9 2.5-1.3 0.8-2.9-0.1-0.2 1.1-1.6 2.1-1.8 3.6-0.8 6.9-3.6 11-1.6 2.2-2.3 4-3 5.1 1.1 0.2 0.5 1.3-0.7 1.3-1.6 0.1-2.7-0.8-5.2-1.3-7.8-1.1-5.9-2.8-11.7-2.8-17.8 0-2 0.2-4 1.7-5.4zm-6.1-13.4q0-2.8 0-5.6c0-0.4 0.2-0.7 0.6-0.7 0.6 0 0.9 0.5 0.8 1-0.1 1.8-0.4 3.5-0.6 5.3q-0.4 0-0.8 0zm-17 54.9c-2.5-1.2-5.1-2.3-8-3.6 3.7-1.7 7.3-1.5 10.6-2.9 1.6-0.8 1.3 1.3 1 1.7-0.8 1.2-1.1 2.7-1.7 4-0.4 0.8-0.9 1.2-1.9 0.8zm-0.7 10.7c1.2-2.2 1.5-5.4 3.3-6.6 1.7-1.2 4.5 0.9 6.9 1.3 2.2 0.4 4.4 1 6.5 1.5 0.6 0.2 1.4 0.2 1.6 1-0.2 0.8-0.6 1.3-1.3 1.6-3.4 1.5-5.9 4.3-9 6.4-0.8 0.5-1.8 1.5-2.4 0.3-0.9-1.5-2.2-1.3-3.5-1.5-2.3-0.4-3.4-1.5-2.1-4zm-29.7 41.3c0.6-1.4 0.9-3.3 1.9-4.1 2.1-1.6 0-2.3-0.3-3.3-0.9-2.3 1.3-3.8 1.5-5.9 0.1-0.7 0.9-1.4 1.3-2.1 1 0.1 0.2 1.4 1.2 1.5 1.5-2.3 2.5-4.8 3.5-7.3 0.2-0.6 1.2-1.4 0.1-1.9-0.9-0.3-0.9 0.8-1.2 1.4-0.1 0.3 0 0.8-0.7 0.9 0-2.4 0.6-4.4 2.6-5.9 1 0.5-0.4 1.6 0.8 2.3 1.5-2.9 3.4-5.5 4.5-8.6 0.8-2 2-3.1 4.3-2 0.9 0.5 2 0.7 3 1.1 3.7 1.6 3.8 2.2 1.9 5.9 0.8-0.8 1.8-1.5 2.3-2.4 0.9-1.6 1.7-0.4 2.2-0.1 1.1 0.6 0.1 1.2-0.4 1.5-1.8 1-2.5 3.5-5 3.7 0.1 2-1.8 2.8-2.9 3.9-5.5 5.2-10.2 11.1-15.3 16.7-1.6 1.7-3 3.4-4.2 5.3-0.4 0.5-0.8 0.9-1.5 0.7-0.3-0.2-0.6-0.6-0.7-0.9-0.3-1.8 0.9 0.2 1.1-0.4zm-12.7 30.7c-1.3-1-3.4-1.2-3.7-3.3 0-0.5-0.1-1.2 0.8-1.2 1.2 0.1 3.7 2.6 3.8 3.7 0 0.6-0.4 1.1-0.9 0.8zm10.9 0.5c-1.8 0.4-3.7 0.3-5.8 0.3 0.6-2 0.7-3.5-1-5-1.2-1.2-2.2-2.8-2.9-4.3-0.5-1.1-0.4-2.3 0.4-3.6 1.1-1.6 3-2.4 3.7-4.4 0.6-1.6 1.6-0.2 1.9 0.7 1 2.6 1.8 5.3 2.7 8 0.6 1.6 1.3 3.1 2.5 4.4 1.5 1.8 0.8 3.3-1.5 3.9zm40.6-35.9c-4.6 8.1-7.9 17-14.4 23.9-4.5 4.7-9.8 8.5-16.6 9.7-2 0.3-2.8-0.9-3.3-2.1-1.5-3.4-3.6-6.4-5.2-9.7-1-2.3-1.7-4.8-1.7-8.1 0.6-2.2 2.7-4.2 4.3-6.4 3-4.3 7.3-7.3 10.7-11.3 3.5-4 7.7-7.3 11.5-11.1 2.9-3 6.1-5.7 9.5-8.1 0.6-0.4 0.9 0.1 1.3 0.2 8.2 2.2 8.2 2.2 5.3 9.9-0.5 1.3-0.7 2.7-1.5 3.7-1.4 1.7-1.2 2.4 0.5 3.9 1.5 1.4 0.4 4-0.4 5.5zm2.6 4.9c-0.5 0.5-1.1 1.4-1.8 0.7-0.5-0.5 0.4-1 0.7-1.6 1.3-2.3 3.9-3.2 5.3-5.4 3.3 1 4.1-2.3 5.7-3.9 4.1-3.8 7.6-8.4 11.6-12.4 3.2-3.2 6.8-5.9 10.7-8.3-8.5 11.1-16.4 22.8-29.4 30.2 0.1-1.9 1.5-2.4 2.1-4-2.3 1.2-3.3 3.2-4.8 4.7zm26.4 51c-0.6-0.5-1.1-0.9-0.7-1.7 0.5-0.8 1.1-0.4 1.8-0.2 2 0.6 2.2 2 1.9 4.2-1.2-0.9-2.1-1.7-3-2.3zm3 30.2c-0.5-0.1-1.2-0.8-0.9-1.3 0.7-1 1.8-1.2 3.4-1-1 0.9-1.1 2.3-2.5 2.3zm28.4 1.2c-3.1 2.3-6.7 3.7-9.5 6.4-0.7 0.6-1.4 0.8-2.1 0.1-0.6-0.8 0.1-1.3 0.6-1.8 2.9-3 6.7-4.7 9.9-6.7 1.1 0.3 2 0 2.2 0.9 0.2 0.8-0.6 0.7-1.1 1.1zm43.4-20.9c0.6-0.4 1 0.2 1.5 0.5 2.1 1.3 3.1 2.5 2.3 5.5-0.9 3.7 0.1 7.9-0.8 12.2-2-1.8-2.6-3.8-2.8-5.8-0.3-3.7-0.3-7.3-0.4-11 0-0.5-0.3-1.1 0.2-1.4zm0 26.7c-0.8-1.9-0.4-3.4-0.5-5 2.9 1.5 2.9 1.8 0.5 5zm-5.7-29.2c0.4-0.5 1.1-0.1 1.6 0.1 1.4 0.5 2 1.5 1.7 3.3-0.2 0.5 0.5 1.9-0.8 2.2-1.1 0.2-0.8-1.4-1.4-1.9-0.2-0.1-0.2-0.3-0.3-0.5-0.3-1.1-1.5-2-0.8-3.2zm-2.4-7.4q-0.8 0.2-1.6 0.5c-0.1-0.8-0.9-1.5-0.4-2.4 1-2.1 1.5-4.4 3.3-6.3-0.2 2.9-2.2 5.3-1.3 8.2zm-4-13.9c1.1 0.5 2.2 0.9 3.2 1.4 1.3 0.6 1.8 1.7 0.9 2.8-1.1 1.6-1.7 3.5-2.8 5.7-1-3.2-2.5-5.7-2.7-8.7-0.1-1.1 0.1-1.8 1.4-1.2zm-3.5 8.9c-0.6-1.9-1.3-3.8 0.6-6.2 1 3.4 2 6.4 3 9.5 0.1 0.4-0.1 1-0.7 1.1-0.5 0-0.6-0.6-0.9-1-1-0.9-0.3-2.9-2-3.4zm-80.7-147.2c1.5 0.1 2.3 0.9 2.4 2.4 0.4 6.5 0.2 13.2 1.5 19.6 0.5 2.8 1.7 5.9 2.5 8.9 1 4 0.9 4.1-3.1 4.8-2.8 0.5-5.5 1.1-8.4 0.8-1.7-0.2-2.1-0.8-1.6-2.5 1.3-4.7 2.2-9.6 3.7-14.3 0.9-3 1-5.9 1.2-9 0.2 0.5 0.4 0.9 1 2.2-0.3-4.8 3-8.6 0.8-12.9zm67.5 145.7c-12.3 1.1-24 5-36 7.8 6.7-4.5 13.5-8.8 21.4-10.7 5.2-1.2 10 0 14.6 2.9zm-7-3.9c3.3-1.5 6.6-1.9 9.7 0 0.8 0.5 2.2 1.1 1.4 2.4-0.7 1.1-1.8 1.1-3.1 0.4-2.5-1.2-4.7-3.4-8-2.8zm-73.1-174.1c0.7-1 1.4-0.1 1.9 0.2 4.7 3.7 9.7 6.7 15.1 9.1 2 0.9 1.2 3.4 0.6 3.6-2.4 0.9-1.9 3.1-3.2 5.6-0.5-0.9-1.1-1.5-1-1.8 1.4-2.8-1.4-3.4-2.5-4.8-1.4-1.7-1.9-3.7-3.8-5.2-2.1-1.7-4.7-2.5-6.6-4.5-0.6-0.7-1.1-1.3-0.5-2.2zm4.6 12c-4-1.9-6.7-5.3-9.6-8.5 3.7 2.3 7 4.9 9.6 8.5zm-31.3-101.8c0.3-1.2 1.2-0.5 1.6-0.3 3.9 2 8 3.6 13 4.8-5.8 1.9-9.9-0.4-14-2.7-0.8-0.4-0.8-1.2-0.6-1.8zm-64.3 151.1c2-1.1 3.9-0.8 5.9-0.6-1.5 3.5-2.2 3.6-5.9 0.6zm87.4-117.2q4.1-4.3 1.2-7.6c2.4-1.4 4.8-2.4 7 0.9-2.6 0.9-3.4 2.8-3.7 5.4-0.4 3.2-2.7 1.8-4.5 1.3zm-65.8 78c1.9-1.2 3.4-2.9 5-4.4 0.4-0.4 0.7-0.8 1.2-0.4 0.5 0.3 0.5 0.8 0 1.2-4.4 3.4-7.6 8-12.3 11 2.1-2.4 3.3-5.5 6.1-7.4zm-4.8-1.8c0.9-1 2.4-0.4 2.6-2 0.1-0.9 0.8-0.7 1.3-0.3 0.7 0.5 0.3 1 0 1.5-1 1.2-2.3 1.4-4 0.8zm18.8-11.3c-0.1-0.6 0.4-0.9 0.9-0.8 0.5 0 0.5 0.4 0.5 0.9q-0.5 3.3-1 6.6c-0.1 0.7-0.5 1.1-1.1 0.9-0.8-0.1-0.4-0.7-0.3-1.1 0.1-2.2 1.2-4.2 0.9-6.5zm3.6 1.3c0.3 0.3 0.3 0.4 0.4 0.4 0 1.2 0.3 2.4-0.5 3.3-0.4 0.4-0.8 0.1-0.9-0.3-0.6-1.3 0-2.3 1-3.4zm5.4 5.1c-5-2.4-3.5-5.7-1.8-9.2 2 2.9-1.7 6.6 1.8 9.2zm1.5-4.9c-0.6 0-1.6 0.4-1.4-0.2 0.5-1.3 0.3-2.7 0.8-4 0.2-0.6 0.6-2 1.7-1.6 1.3 0.4 0 1.4 0.1 2.1 0.2 1.4-0.9 2.4-1.2 3.7zm3.3-2.2c0.3-1.3 0.8-2.5-0.1-3.8-0.4-0.6 0.4-1.2 1.1-1.2 0.9 0 0.8 0.5 0.5 1.2-0.5 1.2 0.6 3.1-1.5 3.8zm-50.3-75.7c0.1-1 0.4-1.3 1.4-1.4 3.6-0.3 7.3-0.5 11-0.4 3.7 0.1 6.9 1.2 8.8 4.7-5.8 0.3-11.5 0.5-17.2 0.8-2.9 0.2-4.2-0.9-4-3.7zm-14.6-29.6c-1 0.9-1.9 1.8-3.1 2.9-0.4-2.8 0.7-3.4 3.1-2.9zm-10.5 9.9c1.2-3 0.2-6.4 1.8-9.5-0.2 3.2 0.6 6.5-0.5 9.7-0.1 0.5 0.2 1.6-0.9 1.4-0.9-0.2-0.6-0.9-0.4-1.6zm0.5 12.2c-1.3 2.8 0.1 5.9-0.9 8.7-0.4-3-0.6-6 0.9-8.7zm-7.2 52.2c0.7 1.6 1.7 2.8 3.1 3.5q-4.5-0.9-3.1-3.5zm12 7c-1.7-0.1-3-0.9-4.2-2.6 1.7 0.3 3 0.6 4.4 0.8 0.6 0.1 1.2 0.3 1.3 0.9 0 1-1 0.9-1.5 0.9zm-0.2 40.8c1.6 2.8-2.1 3.7-1.5 5.8-2.5 0.4-3 3.2-5.2 4.2-1.4 0.5-2.6 1.4-4.3 1.4 4.3-3.1 7.9-6.9 11-11.4zm-7.5 56.4c-1.5-1.6-3.2-3.2-2.3-6.2 1.8 1.5 1.8 3.9 3.7 4.9 0.3 0.2 0.6 1.2 0.1 1.6-0.5 0.6-1.1 0.1-1.5-0.3zm17.1-16.2c-2.6 1.5-4.1 0.6-4.1-2.4 0-3.2 3.8-6.2 6.9-5.4 0.5 0.2 0.6 0.4 0.6 0.8 0.4 1.7-1.8 6.1-3.4 7zm-6 2.3c-2.1-2.2-1.6-5-1.6-7.6 0-0.8 0.9-0.7 1.4-0.6 0.8 0.2 0.4 0.7 0.3 1.1-0.6 2.4-0.6 4.7-0.1 7.1zm-30.3-17.9c0-0.8-0.3-1.8 0.6-2.4 0.3-0.2 0.7-0.1 1.1-0.1 0.1 0.1 0.3 0.6 0.3 0.7-1.8 2.2-0.7 4.3 0.1 6.4 0.5 1.5 0.7 3.1 1.1 4.7-1.7-3-2.9-6-3.2-9.3zm0.6 41.9c0-0.4 0-0.7 0.1-1.7 0.9 1.7-0.1 3.5 2 4.4-0.2-2.6 0.4-5.2 0.3-7.6-0.1-4.2 1.1-8.1 2.2-12 0.6-2.1 1-4.1-0.4-6 4.9 4.4 7.7 11.2 6 15.7-1.8 4.9-2.6 10-4.2 14.9-0.6 2.1-1.3 4.1-2.7 5.7-1 1.1-1.2 2.4-1.6 3.7-2.6 7.5-5.1 15-8.5 22.2-0.9 0.1-1.6 0.2-1.2-1.2 2.8-8.1 4.3-16.6 6.8-24.9 0.8-2.5 0.9-5.2 2.1-7.8 0.7-1.5-1.3-3.4-0.9-5.4zm-6.3 44.3c-0.2-2.1-0.4-3.6-0.5-4.9 0.9 1 1.7-0.2 2.9-0.1-1.2 1.3-1.3 3-2.4 5zm-24.6 37.6c-0.7-0.8-1-1.4-0.3-2.2 1-1.1 1.9-0.2 2.2 0.4 1 1.5 3.2 2.8 1.7 5.2q0 0-0.1 0c-0.7-1.6-2.4-2.1-3.5-3.4zm-10 54.8c-2.2-2.6-0.4-4.3 1.4-6.8-0.1 3.3 0.9 6.1-1.3 8.5 0-0.6 0.2-1.4-0.1-1.7z"/><path  d="m127.8 5.9c-3.4 2.5-7.2 4.1-10.8 6.1-6.5 3.6-13.2 6.9-19.8 10.4-0.7 0.3-1.7 1.4-2.3 0.4-0.6-1.2 0.9-1.2 1.6-1.6 3.6-2.5 8.4-3.3 11.7-6 5.2-4.2 12-5.2 16.9-9.5 0.7-0.6 2.1-1.8 2.8 0.3l-0.1-0.1z"/><path  d="m11.3 375.8c-1.6-0.6-1.8-1.5-1.1-2.6q4.7-8.3 9.5-16.5c0.3-0.5 0.7-1 1.1-1.4 0.3-0.3 0.7-0.4 1-0.1 0.3 0.4 0.1 0.7-0.1 1-2.8 4.8-6 9.3-8.3 14.4-0.7 1.7-2.8 2.8-2.1 5.2z"/><path  d="m127.9 6c0-0.4-0.1-1 0.1-1.1 3.9-2.1 7.5-5.4 12.5-4.8 0.6 0 1.6-0.1 1.6 0.8 0 1.2-1.2 0.8-1.8 0.7-3.1-0.7-5.5 0.9-7.8 2.3-1.6 1-2.9 1.8-4.7 2l0.1 0.1z"/><path  d="m55.8 370.8c-1.1-2.1 0.3-4 0.3-6 0-0.5 0.8-0.5 1.2-0.3 1 0.6-0.1 0.8-0.1 1.1-0.4 1.7 0.1 3.5-1.4 5.2z"/><path  d="m34.6 337.4c1.3 1.2 3.7 2.3 1.1 4.2-0.4 0.2-0.3 0.6-0.1 1 0.3 0.4 0.8 0.8-0.1 1-0.6 0.1-0.9-0.2-0.9-0.9 0.1-1.7 0-3.5 0-5.3z"/><path  d="m57.8 359.4c-1-2.7 1.9-4.3 0.5-6.4 0 0 0.5-0.4 0.7-0.4 0.6 0 0.7 0.5 0.7 1-0.1 1.9-0.8 3.6-1.9 5.8z"/><path  d="m237.1 159.3c-0.1 2.6 0.5 5.2 0.6 7.8-1.9-2.5-0.3-5.2-0.6-7.8z"/><path  d="m259.8 192.5q-0.3 2.7-0.6 5.5c-0.9-2-1.1-3.8 0.6-5.5z"/><path  d="m58.3 276c0.7 1.9-0.3 3.6-0.3 6-2-2.7 0.4-4.2 0.3-6z"/><path  d="m138.6 259.5q-1.2 3.5-2.3 7.1c0.1-2.6 0.2-5.3 2.3-7.1 0 0 0 0 0 0z"/><path  d="m125.8 315.2c-0.3 1.5-1.1 2.4-0.8 3.7 0.2 0.6 0.2 1.5-0.9 1.4-1-0.1-0.8-0.9-0.5-1.5 0.7-1.2 0.6-2.7 2.2-3.6z"/><path  d="m138.6 259.5c0-2.9 0.9-5.5 2.9-7.8q-1.5 3.9-2.9 7.8c0 0 0 0 0 0z"/><path  d="m147.9 115.8c-0.7 2.7-2.7 4.5-4.4 6.1-3.2 3-6.7 5.6-11 7.1-4.7 1.6-9.3 0.7-13.9 1.6-2.3 0.5-4.1-2.2-4.2-3.3-0.3-3-2.6-3-4.3-3.9-0.8-0.5-2.2-0.7-2.1-1.8 0.2-1.5 1.7-1.2 2.7-1 2.6 0.4 5.1 0.2 7.6-0.4 0.8-0.1 1.9-0.7 2 0.9 0 0.2-0.3 0.8 0.5 0.4 3.4-1.8 7.4-2.1 11.1-2.8 5.2-0.8 10.3-2.6 16-2.9zm-7.8 6c-6.4-0.1-11.6 4-17.7 3.6 4.8 2.6 15.3 0.5 17.7-3.6z"/><path  d="m155.2 67.3c-5-0.3-9.9 0.2-14.5-0.3-5.3-0.5-9.8 1.5-14.8 1.4-2.4 0-3.2-1.9-4.9-2.5 0.7-1.1 0.8-2.9 2.6-3 5.6-0.4 11.2-1.3 17-1.2 3.3 0 6.5 0.4 9.6 1.4 2.1 0.6 4.2 1.4 5.1 4.2z"/><path  d="m156.8 78.4c-0.2 0.8-0.2 1.8-1.2 2.1-0.8 0.4-1-0.5-1.5-1-1.4-1.7-3-1.4-4.1 0.7-1 1.8-5.7 3.5-7.5 2.7-0.2 0-0.5-0.1-0.5-0.3-1.3-5.4-5.3-3.1-8.6-3.2-0.6 0-1.6 0.9-1.9-0.2-0.3-0.9 0.6-1.2 1.1-1.7 3.3-3.1 7.4-2.4 11.2-2.6 3-0.2 6 0 9-0.1 2.2 0 3.9 1.4 4 3.6z"/><path  d="m132.5 86.8c4.7 0 8.2 3.3 12.4 4.6-1.9 0.9-7.1-0.9-12.4-4.6z"/><path  d="m167.9 127.5c0 4.8-4 7.1-6.6 10.3 1.5-3.9 5.2-6.4 6.6-10.3z"/><path  d="m104.6 92.2c1.4-1 2.8-2 4.2-3 0.5-0.3 1.1-0.5 1.5 0.2 0.2 0.5-0.2 0.9-0.6 1.2-1.3 1.2-3 1.7-4.6 2.3 0 0-0.5-0.7-0.5-0.7z"/><path  d="m117.3 184.4c1-1.3 1.3-2.8 1.8-4.5 1.3 3.1 0.7 4.6-1.8 4.5z"/><path  d="m216.1 232.7c0.5 1.8-0.4 3.3-1.3 4.6-2.9 4.5-4.4 9.6-7.1 14.1-0.4 0.7-0.6 1.6-2.2 2.5 3.5-7.6 6.8-14.5 10.7-21.1z"/><path  d="m212.6 235c-0.3-1.9 2.2-7.9 3.4-8.7 0.4-0.3 0.7-0.3 1 0 0.4 0.4 0.5 1 0.2 1.3-2 2.1-2.2 5.2-4.6 7.4z"/><path  d="m216.2 232.8c1.6-3.4 3.6-6.6 5.9-9.5-2.2 2.9-2.2 7.3-6 9.4 0 0 0.1 0.1 0.1 0.1z"/><path  d="m263 281.9c-1.3-2.1-1.5-4-1.7-6.4 1.9 3.3 2 3.8 1.7 6.4z"/><path  d="m249.1 335.5q-2.8 1-5.6 2.1c1.5-1.6 3.2-2.6 5.3-2.8 0 0 0.3 0.7 0.3 0.7z"/><path  d="m62.9 203.5c-0.9 3.8-1 6.8-0.8 10.2-1.6-1.8-1.3-7.1 0.8-10.2z"/><path  d="m86.5 102.8c0.9 2.6-1.2 4.8-0.6 7.3-0.4-1.3-1.7-2.4-1.1-3.8 0.3-0.7-1.3-2.9 1.3-2q0.3-0.7 0.5-1.4c0 0-0.1-0.1-0.1-0.1z"/><path  d="m149.3 212.1c1.1-1.2 2.2-2.4 3.8-4.2-0.6 2.7-2 3.7-3.3 4.7q-0.3-0.2-0.5-0.5z"/><path  d="m233.2 390.7c2.3-3.6 5.3-6.8 7.7-10.4 2.1-3.2 4.8-6.1 7.4-9.3-1.4-0.5-2.1-0.2-2.7 0.8-2.8 4-5.5 8.1-8.6 11.9-1 1.3-1.8 3.2-3.8 3.5-0.2 1.3-0.5 2.7-2.3 2.7q-0.7-0.1-0.8 0.4 1.6 0.2 3.1 0.4z"/><path  d="m164.5 260.8c-2.3 2.1-4.6 4.1-7.5 6.6 2-3.3 4.5-5.1 6.6-7.3q0.4 0.3 0.9 0.7z"/><path  d="m50.8 220.9c1.6 1.6 2.4 2.8 0 4.2-0.3-1.4-0.4-2.6 0-4.2z"/></svg>