<?xml version="1.0" encoding="UTF-8"?>
<svg id="Layer_2" data-name="Layer 2" xmlns="http://www.w3.org/2000/svg" viewBox="0 0 238.08 321.74">
  <defs>
    <style>
      .cls-1, .cls-2 {
        stroke-width: 0px;
      }

      .cls-2 {
        fill: #fff;
      }
    </style>
  </defs>
  <g id="Layer_3" data-name="Layer 3">
    <g>
      <path class="cls-2" d="M182.14,119.08s-.02-.02-.03-.03c0,0,0,0,.01.01,0,0,.01,0,.02.01Z"/>
      <path class="cls-2" d="M5.92,302.35c.47,4.65,1.14,9.28,1.78,13.9,39.49-.54,78.99-3.22,118.44-.43,4.38.31,8.45,1.55,11.92,3.61,1.89-.55,3.85-.9,5.82-1,.86-.04,1.71-.12,2.57-.19,1.89-.35,3.79-.69,5.68-1.06,4.36-.85,8.7-1.6,13.08-2.24-.09-.71-.04-1.49.2-2.33.1-.35.22-.69.35-1.01,0-.69.13-1.39.41-2.08-.73-3.75-.27-7.87-.2-11.61.05-2.45.08-4.89-.03-7.34-.04-.78-.35-1.97-.27-2.76-.04-.03-.1-.07-.13-.1-3.06-2.09-2.66-7.37.23-9.5.07-2.29.13-4.57.14-6.86.04-7.33,11.42-7.33,11.38,0-.02,2.92-.1,5.83-.21,8.75,1.33,1.93,1.26,4.72-.08,6.71.23,1.69.31,3.36.36,4.77.05,1.63.04,3.27.01,4.91,1.25.5,2.35,1.38,2.96,2.44.87,1.49.94,3.01.48,4.4.91,1.64,1.13,3.74.21,5.69-.82,1.73-2.53,3.38-3.65,4.88,9.22-.07,18.08,1.71,26.72,6.15.98.5,1.88,1.08,2.72,1.7,3.24-.02,6.49-.12,9.73-.34,1.58-.11,3.16-.27,4.75-.39.26-.02.49-.04.69-.05.23-.04.47-.08.77-.12.23-.04.45-.05.68-.08,1.34-1.04,2.63-2.15,3.85-3.35,4.33-4.26,4.33-9.46,2.08-13.56,3.33-6.06,5.09-12.74,4.07-20.32-1.43-10.62-6.59-20.86-10.39-30.83-3.77-9.9-7.59-19.78-11.28-29.7-1.63-4.38-3.2-8.78-4.48-13.28-.68-2.39-1.22-4.79-1.76-7.21-.15-.69-.26-1.16-.33-1.48-.19-1.6-.28-3.24-.32-4.84-.22-8.93,1.69-17.45-.38-26.34-2.05-8.8-7.54-15.51-14.86-19.79-.42-2.86-1.11-5.67-2.04-8.45,3.2-6.53,2.34-13.18-1.52-18.44-1.03.26-2.11.45-3.12.32-1.03,0-1.98-.26-2.87-.78l-1.15-.89c-1.12-1.03-1.6-2.55-1.67-4.02-.06-1.42.68-3.04,1.67-4.02.17-.17.37-.33.59-.49-.94-3.02-1.88-6.06-2.98-9.02-2.53-6.79-6.04-12.28-10.28-17.37-1.67-10-2.92-20.1-4.52-29.98-.2-1.22-.38-2.45-.56-3.68,3.07-3.12,4.99-7.24,4.46-11.67-1.1-9.24-4.43-15.25-11.95-20.71-.9-.66-1.89-1.17-2.94-1.55-1.16-1.78-2.47-3.47-3.96-5.01-5.14-5.31-12.27-8.17-19.15-10.38-7.61-2.45-16.16-3.98-23.86-1.05-5.77,2.2-9.94,5.51-12.82,9.82-5.59,2.43-11.17,4.85-16.76,7.28-.37.16-.71.36-1.05.55-8.01-.32-16.09,4.36-18.08,12.68-2.42,10.08-4.36,20.26-5.78,30.54-1.71,12.38-5.82,27.72,2.47,38.46,1.89,2.44,4.28,4.31,6.95,5.7-.29.27-.56.6-.78,1.04-1.87,3.73-3.73,7.47-5.86,11.06-2,3.37-4.29,8.15-7.89,9.91-.37.18-.66.44-.91.74-.34.05-.69.1-1.05.13-4.45.4-4.49,7.41,0,7,2.15-.2,4.2-.55,6.11-1.19,1.47.13,2.83.38,4.22,1.36.63.45,1.2.82,1.75,1.12-3.22,3.02-4.94,7.29-8.98,9.13-3.03,1.38-5.54,2.8-7.64,4.89-1.37,1-2.24,2.42-3,3.95-.82,1.68-.28,3.27.8,4.26-.9,2.96-1.2,6.24-.72,9.78.24,1.81.7,3.51,1.34,5.11-2.3,3.15-3.7,6.93-3.33,10.28.3,2.69.42,5.36.3,8.06-.02-1-.61,2.84-.68,3.12l-.36,1.09c-.04.08-.08.16-.13.26-3.2,4.98-6.38,10.2-9.24,15.39-6.39,11.58-11,24.28-13.31,37.31-.84,4.72-.11,9.8,2.18,13.89-5.24,11.85-6.89,23.91-5.6,36.8Z"/>
    </g>
    <g>
      <path class="cls-1" d="M26.91,310.62c1.25,1.16,1.36-.29,1.74-.83,3.9-5.56,5.05-12.3,7.71-18.4.52-1.19-.39-2.56-1.63-2.96-1.43-.46-1.34.97-1.8,1.85-1,1.94-2.3,3.7-4.31,5.76.33-1.98,1.92-3.47-.33-4.4-.28-.12.15-.38.16-.55.1-2.08.3-4.17,1.01-6.12,1.28-3.52.11-7.08.51-10.61-1.1,2.7-.75,5.51-.78,8.4.12-1.88-2.01-2.97-2.25-2.46-1.18,2.43-2.72.57-3.94.6-2.8.07-4.95,1.36-5.68,3.93.54.1.88-.2,1.22-.55,2.61-2.77,7.06-2.21,8.95,1.09.27.48.76,1.24-.09,1.18-1.69-.12-1.13,1.07-1.1,1.7.05,1.16.36,2.32.61,3.47.66,3.01.69,5.77-1.24,8.56-2.53,3.66-4.51,7.7-6.84,11.51-.86,1.4-1.64,2.85-2.4,4.31,1.32-.03,2.63-.05,3.95-.08-1.16-3.28,1.8-5.41,2.8-8.07.27-.71.82-1.31,1.38-2.19.99,2.85-1.18,4.15-2.41,5.61-1.19,1.41-.09,3.21-.69,4.62.88-.02,1.77-.04,2.65-.07.65-1.35,1.26-2.72,1.78-4.15.16-.45.68-.78,1.03-1.16ZM31.88,298.57l.57.23c-.77,2.04-1.47,4.12-2.34,6.12-.49,1.13-1.1-.06-1.67-.09.93-1.1,1.87-1.87,1.91-3.3.03-1.21,1.08-1.93,1.53-2.95ZM29.99,297.82c-.36,2.26-.94,4.37-3.7,5.01,1.27-1.72,2.48-3.37,3.7-5.01Z"/>
      <path class="cls-1" d="M1.84,302.77c3.61,1.54,5.38,4.95,7.72,7.9.64-.91.45-1.7.36-2.56-.1-.96-1.24-1.12-1.26-1.95-.03-.76.85-1.58-.19-2.34-.65.39.19,1.31-.75,1.65-1.97-2-4.41-3.5-3.95-7.22.89-7.18,1.31-14.41,1.95-21.62.1-1.14.52-2.04,1.78-2.5,1.35-.49,2.39-1.47,3.21-3.02-.94.08-1.61.12-1.89.76-.4.91-1.42,1.1-1.91.9-.93-.38-.26-1.37-.2-2.1.07-.86.24-1.71.42-2.55.94-4.56.06-3.99,4.75-4.6.78-.1,1.84-.56,2.35.34.45.8-.53,1.36-.83,2.05-.6,1.37-2.24,2.33-1.82,4.49,1.55-1.99,3.17-3.5,4.04-5.64,1.45,1.2,2.76,2.29,4.06,3.37-.77-2.26-2.86-3.44-3.83-5.55.69,0,1.45.24,1.85-.04,1.92-1.37,2.58-.13,3.32,1.35.33.67.94,1.66,1.49,1.71,3.07.27,3.93,2.51,4.79,4.86.11.3.58.54.94.66.4.14.43-.18.51-.54.48-2.31,1.07-4.6,2.2-6.93-.95.22-1.03,1.12-1.74,1.1-.61-.01-1.28-.24-1.82-.05-1.89.67-4.41-.23-5.09-2.03-.43-1.13-.61-2.14,1.12-2.58.84-.22,2.04-.23,2.54-1.3,1.54.67,3.54.76,3.81,3.11.06-1.18.39-2.25-.13-3.33-.9-1.86-1.06-3.8-.83-5.87.3-2.73.37-3.1,2.44-4.64.12-.09-.02-.46.07-.64,1.09-2.3-.09-4.69.48-7.07-1,.19-.42,1.88-1.63,1.39-.79-.32-.53-1.25-.57-1.91-.08-1.47-.25-2.98.43-4.39.16-.33.5-.73.12-1.06-1.38-1.2-.4-2.37,0-3.54,3.16-9.28,6.84-18.35,10.78-27.33.25-.57.49-1.17.62-1.78.86-3.99,1.51-8.04,2.62-11.96.45-1.61.46-3.46,1.71-5.39.57,2.36,1.56,4.39.83,6.12-1.11,2.63-.09,5.28-.9,7.99-.85,2.84.09,6.17-.02,9.28-.07,1.9,1.71,4.14-.88,5.76-.31.2-.09,1.45.73,1.72,1.16.37.46-.86.9-1.21.28-.22.3-.85.32-1.3.18-3.97.35-7.93.5-11.9.04-1.11-.17-2.26.65-3.9.59,5.14,2.21,9.45,2.36,14.05.06,1.99.59,3.81-.48,5.89-2.6,5.06-2.72,10.21.75,15.12.63.9,1.66,1.76,1.27,3.13-.99,3.5-1.53,7.09-1.48,10.7.05,3.81-1.77,7.31-1.49,11.14.19,2.61.22,5.25.13,7.86-.19,5.21-1.01,10.36-.97,15.6.05,5.55-.64,11.12-.87,16.64-.2,4.98-.94,9.84-1.4,14.76-.11,1.17-.23,2.35-.36,3.52.89-.03,1.79-.05,2.68-.08.05-1.08.11-2.15.15-3.23.28-6.26.97-12.49,1.26-18.75.39-8.39,1.98-16.67,2.98-25.01.38-3.16-.22-6.38.74-9.5.22-.71-.23-1.33-1.08-1.45-.01-.88.06-1.72-.34-2.65-1.32-3.09-.04-6.29-.03-9.44,0-1.62.61-3.24.78-4.87.19-1.88.95-1.79,2.13-.68.08-.89-.01-1.52-.97-1.66-.54-.08-.76-.52-.72-1.05.05-.63.65-.54,1.01-.79,1.87-1.26,3.97-.08,5.95-.59,1.06-.27,1.2,1.03,1.38,1.85,2.69,12.11,6.47,23.9,10.82,35.49,2.15,5.72,4.34,11.45,7.01,16.93,1.95,4.02,2.02,7.98,1.35,12.12-.56,3.46-1.3,6.89-1.88,10.34-.13.76-.25,1.53-.37,2.29.72,0,1.43,0,2.15-.01,1.13-4.85,2.23-9.7,2.12-14.79,2.16.21,1.77,2.65,3.66,2.95-.21-1.16-.65-1.99-1.18-2.85-.91-1.47-1.59-3.01-.68-4.8.24-.47.23-1.19.8-1.33.96-.23-.03,1.21.96,1.16.33-1.09.63-2.12-.12-3.27-.58-.89-.3-1.83-.02-2.89.78-2.93,1.17-5.95,1.82-8.92.5-2.25.61-4.56,2.03-6.62.71-1.03.55-2.65.84-3.99.11-.51.14-1.53,1.06-.44.15.18.49-.08.37-.26-1.57-2.44-.13-5.04.46-7.06.99-3.45.7-6.78.93-10.17.16-2.36,1.08-4.52,2.25-6.53.83-1.43.47-3.08,1.15-4.64.57-1.3,1.28-2.79,1.53-4.35.6-3.74,2.24-7.13,4.07-10.31-.62-1.14-1.56,1.05-1.82-.29-.12-.64.67-1.46,1.46-1.65.44-.1.92-.25.83-.57-.68-2.44,2.11-3.48,2.19-5.62.09-2.27,1.2-4.42,2.02-6.34.98-2.3,1.26-4.87,2.81-7.09,1.39-2,1.83-4.73,3.07-6.97,1.83-3.3,3.12-6.91,5.67-9.87-.34,2.03-1.7,3.75-1.63,5.93,1.27-2.86,2.53-5.74,3.82-8.59,1.22-2.69,2.5-5.35,3.72-8.03.5-1.1,1.16-.91,2.09-.5,3.63,1.59,6.56,4.36,10.21,5.92,1.13.48,3.02-.08,3.28,2.03.06.46.86.2,1.28.08,2.17-.65,2.1.64,1.68,2.02-.38,1.26-.89,2.49-1.48,3.66-1.44,2.86-2.83,3.29-5.79,1.92-4.54-2.1-6.65-1.41-9.39,2.57-3.48,5.03-4.95,10.95-7.46,16.4-2.45,5.34-4.29,10.9-5.49,16.7-.37,1.77-1.01,3.39-.63,5.23.11.51.12,1.17-.39,1.52-2.3,1.58-3.46,3.91-4.27,6.47-.14.46-.4.38-.71.2-.89-.51-1.55-.09-1.98.65-.99,1.68-.89-.52-1.5-.34-.06.32,0,.79-.21,1.02-2.62,2.95.53,5.37.76,8.05.02.2.79.47,1.21.47,2.22.02,4.4.08,6.56.85,1.84.65,3.73-.17,5.55-.54,1.35-.27,2.1-.09,2.91,1.12,1.11,1.65,2.21,3.36,4.17,4.29,1.15.54,1.94,1.71,2.28,2.9.77,2.71,3.01,2.61,4.93,2.46,1.87-.14,4.32.12,4.74-2.84.15-1.06.97-1.97.99-3.1.03-1.64-1.16-2.42-2.61-1.65-1.26.67-2.54,1.24-3.96,1.42-1.1.13-2.22,1.05-3.29-.12-1.45-1.6-2.4-3.47-2.98-5.53-.15-.54.35-.72.89-.81,3.43-.61,6.07-2.53,8.95-4.46,3.34-2.24,5.16-5.56,7.97-8.07.92-.82,1.12-2.04,1.61-3.08,1.33-2.82,3.26-5.06,5.82-6.8,1.04-.71,1.62-1,2.8.37,1.35,1.56,2.08,3.51,3.59,5.03.84.84,1.53,2.88,2.03,4.47,1.12,3.53,3.85,6.15,5.31,9.51.7,1.61,1.49,3.22,2.55,4.69,1.24,1.72.42,3.66-.07,5.53,1.3.09.66-1.26,1.57-1.4.08.07.32.17.39.34,1.18,2.84-1.11,4.9-1.68,7.35-.09.36-.77.52-.71,1.11.29,2.54-.94,6.66-1.67,9.18-.61,2.09-2.21,3.72-2.22,6.12-.01,2.03-.91,4.05-1.96,5.87-.54.94-.28,1.59.71,1.72,2.48.32,3.86,2.54,6.08,3.11-.18.96-.84.99-1.28,1.24-3.84,2.18-3.47,2.15-3.25,6.58.23,4.65.99,9.24,1.03,13.91.01,1.31.08,2.61.17,3.93,1.26-.19,2.52-.37,3.79-.54.62-.08,1.23-.15,1.85-.22-.75-3.59-.94-7.23-.97-10.9,0-3.19-.16-6.4.08-9.57.1-1.3.7-2.72,2.01-3.56,1.49-.96,1.18-1.6-.36-2.14-1.03-.36-1.97-.96-2.97-1.4-2.84-1.24-3-1.55-2.01-4.38,1.66-4.72,3.51-9.37,5.65-13.89.33-.7.61-1.69,1.59-1.37,1.12.37,1.75,1.49,2.46,2.38.19.24-.51.64-.94.86-2.33,1.2-2.36,1.7-.39,3.15,1.62,1.2,2.48,3.09,3,4.85.37,1.23,1.27,2.2,1.32,3.63.1,3.18-1.45,4.93-4.27,5.79-1.55.47-1.76,1.06-.53,2.2.63.59,1.54,1.2.87,2.38-.25.45.13,1.1.48,1.22,1.94.64,2.77,2.59,4.16,3.8,1.3,1.15,1.97,3.59,1.73,5.76-.04.34-.49.66-.12,1.03,2.47,2.49.6,4.25-1.03,6.02-1.13,1.23-2.28,2.44-3.43,3.66,1.63-.05,3.26-.04,4.87.02.17-.24.35-.47.51-.71.38-.54,1.15-.91.88-1.78-.17-.52-.44-1.11.39-1.3.26-.06.68-.01.83.16.49.56.29,1.23-.12,1.71-.55.66-1.12,1.3-1.69,1.94.6.03,1.19.08,1.78.13.78-1.61,2.19-3.62,2.9-3.82.79-.22.89.32.78.94.47-1.3.95-2.6,1.42-3.91-2.14-.37-2.59-1.5-1.69-3.55,3.81-8.69,11.28-12.55,19.88-13.93,6.28-1.01,11.66,2.62,16.81,5.93,1.15.74.07,2.44,1.51,3.02,1.64.67,1.72,2.93,3.41,3.37-.03,1.77-1.73-.76-1.5.72.21,1.4,1.53.42,2.38.56-.11.65-.3,1.22-.95,1.5-.31.13-1.4-.7-.77.52.17.33-.06,1.85,1.19,1.03,1.09-.72.95.25,1.09.74.28.97.3,2.07.76,2.94,1.36,2.63.06,4.24-1.87,5.77-2.05,1.63-4.08,3.29-6.12,4.94.1-.02.2-.03.31-.05,1.46-.23,2.9-.35,4.32-.39,1.22-1.23,2.47-2.44,3.88-3.48,1.44-1.05,2.74-2.94,1.95-4.86-.97-2.37-1.07-4.86-1.71-7.26-.21-.77.14-1.33.59-1.93,1.51-2,3-4.01,4.42-6.08,1.17-1.71,2.81-3.45.42-5.48-.19-.16-.29-.61-.23-.88,1.02-4.2.05-8.64,1.43-12.77.46-1.38.34-2.1-.94-2.83-2.21-1.26-3.85-2.87-2.89-5.82.21-.64.12-1.53-.51-2.27-1.39,2.1-3.43.35-5.13.99-1.76.67-1.71-.52-1.31-1.74h-.04c1.25-2.57,1.81-5.52,4.18-7.48.31-.26.34-.67.23-1.09-.87-3.49-1.84-4.24-5.72-4.34-.62-.02-1.28.19-1.86.04-1.48-.39-3.71-.8-3.38-2.51.34-1.79-.38-3-.74-4.46-.51-2.08-.98-4.16-1.47-6.24,1.67,1.97,1.84,4.65,4.11,6.96-.84-3.51-1.96-6.22-2.72-9.02-.99-3.63-2.45-7.08-3.54-10.68-2.21-7.31-4.59-14.55-6.16-22.05-.55-2.62.71-5.3-.71-7.76-.74-1.28-.63-2.7-.59-4.12.08-2.55.1-5.1.11-7.65.02-3.29-.03-6.56,1.7-9.57,1.05-1.83.88-3.69-.15-5.58-1.14-2.1-1.79-4.33-.83-6.73.53-1.32.36-2.26-1.36-2.34-.67-.03-1.15-.45-1.29-1.17-.3-1.53-1.37-2.79-1.39-4.37-.84-.12-.73,1.52-1.35.87-1.28-1.35-3.28-1.49-4.95-3.09,1.62.28,2.73.51,3.85.65.55.07.98,1.58,1.6.29.64-1.33-.79-1.11-1.34-1.29-3.28-1.06-7.01-.97-9.62-3.77-.03-.03-.24.14-.37.18-1.73.53-2.74-.51-3.12-1.87-.63-2.27-1.37-4.54-1.37-6.96,0-4.85-.38-9.7.6-14.52.16-.8.4-1.75-.9-2.03-3.07-.66-5.85-2.24-8.96-2.83-2.37-.45-2.5-.91-1.08-2.99,2.36,2.97,7.73,4.03,10.06,1.94-1.76,0-3.47.04-5.19-.01-1.64-.05-3.1-.59-3.81-2.18-.43-.96-1.04-2.06-.08-3.08,1.83-1.96,1.94-4.74,3.4-6.9.93-1.37-.52-2.08-1.44-2.75-.73-.53-1.29-1.6-2.52-.39-1.28,1.26-2.82.4-3.36-2,.91.72,1.83.84,2.26-.07.51-1.12-.79-.86-1.23-1.23-2.27-1.94-4.1-4.12-5.51-6.83-1.37-2.64-1.63-5.55-2.72-8.19-2.97-7.23-3.16-14.8-3.01-22.39.06-3.19.14-6.43-.21-9.54-.79-7.06-.7-14.03.75-20.95.33-1.6-.14-2.8-.91-3.88-.9-1.25-2.04-2.39-3.28-3.31-2.71-2.04-4.93-4.6-8.04-6.31-1.82-1-3.59-2.8-5.57-3.84-1.38-.73-1.91-1.43-1.69-2.83.35-2.16-.73-3.7-2.36-4.76-1.41-.91-3.12-1.54-4.69-1.91-6.28-1.5-12.2-4.35-18.66-5.08-2.08-.24-4.01-1.44-6.2-1.01,1.14,1.1,2.59,1.28,3.99,1.59,2.36.52,4.71,1.11,7.07,1.58,4.56.9,8.8,2.86,13.34,3.85,5.3,1.16,5.78,1.98,6.01,7.27.04,1,.4,1.64,1.27,2.04,1.15.52,2.63.92,3.39,1.62,3.41,3.17,7.02,6.28,10.68,8.91,3.79,2.73,4.27,5.5,3.77,9.26-.54,4.06-.81,8.11-.75,12.21.06,3.85,1.29,7.79-.69,11.55-.11.2.4.72.62,1.1.39-.65.75-.53.78.14.07,1.62.31,3.29-.46,4.81-.19.37-.82.56-.33,1.1,1.2,1.32.71,2.81.27,4.15-.46,1.4-.51,2.72-.31,4.15.23,1.64,1.53,3.38,1.46,4.44-.18,2.98,1.19,5.16,2.28,7.56.18.4.16.8-.11,1.11-.7.8-.23,1.21.44,1.66.56.37.51,1.14.81,1.59,1.26,1.85.82,4.16,2.21,6.21,1.07,1.58,2.37,3.24,3.35,5,1.61,2.92,4.04,5.35,5.27,8.5.13.33.84.59.05,1.31-1.4,1.28-1.72,3.29-2.15,5.07-.41,1.7-1.56,4.44,2.34,3.42.14-.04.34.3.55.38,2.28.93,4.44,2.19,6.93,2.54.91.13,1.59.59,1.35,1.53-.46,1.85-.11,3.71-.27,5.52-.32,3.86-.21,7.66.12,11.5.11,1.28.7,2.99-.18,3.79-.73.67-1.86-.64-2.65-1.39-.05-.05-.13-.07-.21-.08-3.91-.48-6.95-3.13-10.63-4.23-2.83-.85-4.61-4.01-8.01-3.84-.47.02.37-.96-.49-1.04-.71.57-.61,1.7-1.4,2.24-.15-2.11-.3-4.22-.46-6.35-.79.1-.51,1.35-1.71,1.3-.37-4.25.86-8.48.67-12.79-.34.07-.43.07-.48.11-.12.09-.31.21-.32.32-.13,2.85-1.62,2.26-3.3,1.35-4.35-2.33-8.61-4.79-12.56-7.77-1.3-.98-2.6-1.96-4.27-2.34.68.99,1.55,1.73,2.32,2.57.37.4.51.98.26,1.55-.18.41-.51.56-.94.49-1.56-.25-3.45-3.56-2.74-5.03.19-.4.3-.6.08-.95-.81-1.31-.96-2.64-.55-4.18.22-.81.26-1.91-.95-2.48-.49-.23-.6-1.55-.06-1.49,2.83.35.84-1.52,1.02-2.23.24-.91-.73-1.83-.48-3.1.66.53.35,1.56,1.17,1.75,1.45-1.78-.14-4.64,2.17-6.14.2-.13-.02-.44-.31-.45-1.4-.08-.88-.93-.7-1.68.36-1.56,1.02-3.61.81-4.64-.62-3.02,1.16-2.16,2.52-2.23,4.77-.24,4.85-.31,5.33-5.19.13-1.34.87-2.14,2.11-2.46,3.47-.88,4.97-3.17,4.89-6.66,0-.39.08-.78.13-1.17,1.03-6.99,0-9.38-6.03-12.67-2.63-1.44-5.61-2.29-8.47-.54-2.65,1.61-5.59,3.22-4.13,7.29.19.53.06,1.33-.73,1.54-.67.18-.99-.45-1.25-.87-1.03-1.64-2.31-2.7-4.26-3.35-1.54-.51-3.13-2.22-2.81-3.8.19-.97,2.48-1.37,3.97-.9,1.23.38,3.41-1.63,3.61,1.69-.12-1.72.14-2.87,1.84-3.18.45-.08.83-.54.71-1.07-.1-.45-.62-.62-.95-.51-3.19,1-5.72-.92-8.8-1.75,1.77-.29,3.24-.41,4.65-.78,1.35-.36,3.67-.03,3.64-1.81-.03-1.98-2.39-1.83-3.93-2.19-1.57-.37-3.43-.19-4.73-.97-5.37-3.19-11.36-5.05-16.69-8.37-3.39-2.11-4.59-7.97-1.43-10.69,1.06-.92,2.18-1.76,3.26-2.67.78-.66,2.5-1.2,1.73-2.27-.7-.98-1.63.59-2.46,1.02-1.49.78-3.15,1.92-4.7,1.17-.99-.48-1.3-.25-1.93.18-2.4,1.61-4.74,3.35-7.8,3.47-.28.01-.44.02-.68.36-1.72,2.37-4.44,3.4-6.99,4.26-3.11,1.05-6.21,2.05-9.1,3.59-.81.43-1.49,1.43-2.44.83-.94-.59.95-1.22.15-2.06-.98-.01-1.14.65-1.18,1.51-.03.57-3.5,2.79-3.77,2.44-1.77-2.3-2.27.21-3.29.82-.17-.41-.34-.81-.49-1.17-2.41,2.79-5.17.96-7.78.78-2.69-.19-5.29-.61-7.65-2.22.01,2.11-.56,3.86-2.59,4.8,0-1.52.29-3.12-.06-4.55-.98-3.99,1.3-6.69,3.45-9.43,1.01-1.28,2.29-2.37,3.57-3.39,1.92-1.52,3.66-3.29,6.64-2.58,2.03.48,4.1-.32,5.98-1.36.59-.33.94-.62.63-1.23-.36-.71-.86-.35-1.37-.07-1.06.58-2.01,1.53-3.35,1.36-3.16-.39-5.74.55-8.4,2.44-6.41,4.55-9.28,10.84-10.37,18.33-.66,4.56-.56,9.14-.77,13.72-.2,4.38-1.15,8.67-1.32,13.07-.15,3.85-.2,7.74-1.35,11.56-.8,2.64-1.11,5.47-1.5,8.25-.36,2.59.13,5.44-1.67,8.01-1.01,1.44-2.04,3.39-2.23,5.53,2.6-.92,1.96-3.77,3.69-5.63-.23,2.35-1.03,4.05-1.71,5.77-.27.68-.39,1.21.47,1.47,2.88.86,6.23.71,8.12,3.74,4.57-.72,3.77,1.25,1.88,3.77-.04.05-.02.15-.03.23-.57,4.63-2.83,8.54-5.34,12.31-2.19,3.28-4.88,6.14-8.41,8.01-1.83.97-3.88,1.13-5.06,3.51-1.06,2.14-1.57,2.2.88,2.79,1.01.24,1.79.86,2.8,1.13,4.1,1.11,8.2.92,12.32.32.53-.08,1.16-.39,1.52.17.4.64-.39.92-.65,1.34-2.39,3.78-6.36,5.7-9.84,8.18-.55.39-1.76.55-2.25.21-2.59-1.81-4.26.72-6.59.94.83.77,2.29.04,2.26,1.28-.03,1.07-.07,2.2-1.27,3.08-1.29.95-3.09,2.12-2.65,4.05.65,2.87.79,5.97,2.43,8.49,1.23,1.89,1.7,3.85,1.59,6-.38,7.63-2.1,15.01-4.62,22.18-1.95,5.52-3.05,11.28-5.31,16.72-1.45,3.49-2.58,7.22-4.06,10.65-2.64,6.1-4.4,12.5-7.12,18.55-2.14,4.76-3.88,9.72-6.58,14.22-1.56,2.6-1.48,3.02,1.13,4.83.45.31.92.63,1.27,1.03.39.45,1.29.7,1.11,1.37-.22.78-1.13.57-1.77.77-1.46.45-3.5.04-3.92,2.29-.68,3.63-1.36,7.26-2.18,10.87-.99,4.38-1.42,9.03-1.1,13.7.16,2.32-.54,4.88-2.06,7.03-1.77,2.51-1.44,4.61.72,6.59,0,0-.01.02-.02.03ZM51.04,272.46c-.5,3.87-1,7.74-1.5,11.61-.47-3.91.16-7.87.26-11.85.01-.48.05-1.02.7-.98.89.06.6.7.53,1.23ZM51.47,269.62c-.02.45-.4.7-.82.67-.49-.04-.59-.45-.52-.87.2-1.09-.27-2.43,1.35-3.23,0,1.26.03,2.35-.01,3.43ZM52.17,257.35c.23,1.72-1.17,3.05-1.21,4.76-.59-1.47-.15-2.96-.02-4.41.07-.73.7-.64,1.23-.35ZM130.69,257.64c.75-.18,1.48-.49,2.21-.74.86-.29,1.99-1.43,2.45.21.37,1.33-.32,2.47-1.86,2.75-.38.07-.78.06-1.24.1-.48-.05-1.05-.02-1.56-.19-.56-.19-1.25-.4-1.28-1.18-.04-.92.68-.81,1.28-.95ZM165.06,313.17c-.42-1.39-.9-2.78-.1-4.21.5,1.41.84,2.8.1,4.21ZM177.58,108.05c-.24-.38-.54-.86,0-1.23.37-.26.8-.59,1.29-.28.88.57,1.91.6,2.96.84.01.84-.61.89-.87,1.25-.52.72-.29,2.33-1.41,2.14-1.13-.19-1.36-1.75-1.97-2.72ZM156.52,63.02c.94,2.04.52,4.1.07,6.15.29-2.05-.33-4.1-.07-6.15ZM12.68,259.99c1.64-1.99,2.92-.68,4.31.39-1.76,2.09-2.95.17-4.31-.39ZM26.46,240.53c.64,4.58.68,9.2,1.05,13.79.13,1.59-.07,3.28-1.53,4.43-.98-.58-1.87-.02-2.63.39-2.53,1.38-4.78.83-6.84-.87-5.35-4.42-5.2-2.73-1.16-8.03,2.94-3.85,4.83-8.08,6.51-12.53,1.07-2.83,2.26-5.65,3.73-8.28.81-1.45.67-3.16,1.8-4.9.45,3.2.93,6-.36,8.64-1.19,2.43-.91,4.93-.57,7.36ZM29.6,227.02c-.17-1.74-.29-2.87-.4-3.98.69.87,1.36-.12,2.33-.09-.94,1.11-1.06,2.42-1.93,4.07ZM49.6,196.91c-.81-2.35-1.31-4.7,0-7.43.62,2.7.04,5.07,0,7.43ZM49.65,183.18c-1.19-1.3-2.6-2.54-1.87-4.97,1.47,1.17,1.43,3.12,2.96,3.96.28.16.48.91.13,1.28-.42.44-.92.05-1.21-.27ZM60.49,229.75c-.67-.12-.88-.82-.85-1.5-.4,1.63,1.22,3.97-2.02,4.63-1.42.29-1.8-.59-2.46-1.07-.55-.4-.78-1.02-.1-2.09.69-1.09.15-2.97.15-4.94-1.55,1.27-2.1,2.51-1.29,3.82.47.77-.11.66-.32.93-.72.9-.59-.23-.75-.38-2.24-1.98-2-4.41-1-6.83.42-1.02.54-1.73-.65-2.52-.6,1.63-1.2,3.15-1.45,4.81-.4-2.52-.32-4.97,1.03-7.24.23-.38.52-.9,1.06-.75.61.17.5.73.36,1.18-.34,1.12.34,1.94.73,2.85.18.02.37.11.45.04,1.07-.82,2.47-2.35,3.48-1.42.98.91,1.24,2.9,1.3,4.44.07,1.66.28,3.09,1.49,4.26-1.12-2.76-.28-5.82-1.95-9.07,2.62,1.33,3.99,2.72,3.74,5.01-.17,1.52.68,3.06-.04,4.49-.23.45.06,1.52-.91,1.34ZM53.52,200.23c-.07-2.58.04-5.17.08-7.75.02-1.43.57-2.35,2.15-2.52,1.55-.17,3.08-.53,4.62-.76,1.44-.21,2.21.16,1.87,1.91-1.09,5.51-2.13,11.03-3.04,16.58-.32,1.95-.88,3.16-3.25,2.53,1.2.15,1.59,1.01,1.92,1.91.08.21.17.49.09.64-.08.14-.56.22-.57.2-.69-1.66-2.75,1.86-3.38-1.05-.84-3.91-.39-7.8-.49-11.7ZM54.44,188.15c2.8-.63,5.59-1.27,8.47-1.92-.77,1.82-5.26,2.97-8.47,1.92ZM61.37,232.8c.27-2.02.5-4.05,1.91-5.7-.52,1.94-.07,4.18-1.91,5.7ZM86.49,272.21c-.93,2.7-1.93,5.66-2.18,8.71-.14,1.75-1.04,3.44-.34,5.27.15.39.21.95-.2,1.32-1.2,1.11-1.75,2.57-2.22,4.41-1.62-2.44-2.48-4.87-3.5-7.23-6.69-15.44-11.81-31.41-16.23-47.63-.43-1.59-.18-2.69,1-3.76,1.21-1.09,1.76-2.56,1.96-4.16.14-1.13-.18-1.99-1.39-2.25.18-1.55,1.56-3.16.32-4.61-1.12-1.3.03-3.54-1.29-4.08-2.73-1.11-.45-1.72.04-2.45.1-.15.69.02,1.08.05.93,3.43.57,7.09,1.5,10.43.69,2.48,1.61,5,2.54,7.45,2.16,5.71,4.36,11.39,7.15,16.85,3.18,6.24,6.86,12.14,10.87,17.86.75,1.07,1.61,1.69.88,3.8ZM123.78,171.49c-1.47,1.86-1.49,4.41-3.05,6.11-.85.93.56,2.12-.78,2.97-.58.36-.47.9-1.09.51-2.54,6.04-7.07,11.22-8.01,18.61-.62-1.3-.03-1.95-.7-2.74-.87,2.51-2.51,4.58-2.14,7.34.03.23.07.6-.04.68-1.7,1.08-1.2,3.42-2.88,4.71-1,.77-.96,2.79-2.26,3.76,1.51,1,.58,2.33,0,3.04-2.61,3.13-3.42,7.17-5.55,10.58-1.4,2.24-1.9,5.4-2.95,8.03,1.09.66,1.02-.75,1.76-.55.13.72.05,1.37-.59,1.84-.51.38-1.38-.42-1.67.41-.37,1.08,1.04.28,1.17.98.3,1.55-.19,3.15-.86,4.27-1.86,3.16-1.73,6.8-2.88,10.11-.47,1.35-.84,2.86-1.41,4.09-1.49,3.21-.94,6.82-2.37,9.99-.25.56.04,1.37.1,2.33-2.71-2.12-4.22-4.99-5.87-7.61-6.35-10.15-11.47-20.91-14.94-32.4-.83-2.76-1.68-5.62-1.79-8.46-.06-1.73.26-3.22-1.41-4.25.44-2.37-1.86-2.61-3.02-3.63-1.06-.93-1.04-1.45-.82-2.85.74-4.69,2.51-9.1,3.27-13.79.31-1.94.73-4.05,1.64-5.9.23-.46.68-1.02,1.12-1.13,3.07-.76,4.37-3.62,5.45-5.8,1.42-2.86,2.85-5.78,4.3-8.64,1.22-2.41,1.65-5.19,3.48-7.32.83-.97-.17-1.16-.83-1.32-1.86-.44-3.75-.05-5.62-.13-1.34-.05-2.68-.08-3.87-.77-.24-.14-.54-.42-.57-.66-.04-.48.38-.56.79-.64,3.73-.74,7.45-1.54,11.19-2.23,1.26-.23,2.32,1.4,2.16,2.67-.22,1.78.31,3.59.33,5.31.03,1.74,0,3.57-.12,5.36-.29,4.41.18,8.8.7,13.27,1.38-.41.62-1.68,1.5-2.23.58,1.46-.15,2.98.31,4.31.23.66-1.2,1.68.01,1.58.94-.08,2.1.81,2.98-.34,1.12-1.46,2.43-2.75,3.77-4.02.71-.68,1.54-1.03,2.31-1.54,1.33-.88,2.81-1.6,2.91-3.55.04-.8.62-1.81,1.41-1.59,1.62.44,2.31-.68,3.16-1.49,4.2-4.04,9.06-7.27,13.52-10.97,3.72-3.09,7.53-6.09,10.7-9.85,3.21-3.81,7.35-6.63,11.4-9.59-1.73,2.7-2.02,6.2-4.8,8.45-.5-1.21,1.21-1.93.55-3.11-1.17.22-1.42,1.27-1.6,2.19-.44,2.18-2.2,3.79-2.51,6.01-3.06.33-1.25,3.02-2.03,4.49-.93,1.76-1.75,3.6-2.98,5.15ZM72.66,166.88c1.56-.83,3.11-.61,4.73-.44-1.18,2.82-1.73,2.86-4.73.44ZM80.88,143.53c0,1.55.07,3.11-.97,4.41,1.29.86,1.42-.71,2.43-.86.54,2.79.22,5.58.24,8.75-1.04-1.24-1.09-2.58-1.71-3.64-1.29-2.22-2.54-4.44-4.22-6.4-.98-1.15-.8-2.02.6-2.74,1.03-.53,2.14-.95,2.99-1.83.39-.41,1.05-.94,1.45-.01.13.31.99,1.43-.63,1.12-.5-.09-.17.77-.17,1.18ZM80.75,158.04c.22.63.05,1.25-.79,1.42-1.6.33-3.2.69-5.35,1.16,1.55-1.68,3.27-1.91,4.64-2.79.55-.35,1.2-.64,1.5.21ZM132.52,177.48c-1.29-.71-2.33-1.99-3.67-2.46-1.92-.67-1.64-3.05-3.34-3.76-.02,0,.24-.83.45-1.23,1.37-2.6,2.75-5.19,4.14-7.78.05,3.26-2.84,5.44-2.82,8.75,2.45-4.63,4.9-9.25,7.34-13.88.18-.34.21-.84.47-1.05,2.17-1.69,2.7-4.39,4.09-6.55.56-.87.54-1.52.01-2.33-.09-.15-.25-1.79.72-.31.05.08.41.03.6-.05,1.35-.52,3.25-3.82,3.12-5.41-.01-.15-.12-.41-.11-.42,2.46-.87,2.14-3.6,3.44-5.28,1.4-1.8,1.88-4.28,4.06-5.56.17-.1.37-.51.37-.51-.91-.67-.36-1.4.22-1.51.61-.12,1.16.59,1.55,1.17.13.19.29.42.29.64,0,5.14,1.86,10.15.45,15.44-1.24,4.64-1.64,9.5-2.88,14.17-1.25,4.69-2.5,9.39-3.84,14.06-.78,2.72-3.52,2.81-5.57,3.66-1.71.71-3.68.75-5.45,1.35-1.6.54-2.55-.53-3.65-1.13ZM156.03,143.58c1.21.09,1.86.67,1.94,1.88.31,5.28.14,10.65,1.16,15.79.46,2.3,1.39,4.74,2.01,7.15.84,3.27.74,3.33-2.51,3.92-2.22.4-4.42.85-6.72.61-1.39-.15-1.69-.61-1.32-1.96,1.06-3.84,1.84-7.77,3.02-11.57.75-2.39.81-4.74.94-7.26.19.4.37.8.85,1.82-.29-3.9,2.41-6.91.63-10.38ZM156.84,138.33c0-1.49,0-2.98,0-4.47,0-.34.14-.63.52-.6.46.03.69.39.65.8-.14,1.43-.33,2.86-.49,4.3-.23,0-.45-.01-.68-.02ZM143.2,182.5c-2.04-.91-4.09-1.79-6.47-2.84,3-1.37,5.9-1.25,8.5-2.39,1.33-.59,1.05,1.08.84,1.39-.67,1-.86,2.17-1.36,3.21-.3.62-.76.97-1.51.63ZM142.62,191.17c.96-1.79,1.22-4.38,2.65-5.36,1.38-.94,3.62.74,5.53,1.09,1.77.33,3.53.75,5.27,1.21.46.12,1.14.11,1.27.78-.16.62-.48,1.06-1.01,1.3-2.76,1.22-4.8,3.46-7.25,5.11-.67.45-1.47,1.2-1.98.29-.71-1.26-1.73-1.07-2.82-1.25-1.81-.3-2.75-1.15-1.66-3.18ZM118.72,224.37c.47-1.13.68-2.64,1.53-3.3,1.68-1.29.01-1.83-.28-2.64-.67-1.87,1.1-3.09,1.25-4.76.05-.59.69-1.14,1.04-1.66.83.07.14,1.1.98,1.18,1.16-1.81,1.97-3.82,2.79-5.84.2-.5,1-1.18.06-1.55-.66-.26-.71.63-.91,1.1-.11.26,0,.66-.58.77-.01-1.95.48-3.61,2.11-4.81.75.44-.38,1.34.58,1.86,1.26-2.28,2.76-4.42,3.69-6.9.59-1.59,1.56-2.51,3.41-1.61.77.38,1.62.58,2.41.92,2.96,1.28,3.1,1.75,1.53,4.72.65-.65,1.49-1.2,1.91-1.97.67-1.22,1.35-.26,1.76-.02.84.49.07.91-.34,1.14-1.5.82-2.06,2.89-4.07,3,.09,1.64-1.39,2.31-2.26,3.14-4.43,4.21-8.25,8.95-12.36,13.43-1.26,1.37-2.41,2.73-3.4,4.28-.26.41-.63.77-1.16.55-.24-.1-.51-.42-.55-.68-.27-1.45.69.11.89-.35ZM108.48,249.07c-1.07-.77-2.76-.9-2.96-2.63-.05-.43-.11-.99.64-.93.92.07,2.98,2.09,2.99,2.95.02.48-.31.87-.68.61ZM117.24,249.47c-1.46.35-2.94.28-4.63.31.44-1.63.53-2.89-.82-4.1-1.01-.9-1.78-2.2-2.34-3.46-.38-.86-.32-1.84.35-2.88.84-1.3,2.34-1.9,2.93-3.52.46-1.27,1.3-.14,1.55.52.8,2.13,1.46,4.31,2.19,6.47.45,1.3,1.02,2.5,1.98,3.57,1.25,1.39.66,2.64-1.21,3.08ZM149.9,220.61c-3.67,6.52-6.34,13.7-11.58,19.22-3.63,3.82-7.88,6.86-13.33,7.8-1.65.29-2.29-.73-2.7-1.67-1.17-2.74-2.85-5.19-4.12-7.85-.87-1.84-1.37-3.85-1.41-6.46.46-1.78,2.16-3.39,3.44-5.18,2.43-3.42,5.92-5.88,8.64-9.05,2.81-3.28,6.22-5.93,9.25-8.98,2.37-2.38,4.88-4.58,7.63-6.51.46-.32.72.05,1.05.14,6.57,1.75,6.58,1.78,4.27,7.97-.38,1.03-.58,2.22-1.24,3.02-1.12,1.35-.95,1.89.4,3.09,1.25,1.12.36,3.28-.31,4.47ZM152.05,224.53c-.44.41-.91,1.17-1.51.57-.39-.4.34-.84.59-1.27,1.05-1.84,3.17-2.59,4.25-4.35,2.7.76,3.3-1.9,4.58-3.12,3.3-3.13,6.13-6.76,9.34-10,2.57-2.59,5.51-4.78,8.64-6.73-6.83,8.96-13.17,18.4-23.65,24.37.06-1.57,1.21-2,1.66-3.25-1.82,1-2.65,2.61-3.89,3.77ZM173.34,265.57c-.49-.34-.92-.69-.54-1.32.37-.63.89-.36,1.44-.19,1.56.47,1.72,1.61,1.5,3.36-.94-.73-1.65-1.32-2.4-1.85ZM175.75,289.88c-.41-.02-.98-.59-.71-1,.53-.81,1.43-1.02,2.72-.84-.8.76-.85,1.91-2.01,1.84ZM198.62,290.86c-2.48,1.86-5.42,3.02-7.69,5.19-.5.48-1.11.65-1.63.02-.5-.62.04-1.01.42-1.38,2.39-2.42,5.45-3.8,8-5.46.91.31,1.64.04,1.79.75.14.62-.53.61-.89.88ZM233.51,274.08c.5-.34.81.15,1.2.38,1.75,1.01,2.54,2,1.91,4.42-.79,3.02.06,6.35-.66,9.8-1.64-1.41-2.1-3.02-2.24-4.64-.24-2.95-.25-5.92-.36-8.88-.01-.38-.24-.83.15-1.09ZM233.55,295.51c-.64-1.47-.32-2.7-.44-3.99,2.32,1.2,2.34,1.42.44,3.99ZM228.97,272.04c.28-.43.84-.11,1.28.06,1.12.44,1.56,1.24,1.34,2.69-.12.41.44,1.52-.6,1.72-.89.17-.71-1.05-1.2-1.49-.11-.1-.16-.27-.2-.42-.25-.85-1.24-1.58-.61-2.56ZM226.98,266.06c-.41.13-.83.27-1.24.4-.08-.65-.73-1.19-.35-1.94.83-1.64,1.21-3.52,2.67-5.07-.16,2.38-1.77,4.32-1.08,6.61ZM223.8,254.91c.85.38,1.72.71,2.56,1.12,1.02.49,1.42,1.34.73,2.28-.93,1.26-1.37,2.76-2.29,4.56-.8-2.62-2.01-4.63-2.17-7.01-.06-.9.14-1.41,1.18-.95ZM220.97,262.09c-.51-1.55-1.03-3.11.44-4.99.87,2.69,1.67,5.13,2.43,7.59.11.36-.04.85-.53.89-.46.04-.51-.49-.76-.75-.77-.79-.21-2.35-1.58-2.74ZM161.8,149.13c.78-.69.42-1.46.25-2.18-.48-2.05-.1-4.06.27-6.05.17-.92.61-1.82,1.85-1.67,1.79,1.28,3.6,2.46,5.59,3.47,1.68.86,3.56,1.56,4.97,2.71,1.02.83,2.09.61,3.06,1.13,1.36.73,2.58,1.41,3.03,2.99,1.41-1.1,2.41-.17,3.49.64.42.31.99.47,1.51.58,1.93.37,2.94,1.6,3.43,3.43.6,2.26,1.32,4.47,2.6,6.46.51.8,1.03,1.53,2.5,1.78-1.61-1.96-2.39-3.92-3.19-5.88-.31-.76-.64-1.67.34-2.01.87-.31,1.78.22,1.97,1.16.23,1.12.41,1.63,1.87,1.7,2.42.12,6.52,4.48,6.77,6.66,1.94-1.06,1.81-.95,2.66,2.38.97,3.84.35,7.67.52,11.5.11,2.54-.55,4.98-.58,7.49,0,.38-.04.88-.53.92-1.49.11-.98,1.04-.53,1.58.39.47,1.47.45.85,1.47-.14.24-.49.56-.66.52-.82-.19-.82-1.04-1.14-1.63-.06-.11-.22-.18-.33-.26-.44.24-.48.73-.32,1.01,1.25,2.12.57,4.81,1.85,6.78.84,1.29-1.75,2.44.24,3.36-1.14,2.23,1.1,4.35.05,6.74-.91,2.08.67,4.06,1.53,5.96.37.82.67,1.47.22,2.38-2.38,4.77-5.25,9.08-9.87,12.04-2.63,1.69-5.2,2.67-8.39,1.61-4.11-1.37-8.46-1.43-12.75-1.65-1.1-.06-2.01-.58-3.09-.65,1.26,1.38,3,1.88,4.66,1.74,3.94-.33,7.45,1.32,11.14,2.08,3.13.64,5.7.02,8.5-1.8,3.63-2.36,6.19-5.52,8.86-8.72.51-.62.74-1.38,1.15-1.96.5-.7.65-2.09,1.75-1.98,1.12.1,1.45,1.26,1.78,2.26.61,1.85,1.57,3.63,1.89,5.52.65,3.8,2.61,7.15,3.48,10.83,1.03,4.36,2.05,8.73,2.32,13.25.08,1.34,1.09,2.57,1.23,4,.12,1.26.47,2.63-1.68,2.28-.69-.11-1.33.3-1.94.86,1.51.98,3.09.25,4.56.19.93-.04,1.5.15,1.97.79.27.36.54.91.11,1.29-.6.53-.65-.35-.95-.46-.64-.23-1.82-.46-2-.18-.68,1.06.53.87,1.02,1.23.94.7.43,1.36-.12,2.16-.96,1.39-.34,2.65,1.35,3.14-.14.66-1.67,1.27.08,2,1.11.46.73,1.94,1.35,2.87.44.66-.5.88-1.16.97-2.21.29-4.35-.32-6.53-.41-.38-.02-.78-.21-1.14-.16-.67.11-1.51.13-1.54,1.11-.03.99.73,1.03,1.46,1.13,3.82.53,7.65,1.09,11.47,1.62.99.14,1.64.54,1.43,1.68-1.11-.21-.76.5-.64,1.04.41,1.73.79,3.48,2,5.02.92-.83,0-1.84.5-2.86.81,1.42,1.8,2.53,2.18,4.15,1.28,5.44,1.51,11,2.12,16.51.17,1.52.38,3.56-1.41,3.61-1.26.04-2.28-1.83-2.32-3.54-.01-.62-.1-1.26-.3-1.85-.26-.78-.83-1.45-1.65-1.51-1.11-.08-.35,1.2-.97,1.61-3.12-2.54-6.27-4.94-10.01-6.63-1.21-.55-1.57.42-2.54.15-4.46-1.24-9.11-.39-13.67-.71-.84-.06-1.69.03-2.51.44-3.39,1.67-6.78,3.57-9.25,6.29-1.72,1.89-3.72,3.96-4.47,7.12-2.37-3.51-3.82-7.09-6.23-10.07-.66-.82.08-1.49.7-1.97,1.05-.81,2.17-1.53,3.27-2.28,6.62-4.52,13.22-9.09,20.01-13.36,2.77-1.74,5.29-3.88,7.86-5.91,1.17-.92,2.23-1.98,3.73-2.38.56-.15,1.17-.56.93-1.14-.29-.72-.95-.23-1.4-.02-3.68,1.79-7.61,2.95-11.35,4.63,2.22.46,3.94-1.28,6.49-1.4-2.3,2.57-5.05,4.01-7.4,5.91-1.03.83-2.15,1.6-3.33,2.16-.87.41-1.66,2.28-2.98.43-.14-.2-1.21.15-1.61.71-1.02,1.47-2.08-.15-2.98.06-1.2.29,1.26,1.76-.63,2.55-2.12.89-3.95,2.47-5.93,3.71-.92.57-1.97.75-2.08-.69-.28-3.92-2.47-6.87-4.63-9.87-.27-.38-1.09-.79-.35-1.32.63-.44.95.24,1.22.71.38.66.61,1.45,1.56,1.57-.25-3.66-.29-3.79,3.36-5.01,8.55-2.85,17.24-5.19,26.22-6.2,2.58-.29,4.86-1.12,7.1-2.27,1.33-.68,1.45-1.37.33-2.49-2.48-2.5-5.44-2.75-8.68-2.24-3.56.55-7.06,1.43-10.66,1.88-2.24.28-4.23,2.27-6.39,3.4-3.96,2.06-7.73,4.41-11.29,7.1-.31.23-.62.49-1.39.26,1.4-2.73-.49-4.38-2.19-6.07-.71-.7-.48-1.19-.18-2.03.51-1.4,2.9-3.26-.54-4.25-.19-.05-.41-.72-.36-.75,1.38-1.01.75-1.71.05-2.93-.45-.79-.47-1.39-1.4-.98-1.62.71-2.07-.45-2.65-1.48-2.31-4.09-3.62-8.63-6.05-12.7-2.13-3.56-4.65-6.83-6.94-10.26-.74-1.11-.63-1.45.22-2.22,7.21-6.5,14.42-13.01,21.56-19.59,5.3-4.89,10.12-10.25,14.75-15.78.35-.42.58-1,.03-1.13-1.13-.26-2.01.64-2.96,1.1-.52.25-1.22.76-.62,1.47.88,1.03.05,1.62-.5,2.18-2.67,2.68-5.41,5.29-8.07,7.98-2.47,2.48-4.89,5.02-7.32,7.54-.28.29-.51.59-1.32.19,5.11-6.11,9.01-13.16,16.24-16.99-.27-1.06-1.67-.01-1.51-1.26-.18.42-.29,1.13-.56,1.21-2.8.75-4.13,3.36-6.28,4.91-.55.4-1.22,1.22-1.79.63-.65-.69.35-1.15.79-1.6,2.13-2.17,4.23-4.38,6.8-6.04.4-.26.8-.96,1.35-.26.25.33.08.74-.22,1.04.87-.9,1.75-1.77,2.59-2.7.28-.31.81-.68.36-1.18-.37-.41-.86-.26-1.28.02-2.91,1.96-5.69,4.06-8.27,6.46-6.47,6.01-11.55,13.32-18.12,19.23-.59.53-1,1.27-1.5,1.9-.87-.58-.1-1.39-.38-1.98-1.01.07-.87,1.09-1.43,1.44-.34-.04-.39-.26-.32-.49,1.24-3.94,3.52-7.43,4.83-11.37.37-1.12,1.68-2.07,1.8-3.55.04-.42.94-.7.01-1.25-.8-.47-1.11.13-1.23.52-1.11,3.67-4.28,6.39-4.72,10.38-.38,3.5-2.31,6.39-3.91,9.4-.41.78-1.22,1.48-.34,2.4-.73-.07-1.43.06-2,.55-.79-1.65.85-2.14,1.23-3.2.81-2.27,1.37-4.57,1.83-6.92.3-1.53,1.18-2.85,1.32-4.48.36-4.16-.55-4.62-3.51-6.39-3.78-2.26-3.87-2.11-.49-5.04.23-.2.47-.37.72-.56.79.85-.99,1.02-.28,1.88,2.51-1.7,3.79-4.8,6.83-5.9-3.17-3.53-7.57-2.86-11.4-3.86-3.3-.86-4.2-3.14-2.14-5.91.51-.69,1.98-1.08.63-2.36-.12-.11.89-1.24,1.63-1.4,2.92-.64,5.6-2.96,8.85-1.28,1.81-1.9,3.24-2.44,4.18.81.12.41,1.01-.51,1.03-1.27.06-2.15-.66-4.16-1.06-6.24-.93-4.76-2.26-9.46-2.27-14.37,0-1.6.13-3.17,1.41-4.32ZM210.35,260.85c-9.95.88-19.36,4.05-28.99,6.28,5.42-3.6,10.86-7.1,17.24-8.61,4.13-.97,8.04,0,11.76,2.33ZM204.72,257.68c2.62-1.15,5.26-1.47,7.8.05.65.39,1.76.85,1.1,1.92-.57.91-1.42.87-2.45.35-2.02-1.01-3.82-2.77-6.46-2.32ZM145.87,117.57c.57-.84,1.17-.1,1.51.16,3.78,2.93,7.82,5.38,12.19,7.32,1.57.69.98,2.74.46,2.93-1.93.72-1.56,2.49-2.57,4.49-.43-.78-.87-1.25-.77-1.46,1.1-2.25-1.15-2.78-2.06-3.88-1.09-1.33-1.51-2.99-3.07-4.21-1.69-1.32-3.76-2.01-5.25-3.56-.54-.56-.94-1.05-.44-1.79ZM149.59,127.19c-3.2-1.52-5.43-4.21-7.7-6.85,2.91,1.86,5.58,4.02,7.7,6.85ZM124.38,45.25c.24-.95.94-.39,1.31-.2,3.14,1.63,6.45,2.84,10.42,3.86-4.65,1.54-7.95-.32-11.25-2.21-.6-.34-.6-.93-.47-1.45ZM73.09,43.22c.24-.59.41-1.4,1.21-1.06.7.3.12.99-.05,1.44-.63,1.61-1.26,3.21-1.28,5.4.33-1.21.53-2.03.78-2.84.96-3.03,2.27-5.3,6.03-5.92,3.31-.54,6.34-2.5,9.39-4.07,3.62-1.86,7.48-3.21,11.24-4.72,2.86-1.15,5.71-2.3,8.74-3.47-.74,1.5-1.37,3.07-2.26,4.48-.58.93-.51,1.69.17,2.31,2.68,2.45,5.71,4.44,8.9,6.14,2.65,1.42,5.58,2.33,6.58,5.75.44,1.52,1.56,2.75,3.04,3.65,1.13.69,2.19,1.72.69,3.19-.55.54-.09,1.12.18,1.71,2.31,4.99,6.33,8.48,10.52,11.75,1.56,1.22,2.91,2.44,2.99,4.46.08,1.88.99,2.31,2.71,2.57,3.92.59,4.31.5,5.06-3.18.21-1.05.82-1.59,1.68-2.09,1.78-1.02,1.8-2.11.14-3.39-.25-.19-.49-.45-.77-.53-1.5-.42-2.39-1.27-1.83-2.88.44-1.26,1.98-.98,2.74-1.03,1.22-.07,2.54.8,2.32,2.59-.03.28.12.57.48.82.16-1.24.65-2.8-.69-3.49-1.41-.74-2.25-2.49-4.93-1.19-3.12,1.53-3.12,4.38-4.64,6.51-.53.74-1,2.67,1.43,2.01.46-.12,1.11.29,1.31.84.28.78-.52.85-.93,1.11-.31.2-.8.14-1.09.36-.55.42-.81,1.87-1.62,1.11-.61-.58-.74-1.98-.62-2.96.39-3.2,2.11-6.01,2.98-9.09.51-1.81,2.83-3.06,4.71-2.78,2.14.33,3.93,1.51,5.78,2.5.98.52,1.67,1.43,1.47,2.71-.58,3.66-.16,7.36-.36,11.03-.05.9-.24,1.52-1.23,1.66-1.95.27-3.4,1.56-4.97,2.56-1.78,1.13-2.09,3.33-.61,4.72-1.41.27-2.67.6-3.96.75-3.38.39-3.38.36-3.49-2.87-.39,1.41.2,2.94-.97,4.02,2.19,1.7-.02,3.49.05,5.24.14,3.86-.68,7.53-3.11,10.69-.22.29-.49.96-.45.98,2.6,1.6.54,3.68.58,5.52.01.7-.22,1.41-.19,2.11.06,1.35.72-1.35.96.14.31,1.92.93,3.79,1.21,5.72.31,2.11-1.44,2.21-3.14,2.7,4.38-.5,3.59,2.85,3.93,4.98.34,2.13,1.24,4.01,1.87,6,.34,1.07,1.29,1.47,2.32,1.79,2.15.66,2.48,2,1.43,3.97-2.59,4.88-6.55,8.39-10.87,11.68-5.02,3.83-9.47,8.31-13.96,12.76-2.48,2.46-4.62,5.45-7.89,7.07-.84.42-1.23,1.42-1.5,1.95-1.24,2.49-3.56,3.78-5.55,5.22-5.83,4.2-11.27,8.83-16.45,13.78-1.26,1.21-1.89.8-2.18-.68-1.36-7.06-1.93-14.22-2.56-21.39.34,1.82.72,3.62,1.4,5.36-.62-3.11-.06-6.35-1.38-9.43-.53-1.24-.25-2.84-.3-4.28-.06-1.49.14-3.03-.17-4.47-.86-4.04.8-7.03,3.82-9.3,2.67-2,4.93-4.42,7.47-6.75.84,3.04.1,5.99.04,9.21,1.03-.52,1.27-1.04,1.39-1.64.13-.64-.04-1.78.87-1.54.93.25.03,1.2.03,1.84,0,.44-.3.92.4,1.37.33-1.67,1.19-3.09.7-4.92-.57-2.12.8-3.55,2.81-4.51,2.43-1.16,4.86-2.58,6.8-4.41.93-.88.82-2.87,1.13-4.4,1.06.97.36,2.06-.05,3.49,2.22-1.58,4.39-2.55,5.57-4.82.26-.49,1.18-.6,1.73-.98,3.02-2.08,5-5.25,7.88-7.51.92-.72,1.66-1.84,2.46-2.76,1.68-1.9.87-3.46,0-5.49-1.05,1.5.73,2.99-.75,4.36-1.01.93-1.59,2.43-3.12,3.53.39-2.5,2.23-4.01,2.6-6.35-2.24,3.37-6.1,3.71-9.19,5.41-3.16,1.75-5.88,4.51-9.95,4.93.78-2.43,3.64-1.2,4.59-3.33-3.18.74-5.76,2.33-8.54,3.41-4.42,1.73-5.92,1.29-8.21-3.16-.17-.32-.49-.72-.8-.8-1.76-.4-2.51-1.73-3.07-3.22-.87-2.32-2.44-3.34-4.97-3.25-1.07.04-2.51-.28-3.2-.99-2.42-2.5-5.33-4.44-7.36-7.46-2.75-4.11-2.8-8.42-2.73-13.03.04-3,.05-6.05-.22-9.03-.27-3,.89-5.96-.05-8.97-.22-.71-.42-1.61-.43-2.75,1.23,1.02,1.51,3.17,3.43,2.65,2.18-.59,3.97-.89,6.44.02,2.67.98,6.66-2.14,7.22-4.34,1.79.85,2.06,2.64,2.38,4.25.84,4.21-.42,8.21-1.46,12.21-.12.45-.29.89-.46,1.33-.91,2.34-.73,4.19,2.04,5.12,1.77.6,3.3,1.74,5.06,2.43,2.11.83,3.32-.11,4.8-1.42,1.34-1.18,2.46-3.48,5.05-2.03.8.44,1.26-.56,1.35-1.22.19-1.36.2-2.75-.58-4.18-1.26,1.25.2,2.71-.65,3.91-2.06-1.46-3.68-.34-5.35.91-.97.73-1.68,2.27-2.94,2.04-2-.37-3.4-2.09-5.17-3.05-.47-.26.04-.87,0-1.31-.43-4.87,1.81-9.46,1.51-14.33-.17-2.7.25-5.44-.43-8.12-2.71.89-2.87.78-2.62-2.05-1.5,1.84-2.56,1.03-3.67-.23-.97-1.1-2.77-1.28-3.32-2.95-.06-.18-1.03-.18-1.55-.08-2.12.41-4.12.82-6.42.48-1.29-.19-2.75.89-3.89-.77-.05-.07.1,1.1-.68,1.19-.12-.08-.36-.19-.35-.26.55-4.79-.35-9.74,1.54-14.38ZM142.94,72.58q3.33-3.48.98-6.12c1.97-1.15,3.89-1.95,5.63.69-2.04.73-2.71,2.27-2.98,4.4-.31,2.52-2.11,1.44-3.64,1.03ZM90.05,135.35c1.47-.97,2.69-2.32,3.99-3.55.31-.3.55-.6.97-.34.43.27.39.68.02.96-3.53,2.73-6.09,6.5-9.93,8.92,1.74-1.94,2.68-4.48,4.96-6ZM86.12,133.9c.75-.78,2-.35,2.14-1.58.09-.71.65-.56,1.05-.27.54.38.26.83-.05,1.2-.79.97-1.79,1.12-3.15.65ZM101.18,124.83c-.05-.48.33-.72.76-.67.36.04.42.35.36.71-.26,1.77-.5,3.55-.73,5.32-.08.58-.43.87-.96.77-.63-.12-.25-.58-.19-.91.07-1.77.93-3.42.75-5.23ZM104.03,125.85c.21.26.29.32.3.38.06.91.29,1.86-.4,2.63-.28.32-.6.06-.72-.22-.47-1.07.01-1.9.82-2.79ZM108.35,129.98c-3.96-1.96-2.75-4.61-1.42-7.39,1.6,2.35-1.4,5.33,1.42,7.39ZM109.56,126.02c-.42-.02-1.25.31-1.08-.12.41-1.08.23-2.23.61-3.23.19-.51.48-1.61,1.35-1.34,1.12.34,0,1.13.1,1.71.19,1.16-.69,1.98-.98,2.98ZM112.23,124.24c.25-1.05.68-1.96-.03-3.03-.35-.53.26-1.01.88-.98.68.03.6.43.39.96-.4,1.01.46,2.47-1.24,3.05ZM71.75,63.3c.06-.8.33-1.01,1.13-1.09,2.94-.28,5.89-.44,8.85-.35,2.98.09,5.56.96,7.08,3.78-4.61.22-9.23.4-13.84.7-2.32.15-3.37-.78-3.21-3.04ZM60.03,39.48c-.82.77-1.53,1.45-2.51,2.37-.29-2.28.58-2.79,2.51-2.37ZM51.6,47.47c.94-2.45.1-5.19,1.41-7.62-.12,2.58.49,5.21-.37,7.76-.14.43.15,1.31-.73,1.15-.76-.14-.53-.72-.31-1.29ZM51.99,57.32c-1.07,2.21.08,4.72-.74,6.94-.36-2.4-.49-4.77.74-6.94ZM46.14,99.33c.6,1.28,1.42,2.22,2.53,2.81q-3.6-.71-2.53-2.81ZM55.82,104.93c-1.32-.1-2.37-.75-3.4-2.12,1.41.29,2.47.53,3.54.71.48.08,1.02.18,1.05.7.04.82-.77.74-1.19.7ZM55.67,137.77c1.29,2.25-1.66,3-1.17,4.72-2.03.28-2.46,2.59-4.22,3.32-1.11.46-2.11,1.15-3.45,1.17,3.43-2.54,6.34-5.55,8.84-9.21ZM38.03,152.63c2.5-1.57,4.99-3.06,7.92-3.9,3.52-1.01,7-2.43,8.62-6.22,1.74-.96,2.5-2.65,3.16-4.36.32-.82,0-1.22-.83-1.93-2.32-1.97-4.96-1.86-7.63-2.08,1.44,1.41,3.8.24,5.37,2.03-3.74.86-7.33.98-10.96.7-1.22-.09-2.17-.69-3.16-1.4-1.54-1.1-1.69-1.91.03-2.91,2.9-1.68,5.31-4,7.85-6.15,2.5-2.11,3.84-5.14,5.83-7.66.44-.56.11-1.68.27-2.51.15-.81-.36-2.36,1.53-1.65.36.13.46-.35.55-.62.81-2.68,1.68-5.36,2-8.15.33-2.95-.46-3.79-3.77-4.27-1.1-.16-2.43.18-2.81-1.47-.19-.83-.54-.25-.96-.05-1.42.68-2.98-.26-2.84-1.74.26-2.57,1.62-4.91,1.58-7.56,0-.35.43-.73.87-.57.52.19.82.5.79,1.23-.1,2.14-.04,4.28.09,6.42-.06-3.21,1.53-6.38-.21-9.65-.41-.78.55-1.87.51-3.03-.13-3.27.67-6.45,1.35-9.65.63-2.97,1.02-6,1.61-8.99.73-3.69,1.13-7.44,1.79-11.14.31-1.75.17-3.38-.77-5.05-.42,3.7-.84,7.41-1.31,11.51-.69-3.62-.26-10.52.73-13.12.17-.45.18-.37,1.09-.47.94-.1.59-.95.62-1.49.18-3.28,1.68-5.43,4.95-6.32,2.59-.71,4.28.43,4.32,3.1.05,3.48-1.1,7.02.72,10.51.86-.52.52-1.57.28-2.13-1.25-2.93.37-5.83-.04-8.74-.08-.55-.19-1.37.91-1.15.75.15,1.72.07,1.49,1.27-.72,3.72-.2,7.52-.83,11.25-.11.66.09,1.29-.83.31-.34-.36-1.77.12-1.61,1.5.58,5.14.48,10.41,2.3,15.32.53,1.44-.95,1.37-.96,2.2,0,2.43-.01,4.86,0,7.29,0,.42.21.81.69.78.63-.05.68-.54.59-1.04-.08-.46-.23-.92-.27-1.38-.01-.15.23-.41.4-.46.18-.04.42.11.63.18-.63,1.11,1.06,2.77-.84,3.58,1.09,1.32,1.84,2.68.66,4.36-.49.69.07,1.37.07,2.05-.01,1.17.25,2.49-1.75,2.1-.72-.14-1.47.08-.77,1.16.63.97-1.09,2.6.49,3.13,3.16,1.07,1.78,3.84,2.55,5.89.59.03,1.38-1.49,1.93.33.44,1.44,1.7,2.54,2.86,3.64,3.61,3.41,7.73,6.21,11.22,9.79,1.64,1.67,3.78,2.93,5.59,4.52,1.96,1.72,2.83,4.7,1.78,7.1-.09.2-.29.55-.34.53-3.56-1.19-1.72,2.1-2.72,3.09-.2-1.79-1.28-1.98-2.28-.72-2.84,3.59-6.65,5.88-10.46,8.2-.37.22-.87.45-.65,1.17,1.48,0,2.34-1.86,4.26-1.33-1.46,1.88-3.57,2.44-5.43,3.34-1.33.65-1.81,1.44-2.43,2.96-.9,2.21-.37,3.46.78,5.14.84.37-.05-1.7,1.08-1.07.82.46,1.79.98,1.92,1.93.21,1.6.86,2.98,1.46,4.42.51,1.22.2,2.08-1.12,2.85-5.06,2.92-10.52,4.69-16.17,5.87-1.13.24-2.26.28-3.41.71-.77.29-2.17.41-2.41-1.23-.33,2.77-.12,5.45.21,8.1.3,2.4,1.75,3.5,4.14,3.34,2.21-.15,4.25-.3,5.35-2.96.62-1.5,2.66-2.3,3.26-4.11.1-.32.52-.28.81-.07,1.48,1.06,3.14,1.69,4.85,2.29.95.33,1.24,1.21.62,2.32-1.47,2.68-2.88,5.39-4.16,8.17-.68,1.47-1.82,2.23-3.12,2.96-1.35-2.69,1.85-4.49,1.12-7.04-.66,1.75-1.47,3.28-3.38,3.85-.62.18-.2.63-.15.93.56,3.04.39,3.47-2.53,4.43-1.84.61-3.74,1.2-5.66,1.4-2.25.24-2.81-.62-2.28-2.81.17-.68.44-1.34.62-2.02.15-.59.24-1.19.18-1.86-.62.83-.4,2.08-1.28,2.71-.98.71-.47,2.15-1.7,2.97-.39-2.23.62-4.52-.71-6.45-.76.53,0,1.48-.52,2.22-1.35-.8-1.74-2.23-2.28-3.3-.92-1.82-1.68-2.04-3.35-.45.77-2.84.3-5.04-2.25-6.47-.81.68.29,1.69-.62,2.6-1.33-2.63-2.77-5.07-3.93-7.75-1.45-3.36-2.29-6.71-2.26-10.33,0-1.22.43-2.14,1.45-2.77ZM63.39,170.19c-2.07,1.16-3.26.44-3.29-1.97-.03-2.59,3.08-5,5.54-4.32.38.11.46.33.52.65.26,1.34-1.49,4.92-2.77,5.64ZM58.53,171.99c-1.69-1.79-1.24-3.99-1.22-6.08,0-.63.67-.55,1.11-.47.63.12.31.52.22.88-.5,1.88-.49,3.76-.11,5.67ZM34.19,157.59c-.05-.67-.29-1.46.47-1.92.22-.14.59-.12.86-.05.12.03.3.45.24.52-1.44,1.77-.57,3.44.08,5.19.45,1.2.63,2.49.93,3.74-1.38-2.38-2.37-4.82-2.58-7.48ZM34.64,191.33c.06-.29.04-.6.08-1.35.76,1.33-.07,2.81,1.6,3.52-.14-2.12.33-4.16.29-6.11-.07-3.41.83-6.54,1.74-9.7.48-1.66.81-3.26-.33-4.83,3.93,3.55,6.22,9.01,4.84,12.68-1.47,3.91-2.09,8.01-3.35,11.96-.54,1.7-1.04,3.35-2.19,4.65-.79.89-.97,1.89-1.32,2.92-2.05,6.05-4.08,12.1-6.81,17.89-.7.09-1.31.13-.96-.93,2.21-6.58,3.46-13.43,5.46-20.06.62-2.05.72-4.23,1.67-6.26.57-1.21-1.03-2.8-.72-4.4ZM32.2,199.02c.32,2.41-.56,4.37-.96,6.34-.95,4.7-2.56,9.24-3.43,13.98-.23,1.28.17,3.75-2.38,3.96-.29.02-.35.18-.31.47.34,2.44.13,4.61-1.81,6.57-.52.53-.42,2.17-.94,3.29-1.61,3.46-3.01,7.03-4.52,10.53-1.35,3.12-3.64,5.76-6.02,8.15,7.16-17.59,14-35.17,20.38-53.3ZM9.8,257.29c-.56-.63-.81-1.16-.21-1.82.73-.81,1.46-.15,1.76.34.78,1.26,2.59,2.28,1.31,4.18,0,0-.01,0-.02,0-.59-1.26-1.98-1.7-2.85-2.69ZM1.74,301.38c-1.76-2.1-.3-3.49,1.15-5.48-.09,2.68.7,4.92-1.02,6.83-.03-.46.11-1.07-.13-1.35Z"/>
      <path class="cls-1" d="M102.03,4.77c-2.7,1.99-5.78,3.28-8.7,4.88-5.25,2.89-10.6,5.6-15.92,8.35-.56.29-1.37,1.14-1.82.33-.53-.94.73-.93,1.23-1.27,2.96-2.04,6.79-2.69,9.48-4.86,4.16-3.35,9.62-4.11,13.59-7.64.55-.49,1.67-1.39,2.19.27l-.07-.06Z"/>
      <path class="cls-1" d="M8.26,302.54c-1.25-.52-1.41-1.21-.88-2.13,2.56-4.43,5.12-8.86,7.69-13.29.23-.4.53-.77.84-1.12.23-.25.57-.31.82-.03.25.28.05.52-.11.81-2.18,3.86-4.83,7.43-6.61,11.54-.59,1.37-2.32,2.24-1.75,4.22Z"/>
      <path class="cls-1" d="M102.09,4.84c.02-.31-.07-.82.07-.89,3.19-1.7,6.05-4.32,10.06-3.9.52.05,1.34-.03,1.32.65-.03.96-.96.67-1.48.55-2.47-.54-4.42.78-6.27,1.92-1.22.75-2.34,1.45-3.76,1.61,0,0,.07.07.07.07Z"/>
      <path class="cls-1" d="M44.07,298.48c-.87-1.64.29-3.23.28-4.82,0-.43.63-.41.97-.21.75.43-.06.58-.12.87-.3,1.34.09,2.8-1.13,4.17Z"/>
      <path class="cls-1" d="M27.07,271.6c1.03,1.01,2.91,1.82.85,3.35-.29.21-.22.55-.05.84.18.31.62.68-.12.8-.46.08-.69-.19-.68-.68.02-1.43,0-2.87,0-4.3Z"/>
      <path class="cls-1" d="M45.69,289.32c-.76-2.14,1.56-3.47.45-5.16,0,0,.34-.34.51-.34.5,0,.62.41.59.82-.09,1.55-.63,2.94-1.55,4.68Z"/>
      <path class="cls-1" d="M189.96,128.2c-.06,2.13.42,4.23.51,6.34-1.53-2.01-.25-4.25-.51-6.34Z"/>
      <path class="cls-1" d="M208.22,154.94c-.15,1.48-.3,2.95-.45,4.43-.69-1.55-.9-3.05.45-4.43Z"/>
      <path class="cls-1" d="M46.14,222.19c.5,1.51-.24,2.86-.31,4.85-1.56-2.2.39-3.4.31-4.85Z"/>
      <path class="cls-1" d="M110.71,208.87c-.62,1.9-1.24,3.81-1.87,5.71.14-2.07.16-4.2,1.88-5.67v-.04Z"/>
      <path class="cls-1" d="M100.42,253.71c-.23,1.23-.89,1.99-.63,3.01.13.48.15,1.22-.69,1.12-.81-.1-.71-.76-.42-1.24.54-.9.49-2.14,1.74-2.89Z"/>
      <path class="cls-1" d="M110.72,208.91c-.03-2.37.77-4.46,2.32-6.28-.78,2.07-1.56,4.15-2.34,6.23,0,.01.02.05.02.05Z"/>
      <path class="cls-1" d="M118.22,93.2c-.58,2.23-2.18,3.63-3.58,4.96-2.56,2.42-5.34,4.47-8.85,5.7-3.72,1.31-7.48.52-11.17,1.28-1.82.37-3.28-1.79-3.38-2.7-.25-2.39-2.1-2.39-3.41-3.14-.7-.4-1.79-.51-1.7-1.41.12-1.19,1.36-.95,2.12-.83,2.09.35,4.12.21,6.17-.26.59-.14,1.48-.61,1.57.65.01.16-.19.64.4.34,2.79-1.44,5.95-1.71,8.93-2.2,4.23-.69,8.32-2.1,12.89-2.39ZM111.91,98.04c-5.15-.04-9.34,3.23-14.24,2.89,3.91,2.11,12.32.43,14.24-2.89Z"/>
      <path class="cls-1" d="M124.12,54.15c-4.08-.21-8.04.15-11.74-.21-4.19-.42-7.88,1.2-11.88,1.13-1.95-.03-2.55-1.54-3.93-2,.55-.93.66-2.33,2.05-2.42,4.57-.31,9.09-1.07,13.71-1.02,2.68.03,5.2.4,7.71,1.16,1.72.52,3.44,1.13,4.09,3.36Z"/>
      <path class="cls-1" d="M125.35,63.09c-.11.66-.16,1.46-.91,1.75-.65.25-.84-.41-1.2-.82-1.17-1.36-2.42-1.12-3.34.55-.8,1.45-4.58,2.83-6.06,2.2-.14-.06-.34-.15-.36-.26-1.05-4.33-4.31-2.48-6.93-2.56-.51-.01-1.28.67-1.57-.19-.24-.71.49-.98.96-1.41,2.62-2.43,5.89-1.87,8.98-2.04,2.41-.14,4.83,0,7.25-.07,1.73-.05,3.13,1.11,3.17,2.85Z"/>
      <path class="cls-1" d="M105.82,69.87c3.77.03,6.57,2.69,9.98,3.7-1.52.72-5.68-.73-9.98-3.7Z"/>
      <path class="cls-1" d="M134.27,102.65c.05,3.86-3.22,5.69-5.24,8.28,1.17-3.11,4.14-5.13,5.24-8.28Z"/>
      <path class="cls-1" d="M83.39,74.2c1.11-.8,2.21-1.61,3.34-2.38.4-.28.91-.4,1.19.16.21.42-.09.73-.41.99-1.11.9-2.42,1.33-3.72,1.8l-.41-.57Z"/>
      <path class="cls-1" d="M93.55,148.48c.87-1.06,1.09-2.31,1.52-3.68,1.02,2.51.52,3.71-1.52,3.68Z"/>
      <path class="cls-1" d="M173.1,187.33c.37,1.46-.36,2.61-1.09,3.72-2.32,3.56-3.54,7.67-5.64,11.33-.34.59-.5,1.3-1.83,2.03,2.82-6.17,5.5-11.71,8.62-17.03l-.06-.05Z"/>
      <path class="cls-1" d="M170.29,189.15c-.25-1.48,1.75-6.36,2.7-6.99.31-.2.58-.24.84,0,.33.31.39.79.12,1.07-1.58,1.66-1.75,4.17-3.66,5.92Z"/>
      <path class="cls-1" d="M173.16,187.38c1.33-2.71,2.91-5.27,4.8-7.64-1.84,2.39-1.81,5.93-4.86,7.58,0,0,.06.05.06.05Z"/>
      <path class="cls-1" d="M210.82,226.92c-1.05-1.65-1.21-3.23-1.35-5.11,1.53,2.63,1.64,3.02,1.35,5.11Z"/>
      <path class="cls-1" d="M199.62,270.08c-1.5.55-3,1.1-4.5,1.65,1.25-1.21,2.63-2.04,4.28-2.2l.21.55Z"/>
      <path class="cls-1" d="M49.83,163.78c-.77,3.06-.83,5.55-.67,8.22-1.28-1.43-1.03-5.7.67-8.22Z"/>
      <path class="cls-1" d="M68.82,82.78c.72,2.04-.99,3.81-.53,5.87-.33-1.09-1.34-1.98-.87-3.11.23-.56-1.05-2.33,1.09-1.6.12-.36.23-.73.34-1.11,0-.01-.03-.05-.03-.05Z"/>
      <path class="cls-1" d="M119.32,170.77c.89-.99,1.78-1.97,3.1-3.43-.51,2.16-1.61,2.98-2.67,3.84-.14-.13-.29-.27-.43-.4Z"/>
      <path class="cls-1" d="M186.84,314.52c1.85-2.94,4.28-5.46,6.19-8.36,1.72-2.62,3.9-4.94,5.96-7.5-1.09-.38-1.66-.13-2.18.63-2.24,3.24-4.42,6.55-6.88,9.62-.82,1.02-1.43,2.55-3.07,2.77-.19,1.1-.41,2.16-1.86,2.16-.35,0-.55.11-.6.38.82.08,1.63.19,2.44.31Z"/>
      <path class="cls-1" d="M131.58,209.97c-1.87,1.64-3.74,3.29-6.04,5.3,1.57-2.68,3.62-4.13,5.3-5.92.24.21.49.41.73.62Z"/>
      <path class="cls-1" d="M40.06,177.81c1.34,1.28,1.97,2.29-.02,3.36-.23-1.07-.31-2.06.02-3.36Z"/>
    </g>
  </g>
</svg>