<?xml version="1.0" encoding="UTF-8"?>
<svg id="Layer_2" data-name="Layer 2" xmlns="http://www.w3.org/2000/svg" viewBox="0 0 276.5 330.8">
  <defs>
    <style>
      .cls-1, .cls-2 {
        stroke-width: 0px;
      }

      .cls-2 {
        fill: #fff;
      }
    </style>
  </defs>
  <g id="Layer_4" data-name="Layer 4">
    <g>
      <path class="cls-2" d="M53.24,167.94c-1.47.2-1.67.38-1.27.35.38-.12.76-.21,1.13-.29.05-.02.1-.04.14-.06Z"/>
      <path class="cls-2" d="M54.18,167.43c-.19.13-.38.25-.56.34-.13.07-.26.12-.38.18.13-.02.28-.04.43-.05.19-.17.36-.33.51-.46Z"/>
      <polygon class="cls-2" points="53.66 167.9 53.67 167.9 53.67 167.89 53.67 167.89 53.66 167.9"/>
      <path class="cls-2" d="M9.34,285.66c1.5,7.28-1.21,13.54-2.67,20.35.38.35.74.75,1.05,1.25,4.76,7.45,11.04,13.68,16.91,20.26,11.37-1.94,22.12-.73,33.57.65,1.7.21,3.34.53,4.92.95,8.45-.04,16.91.09,25.36.09,36.76,0,73.48.29,110.23.92,7.93.14,15.85.37,23.76.67,2.77-1.97,5.43-4.09,7.94-6.43,4.58-4.27,9-8.6,14.39-11.86.92-.56,1.83-.81,2.68-.85,3.47-3.77,6.84-7.62,9.5-11.79.3-.15.58-.33.85-.53.98-.74,2.02-1.38,3.1-1.94.35-.12.69-.26,1.04-.36,2.57-.77,4.91-2.49,6.28-4.83,1.32-2.25,1.88-5.57,1.06-8.09-.59-1.83-1.65-3.47-3.01-4.76.01-.47.08-.93.23-1.37,1.09-3.17,2.6-6,4.94-8.42.34-.35.73-.63,1.14-.86.47-9.02-3.13-17.44-8.98-23.96.65-5.57-2.56-11.66-9.64-11.89-.51-.4-1.04-.78-1.57-1.13-.36-.24-.73-.43-1.12-.61-1.17-.53-2.36-1.11-3.61-1.41-.89-.21-1.8-.31-2.72-.32-.48-1.45-1.29-2.8-2.49-3.91-8.35-7.74-16.69-15.49-25.04-23.23-1.05-.97-2.16-1.66-3.28-2.13-.72-1.69-1.27-3.41-1.58-5.14-.3-1.63-1.1-3.05-2.2-4.21.2-.76.36-1.55.47-2.38.98-7.31-2.19-13.06-7.61-17.48-.93-4.19-3.49-7.94-6.72-10.79-4.76-4.19-9.92-7.26-16.26-6.44-3.05-2.24-6.12-4.46-9.23-6.6-7.38-.62-18.18-2.9-19.39-11.31-.71-.31-1.42-.61-2.14-.9-.06-.25-.13-.51-.23-.75-.17-.44-.35-.88-.53-1.32,1.06-5.86-2.25-12.65-9.94-12.65-.04,0-.07,0-.1,0-.13-.88-.26-1.75-.41-2.63-.58-3.44-2.14-6.18-4.29-8.27.02-.02.04-.03.05-.05l1.74-1.74c1.02-.95,1.75-2.08,2.17-3.38.2-.38.35-.77.49-1.16.57-.25,1.13-.52,1.69-.81,8.64-4.53,14.1-12.57,17.42-21.5,2.13-5.71,3.19-11.94,3.41-18.3.18-.48.32-.98.4-1.5.13-.93.25-1.86.36-2.79,0,0,0,0,.01,0,0-.07.01-.15.02-.22.56-4.57.89-9.11.75-13.75-.11-3.71-2.23-7.31-5.37-9.18-.65-2.09-1.38-4.13-2.16-6.09-2.65-6.63-5.72-12.29-12.15-15.88-5.55-3.1-11.98-2.93-18.13-2.92-9.87.02-19.72.56-29.55,1.52-9.6.94-18.98,7.83-18.5,18.5.19,4.32,2.01,8.89,4.95,12.41-.71.9-1.38,1.86-1.97,2.88-5.43,9.31-7.53,21.17-6.38,31.8.5,4.63,1.67,9.15,3.88,12.93-1.69,6.17-1.79,12.85.1,19.31.78,2.68,2.21,5.14,4.07,7.22.55-.18,1.16-.27,1.84-.27,3.56,0,5.39,2.69,5.49,5.45.39.16.79.31,1.2.44-.05,2.72.01,5.43.17,8.13-5.23.76-10.44,1.64-15.62,2.72-9,1.88-14.4,11.75-13.25,20.3.03.24.07.49.12.73,0,.79.04,1.59.13,2.37-1.93.61-3.69,1.44-5.37,2.45-7.08,2.86-14.24,5.82-19.63,11.32-.57.58-1.04,1.17-1.44,1.78-5.53,2.59-6.58,8.79-4.53,13.61-.03.06-.07.12-.1.18-5.82,11.4-8.52,25.13-12.01,37.4-1.8,6.33-3.53,12.7-5.15,19.11,6.36.95,6.03,11.3-.96,11.3-.62,0-1.19-.09-1.71-.24-2.13,9.37-3.94,18.81-5.26,28.3,1.9.27,3.59,1.52,4.1,4.04ZM174.55,296.02c-.18-.49-.32-1-.39-1.54-.57-4.29.73-8.07,2.52-11.92.29-.63.65-1.14,1.05-1.55.78-7.9,3.75-15.17,5.68-22.83.23-.93.63-1.68,1.13-2.28.02-.48.04-.95.06-1.43.12-3.11,2.24-4.89,4.62-5.36,1.69,1.8,4.12,2.99,7.33,2.99.85,0,1.64-.08,2.38-.24,2.46,1.21,5.07,2.17,7.66,2.98,1.17.37,2.35.78,3.54,1.06.23.05.41.1.58.13.06.04.12.08.19.12.34.21.99.49,1.64.8-2.79,1.96-4.73,5.22-4.58,8.63.18,3.98,2.25,7.29,5.4,9.08.56,1.37,1.36,2.65,2.59,3.81,1.1,1.04,2.27,1.73,3.52,2.33.55.56,1.18,1.07,1.96,1.53.5.29,1.05.54,1.63.75-.99,1-1.97,2.01-2.91,3.06-.12.13-.23.27-.35.41-8.41,16.09-17.6,34.18-34.63,42.05-2.39,1.1-4.89.98-6.9-.89-1.87-1.75-3.3-3.68-4.37-6.02,0,0,0-.01,0-.02-1.32.34-2.64.66-3.98.94.03-4.03-.96-7.83-2.74-11.19,2.6-5.06,5.06-10.2,7.39-15.41Z"/>
      <path class="cls-2" d="M54.97,166.81c.47-.41.49-.53-.79.61.06-.04.11-.08.17-.12.2-.17.41-.33.62-.5Z"/>
    </g>
    <g>
      <path class="cls-1" d="M72.51,305.21c-1.34,1.13-3,1.08-4.5,1.57-1.03.33-1.95.9-1.9,1.9.05.95,1.22.41,1.85.65,2.75,1.04,5.34,2.39,7.61,4.27,1.55,1.29.24,2.22-.73,2.89-1.78,1.22-3.18,2.75-4.42,4.5-.66.93-.85,1.96-.3,2.74,1.16,1.63,1.4,3.74,2.41,5.41.76,0,1.52,0,2.28.01-.28-.46-.55-.94-.79-1.49-.45-1.04-.91-2.08-1.27-3.15-.74-2.18-.74-4.11,1.58-5.49,1.17-.7,2.26-1.63,3.17-2.64,1.69-1.88,1.39-3.48-.78-5.02-1.57-1.12-3.15-2.23-4.88-3.45,1.25-.92,2.56-1.42,3.46-2.5.73-.89,1.89-1.89,1.25-2.91-.68-1.07-1.97-1.98-3.44-2-.96-.02-1.9.34-2.7.92-.53.38-.73,1.01-.38,1.52.41.6.78-.04,1.19-.21.98-.41,2.32-.78,2.86.23.67,1.25-.78,1.61-1.57,2.28Z"/>
      <path class="cls-1" d="M1.7,281.32c.63-.24,1.23,0,1.82.42,3.1,2.21,5.62,4.57,4.46,8.99-.99,3.81.02,7.94-1.7,11.66-.34.73-.36,1.23.46,1.55.42.17.41.41.11.71-.3.31-.51.41-1,.15-.91-.48-.62-1.76-1.56-2.36-.15.43-.33.68-.28.87.64,2.69,3.37,4.4,3.44,7.42.01.53.83,1.03,1.64.99-.53-1.11-1.07-2.23-1.73-3.6,4.07,2.05,6.49,5.54,9.7,8.08.64.51.92,1.54.46,2.48.52.41,1.03.83,1.54,1.24-.31.88-.47,1.69.4,2.43,1.97,1.66,3.9,3.36,5.82,5.06,2.11-.34,4.19-.57,6.27-.72.32-1,.92-2.04,1.6-3.12.6,1.01,1.27,1.99,1.97,2.96.56-.01,1.13-.02,1.69-.02-.57-.76-1.18-1.48-1.96-2.05-.45-.34-.41-.88-.25-1.36.16-.47.61-.47,1.09-.44.42.45,1.45.11,1.35,1.49-.08,1.08.38,1.78,1.03,2.36.66,0,1.32.02,1.98.04-.23-.18-.46-.35-.69-.53-.29-.23-.78-.39-.44-.93.34-.54.64-.23.99,0,.33.23.75.63,1.04.57,1.9-.4,3.11.18,4.06,1.14,2.3.16,4.61.39,6.94.64.02-.18.05-.37.11-.58.07-.25-.24-.58-.3-.89-.15-.82-.32-1.92-1.32-1.64-.95.27-.08,1.22-.04,1.86.02.3.29.58-.09,1-1.94-.75-3.43-2.12-4.73-3.73-.58-.72-.97-1.93-2.13-.55-.15.18-.88.12-1.11-.09-.55-.49.14-.56.39-.8,1.04-1-.3-1.28-.66-1.59-1.13-1.01-2.77-1.39-3.52-2.89-.17.17-.34.35-.5.52-.46.48.38,1.9-1.04,1.62-1.37-.27-1.09-1.3-.85-2.32.35-1.45.1-3.06,1.37-4.57.44,1.65.83,3.07,1.21,4.5.61-.44.8-1.12.61-1.75-.88-3.03.06-6.11-.37-9.18-.49-3.45-.64-7.36,1.11-10.21,1.53-2.49.32-3.9-.28-5.69-1.18-3.55-1.76-7.21-2.59-10.83-.93-4.05-.84-8.17-1.71-12.19-.54-2.5.27-5.04.54-7.53.55-5.03.28-10.04.37-15.05.08-3.96-.1-7.95.26-11.88.19-2.08,1.58-4.04-.2-6.09-.32-.37-.24-1.37.37-1.99,1,.67-.03,1.91.91,2.44.64-1.16.63-1.16.62-2.98,0-1.13.21-2.37-1.63-2.05-.04,0-.28-.56-.27-.85.12-4.74.29-9.47.4-14.21.02-.97-.47-2.47-.23-2.81,2.25-3.05-1.17-5.08-.8-7.71-.23,0-.45,0-.68,0-.24,2.34-1.13,4.85-.57,6.98.81,3.13.22,6.3-.05,9.11-.44,4.52.26,8.94-.04,13.4-.13,1.96-1.54,4.12.33,6.04.13.13-.11.79-.34,1.09-.79,1.03-2.12,1.98.26,2.79.34.12.37,1.63-.14,1.73-2.17.42-1.6,2.07-1.64,3.35-.13,3.79-.91,7.59-.8,11.31.11,3.68-1.28,7.52,0,10.89.77,2.03-.44,2.87-.57,4.25-.13,1.42-.72,2.92.1,4.4q-1.31-.18-2.57-5.09c-.12.04-.35.09-.35.13.09,3.08-1.75,3.25-4.27,3.35-7.15.29-13.95,1.78-19.06,7.44-.27.3-.38.78-.89.41-.61-.44-.66-.99-.41-1.72,1.18-3.43,2.35-6.87,3.44-10.33.97-3.08,1.84-6.19,2.72-9.3.53-1.86,4.63-4.33,6.53-4.27,1.15.04,2.65.73,3.4-1.39.52-1.47,2.72-1.38,4.15-2.04.34-.16.9.11,1.2-.08,1.05-.64,3.05-.95,2.69-2.31-.39-1.49-1.97-.31-2.95-.04-2.66.71-2.84.61-2.33-2.05.12-.64.25-1.29-.32-1.79-.53.21-.56.61-.57,1.02-.01.78-.27,1.7-.88,1.89-.92.28-1.12-.82-1.33-1.42-.52-1.47-2.17-1.35-3.07-2.48,3.68-4.05,2.94-9.37,3.77-14.25.79-4.69,1.57-9.34,2.72-13.98,1.21-4.85,2.09-9.79,3.69-14.54,1-2.97,1.94-5.9,2.07-9.12.08-2,1.23-3.95,1.77-5.95.73-2.7,1.47-5.41,2.22-8.09.94-3.36,3.98-5.22,6.69-7.08,2.24-1.53,4.58-2.94,6.86-4.41,3.09-1.98,6.63-2.95,9.67-4.94.95-.62,1.62-.45,2.16.58.4.77.96,1.46,1.45,2.19,1.19-.49,2-1.17,1.46-2.61,1.53-.27,2.68-1.39,4.11-1.82.47-.14,1.27.32,1.29-.52.02-1.11-.89-.49-1.43-.61-.49-.11-1.22-.07-1.31-.86-.07-.63.52-.74.85-1.06,1.73-1.66,3.94-2.43,6.37-3.61-.8,2.98-1.73,5.44-3.88,7.36-1.37,1.22-2.92,2.66.27,3.78,1.24.44,1.5,1.77,1.16,2.93-1.41,4.76-.96,9.62-.93,14.46.03,4.92,1.41,9.51,2.7,14.24.95,3.5,2.66,6.9,2.9,10.71.12,1.85,1.11,4.03,2.15,5.63,1.05,1.62,1.01,2.94.79,4.54-.06.4-.24.89-.08,1.19.73,1.39,1.27,3.31-.29,3.77-1.71.5-4.03,1.18-5.7-.59-.55-.59-1.02-.79-1.67-.39-.67.41-1.29,1.49-1.01,1.78,1.29,1.33.34,2.64.2,3.93-.6,5.43-1.52,10.85-1.8,16.3-.25,4.93-1.68,9.64-2.06,14.52-.1,1.21.06,2.44.11,3.66,1.96-.14,2.49,2.43,4.29,2.35,1.69-.07,3.32.56,5.02.16,1.41-.34,1.8,1.21,2.87,1.75.91-3.43,3.61-1.72,5.5-1.69,2.03.04,4.08.57,6.16.64,1.44.05,2.08,1.09,2.23,2.43,4.83-1.71,4.03-5.68,4.26-9.39.26-4.17-.67-8.38.66-12.52.68-2.13-.01-4.42.21-6.68.45-4.48.34-9.02.45-13.54.03-1.06-.66-1.61-1.54-1.39-2.39.6-4.72-.06-7.07-.07-1.39,0-1.6-.64-1.75-1.95-.5-4.29,2.37-7.25,4.05-10.63.73-1.47,1.18-3.2,2.4-4.42.9.21.34,1.3,1.41,1.66,2.1-4.32,5.94-7.49,8.14-11.97,2.76-5.63,6.08-10.99,9.14-16.48.44-.78.8-1.59,1.82-1.77.21-.04.58-.19.57-.25-.54-3.75,3.48-5.1,4.29-8.22.37-1.4,2.28-1.7,3.27-.73.68.66,2.09,1.71.74,3.42-3.26,4.12-6.21,8.48-9.38,12.67-4.61,6.12-8.63,12.65-12.92,18.99-2.33,3.45-4.78,6.82-6.75,10.5-.49.92-1.94.92-2.24,2.14-.09.38-.42.74.09,1.04.35.21.59,0,.83-.26,1-1.08,2.14-2.05,3-3.24,3.07-4.23,6.38-8.34,8.96-12.87,2.37-4.14,5.05-8.04,7.74-11.94,3.67-5.33,7.71-10.4,11.57-15.6.84-1.14,1.42-1.31,2.58-.14,4.1,4.17,4.29,3.2,6.25-1.36,3.13-7.26,6.9-14.05,12.45-19.75.94-.97,2.38-1.41,2.97-2.79-.78-.89-1.48-.06-1.88.28-6.11,5.18-10.64,11.53-13.68,18.94-.46,1.11-.96,2.21-1.5,3.28-.47.93-1.01,2.63-1.83,2.28-.96-.41-2.13-1.27-2.69-2.54-.56-1.29.23-2,.92-2.75,1.65-1.78,3.14-3.66,4.3-5.85-2.18,1.18-3.61,3.2-5.31,4.89-2.21,2.2-2.35,2.24-3.79-.64-.52-1.04-.54-1.98-.08-3.04.27-.62-.04-1.77-.7-1.32-2.04,1.43-2.24-.62-2.73-1.4-1.24-1.97-2.16-4.15-3.27-6.21-1.02-1.87-.52-3.35,1.4-3.86,3.02-.8,4.71-3.25,6.93-5.04.83-.67,1.56-.94,2.51-.8-.71-2.21,1.63-2.17,2.55-2.84,1.19-.86,2.32-2.52,4.27-1.9.35-1.69,1.58-2.1,3.06-2.13.16-1.69.86-1.63,1.92-.52.52.54.52,1.59,1.6,1.68.76-1.24-1.3-2.13-.21-3.6,2.16,1.79,3.87,4.14,6.46,5.33,1.17.54,3.16.9,3.33,1.66.29,1.32.91,1.25,1.79,1.59,3.35,1.27,6.54,3.1,9.99,3.97,6.14,1.55,12.23,3.37,18.03,5.75,4.9,2.01,9.84,4.03,14.64,6.33,6.23,2.99,9.95,7.99,11.67,14.58.73,2.8,1.89,5.45,2.94,8.13.57,1.47,1.58,2.87.64,4.56,2.27.8,1.19,3.29,2.39,4.71,1.2,1.42,1.54,3.19,1.6,5.17.05,1.64,0,3.47,1.55,5.01,1.17,1.16,2.56,2.52,2.8,4.5.1.8.1,2.03,1.04,2.28,1.04.28,1.16-1.14,1.97-1.77,1.37,2.95,3.28,5.72,5.64,7.3,2.42,1.62,2.7,5.33,6.09,5.61,3.03,4.21,7.65,6.84,10.81,10.93,1.34,1.73,3.59,2.6,5.26,4.96-4.15-1.04-7.68.61-11.27.04-.76-.12-.99.39-1.44.66-2.16,1.29-3.56.56-4.24-2.23-1.02.13-.48,1.23-1.07,1.69-.85.67-1.91,1-2.67.58-.82-.45.06-1.25.33-1.89,1.12-2.71,2.32-5.39,3.27-8.16.47-1.36-.8-1.53-1.64-1.25-1.12.38-1.98,1.18-2.68,2.28-4.88,7.63-10.41,14.68-18.15,19.66-1.7,1.1-3.27,2.04-5.58.85-1.56-.8-.87-1.21-.29-1.83,4.25-4.55,8.1-9.45,12.04-14.25,2.2-2.69,4.28-5.48,6.43-8.22.3-.38.75-.7.16-1.37-3.46,2.58-5.92,6.1-8.49,9.44-3.27,4.25-7.23,7.92-10.15,12.46-.92,1.43-4.55.93-5.53-.69-.42-.7-.65-1.46-1.6-1.49-.11,0-.39.48-.34.54.51.69.09,1.87,1.2,2.25.85.29,1.68.63,2.49,1.01.64.3,1.16.76.59,1.51-.54.73-1.1.95-1.57-.15-.31-.72-1.25-.79-1.7-.74-2.51.27-3.33-2.48-5.57-2.99-.89-.2-3.85-2.08-1.96-4.74.19-.26.1-.81-.43-1.17-1.19.3-1.11,1.88-2.37,2.46-1.17.55-1.74.62-2.7-.09-1.81-1.34-3.78-2.48-5.55-3.87-1.2-.94-2.56-1.09-3.93-1.37.06.85-.53,1.83.52,2.49.35.22.69.96,1.12.18.6-1.08.75-.72,1.11.16.62,1.52,1.87,2.53,3.48,2.59.85.04,1.1.54,1.56.92.43.35,1.07.76.59,1.39-.52.68-.95-.08-1.44-.26-2.78-1.02-5.16-2.9-7.9-3.89-2.36-.85-4.13-2.77-6.62-3.23h0c-.1.47.22,1.29-.79,1.05-.66-.16-1.33-.41-1.6.47-.07.22.19.61.4.82.82.81,1.04-.28,1.54-.51.19-.09.41-.1.66-.17-.75,2.26.75,6.23,3.32,7.55,1.5.77,1.7,2.53,3.32,3.09,1.04.36,1.83.63,2.61-.26.52-.6.32-1.28-.4-1.21-3,.32-3.91-2.48-5.31-3.99-1.19-1.29-3.79-2.39-2.9-5.45,2.57,2.86,6.42,3.45,8.98,6.02,1.4,1.4,3.4,1.45,4.89,2.69.95.79,1.55,1.08,1.06,2.49-.46,1.34-.13,2.86-.47,4.34-.75,3.23-2.12,6.21-3.23,9.3-.98,2.7-1.77,5.46-2.38,8.3-.61,2.86-2.18,5.51-2.77,8.36-1.04,5.03-3.22,9.78-3.51,14.98h0c2,.49,1.76-1.47,1.8-2.17.16-2.81,1.07-5.36,2.19-7.85.5-1.11.22-2.27.49-3.36.14-.55.25-1.5,1.06-1.4.77.1.34.9.41,1.42.25,1.83-.25,3.63-.85,5.2-2.27,5.92-2.84,12.18-4.24,18.27-.9,3.91-1.64,7.84-2.58,11.72-.31,1.28-2.57.66-3.94.68-2.72.04-5.26-.99-7.71-1.95-2.16-.84-4.34-.52-6.48-.91-1.21-.22-1.96.85-2.68,1.34-5.88,3.96-11.89,7.77-17.15,12.57-2.1,1.91-2.56,2.62-1.45,3.84,1.27,0,2.54.02,3.8.02-.15-.56.75-.7,1.07-1.11,3.35-4.32,7.77-7.44,11.89-10.92,2.11-1.78,4.18-2.62,6.91-1.66,3.67,1.29,7.63.31,11.38,1.44,2.78.84,3.44,1.35,3.12,4.36-.2,1.9-.45,3.8-.75,6.36-1.76-3-4.39-3.98-6.69-5.08-2.17-1.04-4.78-2.11-7.46-.74-4.33,2.2-8.75,4.19-12.74,7.03-.19.14-.41.25-.61.36,2.29.02,4.58.02,6.86.04.11-.11.21-.21.35-.34,2.3-2.1,5.08-2.89,7.6-4.33,1.27-.72,2.54-.55,3.84.25,1.3.8,2.78,1.3,4.13,2.04.44.24,1.1.6.88,1.31-.28.9-.88.26-1.38.24-3.39-.11-6.96-.41-9.98.88,6.51.06,13.03.12,19.54.2-.15-.4-.66-.64-1.21-.73-.86-.15-1.7-.46-3.12-.87,2.52-1.63,3.1-4.05,4.08-6.53,1.06,1.39,2.21,2.36,3.43,3.23,1.45,1.02,1.93,2.77,2.77,4.12.17.28.33.57.49.86,1.32.02,2.64.04,3.96.06-1.61-2.7-4.01-4.83-5.54-7.61-.67-1.22-1.95-2.22-2.98-2.84-2.57-1.53-1.8-3.35-1.01-5.17.56-1.31.77-2.6,1.01-3.98.66-3.84,1.6-7.64,2.43-11.45,1.8,2.65-.15,5.31.94,7.88.31-2.3,1.74-4.27,1.56-6.71-.13-1.67-.49-3.6,1.24-4.9.14-.11.14-.45.15-.69.1-2.48.53-4.94.77-7.36.28-2.7.39-5.38,1.2-7.99,1.08-3.46,1.98-6.98,3.23-10.37,1.24-3.38,1.79-6.94,3-10.31.92-2.55.9-5.34,2.15-7.8.45-.88.75-1.35,1.77-.57,1.21.92,2.56,1.66,3.84,2.48.64.4.47.76.16,1.39-.66,1.31.14,2.01,1.3,1.48,1.15-.52,2-.04,3.08.02-.53,1.29-1.34,2.18-2.09,3.13-.39.5-.44,1.31.09,1.81.61.57.99-.12,1.42-.45,2.07-1.58,4.16-3.14,6.22-4.75.82-.64,1.71-.41,2.59-.37.31.01.6.23.91.31.77.19,1.38-1.47,2.08-.37.67,1.05-.54,1.92-.82,2.9-.81,2.79-3.46,3.96-5.25,5.89-.35.37-1.12.62-.79,1.33.26.57.78.59,1.44.57,1.67-.05,3.34.14,5.01.18.64.02,1.16.25,1.42.78.35.73-.33.88-.77,1.24-2.6,2.15-2.58,3.85.26,6,2.06,1.56,4.55,2.62,6.11,4.77,1.28,1.77,3.15,3.03,3.95,5.25.55,1.54.25,2.05-1.17,1.8-.87-.16-1.3.17-1.61.71-1.42,2.46-3.07,4.84-4.08,7.46-1.17,3.04-3.1,5.49-4.85,8.15-3.51,5.31-7.09,10.57-10.9,15.66-3.4,4.54-7.43,8.51-11.85,12.06-.24.2-.51.36-.79.51,1.77.03,3.54.05,5.31.08.58-.56,1.22-1.03,1.9-1.24.88-.27.9-.53,1.04-1.15.35-1.57,1.14-2.78,2.78-3.19.7-1.88,1.69-3.44,3.5-4.61.58-.38.55-1.66,1.8-.95.03.01.31-.29.28-.34-1.73-3.04,2.5-1.45,2.26-2.8-.4-2.17,1.5-2.8,2.23-4.19.2-.38.42-.72.83-.14,1.26,1.75,2.74,1.18,4.24.38.08-.08.17-.17.25-.25.38-1.73,1.55-2.96,3.33-4.56-1.69.43-2.44.2-2.34-1.13.06-.69.22-1.64.81-1.58,1.28.13,2.17.97,2.03,2.77.37-1.33.4-2.57,2.01-1.77.08.04.33-.12.4-.25,1.34-2.59,4.63-3.66,5.31-6.76-1.67.43-2.28,2.02-3.31,3.14-1.29,1.4-2.32,1.95-3.05-.58,1.87-.09,2.91-1.02,2.72-3.11-.15-1.67,1.86-1.79,2.38-3.14.66-1.69,1.67-3.3,2.78-4.75.48-.62,1.07-1.77,2.36-1.27.31.12.78-.22.68-.51-.94-2.75,1.43-3.8,2.7-5.42.27-.35.49-.66-.05-1.26-.8.68-1.62,1.38-2.66,2.27-.59-2,.03-3.89-.49-5.71-.25-.89.89-.96,1.6-.54.55.33,1.05.65,1.38-.13.24-.57.12-1.13-.57-1.4-1.45-.59-1.02-1.24-.19-2.13.89-.94,1.57-2.07,2.37-3.09.29-.38.61-.77,1-1.03.43-.29,1.76.68,1.22-.8-.09-.24-1.65-.38-2.27.21-1.1,1.07-2.41,1.97-3.09,3.45-.47,1.03-1.27,1.32-2,.31-1.15-1.59-3.14-2.11-4.23-3.76-.23.29-.4.41-.41.53-.06.91,1.69,1.67.53,2.53-1.06.79-1.04-1.13-1.99-1.27-.55-.08-.97-.9-1.55-1.07-.54-.17-1.48.36-1.33-.74.13-.94,1.44-1.52,1.82-1.23,1.54,1.15,1.18-.37,1.46-.9.9-1.67,1.1-3.33-.38-4.85,2.38-.7,2.07-3.1,2.87-4.61,1.91-3.56,3.17-7.48,4.57-11.3.96-2.63,1.83-5.3,2.47-8.02.25-1.07.49-1.03,1.38-.88,1.94.33,3.91.48,5.87.7,3.98.44,7.96.46,11.84-.52,2.52-.63,4.32.83,6.26,1.72,1.25.57,1.57.56,2.05-.7.43-1.14.52-3.16,1.74-3.11,1.32.05,1.66,2.1,1.98,3.29,1,3.76,2.46,7.31,3.93,10.9,1.32,3.22,3,6.22,5.16,8.78,2.77,3.27,1,5.94-.24,8.81-.44,1.03-1.22,1.91-1.73,2.92-.17.33-.79.87-.1,1.25,2.09,1.14.24,1.99-.26,2.8-.51.82-1.1.97-1.8-.14-1.42-2.25-2.98-4.37-3.86-6.94-.94-2.75-1.61-2.83-3.76-.99-.56.48-.8.85-.24,1.36,2.15,1.97,3.37,4.64,5.21,6.85.85,1.02,2.13,2.18.87,3.85-.22.29-.15.88.61,1,1.54.24,4.54,3.58,4.67,5.01.1,1.15-1.1,2.27-1.42,2.21-1.71-.32-2.07,1.04-2.43,1.91-1.63,3.87-4.2,7-7.09,9.95-4.81,4.91-9.53,9.98-15.1,13.97-4,2.87-7.54,6.4-11.93,8.71-2.14,1.12-3.89,2.96-6.39,3.49,13.49-11.35,27.57-22,39.23-35.28-.21-.23-.41-.45-.62-.68-1.9,1.81-3.82,3.6-5.7,5.44-2.3,2.25-4.49,4.63-6.88,6.79-3.31,2.99-6.71,5.91-10.2,8.69-.8.64-1.54,2.97-3.28.84-.3-.37-.77.39-1.1.7-6.29,5.97-13.16,11.21-20.06,16.44-1.01.77-2.87,1.43-2.91,3.27,1.3.04,2.6.09,3.91.14.61-1.56,4.82-5.13,6.86-5.76-.99,1.77-4.05,4.42-6.61,5.76.98.03,1.96.07,2.95.1,2.14-1.75,4.25-3.55,6.72-4.84,1.1-.57,1.75-1.86,3.36-1.7,1.69.18,3.02-.86,4.25-2.01,4-3.74,7.57-8.07,13.28-9.49,1.7-.42,2.1-2.45,3.4-3.51,5.82-4.75,11.89-9.3,16.2-15.59,1.58-2.31,3.99-3.84,5.39-6.28.27-.48.82-.78.33-1.47-1.74-2.48-3.19-5.22-5.22-7.42-1.22-1.32-.43-1.84.2-2.49,2.32-2.39,3.87-5.24,5.37-8.17.57-1.12.11-3.29,2.51-3.05.38.04.54-.76.32-1.02-.91-1.09-.87-2.55-1.89-3.72-2.8-3.22-5.17-6.77-7.04-10.67-1.23-2.58-2.03-5.34-3.52-7.83-1.58-2.64-2.27-5.82-2.84-8.68-.55-2.74-.61-1.54-2.02-.82-1.63.83-3.73,1.73-5.39.25-3.09-2.76-6.79-4.7-9.82-7.58-1.33-1.26-2.87-2.45-4.25-3.73-.6-.55-1.16-1.01-1.46-.29-.58,1.43-.95.43-1.5.09-1.06-.66-.68-1.36-.14-2.1-2.2-1.45-3.24-4.26-6-5.07-3.1-.9-3.85-2-3.85-5.29,0-.22-.11-.61-.23-.63-2.94-.6-3.87-3.32-5.49-5.26-1.27-1.52-2.57-3.14-3.35-4.93-.62-1.41-.89-2.82-2.32-3.79-.74-.5-1.3-1.52-1.57-2.41-.82-2.79-1.82-5.5-2.84-8.22-2.52-6.72-4.86-13.49-8.77-19.6-2.38-3.72-3.75-5.04-7.68-6.4-.14-.05-.38-.19-.38-.26.3-2.97-1.9-1.14-2.89-1.42-1.74-.48-4.46-1.39-4.23-2.49.5-2.42-1.68-2.13-2-2.08-1.62.27-3.23,1.23-4.32-.9-.97,1.3-2.25.27-2.67-.19-1.69-1.8-3.84-2.05-6.02-2.47-2.01-.38-4.02-.68-5.88-1.78-1.28-.75-2.92-.87-4.06-1.97.68-1.08,1.79-.77,2.68-1.16-1.24.2-2.11-.6-3.13-.89-1.28-.37-2.28-1.85-3.74-1.28-2.46.98-4.15-.3-5.26-2.02-2.67-4.14-3.81-8.94-4.86-13.66-1.11-5-1.39-5.49-6.53-4.68-.31.05-.61.25-.92.31-1.42.28-2.28.17-2.07-1.78.31-2.99.32-6.03.42-9.03.07-2.2,1.63-2.64,2.63-3.71.93-1,1.64.49,2.41.84,3.29,1.47,5.97,1.48,7.37-.47.91-1.26,2.11-2.25,2.97-3.5,1.55-2.27,3.05-4.59,4.35-7,.44-.8,1.07-2.52-1.19-1.98-.74.18-1.27-.12-1.36-.63-.11-.64.56-.64,1.1-.86,1.84-.74,3.19-2.22,4.38-3.77.53-.69.99-1.63.41-2.5-.64-.95-1.51.03-2.1.16-.96.21-1.8.59-2.9.07.93-1.36,2.03-2.58,2.69-4.01,1.92-4.18,3.64-8.45,5.5-12.66.42-.96.65-1.81.02-2.76-2.91-4.37-1.88-9.22-1.41-13.9.43-4.26,1.11-8.53.79-12.79-.25-3.37.27-7.17-3.58-9.39-1.34-.77-.97-2.24.25-3.31.47-.42,1.56-1.11.47-1.67-1.49-.77-1-1.95-.95-2.97.2-4.09-1.31-5.27-5.42-4.34-1.17.27-2.38,1.17-3.95.25.77-.55.83-1.73,2.1-1.33.88.28,1.22-.48,1.5-.95.39-.66-.44-.93-.79-1.31-1.69-1.88-3.5-3.6-5.95-4.5-1.26-.46-2.34-.63-3.19.71-1.64,2.58-4.7,2.59-5.85-.17-.93-2.26-2.27-2.68-4.37-2.1-.69.19-1.44.22-2.17.25-5.22.19-9.91-2.19-14.89-3.2-1.2-.24-2.41,0-3.59-.53-3.61-1.63-7.26-3.19-10.94-4.68-1.98-.8-3.91-.92-5.53.99-.95,1.11-2.27,1.64-3.7,2.14-3.57,1.24-6.89,2.78-9.45,5.96-2.18,2.7-4.49,5.54-8.37,6.42-1.57.36-2.99,2.71-3.24,3.82-.97,4.24-1.98,8.77.87,12.86,1.07,1.54,1.52,3.05.91,5.01-.54,1.74-1.27,3.3-2.21,4.83-1.27,2.07-2.47,4.17.09,6.25.7.57.38,1.42.29,2.27-.34,3.48-1.05,6.95-.72,10.47.43,4.52,1.16,9.03,1.38,13.56.35,7.02.65,14.07.43,21.09-.11,3.42.24,6.79.18,10.18-.03,2.04.29,4.22,1.61,5.9,1.74,2.21,4.71,3.09,6.29,5.54.29.46.91.24,1.33.38,1.38.46,3.14.07,4.14,1.32,1.38,1.73.4,6.03-1.36,7.36-1.53,1.16-3.42,1.35-5.04,2.13-5.21,2.5-10.59,4.05-16.4,4.02-1.35,0-2.82.43-2.87,2.03-.09,2.85-.41,5.74.2,8.57.88,4.08-.66,7.32-4.02,9.67-1.67,1.16-3.71,1.81-4.96,3.85-.74,1.21-2.71,1.85-4.13,2.71-.96.58-2.05.92-2.88,1.82-1.58,1.7-3.66,2.83-5.72,3.62-1.65.63-3.07.91-3.7,2.87-.52,1.61-2.13,2.82-3.6,3-1.44.18-1.54.89-1.71,1.76-.48,2.52-1.55,4.88-1.73,7.48-1.09-.11-.51-1.85-1.67-1.49-.92.28-.25,1.44-.71,1.92-.9.92.19,1.75-.1,2.71-1.85,6.29-3.67,12.59-5.2,18.96-.31,1.3.3,2.52-.71,4.12-.95,1.5-1.42,4.13-1.04,6.13.37,1.96-2.8,3.54-.33,5.45.01,0-.09.13-.1.21-.57,3.1-.78,6.31-1.79,9.26-1.66,4.84-1.76,10.28-5.35,14.42-.74.85-.17,1.39.85,1.71,1.23.39,2.4.98,3.57,1.54,1.09.52,1.04,1.56,1,2.55-.04.9-.36,1.59-1.35,1.78-2.32.44-3.94,2.57-6.47,2.64-.65.02-1.21.93-1.54,1.76-.56,1.4-.27,3.08-.73,4.19-.71,1.7-.9,3.52-1.56,5.22-2.06,5.32-4.41,10.55-5.83,16.1-.3,1.16-.73,2.54,1.45,1.71ZM11.68,285.98c.08-4.29,2.01-7.75,3.66-11.4.65-1.43,2.05-.62,3.07-.86,2.74-.66,5.52-.78,8.32.03,1.63.47,1.83,1.47,1.21,2.65-.63,1.19-.03,2.24.13,3.33.13-1.15.84-2.19.68-3.38-.12-.86.35-1.45,1.23-1.44.81.01,1.42.46,1.37,1.37-.07,1.18.18,2.35-.26,3.54-.31.84.23,1.82,1.15,1.77,1.25-.06.16-.98.26-1.5.34-1.81-.66-3.87,1.14-5.9.33,1.56.74,2.72.81,3.89.31,5.41,1.25,10.78,1.04,16.21-.03.77.39,1.2.93,1.61,1.73,1.31,1.68,3.92-.32,4.92-1.42.7-1.64,1.7-1.59,2.92.15,4.19.09,8.42-.62,12.51-.62,3.56-2.41,6.85-4.21,10.19-3.39-4.01-6.56-7.97-9.97-11.7-1.74-1.9-3.77-3.62-5.93-5.02-3.17-2.06-4.77-4.69-4.37-8.49.28-2.66.41-5.34.82-7.98.31-1.97.47-1.94,2.63-.95-.65-2.23-1.19-4.15-1.15-6.32ZM5.94,279.4c.55-1.75,2.81-2.46,4.74-3.13-1.25,2.09-.8,4.48-1.6,6.56-2.02-.33-3.44-2.49-3.15-3.44ZM195.48,250.05c-.51.16-1.05.53-1.54-.03-.57-.65-1.56-.89-1.84-1.98,1.03-.36,1.64.56,2.5.27.77-.25.78.57,1.05,1.01.2.33.24.6-.17.74ZM222.91,272.54c.82.85,2.37,1.24,2.63,2.78.06.34-.33.87-1.02.65-1.53-.47-2.03-1.74-2.47-3.04-.11-.32.33-.48.86-.39ZM204.76,249.47c4.02-2.3,7.4-5.26,10.91-8.06,3.62-2.89,6.15-6.75,9.29-10.13-.77,3.13-2.29,5.91-3.78,8.67-1.97,3.67-4.16,7.23-6.35,10.78-.79,1.28-1.97,2.46-3.45.94-1.85-1.89-4.68.13-6.62-2.2ZM205.85,263.12c1.49-.83,2.9-2.06,4.49-2.36.92-.17,2.78.88,2.95,1.99.19,1.32-1.1,1.1-2.33,1.11-1.72.01-3.29-.85-5.11-.74ZM219.74,276.74c.44,1.03.44,2.12.92,3.12-1.77-.5-2.43-2.11-3.58-3.17-2.25-2.06-4.66-3.89-7-5.81-.82-.67-.93-1.2-.06-1.9.84-.68,1.41-1.8,2.74-1.7.4.91-.39,1.2-.76,1.66-.49.62-.1,1.01.39,1.04,2.35.17,3.53,1.6,4.14,3.67.47,1.58,2.49,1.36,3.21,3.07ZM225.54,239.22c-.48,3.25-2.14,6.04-3.62,8.82-1.7,3.21-2.98,6.62-4.95,9.71-1.03,1.62-1.9,3.04-4.15,2.29-.81-.17-2.24.45-2.39-.48-.16-1.04.39-2.39,1.38-3.14,3.62-2.77,5.6-6.79,8.02-10.45,1.58-2.39,2.75-5.04,4.14-7.56.21-.38.52-.96,1.11-.62.54.3.55.76.45,1.44ZM161.52,143.05c.27.6-.07,1.21-.49,1.49-.82.54-.64-.25-.91-.71-.72-1.21-2.43-.45-3.42-1.34,1.22-1.12,4.23-.76,4.82.57ZM160.71,41.17c.15-.6.42-1.28,1.46-1.31.3,4.29,1.27,8.57.03,12.86-.28.98-.27,1.92-.36,2.89-.04.45.14,1.1-.48,1.21-.58.09-1.13-.19-1.33-.84-.14-.47-.27-.94-.34-1.42-.69-4.54-.1-8.99,1.01-13.39ZM155.13,36.33c3.08,1.75,3.47,2.91,1.73,6.1-.29-2.39-2.17-3.82-1.73-6.1ZM69.86,148.42c-.73-.16-1.94.83-2.2-.62-.09-.52-.04-1.19-.66-.84-2.48,1.39-1.99-.46-2.03-1.77-.14-1.34.62-2.66.05-4.03-.14-.34,0-.82.47-1,.47-.19.83.1,1.06.41,1.15,1.58,3.76,2.43,2.6,5.19-.15.35.31.62.62.48.84-.37,1.33.03,1.39.76.07.81-.67,1.57-1.29,1.43ZM76.48,207c-2.25-7.18-4.42-14-5.77-21.12-1.36-7.18-.95-14.25-.15-21.7,2.66,1.51,4.03,3.78,5.88,5.54.38.36.63.91.48,1.54-.99,4.16-.94,8.41-1.33,12.63-.23,2.47-.54,5-.74,7.49-.37,4.51,1.16,8.79,2.1,13.13.16.72.5,1.36-.47,2.5ZM85.94,224.14c.43-1.17,2.64-.62,4.03-.14,1.28.44,1.19,1.36.78,2.38-.55,1.39-.03,2.84-.11,4.26-.37,6.73-.98,13.44-1.22,20.18-.09,2.6.33,5.21-.17,7.85-.23,1.23-.43,1.46-1.51,1.32-6.08-.8-12.02-2.58-18.23-2.42-2.48.06-1.29-1.88-1.57-2.99.64-7.15,1.32-14.23,1.88-21.33.19-2.36,0-4.76.08-7.13.04-1.25-.12-2.84,1.73-2.95,1.94-.11,4.19-1.69,5.67,1.08.74,1.39,2.38,1.01,3.61,1.43,1.98.67,3.86,1.61,5.02-1.53ZM80.75,216.05c2.12-.06,2.37,1.38,2.51,3.06.17,2.01-1.29,1.43-2.27,1.57-2.3.32-.75-1.58-1.44-2.26.6-.77-.72-2.32,1.19-2.38ZM93.82,202.11c1.5-3.31,2.9-6.67,5.71-9.12-1.01,3.64-2.88,6.69-5.71,9.12ZM115.57,159.38c1.76,3.74,2.01,4.6-.52,7.45-2.51,2.83-4.94,5.71-6.92,8.99-1.46-.75,1.11-2.64-1.02-3.04-2.79,4.36-4.55,9.24-6.97,13.8-1.05,1.98-2.16,4.02-3.38,5.78-3.67,5.3-6.61,11.01-9.79,16.57-1.32,2.31-3.45,1.7-5.06,2.69-.36.22-.53-.51-.81-.74-1.6-1.3-1.87-3.46-2.09-5.01-.86-5.98-2.99-11.74-2.12-18.06.63-4.51,1.17-9.11,1.36-13.7.02-.45.15-.89.26-1.48,1.78.95,2.62,2.83,2.7,4.03.22,3.15,2.08,6.13.98,9.41-.17.5-.66,1.17.13,1.76.82.61,1.16-.08,1.65-.44.7-.51,1.65-.74,2.24-.34.78.52.21,1.43,0,2.21-.75,2.8-1.42,5.62-2.09,8.45-.09.38-.67.96.15,1.18.62.16.68-.5.98-.85.38-.44.13-1.63,1.38-1.22.29.1.4-.59-.04-.56-.84.07-1.14-.21-.77-.91.25-.47.83-1.01,1.41-.52.77.65,1.48.61,1.68-.27.31-1.37-1-.75-1.46-.76-1.41-.04-.91-1.16-.78-1.56,1.44-4.36,1.46-9.3,6.24-12.2,1.98-1.2,3.36-3.6,5.6-4.98-2.44,4.53-4.05,9.41-6.86,13.74,1.99-1.04,3.43-2.53,4.23-4.55.15-.37.13-.77.52-1.01,1.34-.79,2.66-1.45,2.02-3.56-.36-1.2,1.19-1.57,1.97-2.23,1.04-1.64,2.08-3.27,3.11-4.91.59.1,1.18.64,1.75-.11.57-.75,1.12-.36,1.64.11.13-.2.23-.55.39-.59,2.8-.58,3.22-1.57,1.67-3.9-.11-.16-.09-.46-.04-.68.65-3.09-.01-6.05-.92-8.96-.23-.74-.22-1.44-.24-2.17-.03-1.31.05-2.53,1.86-2.49,1.66.04,3.61-.4,3.69,2.19.05,1.6,1.63,2.1,2.24,3.41ZM81.46,171.3c.89-.46,1.18.47,1.4.93.51,1.01,1.56,1.91,1.02,3.4-1.33-.57-2.11-1.4-2.38-2.8-.1-.54-1.03-1.02-.04-1.53ZM139.29,121.24c1.09.08,2.18.32,3.26.29,1.88-.06,2.86.88,2.93,2.63.06,1.52,1.27,2.67,1.13,4.2-.06.65.71,1.44-.29,1.94-1.13.56-1.04-.69-1.54-1.06-.24-.18-.4-.54-.96-.3-.09,2,.85,3.66,2.09,5.23-2.54.77-3.8-3.03-6.67-1.26.75-1.84,1.71-3.16,2.91-4.28.55-.52.95-1.09,1.29-1.75.29-.56.38-1.15-.18-1.53-.41-.29-.92-.21-1.37.12-.45.34-.94.63-1.41.94-.58.38-.98,1.44-1.78.94-.76-.47-.89-1.46-.95-2.4-.05-.81.42-1.52.16-2.38-.37-1.19.47-1.39,1.4-1.32ZM152.41,68.75c-.84,3.82.08,7.77-.87,11.6-.37,1.49-1.02,2.7-2.35,3.49-.28.17-.59.28-.87.45-4.03,2.46-5.2,3.69-2.42,8.04-2.13,1.11-4.92,0-6.68,2.18-1.07-2.21-.61-4.1-.32-6.28.53-4,3.23-7.12,3.61-11.09.25-2.67-.21-5.4.65-8.02.15-.45,0-.98.42-1.36,1.14-1.02,7.58-.96,8.55.12.19.21.34.6.28.86ZM151.39,40.28c.37-.24.72.11.97.47.93,1.3,2.4,2.36,1.98,4.54-1.93-.8-2.01-2.64-3.11-3.7-.33-.32-.29-1.02.16-1.31ZM141.3,22.28c.24-.36.45-.93.99-.76,2.56,1.08,3.83,3.18,4.93,5.41.52,1.06.63,2.35,1.95,2.88,1.87.76,1.93,2.2,1.39,3.85-.15.47.13.95-.91.9-1.9-.1-2.91-1.83-2.81-2.66.34-2.8-2.98-3.53-2.95-6.07,0-.5-1.56-.93-2.25-1.57-.52-.48-.82-1.27-.34-1.99ZM140.86,40.91c.7.92,1.83,1.86,2.23,3.26.19.67-.4,1.17-.98.54-.86-.92-1.58-1.98-2.24-3.06-.23-.38-.11-1,.99-.74ZM136.33,16.55c.2.84.91,1.43,1.03,2.41.14,1.12.49,2.33,2.05,2.59.62.1,1.33.75.84,1.7.14.97-.06,1.9-1.09,2.13-1.09.24-.94-.97-1.19-1.52-1.05-2.29-2.97-4.13-3.55-6.65-.15-.65-.44-1.65.38-1.9.62-.19,1.31.35,1.52,1.23ZM131.34,11.94c1.18-.02,2.37.06,3.46-.46.64,2.22-2.49.48-2.07,2.44.25,1.16.34,2.4-.24,3.71-2.19-1.24-1.19-3.7-2.15-5.33-.12-.2.62-.34,1.01-.35ZM127.43,14.38c.6-.07,1.76-.44,1.83.69.12,1.7,1.12,3.11,1.3,4.86-1.59-1.05-2.46-2.68-3.49-4.16-.25-.36-.41-1.3.36-1.39ZM127.91,23.49c.4.49.44,1.08,1.59.79,1.52-.39.91,1.78,1.83,2.46.75.55,0,.96-.36,1.33-.97.97-1.49-.18-1.96-.59-1.74-1.52-1.95-3.82-3.29-5.96,1.67.26,1.67,1.35,2.19,1.98ZM120.02,11.15c.14.08.32.13.42.24,1.44,1.65,3.37,2.91,3.98,5.2.2.75-.13,1.35-.74.81-1.61-1.43-3.46-2.71-4.22-4.92-.24-.7-.04-1.06.56-1.34ZM123.32,20.76c-.27,1.03-1.35.02-2.11.54-.73.49-1.37-.58-1.58-1.34-.15-.57-.51-1.23-.03-1.9.87-.14,1.5.47,2.14.86.69.43,1.87.71,1.57,1.84ZM113.95,13.44c1.57-.88.93-1.92.39-3-.17-.33-.03-.72.31-.78.25-.04.63.16.82.36,1.05,1.12,1.35,2.7,2.42,3.87.53.58.32,1.87,1.72,1.2.06-.03.55.5.51.69-.19.84-.83.81-1.39.63-1.66.44-2.58-1.65-4.17-1.01-.22-.68-.74-1.89-.62-1.96ZM105.8,6.71c.27-.05.78.1.85.29.63,1.69,1.87,1.15,3.11,1.01,2.23-.26,3.72,1.3,3.87,4.11-.5.76-.68,1.82-.96,2.86-.21.78-.86.46-1.1-.23-.62-1.8-1.84-2.75-3.61-3.57-1.13-.52-1.65-2.41-2.41-3.7-.17-.29-.12-.7.26-.77ZM98.35,5.45c.24-.54.49-.69,1.11-.52.74.2,1.42.26,1.41,1.3-.02,2.83,1.74,4.81,3.5,6.7.98,1.05,1.73,2.1,1.78,3.57,3.99,2.38,3.48,6.76,4.84,10.53-.8-.4-4.69-8.61-5.07-10.33-1.71-1.56-3.58-2.85-4.35-5.35-.46-1.5-1.93-2.76-3.11-3.96-.73-.74-.41-1.25-.11-1.93ZM101.83,15.53c-.66-.08-1.39.13-1.92-.63-1.07-1.52-1.79-3.13-1.74-5.53,1.84,1.78,2.76,3.75,4,5.46.15.21.12.75-.34.7ZM89.08,13.23c-.27-.02-.52-.49-.26-.78.16-.18.57-.26.82-.2,1.55.4,2.75,1.24,2.7,3.01-.03.93-.38,1.84-.59,2.81-1.4-.39-1.37-1.51-1.32-2.38.07-1.19.43-2.32-1.34-2.46ZM92.01,7.36c-1.91,1.95-4.07,2.7-6.21,3.9.98-2.74,3.4-4.28,6.21-3.9ZM81.77,15.65c.84-.16,1.73.6,1.76,1.39.1,2.56,1.81,4.43,2.62,6.67.47,1.29-.26,1.55-.9,2.29-.7-.74-1.46-1.34-1.52-2.21-.09-1.14-.69-1.61-1.55-2.23-1.35-.96-1.53-2.7-1.87-4.2-.19-.87.75-1.56,1.47-1.7ZM79.45,19.82c.1,1.21.14,2.13.26,3.04.13.94-.01,2.15,1.68,1.32.85-.42.66.65.88,1.07.2.38.65.92-.12,1.14-.5.14-1.36.27-1.56.01-1.09-1.38-2.38-2.69-2.77-4.49-.24-1.14.8-1.36,1.62-2.08ZM77.39,51.5c2.2-1.73.66-4.72,2.8-7.29,0,3.91,0,7.22,0,10.54,0,.53-.22,1.1-.8.98-.66-.14-1.02-.64-.76-1.45.31-.98.97-2.22-1.03-2.15-.07,0-.27-.57-.21-.62ZM81.69,114.32c-3.12-1.99-5.58-4.38-5.43-8.53.24-6.23.07-12.49.63-18.69.29-3.25.05-6.57.82-9.8.93,2.08.12,4.37,1,6.43.25.58.17,1.53,1.02,1.32.79-.2.54-1.12.37-1.72-1.54-5.54-.61-11.16-.45-16.82,1.7,3.57.89,7.8,3.02,11.36-.13-2.48,3.02-1.97,3.45-3.86-1.3-1.03-2.34,1.46-3.45.04-.89-1.13-.15-2.61-.56-3.8-.54-1.61-.35-2.47,1.51-2.57.74-.04,1.34-.32,1.71-1.13.5-1.09,1.67-1.39,2.4-.59.62.7.87,1.96-.49,2.64-.7.34-.99,1.06-1.36,1.69-.31.53-.17,1.16.4,1.09,2.21-.26,1.06,1.04,1.04,1.94-.11,5.3-2.28,9.91-4.73,14.43-.54.99-.55,1.79.25,2.66,1.99,2.16,4.22,3.95,7,5,.87.33,1.51-.15,1.93-.62.63-.71-.23-1.18-.68-1.56-.85-.73-1.71-1.35-2.4-2.33-1.95-2.77-2.11-5.01-.03-7.68.52-.67,1-1.21.93-2.12-.34-4.14.76-8.01,2.22-11.81.72-1.88.86-3.93,1.8-5.78.69-1.35-.11-2.83-1.12-3.64-1.1-.89-2.05-1.77-2.79-2.97-1.33-2.12-3.48-1.96-5.48-1.51-1.94.44-2.65-.04-2.54-2.05.2-3.48.14-7.05-.28-10.41-.54-4.26,1.58-6.45,3.83-9.31,1.09-1.39,2.14-3.3,2.92-5.15.74-1.74,1.96-2.61,4-1.22,1.94,1.31,4.2,2.08,6.56,2.42,1.59.23,2.46,1.78,4.06,2.09.8.15,1.51.55,2.31.08,4.46-2.62,9.46-3.69,14.37-5,1.88-.5,3.44.36,5.2,1.34,3.41,1.9,5.11,5.75,8.83,7.16.87.33.87,1.3.84,2.15-.04,1.63-.74,3.18-.54,4.84.05.39-.09.9-.65.77-.22-.05-.56-.53-.51-.69.33-.97.05-1.48-.98-1.35-.94.12-.74.93-.76,1.56-.03.82,0,1.64-.01,2.46-.02,1.37-.25,2.25-2.1,2.21-1.09-.03-2.44.82-3.27,1.66-1.19,1.2-.32,2.04,1.03,2.4,2,.53,3.73,1.59,5.45,2.67.45.28,1.05.73.61,1.38-.37.56-.87.11-1.29-.08-.75-.35-1.57-.84-2.09.2-.61,1.22.64,1.33,1.22,1.91,1.16,1.14,3.3,1.15,3.6,3.35.14,1.04.62,1.62-1.02,1.48-1.63-.14-1.39,1.31-.87,2.05,1.55,2.2,3.09,4.27.35,6.64.62,2.3-1.06,4.09-1.32,6.17-.08.58-.2,1-.45,1.51-.74,1.54-1.76,3.13,1.28,3.52,1.25.16,2,1.84,3.8,1.46.9-.19,1.25,1.27.83,2.13-1.29,2.67-.29,5.9-2.16,8.43-.32.44.09.95.72.9.47-.04,1.04-.33.97.51-.05.56-.64,1-1,.89-1.3-.37-1.12.46-1.4,1.26-1.57,4.4-3,8.88-5.03,13.07-1.35,2.78-4.48,3.98-7.29,4.89-7.32,2.37-14.89,3.41-22.57,3.58-2.4.05-4.72-.43-6.94-1.34-3.35-1.38-7.11-1.6-10.23-3.59ZM81.69,61.66c.02-1.9,1.33-.76,2.12-1.03,1.38.52,2.67-.82,4.22-.17,1.18.5,2.06.99,1.75,2.35-.39,1.73-1.26.85-2.3.49-1.1-.38-2.41-.14-3.62-.18-1.02-.03-2.18.27-2.16-1.46ZM90.38,134.25c.04-.81.03-1.64.18-2.43.28-1.45-.54-2.92,1.19-4.39,1.15-.97.38-3.64-.32-5.35-.83-2-.32-1.77,1.43-1.6,4.21.41,8.42.32,12.68-.13,5.53-.59,10.99-1.31,16.31-2.98.7-.22,1.33-.63,1.93-.79,1.5-.4,2.33-2.33,4.4-1.66.6.2,1.79-1.37,2.06-2.5.85-3.57,3.38-6.48,3.91-10.17.05-.35.26-.79,1.11-.88-.39,2.49,0,5.08-1.05,7.33-1.81,3.89-1.47,8.19-2.78,12.17-.6,1.82.58,3.67.5,5.55,0,.17.24.44.43.5,3.11,1.12,3.76,2.84,1.45,5.13-4.68,4.65-9.55,9.1-15.65,11.93-1.45.67-2.86,1.5-4.1,2.5-1.2.96-2.65,1.95-1.91,4.25-1.36-1.25-2.33-1.82-2.41.33-.04.99-.47,1.5-1.64,1.51.16-.73.31-1.38.47-2.09-1.16-.18-.98.84-1.03,1.25-.08.72-.12,1.19-.93.76-2.6-1.37-1.98.8-1.61,1.71,1.27,3.12.76,6.42,1.29,9.6.26,1.59-.6,2.63-1.79,3.49-4.56,3.26-9.13,6.51-12.59,11.02-.39.51-.93.8-1.47.59-.51-.2-.34-.85-.35-1.31-.02-.73.05-1.43.31-2.16.38-1.03.18-1.97-.66-2.9-4.69-5.23-6.64-11.68-7.42-18.44-.32-2.79,1.74-5.1,3.29-7.62,1.08,1.46-.87,2.4-.1,3.81.89-.66,1.56-1.29,1.73-2.43.69-4.61,2.94-8.87,3.15-13.6ZM133.4,125.26c-.52-3.69,1.09-7.02,1.41-10.57.74,3.7.11,7.21-1.41,10.57ZM80.26,132.17c1.98-.43,3.41-1.86,5.2-2.6.98-.4,1.4-.83,1.39.95-.03,3.49-1.6,6.42-2.35,9.59-.78,3.31-2.45,6.15-3.54,9.21-.71,1.98-1.6,3.88-1.98,6.01-.18,1-.14,1.87.07,2.85.5,2.35.2,4.7-.52,6.98-.36,1.14-.89,1.75-2.02.6-1.08-1.1-2.08-2.28-3.47-3.06-1.08-.61.31-1.87-.48-2.65,2.22-1.99.7-4.84,1.63-7.09,1.49-3.58.38-7.72,2.5-11.16.24-.39.16-1.01-.43-1.23-.47-.18-.67.19-.96.51-.97,1.11-1.11,2.46-1.31,3.96-2.55-3.72-5.76-6.56-9.35-9.21,5.74.61,10.45-2.52,15.64-3.64Z"/>
      <path class="cls-1" d="M17.51,318.69c.52.41,1.03.83,1.54,1.24-.61.75-1.48,1.02-2.1.3-1.54-1.77-4.02-2.58-4.98-4.91,0,0,.09-.13.09-.13,2.17.62,3.82,2.06,5.45,3.51Z"/>
      <path class="cls-1" d="M242.76,220.06c-1.29-.87-2.38-1.65-3.52-2.35-.7-.43-.89-1.04-.4-1.58.48-.53.86.17,1.1.48.87,1.14,2.86,1.32,2.83,3.45Z"/>
      <path class="cls-1" d="M12.06,315.18s-.09.13-.09.13c-1.33-.88-3.01-1.49-2.74-3.6,0,0-.12.07-.12.07,1.51.68,2,2.24,2.95,3.4Z"/>
      <path class="cls-1" d="M103.52,172.55c.94.62.89,1.4.42,2.31-.99,1.93-2.39,3.48-4.13,4.84-.72-1.15.21-1.6.59-2.24,1.04-1.64,2.08-3.28,3.12-4.92Z"/>
      <path class="cls-1" d="M210.56,311.51c1.78-1.51,3.55-3.03,5.46-4.65.3,1.33-.04,1.66-1.17,2.43-1.34.92-2.62,2.27-3.96,3.39-.21.17-.73.62-1.04.1-.24-.42.27-.69.47-1.02.08-.08.17-.17.25-.25Z"/>
      <path class="cls-1" d="M134.9,136.69c.89-.4,1.46-.35.87.79-.9,1.75-2.76,2.8-3.5,4.71-.62-2.64,2.34-3.48,2.72-5.6,0,0-.1.1-.1.1Z"/>
      <path class="cls-1" d="M222.21,298.2c.31-1.68,1.89-2.55,2.75-3.87.25,2.06-.93,3.17-2.82,3.79,0,0,.08.08.08.08Z"/>
      <path class="cls-1" d="M172.43,233.62c-1.69-.13-2.53-1.2-3.1-2.87,1.6.56,2.94,1.09,3.02,2.95,0,0,.08-.08.08-.08Z"/>
      <path class="cls-1" d="M125.07,143.57c.53-.17,1.2-.54,1.55.03.41.68-.4.91-.79,1.26-.45.42-.9.85-1.46,1.38-.77-1.31.93-1.8.8-2.78,0,0-.1.1-.1.1Z"/>
      <path class="cls-1" d="M195.11,324.56c.36-.63,1.08-.02,1.5-.43.29-.28.18-1.09.92-.71.15.08.21.42.22.64.05.87-.58.59-1.09.73-1.33.38-1.3.47-1.34-.43-.08.05-.15.12-.21.2Z"/>
      <path class="cls-1" d="M116.78,256.56c-4.44-2.69-8.83-5.25-12.77-8.51-.35-.29-.93-.28-1.35-.51-1.81-1.01-3.4-1.6-2.46-4.68,1.21-3.97,1.38-8.32,1.59-12.53.43-8.39,1.12-16.77,1.02-25.17-.02-1.29.4-1.85,1.74-2.04,2.39-.35,4.57.47,6.84.79,2.77.39,5.1,2.21,8.15,1.8,1.97-.27,4.13.58,6.16,1.09,2.87.71,5.72-.53,8.57,0,.77.14,1.63-.11,2.79.8-2.61.53-4.92.61-7.02.57-4.15-.1-8.34-.26-12.45-1.23-3.1-.73-6.32-.96-9.35-2.03-2.23-.78-3.34-.28-3.39,1.93-.1,4.23-.96,8.45-.86,12.62.12,5.08-.46,10.11-.46,15.18,0,2.68-1.1,5.49-1.18,8.33-.04,1.4.68,2.01,1.73,3.01,2.55,2.41,5.78,3.8,8.3,6.19,1.23,1.17,3.02,1.69,4.21,3.02.3.33.56.56.19,1.37Z"/>
      <path class="cls-1" d="M164.84,234.06c-1.34-4.5-1.7-9.12-1.51-13.77.07-1.72-1.19-3.01-1.01-4.73.46-4.46.57-8.82,2.57-13.15,1.18-2.55,2.13-5.49,2.96-8.32,1.58-5.4,4.71-10.06,7.12-15.07,2.02-4.2,3.61-8.61,6.09-12.59.65-1.05,1.58-3.06,2.3-2.6,1.5.96-.27,2.28-.82,3.17-2.06,3.32-3.06,7.09-4.88,10.49-3.31,6.19-6.41,12.48-8.98,19.02-2.53,6.43-5.2,12.81-4.36,19.99.39,3.34.19,6.73,1.02,10.02.18.7.29,1.55.94,1.9.96.52,1.38.79,0,1.26-.21.07-.49.64-.41.76,1.12,1.64-.77,2.4-1.02,3.63,0,0,0,0,0,0Z"/>
      <path class="cls-1" d="M145.69,198.67c3.7,9.18,7.47,18.36,11.29,27.51-3.09-2.49-12.1-24.28-11.29-27.51Z"/>
      <path class="cls-1" d="M168.3,291.93c1.37,3.74-.52,7-1.5,10.39-.59-3.62.53-6.99,1.49-10.39,0,0,0,0,0,0Z"/>
      <path class="cls-1" d="M29.57,266.33c-.82-3.26-.62-6.65.58-10.03.28,3.15,1.03,6.31-.58,10.03Z"/>
      <path class="cls-1" d="M157.5,227.49c3.38,2.28,4.21,4.5,2.85,6.83-.97-2.32-1.91-4.57-2.85-6.83Z"/>
      <path class="cls-1" d="M30.31,248.82c1.24,2.24.43,3.93.32,5.59-.69-1.63-.71-3.29-.32-5.59Z"/>
      <path class="cls-1" d="M38.43,215.98c.64,1.79.57,3.13.07,4.99-.83-1.84-.79-3.18-.07-4.99Z"/>
      <path class="cls-1" d="M76.34,278.53c.63,1.79.34,3.15-.1,4.5-.32-1.37-.74-2.74.1-4.5Z"/>
      <path class="cls-1" d="M205.28,195.13c.25-.52.7-.66,1.05-.53.9.35,1.25-1.08,2.07-.59.26.15.19.66-.11.82-.95.51-1.91,1.23-3.01.29Z"/>
      <path class="cls-1" d="M73.31,296.37c-.6.93-.09,2.16-1.06,2.96-.09.08-.42-.12-.63-.2.35-1.01.7-2.01,1.04-3.02.21.08.43.17.64.25Z"/>
      <path class="cls-1" d="M165.85,307.58c-.88-1.21-.55-2.31.49-3.59.24,1.38-.07,2.47-.49,3.59Z"/>
      <path class="cls-1" d="M190.52,240.8c-.45-.45-1.48-.26-1.51-1.22-.02-.45.44-.81.82-.59.51.3,1.34.27,1.47,1.06.08.48-.26.72-.78.75Z"/>
      <path class="cls-1" d="M236.37,265.19c3.41-.4,6.2.46,9.04.43.51,0,1.66.26,1.43,1.27-.19.82-1.11.68-1.66.48-.94-.33-1.5-.62-1.27.85.12.73-.77.78-1.29.75-1.48-.08-2.93-.86-4.46.17-.44.3-.68-.81-.45-1.04,1.55-1.57-.2-1.91-1.34-2.91Z"/>
      <path class="cls-1" d="M203.66,319.88c-.28-1.59,1.65-5.09,2.54-5.09.95,0,.91.5.61,1.31-.59,1.64-2.61,1.77-3.16,3.78Z"/>
      <path class="cls-1" d="M230.4,288.04c-.59-.15-.47-.52-.26-.9.38-.69.72-1.41,1.18-2.04.24-.33.63-1.01,1.09-.6.63.57.06.96-.51,1.19-.79.32-.6,1.03-.69,1.64-.07.45-.31.72-.8.71Z"/>
      <path class="cls-1" d="M90.5,98.27c5.35-.33,10.42.72,15.48,1.95,1.79.44,3.67.56,5.51.81.42.05.88.06,1.05.48.23.56-.21.92-.59,1.22-1.44,1.13-3.23,1.14-4.92,1.48.49,2.44-1.85,2.29-2.92,3.34-1.22,1.2-3.79.17-4.08,2.63-1.08-.21-2.19-.29-3.26-.41-3.7-.41-7.48-.36-11.11-1.62-1.74-.6-1.94-1.83-1.39-2.71,1.29-2.07-.43-2.14-1.44-2.71-.64-.37-1.76-.14-1.59-1.41.15-1.11.97-2.09,1.83-2,2.63.28,4.89-1.89,7.44-1.04ZM87.3,103.78c1.14,2.96,1.37,3.12,4.31,3.16,1.71.02,3.39.15,5.1.4,3.04.45,5.66-1.02,8.97-2.44-6.5-1.58-12.32-1.57-18.39-1.12Z"/>
      <path class="cls-1" d="M100.97,60.94c.31-.92.89-1.14,1.5-1.41.37-.16.96-.82.38-1.1-1.85-.88-.31-1.61-.02-2.41.49-1.32,1.62-1.45,2.77-1.45,4.6,0,9.2.32,13.7,1.23,2.54.51,5.13,1.38,6.57,3.93.4.71.82,1.47.15,2.24-.54.62-1.2,1.22-2.08.74-3.84-2.08-7.89-.27-11.78-.71-3.7-.42-7.54.14-11.2-1.07Z"/>
      <path class="cls-1" d="M100.85,92.17c3.9,0,4.17-.41,4-4.32-.08-1.84-1.45-1.87-2.52-2.49-.9-.52-2.7-.68-2.17-2.06.42-1.06,2.14-.67,3.13-.32,1.77.62,3.87,1.15,4.41,3.3.65,2.59-1.03,6.51-2.78,7.84-1.46,1.11-2.76.01-4.13.06-2.02.07-4.15-.45-5.36,1.86-.26.49-.63.46-.98.13-.48-.46-.49-.88-.07-1.48,1.37-1.96,2.7-2.52,6.46-2.51Z"/>
      <path class="cls-1" d="M99.58,41.37c6.08-2.22,12.34-3.71,18.74-4.62.43-.06.95-.22,1.04.2.57,2.59,3.1,2.57,4.76,3.68.4.27,1.11.49,1.15.79.09.75,1.57,1.05.65,2.04-.95,1.02-1.37-.1-1.96-.52-4.8-3.42-9.88-4.23-15.56-2.26-2.47.86-5.23.88-7.86,1.26-.4.06-.81-.02-.96-.56Z"/>
      <path class="cls-1" d="M114.98,69.66c-1.22-.09-2.05-.06-2.46-1.72-.4-1.61-2.49-.83-3.76-1.33-.73-.29-2.09.33-1.89-1.16.15-1.14,1.16-.99,2.11-.91,2.98.24,5.98.56,8.96.48,1.89-.05,3.44.85,5.19,1.08.44.06.79.25.77.76-.01.37-.27.6-.61.65-2.83.48-5.64,1.05-8.31,2.15Z"/>
      <path class="cls-1" d="M110.04,87.82c4.7,2.67,9.12,8.93,7.12,13.04-.21.42-.14,1.04-.79,1.04-.66,0-.79-.57-.72-1.05.68-4.39-1.84-7.35-4.55-10.22-.76-.8-1.22-1.64-1.06-2.81Z"/>
      <path class="cls-1" d="M99.36,131.56c-.01,3.94,1.05,7.77-1.41,11.27-.32.46-.76,1.29-1.55.84-.75-.42-.43-1.11-.12-1.72,1.5-2.89.67-6.31,2.05-9.24.17-.36.13-.82,1.03-1.16Z"/>
      <path class="cls-1" d="M27.58,283.95c.57,1.85.65,3.63-.01,5.41-.62-1.82-.57-3.64.01-5.41Z"/>
      <path class="cls-1" d="M31.02,290.82c.64,1.17.65,2.35-.01,4.26-.62-1.86-.6-3.04.01-4.26Z"/>
      <path class="cls-1" d="M31.15,297.71c-.42,1.65-.66,2.61-1.02,4.02-.76-1.68-.97-2.76,1.02-4.02Z"/>
    </g>
  </g>
</svg>