<?xml version="1.0" encoding="UTF-8"?>
<svg id="Layer_2" data-name="Layer 2" xmlns="http://www.w3.org/2000/svg" viewBox="0 0 254.28 367.58">
  <defs>
    <style>
      .cls-1, .cls-2 {
        stroke-width: 0px;
      }

      .cls-2 {
        fill: #fff;
      }
    </style>
  </defs>
  <g id="Layer_2-2" data-name="Layer 2">
    <path class="cls-2" d="M58.56,280.52c-.1.78.12-.52.29-1.54,1.17-.02,2.34-.05,3.51-.08,1.43,3.19,2.18,7.06,3.13,10.73,1.73,6.71,3.63,13.55,4.46,20.45,1.45,12.18.51,24.61,0,36.82-.13,3.27-.27,6.54-.4,9.81,1.76-.41,3.56-.58,5.38-.44,15.87,1.17,31.6,3.66,47.33,5.99,1.87.28,3.75.55,5.63.82.46.07,1.5.22,2.37.35,3.1.42,6.21.78,9.31,1.11,6.89.73,13.81,1.24,20.74,1.36,14.37.24,28.79-1.45,43.13-2.31,14.65-.87,29.31-1.64,43.95-2.6-.45-8.04-1.04-16.07-1.83-24.07,5.07-7.22,7.42-15.87,6.98-24.86-.51-10.4-4.38-19.81-7.11-29.71-5.47-19.81-.62-40.84,1.4-60.82,1.08-10.63,1.1-21.39-3.15-31.39-3.87-9.11-10.81-16.1-17.89-22.81-7.25-6.87-14.87-13.82-23.71-18.58-5.12-2.76-10.86-4.68-16.3-6.73-.25-.83-.57-1.65-.95-2.45-2.26-4.7-5.78-8.78-9.49-12.4-1.65-1.61-3.37-3.15-5.01-4.78-.82-.82-1.63-1.66-2.4-2.54.03,0-.41-.61-.7-.95-.39-.47-.59-.64-.69-.69,0-.14-.05-.48-.25-1.22-.08-.29-.28-2.05-.24-1.26-.17-2.68.11-2.83.87-5.55,1.59-5.67,4.14-11,5.96-16.59,4.24-13.03,2.94-26.52.82-39.81-1.96-12.27-5.25-24.26-9.65-35.87-1.77-4.66-5.38-8.32-9.89-9.51-1.61-1.58-3.62-2.85-5.87-3.69-16.12-5.97-34.05,2.82-42.91,16.62-4.68,7.3-6.7,16.1-7.17,24.67-.22,4.13.17,8.21.73,12.29-1.75.67-3.32,1.67-4.47,3-7.47,8.58-5.68,20.62,3.92,26.86,1.8,1.17,3.94,2.01,6.03,2.52.62.15,1.29.23,1.95.31.31,1.09.66,2.19.89,3.24,1.53,7.06,2.86,14.96,2.05,22.21-.01-.25-.52,2.29-.68,2.72.28-.75-.8.92-.88,1-1.11,1.16-1.32,1.29-1.84,1.71-2.07,1.66-4.26,3.17-6.32,4.85-3.03,2.49-5.43,5.52-7.62,8.76-.71,1.05-1.31,2.27-2.1,3.29.23-.46-1.78,1.06-2.36,1.36-7.16,3.74-14.98,6.5-22.42,9.66-15.41,6.56-30.85,12.71-40.65,27.12-8.6,12.64-10.62,28.48-12.87,43.22-1.38,9.04-2.67,18.16-2.93,27.32-.25,8.8.7,17.56.94,26.34.45,16.56-5.49,31.39-8.18,47.58-2.21,13.33-1.69,26.5.66,39.59,4.15-1.28,8.61-1.46,12.75-.23,7.72,2.29,15.53,4.29,23.46,5.71,1.24.22,2.47.43,3.71.62-.81-.1-1.62-.2-2.43-.3,2.16.34,4.36.5,6.54.67.68.05,1.36.09,2.04.13,1.89-16.05,4.08-32.09,5.93-48.1,1.47-12.71,2.91-27.61,4.49-38.96ZM105.89,88.86c.03.22.08.44.12.66-1.08-.72-1.72-1.25-.12-.66Z"/>
    <g>
      <path class="cls-1" d="M224.9,276.93c1.09.51-.17,1.51.67,1.99,1.22-.57,1.14-1.88,1.59-2.88.29-.65.91-1.43,1.34-.64.76,1.38.8.28,1.16-.13,1.57-1.72,2.28-3.91,4.97-5.02,2.33-.96,5.57-1.68,6.71-4.78.06-.15.61-.23.9-.17.38.07.27.44.31.76.24,1.84-.43,3.58-.43,5.39,0,10.28,2.4,19.92,6.81,29.23,1.83,3.86,3.56,8.06,3.21,12.61-.11,1.41-.03,3.82-.62,4.03-1.78.6-1.14,1.83-1.61,2.81,1.07.14.6-1.39,1.66-1.22-.29,2.59-1.74,4.68-1.87,7.32-.11,2.09-.85,4.33-1.35,6.5-1.66,7.22-1.8,14.63-3.19,21.89-.73,3.8-.99,7.69-1.17,11.59.42-.02.84-.03,1.26-.03-.02-.7.31-1.39,1.08-2.04.59-.5-.03-.85,0-1.24.08-1.41-1.13-3.33,1.42-3.89.49-.11.47-.82.43-1.31-.26-3.87,1.03-7.68.42-11.58-.16-1.04,1.43-1.22,1.37-2.36-.29-5.25,1.34-10.28,1.92-15.44.49-4.33,1.56-8.6,2.37-12.9v-11.82c-2.41-2.13-2.75-5.31-4.1-7.97-4.91-9.7-7.43-19.75-5.22-30.66.24-1.19.32-1.81,1.85-1.81,2.52,0,3.23-1.28,2.43-3.52-.72-2.01-1.35-4.02-.15-6.11.3-.53-.04-1.24-.08-1.84-.13-1.89-2.02-2.41-2.66-3.95-.84-1.99-.62-3.98-.95-5.93-.61-3.63.3-6.96.71-10.41.28-2.33,2.66-4.13,1.64-6.8-.11-.28.49-.82.78-1.27.53.79-.03,1.72.69,2.34.74-.73.55-1.58.66-2.37.74-5.23.18-10.48.1-15.71-.02-1.36.13-3.22-.14-3.95-.88-2.36-.46-4.76-.97-7.07-.19-.88-1.44-.97-1.19-1.15,2.41-1.79-.53-1.56-.88-2.13-.38-.62-.98-1.1-1.37-1.85-1.51-2.91-1.92-6.2-3.25-9.14-.54-1.2-1.78-2.07-1.65-3.63.04-.53-.06-1.13-1.01-.89-1.12.28-1.46-.1-.46-.96.38-.33.46-.64.11-1.02-.32-.34-.65-.47-1.01-.04-.77.91-.78-.08-1.11-.41-2.87-2.82-4.64-6.72-7.7-9.15-4.48-3.57-8.29-8.03-13.65-10.52-4.46-2.07-8.04-5.7-12.73-7.44-.38-.14-.84-.59-.84-1.34,0-1.02-1.59-.87-1.79-1.91-1.19,1.45-1.99-.04-2.89-.43-4.64-2.04-8.41-5.37-12.32-8.48-.68-.54-1.4-.98-1.96-1.7-2-2.51-3.24-5.51-5.27-8.02-.57-.7-1.69-1.12-1.66-2.29.1-3.42-2.84-3.5-4.98-4.93-.14,1.76,1,2.29,1.77,2.82,2.01,1.41,2.88,3.65,3.47,5.66,1.02,3.48,2.48,6.83,3.37,10.3,1.11,4.3,4.08,8.13,3.39,12.92-.11.76.45,1.61.73,2.55.71-.35,1.07-.84,1.12-1.38.39-4.6-.71-9.05-1.64-13.63,1.81-.08,2.91,1,4.12,1.75,1.64,1.03,3.27,2.12,4.82,3.28,2.92,2.17,6.2,3.76,9.39,5.43,2.44,1.28,4.38,3.3,6.83,4.44,4.65,2.17,8.55,5.43,12.62,8.42,2.87,2.11,5.41,4.73,7.88,7.32,2.37,2.48,4.81,4.99,6.57,7.89,1.8,2.95,4.09,5.63,5.29,8.98.87,2.44,2.31,4.64,3.36,7.02.91,2.06,1.19,4.46,2.76,6.25.3.34.63.99-.03,1.43-.93-.24-.34-1.65-1.4-1.76-.3.34.02.64.01.93-.03,1.97,2.2,3.08,1.94,5.1-.21,1.66.3,3.29.17,4.89-.23,2.9,1.04,6.11-1.51,8.63-.2.2-.04.76-.05,1.15,1.31-.24,1.09.35.47.96-.8.79-.98,1.65-.57,2.68.3.77.19,1.44-.54,1.94-.75.51-.72,1.23-.44,1.97.27.72.35,1.44.1,2.17-1.99,5.82-1.99,11.83-1.69,17.87.03.62.56.71.83,1.05.69.88,1.54,1.89,1.17,3.05-.38,1.2-1.71,1.1-2.71,1.22-1.98.25-4.01.17-5.95.58-2.43.52-4.78,1.42-7.17,2.1-2.29.65-3.56,3-5.95,3.53-1.53.34-2.49,2.05-4.1,1.96-.99-5.43.45-10.72.43-16.06-.62,2.33-.8,4.74-1.96,7.49-.08-.84-.08-1.08-.12-1.32-.8-4.54,2.23-8.05,3.61-11.88,2.58-7.15,4.37-14.43,5.41-21.86,1.1-7.91,1.48-15.94,1.01-23.95-.13-2.19.24-4.45-.55-6.58-.18-.5-.23-1.27-1.04-1.11-.79.16-.69.84-.53,1.39.82,2.72.71,5.51.74,8.29.08,6.19-.44,12.34-1.15,18.49-.31,2.67-1.36,5.19-1.26,7.94.13,3.44-1.89,6.28-2.82,9.48-.87-.45-.21-1.52-1.14-1.66-1.06.39.28,2.34-1.21,2.16-2.2-.26-1.8.83-1.57,1.87-.04-.38.01-.74.51-.91.64-.23.84.38,1,.8.14.36,1.2.71-.02,1.22-.87.36-.34,1.66-1.12,2.49-.57-.85-.32-1.6-.16-2.35-2.21,2.68-2.29,5.42.61,8.5-1.55-.55-2.12-1.91-3.04-.89-.55.61-.72,1.42-.23,2.45,1.23,2.54.73,5.33-.75,7.4-1.3,1.83-2.32,3.29-1.41,5.5.02.04-.21.19-.27.23-.98.02.04-1.27-.97-1.35-.54,2.51.81,5.08-.44,7.46-1.34,2.55.33,5.36-.79,8.09-.42,1.04-.77,3.24.81,5.06.52-3.64.61-6.92,1.66-10.51,1.09,5.77.09,11.21.73,16.98,1.12-1.08.47-2,1.45-2.76.39,1.73.3,3.24.14,4.86-.72-.3-1.01-.95-1.77-.81-.28,2.16-.89,4.34-.3,6.54.7,2.6,0,5.24.3,7.9.43,3.96-.81,8.17-.13,12.24.68,4.04-1.75,7.38-2.02,11.18-.1,1.38-1.08.85-1.86.11v3.46c.74-.23.27-1.42,1-1.34.81,2.95-1.34,5.93.38,8.82.09.15,0,.51-.13.68-.47.62-.5.61-.24.94.61.78.58,1.73.43,2.58-.38,2.08-.27,4.24-1.12,6.26-.51,1.23-.54,2.5,1.87,3.43-1.92-2.33.59-2.91.69-4.34,1.31,1.65-.73,3.54.31,5.22.02.04-.24.33-.27.32-.48-.23-.99-.79-1.29.17-.23.73.59.91.79,1.4.23.56.91,1.85-.13,1.56-1.07-.3-1.07-.08-.97.61.19,1.24-.02,2.11-1.07,3-.64.53-1.72,1.79.78,1.91,1.47.07,3.33,1.08,3.12,3.57-.09,1.03-.43,1.8-.94,2.4,1.43.65,2.8,1.44,4.08,2.37-.12-.43-.18-.85-.03-1.1.99-1.64,3.08-2.91,1.21-5.19,1.6-.97.5-2.05.13-3.09-.48.27.08,1.24-1.44,1.25,1.76-3.46-1.63-7.72,2.69-10.57-2.43,1.29-2.48,1.28-2.6-.28-.43-5.52-.85-11.04-.95-16.58-.09-5.19-.08-10.38.78-15.52.87-5.22.51-10.57,1.69-15.76,1.35-5.9,2.24-11.86,2.29-17.93,0-.73.34-1.37,1.09-1.42,1.73-.09,2.61-1.22,3.24-2.6ZM212.36,343.05c-1.71-1.19-.02-2.67-.22-4.03-.34-2.29.42-4.66.38-7.03.2,3.7,1.22,7.4-.16,11.06ZM216.96,276.71c-.91.89.08,3.13-1.43,2.76-1.44-.35.11-1.87.2-2.83.13-1.34-1.31-2.3-.58-3.61.56.18.08,1.06.92,1.18,1.7.25,1.66,1.75.9,2.5ZM218.46,291.2c-1.02-2.05-.31-4.06.16-6.09.34,2.03.73,4.05-.16,6.09ZM235.73,266.75c-.74-1.03-1.7-1.19-2.92-.44-.02-.96.41-1.66.93-1.64.99.05,1.94.26,2.81-.38.62,1.13.43,1.97-.82,2.46ZM219.98,267.08c-.04-.84-.28-1.58-.49-2.36-.53-1.96.8-3.33,2.82-2.89.39.08,1,.39.97-.02-.22-3.17,2.71-2.59,4.22-3.34,1.62-.81,3.29-2.55,5.61-1.08-.22-.96-1.37-.67-1.22-1.68.11-.06.3-.26.48-.25,1.22.05,2.28,0,3.37-.93,1.54-1.3,5.62-.71,6.96.75.85.94,1.61.39,2.01-.28.58-.97,1.09-.81,1.98-.51,1.1.37.8,1.07.71,1.76-.12.92.06,1.75.36,2.63.24.71,1.13,1.56.38,2.23-.68.61-1.7.34-2.57-.01,1-1.11.84-2.12-.69-4.69-1.39,2.1-2.24,4.47-5.39,5.19-6,1.36-11.46,4.29-17.04,6.82-1.78.81-2.4.38-2.48-1.32ZM221.89,276.77c-.53-.32-.25-.93.04-1.29,1.3-1.62,1.06-3.68,1.53-5.53.16-.61-.06-1.07.74-.96.63.08,1.25.48.75,1.12-.56.72-.12,1.42-.27,2.1-.17.76.38,1.02.99,1.11.45.07.82-.19.97-.59.29-.73-.09-.71-.74-.96-1.06-.41-.43-1.43.03-2.03.8-1.05.87-1-.3-1.66,1.38-.72,1.37-.71,2.27.7.31.48,1.03.04,1.46.27-.35-.7-.43-1.44-.08-2.31,2.16,1.37,4.28-.84,6.42.02-.34.61-.92.9-1.56.93-1.21.06-2.06.3-2.42,1.74-.27,1.05-1.2,1.19-2,.26.33,1.85.93,3.42-2.14,3.92-1.18.19-4.12-.03-4.4,2.75-.04.36-.86.65-1.28.39Z"/>
      <path class="cls-1" d="M54.3,336.68c.34-2.16,2.04-4.05,1.52-6.42-1.58,0-.62,1.68-2,2.01.05-1.2-.49-2.43.77-3.19,1.03-.62,1.06-1.47.8-2.31-.33-1.07-.28-2.1-.21-3.16.22-3.42-.11-6.84-.84-10.14-1.59-7.18-1.53-14.28.09-21.41.17-.75.66-1.24,1.06-1.84,1.21-1.84-.2-4.47,1.7-6.18-.34-.2-.74-.34-1.02-.6-.43-.39-.78-1.33-.4-1.42,1.95-.46,1.85-2.53,2.95-3.6,1.68,1.26,2.25,2.83,1.69,4.8-.13.44-.37,1.3.27,1.07,1.53-.54,1.25.59,1.66,1.31,1.29,2.3,1.5,4.96,2.74,7.31,2.23,4.2,3.11,9.13,6.95,12.47.73.63.38,1.51-.08,2.25-.54.88-1.33,1.42-2.25,1.83-1.17.53-1.17,1.79-1.33,2.73-.17,1.04.97,1.12,1.77,1.24,1.12.17,1.28.55,1.06,1.78-.23,1.29-1.38,2.31-1.02,3.71,1.26,4.95.87,9.94.28,14.9-.5,4.17-.58,8.41-2.42,12.37-.98,2.1-2.16,4.31-.11,6.77.31.37.79.85,1.15,1.43,1.24-.2,2.5-.27,3.76-.2-.27-.31-.4-.72-.19-1.23.48-1.16.49-2.56,2.13-3.49-2.22.2-4.12-1.35-3.74-2.9.45-1.84-.57-4.13,1.56-5.51.33-.21-.02-.55-.31-.74-.84-.53-.63-1.66-.35-1.97,1.35-1.47.44-3.11.56-4.64.3-3.81.72-7.65.57-11.46-.09-2.27.1-3.69,2.3-4.91,1.36-.75,1.84-.89,2.21.72,1.22-1.24-.58-2.13.01-3.11,1.37-2.26-.65-2.29-1.85-2.77-.58-.23-1.29-.17-1.94-.23-1.74-.16-2.74-.33-1.08-2.37,1.77-2.19,3.22-4.49.6-7.57-1.85-2.18-2.98-5.18-3.79-8-1.41-4.92-2.69-9.88-4.59-14.64-.24-.61-.84-1.32-.5-1.82,1.38-2-.44-4.19.48-6.19.14-.31.21-.97-.26-1.07-1.47-.31-.88-1.2-.74-2.05.04-.27.47-1.33-.17-.88-.87.62-1.52-1.49-2.11.08-.21.55-.36,1.29-1.06,1.43-1.74-1.68-3.42-3.29-5.49-4.44-3.2-1.79-6.41-3.56-9.57-5.43-4.22-2.5-8.66-4.53-13.15-6.5-1.99-.87-4.08-.84-6.06-1.6-1.96-.75-3.78-1.53-6.35-1.29-3.84.36-7.99-1.08-11.38-3.64-.52-.39-.6-.76-.39-1.23,1.88-4.32,2.48-8.94,3.41-13.51,1.52-7.45,2.24-15.01,3.25-22.53.06-.45-.31-1.12.35-1.24.88-.16.31.98,1.37,1.42-1.58-2.63-.71-4.57.93-6.33-1.17-.02-1.53-.67-1.27-1.76.6-2.43,1.2-4.87,1.82-7.29.39-1.52.19-2.69-1.72-3.19.07,2.34-.48,4.31-1.73,6.12-.45.65-.57,1.53-.87,2.28-1.78,4.4-1.75,9.1-2.25,13.7-.21,1.88-.82,4.26-.26,5.59.99,2.37-.25,4.03-.45,6-.06.64-.31,1.32-.2,1.92.6,3.35-.66,6.44-1.39,9.56-.88,3.78-2.15,7.47-3.23,11.2-.28.98.76,1.61,1.14,1.56,1.36-.17,1.12.63,1.52,1.47,1.23,2.57-.36,4.98-.05,7.47.17,1.42-.06,2.96-1.38,4.01-.38.3-.66,1.17-.21,1.16,1.68-.05,1.34,2.63,3.26,2.2.56-.12.79.72.78,1.33-.06,2.62.14,5.28-.26,7.84-.71,4.57-1.47,9.16-3,13.54-1.47,4.21-2.17,8.64-4.23,12.71-1.4,2.77-2.4,5.84-2.65,9.08-.47,6.06-.07,12.1.15,18.14.23,6.2,1.13,12.33,1.91,18.48.24,1.9,1.5,4.13.79,5.54-1.25,2.49,2.07,4.11.58,6.37-.16.25.9.37,1.46.27-.57-1.44,0-3.13-1.03-4.47-.27-.35-.14-.8.38-.94.52-.14,1.06-.09,1.19.5.2.87.63,1.92.33,2.62-.41.95-.3,1.67.03,2.37.47.03.94.14,1.4.33-.2-.78-.45-1.46-.34-2.19.51-3.44.43-6.82-1.46-9.93-.29-.48-.61-1.11-.54-1.61.6-4.11-.48-8.08-.86-12.1-.05-.5-.33-.76-.73-.85-.65-.13-.56.42-.58.79-.09,1.31-.5,2.98.34,3.8,1.39,1.36-.2,1.36-.41,2.66-.62-1.74-.92-2.79-.89-3.96.1-3.62-.67-7.3.96-10.81.58-1.26-.65-2.2-.91-3.23-.82-3.25-.43-6.67-.4-10.02.03-4.03,2-7.53,3.09-11.28,2.24-7.65,5.48-15,6.76-22.95.43-2.7.99-5.36.74-8.1-.27-3-.22-3.05,2.76-2.14.2.06.44,0,.74,0-.28-2.97-3.15-3.84-4.59-5.83-1.93-2.66-2.61-5.91-.68-8.84l-.04.05c-.11-.46-.42-.91-.09-1.4.87.84,1.86-.73,2.76.15.89.88,1.99,1.42,3.21,1.7.39.09.94.55.95-.41.01-.91.11-1,.89-.82,8.14,1.92,15.98,4.49,22.39,10.2.17.15.57.36.59.34,1.27-1.73,1.41.39,2.08.63.45.16.85.46,1.28.69,4.28,2.23,8.69,4.2,12.71,6.92,1.02.69,1.35,1.28,1.29,2.29-.14,2.38-1.32,3.94-3.5,5.06-1.53.79-2.03-.6-2.99-.92-1.13-.38-2.1-1.19-3.16-1.8-5.63-3.26-11.8-5.04-18.01-6.77-1.34-.37-3.2-.33-3.64-2.32-.07-.33-.52-.66-.68-.34-1.08,2.09-2.57.63-3.43.12-2.6-1.53-5.49-1.36-8.3-1.89,3.29,2.73,7.78,3.08,11.3,5.42.1-2.21,1.26-1.51,2.56-.5.64.49,1.32.96,2.06,1.29,3.18,1.44,6.78,1.27,10,2.66,1.39.6,2.58,2.36,3.45,2.33,3.33-.1,5.05,2.79,7.84,3.56.88.24,2.16.78,2.26,2.13-1.43.79-1.9-1.25-3.23-.86.86,1.01.51,2.47,1.81,3.33.62.4.63,2.02-.14,2.39-1.06.52-1.59-.73-1.73-1.53-.21-1.19-.97-1.78-1.73-2.54-.76-.77-1.6.06-2.19-.37-2.01-1.47-4.04-2.94-5.9-4.6-1.11-.99-1.7-.79-2.33.34,1.54,1.04,3.08,2.07,4.67,3.14-1.57.94-2.69-.68-4.56-.33,3.45,1.26,6.32,2.68,8.89,4.63,1.12.85,2.27,1.73,2.33,3.27.11,2.92,0,5.84.8,8.62-.96.48-.62-.69-1.35-.56,0,1.82.24,3.71-.06,5.52-.41,2.48-.4,4.57.37,7.21,1.5,5.12,3.78,10.22,2.04,16.16-1.2,4.08-.26,8.76-.59,13.14-.1,1.28.42,2.85-.69,3.93-.92.89-1.09,2-1.16,3.13-.33,5.39-1.56,10.62-2.72,15.86-.42,1.92-.09,3.95-.37,5.89.26.08.51.16.75.27,2.14-7.28,3.17-14.82,4.81-22.21.54-2.43,1.35-4.8,1.73-7.25ZM63.31,278.63c2.35,2.6,1.19,6.22,3.3,9.07-2.11-1.22-3.52-5.4-3.3-9.07ZM14.08,202.32c.32,1.98-.2,3.8-1.15,5.54.38-1.85.77-3.69,1.15-5.54ZM5.6,347.25c1.7,1.42.23,2.78-.06,4.15-1.27-1.42-.24-2.74.06-4.15ZM3.35,339.46c2.01,2.11.82,4.17.96,6.05-.64-1.75-1.12-3.57-.96-6.05ZM52.22,293.27c-.99-2.46-.84-4.24-.42-6.49,1.94,2.22.57,4,.42,6.49Z"/>
      <path class="cls-1" d="M132.37,119.06c-.91,1.44-2.23,1.13-3.48.73-3.34-1.06-6.07-3.29-9.08-4.98-2.93-1.64-5.95-3.22-8.56-5.41-.26-.22-.83-.31-1.13-.17-.69.3-.09.83-.06,1.25.23,3.91.66,7.82-.17,11.73-.2.92-.08,1.93.05,2.88.05.37-.29,1.2,1.09.54,1.58-.76,2.72,1.14,2.87,2.99l.05-.04c-.86.6-1.51,1.49-2.32-.31-.87-1.94-2.41-1.72-4.28.51.12-1.23-.81-2.34.39-3.25.42-.32.54-.68.14-.96-.56-.39-.93-.05-1.01.56-.21,1.62-.85,2.58-2.86,1.75,2.07-2.16-.31-3.87-.42-6.19-1.68,3.45-3.4,6.46-5.72,9.04-1.49,1.66-2.24,3.08-.46,4.93.26.27.32.72.49,1.13-1.53.37-1.51-.87-1.9-1.66-.44-.89-1.02-1.4-1.79-.36-4.01,5.42-9.79,8.15-15.85,10.35-5.46,1.99-10.4,5.04-15.67,7.4-2.75,1.23-5.48,2.5-8.23,3.74-.43.2-1.01.6-1.3.04-.41-.8.42-.87.9-1.09,3.95-1.82,7.92-3.58,11.84-5.46,2.24-1.08,4.41-2.3,6.54-3.57.47-.28.81-.3,1.3-.33,1.16-.08,1.79-.53,1.8-1.99.01-2.26.88-2.6,2.92-1.48-.07.14-.1.31-.21.42-.52.55-2.28-.34-1.77,1.24.35,1.08,1.41.22,2.11.03,3.93-1.05,7.07-3.64,10.6-5.48.74-.39,1.49-1.03,1.66-2.17-1.18-.12-1.9,1.27-3.07.92-.27-.87.4-.92.9-1.15,5.45-2.48,9.03-6.87,12.21-11.75,1.22-1.87,1.82-3.79,1.68-5.95-.06-.87.07-1.45.96-1.68,1.24-.33,1.01.72,1.22,1.33.19.53.55.79,1.1.78.03,1.98,2.39,2.1,2.87,3.75.39-1.25.92-2.45-1.07-2.7-.65-.08-1.24-.64-1.85-.99,1.07-1.4,1.27-2.95.76-4.61-.52-1.73.27-3.43.24-5.17-.03-1.38.17-2.87-.55-3.93-1.99-2.9.43-6.15-.95-9.03-.03-.07,0-.16-.02-.24-.62-4.75-.8-4.85-5.6-4.41-1.71.16-3.01-.36-2.81-2.47.02-.24.02-.49.02-.74.1-4.39.1-4.36-4.16-5.38-1.8-.43-2.86-1.35-2.71-3.59.13-1.83,1.63-4.16-1.39-5.62,2.71.42,3.1-.81,2.65-2.74-1.06-.22-.36,2.03-1.49,1.17-.68-.52-.41-1.65.49-2.3.47-.34,1.84-.89-.08-1.13-.07,0-.16-.44-.11-.64.37-1.5.66-3.04,1.2-4.48.72-1.9,2.16-2.48,4.13-1.87.6.19,1.47.16,1.59-.68.11-.75-1.1.04-1.21-.8.82-.48,1.52-.84,2.66-.46,2.12.72,2.69.18,2.2-1.92-1.48-6.27-2.39-12.68-4.91-18.67-.38-.91.17-1.5.53-2.25,1.47-3.05,3.93-5.38,5.75-8.19.94-1.44,1.32-2.72,1.23-4.3-.02-.41-.04-.82-.06-1.23-.2-3.55-.23-6.81,4.4-7.86,1.69-.38,3.08-2.05,4.64-3.1.55-.37,1.09-1.04,1.74.11.71,1.27-.33,1.27-.89,1.4-1.23.29-1.99.99-2.48,2.11-.12.27-.4.71-.57.69-3.08-.38-2.16,1.94-2.48,4.12-.16-1.27-.25-1.96-.34-2.67-1.04-.07-.37.96-.94,1.2-.86-.08-.37-2.19-1.62-1.42-1.04.64-1.18,2.05-.6,3.1,1.08,1.96.81,4.13,1.18,6.19.41,2.28-2.09,3.14-3.06,4.79-.51.87-1.06,1.7-1.51,2.59.99.58,1.21-.92,1.46-.6.31.4.04,1.23.12,1.86.23,2.02-1.62,4.12.37,6.32.2-1.55.49-2.81.4-4.21-.14-2.21.57-4.21,1.91-6.03,1.01-1.37,1.34-3.2,2.1-4.55.72-1.3,1.56-2.94,2.68-3.97,4.13-3.82,7.51-8.49,12.56-11.27.61-.34.83-.88.45-1.42-.42-.6-1.1-.36-1.53.02-.97.85-2.07,1.25-3.59,1.32.41-.61.4-1.05,1.22-1.47,4.1-2.13,8.14-4.39,12.07-6.82,3.81-2.36,7.4-4,11.91-1.39,5.66,3.27,11.84,5.43,18.19,7.02.39.1.85.39,1.17.28,3.34-1.17,5.37,1.31,7.63,2.85,1.99,1.36,2.94,7.56,1.92,10.52-.08.23-.21.44-.32.66-.41.78-.28,1.44.48,1.9.8.49,1.47.07,1.95-.5.79-.96,1.38-2.03,1.31-3.35-.02-.41.07-.89.6-.88.53,0,.54.47.58.9.26,3.4.85,6.74-2.12,9.56-1.36,1.3.16,3.48-.5,5.38-.62,1.79-.84,3.81-1.43,5.68-1.25,3.99-1.21,8.07-.77,12.16.11,1.05.24,2.17,1.81,2.05.56-.04,1.05.34,1.46.8,3.7,4.18,4.41,9.82,1.67,14.48-.83,1.41-1.43,2.6-.67,4.3.76,1.71-.16,3.23-1.41,4.39-3.82,3.54-3.75,7.57-2.03,12.1.54,1.42.51,3.42-.09,4.8-.79,1.83-.49,3.63-.83,5.41-.71,3.69-2.44,6.88-5.17,9.45-1.5,1.42-.69,3.1-.63,4.64-.67.15-.68-.21-.77-.52-.19-.64.32-1.75-.71-1.8-.94-.05-1.21,1.15-1.38,1.8-.2.73.33,1.66,1.36,1.67,1.14,0,2.14.08,2.4,1.47-.14.08-.32.24-.39.2-.9-.49-1.73-2.09-2.83-.61-1.24,1.67.27,2.96,1.25,4.01,2.42,2.59,4.82,5.12,5.07,8.93.14,2.06-.44,4.01-.85,5.99-.08.38-.32.89-.81.73-.58-.18-.61-.75-.39-1.23,2.14-4.74-.78-8.22-2.84-11.96-2.16,1.48,1.78,3.25-.53,4.7-1.1-1.63-1.52-3.51-1.83-5.4-.23-1.38-.24-2.75-2-3.23-.65-.18-.41-.8.19-.98.44-.13,1.08.05.87-.75-.18-.66-.74-.85-1.35-.83-1.01.04-1.93.39-2.72,1-2,1.56-4.43,2.14-6.74,3.02,1.45-1.77,3.53-2.61,5.43-3.67,2.04-1.14,3.59-2.76,5.07-4.59-.68-.49-2.26.48-1.89-.32.45-.99.42-2.84,2.11-2.95,1.25-.09,2.1-1,2.95-1.55.76-.49-.59-1.9-.72-3.02-.1-.82-.98-.99-1.79-.69-1.46.54-2.81,1.26-4.14,2.08-1.4.86-3.09,1.22-4.45-.34-1.04-1.2-.94-2.35.4-3.65.71,2.41,1.96,1.62,3.15.56,1.45-1.28,2.83-2.63,4.38-3.84-1.12,2.49-3.24,4.17-5.42,5.95,2.32.38,5.04-1.26,5.51-3.14.27-1.09,1.34-1.42,2.12-1.78,1.22-.56,1.93-1.45,1.94-2.6.01-1.74,2.26-2.75,1.15-4.68.83-.13,1.26.92,1.97.27.23-.2.17-.4-.09-.53-2.32-1.22-1.54-3.02-.82-4.73.37-.88.13-5.24-.42-6.29-.15-.29,0-.77.08-1.14.54-2.45.98-4.88.32-7.4-.51-1.94.26-3.88.26-5.84.01-2.57-.52-5.05-.77-7.55-.13-1.32-.46-2.66-.36-4.03.53-7.53.45-15.06-.96-22.47-.66-3.49-1.52-7.11-4.88-9.39-.84-.57-1.21-1.84-1.82-2.78-.26-.41-.64-.75-.87-1.17-.81-1.5-2.35-.77-3.48-.98-.8-.14-.02,1.21-.25,1.87-.18.53-.44,1.13-.35,1.65.15.87-1.43,1.42-.56,2.1.9.69.92-.81,1.56-1.1,1.21-.54,1.99.48,3.11,1.13-1.81.42-3.63.85-5.44,1.27-1.02.24-2.13.08-3.02.83-.43.36-.91.44-1.27-.07-.25-.35-.29-.93.12-1.07.47-.16.41-1.3,1.15-.68.34.29.54.56,1,.32,1.56-.84,3.32-4.75,3-6.59-.09-.51-.2-.97-.73-1.18-.72-.29-1.03.24-1.36.72-1.09,1.57-2.17,3.14-3.43,4.6.07-1.56.34-2.98,1.72-3.97.97-.7,1.42-1.74,1.47-2.93,0-.13-.36-.4-.55-.4-1.35.05-1.64,1.25-2.05,2.15-1.18,2.56-2.91,5.07-1.4,8.11.58,1.16-.72,1.68-.96,3-.58-2.19-2.74-2.99-2.91-5.06,0-.06-.15-.17-.17-.15-2.25,1.43-1.9-1.11-2.67-1.83-1.16-1.07-2.32-.03-3.63-.2.61-1.05,1.36-1.94,1.15-3.12-.13-.68.1-1.17.72-1.36.78-.24,1.23.31,1.56.9,1.03,1.83,1.92,3.72,4.42,4,.9.1-.11,1.35.83,1.93.79-2.8,1.52-5.53,3.08-7.95.64-1-.18-2.58-.79-2.71-1.29-.28-3.09-.55-3.35,1.93-.58-1.15,1.05-2.55-.82-2.91-1.35-.26-.92,1.01-1.22,1.68-.97-3.59-4.52-4.75-7.41-2.18-.07-1.31-.81-1.94-2.58-1.99,2.35-1.28,4.23-1.17,6.07-.85.4.07.77.62,1.2.16.18-.19.24-.63.15-.9-.22-.71-.87-.62-1.44-.59-3.6.18-6.82,1.06-8.63,5.12.14-3.58-1.74-2.59-3.17-1.77-.93.52-1.41-.15-2.1-.31.01,2.82-.24,5.59,1.06,8.31-1.65.78-2.48-1.93-4.15-1.05.25-1.78.62-3.18,2.62-1.27,1.13-1.91-2.61-2.81-.64-4.8-2.95.67-4.07,2.97-5.91,5.32,1.94-.27,2.46-1.71,3.77-2.21.24,1.46-.79,2.72-1.55,3.02-3.39,1.34-4.23,4.81-6.45,7.08-2.07,2.12-3.27,4.75-4.32,7.44-.34.88-.79,1.78.51,2.72,2.16,1.58,1.97,3.91.94,6.43-.8,1.94-2.81,3.79-1.41,6.39-.94-.88-.28-2.19-1.11-3.07-1.06,1.14.05,2.47-.61,3.7-.93-1.01-1.63-1.18-1.62.54.01,5.29,0,10.58.23,15.89.55-1.32.1-2.87,1.25-4.34v18.42c-.21.01-.42.02-.64.03-.59-1.89-.1-4-1.23-6.46.32,5.3.58,9.97.9,14.63.15,2.15-.43,4.49,1.49,6.25.32.3.25.69-.04,1.09-1.55,2.19-1.43,4.13.63,6.06.79.74.8,2.27,1.54,3.1,2.06,2.33,3.6,5.42,7.38,5.52,1.24.03.91,1.7,2.11,2.12,2.72.96,5.3,2.33,8,3.36,2,.76,3.36,2.38,5.12,3.44l-.06-.06ZM148.04,11.22c-.11,1.05.54,1.25,1.4,1.47,1.47.36,1.6-.89,2.2-1.8-1.2.77-2.49-.32-3.67.41-.09-.3-.09-.73-.29-.89-.54-.43-1.09-1-1.9-.36-.61.48-1.18,1.08-.86,1.81.54,1.24.96-.85,1.64-.15.71.73.83-.78,1.48-.48ZM103.22,63.68c-.06-.12-.11-.23-.17-.35-.91-2.32-2.6-2.66-4.76-1.93-.61.21-1.25.36-1.89.41-1.87.13-2.33.62-1.01,2.3,1.96,2.51,3.8,5.14,5.48,7.84.84,1.34,1.32,2.07,2.25-.02.39,1.37-.91,3.04,1.22,3.6,0-1.32-1.04-2.68-.39-3.83,1.65-2.92.44-5.44-.73-8.02ZM92.86,79.14c.85.35,1.18,1.89,1.39,1.59,1.51-2.1,1.26.37,1.84.56,3.23,1.05,2.71,3.39,2.06,5.71-.49,1.72.37,2.49,1.75,2.39,1.37-.1,3.73.87,3.68-1.84-.08-3.58-.27-7.19-.84-10.71-.29-1.78-1.66-3.33-3.49-4.06-2.86-1.13-4.18-3.54-5.28-6.14-.22-.52.32-1.57-.63-1.53-.91.03-.82,1.04-.82,1.77-.03,3.03-.29,6.02-.8,9.02-.29,1.7-.41,3.62.48,5.6.58-.87-.1-1.71.66-2.37ZM144.08,6.21c1.25-2.36-.65-2.54-1.6-3.18-.63-.43-1.74-.18-2.1-1.05-1-2.38-3.51-1.04-4.12-.72-1.51.8-2.99,1.73-4.59,2.48-2.21,1.02-4.31,2.31-6.44,3.5-.59.33-1.55.47-1.05,1.52.19.39-.39,1.2.41,1.15,1.02-.07,2.11-.26,2.83-1.15.27-.33.11-1.03.9-.84,1.91.47,2.05.44,3.44-1.08.47-.52.43-.01.56.2.64,1.1,1.04.6,1.82-.01.76-.61,2.04-.73,2.98-.39,3.14,1.16,6.51.32,9.68,1.3,2.54.78,5.51.71,7.65,2.04,1.81,1.13,2.22.65,3.26-.67-2.63-.97-4.99-2.24-7.48-2.62-1.88-.29-3.61-2.29-6.13-.47ZM168.39,69.74c.47.03.97-.02,1.4.12.96.32,1.72,2.76,1.07,3.29-1.08.89-1.59,2.32-.82,2.71,2.24,1.15.75,2.89.97,4.34,2.01-.37,3.24-1.8,2.29-3.2-1.19-1.76-.45-2.73.51-4,.69-.9,1.22-1.93,1.77-2.93,1.34-2.46.92-5.53-.97-7.47-1.46-1.5-2.51-1.28-3.2.67-.42,1.18-.32,2.42-.36,3.64,0,.1-.13.19-.14.21-.51-.33.22-1.1-.61-1.43-.62,1.26-.42,2.96-1.91,4.04ZM170.06,28.07c-.3-2.05-.38-3.7-.58-5.15-.37-2.59-.23-5.84-3.65-6.97-.47-.15-.52-1.29-1.31-.59-.54.49-.11,1.06.01,1.6.56,2.56,2.37,4.62,2.86,7.23.26,1.41,1.01,2.61,2.67,3.87ZM159.1,10.15c.73,1.09,1.79,1.45,2.84,1.82,2.85,1,5.66,2.05,7.47,4.72.14.21.61.42.81.34.58-.23.41-.8.35-1.26-.23-1.79-5.16-6.05-6.95-6.03-.08,0-.18-.01-.24.03-1.36.75-2.79.37-4.28.39ZM99.82,34.81c-1.23,1.75-2.07,3.28-.87,4.99.88,1.26,1.54,2.48,1.05,4.08-.12.38-.06.9.46.97.26.04.61-.18.84-.37.52-.43.79-1.01.79-1.7-.68-.31-.51.76-1.06.63-.81-2.7.76-5.73-1.22-8.6ZM167.75,100.06c-1.41,1.33-2.31,5.59-1.57,6.88.21.36.34.81.86.58.45-.19.5-.56.27-1.01-1.07-2.05.41-2.4,2.43-2.89-2.3-.53-1.55-2.28-1.99-3.57ZM104.53,88.06c.18-3.62.52-7.28-.59-11.37-.57,4.17.57,7.73.59,11.37ZM173.55,28.75c1.93-.83,1.8-2.42,1.95-3.77.08-.74-.39-.93-1.07-.41-1.51,1.14-.45,2.66-.88,4.18ZM175.97,62.55c-.18-2.12-1.23-3.37-2.15-4.67-.27-.38-.65-.86-1.18-.54-.62.37-.17.93.08,1.24.98,1.24,1.63,2.75,3.26,3.98ZM163.02,19.57c-1.36-1.57-2.06-3.88-4.92-4.67,1.32,2.47,3.52,3.16,4.92,4.67ZM102.67,50.33c.12-1.09.25-1.79.26-2.49,0-.56,1.63.11.7-.92-.38-.42-1.18-.75-1.7-.65-.67.13-.41.97-.34,1.47.11.76.12,1.59,1.09,2.59ZM165.61,101.47c-1.08.7-1.74,1.6-1.91,2.73-.09.59.09,1.47.87,1.54.84.07.61-.75.68-1.28.11-.95.23-1.91.37-2.99ZM154.13,12.35c-1.13.31-2.15.76-2.4,1.94-.09.44.45.98.97.88,1.63-.32.72-1.97,1.43-2.83Z"/>
      <path class="cls-1" d="M207.52,219.03c-1.19,2.76-3.36,4.79-5.55,6.65-1.21,1.03-2.76-.26-3.83-1.28-.39-.37-.53-1.21-1.23-.93-1.42.56.14.79.16,1.18,0,.19-.39.47-.66.57-.63.24-1.25.36-1.75-.34-1.39-1.94-3.01-3.75-4.18-5.82-2.11-3.71-4.78-7.13-6.03-11.28-.21-.7-.8-.74-1.16-1.15-1.69-1.92-1.69-3.54.12-5.32,1.75-1.71,3.34-3.6,4.52-5.7,1.61-2.87,4.22-4.64,6.56-6.7,2.85-2.51,5.71-.82,8.12.6,2.49,1.46,4.61,3.64,6.38,6.02.84,1.14,1.73,2.23,2.92,2.93.9.53,1.27,1.29,1.44,2.15.25,1.27.36,2.52,2.4,1.1-1.03,3.42-4.38,5.08-3.55,8.56-1.03-.09-.92-.53-.88-.94.02-.29.21-.65-.64-.93,1.01,4.29-.94,7.55-3.23,10.69-.26-1.07.96-2.05.29-3.31-1.91,1.35-2.11,3.46-3.24,5.18,1.91.4,1.34-2.36,3.01-1.94ZM197.88,189.67c-.3,1.6-1.87,2.06-2.98,3.01-2.81,2.39-4.88,5.48-7.6,7.94-1.84,1.67-2.97,2.66-1.21,5.73,3.05,5.34,4.96,11.25,10.12,15.26,2.12,1.65,3.15,2.04,4.99.12,1.93-2.02,3.65-4.12,4.64-6.82,1.35-3.67,2.86-7.29,4.47-10.86.53-1.17.45-1.99-.32-2.88-3.26-3.76-6.48-7.56-10.33-10.76-.46-.38-.94-.64-1.78-.74Z"/>
      <path class="cls-1" d="M130.97,86.14c-.58-.77-.47-1.53.46-1.71,2.76-.56,2.96-2.49,2.97-4.78.01-1.91-.56-3.89.49-6.14.54,2.23.97,4.07.65,6-.24,1.46.1,2.03,1.7,1.34,2.05-.89,3.62.2,4.98,1.59,1.2,1.22,2.1.49,2.87-.43.61-.73,1.27-1.68-.5-2.13,1.08-.72,2.15-.28,3.57-.1-1.93-2.92-1.92-5.99-2.28-9.01-.12-.99-1.23-1.84-1.53-3-.8-3.13-1.61-6.23-.66-9.5.17-.57-.19-1.16-.73-1.68-1.47-1.4-1.13-2.33.47-3.32,1.44-.9,1.57.29,1.53.87-.1,1.91.44,3.76.82,5.51,1.44,6.7,1.36,13.68,3.62,20.19.5,1.43,2.43,2.67,3.71,3.19,1.96.79,2.77,2.32,3.69,3.69.82,1.21.87,2.95,1.19,4.46.14.68-.02,1.39-.82,1.54-.9.17-.72-.64-.87-1.15-.47-1.56-1.1-3.06-1.74-4.57-1.27-3.01-4.38-3.19-6.69-4.53-1.19-.69-3.46,1.86-3.35,3.57.13,1.97.27,3.92-.53,5.8-.13.31-.2.69-.59.6-.5-.11-.64-.58-.36-.95,1.18-1.54.06-3.36.71-5.1.56-1.52-4.96-4.53-6.62-3.69-2.11,1.06-4.15,2.26-6.22,3.4l.05.06Z"/>
      <path class="cls-1" d="M154.47,159.9c-.05.16-.06.34-.15.47-2.11,2.94-2.42,3.37.47,5.43,2.99,2.13,2.97,5,3.67,7.92.81,3.39.75,6.92,1.85,10.26.31.95-.57,1.93-.46,3.03-.46-3.95-1.65-7.7-2.47-11.53-.76-3.54-1.98-7.09-5.76-8.45-5.67-2.04-8.01-7.31-11.59-11.37-1.12-1.27-1.93-2.82-2.87-4.24,3.51-2.29,4.72.99,5.95,2.77,2.04,2.96,4.88,4.93,7.43,7.27.65.6,1.14.1,1.7-.29.71-.49,1.22-1.41,2.29-1.21l-.06-.06Z"/>
      <path class="cls-1" d="M76.95,248.12c-.89-.35-1.64-.15-2.32,1.34-2.44,5.34-5.44,10.42-7.3,16.03-.06.17-.33.28-.73.59-.11-2.81.8-5.17,2.11-7.19,1.95-3.02,2.54-6.64,4.48-9.58,2.47-3.73,1.43-6.99-.13-10.72-1.44-3.45-3.12-6.83-4.36-10.4-.71-2.03-2.06-4.03-3.25-5.97-1.54-2.52-3.22-4.98-4.57-7.6-2.63-5.08-5.92-9.8-8.14-15.1-.31-.74-1.55-1.45-.49-2.33,1-.83,1.35.96,2.3.79.4-.69-.79-1.01-.35-1.88,1.09.56,2.05,1.1,1.83,2.61-.32,2.29,2.5,2.36,2.94,4.14.24.98,2.44,1.6,1.02,2.69-.87.67-1.42-1.16-2.02-1.9-1.02-1.27-1.97-2.58-3.6-3.32,8.45,15.55,19.03,30.06,22.57,47.79Z"/>
      <path class="cls-1" d="M115.24,57.59c.39-.65.92-.58,1.39-.65.97-.14,2.04-.07,1.74-1.65-.27-1.43-1.12-2-2.39-1.73-.8.17-1.67.76-1.98-.36-.31-1.14,1.11-.93,1.6-1.5.1-.11.29-.22.43-.21,3.72.39,7.25-1.2,10.9-1.13,2.18.04,4.16-.58,6.23-.87.65-.09,1.54-.66,1.96.26.25.54.29,1.34.08,1.89-.27.7-1.07.58-1.73.47-.93-.15-1.8-.52-1.58,1.23.07.59-1.5.46-2.37.09-.38-.17.42-1.09-.55-.81.33.97-1.81.67-.98,2.14.42.73.52.58,1.12.51.64-.07,1.74-.5,1.89.47.16,1.02-1.06.9-1.65,1-2.24.4-3.71,2.99-6.36,2.19-.35-.1-1.06.23-1.08-.17-.17-3.09-2.61-.92-2.8-.76-1.58,1.27-2.62.27-3.86-.42ZM118.98,53.04c1.39,2.57,4.94,3.59,7.26,2.22.58-.34.73-.92.54-1.48-.3-.86-.89-.55-1.3-.1-1.38,1.51-3.26-1.56-4.54.53-.09-.12-.25-.25-.24-.37.17-2.24-1.31-.11-1.72-.8Z"/>
      <path class="cls-1" d="M147.75,54.35c.66-1.1,1.49-1.04,2.25-1.2.75-.15,1.09-.72,1.04-1.44-.08-1.12-.96-.51-1.51-.65-.92-.22-2.57,1.93-2.68-.61-.08-1.74,1.38-1.29,2.7-1.54,3.73-.7,7.45-1.16,11.22-1.24,2.7-.05,3.31.74,3.19,3.79-1.19-1.67-2.36-1.99-3.82-.52-.4.4-1.42.39-2.1.28-2.26-.36-2.25-.41-4.33.53-.72.33-.81.12-.63-1.89-.88.71-1.44,1.5-1.09,2.31.26.61,1.24.59,1.99.6,2.03.05,4.05-.25,6.1.03,1,.13,1.61.54,2.26,1.17.41.4.68.85.36,1.26-.41.52-.84.02-1.23-.25-2.16-1.49-3.1-1.28-4.56,1.02-.7,1.11-1.62.95-2.51-.26-.6-.81-1.57-1.1-2.6-1.13-1.27-.04-2.53-.16-4.03-.26Z"/>
      <path class="cls-1" d="M41.81,158.29c-2.55,2.32-5,4.68-6.36,8.34,5.56-4.05,10.72-8.06,16.57-11.03-1.48,2.17-3.8,3.33-5.91,4.64-9.66,5.98-17.55,13.49-21.79,24.32-.15.38-.28.78-.48,1.13-.23.39-.34,1.04-1.01.8-.54-.2-.78-.81-.47-1.2.86-1.09.18-2.2.27-3.29.06-.74-1.31-2.64,1.28-1.86.57.17,1.23-.79,1.46-1.49.62-1.86,1.96-3.18,3.17-4.61,2.93-3.46,5.38-7.26,7.89-11.02,1.37-2.05,3.09-3.66,5.38-4.72Z"/>
      <path class="cls-1" d="M132.44,119.13c-.44-1.2-.02-1.87,1.15-1.21,2.42,1.36,5.19,1.32,7.73,2.14,1.63.53,3.31.5,4.99-.2,3.23-1.36,6.66-2.26,9.41-4.63.38-.32.97-.6,1.93-.25-2.23.92-3.14,3.3-5.57,3.59-.43.05-1.07.42-1.19.78-.88,2.59-3.32,2.83-5.21,2.69-1.63-.12-3.33-.38-4.87-.1-2.53.46-4.1-1.03-5.85-2.57-.45,1.16.92,1.44.43,2.24-.11.05-.34.21-.37.18-.61-.62-2.12-.38-1.85-1.85.13-.7.13-1.19-.8-.87,0,0,.07.07.07.07Z"/>
      <path class="cls-1" d="M134.54,108.92c-.92-1.54-2.3-1.7-3.3-2.52-.93.76-.13,1.75-.58,2.79-.73-1.4.26-3.51-1.82-4.04-.3-.08-.71-.52-.83-.44-1.76,1.2-2.54-.6-3.13-1.37-1.71-2.23-4.56-3.31-5.71-6.11,1.82,1.25,3.8,2.31,5.42,3.78,2.29,2.08,5.23,2.75,7.86,4.04,2.37,1.17,5.04-.13,6-2.39.13-.32.28-.64.66-.61.55.05.5.51.54.92.16,1.89-1.38,3.44-3.86,3.86q-1.15.19-1.24,2.08Z"/>
      <path class="cls-1" d="M154.53,159.96c-.21-1.18.71-1.77,1.33-2.48,3.73-4.28,6.63-9.04,8.56-14.39.19-.54.47-1.04.7-1.56.21-.46.46-.99,1.05-.63.51.31.3.81.07,1.29-1.72,3.62-3.44,7.25-5.24,10.92.68-.61,1.37-1.22,2.05-1.84.1.08.21.17.31.25-1.05,1.49-2.1,2.97-3.21,4.54-.95-.82.58-1.36-.29-2.15-1.7,2.08-3.19,4.37-5.41,5.96,0,0,.06.06.06.06Z"/>
      <path class="cls-1" d="M187.3,250.33c1.94-4.11,5.03-7.42,7.64-11.05,2.38-3.31,5.04-6.41,7.56-9.62.75-.96,1.56-1.81,3.23-2.56-5.48,6.44-10.01,12.91-14.92,19.09-1.12,1.41-1.43,3.55-3.56,4.09l.05.06Z"/>
      <path class="cls-1" d="M17.56,202.57c-.19-2.83.84-5.45,1.68-8.04.5-1.53,1.02-3.08,1.48-4.63.15-.5.69-1.04.17-1.56-.16-.16-.62-.05-.94-.01-1.2.12-.35,1.02-.56,1.52-.09.22-.18.45-.28.71-.96-2.69-.77-3.33,2.63-8.4.98,1.33-.08,2.34-.39,3.37-.22.72-1.09,1.43.43,1.8,1.15.28.58,1.12.35,1.78-1.54,4.47-3.07,8.94-4.6,13.43,0,.01.04.05.04.05Z"/>
      <path class="cls-1" d="M97.58,137c.46-.01.55.28.7.59,1.71,3.54,3.82,6.84,6.03,10.08.55.81,1.08,1.67-.05,2.24-1.01.52-1.96-.49-2.03-1.14-.31-2.68-2.67-4.48-2.91-7.12-.11-1.22-1.15-1.62-1.76-2.39-.63-.8-.88-1.54.02-2.26Z"/>
      <path class="cls-1" d="M218.15,225.51c.81-.66,2.36-.58,2.21-2.21-.09-.97-1.91-1.11-2.46-.12-.26.48-.31,1.07-.78,1.41l-.71-.39c1.99-3.45,3.98-6.89,5.96-10.34.19.08.39.17.58.25-1.35,1.74-1.31,3.89-1.79,5.86-.35,1.46.04,3.17-.4,4.75-.45,1.61-1.08,2.5-2.62.79Z"/>
      <path class="cls-1" d="M215.36,224.19c.52.79,1.2,1.5.37,2.38-3.21,3.4-6.11,7.05-8.82,10.86-.29.41-.71,1.49-1.44.81-.73-.69.42-1.03.71-1.53,2.1-3.61,5.05-6.54,7.74-9.68.7-.82,1.09-1.76,1.44-2.85Z"/>
      <path class="cls-1" d="M146.64,197.11c-2.14-2.55-1.91-5.8-2.93-8.65-.12-.34-.11-.87.43-1,.45-.11.85.13.97.54.9,2.97,1.52,5.99,1.54,9.12Z"/>
      <path class="cls-1" d="M131.06,148.66c-4.9,1.64-5.95,7.13-10.27,9.17.71-.83,1.52-1.59,2.12-2.49.53-.79,1.51-1.34.96-2.73-.47-1.17,1.13-1.08,1.73-1.63,1.46-1.33,3.08-2.38,5.46-2.31Z"/>
      <path class="cls-1" d="M111.15,160.63c-.47.14-1.04.37-1.36-.09-1.9-2.75-3.77-5.52-5.57-8.33-.4-.62.22-1.06.75-1.29.56-.24,1.19.19,1.05.61-.85,2.57,1.95,3.16,2.56,4.92.54,1.57,2.58,2.3,2.49,4.27,0,0,.08-.09.08-.09Z"/>
      <path class="cls-1" d="M134.31,95.01c1.37-2.18,2.64-4.2,3.92-6.22.51-.8,1.24-1.62,2.16-1.08.87.51.62,1.61.27,2.45-.34.81-.44,1.76-1.27,2.35-1.03-.18.1-1.54-.83-1.66-.97-.12-.91,1-1.47,1.44-.96.76-1.03,2.41-2.78,2.71Z"/>
      <path class="cls-1" d="M116.67,97.88c2.88,1.51,4.2,4.64,6.93,6.3.54.33.69.98.21,1.48-.46.48-.84-.04-1.24-.28-2.88-1.77-4.02-4.91-5.9-7.5Z"/>
      <path class="cls-1" d="M209.52,297.21c.13-.2.4-.46.35-.59-1.37-3.75.42-7.62-.46-11.35-.23-.98.21-1.31,1.16-2.09,0,3.51.33,6.74-.17,9.85-.19,1.16-.24,1.6.41,2.55.88,1.3-.23,1.6-1.35,1.58l.06.05Z"/>
      <path class="cls-1" d="M110.39,90.19c-1.67-5.52-2.28-11.21-2-17,.03,5.74,1.67,11.27,2,17Z"/>
      <path class="cls-1" d="M130.92,86.08c-3.85,1.68-2.06,5.71-3.5,8.44-.29-2.09-1.21-4.11-.41-6.2.69-1.79,1.75-3.06,3.95-2.19,0,0-.05-.06-.05-.06Z"/>
      <path class="cls-1" d="M75.33,223.48c.68,3.88.31,7.85,2.72,11.66-2.74-1.14-4.2-8.77-2.72-11.66Z"/>
      <path class="cls-1" d="M183.98,255.93c-2.28,4-4.93,7.74-7.85,11.3l.06.06c-.47-2.08,1.47-2.95,2.28-4.35,1.5-2.56,2.71-5.44,5.57-6.95,0,0-.07-.06-.07-.06Z"/>
      <path class="cls-1" d="M152.39,178.83c.2-4.41-1.99-7.56-5.76-10.14,4.87.88,7.89,6.59,5.73,10.13h.03Z"/>
      <path class="cls-1" d="M127.97,140.83q-1.18.85.1,2.81c-2.25-1.15-3.26-2.63-4.3-4.06-.28-.39-.48-.84-.67-1.29-.26-.58-1.92-.52-1.03-1.4.67-.66,2.19.4,2.35.89.6,1.78,2.11,2.3,3.55,3.04Z"/>
      <path class="cls-1" d="M150.83,194.55c-1.78-2.25-2.07-5.17-.89-6.58,1.07-1.27,3.47-1.4,5.61-.03-1.77-.12-3.24-1.27-4.55-.03-1.22,1.16-.95,2.61-.85,4.06,1.03.04.79-1.1,1.9-1.26-.4,1.25-.76,2.37-1.23,3.83Z"/>
      <path class="cls-1" d="M136.51,149.82c-.48-1.18-.51-2.2-1.17-2.95-1.25.12.33,2.3-1.07,1.7-1.24-.53-2.23-1.88-2.22-3.73,1.26.28,1.47,2.12,3.41,1.18,1.07-.51,2.16,1.73,1.06,3.8Z"/>
      <path class="cls-1" d="M145.93,103.58c-2.38-1.68-1.06-3.85-1.54-5.57-.1-.36.06-.8.14-1.2.13-.67-.94-1.86.46-1.93.92-.04.53,1.2.59,1.85.18,2.15.24,4.32.36,6.85Z"/>
      <path class="cls-1" d="M134.85,38.33c-3.23,0-6.46,0-9.69,0-.52,0-1.34.24-1.34-.59,0-.69.77-.86,1.32-.76,3.2.56,6.45.42,9.68.57.01.26.02.52.03.79Z"/>
      <path class="cls-1" d="M182.43,149.39c-.05.11-.09.39-.25.53-.31.27-.51.03-.77-.21-1.25-1.15-2.33-2.66-4.47-1.85-.43.16-1.19-.4-1.74-.73-.44-.26-.69-.78-.46-1.27.27-.58,1.11-.41,1.25-.22,1.38,1.82,3.94.88,5.46,2.38.39.39.97.56.98,1.37Z"/>
      <path class="cls-1" d="M140.69,170.07c-1.76-2.42-3.52-4.85-5.28-7.27,3.19,1.37,4.82,3.91,5.28,7.27Z"/>
      <path class="cls-1" d="M152.36,178.82c-3.16.38-4.89-.64-6.34-4.02-.47-1.09-2.19-2.71-.94-3.28,1.3-.6,1.23,1.77,1.74,2.79,1.21,2.4,2.64,4.31,5.56,4.52.01,0-.02,0-.02,0Z"/>
      <path class="cls-1" d="M141.63,96.47c.74,3.29.63,6.56.26,9.82-.61-3.28-1.29-6.55-.26-9.82Z"/>
      <path class="cls-1" d="M144.84,185.93c-2.73-2.58-2.74-5.84-2.57-9.14.55,3.14,1.76,6.09,2.57,9.14Z"/>
      <path class="cls-1" d="M126.84,97.1c2.3-1.79,4.6-3.59,6.93-5.35.16-.12.68.01.85.2.44.46-.03.68-.37.86-2.51,1.32-4.39,3.59-7.41,4.3Z"/>
      <path class="cls-1" d="M77.94,243.26c-.73-2.42-.8-4.99-1.83-7.54,2.37,1.08,2.78,2.75,1.83,7.54Z"/>
      <path class="cls-1" d="M116.23,159.47c-.01-.4-.14-1.11-.02-1.16,2.51-.97,3.79-3.45,5.97-4.97-.18,1.73-4.2,5.7-6.02,6.06,0,0,.07.06.07.06Z"/>
      <path class="cls-1" d="M150.96,102.35c-2.41-1.12-2.95-3.08-3.12-5.23-.04-.5-.01-1.04.66-1.08.51-.03.83.49.73.8-.7,2.08,1.11,3.24,1.68,4.84.05.14.03.31.06.67Z"/>
      <path class="cls-1" d="M78.06,349.48c3.04,1.02,6.07,2.05,9.11,3.07-.1.27-.19.54-.29.81-2.89-1.43-6.41-1.12-8.81-3.88Z"/>
      <path class="cls-1" d="M111.15,160.63s-.08.09-.08.09c2.06,1.01,3.47-.7,5.16-1.25,0,0-.07-.06-.07-.06-.22,1.68-2.01,2.15-2.74,3.46-.17.31-1.05.42-1.54-.03-.63-.59-1.45-1.15-.74-2.21Z"/>
      <path class="cls-1" d="M132.78,20c-.98.49-.51-2.67-1.82-.28-.04.08-.56-.11-.85-.17.81-1.32-.27-2.48-.25-3.71,0-.27.86,0,1.27.25,1.53.94,1.25,2.56,1.65,3.91Z"/>
      <path class="cls-1" d="M150.73,92.72c-.5-2.18-1.87-4.03-2.31-6.3,1.08,1.67,2.53,2.99,3.56,4.61.94,1.48-.36,1.47-1.28,1.62l.04.06Z"/>
      <path class="cls-1" d="M109.86,60.66c-.08-.63-.16-1.26-.25-2-.72.68-.18,1.52-.7,2.29v-7.93c.13,0,.26-.02.4-.03.29,2.56.58,5.13.87,7.69-.11,0-.21-.02-.32-.03Z"/>
      <path class="cls-1" d="M11.01,251.77c2.22,2.34,2.24,2.87,0,6.11-.17-2.28-.33-4.21.04-6.16,0,0-.04.05-.04.05Z"/>
      <path class="cls-1" d="M148.21,203.52c-2.4-.85-1.87-2.92-2.21-4.96,2.34,1.14,1.4,3.43,2.21,4.96Z"/>
      <path class="cls-1" d="M132.23,143.37c-.64.68-.8,1.56-1.59,1.95-.31-.98-1.69-.84-1.91-1.72-.07-.29-.11-1.57,1.21-1.23.83.22,1.74.1,2.29,1Z"/>
      <path class="cls-1" d="M113.91,99.67c-2.76-.13-3.58-1.92-4.2-4.63,1.66,1.82,2.93,3.23,4.2,4.63Z"/>
      <path class="cls-1" d="M134.06,15.28c1.1,1.64,2.07,3.1,3.11,4.66-2.66-.5-3.57-1.86-3.11-4.66Z"/>
      <path class="cls-1" d="M167.39,147.15c2.46-2.93,5.54-3.28,6.66-.91-2.28-1.11-4.25-.5-6.66.91Z"/>
      <path class="cls-1" d="M138.31,351.39c-2.39.96-4.8,1.84-7.47,1.81,2.44-.82,4.88-1.63,7.32-2.45.05.21.1.42.15.63Z"/>
      <path class="cls-1" d="M110.9,357.18c-2.71.37-5.42.3-8.12-.31,2.7.29,5.41-.91,8.12.31Z"/>
      <path class="cls-1" d="M180.69,334.93c1.58-1.85,3.95-2.17,6.08-3.01-1.71,1.59-3.91,2.22-6.08,3.01Z"/>
      <path class="cls-1" d="M117.45,132.26c1.34.99,3.33,1.64,2.18,4.3-.8-1.61-2.17-2.59-2.18-4.3Z"/>
      <path class="cls-1" d="M95.26,355.12c-2.5.28-4.84-.07-6.87-1.69,2.29.56,4.58,1.13,6.87,1.69Z"/>
      <path class="cls-1" d="M113.89,128.62c.1,1.75,2.9,2.03,2.32,4.19q-3.11-1.63-2.27-4.22s-.04.03-.04.03Z"/>
      <path class="cls-1" d="M187.24,250.27c-.22,2.39-1.83,3.97-3.27,5.65,0,0,.07.06.07.07-.19-2.62,1.79-3.99,3.26-5.65,0,0-.06-.07-.06-.07Z"/>
      <path class="cls-1" d="M99.72,218.55c-.54,2.06-1.07,4.13-1.61,6.19-.19-.05-.38-.1-.56-.15.56-2.06,1.12-4.11,1.68-6.17.16.04.32.09.49.13Z"/>
      <path class="cls-1" d="M119.29,356.34c-1.89.73-3.84,1.08-6.54.8,2.57-.83,4.52-1.08,6.54-.8Z"/>
      <path class="cls-1" d="M151.84,195.38c1.77.25,3.5.91,5.66-.44-1.96,2.22-3.17,2.26-5.66.44Z"/>
      <path class="cls-1" d="M138.6,156.14c.79.83,1.56,1.62,2.29,2.45.06.07-.12.49-.28.59-.52.31-1.13.05-1.2-.39-.15-1.02-1.85-1-1.41-2.27.06-.16.37-.24.59-.37Z"/>
      <path class="cls-1" d="M157.5,83.98c2.18,1.16,3.29,2.42,1.57,4.61-.02-1.61-.68-3.02-1.57-4.61Z"/>
      <path class="cls-1" d="M246.28,276.02c1.08,2.07,1.21,3,.68,6.46,0-1.1-.04-2.21.01-3.31.05-1.11-1.4-1.87-.69-3.15Z"/>
      <path class="cls-1" d="M137.12,17.94c-1.1-1.77-.52-3.96,1.51-5.4-.98,1.9-1.76,3.51-1.51,5.4Z"/>
      <path class="cls-1" d="M176.13,267.22c-.86,1.82-1.78,3.6-3.42,4.91,1.42-1.44.86-4.22,3.48-4.85,0,0-.06-.06-.06-.06Z"/>
      <path class="cls-1" d="M209.46,297.16c1.17,1.86-1.21,3.29-.77,4.24.36-.84-.94-2.72.84-4.19,0,0-.06-.05-.06-.05Z"/>
      <path class="cls-1" d="M107.18,57.02c-.09-1.92-.17-3.8-.28-6.3,1.13,2.39.72,4.3.65,6.18,0,.04-.21.06-.37.11Z"/>
      <path class="cls-1" d="M150.69,92.65c-1.04,1.57-1.36-.46-2.17-.49-1.18-.04-2.15-.87-2.49-2.2,1.35,1.32,3.29,1.54,4.7,2.74,0,0-.03-.05-.03-.05Z"/>
      <path class="cls-1" d="M63.36,210.59c-.45-1.45-2.37-2.09-2.06-3.95.45,1.47,2.36,2.05,2.06,3.95Z"/>
      <path class="cls-1" d="M103.22,63.68c.91,1.81,0,3.2-1.07,4.68-.48-1.48-.19-2.98-.85-4.31-.24-.47-.64-1.12.06-1.49.77-.41,1.39-.08,1.7.77.06.12.11.23.17.35Z"/>
    </g>
  </g>
</svg>