<?xml version="1.0" encoding="UTF-8"?>
<svg id="Layer_2" data-name="Layer 2" xmlns="http://www.w3.org/2000/svg" viewBox="0 0 254.28 774.72">
  <defs>
    <style>
      .cls-1, .cls-2 {
        stroke-width: 0px;
      }

      .cls-2 {
        fill: #fff;
      }
    </style>
  </defs>
  <g id="Layer_2-2" data-name="Layer 2">
    <path class="cls-2" d="M173.95,727.77c1.43,9.36,2.03,19.8,8.48,27.2-.24,3.39.1,6.93,1.42,9.97,1.44-.34,2.91-.56,4.39-.66,4.15-.26,8.31-1.02,12.47-.98,6.34.05,12.14,1.44,17.9,3.87.46.19.85.36,1.2.51.22.07.48.16.81.27,1.05.36,2.09.74,3.16,1.08,1.38.43,2.77.78,4.16,1.11-.57-2.46-1.21-4.89-2.05-7.29-1.83-5.24-1.2-10.55,1.01-15.19-.18-.12-.36-.25-.55-.36-.71-.81-1.39-1.63-2.08-2.46.59-3.16.61-6.45.74-9.74.8-20.91-.34-41.84-1.98-62.69-3.31-42.02-6.68-83.73-6.84-125.92-.18-48.8,1.14-97.64,3.78-146.4.61-2.43,1.13-4.86,1.54-7.31.25,15.81.09,31.63-.19,47.41-.63,5.17-.76,10.39-.3,15.58.65,7.26,5.74,13.5,13.5,13.5s13.35-6.18,13.5-13.5c.09-4.44.17-8.89.25-13.34.34-2.42.84-4.84,1.53-7.29.98-3.46.39-7.08-1.29-10.1.3-29.38-.12-58.89-2.98-88.08,5.07-7.22,7.42-15.87,6.98-24.86-.51-10.4-4.38-19.81-7.11-29.71-5.47-19.81-.62-40.84,1.4-60.82,1.08-10.63,1.1-21.39-3.15-31.39-3.87-9.11-10.81-16.1-17.89-22.81-7.25-6.87-14.87-13.82-23.71-18.58-5.12-2.76-10.86-4.68-16.3-6.73-.25-.83-.57-1.65-.95-2.45-2.26-4.7-5.78-8.78-9.49-12.4-1.65-1.61-3.37-3.15-5.01-4.78-.82-.82-1.63-1.66-2.4-2.54.03,0-.41-.61-.7-.95-.39-.47-.59-.64-.69-.69,0-.14-.05-.48-.25-1.22-.08-.29-.28-2.05-.24-1.26-.17-2.68.11-2.83.87-5.55,1.59-5.67,4.14-11,5.96-16.59,4.24-13.03,2.94-26.52.82-39.81-1.96-12.27-5.25-24.26-9.65-35.87-1.77-4.66-5.38-8.32-9.89-9.51-1.61-1.58-3.62-2.85-5.87-3.69-16.12-5.97-34.05,2.82-42.91,16.62-4.68,7.3-6.7,16.1-7.17,24.67-.22,4.13.17,8.21.73,12.29-1.75.67-3.32,1.67-4.47,3-7.47,8.58-5.68,20.62,3.92,26.86,1.8,1.17,3.94,2.01,6.03,2.52.62.15,1.29.23,1.95.31.31,1.09.66,2.19.89,3.24,1.53,7.06,2.86,14.96,2.05,22.21-.01-.25-.52,2.29-.68,2.72.28-.75-.8.92-.88,1-1.11,1.16-1.32,1.29-1.84,1.71-2.07,1.66-4.26,3.17-6.32,4.85-3.03,2.49-5.43,5.52-7.62,8.76-.71,1.05-1.31,2.27-2.1,3.29.23-.46-1.78,1.06-2.36,1.36-7.16,3.74-14.98,6.5-22.42,9.66-15.41,6.56-30.85,12.71-40.65,27.12-8.6,12.64-10.62,28.48-12.87,43.22-1.38,9.04-2.67,18.16-2.93,27.32-.25,8.8.7,17.56.94,26.34.45,16.56-5.49,31.39-8.18,47.58-2.82,16.99-1.22,33.72,2.99,50.36,3.94,15.59,9.75,30.64,14.05,46.13.1.75.21,1.5.33,2.25.5,2.95,1.28,5.78,2.3,8.51,1.24,6.13,2.18,12.35,4.06,18.3,2.89,9.18,7.69,16.32,15.45,22.02,6,4.41,14.93.83,18.47-4.84,3.84-6.15,4.45-13.53,2.54-20.45-2-7.28-7.09-12.39-11.65-18.1-1.33-1.66-2.25-3.12-2.97-4.68-.43-2.04-.88-4.08-1.4-6.1-.27-1.03-.56-2.05-.84-3.08-.26-3.59-.07-8.31.21-12.11,2-26.75,6.04-53.47,9.12-80.11,1.47-12.71,2.91-27.61,4.49-38.96-.1.78.12-.52.29-1.54,1.17-.02,2.34-.05,3.51-.08,1.43,3.19,2.18,7.06,3.13,10.73,1.73,6.71,3.63,13.55,4.46,20.45,1.45,12.18.51,24.61,0,36.82-1.29,31.18-2.57,62.36-3.86,93.54-.02.42,0,.83.02,1.23-.25.65-.46,1.33-.56,2.06-6.17,44.03-12.28,88.06-18.5,132.09-3.04,21.56-6.55,42.97-11.13,64.26-4.61,21.38-8.66,42.83-9.07,64.76-.4,21.63,2.16,43.4,7.4,64.41,2.19-.34,4.41-.21,6.49.54.18.06.35.13.53.2,2.14-.67,4.36-1.04,6.61-1.03,4.23.01,8.46.14,12.69-.04.6-.02,1.2-.07,1.8-.11.8-.22,2.6-.47,3.91-.74.07-.03.13-.06.21-.1.95-.51,1.88-1.06,2.77-1.66.92-.61,1.76-1.25,2.69-1.83.12-.07.24-.14.35-.21-.76-9.02,3.43-16.5,5.93-25.26.63-2.21,1.55-4.22,2.7-6.04-.08-.09-.16-.18-.23-.27-1.29-4.24-2.61-8.47-3.24-12.9-1.34-9.34,1.14-19.04,2.92-28.14,8.08-41.39,16.49-82.72,24.92-124.05,3.19-15.63,6.18-31.56,9.79-47.32,5.74-19.5,11.89-38.88,18.42-58.13.33-.75.65-1.5.99-2.25,1.94-4.21,4-8.35,6.22-12.42.09-.17.19-.33.28-.49.04.28.08.56.12.84,3.03,20.1,5.58,40.26,7.9,60.44,4.76,41.5,8.51,83.1,12.95,124.63,2.22,20.76,4.6,41.5,7.36,62.19,1.45,10.89,2.97,21.78,4.63,32.64ZM105.89,88.86c.03.22.08.44.12.66-1.08-.72-1.72-1.25-.12-.66Z"/>
    <g>
      <path class="cls-1" d="M221.03,444.04c1.64,2.28.9,4.87.8,7.32-.05,1.12.07,2.22.04,3.31-.12,4.08,2.71,6.02,5.53,8,1.2.84,2.54,1.52,3.64,2.47,1.6,1.38,2.19.67,2.63-1.23-2.27.82-3.29.06-2.97-3.13.45,2.93,1.44,2.29,2.93,1.8,2.48-.82,4.79-1.72,7.07-3.09,2.31-1.38.3,1.71,1.54,1.9,1.48-.35,3.1-.74,4.72-1.12l-.06-.06c-2.99,2.71-6.3,4.88-10.18,6.09-1.7.53-3.52.75-4.95,1.96-.84.71-1.35-.21-1.77-.51-1.92-1.34-3.06-3.77-5.85-4-.18-.01-.45-2.18-2.32-2.8.75,1.96-.34,3.61.14,5.5.48,1.86-.25,3.81-.31,5.73-.11,3.65.46,7.24.34,10.85-.04,1.38.46,3.31-.26,4.04-2.22,2.29-1.16,5.07-.84,7.16.81,5.36-.22,10.65.03,15.98.26,5.6.02,11.36-.03,17.05-.06,7.68.17,15.36.44,23.03.07,2.07-1.1,1.12-2.14,1.1,1.96,1,2.13,2.51,1.7,4.22-1.37,5.51-.69,11.17-1.11,16.75-.17,2.28.43,4.71-.15,6.84-.74,2.7.47,5.15.14,7.74-.36,2.9-.37,5.85-.46,8.79-.09,3.02.13,6.07-.16,9.07-.31,3.23.03,6.46-.49,9.72-.36,2.26,1.04,4.75.66,7.23-.56,3.63.38,7.16.85,10.67.52,3.83.49,7.67.87,11.49.49,4.94-.03,9.97.33,14.93.35,4.72.48,9.43.52,14.15.02,1.93.3,3.91-.44,5.8-.11.29-.12.66-.05.97.97,4.42.42,8.93.78,13.38.15,1.8-.73,3.29-.97,4.98-.61,4.4.3,8.63.78,12.92.17,1.51.32,3.02.81,4.51.19-5.44-.81-10.84-.05-16.33.26,2.24.66,4.48.75,6.72.08,1.98.81,3.12,2.86,3.12,1.64,0,1.84.68,1.02,1.94-.13.2-.18.46-.29.68-1.41,2.89-4.17,5.39-2.14,9.25-2.15-.31-1.17-2.06-2.07-2.8-.7,1.73-.08,3.56-.7,5.25-.29.81.39.91,1.04.81,1.93-.31,2.47.69,2.38,2.42-.36,6.45-.22,12.9.36,19.34.21,2.31-.06,4.58-.28,6.86-.09.87-.39,1.91-1.38,2.12-.83.18-1.18-.77-1.62-1.31-1.63-2.04-2.83-4.34-4.18-7.03,3.49.68,3.22,4.44,5.55,5.66.72-.78.55-1.65.52-2.43-.3-7.37-.86-14.72-.78-22.1.01-1.03-.5-1.5-1.48-1.54-1.23-.05-1.76.66-1.92,1.77-.13.95.77,1.85.08,3.02-1.05-.81-.51-1.96-.75-2.86-.37-1.36-.66-2.43-2.53-2.7-1.53-.23-4.1.03-4.39-1.9-.32-2.11,2.33-2.33,3.72-3.32.99-.71,2.08-1.28,3.1-1.95.99-.65,1.59-5.49.69-6.11-.77-.53-1.55.82-2.44.24l.05.08c.34-3.61,1.29-7.23-.03-10.83-.06-.15-.19-.38-.13-.46,3.18-4.22-.93-8.24-.35-12.59.59-4.43-1.08-9.1-1.15-13.68-.06-3.53-.71-6.98-.73-10.51-.02-4.3-.93-8.58-.52-12.91.03-.36-.09-.65-.49-.72-1.04-.16-.53,1.06-1.28,1.37-1.17-3.58,1.23-6.45,1.73-9.71.45,3.26,1.24,6.36,2.44,9.36-.54-.11-1.19-.81-1.42.41-.64,3.44.16,6.83.77,10.1.59,3.13.82,6.25.94,9.37.2,5.16.85,10.26,1.47,15.37-.52-9.83,1.23-19.83-2.31-29.43-.06-.17.08-.45.18-.65.8-1.71.4-3.48.3-5.24.88-2.18.04-4.37-.13-6.51-.43-5.57-.4-11.14-.45-16.72,0-.61-.07-1.22-.11-2.05-1.71,1.94.15,3.98-.92,5.77-.04-16.4-1.02-32.78-1.38-49.37,1.57.94.41,2.27.92,3.25.78-1.96.76-2.23-.18-4.24-.09-.18-.02-.44,0-.66.07-1.11,1.04-2.2-.59-3.26-.68-.44-.51-2.09.34-3.15.69-.85,1.07-1.89-.49-2.41l.07.06c-.65-2.9.33-5.68.7-8.5.12-.92-.02-1.69-.12-2.56-.22-1.84-.98-.96-1.71-.44,0,0,.06.06.06.06-.19-1.91.98-3.5,1.28-5.35.72-4.46,2.33-8.78,3.11-13.23.13-.78-.75-2.41-.65-3.57.14-1.62-1.24-3.66,1.35-4.86,1.15-.54.86-5.88-.13-7.32-.83,1.27-.42,2.67-.46,4.01-1.11-.14-.92-.88-.9-1.5.08-3.09.11-6.18.31-9.25.03-.44-1.2-2.36,1.08-1.51.47.17.28-.61.28-.97.01-2.03,0-4.07,0-6.12-.67.07-.54.69-.72,1.08-.28.65-.78.45-1.24.35-.7-.16-.94-.79-.87-1.32.18-1.45.65.03.89-.06.79-.29.29-.97.22-1.42-.16-1.11.58-3.94,1.45-4.9.29-.32.11-.6.04-.9-.6-2.42.01-4.93-.34-7.29-.67-4.53-.23-9.07-.46-13.58-.16-3.17-.57-6.44-.21-9.66.2-1.75.11-3.42-.51-5.08-.25-.67-.34-1.13.47-1.82,1.42-1.22.36-3.08.37-4.62.03-6.21-.17-12.43-.36-18.64-.15-4.89-.71-9.76-1.17-14.63-.22-2.29-.08-4.75.14-7.14.18-2-.25-4.29-.73-6.38-.44-1.92-.36-4.06-2.16-5.55-.65-.53-.49-1.65-.47-2.58.08-3.76.59-7.62-.03-11.27-.64-3.74.67-7.28.18-11.01-.21-1.55.11-3.71.43-5.56.18-1.03-.07-1.82-.35-2.78-.94-3.2-.8-3.1-3.77-2.13-2.75.89-5.59,1.52-8.42,2.16-6.44,1.47-12.91,2.72-19.47,3.58-4.36.58-8.76.56-13.12,1.17-1.45.2-1.91.61-2.07,2.02-.26,2.24.71,4.64-1.03,6.75-.61.73,1.43.71,1.1,1.77-1.96.02-2.35-.37-1.88-2.31.47-1.93.63-3.87.56-5.84-.05-1.25-.54-1.85-1.98-1.86-4.08-.03-8.17.27-12.25-.29-1.63-.23-1.36,1.06-1.37,1.98-.08,6.81-.95,13.56-1.63,20.32-.03.33,0,.68-.42.73.31-7.2.54-14.4.99-21.6.11-1.8-.86-2.21-2.09-2.28-5.3-.3-10.55-1.12-15.77-1.99-6.22-1.03-12.43-2.05-18.61-3.49-8-1.87-15.83-4.42-23.91-6-4.28-.84-8.44-2.26-12.64-3.47-1.75-.5-2.57.51-2.54,2.52.08,4.35-.3,8.65-1.21,12.97-.53,2.51-.24,5.31-.39,7.98-.07,1.18-.31,2.23-1.1,3.24-1-3.92-.2-7.83.19-11.47.28-2.59-.36-5.43.9-8.02,1.05-2.17-.82-4.59.13-6.91.2-.5-.29-.88-.87-.92-2.27-.18-2.07-1.76-1.65-3.21.39-1.37.55-2.42-.73-3.49-.92-.77-.72-1.13.51-1.39,1.25-.26.9-.93.71-1.81-.21-1.02-1.07-1.79-1.53-2.34-2.06-2.46-.87-4.67.11-6.77,1.84-3.96,1.91-8.2,2.42-12.37.6-4.97.98-9.96-.28-14.9-.36-1.4.79-2.41,1.02-3.71.22-1.23.07-1.61-1.06-1.78-.8-.12-1.94-.2-1.77-1.24.15-.95.15-2.21,1.33-2.73.92-.41,1.71-.96,2.25-1.83.46-.75.81-1.62.08-2.25-3.83-3.33-4.71-8.27-6.95-12.47-1.25-2.34-1.45-5.01-2.74-7.31-.41-.72-.13-1.85-1.66-1.31-.64.22-.4-.64-.27-1.07.56-1.96-.01-3.53-1.69-4.8-1.11,1.06-1,3.14-2.95,3.6-.38.09-.03,1.03.4,1.42.29.26.68.41,1.02.6-1.9,1.71-.49,4.34-1.7,6.18-.39.6-.89,1.09-1.06,1.84-1.62,7.13-1.68,14.23-.09,21.41.73,3.29,1.06,6.71.84,10.14-.07,1.06-.13,2.09.21,3.16.26.84.23,1.69-.8,2.31-1.27.76-.72,2-.77,3.19,1.38-.32.42-2.02,2-2.01.53,2.37-1.18,4.26-1.52,6.42-.38,2.45-1.2,4.82-1.73,7.25-1.88,8.5-2.96,17.18-5.84,25.45-.01,0,.03,0,.03,0-.41-.14-.94-.46-.71-.82,1.74-2.67.71-5.75,1.34-8.59,1.15-5.24,2.39-10.47,2.72-15.86.07-1.13.23-2.24,1.16-3.13,1.12-1.08.6-2.66.69-3.93.33-4.39-.6-9.06.59-13.14,1.74-5.93-.54-11.03-2.04-16.16-.77-2.64-.79-4.73-.37-7.21.3-1.8.06-3.69.06-5.52.72-.13.38,1.04,1.35.56-.81-2.78-.69-5.71-.8-8.62-.06-1.54-1.21-2.42-2.33-3.27-2.57-1.95-5.44-3.37-8.89-4.63,1.87-.35,2.99,1.27,4.56.33-1.59-1.07-3.13-2.1-4.67-3.14.63-1.13,1.22-1.33,2.33-.34,1.86,1.66,3.88,3.13,5.9,4.6.59.43,1.43-.4,2.19.37.76.77,1.52,1.36,1.73,2.54.14.81.67,2.05,1.73,1.53.77-.38.76-1.99.14-2.39-1.3-.85-.95-2.32-1.81-3.33,1.34-.38,1.8,1.65,3.23.86-.1-1.35-1.38-1.89-2.26-2.13-2.79-.77-4.51-3.67-7.84-3.56-.87.03-2.06-1.73-3.45-2.33-3.22-1.4-6.82-1.22-10-2.66-.73-.33-1.42-.8-2.06-1.29-1.3-1-2.45-1.71-2.56.5-3.53-2.34-8.01-2.69-11.3-5.42,2.8.53,5.7.35,8.3,1.89.86.51,2.35,1.96,3.43-.12.17-.32.61.01.68.34.44,1.99,2.3,1.94,3.64,2.32,6.21,1.73,12.38,3.5,18.01,6.77,1.05.61,2.03,1.42,3.16,1.8.96.32,1.46,1.7,2.99.92,2.17-1.12,3.35-2.68,3.5-5.06.06-1.01-.27-1.6-1.29-2.29-4.03-2.73-8.44-4.69-12.71-6.92-.43-.22-.83-.53-1.28-.69-.67-.24-.8-2.36-2.08-.63-.02.02-.42-.18-.59-.34-6.41-5.71-14.25-8.28-22.39-10.2-.78-.18-.88-.1-.89.82-.01.96-.57.5-.95.41-1.21-.28-2.31-.82-3.21-1.7-.9-.88-1.89.69-2.76-.15-.33.49-.02.94.09,1.4l.04-.05c-1.94,2.94-1.25,6.18.68,8.84,1.44,1.98,4.3,2.86,4.59,5.83-.3,0-.54.05-.74,0-2.98-.91-3.03-.85-2.76,2.14.25,2.74-.31,5.4-.74,8.1-1.28,7.95-4.52,15.3-6.76,22.95-1.1,3.75-3.06,7.26-3.09,11.28-.03,3.35-.41,6.77.4,10.02.26,1.03,1.49,1.97.91,3.23-1.63,3.51-.86,7.19-.96,10.81-.03,1.17.27,2.22.89,3.96.21-1.3,1.81-1.29.41-2.66-.85-.83-.43-2.5-.34-3.8.03-.37-.06-.92.58-.79.4.08.68.34.73.85.38,4.02,1.47,7.99.86,12.1-.07.5.25,1.13.54,1.61,1.89,3.11,1.97,6.49,1.46,9.93-.2,1.37.85,2.56.51,4.58-.89-2.02-2.51-3.02-1.6-5.1.3-.7-.13-1.75-.33-2.62-.14-.59-.67-.64-1.19-.5-.52.14-.65.59-.38.94,1.04,1.35.46,3.04,1.04,4.48,0,0,0,0,0,0-.56.1-1.63-.03-1.47-.27,1.5-2.26-1.83-3.88-.58-6.37.71-1.41-.55-3.64-.79-5.54-.78-6.15-1.68-12.28-1.91-18.48-.22-6.04-.62-12.08-.15-18.14.25-3.24,1.25-6.31,2.65-9.08,2.05-4.07,2.76-8.5,4.23-12.71,1.52-4.37,2.29-8.97,3-13.54.4-2.57.2-5.22.26-7.84.01-.61-.22-1.45-.78-1.33-1.92.43-1.58-2.25-3.26-2.2-.45.01-.17-.86.21-1.16,1.32-1.05,1.56-2.58,1.38-4.01-.3-2.49,1.29-4.9.05-7.47-.4-.84-.16-1.64-1.52-1.47-.39.05-1.43-.58-1.14-1.56,1.08-3.73,2.35-7.42,3.23-11.2.73-3.13,1.99-6.21,1.39-9.56-.11-.61.14-1.28.2-1.92.2-1.96,1.44-3.63.45-6-.56-1.33.06-3.71.26-5.59.5-4.6.47-9.31,2.25-13.7.31-.76.42-1.63.87-2.28,1.25-1.81,1.81-3.78,1.73-6.12,1.9.5,2.11,1.66,1.72,3.19-.62,2.43-1.23,4.86-1.82,7.29-.27,1.11.1,1.76,1.32,1.76l-.03-.03c-1.66,1.77-2.55,3.71-.96,6.36-1.06-.44-.5-1.58-1.37-1.42-.67.12-.29.8-.35,1.24-1.01,7.52-1.73,15.07-3.25,22.53-.93,4.56-1.53,9.19-3.41,13.51-.2.46-.12.84.39,1.23,3.39,2.55,7.53,3.99,11.38,3.64,2.58-.24,4.4.54,6.35,1.29,1.98.76,4.07.73,6.06,1.6,4.49,1.97,8.93,3.99,13.15,6.5,3.15,1.87,6.36,3.65,9.57,5.43,2.07,1.15,3.75,2.76,5.49,4.44.7-.13.85-.87,1.06-1.43.6-1.57,1.24.54,2.11-.08.63-.45.21.61.17.88-.14.85-.72,1.74.74,2.05.48.1.41.76.26,1.07-.92,2,.89,4.19-.48,6.19-.35.51.25,1.22.5,1.82,1.91,4.76,3.19,9.72,4.59,14.64.8,2.82,1.94,5.82,3.79,8,2.61,3.08,1.17,5.38-.6,7.57-1.65,2.04-.65,2.21,1.08,2.37.65.06,1.35,0,1.94.23,1.2.48,3.22.51,1.85,2.77-.59.98,1.2,1.87-.01,3.11-.37-1.62-.85-1.47-2.21-.72-2.2,1.21-2.39,2.64-2.3,4.91.15,3.81-.27,7.64-.57,11.46-.12,1.53.8,3.17-.56,4.64-.28.31-.49,1.44.35,1.97.29.18.64.52.31.74-2.13,1.39-1.11,3.68-1.56,5.51-.38,1.55,1.53,3.1,3.74,2.9-1.64.93-1.65,2.33-2.13,3.49-.46,1.12.68,1.78,1.44,1.9,6.93,1.11,13.24,4.13,19.77,6.42,10.56,3.71,21.64,4.91,32.51,7.1,11.16,2.25,22.46,3.45,33.82,3.83,4.73.16,9.47-.29,14.2-.64,10.72-.8,21.21-2.76,31.58-5.44,1.42-.37,2.83-.81,4.22-1.23,1.78-.54,3.26-1.62,3.46-3.95.21-2.49-1.66-3.51-3.12-3.57-2.5-.11-1.42-1.37-.78-1.91,1.06-.88,1.26-1.76,1.07-3-.1-.69-.1-.91.97-.61,1.05.29.36-1,.13-1.56-.2-.49-1.02-.67-.79-1.4.3-.96.82-.4,1.29-.17.04.02.3-.28.27-.32-1.05-1.7,1.07-3.63-.36-5.29,1.43-3.69.39-7.42.19-11.14.04,2.37-.73,4.74-.38,7.03.21,1.38-1.52,2.86.26,4.06.05,1.52-2.67,2.07-.7,4.47-2.41-.92-2.39-2.2-1.87-3.43.84-2.02.74-4.18,1.12-6.26.15-.85.18-1.8-.43-2.58-.26-.33-.23-.32.24-.94.13-.17.22-.53.13-.68-1.72-2.9.43-5.87-.38-8.82-.73-.08-.26,1.11-1,1.34v-3.46c.78.74,1.76,1.27,1.86-.11.27-3.8,2.69-7.14,2.02-11.18-.68-4.07.56-8.28.13-12.24-.29-2.66.41-5.3-.3-7.9-.59-2.19.02-4.37.3-6.54.76-.14,1.04.5,1.77.81.16-1.62.25-3.14-.14-4.86-.98.76-.33,1.68-1.45,2.76-.64-5.78.37-11.21-.73-16.98-1.05,3.59-1.14,6.87-1.66,10.51-1.57-1.82-1.23-4.02-.81-5.06,1.11-2.73-.55-5.54.79-8.09,1.25-2.38-.11-4.95.44-7.46,1.02.09,0,1.37.97,1.35.05-.04.28-.19.27-.23-.91-2.21.1-3.68,1.41-5.5,1.48-2.07,1.98-4.86.75-7.4-.5-1.03-.33-1.84.23-2.45.92-1.02,1.49.34,3.04.89-2.9-3.08-2.81-5.82-.61-8.5-.16.75-.41,1.51.16,2.35.78-.82.24-2.12,1.12-2.49,1.22-.51.16-.86.02-1.22-.17-.42-.36-1.03-1-.8-.72.26-.51.9-.42,1.46-.09-1.15-1.11-2.73,1.48-2.42,1.49.18.15-1.77,1.21-2.16.93.13.27,1.2,1.14,1.66.93-3.2,2.95-6.03,2.82-9.48-.1-2.75.95-5.27,1.26-7.94.71-6.15,1.23-12.3,1.15-18.49-.03-2.78.07-5.57-.74-8.29-.17-.55-.26-1.24.53-1.39.81-.16.85.61,1.04,1.11.78,2.14.42,4.39.55,6.58.47,8.01.09,16.03-1.01,23.95-1.04,7.43-2.83,14.71-5.41,21.86-1.38,3.83-4.41,7.34-3.61,11.88.04.24.05.48.12,1.32,1.16-2.75,1.34-5.16,1.96-7.49.02,5.34-1.42,10.63-.43,16.06,1.62.1,2.58-1.62,4.1-1.96,2.39-.53,3.65-2.87,5.95-3.53,2.4-.68,4.74-1.58,7.17-2.1,1.94-.41,3.97-.33,5.95-.58,1-.13,2.34-.02,2.71-1.22.37-1.16-.48-2.18-1.17-3.05-.27-.34-.8-.43-.83-1.05-.3-6.04-.3-12.05,1.69-17.87.25-.73.17-1.45-.1-2.17-.28-.74-.31-1.46.44-1.97.74-.5.85-1.17.54-1.94-.41-1.03-.23-1.88.57-2.68.62-.62.84-1.21-.47-.96,0-.39-.15-.96.05-1.15,2.56-2.52,1.29-5.73,1.51-8.63.12-1.6-.39-3.24-.17-4.89.26-2.02-1.97-3.13-1.94-5.1,0-.3-.31-.59-.01-.93,1.06.11.47,1.51,1.4,1.76.65-.44.33-1.09.03-1.43-1.57-1.79-1.85-4.19-2.76-6.25-1.05-2.38-2.5-4.58-3.36-7.02-1.19-3.35-3.49-6.03-5.29-8.98-1.76-2.9-4.21-5.42-6.57-7.89-2.48-2.59-5.01-5.21-7.88-7.32-4.07-2.99-7.97-6.24-12.62-8.42-2.45-1.14-4.39-3.16-6.83-4.44-3.19-1.68-6.46-3.26-9.39-5.43-1.56-1.16-3.18-2.24-4.82-3.28-1.2-.76-2.3-1.84-4.12-1.75.94,4.58,2.03,9.03,1.64,13.63-.05.54-.41,1.03-1.12,1.38-.29-.94-.84-1.79-.73-2.55.69-4.79-2.29-8.62-3.39-12.92-.89-3.46-2.35-6.81-3.37-10.3-.59-2.01-1.46-4.25-3.47-5.66-.77-.54-1.91-1.07-1.77-2.82,2.14,1.43,5.08,1.51,4.98,4.93-.03,1.16,1.09,1.58,1.66,2.29,2.03,2.5,3.27,5.51,5.27,8.02.57.71,1.29,1.16,1.96,1.7,3.91,3.11,7.68,6.44,12.32,8.48.89.39,1.7,1.88,2.89.43.2,1.04,1.79.89,1.79,1.91,0,.75.46,1.2.84,1.34,4.69,1.74,8.27,5.37,12.73,7.44,5.36,2.49,9.17,6.95,13.65,10.52,3.06,2.44,4.83,6.34,7.7,9.15.34.33.35,1.32,1.11.41.36-.42.69-.3,1.01.04.36.38.27.69-.11,1.02-1,.86-.66,1.23.46.96.95-.23,1.05.37,1.01.89-.13,1.57,1.11,2.43,1.65,3.63,1.33,2.94,1.74,6.22,3.25,9.14.39.75.99,1.23,1.37,1.85.35.57,3.29.34.88,2.13-.25.19,1,.28,1.19,1.15.5,2.31.09,4.71.97,7.07.27.73.12,2.59.14,3.95.09,5.23.64,10.48-.1,15.71-.11.79.08,1.65-.66,2.37-.72-.62-.17-1.56-.69-2.34-.29.45-.88,1-.78,1.27,1.02,2.67-1.37,4.47-1.64,6.8-.41,3.45-1.33,6.79-.71,10.41.33,1.95.11,3.93.95,5.93.65,1.54,2.53,2.05,2.66,3.95.04.6.38,1.31.08,1.84-1.2,2.1-.58,4.1.15,6.11.81,2.24.1,3.52-2.43,3.52-1.54,0-1.61.62-1.85,1.81-2.21,10.91.31,20.96,5.22,30.66,1.35,2.67,1.69,5.85,4.1,7.97v11.82c-.81,4.3-1.88,8.56-2.37,12.9-.59,5.15-2.21,10.18-1.92,15.44.06,1.14-1.53,1.32-1.37,2.36.6,3.89-.68,7.7-.42,11.58.03.49.06,1.2-.43,1.31-2.56.57-1.34,2.48-1.42,3.89-.02.39.6.75,0,1.24-1.47,1.23-1.39,2.6-.17,3.96.53.59.42,1.21.22,1.83-.56,1.74.39,3.95-1.64,5.27-.31.2-.32.79.15,1.03.97.5.64,1.37.7,2.16.64,8.2,0,16.47,3.46,24.43,1.53,3.51,3.14,7.42,2.97,11.62-.06,1.54.41,3.23,2.25,3.91v6.89c-.5.1-1.37.79-1.45.02-.3-2.87-2.79-4.99-2.63-7.98.06-1.16-1.05-1.73-1.47-2.7-2.03-4.67-4.19-9.27-3.83-14.57.04-.59-.66-1.25-.59-1.81.09-.63-1.72-1.61.33-1.98.5-.09.04-.62-.31-.82-1.54-.89-1.31-2.58-1.75-3.96-.17-.53.08-.85.64-1.1,1.19-.52,1.1-.96-.2-1.05-.67-.05-1.21-.29-1.06-1,.18-.88.77-.09,1.16-.15.73-.12,1.46-.57,1.34-1.2-.57-2.99-.02-6.09-1.09-9.05-.24-.67.15-1.83.22-2.78.45-6.84.3-13.79,1.58-20.47,1.39-7.27,1.53-14.68,3.19-21.89.5-2.16,1.24-4.41,1.35-6.5.14-2.63,1.58-4.72,1.87-7.32-1.06-.18-.59,1.36-1.66,1.22.47-.98-.17-2.21,1.61-2.81.6-.2.52-2.61.62-4.03.34-4.55-1.38-8.75-3.21-12.61-4.41-9.31-6.81-18.95-6.81-29.23,0-1.81.67-3.56.43-5.39-.04-.32.07-.69-.31-.76-.29-.06-.84.02-.9.17-1.14,3.1-4.38,3.82-6.71,4.78-2.69,1.11-3.4,3.3-4.97,5.02-.37.4-.4,1.5-1.16.13-.44-.79-1.05,0-1.34.64-.45,1-.37,2.3-1.59,2.88-.85-.48.42-1.47-.67-1.99-.63,1.38-1.51,2.51-3.24,2.6-.75.04-1.09.69-1.09,1.42-.05,6.07-.94,12.03-2.29,17.93-1.19,5.19-.82,10.53-1.69,15.76-.86,5.13-.87,10.32-.78,15.52.09,5.54.52,11.06.95,16.58.12,1.56.17,1.56,2.6.28-4.33,2.85-.94,7.11-2.69,10.57,1.52,0,.96-.98,1.44-1.25.36,1.05,1.47,2.13-.13,3.09,1.87,2.29-.22,3.56-1.21,5.19-.28.46.12,1.44.39,2.11,3.38,8.63,3.65,18.01,6.4,26.79.68,2.18,1.17,4.42,1.84,6.95,1.32-1.84,1.99-3.6,2.36-5.5.12-.61.05-1.59.86-1.56.99.04.4,1.01.53,1.58.59,2.67-1.21,4.66-2.04,6.9-.88,2.39-1.06,4.37.89,6.46.88.94,1.03,2.58.79,4.15-.42,2.75-1.87,5.17-2.23,7.92-.16,1.21-.21,2.27,1.12,2.85l-.07-.07c.28,2.35,1.98,4.3,1.96,6.75-.84.05-.72-.8-1.44-1.3,1,3.46-.49,6.5-.58,9.67-.06,2.09,1.37,3.84,1.67,5.95.55,3.85,2.14,7.54,1.99,11.53-.03.84.42,1.38,1.26,1.56,1.06.23,1.24-.62,1.45-1.28,1.05-3.17,2.13-6.33,3.72-9.28.34-.64.26-1.18.13-1.86-.77-4.01-1.11-8.06-.89-12.15.04-.78-.08-1.59-.47-2.37-1.25-2.52-.27-4.69,2.47-5.22.74-.14,1.28-.68,2.2-.65-.03,2.06-.07,4.04-1.56,5.8-.91,1.08-.45,2.33.35,3.37,1.36,1.75,1.9,3.69,1.49,6-.57-.66-1.07-1.24-1.58-1.82-.66.6-.65,1.14-.2,1.61,1.02,1.06,1.15,2.47.91,3.68-.29,1.47-.03,2.07,1.63,1.82-.44,1.25-3.15.92-1.63,2.9-3.13,3.06-3.12,7.75-5.72,11.09-.53.68-5.94,1.28-5.88.76.16-1.42-.87-2.22-1.23-3.32-2-6.01-4.53-11.87-5.37-18.22-.05-.35-.34-.54-.72-.55-.46,2.06.67,4.23-.4,6.25-.44-1.91-.61-3.94-2.41-5.29.96,1.66.56,3.45.64,5.18.14,2.93.31,5.87.31,8.8,0,.99-1.03,2.11.89,2.71.69-3.76.13-7.54.48-11.27ZM235.79,266.81c-2.17-.96-4.32,1.33-6.51-.05-.44,1.08-.22,1.97.38,2.81-.21-1.13-1.35-.13-1.76-.77-.89-1.41-.89-1.41-2.27-.7,1.17.66,1.11.61.3,1.66-.46.6-1.09,1.62-.03,2.03.65.25,1.03.23.74.96-.16.4-.52.66-.97.59-.61-.1-1.16-.36-.99-1.11.15-.69-.29-1.38.27-2.1.51-.65-.12-1.04-.75-1.13-.8-.11-.58.35-.74.96-.47,1.84-.23,3.9-1.53,5.53-.28.36-.57.97-.04,1.29.42.26,1.24-.03,1.28-.39.28-2.78,3.21-2.56,4.4-2.75,3.07-.5,2.47-2.07,2.14-3.92.81.93,1.74.79,2-.26.36-1.43,1.21-1.67,2.42-1.74.65-.03,1.24-.33,1.58-.95,1.28-.48,1.48-1.33.85-2.47-.88.63-1.82.42-2.81.38-.52-.02-.95.68-.93,1.64,1.25-.77,2.23-.59,2.97.5ZM151.71,374.65c-1.35.7-1.4,2.06-1.27,3.19.15,1.28,1.48.79,2.25.83,3.67.16,7.34.18,11.01.26,1.11.02,1.68-.5,1.64-1.64-.02-.74-.17-1.5-.02-2.2.27-1.24-.11-1.56-1.34-1.56-4.92.03-9.84-.02-14.74-.5-4.85-.47-9.72-1-14.49-1.83-5.01-.87-10.09-1.44-15.07-2.58-4.63-1.06-9.41-1.45-14.02-2.56-7.56-1.82-15.01-4.08-22.14-7.22-2.64-1.16-5.47-1.32-8.24-1.8-.63-.11-1.65-.71-1.77.41-.09.84-.61,1.85.89,2.61,14.43,7.31,30.07,10.79,45.59,14.65,8.97,2.23,18.25,2.45,27.37,3.66,1.69.22,1.88-.87,2.33-1.88.2-.46.29-.99-.25-1.3-.36-.2-.79-.27-1.6-.53h3.89ZM213.43,365.22c-15.24,5.16-30.81,7.29-46.72,8.38.63.8.63,1.42.19,2.49-.6,1.48.08,2.74,1.52,2.74,7.78,0,15.52-.69,23.21-1.82,6.57-.96,12.63-3.98,19.19-5.04,1.52-.25,2.59-1.35,2.61-3.09.02-1.21,0-2.42,0-3.66ZM233.12,257.39c-2.32-1.47-3.99.27-5.61,1.08-1.51.75-4.45.17-4.22,3.34.03.41-.58.1-.97.02-2.02-.44-3.35.93-2.82,2.89.21.78.45,1.53.49,2.36.08,1.7.7,2.13,2.48,1.32,5.57-2.53,11.04-5.46,17.04-6.82,3.15-.72,4-3.08,5.39-5.19,1.53,2.57,1.69,3.58.69,4.69.87.35,1.89.62,2.57.01.74-.67-.14-1.52-.38-2.23-.3-.88-.48-1.71-.36-2.63.09-.69.39-1.39-.71-1.76-.89-.3-1.4-.45-1.98.51-.4.67-1.15,1.21-2.01.28-1.33-1.46-5.42-2.05-6.96-.75-1.09.92-2.14.98-3.37.93-.18,0-.37.19-.48.25-.15,1.01,1.01.71,1.22,1.68ZM219.48,397.59c.18-.13.34-.3.53-.38.33-.13.92,0,.71-.65-.05-.17-.45-.42-.52-.38-.83.58-2.2,1.26-1.16,2.34.96,1,.92,1.85.86,3.01-.11,1.95-.02,3.91.09,5.86.03.64.35,1.87,1.16,1.17,1.21-1.04,2.52-2.77,1.64-4.28-.87-1.48-.81-2.93-1.14-4.4-.23-1.02-.4-2.36-2.17-2.29ZM224.22,438.02c.93-3.05.85-9.65-.09-11.38-2.79,3.73-3.27,7.63.09,11.38ZM215.07,398.79c1.69.09,2.89-.2,2.66-2.38-.1-.98-.13-2.51.42-2.9,1.26-.87.37-1.07-.15-1.48-.89-.69-1.75-1.48-3.02-1.26.23.71-.36,1.37.14,2.2,1.14,1.86.45,3.84-.06,5.82ZM85.62,366.84c-.78-.96-1.25-1.21-1.77-1.46-2.71-1.27-6.03-1.17-8.26-3.67-.14-.16-1.68-1.14-2.36-.29-.51.64-.22,1.68.72,2,3.66,1.24,7.32,2.48,11.67,3.41ZM221.56,418.89c-.62,3.25.27,6.05-1.63,8.39-.62.76.73,1.19,1.29.89.57-.3,1.1-.84,1.48-1.54,1.41-2.6.49-4.84-1.13-7.74ZM219.04,721.89c.7.43-.64,3.16,1.57,1.77,1.26-.79.92-2.78.35-3.81-.64-1.16-1.31.39-1.99.74-.72.36-1.49.62-2.2,1-.4.22-.88.54-1.02.93-.17.46.42.63.78.73.59.17,1.24.57,1.72-.23.23-.37-.01-1.04.78-1.13ZM216.24,378.85c-.6,1.03-.11,1.77,0,2.55.08.51.49,1.32-.2,1.53-2.81.86-.9,2.88-1.54,4.71,3.31-3.18,3.64-5.01,1.74-8.8ZM241.7,462.84c-3.64-.78-5.71.02-7.84,3.15,2.95-.58,5.47-1.42,7.84-3.15ZM222.98,398.13c-.83-3.77-1.67-7.53-2.5-11.3-.52,4.06.63,7.74,2.5,11.3ZM216.75,412.97c.6,3.63.57,7.33.91,10.99.36-3.75.97-7.52-.91-10.99ZM63.31,278.63c-.22,3.67,1.2,7.85,3.3,9.07-2.11-2.86-.96-6.47-3.3-9.07ZM215.15,273.02c-.73,1.31.71,2.27.58,3.61-.09.96-1.64,2.49-.2,2.83,1.51.37.52-1.88,1.43-2.76.76-.74.8-2.24-.9-2.5-.84-.13-.37-1-.92-1.18ZM214.26,400.36c.15,1.86.83,3.14,1.48,2.8,1.09-.57,1.78-1.59,1.99-2.85.08-.49-.26-.71-.72-.77-.46-.06-1.22-.3-1.17.37.25,3.15-1.21-.21-1.58.44ZM220.13,478.12c-1.21,2.2-.88,4.44.83,5.62-.28-1.89-.55-3.7-.83-5.62ZM218.46,291.2c.89-2.04.5-4.06.16-6.09-.46,2.02-1.18,4.04-.16,6.09ZM51.8,286.78c-.41,2.25-.57,4.03.42,6.49.15-2.5,1.52-4.27-.42-6.49ZM224.65,713.17c.73-.83,1.77-1.56,1.05-2.73-.28-.45-1.13-.7-1.53-.22-.86,1.02.17,1.95.48,2.95ZM217.3,390.58c.8-1.24,1.03-2.42-.17-2.93-1.71-.72-1.33,1.25-2.19,2.22,1.41-1.47,1.89-.45,2.36.71ZM4.32,345.51c-.14-1.88,1.04-3.93-.96-6.05-.15,2.48.33,4.3.96,6.05ZM156.08,380.02c2.47.07,4.96.91,7.44.1-2.46-.67-4.96.23-7.44-.1ZM5.54,351.41c.29-1.37,1.76-2.73.06-4.15-.3,1.41-1.33,2.73-.06,4.15ZM12.93,207.86c.95-1.74,1.47-3.56,1.15-5.54-.38,1.85-.77,3.69-1.15,5.54Z"/>
      <path class="cls-1" d="M254.28,445.92c-1.97.83-2.44,2.87-3.51,4.42-.38.55-.25,1.5-1.45,1.63.64-3.52,2.8-6.02,4.96-8.51v2.46Z"/>
      <path class="cls-1" d="M132.37,119.06c-.91,1.44-2.23,1.13-3.48.73-3.34-1.06-6.07-3.29-9.08-4.98-2.93-1.64-5.95-3.22-8.56-5.41-.26-.22-.83-.31-1.13-.17-.69.3-.09.83-.06,1.25.23,3.91.66,7.82-.17,11.73-.2.92-.08,1.93.05,2.88.05.37-.29,1.2,1.09.54,1.58-.76,2.72,1.14,2.87,2.99l.05-.04c-.86.6-1.51,1.49-2.32-.31-.87-1.94-2.41-1.72-4.28.51.12-1.23-.81-2.34.39-3.25.42-.32.54-.68.14-.96-.56-.39-.93-.05-1.01.56-.21,1.62-.85,2.58-2.86,1.75,2.07-2.16-.31-3.87-.42-6.19-1.68,3.45-3.4,6.46-5.72,9.04-1.49,1.66-2.24,3.08-.46,4.93.26.27.32.72.49,1.13-1.53.37-1.51-.87-1.9-1.66-.44-.89-1.02-1.4-1.79-.36-4.01,5.42-9.79,8.15-15.85,10.35-5.46,1.99-10.4,5.04-15.67,7.4-2.75,1.23-5.48,2.5-8.23,3.74-.43.2-1.01.6-1.3.04-.41-.8.42-.87.9-1.09,3.95-1.82,7.92-3.58,11.84-5.46,2.24-1.08,4.41-2.3,6.54-3.57.47-.28.81-.3,1.3-.33,1.16-.08,1.79-.53,1.8-1.99.01-2.26.88-2.6,2.92-1.48-.07.14-.1.31-.21.42-.52.55-2.28-.34-1.77,1.24.35,1.08,1.41.22,2.11.03,3.93-1.05,7.07-3.64,10.6-5.48.74-.39,1.49-1.03,1.66-2.17-1.18-.12-1.9,1.27-3.07.92-.27-.87.4-.92.9-1.15,5.45-2.48,9.03-6.87,12.21-11.75,1.22-1.87,1.82-3.79,1.68-5.95-.06-.87.07-1.45.96-1.68,1.24-.33,1.01.72,1.22,1.33.19.53.55.79,1.1.78.03,1.98,2.39,2.1,2.87,3.75.39-1.25.92-2.45-1.07-2.7-.65-.08-1.24-.64-1.85-.99,1.07-1.4,1.27-2.95.76-4.61-.52-1.73.27-3.43.24-5.17-.03-1.38.17-2.87-.55-3.93-1.99-2.9.43-6.15-.95-9.03-.03-.07,0-.16-.02-.24-.62-4.75-.8-4.85-5.6-4.41-1.71.16-3.01-.36-2.81-2.47.02-.24.02-.49.02-.74.1-4.39.1-4.36-4.16-5.38-1.8-.43-2.86-1.35-2.71-3.59.13-1.83,1.63-4.16-1.39-5.62,2.71.42,3.1-.81,2.65-2.74-1.06-.22-.36,2.03-1.49,1.17-.68-.52-.41-1.65.49-2.3.47-.34,1.84-.89-.08-1.13-.07,0-.16-.44-.11-.64.37-1.5.66-3.04,1.2-4.48.72-1.9,2.16-2.48,4.13-1.87.6.19,1.47.16,1.59-.68.11-.75-1.1.04-1.21-.8.82-.48,1.52-.84,2.66-.46,2.12.72,2.69.18,2.2-1.92-1.48-6.27-2.39-12.68-4.91-18.67-.38-.91.17-1.5.53-2.25,1.47-3.05,3.93-5.38,5.75-8.19.94-1.44,1.32-2.72,1.23-4.3-.02-.41-.04-.82-.06-1.23-.2-3.55-.23-6.81,4.4-7.86,1.69-.38,3.08-2.05,4.64-3.1.55-.37,1.09-1.04,1.74.11.71,1.27-.33,1.27-.89,1.4-1.23.29-1.99.99-2.48,2.11-.12.27-.4.71-.57.69-3.08-.38-2.16,1.94-2.48,4.12-.16-1.27-.25-1.96-.34-2.67-1.04-.07-.37.96-.94,1.2-.86-.08-.37-2.19-1.62-1.42-1.04.64-1.18,2.05-.6,3.1,1.08,1.96.81,4.13,1.18,6.19.41,2.28-2.09,3.14-3.06,4.79-.51.87-1.06,1.7-1.51,2.59.99.58,1.21-.92,1.46-.6.31.4.04,1.23.12,1.86.23,2.02-1.62,4.12.37,6.32.2-1.55.49-2.81.4-4.21-.14-2.21.57-4.21,1.91-6.03,1.01-1.37,1.34-3.2,2.1-4.55.72-1.3,1.56-2.94,2.68-3.97,4.13-3.82,7.51-8.49,12.56-11.27.61-.34.83-.88.45-1.42-.42-.6-1.1-.36-1.53.02-.97.85-2.07,1.25-3.59,1.32.41-.61.4-1.05,1.22-1.47,4.1-2.13,8.14-4.39,12.07-6.82,3.81-2.36,7.4-4,11.91-1.39,5.66,3.27,11.84,5.43,18.19,7.02.39.1.85.39,1.17.28,3.34-1.17,5.37,1.31,7.63,2.85,1.99,1.36,2.94,7.56,1.92,10.52-.08.23-.21.44-.32.66-.41.78-.28,1.44.48,1.9.8.49,1.47.07,1.95-.5.79-.96,1.38-2.03,1.31-3.35-.02-.41.07-.89.6-.88.53,0,.54.47.58.9.26,3.4.85,6.74-2.12,9.56-1.36,1.3.16,3.48-.5,5.38-.62,1.79-.84,3.81-1.43,5.68-1.25,3.99-1.21,8.07-.77,12.16.11,1.05.24,2.17,1.81,2.05.56-.04,1.05.34,1.46.8,3.7,4.18,4.41,9.82,1.67,14.48-.83,1.41-1.43,2.6-.67,4.3.76,1.71-.16,3.23-1.41,4.39-3.82,3.54-3.75,7.57-2.03,12.1.54,1.42.51,3.42-.09,4.8-.79,1.83-.49,3.63-.83,5.41-.71,3.69-2.44,6.88-5.17,9.45-1.5,1.42-.69,3.1-.63,4.64-.67.15-.68-.21-.77-.52-.19-.64.32-1.75-.71-1.8-.94-.05-1.21,1.15-1.38,1.8-.2.73.33,1.66,1.36,1.67,1.14,0,2.14.08,2.4,1.47-.14.08-.32.24-.39.2-.9-.49-1.73-2.09-2.83-.61-1.24,1.67.27,2.96,1.25,4.01,2.42,2.59,4.82,5.12,5.07,8.93.14,2.06-.44,4.01-.85,5.99-.08.38-.32.89-.81.73-.58-.18-.61-.75-.39-1.23,2.14-4.74-.78-8.22-2.84-11.96-2.16,1.48,1.78,3.25-.53,4.7-1.1-1.63-1.52-3.51-1.83-5.4-.23-1.38-.24-2.75-2-3.23-.65-.18-.41-.8.19-.98.44-.13,1.08.05.87-.75-.18-.66-.74-.85-1.35-.83-1.01.04-1.93.39-2.72,1-2,1.56-4.43,2.14-6.74,3.02,1.45-1.77,3.53-2.61,5.43-3.67,2.04-1.14,3.59-2.76,5.07-4.59-.68-.49-2.26.48-1.89-.32.45-.99.42-2.84,2.11-2.95,1.25-.09,2.1-1,2.95-1.55.76-.49-.59-1.9-.72-3.02-.1-.82-.98-.99-1.79-.69-1.46.54-2.81,1.26-4.14,2.08-1.4.86-3.09,1.22-4.45-.34-1.04-1.2-.94-2.35.4-3.65.71,2.41,1.96,1.62,3.15.56,1.45-1.28,2.83-2.63,4.38-3.84-1.12,2.49-3.24,4.17-5.42,5.95,2.32.38,5.04-1.26,5.51-3.14.27-1.09,1.34-1.42,2.12-1.78,1.22-.56,1.93-1.45,1.94-2.6.01-1.74,2.26-2.75,1.15-4.68.83-.13,1.26.92,1.97.27.23-.2.17-.4-.09-.53-2.32-1.22-1.54-3.02-.82-4.73.37-.88.13-5.24-.42-6.29-.15-.29,0-.77.08-1.14.54-2.45.98-4.88.32-7.4-.51-1.94.26-3.88.26-5.84.01-2.57-.52-5.05-.77-7.55-.13-1.32-.46-2.66-.36-4.03.53-7.53.45-15.06-.96-22.47-.66-3.49-1.52-7.11-4.88-9.39-.84-.57-1.21-1.84-1.82-2.78-.26-.41-.64-.75-.87-1.17-.81-1.5-2.35-.77-3.48-.98-.8-.14-.02,1.21-.25,1.87-.18.53-.44,1.13-.35,1.65.15.87-1.43,1.42-.56,2.1.9.69.92-.81,1.56-1.1,1.21-.54,1.99.48,3.11,1.13-1.81.42-3.63.85-5.44,1.27-1.02.24-2.13.08-3.02.83-.43.36-.91.44-1.27-.07-.25-.35-.29-.93.12-1.07.47-.16.41-1.3,1.15-.68.34.29.54.56,1,.32,1.56-.84,3.32-4.75,3-6.59-.09-.51-.2-.97-.73-1.18-.72-.29-1.03.24-1.36.72-1.09,1.57-2.17,3.14-3.43,4.6.07-1.56.34-2.98,1.72-3.97.97-.7,1.42-1.74,1.47-2.93,0-.13-.36-.4-.55-.4-1.35.05-1.64,1.25-2.05,2.15-1.18,2.56-2.91,5.07-1.4,8.11.58,1.16-.72,1.68-.96,3-.58-2.19-2.74-2.99-2.91-5.06,0-.06-.15-.17-.17-.15-2.25,1.43-1.9-1.11-2.67-1.83-1.16-1.07-2.32-.03-3.63-.2.61-1.05,1.36-1.94,1.15-3.12-.13-.68.1-1.17.72-1.36.78-.24,1.23.31,1.56.9,1.03,1.83,1.92,3.72,4.42,4,.9.1-.11,1.35.83,1.93.79-2.8,1.52-5.53,3.08-7.95.64-1-.18-2.58-.79-2.71-1.29-.28-3.09-.55-3.35,1.93-.58-1.15,1.05-2.55-.82-2.91-1.35-.26-.92,1.01-1.22,1.68-.97-3.59-4.52-4.75-7.41-2.18-.07-1.31-.81-1.94-2.58-1.99,2.35-1.28,4.23-1.17,6.07-.85.4.07.77.62,1.2.16.18-.19.24-.63.15-.9-.22-.71-.87-.62-1.44-.59-3.6.18-6.82,1.06-8.63,5.12.14-3.58-1.74-2.59-3.17-1.77-.93.52-1.41-.15-2.1-.31.01,2.82-.24,5.59,1.06,8.31-1.65.78-2.48-1.93-4.15-1.05.25-1.78.62-3.18,2.62-1.27,1.13-1.91-2.61-2.81-.64-4.8-2.95.67-4.07,2.97-5.91,5.32,1.94-.27,2.46-1.71,3.77-2.21.24,1.46-.79,2.72-1.55,3.02-3.39,1.34-4.23,4.81-6.45,7.08-2.07,2.12-3.27,4.75-4.32,7.44-.34.88-.79,1.78.51,2.72,2.16,1.58,1.97,3.91.94,6.43-.8,1.94-2.81,3.79-1.41,6.39-.94-.88-.28-2.19-1.11-3.07-1.06,1.14.05,2.47-.61,3.7-.93-1.01-1.63-1.18-1.62.54.01,5.29,0,10.58.23,15.89.55-1.32.1-2.87,1.25-4.34v18.42c-.21.01-.42.02-.64.03-.59-1.89-.1-4-1.23-6.46.32,5.3.58,9.97.9,14.63.15,2.15-.43,4.49,1.49,6.25.32.3.25.69-.04,1.09-1.55,2.19-1.43,4.13.63,6.06.79.74.8,2.27,1.54,3.1,2.06,2.33,3.6,5.42,7.38,5.52,1.24.03.91,1.7,2.11,2.12,2.72.96,5.3,2.33,8,3.36,2,.76,3.36,2.38,5.12,3.44l-.06-.06ZM148.05,11.22c-.11,1.05.54,1.25,1.4,1.47,1.47.36,1.6-.89,2.2-1.8-1.2.77-2.49-.32-3.67.41-.09-.3-.09-.73-.29-.89-.54-.43-1.09-1-1.9-.36-.61.48-1.18,1.08-.86,1.81.54,1.24.96-.85,1.64-.15.71.73.83-.78,1.48-.48ZM103.22,63.68c-.06-.12-.11-.23-.17-.35-.91-2.32-2.6-2.66-4.76-1.93-.61.21-1.25.36-1.89.41-1.87.13-2.33.62-1.01,2.3,1.96,2.51,3.8,5.14,5.48,7.84.84,1.34,1.32,2.07,2.25-.02.39,1.37-.91,3.04,1.22,3.6,0-1.32-1.04-2.68-.39-3.83,1.65-2.92.44-5.44-.73-8.02ZM92.87,79.14c.85.35,1.18,1.89,1.39,1.59,1.51-2.1,1.26.37,1.84.56,3.23,1.05,2.71,3.39,2.06,5.71-.49,1.72.37,2.49,1.75,2.39,1.37-.1,3.73.87,3.68-1.84-.08-3.58-.27-7.19-.84-10.71-.29-1.78-1.66-3.33-3.49-4.06-2.86-1.13-4.18-3.54-5.28-6.14-.22-.52.32-1.57-.63-1.53-.91.03-.82,1.04-.82,1.77-.03,3.03-.29,6.02-.8,9.02-.29,1.7-.41,3.62.48,5.6.58-.87-.1-1.71.66-2.37ZM144.08,6.21c1.25-2.36-.65-2.54-1.6-3.18-.63-.43-1.74-.18-2.1-1.05-1-2.38-3.51-1.04-4.12-.72-1.51.8-2.99,1.73-4.59,2.48-2.21,1.02-4.31,2.31-6.44,3.5-.59.33-1.55.47-1.05,1.52.19.39-.39,1.2.41,1.15,1.02-.07,2.11-.26,2.83-1.15.27-.33.11-1.03.9-.84,1.91.47,2.05.44,3.44-1.08.47-.52.43-.01.56.2.64,1.1,1.04.6,1.82-.01.76-.61,2.04-.73,2.98-.39,3.14,1.16,6.51.32,9.68,1.3,2.54.78,5.51.71,7.65,2.04,1.81,1.13,2.22.65,3.26-.67-2.63-.97-4.99-2.24-7.48-2.62-1.88-.29-3.61-2.29-6.13-.47ZM168.4,69.74c.47.03.97-.02,1.4.12.96.32,1.72,2.76,1.07,3.29-1.08.89-1.59,2.32-.82,2.71,2.24,1.15.75,2.89.97,4.34,2.01-.37,3.24-1.8,2.29-3.2-1.19-1.76-.45-2.73.51-4,.69-.9,1.22-1.93,1.77-2.93,1.34-2.46.92-5.53-.97-7.47-1.46-1.5-2.51-1.28-3.2.67-.42,1.18-.32,2.42-.36,3.64,0,.1-.13.19-.14.21-.51-.33.22-1.1-.61-1.43-.62,1.26-.42,2.96-1.91,4.04ZM170.06,28.07c-.3-2.05-.38-3.7-.58-5.15-.37-2.59-.23-5.84-3.65-6.97-.47-.15-.52-1.29-1.31-.59-.54.49-.11,1.06.01,1.6.56,2.56,2.37,4.62,2.86,7.23.26,1.41,1.01,2.61,2.67,3.87ZM159.11,10.15c.73,1.09,1.79,1.45,2.84,1.82,2.85,1,5.66,2.05,7.47,4.72.14.21.61.42.81.34.58-.23.41-.8.35-1.26-.23-1.79-5.16-6.05-6.95-6.03-.08,0-.18-.01-.24.03-1.36.75-2.79.37-4.28.39ZM99.82,34.81c-1.23,1.75-2.07,3.28-.87,4.99.88,1.26,1.54,2.48,1.05,4.08-.12.38-.06.9.46.97.26.04.61-.18.84-.37.52-.43.79-1.01.79-1.7-.68-.31-.51.76-1.06.63-.81-2.7.76-5.73-1.22-8.6ZM167.75,100.06c-1.41,1.33-2.31,5.59-1.57,6.88.21.36.34.81.86.58.45-.19.5-.56.27-1.01-1.07-2.05.41-2.4,2.43-2.89-2.3-.53-1.55-2.28-1.99-3.57ZM104.53,88.06c.18-3.62.52-7.28-.59-11.37-.57,4.17.57,7.73.59,11.37ZM173.55,28.75c1.93-.83,1.8-2.42,1.95-3.77.08-.74-.39-.93-1.07-.41-1.51,1.14-.45,2.66-.88,4.18ZM175.97,62.55c-.18-2.12-1.23-3.37-2.15-4.67-.27-.38-.65-.86-1.18-.54-.62.37-.17.93.08,1.24.98,1.24,1.63,2.75,3.26,3.98ZM163.02,19.57c-1.36-1.57-2.06-3.88-4.92-4.67,1.32,2.47,3.52,3.16,4.92,4.67ZM102.67,50.33c.12-1.09.25-1.79.26-2.49,0-.56,1.63.11.7-.92-.38-.42-1.18-.75-1.7-.65-.67.13-.41.97-.34,1.47.11.76.12,1.59,1.09,2.59ZM165.61,101.47c-1.08.7-1.74,1.6-1.91,2.73-.09.59.09,1.47.87,1.54.84.07.61-.75.68-1.28.11-.95.23-1.91.37-2.99ZM154.14,12.35c-1.13.31-2.15.76-2.4,1.94-.09.44.45.98.97.88,1.63-.32.72-1.97,1.43-2.83Z"/>
      <path class="cls-1" d="M70.76,758.88c1.56,4.02,3.65,7.84,5.53,11.73.18.38.37.75.57,1.13.65.02,1.31.03,1.96.05-.61-1.48-1.26-2.94-1.96-4.38-.27-.56-.62-1.16.06-2.1.8,2.32,1.82,4.45,2.91,6.51.57.02,1.14.03,1.71.04-1.62-3.22-3.26-6.43-4.88-9.65-.55-1.1-1.23-2.31-.75-3.51,1.53-3.77,2.23-7.76,3.3-11.65,1.01-3.7,2.6-7.22,3.21-11.05.24-1.51-.14-2.41-1.65-2.7-.64-.12-1.3-.15-1.83-.61-.31-.27-.68-.56-1.07-.2-.4.38-.33.9-.2,1.38.27,1.01,1.02,1.13,1.92,1.05,1.1-.09,1.8.21,1.37,1.54-2.16,6.52-3.92,13.15-5.49,19.84-.09.4-.17.86-.73.76-.45-.09-.68-.49-.71-.9-.1-1.22-.21-2.44-.19-3.66,0-.6-.04-.94-.72-.95-.65-.01-.83.32-.83.92,0,.69.33,1.43-.3,2.12-1.1-.98-.97-2.78-2.79-3.84.55,3.02.64,5.74,1.57,8.13Z"/>
      <path class="cls-1" d="M37.75,758.9c5.73-2.57,11.42-5.21,17.19-7.68,2.33-1,4.3-3.03,7.2-2.56,1.02.17,1.67.28.97,1.43-1.3,2.14-.62,4.23-.04,6.4.63,2.34,2.03,4.26,3.1,6.36,1.32,2.6,2.42,5.3,4.06,7.74.22.33.43.66.65.99.65.02,1.29.03,1.94.05-1.79-3.15-3.37-6.42-5.16-9.57-1.5-2.64-2.86-5.32-3.53-8.31-.69-3.07.13-4.33,3.18-4.55,1.59-.11,2.03-.97,2.34-2.78-2.37,2.78-4.4.68-6.5.41.62-.54,1.27-.88,1.92-1.21.62-.31,1.83-.48,1.44-1.27-.53-1.07-1.42-.01-2.05.3-2.43,1.19-4.82,2.42-7.61,2.56-5.33.25-9.96,2.34-14.19,5.49-1.16.86-1.67,1.54.31,2.33-2.5,1.06-4.81,1.81-6.55,3.6.53.49.92.45,1.31.27ZM52.71,749.41c-2.09,1.67-4.2,1.74-6.07,2.4,1.65-1.17,3.36-2.21,6.07-2.4Z"/>
      <path class="cls-1" d="M60.56,464.62c.71-1.47,1.42-2.94,2.12-4.42.21-.43.12-.86-.29-1.05-.53-.25-.81.21-.8.6.09,2.34-1.85,3.56-3.22,4.58-1.07.8-3.33.8-4.82-.31-1.55-1.15-2.77-3.11-4.96-.85-.66.68-1.58-.13-2.2-.6-2.6-1.95-5.15-3.98-7.72-5.98-.26-.2-.43-.37-.33-.79.24-1.05.04-1.59-.93-2.51,1.08.21,2.08.86,2.28-.71.11-.88.4-.87,1.68-.24.61.3.9-.18,1.27-.41.88-.55,1.4-1.62,2.69-1.88.17,1.54-1.46,1.76-1.95,2.75-.25.49-1.51.78-1.2,1.29.45.76,1.22,1.6,2.26,1.69,1.58.14,3.11-.27,4.56-.83.91-.35,1.07-4.02.13-4.4-.94-.38-.98-1.92-2.69-1.52-.98.23-.13-1.27.25-1.5,1.77-1.1,1.33-2.29.2-3.39-1.99-1.94-2.71-4.96-5.44-6.29-.83-.41-.7-1.4-.46-2.22.14-.47.34-.98.95-.96.63.02,1.16.42,1.32.97,1.1,3.8,4.24,6.29,6.07,9.6,1.01,1.84,2.37,3.67,2.14,5.99-.21,2.03.7,1.76,2.17.8-2.12,1.51-1.6,3.14-.89,4.85.65,1.57,1.07,3.23,1.78,4.77.82,1.77,1.74,1.81,2.7.08.7-1.26,2-2.43.74-4.23-.55-.79.39-1.36,1.43-1.7-.08,2.12.63,4.08-.59,6.09,1.46.06,1.72-.77,1.73-1.71.03-3.74.01-7.47.01-11.12-1.1-.3-.4.94-1.29.76-.67-6.1-3.76-11.66-4.57-17.94,1.05.31,1.38.95,1.72,1.66.48-2.72.48-5.34-.62-7.9-.31-.72-.73-.55-1.35-.55-1.23,0-2.24.83-3.41.88-.37-.99.47-.75.78-1.01.32-.27.64-.63.35-1.03-.29-.4-.9-.78-1.26-.38-1.15,1.27-1.32.65-1.5-.58-.3-1.96-2.21-2.62-3.47-3.64-2.8-2.27-4.37-5.62-7.28-7.76-.56-.41-.95-1.49-.15-1.89.64-.32,1.71-.62,2.46.1.5.48,1.26.81,1.2,1.72-.03.49.02,1.1.77.86.67-.22.94-.85.43-1.35-1.33-1.31-.83-2.94-.87-4.43-.2-7.49-.28-14.96.84-22.43.43-2.89-.38-5.98.51-9.15.85.82-.49,1.81.6,2.56.12-1.82,1.31-3.08,1.94-4.61l-.07.07c.77.72.32,1.54.13,2.29-1.26,4.89-1.46,9.93-2.03,14.91-.37,3.26-.88,6.63-.47,9.83.6,4.77-.04,9.6.96,14.32.47,2.19,2.65,2.96,4.11,4.23,2.32,2.01,4.93,3.74,7.62,5.22,2.12,1.16,1.92,2.92,1.77,4.65-.28,3.32-.69,6.6,1.91,9.31.15.15.24.47.2.67-.5,2.67.52,4.92,2.07,6.97-.78.67-1.16-.88-1.75-.13-.56.71.08,1.26.49,1.7.8.86.52,1.83.48,2.79-.1,2.47-.39,4.83,1.62,7,1.66,1.79-.2,6.21-2.88,7.75,0,0,.06.06.06.06ZM51.32,459.07c-.64-1.02.01-3.19-1.73-2.95-1.74.24-4,0-5.1,2.01-.25.45,3,3.57,3.53,3.37,1.27-.49,2.91-.59,3.31-2.43Z"/>
      <path class="cls-1" d="M31.07,762.83c-.87-2-.88-4.16-1.1-6.16-.23-2.09-1.06-4.07-1.01-6.2.03-1.29-1.25-1.58-2.06-2.22-.73-.57-1.34-1.2-1.15-2.27.21-1.17,1.19-.88,1.93-1.09,3.63-1.03,7.29-2.02,9.49-5.53.43-.69,1.06-1.29.39-2.19-.94-1.27-2.38-1.42-3.73-1.54-1.14-.1-.75,1.04-.91,1.67-.32,1.25-.56,2.53-.85,3.79-.09.41-.31.82-.8.76-.54-.07-.59-.59-.48-.96.42-1.48-.25-2.93-.07-4.4.16-1.35-.06-2.41-1.59-2.86-1.24-.36-1.23-1.36-.96-2.41,1.78-6.9,2.11-13.94,2.59-21.02.35-5.02-.19-10.04.5-15.05.32-2.34-.52-4.87-.94-7.3-.31-1.81-1.1-4.04,1.45-5.23.23-.11.28-.72.31-1.11.43-7.49.27-14.99.6-22.47.17-3.87.45-7.78.78-11.66.46-5.4.06-10.87.03-16.3,0-1.72-.05-3.44,0-5.16.02-.63.13-1.47.94-1.5.92-.03.88.82.88,1.46,0,3.43.28,6.9-.13,10.28-.55,4.59.16,9.2-.44,13.75-.53,3.96-.22,7.94-.61,11.92-.29,2.94-.24,5.98-.15,8.96.1,3.37-.35,6.71-.3,10.05.15,9.54-.14,19.07-.44,28.6-.23,7.09.14,14.2-.32,21.29-.11,1.77.4,2.86,2.31,3.39,1.52.42,2.86,1.46,4.3,2.17.87.43.66,1.04.33,1.63-1.98,3.55-4.58,6.43-8.76,7.25-2.12.42-2.37,1.09-1.45,3.1,2.12,4.63,2.34,9.58,1.41,14.56ZM31.99,721.13c-1.55,3.1-1.28,6.54-2.06,9.78-.19.79.22,1.05.8,1.21.7.2.93-.34.89-.82-.32-3.4.08-6.77.37-10.18Z"/>
      <path class="cls-1" d="M207.53,219.03c-1.19,2.76-3.36,4.79-5.55,6.65-1.21,1.03-2.76-.26-3.83-1.28-.39-.37-.53-1.21-1.23-.93-1.42.56.14.79.16,1.18,0,.19-.39.47-.66.57-.63.24-1.25.36-1.75-.34-1.39-1.94-3.01-3.75-4.18-5.82-2.11-3.71-4.78-7.13-6.03-11.28-.21-.7-.8-.74-1.16-1.15-1.69-1.92-1.69-3.54.12-5.32,1.75-1.71,3.34-3.6,4.52-5.7,1.61-2.87,4.22-4.64,6.56-6.7,2.85-2.51,5.71-.82,8.12.6,2.49,1.46,4.61,3.64,6.38,6.02.84,1.14,1.73,2.23,2.92,2.93.9.53,1.27,1.29,1.44,2.15.25,1.27.36,2.52,2.4,1.1-1.03,3.42-4.38,5.08-3.55,8.56-1.03-.09-.92-.53-.88-.94.02-.29.21-.65-.64-.93,1.01,4.29-.94,7.55-3.23,10.69-.26-1.07.96-2.05.29-3.31-1.91,1.35-2.11,3.46-3.24,5.18,1.91.4,1.34-2.36,3.01-1.94ZM197.88,189.67c-.3,1.6-1.87,2.06-2.98,3.01-2.81,2.39-4.88,5.48-7.6,7.94-1.84,1.67-2.97,2.66-1.21,5.73,3.05,5.34,4.96,11.25,10.12,15.26,2.12,1.65,3.15,2.04,4.99.12,1.93-2.02,3.65-4.12,4.64-6.82,1.35-3.67,2.86-7.29,4.47-10.86.53-1.17.45-1.99-.32-2.88-3.26-3.76-6.48-7.56-10.33-10.76-.46-.38-.94-.64-1.78-.74Z"/>
      <path class="cls-1" d="M152.71,515c1.16,3.77,2.06,7.46,1.76,11.59-.16,2.19.62,4.86,1.3,7.22,1.1,3.83,1.35,7.79,1.98,11.68.91,5.59,1.47,11.22,2.83,16.75.51,2.07.23,4.33.8,6.54.44,1.69-1.63-.15-2.12.81.57-1.95-.41-3.61-.97-5.34.4,1.75-.86,3.84,1.03,5.29.93,2.3.99,4.78,1.35,7.18.35,2.32-2.3,1.08-2.98,2.28-.03.06-.38-.54-.68.03-.89,1.66.09,5.35,1.69,6.35,1.8,1.12,3.53,2.36,5.35,3.44,1.56.93,2.06,1.73.07,2.7-.36.17-.65.48-.97.73-.11.05-.21.09-.32.14-1.2.86-2.76.06-3.97.89-.88.6-1.66,1.13-.55,2.24.46.46.77,1.05,1.14,1.59,1.93,2.82,1.95,2.92-.83,5.02-1.15.87-1.26,2-1.25,3.25.04,5.75,1.45,11.31,2.28,16.94l.02-.03c-.68-.04-.98-.45-1.12-1.09-1.19-5.5-2.36-11-2.24-16.68.02-.94.16-1.77.72-2.53.71-.97,2.85-1.27,1.51-3.2-.77-1.11-.65-2.68-2.07-3.49-1.11-.63-1.28-1.7.2-2.06,1.94-.47,3.02-2.81,5.37-2.32.32.07,1.2-.49.59-.92-1.41-.99-2.38-2.74-4.37-2.85-.47.91.64,1.56.13,2.54-1.07-.48-1.27-1.61-1.72-2.43-.64-1.16-1.14-2.2-2.62-2.64-1.63-.48-1.21-1.5-.32-2.61,1.87-2.3,3.55-4.54,3.45-7.94-.15-5.44-1.42-10.68-2.05-16.02-.61-5.14-1.85-10.05-3.23-14.98-.6-2.13-.15-4.44-.78-6.6-.06-.2.24-.64.47-.74.39-.17.46.33.68.53,2,1.82,2.26,2.68,1.89,6.39,2.16-.59,1.92-2.26,1.65-3.82-.79-4.6-1.94-9.12-2.5-13.77-.3-2.5-.88-5-1.01-7.54-.04-.79-.63-1.82.45-2.46l-.06-.04ZM156.35,552.22c-.44,2.42,1.12,7.57,2.42,8.11-.3-1.91-.59-3.82-.89-5.73-.05-.32-.55-.18-.88.26-.39-.82.55-1.98-.64-2.64ZM156.47,545.26c-2.21,1.86-2.02,3.62-.61,5.77.99-1.94.84-3.68.61-5.77Z"/>
      <path class="cls-1" d="M154.92,435.41c1.22-.15,2.44-.29,3.65-.46.68-.1,1.25.12,1.26.8.01,1.02-.75.47-1.24.48-5.2.11-10.27,1.15-15.38,2.26,4.98.23,10.02-.56,14.89,1-2.44.28-4.81.37-7.29.05-2.18-.28-4.59.19-6.7.91-1.07.36-.31,2.04.21,2.83,1.1,1.67.95,3.48,1.1,5.28.06.74-.15,1.27-1.32,1.35.83-1.36.52-2.35-.28-3.49-.45-.64-.86-1.64-.75-2.73.07-.67.54-2.07-.74-2.22-1.07-.13-.72,1.28-1.26,1.85-1.52-.94-.21-1.9.31-3.34-1.59.95-3.88.67-2.19,3.14.11.16.14.52.03.67-2.14,3.07-2.81,6.67-3.62,10.2-1.18,5.13-1.97,10.37-3.4,15.43-2.35,8.31-3.46,16.87-5.57,25.21-.98,3.9-1.08,8.02-2.36,11.74-1.99,5.75-1.87,11.86-3.68,17.64-.59,1.87-1.02,4.07-1.03,6.19,0,.61.13,1.57-.83,1.39-.77-.14-.78-1.2-.52-1.66,1.76-3.05.86-6.59,1.97-9.81.99-2.89,1.11-6.08,1.76-9.1,2.14-10.06,4.57-20.06,6.45-30.17,1.42-7.63,3.82-15.01,5.16-22.68.85-4.88,1.84-9.83,3.33-14.62.14-.45.25-.93.28-1.4.17-2.65-.14-2.83-3.49-2.16-.41-.75.15-1.06.66-1.27.52-.21,1.11-.31,1.67-.38,1.48-.17,2.39-1.14,2.16-2.44-.27-1.53-1.68-.07-2.75-.68,2.89-1.12,5.8-1.21,8.78-1.92-.22.9-1.36.96-1.46,1.79-.06.47-.39,1.02.29,1.24.35.11,1.11.04,1.12.01.21-2.98,2.53-.99,3.65-1.75-.55.92-2.45.22-2.18,1.35.32,1.36,1.82.16,2.77.22.86.06,2.18,0,2.39-1.49.05-.36.82-.59.99-.21.73,1.67,2.19.49,3.21.92h-.02Z"/>
      <path class="cls-1" d="M38.08,601.62c0,1.74.08,3.39-.02,5.02-.13,2.12-.63,4.26.92,6.12.19.23.39.66.31.9-.82,2.26.5,4.24.76,6.35.19,1.51-.54,2.78-1.33,3.99,1.78.66,1.4,2.21,1.24,3.47-.59,4.63-1.6,9.2-1.56,13.91.01,1.32,0,2.57.54,3.83.5,1.14.7,2.35-.41,3.4-1.19,1.11.55,2.53-.31,3.7,2.02,1.29,1.34,3.14.68,4.69-.98,2.28.12,4.2,1.02,5.87,1.34,2.47.81,4.86.9,7.61-3.89-2.12-.74-6.07-2.82-8.68-1.61,16.64-.85,33.24-3.49,49.6-.76-1.29-.82-2.73-.38-3.89,1.16-3.12.82-6.31.91-9.5.21-7.93.71-15.86.68-23.8-.01-3.91.17-7.89.55-11.68.61-6.1.17-12.18.55-18.26.62-9.96.3-20.02-.26-30-.2-3.58.08-6.98.51-10.44.1-.77-.06-1.66,1.02-2.2Z"/>
      <path class="cls-1" d="M179.98,731.4c.46.66.38,1.42.38,2.15,0,1.67.52,3,2.29,3.79-2.65.87-4.45-.98-7.24-1,1.4-1.22,2.22-.34,2.99-.66-1.5-1.8-3.45-2.95-5.27-4.25-.79-.57-1.38-1.21-.08-2.05.8-.51,1.31-1.46,2.08-2.05,2.9-2.21,2.34-5.03,1.58-7.96-1.15-4.45-2.22-8.93-3.09-13.47,1.23,1.63,1.72,3.54,2.17,5.44.7,2.95,1.3,5.92,1.97,8.87.15.66.09,1.75,1.14,1.53.91-.19.85-1.08.85-1.98,0-2.03-.94-3.79-1.6-5.55-1.09-2.92-2.05-6.03-2.64-8.92-.77-3.82-2.53-7.38-2.75-11.43-.11-2.06-1.16-4.56-2.39-6.69-1.09-1.9-1.5-4.19-2.41-6.22-.91-2.04,1.04-2.11,1.8-2.28.93-.21.76,1.11.93,1.84.47,1.99.95,3.97,1.44,5.95.15.62.24,1.51,1.15,1.21,1.3-.44.11-.97-.1-1.42-1.19-2.56-.94-5.43-1.86-8.07.67-.26,1.16.27,1.18.58.22,3.23,2.26,5.87,2.54,9.25.25,3.08,1.41,6.29,2.13,9.45,1.11,4.91,2.2,9.82,3.3,14.73-1.36.33-.73-.89-1.29-1.18-.1.22-.26.42-.27.64-.05,1.07.84,1.48,1.47,2.1.37.36,1.69,1.04-.29,1.12-.92.04-.32,1.17-.02,1.6,1.62,2.36,1.09,4.49-.44,6.63-.7.98-.75,2.13-.51,3.31.34,1.68.62,3.37.92,5.06-1.17.4-1.67-.21-1.81-1.26-.11-.8-.11-1.62-.23-2.42-.09-.64-.38-1.09-1.15-.68-2.48,1.3-2.69,3.3-.52,5.13.19.16.37.32.53.5.63.68,1.37,1.32,2.32,1,1.12-.38.72-1.48.81-2.32Z"/>
      <path class="cls-1" d="M85.85,670.69c.56-2.2.13-4.56,1.36-7.46.03,2.31.06,3.92,2.04,4.47.3.08.57.93.47,1.83-.44,4.13-1.93,7.89-3.38,11.69-.91.04-.37-.97-.96-1.25-.11.14-.4.36-.36.46,1.05,2.72-.99,4.9-1.43,7.35-.49,2.77-1.1,5.59-1.63,8.36-1.27,6.65-2.05,13.4-3.1,20.09-.27,1.74.77,2.24,2.02,2.86,1.2.59,3.11.64,3.35,2.11.31,1.84-1.68,2.4-2.88,3.3-2.4,1.79-5.2,2.73-8.02,3.61-.66.21-1.54.34-1.45,1.36.08.88.87.8,1.46,1.04,1.06.42,2.12.89,3.12,1.43.63.34.89,1.01.61,1.7-.41,1.03-1.1.37-1.61.12-1.73-.88-3.49-1.73-5.13-2.77-1.98-1.26-1.95-2.19.19-3.26,1.88-.94,3.94-1.52,5.9-2.32,1.35-.55,2.7-1.13,3.95-1.86.56-.32,1.42-.76,1.22-1.61-.17-.7-.76-1.07-1.59-1.28-2.71-.68-3.3-1.64-2.87-4.26,1.17-7.26,2.05-14.6,3.66-21.76.98-4.36,1.26-8.88,2.79-13.13.26-.72.89-1.89-.39-2.58-.34-.18-.36-.65-.15-.86,2.08-2.05,1.51-5.09,2.84-7.42.72.15,1.02,1.07,1.96,1,.27-1.12.36-2.25.14-3.57-1.31.62-.76,2.41-2.15,2.63Z"/>
      <path class="cls-1" d="M105.37,571.84l-1.11,4.37c-.26-2.66,1.18-5.01.69-7.7,1.32.27.14,1.35,1.03,1.6,1.23-1.05,1.27-2.56,1.42-4,.34-3.26,2.39-6.38.79-9.8-.07-.14-.11-.44-.08-.45,3.2-1.4,1.04-4.55,2.14-6.68.51-.98.24-2.19-.63-3.36-1.71-2.28.07-4.21,1.08-6.19.96.43.07,1.48,1.12,2.02-.53-2.79.03-5.14,1.22-7.55,2.08-4.2.35-8.85.92-13.3.99.53.34,1.77,1.41,2.58-.48-1.52.86-2.5.39-3.88.35,1.13,2.52.84,1.92,2.56-.36,1.05-1.15,1.85-1.34,3.06-.83,5.23-1.64,10.49-2.82,15.65-.92,4.04-1.49,8.14-2.43,12.16-.67,2.87-1.71,6.13-1.3,8.62.72,4.37-2.6,7.48-2.22,11.57.12,1.31-1.69,3.76-1.04,4.47,1.28,1.41-.81,2.84.59,3.91.2.15-.18,1.02-.66,1.39-.27-.34.11-.86-.47-1.13-.09.18-.29.38-.27.55.33,2.3.01,4.58-.15,6.86-.03.45.02,1.98-1.09.45-.39-.53-.59,0-.79.39-.55,1.05-1.16,2.06-1.95,3.02,1.33-7.07,3.65-13.91,4.39-21.06-.26-.04-.51-.08-.77-.12Z"/>
      <path class="cls-1" d="M130.98,86.14c-.58-.77-.47-1.53.46-1.71,2.76-.56,2.96-2.49,2.97-4.78.01-1.91-.56-3.89.49-6.14.54,2.23.97,4.07.65,6-.24,1.46.1,2.03,1.7,1.34,2.05-.89,3.62.2,4.98,1.59,1.2,1.22,2.1.49,2.87-.43.61-.73,1.27-1.68-.5-2.13,1.08-.72,2.15-.28,3.57-.1-1.93-2.92-1.92-5.99-2.28-9.01-.12-.99-1.23-1.84-1.53-3-.8-3.13-1.61-6.23-.66-9.5.17-.57-.19-1.16-.73-1.68-1.47-1.4-1.13-2.33.47-3.32,1.44-.9,1.57.29,1.53.87-.1,1.91.44,3.76.82,5.51,1.44,6.7,1.36,13.68,3.62,20.19.5,1.43,2.43,2.67,3.71,3.19,1.96.79,2.77,2.32,3.69,3.69.82,1.21.87,2.95,1.19,4.46.14.68-.02,1.39-.82,1.54-.9.17-.72-.64-.87-1.15-.47-1.56-1.1-3.06-1.74-4.57-1.27-3.01-4.38-3.19-6.69-4.53-1.19-.69-3.46,1.86-3.35,3.57.13,1.97.27,3.92-.53,5.8-.13.31-.2.69-.59.6-.5-.11-.64-.58-.36-.95,1.18-1.54.06-3.36.71-5.1.56-1.52-4.96-4.53-6.62-3.69-2.11,1.06-4.15,2.26-6.22,3.4l.05.06Z"/>
      <path class="cls-1" d="M232.43,774.71c1.49,0,2.99,0,4.48.02-10.91-7.86-17.25-18.16-20.81-27.55-.26.75-.48,1.07-.44,1.35.58,4.45,1.33,8.76,3.89,12.71,3.55,5.48,7.9,9.89,12.88,13.48Z"/>
      <path class="cls-1" d="M154.47,159.9c-.05.16-.06.34-.15.47-2.11,2.94-2.42,3.37.47,5.43,2.99,2.13,2.97,5,3.67,7.92.81,3.39.75,6.92,1.85,10.26.31.95-.57,1.93-.46,3.03-.46-3.95-1.65-7.7-2.47-11.53-.76-3.54-1.98-7.09-5.76-8.45-5.67-2.04-8.01-7.31-11.59-11.37-1.12-1.27-1.93-2.82-2.87-4.24,3.51-2.29,4.72.99,5.95,2.77,2.04,2.96,4.88,4.93,7.43,7.27.65.6,1.14.1,1.7-.29.71-.49,1.22-1.41,2.29-1.21l-.06-.06Z"/>
      <path class="cls-1" d="M76.95,248.12c-.89-.35-1.64-.15-2.32,1.34-2.44,5.34-5.44,10.42-7.3,16.03-.06.17-.33.28-.73.59-.11-2.81.8-5.17,2.11-7.19,1.95-3.02,2.54-6.64,4.48-9.58,2.47-3.73,1.43-6.99-.13-10.72-1.44-3.45-3.12-6.83-4.36-10.4-.71-2.03-2.06-4.03-3.25-5.97-1.54-2.52-3.22-4.98-4.57-7.6-2.63-5.08-5.92-9.8-8.14-15.1-.31-.74-1.55-1.45-.49-2.33,1-.83,1.35.96,2.3.79.4-.69-.79-1.01-.35-1.88,1.09.56,2.05,1.1,1.83,2.61-.32,2.29,2.5,2.36,2.94,4.14.24.98,2.44,1.6,1.02,2.69-.87.67-1.42-1.16-2.02-1.9-1.02-1.27-1.97-2.58-3.6-3.32,8.45,15.55,19.03,30.06,22.57,47.79Z"/>
      <path class="cls-1" d="M115.24,57.59c.39-.65.92-.58,1.39-.65.97-.14,2.04-.07,1.74-1.65-.27-1.43-1.12-2-2.39-1.73-.8.17-1.67.76-1.98-.36-.31-1.14,1.11-.93,1.6-1.5.1-.11.29-.22.43-.21,3.72.39,7.25-1.2,10.9-1.13,2.18.04,4.16-.58,6.23-.87.65-.09,1.54-.66,1.96.26.25.54.29,1.34.08,1.89-.27.7-1.07.58-1.73.47-.93-.15-1.8-.52-1.58,1.23.07.59-1.5.46-2.37.09-.38-.17.42-1.09-.55-.81.33.97-1.81.67-.98,2.14.42.73.52.58,1.12.51.64-.07,1.74-.5,1.89.47.16,1.02-1.06.9-1.65,1-2.24.4-3.71,2.99-6.36,2.19-.35-.1-1.06.23-1.08-.17-.17-3.09-2.61-.92-2.8-.76-1.58,1.27-2.62.27-3.86-.42ZM118.98,53.04c1.39,2.57,4.94,3.59,7.26,2.22.58-.34.73-.92.54-1.48-.3-.86-.89-.55-1.3-.1-1.38,1.51-3.26-1.56-4.54.53-.09-.12-.25-.25-.24-.37.17-2.24-1.31-.11-1.72-.8Z"/>
      <path class="cls-1" d="M92.07,650.85c-.32-1.84-.34-3.6.65-5.32,1.5-2.59.26-5.58,1.03-8.3,1.02-3.62.66-7.67,3.26-10.79.72-.86.97-1.78,1.12-2.88.46-3.47.53-7.05,2.25-10.25.17-.31.59-.95.1-1-1.98-.2-.6-1.31-.48-1.87.3-1.46.63-2.97,2.08-4.25-.76,5.52-1.42,10.7-2.97,15.75-.62,2-.61,4.2-.94,6.3-.25,1.64-.05,3.48-1.83,4.52-.29.17-.53.55-.3.84,1.45,1.8.69,3.9-.29,5.1-1.37,1.67.4,2.79-.02,4.22-.53,1.77-.46,3.71-.8,5.55-.06.35.94,2.85-1.25,1.04-.12-.1-1.08.83-1.65,1.27,0,0,.06.07.06.07Z"/>
      <path class="cls-1" d="M147.75,54.35c.66-1.1,1.49-1.04,2.25-1.2.75-.15,1.09-.72,1.04-1.44-.08-1.12-.96-.51-1.51-.65-.92-.22-2.57,1.93-2.68-.61-.08-1.74,1.38-1.29,2.7-1.54,3.73-.7,7.45-1.16,11.22-1.24,2.7-.05,3.31.74,3.19,3.79-1.19-1.67-2.36-1.99-3.82-.52-.4.4-1.42.39-2.1.28-2.26-.36-2.25-.41-4.33.53-.72.33-.81.12-.63-1.89-.88.71-1.44,1.5-1.09,2.31.26.61,1.24.59,1.99.6,2.03.05,4.05-.25,6.1.03,1,.13,1.61.54,2.26,1.17.41.4.68.85.36,1.26-.41.52-.84.02-1.23-.25-2.16-1.49-3.1-1.28-4.56,1.02-.7,1.11-1.62.95-2.51-.26-.6-.81-1.57-1.1-2.6-1.13-1.27-.04-2.53-.16-4.03-.26Z"/>
      <path class="cls-1" d="M11.3,384.79c.15,1.22-.35,2.56.61,3.82.81-.85-.2-1.76.81-2.82.4,1.67,1.14,3.15,1.02,4.55-.21,2.38.64,4.51,1.05,6.71.89,4.82,2.27,9.55,3.33,14.34.51,2.3.77,4.66,1.04,7,.06.55.48,1.44-.42,1.69-.82.23-1.38-.48-1.77-1.07-.4-.6-.73-1.35-.3-2.08.44-.74.37-1.4-.1-2.05-1.83-2.54-1.58-5.46-1.63-8.36-.03-2.03.12-4.01-1.14-5.99-.58-.9-.52-2.62-.89-3.95-1.11-4-2.17-8.02-3.2-12.04-.17-.67-.38-1.41.13-2.27.85.72.28,2.27,1.55,2.58l-.07-.07Z"/>
      <path class="cls-1" d="M41.81,158.29c-2.55,2.32-5,4.68-6.36,8.34,5.56-4.05,10.72-8.06,16.57-11.03-1.48,2.17-3.8,3.33-5.91,4.64-9.66,5.98-17.55,13.49-21.79,24.32-.15.38-.28.78-.48,1.13-.23.39-.34,1.04-1.01.8-.54-.2-.78-.81-.47-1.2.86-1.09.18-2.2.27-3.29.06-.74-1.31-2.64,1.28-1.86.57.17,1.23-.79,1.46-1.49.62-1.86,1.96-3.18,3.17-4.61,2.93-3.46,5.38-7.26,7.89-11.02,1.37-2.05,3.09-3.66,5.38-4.72Z"/>
      <path class="cls-1" d="M149.15,443.08c3.37-1.45,3.9-.92,4.42,2.61,1.14,7.76,1.86,15.56,2.58,23.36.15,1.62.19,3.26.23,4.89.02.71.05,1.51-1.12,1.84-.33-3.33-.47-6.64-.75-9.91-.52-6.24-1.72-12.38-2.45-18.58,0-.08-.02-.17-.06-.24-.74-1.23.65-2.39.23-3.46-.68-1.7-2.12,1.39-3.08-.51Z"/>
      <path class="cls-1" d="M132.44,119.13c-.44-1.2-.02-1.87,1.15-1.21,2.42,1.36,5.19,1.32,7.73,2.14,1.63.53,3.31.5,4.99-.2,3.23-1.36,6.66-2.26,9.41-4.63.38-.32.97-.6,1.93-.25-2.23.92-3.14,3.3-5.57,3.59-.43.05-1.07.42-1.19.78-.88,2.59-3.32,2.83-5.21,2.69-1.63-.12-3.33-.38-4.87-.1-2.53.46-4.1-1.03-5.85-2.57-.45,1.16.92,1.44.43,2.24-.11.05-.34.21-.37.18-.61-.62-2.12-.38-1.85-1.85.13-.7.13-1.19-.8-.87,0,0,.07.07.07.07Z"/>
      <path class="cls-1" d="M134.55,108.92c-.92-1.54-2.3-1.7-3.3-2.52-.93.76-.13,1.75-.58,2.79-.73-1.4.26-3.51-1.82-4.04-.3-.08-.71-.52-.83-.44-1.76,1.2-2.54-.6-3.13-1.37-1.71-2.23-4.56-3.31-5.71-6.11,1.82,1.25,3.8,2.31,5.42,3.78,2.29,2.08,5.23,2.75,7.86,4.04,2.37,1.17,5.04-.13,6-2.39.13-.32.28-.64.66-.61.55.05.5.51.54.92.16,1.89-1.38,3.44-3.86,3.86q-1.15.19-1.24,2.08Z"/>
      <path class="cls-1" d="M39.51,589.32c1.14-5.43,2.61-10.8,3.04-16.37.19-2.53.88-4.96,2.07-7.22l-.05.05c1.71-.66,1.33.61,1.22,1.41-.19,1.37-.37,2.77-.82,4.06-1.61,4.62-2.11,9.42-2.8,14.22-.22,1.49-.48,3.5-2.69,3.84l.04.02Z"/>
      <path class="cls-1" d="M215.26,743.03c-9.27,10.02-21.36,15.25-33.86,19.78,11.94-5.49,24.03-10.7,33.86-19.78Z"/>
      <path class="cls-1" d="M153.31,535.9c-1.93-4.24-6.47-28.7-5.05-31.44,1.57,10.5,2.96,21.03,5.05,31.44Z"/>
      <path class="cls-1" d="M120.6,500.74c.56.83.12,1.6-.02,2.91,1.29-1.57,1-3.23,2.03-5.03.67,2.09-.26,3.49-.57,4.9-.28,1.25-.84,2.4-.99,3.72-.43,3.69-2.49,7.04-2.36,10.9.01.44.08,1.77-1.06,1.55-1.04-.2-.56-1.19-.56-1.85,0-2.41,1.11-4.58,1.68-6.87.34-1.39.69-2.65.27-3.97-.77-2.44,1.31-4.1,1.59-6.27Z"/>
      <path class="cls-1" d="M214.4,572.39c-.61,3.03-2.18,5.69-3.35,8.49-1.55,3.71-3.13,7.42-4.93,11-1.48,2.95-3.31,5.71-5.4,8.37,1.02-2.1,1.95-4.24,3.07-6.28,3.34-6.09,5.69-12.61,8.42-18.96.48-1.12.7-2.42,2.26-2.56,0,0-.07-.06-.07-.06Z"/>
      <path class="cls-1" d="M92.01,650.78c.94,5.43-1.09,10.59-1.34,16.07-1.5-.61-1.63-1.74-1.45-2.98.29-1.98.16-4.02.32-5.92.19-2.31.35-4.75.88-7.06.32-1.38,1.08-.23,1.65-.04,0,0-.06-.07-.06-.07Z"/>
      <path class="cls-1" d="M32.01,770.53c.49.01.99.03,1.48.04.15-1.09.37-2.14.78-3.14-.21-1.18-.27-2-.5-2.78-.31-1.04.57-3.02-.67-2.97-1.28.05-1.02,2.22-1.47,3.44-.05.14,0,.32.03.48.32,1.64.39,3.28.35,4.92Z"/>
      <path class="cls-1" d="M154.53,159.96c-.21-1.18.71-1.77,1.33-2.48,3.73-4.28,6.63-9.04,8.56-14.39.19-.54.47-1.04.7-1.56.21-.46.46-.99,1.05-.63.51.31.3.81.07,1.29-1.72,3.62-3.44,7.25-5.24,10.92.68-.61,1.37-1.22,2.05-1.84.1.08.21.17.31.25-1.05,1.49-2.1,2.97-3.21,4.54-.95-.82.58-1.36-.29-2.15-1.7,2.08-3.19,4.37-5.41,5.96,0,0,.06.06.06.06Z"/>
      <path class="cls-1" d="M11.37,384.86c-.4-1.95-.37-4.01-1.43-5.8,0,0,.06.07.06.07.06-3.21-.91-6.28-1.39-9.41-.35-2.25-.18-4.58-1.01-6.76-.32-.86.54-1.06,1.09-1.61.56,3.6.96,7.14,1.53,10.62.37,2.31,1.14,4.62,1.1,7.1-.03,1.69.85,3.47,1,5.3.11,1.36-.69.25-1.01.44,0,0,.07.07.07.07Z"/>
      <path class="cls-1" d="M180.97,757.05c-1.63-5.35-2.99-10.19-4.61-14.93-.62-1.82-1.85-3.43-2.79-5.15-.32-.59-.64-1.36.13-1.69.73-.31.79.59,1.03,1.05,2.89,5.45,4.83,11.26,6.43,17.18.26.95.6,1.99-.2,3.52Z"/>
      <path class="cls-1" d="M217.91,712.4c.29,1.36.61,2.71.84,4.08.08.44.18,1.1-.47,1.21-.66.11-.73-.5-.79-.99-.86-6.14-1.77-12.28-2.53-18.43-.21-1.74-1.51-3.32-.65-5.59,1.86,6.4,2.83,12.59,3.33,18.88.02.31.21.61.33.91,0,0-.05-.08-.05-.08Z"/>
      <path class="cls-1" d="M20.41,441.67c-.9-4.47-.56-9.01-1.04-13.5,1.48,1.27.36,3.53,2.26,4.49-1.14,1.73,1.47,2.52,1.01,4.28-.41,1.57-.09,3.34-.09,5.18-.63-.91-.02-1.95-.75-2.7-1.05.38-.12,2.06-1.44,2.22l.04.03Z"/>
      <path class="cls-1" d="M187.3,250.33c1.94-4.11,5.03-7.42,7.64-11.05,2.38-3.31,5.04-6.41,7.56-9.62.75-.96,1.56-1.81,3.23-2.56-5.48,6.44-10.01,12.91-14.92,19.09-1.12,1.41-1.43,3.55-3.56,4.09l.05.06Z"/>
      <path class="cls-1" d="M17.56,202.57c-.19-2.83.84-5.45,1.68-8.04.5-1.53,1.02-3.08,1.48-4.63.15-.5.69-1.04.17-1.56-.16-.16-.62-.05-.94-.01-1.2.12-.35,1.02-.56,1.52-.09.22-.18.45-.28.71-.96-2.69-.77-3.33,2.63-8.4.98,1.33-.08,2.34-.39,3.37-.22.72-1.09,1.43.43,1.8,1.15.28.58,1.12.35,1.78-1.54,4.47-3.07,8.94-4.6,13.43,0,.01.04.05.04.05Z"/>
      <path class="cls-1" d="M70.38,393.66c-.87,8.28-1.48,16.6-3.42,24.74.85-8.27,1.7-16.54,2.55-24.82.29.02.58.05.87.07Z"/>
      <path class="cls-1" d="M92.47,578.84c-.08,2.16-2.03,3.14-3.16,4.49-3.08,3.67-6.38,7.21-10.14,10.23-1.21.98-2.55,1.8-4.12,2.4.48-.57.86-1.26,1.44-1.69,5.36-3.99,9.87-8.82,14.18-13.88.51-.6.92-1.4,1.86-1.5,0,0-.06-.06-.06-.06Z"/>
      <path class="cls-1" d="M97.58,137c.46-.01.55.28.7.59,1.71,3.54,3.82,6.84,6.03,10.08.55.81,1.08,1.67-.05,2.24-1.01.52-1.96-.49-2.03-1.14-.31-2.68-2.67-4.48-2.91-7.12-.11-1.22-1.15-1.62-1.76-2.39-.63-.8-.88-1.54.02-2.26Z"/>
      <path class="cls-1" d="M218.16,225.51c.81-.66,2.36-.58,2.21-2.21-.09-.97-1.91-1.11-2.46-.12-.26.48-.31,1.07-.78,1.41l-.71-.39c1.99-3.45,3.98-6.89,5.96-10.34.19.08.39.17.58.25-1.35,1.74-1.31,3.89-1.79,5.86-.35,1.46.04,3.17-.4,4.75-.45,1.61-1.08,2.5-2.62.79Z"/>
      <path class="cls-1" d="M96.91,572.4c2.82-5.49,5.67-10.97,8.45-16.49.84-1.66,1.48-3.41,2.26-5.11.16-.35.51-.62.77-.92.17.16.41.28.51.47.26.53-.25.7-.45,1.05-1.2,2.09-2.16,4.31-3.24,6.46-2.17,4.3-4.33,8.59-6.57,12.85-.36.69-.44,1.92-1.78,1.6l.06.07Z"/>
      <path class="cls-1" d="M44.62,565.72c-.15-2.36-1.54-4.71.21-7.09.61-.83.67-1.37,1.89-.63.99.61,1.98-1.31,3.44-.76-.5,1.67-2.23,1.57-3.28,2.31-1.18.82-1.5,1.23-.38,2.21.83.73.66,1.66.58,2.47-.11,1.16-.96.38-1.51.35-.86-.05-.64.81-1.01,1.18,0,0,.04-.04.04-.04Z"/>
      <path class="cls-1" d="M168.19,687.2c3.69,7.55,5.67,15.78,4.3,17.81-.39-6.35-3.42-11.82-4.3-17.81Z"/>
      <path class="cls-1" d="M215.36,224.19c.52.79,1.2,1.5.37,2.38-3.21,3.4-6.11,7.05-8.82,10.86-.29.41-.71,1.49-1.44.81-.73-.69.42-1.03.71-1.53,2.1-3.61,5.05-6.54,7.74-9.68.7-.82,1.09-1.76,1.44-2.85Z"/>
      <path class="cls-1" d="M164.7,422.18c1.1-5.94.26-12.02.91-17.98.07,6.03,1.65,12.14-.91,17.98Z"/>
      <path class="cls-1" d="M147.5,407.05c.24.5.47,1,.78,1.65.26-.67.47-1.2.67-1.73.24,1.43.77,2.92-.88,3.76-.35.18-.47.4-.44.76.32,3.34-.15,8.35-1.26,10.95-.52-5.64,1.74-10.45,1.13-15.39Z"/>
      <path class="cls-1" d="M74.13,596.47c.03.14.09.26.05.29-2.28,2.44-4.63,4.82-7.67,6.34-.31.16-.69.22-.87-.12-.28-.54.08-.99.46-1.26,2.58-1.86,4-5.43,8.02-5.25Z"/>
      <path class="cls-1" d="M90.94,572.41c.05,2.98-2.34,4.67-3.75,6.81-1.89,2.86-4.28,5.39-6.46,8.06-.2-.15-.4-.29-.6-.44,3.63-4.79,7.25-9.58,10.88-14.37,0,0-.07-.06-.07-.06Z"/>
      <path class="cls-1" d="M152.77,515.04c-2.33-3.91-3.07-7.98-.99-12.12.93,1,1.57,2.9.63,3.46-1.34.8-1.55,1.5-1.27,2.85.71-.57,1.32-1.05,1.96-1.56.54.34.38,1.09.21,1.26-1.22,1.21-.78,2.46-.3,3.78.29.79.32,1.6-.32,2.3,0,0,.07.05.07.05Z"/>
      <path class="cls-1" d="M146.37,459.25c1.39-.02,1.15.01,1.24,1.3.1,1.31.64,2.4-.44,3.7-.5.6.99,1.5,1.45,2.34.18.33.17.77.24,1.16-.85-.69-1.17.53-1.69.49-.52-.04-.44-1.04-.33-1.23.6-1.01.3-1.33-.7-1.85-1.19-.62-.94-1.67,0-2.62.68-.68.11-1.71-.13-2.5-.14-.45-1.05,1.01-1.16-.06-.09-.83.9-.71,1.53-.73Z"/>
      <path class="cls-1" d="M39.88,713.69c-1.74-7.01-1.42-14.19-1.58-21.33,1.06,7.07.49,14.27,1.58,21.33Z"/>
      <path class="cls-1" d="M146.65,197.11c-2.14-2.55-1.91-5.8-2.93-8.65-.12-.34-.11-.87.43-1,.45-.11.85.13.97.54.9,2.97,1.52,5.99,1.54,9.12Z"/>
      <path class="cls-1" d="M131.06,148.66c-4.9,1.64-5.95,7.13-10.27,9.17.71-.83,1.52-1.59,2.12-2.49.53-.79,1.51-1.34.96-2.73-.47-1.17,1.13-1.08,1.73-1.63,1.46-1.33,3.08-2.38,5.46-2.31Z"/>
      <path class="cls-1" d="M102.42,604.95c-.45-2.03-.44-4,.08-6.01.5-1.92,1.7-3.74.97-5.9-.18-.52-.07-1.31.68-1.32,1.2,0,.29.77.32,1.19.31,4.17-1.28,8.02-2.06,12.03Z"/>
      <path class="cls-1" d="M227.67,423.26c.61-3.17,1.24-6.34,1.83-9.51.18-1,.6-1.82,1.47-2.59.81,1.11.04,2.12-.11,3.04-.41,2.57-1.06,5.11-1.57,7.67-.19.98-.69,1.43-1.69,1.33,0,0,.07.06.07.06Z"/>
      <path class="cls-1" d="M125.25,487.09c.21,3.94-1.13,7.18-1.38,10.56-.03.34-.18.67-.58.66-.41-.01-.95-.2-.81-.67.58-1.97-.17-4.12,1.24-6.04.77-1.05.03-2.9,1.53-4.51Z"/>
      <path class="cls-1" d="M111.15,160.63c-.47.14-1.04.37-1.36-.09-1.9-2.75-3.77-5.52-5.57-8.33-.4-.62.22-1.06.75-1.29.56-.24,1.19.19,1.05.61-.85,2.57,1.95,3.16,2.56,4.92.54,1.57,2.58,2.3,2.49,4.27,0,0,.08-.09.08-.09Z"/>
      <path class="cls-1" d="M134.31,95.01c1.37-2.18,2.64-4.2,3.92-6.22.51-.8,1.24-1.62,2.16-1.08.87.51.62,1.61.27,2.45-.34.81-.44,1.76-1.27,2.35-1.03-.18.1-1.54-.83-1.66-.97-.12-.91,1-1.47,1.44-.96.76-1.03,2.41-2.78,2.71Z"/>
      <path class="cls-1" d="M116.68,97.88c2.88,1.51,4.2,4.64,6.93,6.3.54.33.69.98.21,1.48-.46.48-.84-.04-1.24-.28-2.88-1.77-4.02-4.91-5.9-7.5Z"/>
      <path class="cls-1" d="M106.61,548.89c-2.13,4.14-3.88,8.53-7.26,11.89,2.48-3.93,4.15-8.35,7.26-11.89Z"/>
      <path class="cls-1" d="M197.98,593.88c-2.38,4.19-4.76,8.38-7.14,12.57,1.35-4.76,4.19-8.71,6.33-13.04.27.16.54.31.81.47Z"/>
      <path class="cls-1" d="M20.37,441.64c.89,2.2.23,4.83,2.08,6.85.43.47-.28,1.98-.49,3.17-1.48-.58-2.23-.82-1.75-3,.47-2.13,0-4.63.22-6.98-.01-.01-.05-.04-.05-.04Z"/>
      <path class="cls-1" d="M209.49,568.97c1.01,1.7-.15,3-.92,4.27-1.67,2.75-2.27,6.08-4.47,8.54-.19-.09-.38-.18-.58-.27,2.01-4.16,4.02-8.32,6.03-12.48,0,0-.07-.07-.07-.07Z"/>
      <path class="cls-1" d="M209.52,297.21c.13-.2.4-.46.35-.59-1.37-3.75.42-7.62-.46-11.35-.23-.98.21-1.31,1.16-2.09,0,3.51.33,6.74-.17,9.85-.19,1.16-.24,1.6.41,2.55.88,1.3-.23,1.6-1.35,1.58l.06.05Z"/>
      <path class="cls-1" d="M45.2,547.29c.29.58.52,1.2.88,1.74.46.69,1.09,1.39,1.97,1.2.99-.21.56-1.2.65-1.87.14-1.07-.1-2.27,1.84-3.21-1.2,2.35-1.1,4.33-1.23,6.28-.03.51-.51,1.27-.7,1.16-1.41-.82-2.5-2.08-3.93-2.95-.87-.53.07-1.59.59-2.3,0,0-.06-.06-.06-.06Z"/>
      <path class="cls-1" d="M110.4,90.19c-1.67-5.52-2.28-11.21-2-17,.03,5.74,1.67,11.27,2,17Z"/>
      <path class="cls-1" d="M130.92,86.08c-3.85,1.68-2.06,5.71-3.5,8.44-.29-2.09-1.21-4.11-.41-6.2.69-1.79,1.75-3.06,3.95-2.19,0,0-.05-.06-.05-.06Z"/>
      <path class="cls-1" d="M75.34,223.48c.68,3.88.31,7.85,2.72,11.66-2.74-1.14-4.2-8.77-2.72-11.66Z"/>
      <path class="cls-1" d="M162.85,592.38c.11-.05.22-.09.32-.14,2.11.41,3.57,2.09,3.38,3.83-.09.84-.8,1.07-1.16.71-1.11-1.1-2.06-2.38-3.02-3.62-.07-.09.31-.51.48-.78Z"/>
      <path class="cls-1" d="M40.27,703.11c-.38-4.86-.4-9.76.11-14.66.56,4.87.24,9.75-.11,14.66Z"/>
      <path class="cls-1" d="M183.98,255.93c-2.28,4-4.93,7.74-7.85,11.3l.06.06c-.47-2.08,1.47-2.95,2.28-4.35,1.5-2.56,2.71-5.44,5.57-6.95,0,0-.07-.06-.07-.06Z"/>
      <path class="cls-1" d="M152.39,178.83c.2-4.41-1.99-7.56-5.76-10.14,4.87.88,7.89,6.59,5.73,10.13h.03Z"/>
      <path class="cls-1" d="M127.98,140.83q-1.18.85.1,2.81c-2.25-1.15-3.26-2.63-4.3-4.06-.28-.39-.48-.84-.67-1.29-.26-.58-1.92-.52-1.03-1.4.67-.66,2.19.4,2.35.89.6,1.78,2.11,2.3,3.55,3.04Z"/>
      <path class="cls-1" d="M41.05,439.98c1.7,3.53.5,7.02-.03,10.53-.98-3.51.43-6.99.03-10.53Z"/>
      <path class="cls-1" d="M68.46,367.86c1.46,3.41.66,10.45-1.27,13.13,1.36-4.03,1.04-8.24,1.27-13.13Z"/>
      <path class="cls-1" d="M150.83,194.55c-1.78-2.25-2.07-5.17-.89-6.58,1.07-1.27,3.47-1.4,5.61-.03-1.77-.12-3.24-1.27-4.55-.03-1.22,1.16-.95,2.61-.85,4.06,1.03.04.79-1.1,1.9-1.26-.4,1.25-.76,2.37-1.23,3.83Z"/>
      <path class="cls-1" d="M6.67,369.75c.81-2.1-1.02-3.61-1.3-5.53-.32-2.22-.5-4.26.39-6.33,0,0,0,0,0,0,.13,3.43,1.17,6.72,1.52,10.11.06.56,1.07,1.7-.61,1.72v.02Z"/>
      <path class="cls-1" d="M136.52,149.82c-.48-1.18-.51-2.2-1.17-2.95-1.25.12.33,2.3-1.07,1.7-1.24-.53-2.23-1.88-2.22-3.73,1.26.28,1.47,2.12,3.41,1.18,1.07-.51,2.16,1.73,1.06,3.8Z"/>
      <path class="cls-1" d="M125.39,483.88c-1.37-3.34,2.53-6.41-.61-9.44,2.55.92,2.79,5.59.61,9.44Z"/>
      <path class="cls-1" d="M101.54,574.11c-1.09,3.72-3.78,6.42-5.81,9.55,1.64-3.37,3.18-6.8,5.81-9.55Z"/>
      <path class="cls-1" d="M145.93,103.58c-2.38-1.68-1.06-3.85-1.54-5.57-.1-.36.06-.8.14-1.2.13-.67-.94-1.86.46-1.93.92-.04.53,1.2.59,1.85.18,2.15.24,4.32.36,6.85Z"/>
      <path class="cls-1" d="M134.85,38.33c-3.23,0-6.46,0-9.69,0-.52,0-1.34.24-1.34-.59,0-.69.77-.86,1.32-.76,3.2.56,6.45.42,9.68.57.01.26.02.52.03.79Z"/>
      <path class="cls-1" d="M45.27,547.35c.09-.22.11-.53.27-.66,2.09-1.77,3.23-3.88,2.7-6.73-.09-.49.29-1.06.45-1.59,0,0-.06-.07-.06-.07,1.37,2.5,1.57,4.91-.4,7.25-.82.98-1.71,1.68-3.02,1.74,0,0,.06.06.06.06Z"/>
      <path class="cls-1" d="M182.44,149.39c-.05.11-.09.39-.25.53-.31.27-.51.03-.77-.21-1.25-1.15-2.33-2.66-4.47-1.85-.43.16-1.19-.4-1.74-.73-.44-.26-.69-.78-.46-1.27.27-.58,1.11-.41,1.25-.22,1.38,1.82,3.94.88,5.46,2.38.39.39.97.56.98,1.37Z"/>
      <path class="cls-1" d="M140.69,170.07c-1.76-2.42-3.52-4.85-5.28-7.27,3.19,1.37,4.82,3.91,5.28,7.27Z"/>
      <path class="cls-1" d="M113.81,553.36c.91-3.49,1.49-7.07,2.65-10.51,0,3.71-.98,7.19-2.65,10.51Z"/>
      <path class="cls-1" d="M152.36,178.82c-3.16.38-4.89-.64-6.34-4.02-.47-1.09-2.19-2.71-.94-3.28,1.3-.6,1.23,1.77,1.74,2.79,1.21,2.4,2.64,4.31,5.56,4.52.01,0-.02,0-.02,0Z"/>
      <path class="cls-1" d="M6.66,369.73c1.54,2.29,1.48,5.05,2.2,7.58.21.73.43,1.41,1.13,1.82,0,0-.06-.07-.05-.06-.12.38-.14,1.01-.37,1.09-.42.16-.66-.38-.82-.72-1.39-3.07-2.14-6.28-2.08-9.67,0-.01,0-.03,0-.03Z"/>
      <path class="cls-1" d="M40.6,730.4c-.33-5-.66-10-.98-15.01.19-.01.39-.02.58-.04.29,5,.58,10.01.87,15.01-.16,0-.31.02-.47.03Z"/>
      <path class="cls-1" d="M160.26,419.9c2.84,1.82,2.33,3.66-1.67,5.9-.28-.74-.88-1.66.38-1.91,2-.39,2.16-1.32,1.21-2.88-.19-.31-.28-.77.08-1.11Z"/>
      <path class="cls-1" d="M141.63,96.47c.74,3.29.63,6.56.26,9.82-.61-3.28-1.29-6.55-.26-9.82Z"/>
      <path class="cls-1" d="M50.7,523.43c-.9.24-.19,1.7-1.25,1.28-.53-.21-1.33-1.23-.59-1.72,1.02-.68-.96-1.53.16-1.61.83-.06,2.11.42,2.46,1.06.41.74,1.25,1.59.88,2.62-.14.39-.62.56-.91.02-.27-.49-.46-1.02-.75-1.65Z"/>
      <path class="cls-1" d="M209.56,569.04c.46-3.06,2.23-5.5,3.84-8.01,0,0-.06-.06-.06-.06.24,2.44-2.12,7.37-3.84,8.01,0,0,.07.07.07.07Z"/>
      <path class="cls-1" d="M152.06,414.64c-.56,3.74-.34,7.56-1.14,11.27.31-3.77-.29-7.61,1.14-11.27Z"/>
      <path class="cls-1" d="M144.84,185.93c-2.73-2.58-2.74-5.84-2.57-9.14.55,3.14,1.76,6.09,2.57,9.14Z"/>
      <path class="cls-1" d="M159.66,622.32c.35,3.36.54,6.75,2.03,9.9.4.85-.81,1.43-1.16,2.27.21-4.12-2.13-8.01-.87-12.19,0,0-.01.02-.01.02Z"/>
      <path class="cls-1" d="M126.85,97.1c2.3-1.79,4.6-3.59,6.93-5.35.16-.12.68.01.85.2.44.46-.03.68-.37.86-2.51,1.32-4.39,3.59-7.41,4.3Z"/>
      <path class="cls-1" d="M154.94,435.41c-.62-1.02-1.84-1.23-3.18-2.33,4.07.5,7.49-1.05,11.06-.41l-.06-.07c-1.62.87-3.46.75-5.18,1.15-1.01.23-2.64-.24-2.66,1.66,0,0,.02,0,.02,0Z"/>
      <path class="cls-1" d="M77.95,243.26c-.73-2.42-.8-4.99-1.83-7.54,2.37,1.08,2.78,2.75,1.83,7.54Z"/>
      <path class="cls-1" d="M156.58,483.84c.33.06.67.13.71.53.29,3.12.74,6.24.44,9.69-1.02-3.5-.97-6.84-1.63-10.08-.01-.05.09-.18.14-.18.15,0,.3.03.46.05,0,0-.11-.01-.11-.01Z"/>
      <path class="cls-1" d="M116.23,159.47c-.01-.4-.14-1.11-.02-1.16,2.51-.97,3.79-3.45,5.97-4.97-.18,1.73-4.2,5.7-6.02,6.06,0,0,.07.06.07.06Z"/>
      <path class="cls-1" d="M150.96,102.35c-2.41-1.12-2.95-3.08-3.12-5.23-.04-.5-.01-1.04.66-1.08.51-.03.83.49.73.8-.7,2.08,1.11,3.24,1.68,4.84.05.14.03.31.06.67Z"/>
      <path class="cls-1" d="M78.06,349.48c3.04,1.02,6.07,2.05,9.11,3.07-.1.27-.19.54-.29.81-2.89-1.43-6.41-1.12-8.81-3.88Z"/>
      <path class="cls-1" d="M111.15,160.63s-.08.09-.08.09c2.06,1.01,3.47-.7,5.16-1.25,0,0-.07-.06-.07-.06-.22,1.68-2.01,2.15-2.74,3.46-.17.31-1.05.42-1.54-.03-.63-.59-1.45-1.15-.74-2.21Z"/>
      <path class="cls-1" d="M163.51,402.82c.02-2.49-.22-4.96,1.01-7.21,1.25.54-.42,1.81.78,2.29.87-.3.15-1.36.91-1.88.34,2.88-3.76,3.76-2.71,6.81Z"/>
      <path class="cls-1" d="M132.78,20c-.98.49-.51-2.67-1.82-.28-.04.08-.56-.11-.85-.17.81-1.32-.27-2.48-.25-3.71,0-.27.86,0,1.27.25,1.53.94,1.25,2.56,1.65,3.91Z"/>
      <path class="cls-1" d="M54.18,471.53c1.83-2.58,3.92-4.92,6.39-6.92,0,0-.06-.06-.06-.06-1.37,3.01-2.9,5.86-6.38,6.92l.06.06Z"/>
      <path class="cls-1" d="M66.82,397.45c-1.09-3.09-.34-5.68-.23-8.24.01-.33.36-.56.72-.41.44.19.64.61.45,1.01-.95,2.1-.79,4.28-.55,6.47.02.19-.13.4-.4,1.16Z"/>
      <path class="cls-1" d="M150.73,92.72c-.5-2.18-1.87-4.03-2.31-6.3,1.08,1.67,2.53,2.99,3.56,4.61.94,1.48-.36,1.47-1.28,1.62l.04.06Z"/>
      <path class="cls-1" d="M162.82,432.67c.15-.27.24-.68.47-.8,2.31-1.17,4.79-1.55,7.29-1.75.04.2.08.4.12.6-2.65.63-5.3,1.26-7.94,1.89,0,0,.06.07.06.07Z"/>
      <path class="cls-1" d="M175.09,750.92c.07,3.08,2.16,5.47,2.85,8.68-2-1.85-3.22-5.52-2.85-8.68Z"/>
      <path class="cls-1" d="M109.86,60.66c-.08-.63-.16-1.26-.25-2-.72.68-.18,1.52-.7,2.29v-7.93c.13,0,.26-.02.4-.03.29,2.56.58,5.13.87,7.69-.11,0-.21-.02-.32-.03Z"/>
      <path class="cls-1" d="M172.43,740.79c-.32,2.88,1.35,5.41,1.58,8.89-2.35-4.46-2.55-5.58-1.58-8.89Z"/>
      <path class="cls-1" d="M11.01,251.77c2.22,2.34,2.24,2.87,0,6.11-.17-2.28-.33-4.21.04-6.16,0,0-.04.05-.04.05Z"/>
      <path class="cls-1" d="M118.97,532.35c-.96,3.35-.75,6.15-1.27,9.08-.87-2.46-.37-6.8,1.27-9.08Z"/>
      <path class="cls-1" d="M148.21,203.52c-2.4-.85-1.87-2.92-2.21-4.96,2.34,1.14,1.4,3.43,2.21,4.96Z"/>
      <path class="cls-1" d="M132.24,143.37c-.64.68-.8,1.56-1.59,1.95-.31-.98-1.69-.84-1.91-1.72-.07-.29-.11-1.57,1.21-1.23.83.22,1.74.1,2.29,1Z"/>
      <path class="cls-1" d="M248.45,430.81c.57-1.83,1.02-3.28,1.48-4.72.17-.52-.19-1.61.96-1.16.75.3,1.03,1.04.44,1.81-.93,1.21-1.28,2.82-2.87,4.07Z"/>
      <path class="cls-1" d="M113.91,99.67c-2.76-.13-3.58-1.92-4.2-4.63,1.66,1.82,2.93,3.23,4.2,4.63Z"/>
      <path class="cls-1" d="M19.06,427.23c-.3-1.95-.54-3.48-.78-5.01-.06-.41-.14-.88.4-.97.27-.04.83.2.83.29-.08,1.76,1.33,3.6-.44,5.69Z"/>
      <path class="cls-1" d="M134.06,15.28c1.1,1.64,2.07,3.1,3.11,4.66-2.66-.5-3.57-1.86-3.11-4.66Z"/>
      <path class="cls-1" d="M37.26,469.85c2.93-.71,5.14.97,7.44,2.38-2.48-.79-4.96-1.59-7.44-2.38Z"/>
      <path class="cls-1" d="M167.39,147.15c2.46-2.93,5.54-3.28,6.66-.91-2.28-1.11-4.25-.5-6.66.91Z"/>
      <path class="cls-1" d="M80.83,602.16c1.94-2.24,3.65-4.23,5.52-6.4-.41,1.98-3.22,5.24-5.52,6.4Z"/>
      <path class="cls-1" d="M163.15,433.92c.85.64,1.47,1.47,2.49,1.8.59.19,1.74.06,1.69,1.02-.07,1.12-.9,1.79-2.29,2.1,2.2-3.12-2.6-2.46-1.89-4.92Z"/>
      <path class="cls-1" d="M138.31,351.39c-2.39.96-4.8,1.84-7.47,1.81,2.44-.82,4.88-1.63,7.32-2.45.05.21.1.42.15.63Z"/>
      <path class="cls-1" d="M40.17,679.8c.3-2.37-.96-4.8.6-7.13v7.21c-.2-.03-.4-.05-.6-.08Z"/>
      <path class="cls-1" d="M163.79,438.96c-1.09.97-2.23,1.75-3.75,1.1-.41-.18-1.09-.19-.96-.87.13-.68.76-.36,1.19-.47,1.16-.27,2.29.83,3.52.24Z"/>
      <path class="cls-1" d="M54.12,471.47c-1.6,3.06-3.7,3.38-7.4.94,2.7,1.18,5.2.98,7.46-.88,0,0-.06-.06-.06-.06Z"/>
      <path class="cls-1" d="M46.35,372.97c-2.2.35-1.71-1.6-1.89-2.56-.29-1.58,1.17-.18,1.65-.68.16-.16.41-.23.64-.34,0,0-.03,0-.02,0,.18,1.26.43,2.53-.46,3.65,0,0,.07-.07.07-.07Z"/>
      <path class="cls-1" d="M203.2,583.32c-.72,1.74-1.43,3.48-2.18,5.21-.14.33-.48.44-.81.25-.35-.21-.3-.59-.15-.87.82-1.63,1.68-3.25,2.52-4.88l.61.28Z"/>
      <path class="cls-1" d="M110.9,357.18c-2.71.37-5.42.3-8.12-.31,2.7.29,5.41-.91,8.12.31Z"/>
      <path class="cls-1" d="M96.85,572.33c-.51,2.81-2.29,4.77-4.38,6.51,0,0,.06.06.07.06.83-2.59,2.4-4.69,4.38-6.5,0,0-.06-.07-.06-.07Z"/>
      <path class="cls-1" d="M89.15,593.24c1.26-2.51,3.41-4.35,4.79-6.74-.89,2.74-2.99,4.67-4.79,6.74Z"/>
      <path class="cls-1" d="M48.68,538.37c.45-1.84.86-3.7,1.11-5.61.72,1.7.38,3.44.26,5.15-.07.96-.77.88-1.43.4,0,0,.05.07.05.07Z"/>
      <path class="cls-1" d="M156.58,483.84s.11.01.11.01c-.15-2.35-1.27-4.66-.26-7.06.07,2.35,1.76,4.65.15,7.04Z"/>
      <path class="cls-1" d="M77.01,590.58c-.22,2.46-2.41,3.16-3.76,4.6.63-2.05,2.43-3.15,3.76-4.6Z"/>
      <path class="cls-1" d="M180.7,334.93c1.58-1.85,3.95-2.17,6.08-3.01-1.71,1.59-3.91,2.22-6.08,3.01Z"/>
      <path class="cls-1" d="M107.83,560.85c-.62,1.54-1.23,3.09-1.85,4.63.05-1.77-.14-3.63,1.18-4.89.22.09.45.18.67.27Z"/>
      <path class="cls-1" d="M29.24,690c.66,2.4,1.02,4.34.28,6.87-.71-2.49-.22-4.47-.28-6.87Z"/>
      <path class="cls-1" d="M117.45,132.26c1.34.99,3.33,1.64,2.18,4.3-.8-1.61-2.17-2.59-2.18-4.3Z"/>
      <path class="cls-1" d="M47.59,722.69c-.99-2.89-1.18-5.8.11-8.71-.74,2.9-.26,5.79-.11,8.71Z"/>
      <path class="cls-1" d="M50.9,556.64c.07-1.31.95-2.72-.7-3.46-.1-.05-.17-.46-.08-.6.22-.34.56-.2.87-.08,2.03.86,2.08,2.34-.08,4.13Z"/>
      <path class="cls-1" d="M149.57,479.39c-.1,1.52,1.48,2.84.65,4.42-.12.23-.11,1.07.86.86.64-.14.25.56.17.77-.2.54-.58.47-.9.07-.75-.95-.78-2.09-.78-3.23,0-.96,0-1.93,0-2.89Z"/>
      <path class="cls-1" d="M39.48,589.3c1.58,2.63.25,5.17-.31,7.74-.56-2.59.68-5.11.36-7.71-.01-.01-.05-.03-.05-.03Z"/>
      <path class="cls-1" d="M95.26,355.12c-2.5.28-4.84-.07-6.87-1.69,2.29.56,4.58,1.13,6.87,1.69Z"/>
      <path class="cls-1" d="M163.99,555.21c.83,2.33,1.25,4.7,1.01,7.15-.72-2.33-.44-4.82-1.01-7.15Z"/>
      <path class="cls-1" d="M113.9,128.62c.1,1.75,2.9,2.03,2.32,4.19q-3.11-1.63-2.27-4.22s-.04.03-.04.03Z"/>
      <path class="cls-1" d="M157.4,527.15c2.23,1.89.85,4.59,1.63,6.81-1.3-2.1.14-4.81-1.63-6.81Z"/>
      <path class="cls-1" d="M187.25,250.27c-.22,2.39-1.83,3.97-3.27,5.65,0,0,.07.06.07.07-.19-2.62,1.79-3.99,3.26-5.65,0,0-.06-.07-.06-.07Z"/>
      <path class="cls-1" d="M164.93,650.05c1.3,2.89,1.59,5.34,1.94,7.77-.5-2.39-1.89-4.53-1.94-7.77Z"/>
      <path class="cls-1" d="M99.73,218.55c-.54,2.06-1.07,4.13-1.61,6.19-.19-.05-.38-.1-.56-.15.56-2.06,1.12-4.11,1.68-6.17.16.04.32.09.49.13Z"/>
      <path class="cls-1" d="M155.84,503.95c1.27,2.43,1,4.36.7,6.3.23-1.92-1.14-3.63-.7-6.3Z"/>
      <path class="cls-1" d="M27.54,455.17c-2.18-.57-2.39-2.74-3.61-4.11,1.98.69,2.1,3,3.61,4.11Z"/>
      <path class="cls-1" d="M119.3,356.34c-1.89.73-3.84,1.08-6.54.8,2.57-.83,4.52-1.08,6.54-.8Z"/>
      <path class="cls-1" d="M213.75,635.29c-.16.33,1.03,1.15-.43,1.24-.83.05-.94-.51-.61-.76,1.02-.78-1.47-2.31.47-2.49,1.19-.11.59,1.19.57,2.01Z"/>
      <path class="cls-1" d="M151.85,195.38c1.77.25,3.5.91,5.66-.44-1.96,2.22-3.17,2.26-5.66.44Z"/>
      <path class="cls-1" d="M162.7,410.54c-1.97-1.98.47-3.49.09-5.62,1.07,1.35.95,2.36.2,3.06-.9.83.42,1.7-.29,2.56Z"/>
      <path class="cls-1" d="M167.23,604.77c-2.12-1.79-.19-3.66-1.15-5.08,1.25,1.32.83,2.98,1.15,5.08Z"/>
      <path class="cls-1" d="M138.61,156.14c.79.83,1.56,1.62,2.29,2.45.06.07-.12.49-.28.59-.52.31-1.13.05-1.2-.39-.15-1.02-1.85-1-1.41-2.27.06-.16.37-.24.59-.37Z"/>
      <path class="cls-1" d="M157.5,83.98c2.18,1.16,3.29,2.42,1.57,4.61-.02-1.61-.68-3.02-1.57-4.61Z"/>
      <path class="cls-1" d="M246.29,276.02c1.08,2.07,1.21,3,.68,6.46,0-1.1-.04-2.21.01-3.31.05-1.11-1.4-1.87-.69-3.15Z"/>
      <path class="cls-1" d="M137.13,17.94c-1.1-1.77-.52-3.96,1.51-5.4-.98,1.9-1.76,3.51-1.51,5.4Z"/>
      <path class="cls-1" d="M244.69,442.31c-1.52-.32-1.9-1.38-2.52-2.14-.3-.36-.49-.97.09-1.2.45-.18,1.1.19,1.17.6.14.93.81,1.64,1.26,2.74Z"/>
      <path class="cls-1" d="M67.75,387.18c-.82-1.07-2.04-1.58-1.66-3q1.96,1.92,1.66,3Z"/>
      <path class="cls-1" d="M246.97,460.26c.9-2.16,3.1-3.06,4.63-4.61-1.22,1.85-2.63,3.52-4.69,4.54,0,0,.07.06.07.06Z"/>
      <path class="cls-1" d="M176.14,267.22c-.86,1.82-1.78,3.6-3.42,4.91,1.42-1.44.86-4.22,3.48-4.85,0,0-.06-.06-.06-.06Z"/>
      <path class="cls-1" d="M91.01,572.47c.29-1.66,1.99-2.24,2.85-4.13.18,2.73-1.08,3.63-2.91,4.07,0,0,.07.06.07.06Z"/>
      <path class="cls-1" d="M52.69,489.71c-.67-1.96-.29-3.77.73-5.5-.17,1.84-.68,3.65-.73,5.5Z"/>
      <path class="cls-1" d="M142.93,467.75c1.39,1.34,1.95,2.9,1.44,5.28-.58-2.13-1.01-3.71-1.44-5.28Z"/>
      <path class="cls-1" d="M209.46,297.16c1.17,1.86-1.21,3.29-.77,4.24.36-.84-.94-2.72.84-4.19,0,0-.06-.05-.06-.05Z"/>
      <path class="cls-1" d="M107.19,57.02c-.09-1.92-.17-3.8-.28-6.3,1.13,2.39.72,4.3.65,6.18,0,.04-.21.06-.37.11Z"/>
      <path class="cls-1" d="M150.69,92.65c-1.04,1.57-1.36-.46-2.17-.49-1.18-.04-2.15-.87-2.49-2.2,1.35,1.32,3.29,1.54,4.7,2.74,0,0-.03-.05-.03-.05Z"/>
      <path class="cls-1" d="M58.49,455.11c.37-1.7-.23-2.99.89-4.51.3,1.69.9,2.94-.89,4.51Z"/>
      <path class="cls-1" d="M63.36,210.59c-.45-1.45-2.37-2.09-2.06-3.95.45,1.47,2.36,2.05,2.06,3.95Z"/>
      <path class="cls-1" d="M97.52,594.91c-.32-1.57-.1-3.05.68-4.73.93,1.98-1.1,3.14-.68,4.73Z"/>
      <path class="cls-1" d="M213.63,618.79c.25,1.25.35,2.45-.75,3.32-.1.08-.58-.09-.6-.19-.23-1.34.69-2.17,1.35-3.13Z"/>
      <path class="cls-1" d="M103.22,63.68c.91,1.81,0,3.2-1.07,4.68-.48-1.48-.19-2.98-.85-4.31-.24-.47-.64-1.12.06-1.49.77-.41,1.39-.08,1.7.77.06.12.11.23.17.35Z"/>
    </g>
  </g>
</svg>