<?xml version="1.0" encoding="UTF-8"?>
<svg id="Layer_2" data-name="Layer 2" xmlns="http://www.w3.org/2000/svg" viewBox="0 0 240.69 740.87">
  <defs>
    <style>
      .cls-1, .cls-2 {
        stroke-width: 0px;
      }

      .cls-2 {
        fill: #fff;
      }
    </style>
  </defs>
  <g id="Layer_3" data-name="Layer 3">
    <g>
      <path class="cls-2" d="M11.53,338.75c-.09.37-.17.65-.22.87.07-.29.14-.58.22-.87,0,0,0,0,0,0Z"/>
      <g>
        <path class="cls-2" d="M184.74,119.08s-.02-.02-.03-.03c0,0,0,0,.01.01,0,0,.01,0,.02.01Z"/>
        <path class="cls-2" d="M236.04,283.52c-1.43-10.62-6.59-20.86-10.39-30.83-3.77-9.9-7.59-19.78-11.28-29.7-1.63-4.38-3.2-8.78-4.48-13.28-.68-2.39-1.22-4.79-1.76-7.21-.15-.69-.26-1.16-.33-1.48-.19-1.6-.28-3.24-.32-4.84-.22-8.93,1.69-17.45-.38-26.34-2.05-8.8-7.54-15.51-14.86-19.79-.42-2.86-1.11-5.67-2.04-8.45,3.2-6.53,2.34-13.18-1.52-18.44-1.03.26-2.11.45-3.12.32-1.03,0-1.98-.26-2.87-.78l-1.15-.89c-1.12-1.03-1.6-2.55-1.67-4.02-.06-1.42.68-3.04,1.67-4.02.17-.17.37-.33.59-.49-.94-3.02-1.88-6.06-2.98-9.02-2.53-6.79-6.04-12.28-10.28-17.37-1.67-10-2.92-20.1-4.52-29.98-.2-1.22-.38-2.45-.56-3.68,3.07-3.12,4.99-7.24,4.46-11.67-1.1-9.24-4.43-15.25-11.95-20.71-.9-.66-1.89-1.17-2.94-1.55-1.16-1.78-2.47-3.47-3.96-5.01-5.14-5.31-12.27-8.17-19.15-10.38-7.61-2.45-16.16-3.98-23.86-1.05-5.77,2.2-9.94,5.51-12.82,9.82-5.59,2.43-11.17,4.85-16.76,7.28-.37.16-.71.36-1.05.55-8.01-.32-16.09,4.36-18.08,12.68-2.42,10.08-4.36,20.26-5.78,30.54-1.71,12.38-5.82,27.72,2.47,38.46,1.89,2.44,4.28,4.31,6.95,5.7-.29.27-.56.6-.78,1.04-1.87,3.73-3.73,7.47-5.86,11.06-2,3.37-4.29,8.15-7.89,9.91-.37.18-.66.44-.91.74-.34.05-.69.1-1.05.13-4.45.4-4.49,7.41,0,7,2.15-.2,4.2-.55,6.11-1.19,1.47.13,2.83.38,4.22,1.36.63.45,1.2.82,1.75,1.12-3.22,3.02-4.94,7.29-8.98,9.13-3.03,1.38-5.54,2.8-7.64,4.89-1.37,1-2.24,2.42-3,3.95-.82,1.68-.28,3.27.8,4.26-.9,2.96-1.2,6.24-.72,9.78.24,1.81.7,3.51,1.34,5.11-2.3,3.15-3.7,6.93-3.33,10.28.3,2.69.42,5.36.3,8.06-.02-1-.61,2.84-.68,3.12l-.36,1.09c-.04.08-.08.16-.13.26-3.2,4.98-6.38,10.2-9.24,15.39-6.39,11.58-11,24.28-13.31,37.31-.84,4.72-.11,9.8,2.18,13.89-5.24,11.85-6.89,23.91-5.6,36.8.55,5.52,1.4,11.01,2.14,16.51.04.32.24,1.94.3,2.45.16,1.38.31,2.75.43,4.13.23,2.73.39,5.48.37,8.22-.01,1.64-.12,3.25-.21,4.89,0,.06-.01.12-.02.19,0,0,0,0,0-.01,0,0,0,0,0,.01-.11.82-.55,2.23-.22.87-.68,2.72-1.3,5.41-2.14,8.11-.54,1.75-1.08,3.48-1.6,5.21.56,1.62.87,3.31.87,5.03.03,29.44.9,58.75-4.76,87.82-.13.67-.32,1.31-.54,1.92,1.29,6.01,3.51,11.66,6.26,17.09,3.55,3.11,6.83,6.5,9.29,10.37,5.76,2.52,9.63,8.36,9.93,14.97.21,4.78-2.1,9.15-5.61,12.18.12,16.3,8.89,30.97,15.51,45.49.9,1.98,1.78,3.97,2.64,5.97.08.19.15.35.2.47.31.74.61,1.48.92,2.22,1.65,4.03,3.24,8.08,4.8,12.14,3.13,8.12,6.2,16.26,9.29,24.39,6.05,15.91,12.75,31.76,17.05,48.25.55,2.1,1.05,4.2,1.49,6.32.19.89.37,1.78.52,2.68,0,.04,0,.07,0,.11.16,1.88.33,4,.08,5.93-.07-.35-1.1,2.95-1.31,3.54-3.09,8.6-4.09,16.54-3.17,25.67.21,2.09.41,4.17.41,6.28,0,1.3-.81,6.41.07,2.17-.33,1.57-.6,3.14-1.03,4.7-.18.66-.41,1.31-.59,1.97-.05.19-.1.35-.14.5-.7,1.3-1.41,2.6-2.12,3.9-.14.26-.43.65-.63.93-.23.26-.46.52-.7.77-.39.41-1.02.84-1.36,1.31-1.55.76-5.52,2.68-1.89,1.33-8.55,3.19-15.31,11.99-12.22,21.53.48,1.47,1.17,2.9,2.03,4.25.21.05.42.08.63.14,9.42,2.6,17.67,3.64,26.87,4.05,9.84-5.7,17.38-14.39,21.71-24.97,1.46-1.21,2.78-2.67,3.89-4.38,5.37-8.2,10.09-16.83,14.25-25.73.04-.53.09-1.05.16-1.57,2.15-15.73,8.66-30.34,11.85-45.82,3.3-15.98,5.29-32.19,9.01-48.09.43-1.83,1.19-3.46,2.19-4.9.14-5.9.3-11.79.81-17.67.56-6.39.86-8.34,1.84-14.29-.47-1.52-.67-3.11-.55-4.72.45-5.77,1.29-11.51,2.21-17.23.83-5.16,1.44-8.3,1.82-12.23.76-7.93-.95-15.79,1.03-23.62-.09-.62-.16-1.24-.19-1.87-.25-5.47,2.82-10.42,7.22-13.39,2,0,4.05-.5,6.01-1.51.85-.44,1.68-.93,2.49-1.45,1.18.4,2.47.61,3.87.55,5.91-.26,12.73-5.32,12-12-.43-3.91-.86-7.82-1.29-11.73-.3-2.73-1.18-5.24-2.63-7.24.06-7.08.26-14.15.6-21.23.44-9.26.97-18.51.97-27.78,0-4.9-.13-9.81-.51-14.7-.05-.6-.52-5.04-.48-5.05-.33-2.26-.77-4.5-1.24-6.73-1.35-6.43.57-12.48,5.01-16.45-.76-.58-1.6-1.06-2.49-1.49,10.3-6.04,20.59-12.09,30.89-18.13,3-1.76,4.71-4.19,5.4-6.79,4.89-2.75,9.63-5.73,13.66-9.7,4.33-4.26,4.33-9.46,2.08-13.56,3.33-6.06,5.09-12.74,4.07-20.32ZM183.64,309.01c-1.15,2.44-4.09,4.72-4.64,6.64-2.02,7.04-13,4.03-10.98-3.03.1-.35.22-.69.35-1.01,0-.69.13-1.39.41-2.08-.73-3.75-.27-7.87-.2-11.61.05-2.45.08-4.89-.03-7.34-.04-.78-.35-1.97-.27-2.76-.04-.03-.1-.07-.13-.1-3.06-2.09-2.66-7.37.23-9.5.07-2.29.13-4.57.14-6.86.04-7.33,11.42-7.33,11.38,0-.02,2.92-.1,5.83-.21,8.75,1.33,1.93,1.26,4.72-.08,6.71.23,1.69.31,3.36.36,4.77.05,1.63.04,3.27.01,4.91,1.25.5,2.35,1.38,2.96,2.44.87,1.49.94,3.01.48,4.4.91,1.64,1.13,3.74.21,5.69Z"/>
      </g>
    </g>
    <g>
      <path class="cls-1" d="M4.48,302.75c-2.17-1.98-2.5-4.08-.73-6.6,1.52-2.15,2.22-4.71,2.06-7.03-.32-4.67.1-9.32,1.1-13.7.82-3.61,1.5-7.24,2.18-10.87.42-2.25,2.47-1.83,3.92-2.29.65-.2,1.56,0,1.77-.77.19-.67-.72-.91-1.11-1.37-.35-.41-.82-.72-1.27-1.03-2.61-1.81-2.69-2.23-1.13-4.83,2.71-4.5,4.44-9.45,6.58-14.22,2.72-6.05,4.48-12.45,7.12-18.55,1.48-3.43,2.61-7.15,4.06-10.65,2.26-5.44,3.37-11.2,5.31-16.72,2.53-7.17,4.24-14.54,4.62-22.18.11-2.15-.36-4.11-1.59-6-1.64-2.53-1.78-5.62-2.43-8.49-.44-1.92,1.36-3.09,2.65-4.05,1.2-.88,1.24-2.01,1.27-3.08.04-1.24-1.43-.51-2.26-1.28,2.33-.22,4-2.76,6.59-.94.48.34,1.7.18,2.25-.21,3.48-2.48,7.44-4.4,9.84-8.18.27-.42,1.06-.7.65-1.34-.35-.56-.99-.25-1.52-.17-4.12.6-8.22.78-12.32-.32-1-.27-1.78-.89-2.8-1.13-2.46-.59-1.95-.65-.88-2.79,1.19-2.39,3.23-2.55,5.06-3.51,3.54-1.87,6.22-4.72,8.41-8.01,2.51-3.77,4.77-7.68,5.34-12.31,0-.08-.01-.18.03-.23,1.88-2.52,2.68-4.49-1.88-3.77-1.89-3.03-5.23-2.88-8.12-3.74-.86-.26-.74-.79-.47-1.47.68-1.72,1.47-3.42,1.71-5.77-1.73,1.86-1.09,4.71-3.69,5.63.19-2.13,1.23-4.09,2.23-5.53,1.8-2.57,1.3-5.42,1.67-8.01.39-2.78.7-5.61,1.5-8.25,1.15-3.82,1.2-7.71,1.35-11.56.17-4.4,1.12-8.69,1.32-13.07.21-4.57.11-9.16.77-13.72,1.09-7.48,3.95-13.78,10.37-18.33,2.66-1.89,5.24-2.83,8.4-2.44,1.34.17,2.29-.78,3.35-1.36.52-.28,1.01-.64,1.37.07.31.6-.03.9-.63,1.23-1.88,1.05-3.96,1.85-5.98,1.36-2.98-.71-4.72,1.06-6.64,2.58-1.28,1.02-2.56,2.11-3.57,3.39-2.15,2.73-4.43,5.43-3.45,9.43.35,1.43.06,3.03.06,4.55,2.04-.94,2.61-2.69,2.59-4.8,2.36,1.62,4.96,2.03,7.65,2.22,2.62.19,5.37,2.01,7.78-.78.15.35.32.76.49,1.17,1.01-.62,1.51-3.12,3.29-.82.27.35,3.74-1.87,3.77-2.44.04-.85.2-1.52,1.18-1.51.8.84-1.09,1.47-.15,2.06.95.6,1.63-.4,2.44-.83,2.89-1.54,5.99-2.54,9.1-3.59,2.55-.86,5.27-1.89,6.99-4.26.24-.33.4-.35.68-.36,3.06-.11,5.4-1.86,7.8-3.47.64-.43.95-.66,1.93-.18,1.54.74,3.21-.39,4.7-1.17.83-.44,1.77-2.01,2.46-1.02.76,1.08-.96,1.62-1.73,2.27-1.07.91-2.19,1.75-3.26,2.67-3.16,2.72-1.96,8.58,1.43,10.69,5.33,3.32,11.32,5.19,16.69,8.37,1.31.78,3.16.6,4.73.97,1.53.36,3.9.21,3.93,2.19.03,1.78-2.29,1.45-3.64,1.81-1.41.38-2.88.5-4.65.78,3.08.82,5.61,2.75,8.8,1.75.33-.1.85.07.95.51.12.54-.26.99-.71,1.07-1.7.31-1.96,1.46-1.84,3.18-.2-3.32-2.39-1.31-3.61-1.69-1.5-.47-3.78-.06-3.97.9-.32,1.59,1.27,3.3,2.81,3.81,1.95.64,3.24,1.7,4.26,3.35.26.41.58,1.04,1.25.87.79-.21.92-1,.73-1.54-1.46-4.07,1.48-5.68,4.13-7.29,2.86-1.74,5.85-.89,8.47.54,6.03,3.29,7.05,5.69,6.03,12.67-.06.39-.14.78-.13,1.17.08,3.48-1.42,5.77-4.89,6.66-1.24.32-1.98,1.12-2.11,2.46-.48,4.89-.56,4.95-5.33,5.19-1.36.07-3.14-.79-2.52,2.23.21,1.03-.44,3.08-.81,4.64-.17.75-.69,1.6.7,1.68.29.02.51.32.31.45-2.31,1.5-.72,4.36-2.17,6.14-.82-.18-.5-1.22-1.17-1.75-.25,1.27.72,2.19.48,3.1-.18.71,1.81,2.58-1.02,2.23-.54-.07-.43,1.26.06,1.49,1.21.57,1.17,1.66.95,2.48-.41,1.54-.26,2.87.55,4.18.22.35.11.55-.08.95-.71,1.47,1.18,4.78,2.74,5.03.44.07.77-.08.94-.49.24-.57.1-1.15-.26-1.55-.77-.84-1.65-1.59-2.32-2.57,1.67.38,2.98,1.36,4.27,2.34,3.95,2.98,8.21,5.44,12.56,7.77,1.69.9,3.17,1.5,3.3-1.35,0-.11.2-.23.32-.32.05-.04.14-.04.48-.11.19,4.31-1.04,8.54-.67,12.79,1.2.05.92-1.2,1.71-1.3.16,2.17.31,4.32.47,6.47-1.24-.15-1.68.75-1.85,1.67-.37,1.99-.74,4-.27,6.05.17.72.52,1.48-.25,2.18-1.29,1.15-1.41,2.72-1.41,4.32,0,4.91,1.35,9.61,2.27,14.37.4,2.07,1.12,4.09,1.06,6.24-.02.76-.91,1.68-1.03,1.27-.94-3.26-2.37-2.72-4.18-.81-3.25-1.68-5.93.64-8.85,1.28-.74.16-1.75,1.29-1.63,1.4,1.36,1.28-.11,1.68-.63,2.36-2.06,2.77-1.16,5.05,2.14,5.91,3.83,1,8.22.33,11.4,3.86-3.04,1.1-4.31,4.2-6.83,5.9-.71-.85,1.06-1.02.28-1.88-.24.19-.49.36-.72.56-3.38,2.93-3.29,2.78.49,5.04,2.96,1.77,3.87,2.23,3.51,6.39-.14,1.62-1.02,2.95-1.32,4.48-.46,2.35-1.02,4.65-1.83,6.92-.38,1.06-2.02,1.55-1.23,3.2.61-.51,1.35-.65,2.13-.54-1.07,1.82-3.23,2.56-4.3,4.42-.25.43-.98.87-.59,1.27.6.61,1.07-.15,1.51-.57,1.23-1.16,2.06-2.77,3.89-3.77-.45,1.24-1.59,1.68-1.66,3.25,10.49-5.97,16.82-15.41,23.65-24.37-3.13,1.94-6.08,4.14-8.64,6.73-3.21,3.24-6.04,6.86-9.34,10-1.28,1.22-1.88,3.89-4.6,3.11-.99-.95-.14-1.67.28-2.47,1.6-3.01,3.53-5.91,3.91-9.4.44-3.99,3.61-6.71,4.72-10.38.12-.39.44-1,1.23-.52.92.55.02.83-.01,1.25-.13,1.48-1.43,2.43-1.8,3.55-1.31,3.94-3.59,7.43-4.83,11.37-.07.23-.02.45.32.49.55-.35.42-1.37,1.43-1.44.28.59-.49,1.4.38,1.98.49-.64.9-1.37,1.5-1.9,6.57-5.91,11.66-13.22,18.12-19.23,2.58-2.4,5.37-4.5,8.27-6.46.42-.28.91-.43,1.28-.02.45.5-.07.87-.36,1.18-.84.92-1.72,1.8-2.59,2.7.31-.3.48-.72.22-1.04-.55-.7-.95,0-1.35.26-2.57,1.67-4.68,3.87-6.8,6.04-.44.45-1.45.91-.79,1.6.57.6,1.23-.23,1.79-.63,2.16-1.54,3.48-4.15,6.28-4.91.28-.07.38-.79.56-1.21-.16,1.25,1.24.2,1.51,1.26-7.23,3.82-11.13,10.88-16.24,16.99.81.41,1.04.1,1.32-.19,2.43-2.52,4.85-5.06,7.32-7.54,2.67-2.68,5.41-5.29,8.07-7.98.56-.56,1.39-1.15.5-2.18-.61-.71.1-1.22.62-1.47.96-.45,1.83-1.36,2.96-1.1.55.13.32.71-.03,1.13-4.63,5.53-9.45,10.89-14.75,15.78-7.14,6.58-14.35,13.09-21.56,19.59-.85.77-.96,1.11-.22,2.22,2.29,3.43,4.81,6.7,6.94,10.26,2.43,4.07,3.75,8.61,6.05,12.7.58,1.03,1.03,2.2,2.65,1.48.93-.41.95.19,1.4.98.69,1.22,1.33,1.92-.05,2.93-.05.03.17.7.36.75,3.43.99,1.05,2.85.54,4.25-.31.84-.53,1.33.18,2.03,1.7,1.68,3.59,3.33,2.19,6.07.76.23,1.08-.03,1.39-.26,3.56-2.69,7.33-5.04,11.29-7.1,2.16-1.12,4.16-3.12,6.39-3.4,3.6-.45,7.1-1.33,10.66-1.88,3.23-.5,6.2-.25,8.68,2.24,1.12,1.12,1,1.81-.33,2.49-2.24,1.15-4.52,1.98-7.1,2.27-8.97,1.02-17.67,3.35-26.22,6.2-3.64,1.22-3.6,1.34-3.36,5.01-.94-.12-1.18-.91-1.56-1.57-.27-.47-.6-1.15-1.22-.71-.74.52.08.94.35,1.32,2.17,3,4.36,5.95,4.63,9.87.1,1.44,1.16,1.26,2.08.69,1.98-1.24,3.81-2.82,5.93-3.71,1.89-.79-.57-2.26.63-2.55.9-.21,1.96,1.41,2.98-.06.39-.57,1.47-.91,1.61-.71,1.32,1.85,2.11-.02,2.98-.43,1.19-.57,2.31-1.33,3.33-2.16,2.35-1.91,5.1-3.34,7.4-5.91-2.55.12-4.28,1.86-6.49,1.4,3.74-1.68,7.67-2.84,11.35-4.63.45-.22,1.11-.71,1.4.02.24.58-.38.99-.93,1.14-1.5.4-2.56,1.46-3.73,2.38-2.58,2.03-5.1,4.17-7.86,5.91-6.79,4.27-13.39,8.84-20.01,13.36-1.1.75-2.21,1.48-3.27,2.28-.62.47-1.36,1.15-.7,1.97,2.41,2.98,3.86,6.56,6.23,10.07.74-3.16,2.75-5.23,4.47-7.12,2.47-2.71,5.86-4.62,9.25-6.29.82-.4,1.67-.5,2.51-.44,4.56.32,9.21-.53,13.67.71.97.27,1.33-.7,2.54-.15,3.74,1.69,6.89,4.09,10.01,6.63.62-.41-.14-1.7.97-1.61.82.06,1.39.73,1.65,1.51.19.59.28,1.23.3,1.85.04,1.72,1.05,3.58,2.32,3.54,1.79-.05,1.57-2.09,1.41-3.61-.61-5.52-.84-11.07-2.12-16.51-.38-1.62-1.37-2.73-2.18-4.15-.49,1.02.42,2.02-.5,2.86-1.21-1.54-1.59-3.29-2-5.02-.13-.54-.47-1.24.64-1.04.21-1.14-.44-1.54-1.43-1.68-3.82-.54-7.64-1.09-11.47-1.62-.73-.1-1.49-.14-1.46-1.13.03-.98.87-1,1.54-1.11.36-.06.76.14,1.14.16,2.18.09,4.32.71,6.53.41.66-.09,1.6-.31,1.16-.97-.62-.93-.24-2.4-1.35-2.87-1.78-.74-.14-1.36-.07-2.04,1.44.37.85,1.95,1.62,2.75.25.26.3.78.76.75.48-.04.64-.53.53-.89-.75-2.46-1.56-4.9-2.43-7.59-1.49,1.91-.94,3.48-.43,5.04-1.74-.47-2.38-1.75-1.41-3.17.55-.8,1.06-1.46.12-2.16-.49-.37-1.7-.17-1.02-1.23.18-.28,1.36-.05,2,.18.29.11.34.99.94.46.43-.38.16-.93-.11-1.29-.48-.63-1.05-.82-1.97-.79-1.47.06-3.04.79-4.56-.19.6-.56,1.25-.98,1.94-.86,2.15.36,1.8-1.01,1.68-2.28-.13-1.43-1.15-2.66-1.23-4-.27-4.52-1.29-8.89-2.32-13.25-.87-3.68-2.83-7.03-3.48-10.83-.32-1.89-1.28-3.67-1.89-5.52-.33-1-.66-2.15-1.78-2.26-1.1-.1-1.25,1.28-1.75,1.98-.42.58-.64,1.35-1.15,1.96-2.67,3.19-5.23,6.36-8.86,8.72-2.8,1.82-5.37,2.44-8.5,1.8-3.7-.75-7.2-2.4-11.14-2.08-1.65.14-3.39-.36-4.66-1.74,1.07.06,1.98.59,3.09.65,4.29.21,8.63.28,12.75,1.65,3.19,1.06,5.75.08,8.39-1.61,4.62-2.96,7.5-7.27,9.87-12.04.46-.92.15-1.56-.22-2.38-.86-1.9-2.43-3.89-1.53-5.96,1.05-2.4-1.19-4.52-.05-6.74-1.98-.92.6-2.07-.24-3.36-1.28-1.96-.6-4.66-1.85-6.78-.16-.28-.12-.77.32-1.01.11.09.27.15.33.26.32.6.32,1.44,1.14,1.63.18.04.52-.29.66-.52.61-1.02-.47-1-.85-1.47-.45-.54-.96-1.47.53-1.58.49-.04.52-.53.53-.92.04-2.51.7-4.95.58-7.49-.17-3.83.45-7.66-.52-11.5-.84-3.33-.71-3.44-2.66-2.38-.25-2.18-4.35-6.54-6.77-6.66-1.46-.07-1.64-.58-1.87-1.7-.19-.94-1.1-1.47-1.97-1.16-.98.35-.65,1.25-.34,2.01.8,1.95,1.58,3.92,3.19,5.88-1.48-.24-1.99-.97-2.5-1.78-1.27-1.99-2-4.2-2.6-6.46-.48-1.83-1.5-3.06-3.43-3.43-.53-.1-1.09-.26-1.51-.58-1.08-.8-2.08-1.73-3.49-.64-.45-1.58-1.67-2.25-3.03-2.99-.97-.52-2.04-.3-3.06-1.13-1.41-1.15-3.3-1.85-4.97-2.71-2.01-1.03-3.86-2.23-5.67-3.53.88-.51.74-1.7,1.47-2.3.86.08.02,1.06.49,1.04,3.4-.17,5.19,3,8.01,3.84,3.68,1.1,6.72,3.75,10.63,4.23.07,0,.15.03.21.08.79.74,1.92,2.06,2.65,1.39.87-.8.29-2.51.18-3.79-.34-3.84-.45-7.64-.12-11.5.15-1.81-.19-3.67.27-5.52.23-.95-.44-1.4-1.35-1.53-2.49-.35-4.65-1.62-6.93-2.54-.21-.08-.41-.42-.55-.38-3.9,1.02-2.75-1.72-2.34-3.42.42-1.78.75-3.79,2.15-5.07.79-.73.08-.98-.05-1.31-1.23-3.16-3.65-5.58-5.27-8.5-.97-1.76-2.28-3.42-3.35-5-1.39-2.05-.95-4.36-2.21-6.21-.3-.44-.25-1.22-.81-1.59-.67-.44-1.14-.85-.44-1.66.26-.3.29-.71.11-1.11-1.09-2.4-2.46-4.58-2.28-7.56.06-1.06-1.24-2.79-1.46-4.44-.2-1.43-.15-2.75.31-4.15.44-1.35.93-2.84-.27-4.15-.49-.54.14-.72.33-1.1.77-1.52.53-3.19.46-4.81-.03-.67-.39-.79-.78-.14-.22-.37-.72-.9-.62-1.1,1.99-3.75.75-7.69.69-11.55-.06-4.09.2-8.15.75-12.21.5-3.76.03-6.53-3.77-9.26-3.66-2.63-7.28-5.74-10.68-8.91-.75-.7-2.23-1.1-3.39-1.62-.88-.39-1.23-1.03-1.27-2.04-.23-5.29-.71-6.1-6.01-7.27-4.55-1-8.79-2.95-13.34-3.85-2.37-.47-4.72-1.06-7.07-1.58-1.4-.31-2.85-.49-3.99-1.59,2.19-.44,4.12.77,6.2,1.01,6.46.74,12.38,3.58,18.66,5.08,1.57.38,3.28,1,4.69,1.91,1.63,1.05,2.71,2.6,2.36,4.76-.23,1.41.31,2.1,1.69,2.83,1.97,1.05,3.75,2.84,5.57,3.84,3.11,1.71,5.33,4.27,8.04,6.31,1.23.93,2.38,2.06,3.28,3.31.77,1.08,1.24,2.28.91,3.88-1.44,6.92-1.54,13.89-.75,20.95.35,3.11.27,6.35.21,9.54-.14,7.59.04,15.17,3.01,22.39,1.09,2.64,1.35,5.55,2.72,8.19,1.41,2.71,3.24,4.9,5.51,6.83.44.38,1.75.12,1.23,1.23-.42.92-1.34.79-2.26.07.54,2.4,2.09,3.26,3.36,2,1.23-1.21,1.79-.14,2.52.39.92.67,2.37,1.38,1.44,2.75-1.47,2.16-1.57,4.95-3.4,6.9-.95,1.02-.35,2.12.08,3.08.71,1.59,2.17,2.13,3.81,2.18,1.71.05,3.43.01,5.19.01-2.33,2.09-7.7,1.03-10.06-1.94-1.42,2.09-1.3,2.54,1.08,2.99,3.1.59,5.89,2.17,8.96,2.83,1.3.28,1.06,1.23.9,2.03-.98,4.81-.6,9.67-.6,14.52,0,2.43.74,4.69,1.37,6.96.38,1.37,1.39,2.4,3.12,1.87.14-.04.35-.21.37-.18,2.61,2.8,6.34,2.7,9.62,3.77.55.18,1.98-.03,1.34,1.29-.62,1.29-1.04-.22-1.6-.29-1.12-.14-2.23-.37-3.85-.65,1.67,1.6,3.67,1.74,4.95,3.09.62.65.51-.99,1.35-.87.03,1.58,1.1,2.85,1.39,4.37.14.72.61,1.14,1.29,1.17,1.72.08,1.89,1.02,1.36,2.34-.96,2.4-.32,4.63.83,6.73,1.02,1.88,1.2,3.74.15,5.58-1.73,3.01-1.68,6.28-1.7,9.57-.01,2.55-.03,5.1-.11,7.65-.04,1.42-.15,2.83.59,4.12,1.42,2.46.16,5.14.71,7.76,1.57,7.5,3.96,14.74,6.16,22.05,1.08,3.59,2.55,7.04,3.54,10.68.76,2.8,1.88,5.51,2.72,9.02-2.27-2.31-2.44-4.99-4.11-6.96.49,2.08.96,4.17,1.47,6.24.36,1.46,1.08,2.67.74,4.46-.33,1.71,1.91,2.12,3.38,2.51.58.15,1.24-.05,1.86-.04,3.88.1,4.85.84,5.72,4.34.1.42.08.83-.23,1.09-2.39,1.97-2.94,4.95-4.21,7.54-.73-2.31.91-4.26,1.07-6.66-1.46,1.55-1.84,3.43-2.67,5.07-.38.75.27,1.29.35,1.94.44-.14.88-.28,1.31-.42-.4,1.22-.45,2.4,1.31,1.74,1.7-.64,3.75,1.11,5.13-.99.63.74.72,1.63.51,2.27-.96,2.95.69,4.56,2.89,5.82,1.28.73,1.4,1.45.94,2.83-1.38,4.13-.41,8.57-1.43,12.77-.06.27.04.71.23.88,2.39,2.03.75,3.77-.42,5.48-1.42,2.06-2.91,4.08-4.42,6.08-.45.6-.79,1.15-.59,1.93.64,2.4.74,4.89,1.71,7.26.79,1.92-.51,3.81-1.95,4.86-2.97,2.17-5.18,5.11-8.05,7.37-4.76,3.73-9.42,7.57-14.09,11.41-3.64,3-7.68,5.5-10.97,8.96-.77.81-1.8,2.1-3.37,1.11.56-1.43,2.33-1.57,2.68-3.21-1.86,1.23-3.75,2.42-5.57,3.71-4.94,3.47-10.47,5.85-15.76,8.67-1.11.59-1.23,1.05-1.14,2.09.23,2.48.35,4.96.49,7.45.05.81.41,1.84-1.03,1.83h0c-.62.46-.6.47-.64.98-.14,1.5.2,3.06-.99,4.4-.67.75.62,1.38.53,2.35-.24,2.47-.08,4.99-.24,7.47-.28,4.42.97,8.68,1.12,13.05.01.31.17.64.11.93-.93,4.71.7,9.27.87,13.93.22,6.03.13,12.12.79,18.07.52,4.68,1.12,9.42,1.84,14.12.79,5.17,1.52,10.36,1.84,15.63.2,3.37-.46,6.82.47,10.17.46,1.66-.45,2.83-1.85,3.62-1.69.95-3.3,2.07-5.25,2.47-2.95.61-5.6,2.01-8.28,3.28-3.79,1.81-7.91,2.46-11.88,3.66-1.29.39-2.09.97-2.4,2.48-1.8,8.66-3.18,17.39-4.32,26.15-.63,4.89-1.29,9.92-.78,14.77.49,4.67-.19,9.26.18,13.88.17,2.09,1.26,3.82,2.01,5.67.48,1.18,1.07,2.24-.11,3.43-.65.66-.84,1.69-.89,2.64-.26,5.31-1.74,10.36-2.98,15.49-1.03,4.23-1.22,8.66-1.95,12.98-.41,2.44-1.59,4.81-1.64,7.23-.07,3.15-1.48,6-1.38,9.2.06,2.14-.84,4.33-1.46,6.46-3.55,12.33-5.94,24.92-8.52,37.46-.9,4.37-2.3,8.63-3.1,12.99-.84,4.58-2.18,9.03-2.99,13.61-.96,5.45-2.54,10.79-4.15,16.11-.9,2.98-1.04,6.16-2.08,9.14-.85,2.44-1.62,4.91-2.43,7.36-.14.44-.48.9-.42,1.3.53,3.26-1.23,2.03-2.62,1.33-.97-.49-1.69-.28-2.21.57-.94,1.53-1.81,3.1-2.83,4.86.77.12,1.17-.97,1.64-.41.47.55-.16.99-.45,1.42-2.5,3.78-4.49,7.82-6.17,12.1.87-1,1.73-2,2.6-3-.02,1.69-1.21,2.71-2.06,3.8-3.35,4.27-5.57,9.26-8.74,13.65-1.65,2.28-3.69,3.69-6.12,4.37-6.41,1.78-12.97,2.83-19.61,3.33-1.49.11-2.93-.32-4.38-.72-2.31-.63-4.39-1.93-6.93-1.96-1.4-.02-2.84-.9-3.56-2.08-1.61-2.64-4.25-4.38-5.82-6.97-.99-1.63-1.76-1.74-3-.42-.33.35-.7.88-1.36.72-.06-.15-.2-.35-.15-.42,1.83-2.84,2.23-6.6,5.69-8.42,1.42-.75,2.55-2.06,3.79-3.14.82-.71.94-1.85.52-2.55-.51-.85-1.47-.09-2.06.28-2.16,1.38-4.69,1.56-6.95,2.59l-.27-.68c2.74-1.04,5.41-2.38,8.24-3.04,3.53-.83,6.39-2.64,9.09-4.86,1.4-1.15,2.73-2.14,4.69-2.42,1.5-.22,3.29-1.02,2.42-3.36-.36-.98.38-1.8.55-2.71.59-3.26-.09-6.73-1.53-9.12-1.95-3.24-.51-5.72-.08-8.51.19-1.27.17-2.47.08-3.78-1.5.28-1.31,1.85-2.53,2.95-.14-2.7,1.1-4.75,1.35-6.94,1.59-1.88,2.91-3.87,2.68-6.5-.69,2.26-2.9,3.91-2.63,6.55-.55-.36-.96.74-1.43.21-.34-.39.04-.88.23-1.31,1.73-3.95,3.63-7.83,5.13-11.86,1.88-5.05,3.86-10.09,4.94-15.4.62-3.04-1.13-5.58-2.1-8.27-.22-.61-1.01-1.09-.15-2.13,1.78,2.27,2.67,4.88,3.64,7.59,1.52-1.2.19-2.11-.07-2.94-1.3-4.11-3.59-7.4-7.96-8.75-1.34-.42-2.92.02-4.01-1.34-.33-.42-1.26-.39-.95-1.28.25-.72.73-1.24,1.59-1.08,2.63.5,2.04-1.52,1.8-2.66-1.11-5.26-1.92-10.66-5.7-14.91-.46-.52-.7-1.14,0-1.62,1.47-1.01.82-2.37.3-3.34-2.63-4.9-4.5-10.07-6.33-15.31-2.01-5.75-4.68-11.27-7.08-16.93-1.28.7-.4,1.96-1.11,2.82,0-2.42-3.74-4.23-.71-7.34-1.41.41-1.87.19-2.37-1.21-1.02-2.87-2.63-5.55-4.22-8.17-.44-.73-.29-1.53-.95-2.25-2.67-2.87-3.52-6.64-4.54-10.28-.31-1.1-1.39-1.43-1.93-2.28-1.47-2.28-2.04-5.07-4.18-6.98-.81-.72-.2-2.04-.65-3.07-1.8-4.09-3.3-8.31-4.51-12.61-1.83-6.53-3.95-13.01-4.39-19.85-.1-1.49-.19-2.95.74-4.31.36-.53.47-1.38.37-2.04-.5-3.41.36-6.67,1.23-9.97,0,1.03-.03,2.07.01,3.1.02.47.2.97.82.94.51-.03.58-.48.57-.87-.02-.9.48-1.37,1.29-1.67.06,2.56-1.47,5.01-.21,7.57.25-3.21,1.61-6.32.16-9.68-.6-1.38.14-3.15-1.47-4.43-2.76-2.19-4.02-5.62-6.35-8.23-2.53-2.82-4.52-6.1-6.64-9.26-1.81-2.7-4.04-5.09-5.07-8.27-.13-.41-.49-.8-.83-1.09-2.36-1.97-2.79-4.7-1.57-7.52.67-1.55.76-3.35,1.02-5.06.07-.46-.29-.94-.84-.96-.5-.02-.61.42-.62.83-.04,1.4-1.09,2.36-1.43,3.92-.82-.84-.5-1.54-.28-2.1,1.11-2.81,1.73-5.78,2.93-8.59,2.28-5.33,2.24-11.14,2.59-16.82.54-8.78,1-17.56,1.26-26.35.2-6.83.05-13.66.07-20.49.01-6.13.27-12.26-.02-18.37-.19-3.98-.08-7.96-.38-11.93-.05-.62-.04-1.25.01-1.88.04-.46.43-.67.84-.65.52.02.53.38.49.83-.08.89-.2,1.82.65,2.62.26-2.85,3.2-5.08,1.67-8.31-.21-.44.04-.88.38-1.27,3.91-4.52,4.37-6.23,3.07-11.53.97.45,1.01,1.39,1.62,2.19,1.99-3.87,3.76-7.74,5.98-11.37,2.32-3.81,4.3-7.85,6.84-11.51,1.93-2.79,1.9-5.55,1.24-8.56-.25-1.15-.56-2.31-.61-3.47-.03-.63-.59-1.82,1.1-1.7.85.06.37-.7.09-1.18-1.89-3.31-6.34-3.86-8.95-1.09-.33.35-.68.65-1.22.55.73-2.57,2.88-3.86,5.68-3.93,1.22-.03,2.76,1.83,3.94-.6.24-.51,2.37.58,2.25,2.46.03-2.89-.32-5.7.78-8.4-.41,3.53.77,7.08-.51,10.61-.71,1.95-.92,4.04-1.01,6.12,0,.17-.44.43-.16.55,2.25.93.66,2.42.33,4.4,2.01-2.06,3.31-3.82,4.31-5.76.45-.88.37-2.31,1.8-1.85,1.24.4,2.15,1.77,1.63,2.96-2.65,6.1-3.8,12.83-7.71,18.4-.38.54-.49,1.99-1.74.83-.35.38-.87.71-1.03,1.16-1.47,4.09-3.53,7.85-6.07,11.36-.4.55-.48,1.31-.76,1.96-.44,1.05-.46,1.04-2,.67,1.74,3.45-1.23,5.07-2.85,7.24-.42-1.61-.87-3.34-1.31-5.06.88-.11,1.46-.71,1.74-1.42.9-2.31,2.18-4.48,2.61-6.97.02-.15-.2-.33-.42-.69-1.61,3.05-2.74,6.09-3.87,9.14-.65,1.91.82,3.75.09,5.76-.24.67-.14,1.62-.58,2.35-1.72,2.86-1.77,6.21-2.52,9.33-.2.83.06,2.43.69,3.59.4.73.84,2.04,0,2.34-1.9.68-1.9,2.04-1.9,3.55,0,.15-.04.42,0,.43,3.2.97.7,2.62.51,4.01-.2,1.45.74,2.72.78,4.19.02.71.24,1.49.23,2.27-.02,1.73,0,1.73-1.82,1.27.28.99,2.32,2.35-.85,2.74,2.23,0,2.59,1.23,2.23,2.52-1.22,4.33-.85,8.73-1.14,13.12-.25,3.79-.65,7.66-1.03,11.48-.36,3.58-.66,7.23-.68,11.37,8.14-9.08,13.91-19.05,19.68-29.06,2.81-4.87,5.73-9.68,8.37-14.63,1.23-2.31,2.68-4.57,3.57-7.07.76-2.13,1.72-4.12,3.21-5.86.65-.76.4-1.8.5-2.72.56-5.26,1.1-10.52,1.4-15.81.4-7.14,1.48-14.24,2.14-21.37.46-4.92,1.19-9.78,1.4-14.76.23-5.53.91-11.09.87-16.64-.04-5.24.78-10.4.97-15.6.09-2.62.06-5.25-.13-7.86-.28-3.83,1.54-7.33,1.49-11.14-.04-3.61.49-7.2,1.48-10.7.39-1.36-.64-2.23-1.27-3.13-3.46-4.91-3.34-10.05-.75-15.12,1.07-2.08.54-3.9.48-5.89-.14-4.59-1.77-8.9-2.36-14.05-.83,1.64-.61,2.79-.65,3.9-.15,3.97-.31,7.93-.5,11.9-.02.45-.04,1.08-.32,1.3-.44.35.26,1.59-.9,1.21-.82-.27-1.05-1.52-.73-1.72,2.6-1.61.81-3.86.88-5.76.12-3.11-.83-6.44.02-9.28.81-2.71-.21-5.36.9-7.99.73-1.73-.25-3.75-.83-6.12-1.25,1.94-1.26,3.78-1.71,5.39-1.11,3.92-1.76,7.97-2.62,11.96-.13.61-.37,1.2-.62,1.78-3.94,8.97-7.61,18.05-10.78,27.33-.4,1.17-1.38,2.34,0,3.54.38.33.04.73-.12,1.06-.68,1.41-.52,2.92-.43,4.39.04.65-.22,1.59.57,1.91,1.21.49.64-1.2,1.63-1.39-.57,2.38.61,4.77-.48,7.07-.09.19.05.56-.07.64-2.07,1.54-2.13,1.91-2.44,4.64-.23,2.07-.07,4.01.83,5.87.52,1.08.18,2.15.13,3.33-.27-2.36-2.29-2.44-3.84-3.12,1.51-1.15,1.7-2.86,1.57-4.47-.37-4.59-.41-9.21-1.05-13.79-.34-2.43-.62-4.93.57-7.36,1.29-2.63.81-5.44.36-8.64-1.13,1.74-.99,3.45-1.8,4.9-1.47,2.63-2.66,5.45-3.73,8.28-1.68,4.45-3.57,8.68-6.51,12.53-4.04,5.3-4.19,3.61,1.16,8.03,2.06,1.7,4.3,2.25,6.84.87.76-.41,1.66-.98,2.64-.39-.48,1.13-1.71,1.13-2.57,1.35-1.73.44-1.55,1.45-1.12,2.58.68,1.81,3.19,2.71,5.09,2.03.53-.19,1.21.04,1.82.05.71.02.79-.88,1.74-1.1-1.12,2.33-1.72,4.62-2.2,6.93-.07.36-.11.68-.51.54-.35-.12-.83-.36-.94-.66-.86-2.36-1.72-4.59-4.79-4.86-.55-.05-1.16-1.03-1.49-1.71-.74-1.49-1.39-2.73-3.32-1.35-.39.28-1.16.04-1.85.04.96,2.11,3.05,3.29,3.83,5.55-1.31-1.08-2.61-2.17-4.06-3.37-.86,2.13-2.48,3.64-4.04,5.64-.42-2.16,1.22-3.12,1.82-4.49.3-.69,1.28-1.26.83-2.05-.51-.9-1.57-.45-2.35-.34-4.7.61-3.81.04-4.75,4.6-.17.84-.35,1.7-.42,2.55-.06.72-.73,1.71.2,2.1.48.2,1.5,0,1.91-.9.29-.64.96-.67,1.89-.76-.83,1.55-1.87,2.53-3.21,3.02-1.26.46-1.68,1.36-1.78,2.5-.64,7.21-1.06,14.44-1.95,21.62-.46,3.71,1.98,5.22,3.95,7.22.94-.34.1-1.26.75-1.65,1.04.76.17,1.58.19,2.34.03.83,1.17,1,1.26,1.95.09.86.28,1.65-.36,2.56-2.35-2.94-4.11-6.35-7.72-7.9,1.77-1.91.96-4.17,1.05-6.87-1.44,1.99-2.91,3.38-1.15,5.48.24.29.09.91.13,1.37ZM126.46,495.13c-2.04.78-3.03,2.47-4.18,4.53,3.05-1.25,3.49-1.77,4.12-4.59,1.46-1.34,2.98-2.63,3.26-4.78-1.32,1.45-3.25,2.48-3.2,4.84ZM15.26,259.98c1.37.54,2.56,2.5,4.33.4-1.4-1.08-2.68-2.4-4.34-.35,1.33-1.93-.51-2.95-1.29-4.22-.31-.49-1.03-1.15-1.76-.34-.6.66-.35,1.19.21,1.82.87.99,2.26,1.43,2.85,2.69ZM93.1,505.59c.61.18,1.02,0,1.37-.55,1.9-2.98,4.12-5.75,5.18-9.26-2.17,3.29-4.34,6.57-6.49,9.88-1.61,2.64-3.22,5.28-4.83,7.92,1.79-1.86,3.14-4,4.61-6.06.5-.7.51-1.25.15-1.93ZM165.68,336.15c-1.54-.74-2.91-.81-4.22.62-.77.84-1.93,1.32-2.8,2.1-4.3,3.81-9.04,7.11-12.98,11.34-1.08,1.1-4,1.05-2.75,3.59,1.15,2.32,2.78,4.42,4.4,6.46.42.53.15,2.14,1.72,1.55.32-.12.35.32.28.66-.36,1.59.12,2.22,1.53,1.67,1.6-.63,4.05-.46,3.91-3.32-.02-.38.42-.98,1.11-1.05.43.76-1.15,3.23,1.41,2.15,4.51-1.9,9.04-3.82,13.24-6.4,1.1-.67,1.65-1.47,1.71-2.83.06-1.26-.13-2.81,1.28-3.57.65.46-.5,1.13.45,1.39.76-.78.63-2.5,1.92-2.37,1.14.12.75,1.56.87,2.42.21,1.49.92.88,1.6.5,2.79-1.56,5.51-3.28,8.38-4.68,6.45-3.16,12.47-7.11,18.74-10.59,5.53-3.06,10.27-7.56,15.31-11.49,3.51-2.74,6.91-5.61,10.4-8.38,1.93-1.53,3.23-3.14,1.87-5.77-.45-.88-.47-1.97-.76-2.94-.14-.48,0-1.46-1.09-.74-1.24.82-1.02-.7-1.19-1.03-.63-1.22.46-.39.77-.52.65-.28.85-.85.95-1.5-.84-.14-2.17.84-2.38-.56-.22-1.49,1.48,1.04,1.5-.72-1.69-.44-1.77-2.7-3.41-3.37-1.44-.59-.37-2.28-1.51-3.02-5.16-3.32-10.54-6.94-16.81-5.93-8.61,1.38-16.07,5.24-19.88,13.93-.9,2.06-.46,3.19,1.69,3.55-.48,1.31-.95,2.61-1.42,3.91.11-.62.01-1.16-.78-.94-1.01.28-3.42,4.19-3.45,5.46-.36-.29-.37-1.37-1.21-.2-1.32,1.85-2.73,3.69-4.79,5.12-.36-1.14,1.31-2.58-.67-3.13.9-.89.97-2.26,1.84-3.22-2.24,1.91-4.29,3.96-6.3,6.05-.15.16-.16.68-.02.86.33.42.75.04.98-.18,1.22-1.17,2.39-2.39,3.58-3.59-.49,1.97.5,4.43-1.92,5.75-1-.77.44-1.43-.04-2.72-.35.62-.62.93-.73,1.29-.27.91-.95,2.16-.59,2.69.85,1.25,2.59.39,3.07-.19,1.65-1.97,2.56-4.52,4.95-5.96.26-.16-.33-1.59.98-.63.66.48,1.64,1.13.82,1.73-1.42,1.02-1.14,4.05-3.96,3.38-.44-.11-.58.41-.81.72-1.13,1.56-2.24,3.21-3.99,4.11-2.14,1.1-2.62,3.11-3.21,5.12-.04.15-.1.42-.17.42-1.62.14-1.27,1.57-1.55,2.87-.74-1.23.25-2.53-.98-3.37-5.31,5.24-10.78,10.33-16.87,14.72-.02-.68.28-1.19.79-1.63,3.73-3.21,7.45-6.42,11.17-9.64,1.52-1.46,3.05-2.91,4.56-4.38.49-.48.74-.99.1-1.61-.27-.26-.31-.61-.87-.45-2.07.6-4.2,4.22-3.72,6.48ZM62.24,228.26c-.02.68.19,1.37.85,1.5.97.18.68-.89.91-1.34.72-1.43-.12-2.96.04-4.49.25-2.29-1.12-3.68-3.74-5.01,1.67,3.25.83,6.31,1.95,9.07-1.21-1.18-1.42-2.61-1.49-4.26-.06-1.54-.32-3.53-1.3-4.44-1.01-.93-2.41.59-3.48,1.42-.08.06-.28-.02-.45-.04-.39-.91-1.07-1.73-.73-2.85.14-.45.25-1.01-.36-1.18-.55-.15-.83.36-1.06.75-1.34,2.27-1.43,4.72-1.03,7.24.25-1.66.84-3.17,1.45-4.81,1.19.79,1.07,1.5.65,2.52-1,2.42-1.24,4.85,1,6.83.16.14.03,1.27.75.38.21-.27.79-.16.32-.93-.81-1.31-.26-2.54,1.29-3.82,0,1.97.54,3.84-.15,4.94-.68,1.07-.45,1.69.1,2.09.67.48,1.05,1.36,2.46,1.07,3.25-.66,1.62-2.99,2.02-4.63ZM31.8,222.97c.11,1.14.23,2.27.41,4.04.87-1.65.99-2.97,1.93-4.07-.99-.03-1.66.98-2.36.06,2.73-5.8,4.77-11.87,6.82-17.93.35-1.03.53-2.03,1.32-2.92,1.15-1.3,1.65-2.95,2.19-4.65,1.26-3.95,1.88-8.05,3.35-11.96,1.38-3.68-.91-9.13-4.84-12.68,1.15,1.57.81,3.16.33,4.83-.92,3.16-1.82,6.29-1.74,9.7.04,1.95-.43,3.99-.29,6.11-1.67-.71-.84-2.2-1.6-3.52-.04.75-.02,1.05-.08,1.35-.32,1.6,1.29,3.19.72,4.4-.95,2.03-1.05,4.21-1.67,6.26-2,6.63-3.24,13.48-5.45,20.06-.35,1.05.26,1.02.96.93ZM140.92,201.85c1.57-2.97,1.43-3.44-1.53-4.72-.79-.34-1.64-.54-2.41-.92-1.84-.9-2.81.02-3.41,1.61-.92,2.48-2.42,4.62-3.69,6.9-.96-.53.18-1.42-.58-1.86-1.63,1.21-2.12,2.86-2.11,4.81.59-.11.47-.5.58-.77.2-.47.25-1.36.91-1.1.93.36.14,1.05-.06,1.55-.82,2.01-1.63,4.03-2.79,5.84-.84-.08-.15-1.11-.98-1.18-.35.53-.98,1.07-1.04,1.66-.15,1.67-1.91,2.88-1.25,4.76.29.82,1.96,1.35.28,2.64-.85.65-1.06,2.16-1.53,3.3-.19.46-1.16-1.09-.89.35.05.26.31.57.55.68.52.22.9-.14,1.16-.55.99-1.55,2.14-2.91,3.4-4.28,4.12-4.47,7.94-9.21,12.36-13.43.87-.83,2.35-1.51,2.26-3.14,2.01-.11,2.57-2.18,4.07-3,.42-.23,1.18-.65.34-1.14-.4-.24-1.09-1.2-1.76.02-.42.77-1.26,1.32-1.91,1.97ZM73.91,696.7c.39-.75.79-1.5,1.47-2.81-.09,1.9.28,2.03,1.37,1.21,1.71-1.28,2.9-2.94,4.03-4.68.4-.62.76-1.36-.11-1.8-.63-.32-1.13.11-1.5.74-.52.89-1.17,1.7-1.77,2.55-.22-.72-.15-1.29.16-1.67.79-.96,1.83-1.77-.37-2.31-.64-.16-.46-4.1.12-4.51,3.24-2.28,4.7-5.5,4.77-9.38.06-3.52-.07-7.04.55-10.54.22-1.22.2-2.5.15-3.75-.03-.77-.55-1.44-1.38-1.23-1.05.26-.4,1.09-.17,1.52.72,1.35-.04,2.05-1.16,3.17,0-1.69.04-2.94-.01-4.18-.05-1.19-1.04-1.51-1.94-1.75-.71-.19-1.53-.03-1.8.72-.91,2.56-2.08,5.09-2.47,7.74-.65,4.38-1.12,8.8-1.56,13.22-.58,5.8.48,11.5.37,17.26-.01.77.53.85,1.16.61-1.24,1.27-.06,3.25-1.3,4.55-.06.06.25.52.45.73.05.05.4-.12.55-.26,1.61-1.49.78-3.47,1.06-5.23-.22.02-.45.05-.67.07ZM65.94,226.89c1.28.25,1.6,1.12,1.46,2.27-.2,1.6-.75,3.06-1.96,4.16-1.18,1.07-1.43,2.17-1,3.76,4.41,16.22,9.54,32.19,16.23,47.63,1.02,2.35,1.88,4.79,3.5,7.23.46-1.83,1.02-3.3,2.22-4.41.41-.38.35-.94.2-1.32-.71-1.84.2-3.52.34-5.27.24-3.05,1.24-6.01,2.18-8.71.73-2.11-.13-2.73-.88-3.8-4.01-5.72-7.69-11.61-10.87-17.86-2.79-5.47-4.99-11.14-7.15-16.85-.93-2.46-1.86-4.97-2.54-7.45-.93-3.35-.56-7.02-1.5-10.46,1.74,1.03,1.39,2.53,1.46,4.28.1,2.84.95,5.7,1.79,8.46,3.47,11.49,8.58,22.26,14.94,32.4,1.64,2.62,3.16,5.49,5.87,7.61-.06-.96-.35-1.77-.1-2.33,1.42-3.17.88-6.78,2.37-9.99.57-1.22.95-2.74,1.41-4.09,1.15-3.31,1.02-6.95,2.88-10.11.66-1.13,1.16-2.72.86-4.27-.13-.7-1.54.11-1.17-.98.28-.83,1.16-.03,1.67-.41.64-.48.72-1.13.59-1.84-.74-.19-.67,1.21-1.76.55,1.04-2.63,1.54-5.79,2.95-8.03,2.14-3.41,2.95-7.45,5.55-10.58.59-.71,1.52-2.03,0-3.04,1.3-.97,1.26-2.99,2.26-3.76,1.68-1.29,1.17-3.64,2.88-4.71.11-.07.07-.45.04-.68-.38-2.75,1.26-4.83,2.14-7.34.67.79.08,1.44.7,2.74.94-7.39,5.47-12.56,8.01-18.61.63.39.51-.15,1.09-.51,1.35-.85-.07-2.04.78-2.97,1.56-1.7,1.57-4.25,3.05-6.11,1.23-1.55,2.05-3.4,2.98-5.15.78-1.47-1.03-4.16,2.03-4.49.31-2.22,2.07-3.83,2.51-6.01.19-.91.43-1.96,1.6-2.19.66,1.18-1.05,1.89-.55,3.11,2.79-2.25,3.07-5.75,4.8-8.45-4.05,2.96-8.2,5.78-11.4,9.59-3.17,3.76-6.98,6.76-10.7,9.85-4.46,3.71-9.31,6.93-13.52,10.97-.84.81-1.54,1.92-3.16,1.49-.8-.21-1.37.8-1.41,1.59-.1,1.95-1.59,2.67-2.91,3.55-.77.51-1.6.86-2.31,1.54-1.34,1.27-2.65,2.57-3.77,4.02-.89,1.15-2.05.26-2.98.34-1.21.1.22-.91-.01-1.58-.47-1.33.27-2.85-.31-4.31-.88.55-.12,1.82-1.5,2.23-.52-4.47-.99-8.86-.7-13.27.12-1.79.15-3.62.12-5.36-.03-1.72-.56-3.54-.33-5.31.16-1.28-.9-2.91-2.16-2.67-3.74.69-7.46,1.49-11.19,2.23-.41.08-.84.15-.79.64.02.24.32.52.57.66,1.2.69,2.53.72,3.87.77,1.88.07,3.76-.31,5.62.13.66.16,1.67.35.83,1.32-1.83,2.13-2.26,4.91-3.48,7.32-1.45,2.86-2.88,5.78-4.3,8.64-1.08,2.18-2.38,5.05-5.45,5.8-.45.11-.9.67-1.12,1.13-.91,1.86-1.32,3.97-1.64,5.9-.76,4.69-2.53,9.1-3.27,13.79-.22,1.39-.24,1.92.82,2.85,1.16,1.02,3.46,1.26,3.02,3.64-.38-.03-1.01-.22-1.11-.06-.5.73-2.77,1.34-.04,2.45,1.32.54.17,2.78,1.29,4.08,1.26,1.47-.16,3.09-.32,4.66-1.53,1.68-1.75,3.77-2.03,5.85,1.9-1.58,1.35-3.93,1.97-5.92ZM42.49,360.55c1.19.39,1.19.39.99-.61-.04-.2-.12-.52-.03-.6,1.98-1.67.88-3.93,1.21-5.93-1.27,1.51-.68,3.88-2.64,5.11-.52.33-.51,1.45.36,1.99-.97-.4-1.42.17-1.84.92-2.93,5.17-5.9,10.33-8.83,15.51-3.9,6.87-7.87,13.68-12.24,20.28-2.81,4.25-7.36,7.28-8.7,12.53-.02.09-.1.21-.19.25-1.41.61-1.52.7-1.65,1.68-.22,1.65-1.28,3.25-.23,5,.18.29-.12.88-.22,1.33-.35,1.62-.77,3.23-1.15,4.82-.86,3.6-1,7.37-1.47,11.07-.14,1.05.25,1.62,1.35,1.75-.58.7-1.86.35-1.85,1.6.02,4.4-1.67,8.55-1.94,12.92-.06.89.01,1.66.52,2.45,4.8,7.47,10.31,14.38,16.38,20.85,1.8,1.91,2.47,2.2,4.81,1.81,1.09-.18,1.34.3,1.41,1.26.11,1.63.21,3.25,1.55,4.53,2.73,2.6,5.63,4.98,8.55,7.35,1.27,1.03,1.69.53,1.99-.81.51-2.32.71-4.64.64-7.02-.07-2.11-.01-4.22-.01-6.32.22,0,.44.01.66.02,1.09,4.37.57,8.76-.15,13.13-.16.97-.9,2.15-.4,2.87.82,1.18,2.16,2.63,3.54,2.37,1.29-.25.87-2.12.78-3.29-.26-3.53-.39-7.06-.25-10.59.28-7.05.67-14.1.82-21.15.2-9.72.17-19.44.34-29.16.13-7.38.49-14.75.62-22.13.09-4.89-.41-9.75-1.04-14.6-1.66,22.44-1.35,44.91-.86,67.37-1.12-12.12-1.48-24.25-1.63-36.4-.82,1.53-.95,3.16-.97,4.77-.07,5.08-.11,10.15-.92,15.18-.09.55.1,1.21-.84.83l.09.07c.35-4.8-.8-9.67.69-14.42.16-.52.58-1.24-.36-1.48-1.05-.27-1.16-.3-.72-1,1.02-1.64,1.27-3.32.41-5.18.61.09.84.94,1.43.51.21-.15.4-.72.36-.75-2.17-1.51.18-3.34-.32-5.07-.31-1.08.25-2.51-.32-3.75,2.38-1,.16-2.28.26-3.42-.57,1.62-2.14,3.08-.79,4.95.34.47.41,1.11,0,1.16-.48.05-1.23-.35-1.5-.78-.5-.82.85-5.66,1.73-6.27,1.32-.92,1.65-2.16,1.67-3.66.07-5.05.54-10.09.88-15.12.45-6.75.87-13.51,1.41-20.26.13-1.62-.91-2.95-.61-4.54.08-.43-.47-.56-.83-.71-.46-.18-.76.07-.94.45-.25.53-.44,1.08-.75,1.85-.38-1.27-.32-2.2.41-2.93.78-.78,1.73-.24,2.93.15-.99-.98-.65-2.2-1.63-2.71ZM54.78,257.32c.88.1,1.36.74,1.13,1.46-.97,3.12-.36,6.34-.74,9.5-1,8.34-2.6,16.61-2.98,25.01-.29,6.26-.97,12.49-1.26,18.75-.27,5.94-.59,11.87-.83,17.81-.25,5.94-.43,11.89-.65,17.83-.51-6.85-.05-13.68.05-21.13-.38.79-.53.99-.56,1.2-.29,2.49-.59,4.99-.84,7.48-.24,2.42-.55,4.85-.61,7.28-.05,2.07-.28,3.99.32,6.27,1.03,3.89.26,8.25.27,12.41,0,1.8-.41,3.79,1.89,4.57-.36,1.07-1.73-.11-1.87,1.12-.14,1.22.79,1.65,1.58,2.09,2.06,1.17,4.4,1.6,6.66,2.18,2.28.58,4.62.93,6.98.87.51-.01,1.26-.14,1.18-.86-.09-.8-.85-.56-1.32-.45-.94.21-1.85.27-2.79.04-.38-.09-.5-.34-.51-.68,0-.23.16-.56.36-.4.92.74,1.62-.52,2.75-.11,2.15.78,4.56.52,6.88.51,1.2,0,1.52-.58,1.7-1.72,1.04-6.55,1.27-13.21,2.63-19.72.61-2.91.82-5.91,1.21-8.87l.57.06c-.28,1.33.08,2.66-.42,4.02-.52,1.41-.42,1.44,1.43,3.71-.05-1.51-1.76-2.79-.74-4.09,1.31-1.66.85-3.34.72-5.09-.08-1.12.46-1.49,1.53-2.06,1.19-.64-1.89-1.02-.93-2.62.65-1.09.72-2.55.93-3.86.96-5.84,1.85-11.69,2.83-17.52.58-3.46,1.32-6.88,1.88-10.34.67-4.15.61-8.11-1.35-12.12-2.67-5.48-4.86-11.22-7.01-16.93-4.36-11.6-8.14-23.38-10.82-35.49-.18-.81-.32-2.12-1.38-1.85-1.98.51-4.07-.67-5.95.59-.36.24-.96.15-1.01.79-.04.53.18.97.72,1.05.96.14,1.05.77.97,1.66-1.18-1.11-1.94-1.2-2.13.68-.16,1.64-.77,3.25-.78,4.87-.01,3.15-1.28,6.35.03,9.44.4.94.32,1.79.34,2.7-.54-.31-1.21-.43-1.28.32-.13,1.45-.57,2.93.02,4.41.04-1.71,1.46-3.05,1.21-4.79ZM57.11,142.54c-.56-1.76,2.47-2.51,1.16-4.77-2.5,3.66-5.41,6.67-8.84,9.21,1.33-.02,2.34-.71,3.45-1.17,1.79-.74,2.2-3.13,4.31-3.34-1.62,3.82-5.11,5.25-8.64,6.26-2.93.84-5.41,2.33-7.92,3.9-1.01.63-1.44,1.56-1.45,2.77-.03,3.63.81,6.97,2.26,10.33,1.16,2.69,2.6,5.12,3.93,7.75.92-.91-.18-1.92.62-2.6,2.55,1.43,3.02,3.63,2.25,6.47,1.67-1.59,2.43-1.37,3.35.45.54,1.07.93,2.5,2.28,3.3.51-.74-.24-1.69.52-2.22,1.33,1.93.32,4.22.71,6.45,1.23-.82.72-2.26,1.7-2.97.87-.63.66-1.88,1.28-2.71.06.66-.03,1.27-.18,1.86-.18.68-.45,1.34-.62,2.02-.54,2.2.02,3.05,2.28,2.81,1.92-.2,3.81-.79,5.66-1.4,2.91-.96,3.08-1.38,2.53-4.43-.06-.3-.47-.75.15-.93,1.91-.57,2.72-2.1,3.38-3.85.74,2.55-2.47,4.35-1.12,7.04,1.3-.72,2.44-1.48,3.12-2.96,1.28-2.77,2.69-5.49,4.16-8.17.61-1.11.33-1.99-.63-2.32-1.71-.59-3.37-1.23-4.85-2.29-.29-.21-.71-.24-.81.07-.6,1.81-2.64,2.61-3.26,4.11-1.1,2.67-3.14,2.81-5.35,2.96-2.39.17-3.83-.94-4.14-3.34-.33-2.66-.54-5.34-.21-8.1.24,1.63,1.63,1.52,2.41,1.23,1.14-.43,2.27-.47,3.41-.71,5.65-1.18,11.12-2.95,16.17-5.87,1.32-.76,1.63-1.62,1.12-2.85-.6-1.44-1.26-2.83-1.46-4.42-.12-.95-1.1-1.48-1.92-1.93-1.13-.63-.25,1.44-1.08,1.07-1.15-1.68-1.68-2.92-.78-5.14.62-1.52,1.1-2.32,2.43-2.96,1.86-.9,3.97-1.46,5.43-3.34-1.92-.53-2.78,1.34-4.26,1.33-.23-.72.28-.94.65-1.17,3.81-2.31,7.61-4.6,10.46-8.2.99-1.26,2.08-1.06,2.28.72,1-1-.84-4.28,2.72-3.09.05.02.26-.33.34-.53,1.04-2.4.18-5.38-1.78-7.1-1.81-1.59-3.96-2.85-5.59-4.52-3.49-3.57-7.61-6.38-11.22-9.79-1.16-1.1-2.42-2.2-2.86-3.64-.55-1.82-1.34-.3-1.93-.33-.77-2.06.6-4.83-2.55-5.89-1.58-.53.14-2.17-.49-3.13-.7-1.09.04-1.31.77-1.16,2,.4,1.73-.93,1.75-2.1,0-.69-.55-1.36-.07-2.05,1.19-1.69.41-3.06-.69-4.39l.02.04c1.92-.81.22-2.47.85-3.58-.21-.07-.44-.22-.63-.18-.17.04-.42.31-.4.46.03.46.19.92.27,1.38.08.5.04,1-.59,1.04-.48.04-.69-.36-.69-.78-.01-2.43-.01-4.86,0-7.29,0-.84,1.49-.76.96-2.2-1.82-4.92-1.71-10.18-2.3-15.32-.16-1.38,1.28-1.86,1.61-1.5.91.97.72.34.83-.31.63-3.72.11-7.53.83-11.25.23-1.2-.73-1.12-1.49-1.27-1.09-.22-.98.6-.91,1.15.41,2.91-1.21,5.8.04,8.74.24.56.58,1.61-.28,2.13-1.82-3.49-.67-7.03-.72-10.51-.04-2.67-1.73-3.81-4.32-3.1-3.27.89-4.77,3.04-4.95,6.32-.03.54.32,1.39-.62,1.49-.91.1-.92.01-1.09.47-.98,2.6-1.42,9.5-.73,13.12.47-4.1.89-7.81,1.31-11.51.94,1.66,1.08,3.3.77,5.05-.66,3.7-1.06,7.45-1.79,11.14-.6,2.99-.98,6.02-1.61,8.99-.68,3.2-1.48,6.39-1.35,9.65.05,1.16-.92,2.25-.51,3.03,1.74,3.28.15,6.45.21,9.65-.12-2.14-.18-4.28-.09-6.42.03-.73-.27-1.04-.79-1.23-.44-.16-.87.22-.87.57.04,2.65-1.33,5-1.58,7.56-.15,1.48,1.42,2.43,2.84,1.74.42-.2.77-.78.96.05.38,1.65,1.71,1.31,2.81,1.47,3.31.48,4.1,1.32,3.77,4.27-.31,2.8-1.18,5.47-2,8.15-.08.27-.19.75-.55.62-1.89-.7-1.38.84-1.53,1.65-.16.84.17,1.96-.27,2.51-1.99,2.52-3.33,5.54-5.83,7.66-2.54,2.15-4.95,4.47-7.85,6.15-1.72,1-1.57,1.81-.03,2.91.99.71,1.94,1.31,3.16,1.4,3.62.28,7.22.16,10.96-.7-1.58-1.79-3.94-.61-5.37-2.03,2.66.22,5.3.11,7.63,2.08.84.71,1.15,1.11.83,1.93-.68,1.73-1.44,3.45-3.22,4.4ZM112.14,126.09c.27-1.04,1.21-1.87,1.01-3.06-.1-.59,1.02-1.37-.1-1.71-.88-.27-1.16.83-1.35,1.34-.38,1-.2,2.15-.61,3.23-.17.45.73.07,1.13.12-.35,1.55-.2,3.62-1.16,4.53-1.94,1.83-4.36,3.25-6.8,4.41-2.01.95-3.38,2.38-2.81,4.51.49,1.83-.38,3.25-.7,4.92-.7-.45-.39-.93-.4-1.37,0-.64.9-1.59-.03-1.84-.91-.25-.74.9-.87,1.54-.12.6-.36,1.12-1.39,1.64.06-3.21.8-6.17-.04-9.21-2.54,2.33-4.8,4.75-7.47,6.75-3.02,2.27-4.68,5.26-3.82,9.3.31,1.44.11,2.98.17,4.47.06,1.44-.23,3.04.3,4.28,1.32,3.09.76,6.32,1.38,9.43-.68-1.74-1.06-3.54-1.4-5.36.63,7.17,1.2,14.33,2.56,21.39.28,1.48.91,1.88,2.18.68,5.18-4.95,10.62-9.58,16.45-13.78,1.99-1.43,4.31-2.73,5.55-5.22.27-.54.66-1.54,1.5-1.95,3.26-1.62,5.41-4.61,7.89-7.07,4.49-4.45,8.94-8.93,13.96-12.76,4.31-3.3,8.27-6.8,10.87-11.68,1.05-1.97.72-3.31-1.43-3.97-1.02-.31-1.98-.71-2.32-1.79-.63-1.99-1.53-3.87-1.87-6-.34-2.13.45-5.48-3.93-4.98,1.7-.49,3.45-.59,3.14-2.7-.28-1.92-.9-3.8-1.21-5.72-.24-1.49-.9,1.21-.96-.14-.03-.7.2-1.41.19-2.11-.03-1.84,2.02-3.92-.58-5.52-.04-.02.23-.69.45-.98,2.43-3.16,3.24-6.83,3.11-10.69-.06-1.75,2.14-3.53-.05-5.24,1.17-1.08.58-2.61.97-4.02.11,3.23.11,3.26,3.49,2.87,1.29-.15,2.56-.48,3.96-.75-1.48-1.39-1.17-3.59.61-4.72,1.57-1,3.02-2.29,4.97-2.56,1-.14,1.19-.76,1.23-1.66.2-3.68-.22-7.37.36-11.03.2-1.29-.49-2.19-1.47-2.71-1.85-.99-3.64-2.17-5.78-2.5-1.89-.29-4.2.97-4.71,2.78-.87,3.08-2.59,5.88-2.98,9.09-.12.98,0,2.39.62,2.96.81.76,1.06-.69,1.62-1.11.29-.22.77-.16,1.09-.36.41-.26,1.21-.34.93-1.11-.2-.55-.84-.96-1.31-.84-2.43.65-1.96-1.27-1.43-2.01,1.52-2.13,1.52-4.98,4.64-6.51,2.67-1.31,3.51.45,4.93,1.19,1.34.7.84,2.25.69,3.49-.36-.25-.51-.55-.48-.82.23-1.78-1.09-2.66-2.32-2.59-.77.05-2.31-.23-2.74,1.03-.56,1.61.33,2.47,1.83,2.88.29.08.53.34.77.53,1.65,1.27,1.64,2.36-.14,3.39-.87.5-1.47,1.03-1.68,2.09-.75,3.68-1.14,3.77-5.06,3.18-1.73-.26-2.64-.69-2.71-2.57-.08-2.02-1.43-3.24-2.99-4.46-4.19-3.27-8.21-6.76-10.52-11.75-.27-.59-.73-1.17-.18-1.71,1.5-1.47.44-2.5-.69-3.19-1.48-.9-2.6-2.13-3.04-3.65-1-3.42-3.92-4.33-6.58-5.75-3.19-1.7-6.22-3.69-8.9-6.14-.67-.62-.75-1.38-.17-2.31.88-1.41,1.52-2.98,2.26-4.48-3.02,1.17-5.88,2.33-8.74,3.47-3.76,1.51-7.62,2.86-11.24,4.72-3.05,1.57-6.08,3.52-9.39,4.07-3.76.62-5.07,2.89-6.03,5.92-.25.81-.45,1.63-.78,2.84.02-2.19.65-3.79,1.28-5.4.18-.45.75-1.13.05-1.44-.79-.35-.97.46-1.21,1.06-1.89,4.65-.99,9.59-1.54,14.38,0,.08.23.18.35.26.78-.09.63-1.26.68-1.19,1.14,1.66,2.6.58,3.89.77,2.3.34,4.3-.07,6.42-.48.51-.1,1.49-.1,1.55.08.55,1.67,2.35,1.85,3.32,2.95,1.1,1.26,2.17,2.06,3.67.23-.26,2.83-.1,2.94,2.62,2.05.68,2.68.26,5.42.43,8.12.3,4.87-1.94,9.46-1.51,14.33.04.44-.47,1.06,0,1.31,1.77.97,3.18,2.69,5.17,3.05,1.25.23,1.97-1.32,2.94-2.04,1.66-1.25,3.29-2.37,5.35-.91.84-1.2-.61-2.66.65-3.91.78,1.42.78,2.81.58,4.18-.09.66-.55,1.66-1.35,1.22-2.6-1.45-3.71.85-5.05,2.03-1.49,1.31-2.69,2.25-4.8,1.42-1.76-.69-3.29-1.83-5.06-2.43-2.76-.94-2.95-2.78-2.04-5.12.17-.44.34-.87.46-1.33,1.05-4,2.31-8.01,1.46-12.21-.33-1.63-.59-3.43-2.42-4.28-1.51-2.88-4.12-3.75-7.12-3.84-2.96-.09-5.9.07-8.85.35-.79.08-1.07.29-1.13,1.09-.16,2.27.9,3.19,3.21,3.04,4.64-.31,9.29-.48,13.94-.7-.48,2.2-4.54,5.42-7.25,4.43-2.46-.91-4.26-.61-6.44-.02-1.92.52-2.2-1.63-3.43-2.65.02,1.14.21,2.04.43,2.75.94,3.01-.22,5.97.05,8.97.27,2.99.26,6.04.22,9.03-.06,4.61-.02,8.92,2.73,13.03,2.02,3.02,4.93,4.96,7.36,7.46.69.72,2.13,1.04,3.2.99,2.53-.1,4.1.92,4.97,3.25.56,1.49,1.31,2.82,3.07,3.22.31.07.63.47.8.8,2.29,4.45,3.78,4.89,8.21,3.16,2.77-1.09,5.36-2.68,8.54-3.41-.94,2.13-3.81.9-4.59,3.33,4.07-.41,6.79-3.18,9.95-4.93,3.08-1.71,6.95-2.05,9.19-5.41-.38,2.33-2.21,3.85-2.6,6.35,1.53-1.1,2.1-2.6,3.12-3.53,1.49-1.37-.29-2.86.75-4.36.86,2.03,1.67,3.6,0,5.49-.81.91-1.55,2.04-2.46,2.76-2.88,2.26-4.87,5.43-7.88,7.51-.55.38-1.48.49-1.73.98-1.18,2.27-3.35,3.23-5.57,4.82.42-1.45,1.15-2.56,0-3.54ZM67.81,385.97c.07.03.14.06.22.09-2.66-4.12-6.5-7.19-9.47-11.07-.16,1.44,1.97,2.19.59,3.73-.74-.52-1.41-.98-1.45-2.1-.02-.59-.7-1.17-1.13-1.72-.57-.73-1.33-.5-1.9-.12-.88.58,0,1.05.27,1.52.52.93,1.68,1.48,1.39,2.94-1.7-2.04-3.39-4.08-5.09-6.12.93,3.32,2.98,5.79,5.56,7.86.16.13.56.26.59.22,1.35-2.09,1.85.19,2.44.61,2.03,1.45,3,3.97,5.2,5.31.71.43,1.76,1,.71,1.93-.76.67-1.73,1.74-2.8.05-.83-1.3-2.22-2.27-2.91-3.62-.79-1.54-2.24-1.83-3.46-2.63,2.03,3.84,5.63,6.37,8,9.91-6.12-5.29-10.93-11.85-16.99-17.76-.28,6.68-.6,12.86-.8,19.04-.32,10.02-.59,20.04-.81,30.06-.21,9.56-.4,19.12-.44,28.68-.03,8.7.06,17.4.27,26.09.11,4.52-1.35,8.84-1.28,13.33.03,2.45-.53,2.69-2.81,1.58-1.91-.93-3.49-2.57-6.13-2.92,1.74,2.39,4.11,3.44,5.88,5.2-6.31-1.24-9.58-6.81-14.52-10.52.51,1.64,1.76,2.58,1.68,4.24-.58-.38-1.03-.89-1.3-.8-.68.21-.41.91-.36,1.43.58,6.66,1.77,13.24,3.25,19.72,2.1,9.23,5.22,18.19,8.39,27.12,3.23,9.08,6.37,18.19,9.61,27.27,3.15,8.84,5.72,17.92,11.26,25.75,1.32,1.87,2.4,4.04,3.24,6.17,1.22,3.1,2.93,5.87,4.59,8.7,1.42,2.42,2.95,4.77,4.43,7.15-5.28-5.73-8.6-12.7-12.47-19.66-.37.95-.15,1.37.02,1.81,2.07,5.17,4.45,10.19,6.32,15.46,1.2,3.37,1.26,7.11,3.58,10.16,1.12,1.46,1.46,3.5,2.35,5.18,1.88,3.56,2.13,8.46,7.68,9.18.61-6.63,1.32-13.39,1.42-20.19.13-8.46.43-16.92.39-25.38-.04-7.81.16-15.67-1.93-23.32-.16-.58-.28-1.28-.11-1.84.66-2.18.12-4.17-.75-6.13-1-2.25-.76-4.15,1.18-5.86,1.7-1.5,3.3-3.13,4.84-4.79,1.02-1.11.94-1.72-.83-2.08-1.25-.25-4,1.17-3.46-2.18.01-.07-.52-.31-.8-.34-1.16-.12-1.08-.9-1.01-1.72.19-2.19.56-4.35.6-6.56.14-7.62-.99-15.17-1.11-22.78,0-.56-.24-1.15-.93-1.15-.86,0-.62.71-.69,1.21-.1.68.44,1.63-.87,1.9-.53-2.73,1.03-4.95,1.81-7.41-1.22.24-1.22,1.56-2.35,1.95,1.1-3.5-.51-6.95.21-10.4-.69-.44-1.37.83-1.95.18-.29-1.06.86-1.07.98-1.81-.86-.07-1.8,1.6-2.13.51-.36-1.18-1.17-2.16-1.32-3.42-.91-7.68-1.92-15.35-2.78-23.04-.5-4.43-1.11-8.88-1.09-13.32.04-10.4-.03-20.81.53-31.22.54-10.09,1.4-20.16,2.06-30.23.2-3.01.94-6.28-1.27-9.03ZM142.03,529.09c.89.42,1.11,1.07.55,1.88-.21.31-.72.74-.28.9,1.8.67,1.5,2.77,2.94,3.94.56-3.5.69-6.86.29-10.77-.48,1.16-.35,2.04-1.34,2.76.45-2.58.34-4.92.09-7.25.92-.76,3.41-1.05.89-2.89-.08-.06-.06-.29-.04-.43.47-2.99.94-5.98,1.44-8.97.13-.76.57-1.54.09-2.28-.78-1.21,1.33-2.19.2-3.39.08-.02.19,0,.22-.06.88-1.26.51-2.84,1.09-4.2.13-.3-.31-.57-.82-.52-1.74.17-.71,1.5-1.04,2.12-1.37,2.63-.68,5.48-1.34,8.13-1.03,4.15-.95,8.33-.64,12.54-1.6.38-1.8-1.02-1.8-1.84,0-2.95-.37-6.12.56-8.8,1.21-3.48,1.02-7.08,1.88-10.55.55-2.23.44-4.62.65-7.14-1.15.36-2.17.45-2.89.96-1.76,1.26-3.8,1.66-5.79,2.29-1.8.57-3.01,2.69-5.41,1.79-.67-.25-1.16.89-1.7,1.46-.34.36-.8,1.28-1.22.78-1.46-1.75-1.97-.09-2.78.61-.91.78-1.84,1.54-3.11,2.61.56-2.39-.24-2.05-1.46-1.32-.9.53-1.17,1.93-2.58,1.77-1.73-.2-2.93.92-4.09,1.95-.9.8-1.11,3.04-3.1,1.34-.07-.06-.46.13-.6.3-1.24,1.5-3.62,1.53-4.5,3.5-.11.25-.48.58-.68.55-2.84-.41-4.49,1.21-5.87,3.34-.84,1.31-1.31.71-1.65-.78-.76,1.51-1.17,2.86-2.36,3.59-.59-.54.19-1.22-.59-1.71-.72,1-1.42,2.03-2.18,3.01-.39.5-.38,1.63-1.34,1.28-.65-.24-.95-1.02-.67-1.82,2.71-3.4,4.93-7.15,7.44-10.68,5.72-8.05,6.33-9.09,5.91-11.18-3.49,3.98-5.67,8.78-8.71,12.99.19-1.42,1.64-2.3,1.45-4.08-3.09,3.64-5.36,7.57-7.97,11.24-.75,1.05-1.57,2.27-.03,3.61.26-1.54,1.13-2.62,2.3-4.15-.17,1.13-.25,1.73-.34,2.33-.25,1.56-1.78,2.8-1.25,4.54,1.11,3.66,2.46,7.28,3.93,10.75,1.93,4.58,3.71,9.24,5.84,13.74,1.71,3.6,3.24,7.28,4.84,10.93,1.37,3.13,2.72,6.27,4.09,9.4-1.56-1.86-2.52-4.07-3.74-6.05-2.39-3.88-3.76-8.2-5.98-12.15-2.02-3.58-3.22-7.75-4.93-11.6-1.89-4.25-3.63-8.58-5.4-12.88-.19-.47,0-.76-.79-.42-1.42.6-1.89.03-1.12-1.41.29-.53.48-1.17-.1-1.81-2.42,2.33-3.42,5.56-5.36,8.17-.15.21-.2.68-.07.88,1.96,3.07.45,6.47.95,9.68.12.77-.17,1.7.8,1.99,1.6.48,2.62,2.08,4.67,1.87,1.6-.17,2.17,1.45,1.24,2.93-.8,1.28-1.58,2.63-2.26,3.91-.7,1.31-2.92,2.48-1.29,4.8-1.24-1.29-2.23-1-3.41-.28-1.34.81-1.22,1.88-.95,3.05,1.14,5.05,1.17,10.24,1.8,15.35.07.58-.25,1.45.43,1.56,2.01-4.1,1.21-8.49,2.03-12.68.44.65.68,1.26.6,2-.45,4.12-.34,8.26-.49,12.39-.32,8.47.7,16.9.3,25.36-.27,5.76.59,11.47.19,17.28-.5,7.11-.62,14.25-1.63,21.32-.44,3.13-.53,6.38-1.96,9.28-1.95,3.96-1.03,6.19,3.13,7.34,1.13.31,1.72.28,1.79-1.19.06-1.29.26-2.77,2.08-3.28-.17,1.4-.25,2.65-.49,3.86-.35,1.81.56,2.87,2.02,3.55,6.11,2.83,12.25,5.61,18.36,8.44,1.47.68,2.89,1.47,4.33,2.21-1.47.15-2.75.06-4.02-.39-6.55-2.33-12.69-5.56-18.91-8.61-.83-.41-1.41-.6-1.83.5-.38.99-1.12,1.78-1.43,2.87-.94,3.32-1.67,6.69-2.89,9.94-.83,2.2-.09,4.51-.3,7.05,1.44-.85,2.01-2.08,3.34-2.04.28.66-.27.9-.49,1.26-.98,1.59-1.54,3.05,1.11,3.46,2.07.32,3.39,2.09,5.54,2.6,2.1.5,3.99,2.3,6.05,3.41,3.76,2.02,7.45,4.18,11.22,6.18,3.2,1.7,3.23,1.64,4.48-1.66.33-.88.68-1.75.99-2.64,2.16-6.08,3.23-12.45,4.98-18.64,2.92-10.33,4.88-20.91,7.37-31.36,1.78-7.46,2.97-15.08,4.56-22.59,2.11-9.97,4.83-19.81,6.6-29.87,2.14-12.15,4.65-24.23,6.99-36.34.13-.68.27-1.4.17-2.06-.55-3.59-1.57-7.15-1.61-10.74-.02-1.71-.51-2.71-1.38-3.88-1.27-1.71-1.2-4.06-2.85-5.69-.75-.74-.1-1.94,1.16-2.28h-.08ZM128.15,328.07c1.16,2.45,2.27,4.92,3.49,7.34,1.18,2.33,2.17,4.8,4.36,6.96-.34-4.13-3.43-7.36-2.34-11.85,1.78,5.42,3.39,10.41,5.07,15.38.83,2.45.89,2.42,2.77.51.36-.37,1.11-.61.57-1.25-.36-.42-.86-.05-1.25.21-.3.2-.58.57-1.19-.05,1.95-1.46,3.45-3.63,6.35-2.98.63.14,1.06-.09,1.52-.38,1.58-.99,3.19-1.91,4.64-3.11,5.2-4.29,9.61-9.42,14.69-13.82,1.81-1.56,1.58-3.06,1.41-5.02-1.15,1.17.13,2.79-1.11,4.03-.34-4.46-.89-8.64-.92-12.82-.04-4.67-.8-9.26-1.03-13.91-.22-4.43-.59-4.4,3.25-6.57.44-.25,1.1-.28,1.28-1.24-2.22-.57-3.6-2.78-6.08-3.11-1-.13-1.25-.78-.71-1.72,1.04-1.83,1.94-3.84,1.96-5.87.02-2.39,1.61-4.02,2.22-6.12.73-2.52,1.95-6.65,1.67-9.18-.07-.59.62-.74.71-1.11.58-2.45,2.87-4.51,1.68-7.35-.07-.17-.31-.27-.39-.34-.91.15-.27,1.5-1.57,1.4.5-1.87,1.32-3.81.07-5.53-1.07-1.47-1.85-3.08-2.55-4.69-1.46-3.35-4.19-5.97-5.31-9.51-.5-1.59-1.19-3.63-2.03-4.47-1.51-1.52-2.25-3.47-3.59-5.03-1.18-1.37-1.76-1.08-2.8-.37-2.55,1.74-4.49,3.98-5.82,6.8-.49,1.04-.69,2.26-1.61,3.08-2.81,2.51-4.63,5.83-7.97,8.07-2.88,1.93-5.52,3.86-8.95,4.46-.54.1-1.04.27-.89.81.58,2.06,1.53,3.93,2.98,5.53,1.07,1.18,2.19.26,3.29.12,1.42-.17,2.7-.74,3.96-1.42,1.45-.77,2.64,0,2.61,1.65-.02,1.13-.85,2.04-.99,3.1-.42,2.97-2.87,2.7-4.74,2.84-1.93.15-4.16.25-4.93-2.46-.34-1.19-1.13-2.36-2.28-2.9-1.96-.93-3.06-2.64-4.17-4.29-.81-1.21-1.56-1.39-2.91-1.12-1.82.37-3.71,1.19-5.55.54-2.16-.76-4.34-.83-6.56-.85-.42,0-1.19-.27-1.21-.47-.23-2.68-3.38-5.1-.76-8.05.21-.24.15-.71.21-1.02.62-.18.52,2.03,1.5.34.43-.73,1.09-1.15,1.98-.65.31.18.57.26.71-.2.81-2.56,1.97-4.89,4.27-6.47.52-.36.5-1.01.39-1.52-.38-1.84.26-3.46.63-5.23,1.2-5.8,3.04-11.36,5.49-16.7,2.51-5.46,3.98-11.37,7.46-16.4,2.75-3.98,4.85-4.66,9.39-2.57,2.96,1.36,4.34.93,5.79-1.92.59-1.17,1.1-2.4,1.48-3.66.42-1.38.49-2.67-1.68-2.02-.42.13-1.22.39-1.28-.08-.26-2.11-2.16-1.55-3.28-2.03-3.66-1.56-6.59-4.33-10.21-5.92-.93-.41-1.58-.6-2.09.5-1.23,2.69-2.5,5.35-3.72,8.03-1.3,2.85-2.55,5.73-3.82,8.59-.07-2.17,1.29-3.89,1.63-5.93-2.55,2.96-3.84,6.57-5.67,9.87-1.24,2.24-1.68,4.98-3.07,6.97-1.55,2.22-1.83,4.79-2.81,7.09-.82,1.92-1.92,4.08-2.02,6.34-.09,2.14-2.88,3.17-2.19,5.62.09.32-.39.47-.83.57-.79.19-1.58,1-1.46,1.65.25,1.34,1.19-.85,1.82.29-1.84,3.18-3.47,6.57-4.07,10.31-.25,1.57-.97,3.05-1.53,4.35-.68,1.56-.32,3.21-1.15,4.64-1.17,2.01-2.09,4.17-2.25,6.53-.23,3.39.06,6.72-.93,10.17-.58,2.02-2.03,4.63-.46,7.06.12.18-.22.44-.37.26-.91-1.09-.94-.07-1.06.44-.29,1.34-.13,2.96-.84,3.99-1.42,2.06-1.53,4.37-2.03,6.62-.65,2.96-1.05,5.99-1.82,8.92-.28,1.06-.56,2.01.02,2.89.75,1.15.44,2.18.12,3.27-.98.05,0-1.39-.96-1.16-.56.13-.56.85-.8,1.33-.91,1.8-.23,3.33.68,4.8.53.85.97,1.69,1.18,2.85-1.89-.3-1.5-2.74-3.66-2.95.14,6.59-1.75,12.79-3.09,19.08-.82,3.84-1.86,7.73-2.14,11.57-.48,6.61-1.99,13.04-2.58,19.6-.38,4.13-1.11,8.22-1.66,12.33-.11.85.2,1.89-.18,2.54-1.18,1.99-.72,3.52,1.26,5.1-1.42.34-2.7.64-2.72,2.1-.03,2.1-1.02,3.97-1.17,6.11-.37,5.36-1.4,10.67-1.95,16.02-.64,6.23-1.15,12.48-1.27,18.76-.17,8.94-.64,17.88-.57,26.82.04,6.1-.31,12.25.85,18.31.08.44.3,1.01-.39,1.13-.43.07-.7-.3-.78-.71-.09-.44-.14-.89-.25-1.59-.31,1.78.41,3.03.97,4.35.89,2.1.22,4.45.89,6.64.27.9.77,2.75.24,2.81-2.51.25-1.23,1.94-1.15,2.85.23,2.74.72,5.45,1.15,8.17.61,3.87,1.26,7.74,1.91,11.61.07.45.05,1.11.61,1.14.86.04.61-.74.62-1.23.05-1.98,1.12-3.77,1.06-5.81.28.5.35,1,.44,1.51.22,1.28-1.55,3.99,2.05,2.86.1-.03.36.11.38.22.68,2.41,1.78.98,2.82.33,1.02-.64,2.1-.91,3.49.11v-4.3c.38.24.58.29.62.4q1.5,4.26,5.69,2.08c.21-.11.39-.28.61-.35.26-.07.82-.25.7.21-.57,2.15.88.84,1.4.79,1.63-.15,3.25-.56,4.88-.61,3.76-.13,7.32-1.27,10.92-2.15,3.56-.87,7.06-2.03,10.51-3.26,1.07-.38,1.39.07,1.86.69-.36.73-.71,1.47-1.29,2.65,2.71-.99,5.07-1.83,7.51-2.44,5.04-1.27,9.97-3.01,14.88-4.74,2.04-.72,4.43-.93,5.76-3.05-.02,1.88,1.23.99,1.88.73,5.65-2.24,11.51-3.84,17.3-5.65,5.07-1.59,9.23-4.66,12.95-8.38.43-.43.36-.77.29-1.24-.62-4.19-1.2-8.38-1.84-12.56-.09-.62.3-1.62-.71-1.75-1-.13-.98.79-1.09,1.47-.05.31-.13.66-.51.67-.18,0-.48-.17-.53-.32-.22-.76-.68-1.62-.49-2.3.72-2.64-2.1-5.31.15-7.87-.95-2.18-.72-4.53-1.03-6.8-.39-2.83,0-5.64-.21-8.46-.24-3.29-.45-6.68-.61-10-.3-6.33-1.07-12.62,0-18.95.12-.7.24-1.4-.09-2.08-.72-1.47-.72-3.02-.59-4.61.14-1.71.81-3.64.26-5.08-1.3-3.37-.76-6.91-1.53-10.33-.66-2.92.94-5.98.35-9.19-.5.6-.47,1.73-1.47,1.25-.78-.37-.29-1.06-.13-1.65.38-1.43,1.3-2.71,1.28-4.24,0-.83.76-1.95-.12-2.41-.84-.44-1.92.03-2.83.58-4.33,2.64-9.14,4.33-13.5,6.95-2.86,1.72-2.69,1.46-1.7,4.36.91,2.66,2.56,4.45,4.77,5.97-1.06.48-1.92-.5-3.09-.36.92,1.21,1.98,1.94,3.04,2.72-5.02-1.12-8.83-4.14-12.12-7.98-2.47-2.44-4.75-5.05-6.8-7.86-.52-.71-1.09-1.57-2.19-1.57-1.47-4.15-4.82-7.21-6.49-11.27-.76-1.86-2.13-3.47-2.96-5.32-1.32-2.95-2.88-5.83-3.18-9.17,1.19,2.73,2.37,5.46,3.62,8.34.68-1.01-.44-1.89.39-2.77,1.32,3.67,2.64,7.26,4.5,10.63,1.87,3.41,4.12,6.5,7.07,9.19-2.95-3.85-4.46-8.19-5.12-13.03,1.01.41.93,1.78,2.27,1.92-1.89-4.83-4.54-9.05-7.11-13.31-.67-1.11-1-2.69-2.35-3.13-2.23-.73-2.87-2.52-3.37-4.43-.3-1.15-.65-2.26-1.37-3.22-.42-.56-1.02-1.26-.2-1.81.83-.56,1.26.36,1.66.86,1.15,1.45,2.24,2.95,3.52,4.66.07-.74.12-1.19.16-1.64,0,0-.06.05-.06.05ZM119.36,231.64c.04,2.61.54,4.63,1.41,6.47,1.27,2.66,2.95,5.11,4.12,7.85.4.95,1.05,1.96,2.7,1.67,5.45-.95,9.7-3.98,13.33-7.8,5.24-5.51,7.91-12.7,11.58-19.22.67-1.19,1.56-3.36.31-4.47-1.35-1.2-1.51-1.74-.4-3.09.66-.8.86-2,1.24-3.02,2.31-6.18,2.29-6.21-4.27-7.97-.33-.09-.59-.47-1.05-.14-2.75,1.93-5.26,4.13-7.63,6.51-3.03,3.04-6.44,5.7-9.25,8.98-2.72,3.17-6.21,5.64-8.64,9.05-1.28,1.8-2.98,3.41-3.44,5.18ZM68.01,713.29c-1.21-.38-2.82.49-3.86,1.64-.97,1.06-1.71,1.82-3.15,2.51-3.62,1.73-6.85,4.3-10.23,6.53-.4.26-.97.63-.77,1.06.67,1.46.14,3.19,1.45,4.59,1.66,1.77,3.58,3.35,4.97,5.28.91,1.26,1.51,2.33,3.17,2.06,1.96-.32,3.75.14,5.4,1.13,1.85,1.1,3.84,1.23,5.91,1.03,6.34-.6,12.51-1.95,18.52-4.05,1.77-.62,3.42-3.18,2.83-4.97-1.28-3.87-3.9-6.8-6.85-9.56-4.76-4.45-10.31-6.79-17.39-7.25ZM93.72,729.37c.95-.46,1.09-1.28,1.44-1.93,2.21-4.06,4.4-8.13,6.58-12.21,2.62-4.9,5.21-9.82,8.21-14.51.46-.73,1.1-1.5-.31-1.98-3.99-1.35-7.69-3.27-11.39-5.31-3.65-2.02-7.74-3.27-11.64-4.84-.99-.4-2.2-.62-2.76.37-1.3,2.29-2.92,4.35-4.31,6.57-.18.29-.36.63.09,1,.96.8.96.9.04,1.39-.5.26-.92.54-1.27.98-2.16,2.68-4.35,5.33-6.5,8.01-.99,1.24-1.93,2.53-2.83,3.72,5.02,1.99,10.24,1.19,15.17,2.59,5.05,1.44,8.05,4.69,8.74,9.85.28,2.06.34,4.17.74,6.32ZM132.71,162.25c-1.38,2.59-2.77,5.18-4.14,7.78-.21.4-.47,1.22-.45,1.23,1.7.71,1.43,3.09,3.34,3.76,1.34.47,2.38,1.75,3.67,2.46,1.1.6,2.05,1.68,3.65,1.13,1.77-.6,3.74-.64,5.45-1.35,2.05-.85,4.78-.94,5.57-3.66,1.34-4.67,2.59-9.36,3.84-14.06,1.24-4.67,1.64-9.53,2.88-14.17,1.41-5.29-.44-10.3-.45-15.44,0-.21-.16-.44-.29-.64-.39-.58-.94-1.29-1.55-1.17-.58.12-1.13.85-.22,1.51,0,0-.19.41-.37.51-2.18,1.27-2.66,3.76-4.06,5.56-1.31,1.68-.98,4.4-3.44,5.28-.01,0,.1.27.11.42.12,1.59-1.77,4.89-3.12,5.41-.19.07-.54.13-.6.05-.97-1.48-.81.16-.72.31.53.81.55,1.47-.01,2.33-1.4,2.16-1.92,4.86-4.09,6.55-.27.21-.29.71-.47,1.05-2.44,4.63-4.89,9.26-7.34,13.88-.02-3.31,2.87-5.48,2.82-8.75ZM171.07,303.49c.03,4.46.3,8.89,1.53,13.21.56,1.94,1.35,2.04,2.67.58,2.14-2.37,4.36-4.66,6.53-7.01,1.63-1.77,3.5-3.53,1.03-6.02-.37-.38.08-.69.12-1.03.24-2.17-.43-4.61-1.73-5.76-1.39-1.22-2.22-3.16-4.16-3.8-.35-.11-.73-.77-.48-1.22.67-1.19-.24-1.79-.87-2.38-1.23-1.14-1.02-1.73.53-2.2,2.82-.86,4.38-2.61,4.27-5.79-.05-1.43-.96-2.39-1.32-3.63-.52-1.76-1.38-3.65-3-4.85-1.97-1.46-1.94-1.95.39-3.15.43-.22,1.13-.62.94-.86-.7-.89-1.34-2.01-2.46-2.38-.98-.33-1.25.66-1.59,1.37-2.15,4.52-4,9.17-5.65,13.89-.99,2.82-.83,3.13,2.01,4.38,1,.44,1.95,1.04,2.97,1.4,1.53.54,1.84,1.18.36,2.14-1.31.84-1.92,2.26-2.01,3.56-.23,3.18-.08,6.38-.08,9.57ZM157.16,152.14c-.13,2.52-.2,4.87-.94,7.26-1.19,3.8-1.96,7.73-3.02,11.57-.37,1.35-.07,1.81,1.32,1.96,2.3.24,4.49-.21,6.72-.61,3.26-.58,3.36-.65,2.51-3.92-.62-2.4-1.56-4.84-2.01-7.15-1.02-5.14-.85-10.51-1.16-15.79-.07-1.22-.73-1.8-1.94-1.88,1.79,3.47-.91,6.48-.63,10.38-.47-1.02-.66-1.42-.85-1.82ZM58.55,210.22c2.37.62,2.93-.58,3.25-2.53.91-5.54,1.95-11.06,3.04-16.58.35-1.75-.43-2.12-1.87-1.91-1.55.22-3.07.59-4.62.76-1.58.17-2.13,1.09-2.15,2.52-.04,2.58-.15,5.17-.08,7.75.1,3.9-.35,7.79.49,11.7.63,2.91,2.69-.61,3.38,1.05,0,.02.49-.07.57-.2.08-.15-.01-.44-.09-.64-.33-.9-.72-1.76-1.92-1.91ZM14.43,252.31c2.38-2.38,4.67-5.03,6.02-8.15,1.52-3.5,2.91-7.07,4.52-10.53.52-1.12.42-2.77.94-3.29,1.95-1.96,2.15-4.13,1.81-6.57-.04-.29.02-.44.31-.47,2.55-.21,2.15-2.68,2.38-3.96.86-4.75,2.48-9.29,3.43-13.98.4-1.97,1.28-3.93.96-6.34-6.37,18.13-13.22,35.7-20.38,53.3ZM43.64,559.05c-.97-4.24-2.17-8.44-3.51-12.55-2.49-7.64-5.85-14.99-7.57-22.9-.54-2.49-1.15-3.18-2.59-3.52-.06-.01-.12-.11-.13-.18-.23-1.22-2.14-2.26-.46-3.75.6.52-.22,1.35.5,1.73.14.07.52-.04.58-.16.33-.72.07-1.38-.33-1.99-.5-.77-1.41-1.49-1.49-2.3-.48-4.62-1.14-9.21-2.05-13.77-.13-.64.63-1.52-.73-2.12-.69,4.51.07,8.85-.09,13.17-.16,4.27,2.82,7.72,3.71,11.8.43,1.99.65-.73,1.46-.23-.54,2.54.29,4.9,1.2,7.4,1.87,5.11,3.12,10.42,5.51,15.38.68,1.4,2.15,2.47,2.18,4.03.09,3.8,2.82,6.52,3.81,9.95ZM159.95,188.91c-.13-.67-.81-.66-1.27-.78-1.74-.46-3.5-.89-5.27-1.21-1.91-.35-4.16-2.03-5.53-1.09-1.43.98-1.69,3.57-2.65,5.36-1.09,2.02-.14,2.88,1.66,3.18,1.09.18,2.1-.01,2.82,1.25.51.91,1.32.16,1.98-.29,2.45-1.65,4.49-3.89,7.25-5.11.54-.24.85-.68,1.01-1.3ZM183.96,267.12c9.64-2.23,19.04-5.4,28.99-6.28-3.72-2.34-7.62-3.3-11.76-2.33-6.38,1.5-11.82,5.01-17.24,8.61ZM115.22,249.78c1.68-.03,3.16.04,4.63-.31,1.88-.45,2.47-1.69,1.21-3.08-.96-1.07-1.54-2.27-1.98-3.57-.74-2.15-1.4-4.34-2.19-6.47-.25-.66-1.09-1.79-1.55-.52-.59,1.63-2.09,2.23-2.93,3.52-.67,1.04-.73,2.02-.35,2.88.56,1.26,1.33,2.55,2.34,3.46,1.36,1.21,1.26,2.47.82,4.1ZM160.07,132.47c1-2,.64-3.77,2.57-4.49.51-.19,1.1-2.24-.46-2.93-4.37-1.93-8.42-4.39-12.19-7.32-.34-.26-.94-1-1.51-.16-.5.74-.1,1.24.44,1.79,1.5,1.54,3.57,2.24,5.25,3.56,1.57,1.22,1.98,2.88,3.07,4.21.91,1.1,3.15,1.63,2.06,3.88-.1.21.34.68.77,1.46ZM84.95,147.08c-1.01.15-1.14,1.72-2.43.86,1.04-1.3.97-2.86.97-4.41,0-.41-.33-1.28.17-1.18,1.62.31.77-.81.63-1.12-.4-.93-1.06-.4-1.45.01-.85.88-1.96,1.3-2.99,1.83-1.4.72-1.59,1.6-.6,2.74,1.68,1.96,2.93,4.18,4.22,6.4.62,1.06.67,2.4,1.71,3.64-.01-3.17.3-5.96-.24-8.75ZM238.57,288.68c.72-3.46-.13-6.78.66-9.8.63-2.42-.16-3.41-1.91-4.42-.39-.23-.7-.72-1.2-.38-.38.26-.16.71-.15,1.09.11,2.96.12,5.93.36,8.88.13,1.61.6,3.22,2.24,4.64ZM62.71,168.22c.03,2.42,1.23,3.13,3.29,1.97,1.28-.72,3.03-4.3,2.77-5.64-.06-.32-.14-.54-.52-.65-2.46-.68-5.58,1.73-5.54,4.32ZM139.34,179.67c2.38,1.04,4.43,1.93,6.47,2.84.75.34,1.21-.01,1.51-.63.51-1.04.69-2.2,1.36-3.21.21-.31.49-1.97-.84-1.39-2.6,1.14-5.5,1.02-8.5,2.39ZM126.52,489.94c-3.85,3.58-6.85,7.8-9.52,12.27,5.54-2.28,6.6-7.99,9.52-12.27ZM83.05,636.37c-.66-5.52,1.28-10.98-.35-16.39-.28,1.15-.22,2.34-.5,3.46-.79,3.12-.24,6.35-.99,9.48-.3,1.24-.76,3.21,1.84,3.45ZM44.92,395.74c.23.02.45.04.68.07.33-6.77.65-13.54.99-20.32.05-.92.38-2.22-.92-2.22-1.05,0-.76,1.27-.76,2.1.01,6.79,0,13.57,0,20.36ZM122.36,489.73c-3.58,4.76-6.97,9.63-10.25,14.85,1.35,0,2.09-.59,2.6-1.35,1.3-1.94,2.51-3.94,3.75-5.92,1.14-1.83,2.02-3.93,3.52-5.38.91-.89,1.69-1.07.37-2.2ZM200.32,289.23c-2.55,1.66-5.61,3.04-8,5.46-.37.38-.92.77-.42,1.38.52.64,1.13.46,1.63-.02,2.27-2.17,5.21-3.33,7.69-5.19.35-.26,1.02-.26.89-.88-.16-.71-.89-.44-1.79-.75ZM227.4,262.87c.93-1.79,1.37-3.29,2.29-4.56.69-.95.29-1.79-.73-2.28-.84-.41-1.71-.74-2.56-1.12-1.03-.46-1.24.05-1.18.95.16,2.38,1.37,4.39,2.17,7.01ZM8.66,351.39c0,1.21,0,2.42,0,3.63-.03,4.62-.07,9.24-.09,13.86,0,.51-.17,1.21.6,1.31.45.06.63-.35.65-.79.09-2.8.71-5.72.15-8.39-.68-3.21-1.07-6.35-1.31-9.62ZM145.55,72.58c1.53.41,3.32,1.49,3.64-1.03.26-2.13.94-3.67,2.98-4.4-1.74-2.64-3.66-1.84-5.63-.69q2.34,2.65-.98,6.12ZM138.71,48.91c-3.97-1.03-7.28-2.23-10.42-3.86-.37-.19-1.07-.75-1.31.2-.13.52-.12,1.11.47,1.45,3.3,1.89,6.61,3.75,11.25,2.21ZM95.26,496.66c-.33-.2-.65-.39-.98-.59-2.66,5.22-6.16,9.97-8.07,15.63,3.02-5.01,6.04-10.03,9.05-15.04ZM87.7,141.35c3.84-2.42,6.41-6.19,9.93-8.92.36-.28.4-.69-.02-.96-.41-.26-.65.04-.97.34-1.29,1.23-2.52,2.57-3.99,3.55-2.28,1.52-3.22,4.06-4.96,6ZM134.86,259.96c.46-.03.86-.03,1.24-.1,1.55-.28,2.23-1.42,1.86-2.75-.46-1.65-1.59-.5-2.45-.21-.74.25-1.46.56-2.21.74-.6.14-1.32.03-1.28.95.03.78.72.99,1.28,1.18.51.17,1.08.14,1.56.19ZM207.32,257.68c2.64-.46,4.43,1.3,6.46,2.32,1.03.51,1.88.56,2.45-.35.66-1.06-.45-1.53-1.1-1.92-2.54-1.52-5.18-1.2-7.8-.05ZM113.12,497.08c-3.25,3.5-5.7,7.6-8.08,11.75,3.69-3.2,5.77-7.53,8.08-11.75ZM22.73,495.06c-.2.02-.41.04-.61.06-.18,4.77.04,9.5,1.98,14.07-.46-4.71-.91-9.42-1.37-14.13ZM27.16,305.77c-.56.88-1.11,1.48-1.38,2.19-1.09,2.88-4.49,5.14-2.42,8.92,1.92-1.45-.07-3.78,1.39-5.5,1.24-1.46,3.4-2.76,2.41-5.61ZM91.71,726.55c.32-2.47-.17-4.18-.54-5.89-.13-.62-.67-1.29-1.28-1.13-.67.18-1.64.1-1.99.84-.3.64.34,1.14.79,1.54,1.24,1.1,2,2.53,3.01,4.64ZM47.13,351.5c-.71,3.33-1.49,6.64-1.32,10.05.02.43.25.83.65.86.67.06.65-.55.66-.99.02-3.31.01-6.62.01-9.93ZM94.34,492.73c-2.61-.17-4.95,1.15-7.47,1.44-.34.04-.65.15-.59.54.07.44.42.36.79.47,2.32.69,4.23-1.22,6.5-.9.57.08.96-.69.77-1.55ZM143.43,362.33c-.86-2.39-1.9-4.1-2.24-6.05-.12-.67-.54-1.32-1.25-1.5-.22-.06-.62.38-.85.66-.55.65-.4,1.57.1,1.91,1.73,1.15,2.17,3.34,4.24,4.99ZM184.43,107.38c-1.05-.23-2.08-.27-2.96-.84-.49-.31-.91.02-1.29.28-.54.38-.24.86,0,1.23.61.97.83,2.53,1.97,2.72,1.12.19.89-1.42,1.41-2.14.26-.37.89-.41.87-1.25ZM70.18,382.16c-.47-2.67-1.57-4.6-3.48-6.03-.38-.29-1.06-.48-1.48.1-.25.35-.12.87.17,1.08,1.78,1.27,2.62,3.46,4.79,4.85ZM52.15,284.06c.5-3.87.99-7.74,1.5-11.61.07-.53.36-1.17-.53-1.23-.66-.04-.69.5-.7.98-.1,3.98-.73,7.94-.26,11.85ZM152.2,127.19c-2.13-2.83-4.79-4.99-7.7-6.85,2.28,2.64,4.5,5.32,7.7,6.85ZM119.03,486.62c-2.58.2-4.34,1.54-6.29,2.38-.52.22-.61.66-.44,1.16.16.48.67.58.95.41,1.87-1.19,4.58-1.1,5.78-3.94ZM78.98,501c1.39-.94,1.32-2.5,1.79-3.78.24-.65.36-1.48-.75-1.56-.86-.06-1.6.13-1.62,1.21-.02,1.38-.08,2.77.59,4.12ZM69.42,624.07c-.12.02-.24.04-.35.06.08,1.22.28,2.44.2,3.65-.15,2.49.14,2.89,2.93,3.13-.94-2.32-1.86-4.58-2.78-6.84ZM8.83,371.5c-.31-.05-.27.36-.27.63.05,2.41.13,4.82.19,7.23,0,.33.09.72.46.62.33-.09.8-.38.87-.66.33-1.37.55-2.8-.16-4.1-.49-.9-1.22-1.57-.17-2.64.53-.54-.16-.91-.94-1.09ZM57.05,188.15c3.21,1.05,7.7-.1,8.47-1.92-2.88.65-5.67,1.29-8.47,1.92ZM144.52,485.2l-.6-.41c-1.96,2.93-3.93,5.86-5.89,8.79l.71.48c2.75-2.4,3.55-6.12,5.78-8.87ZM98.44,495.54c-2.45,1.53-6.35,7.63-6.63,10.38,2.28-3.58,4.33-6.79,6.63-10.38ZM83.99,667.93c.24.01.47.03.71.04.43-2.21.88-4.41,1.29-6.62.1-.57-.04-1.15-.71-1.28-.49-.1-.68.31-.72.72-.2,2.38-.38,4.76-.57,7.14ZM110.95,129.98c-2.82-2.07.18-5.04-1.42-7.39-1.32,2.78-2.53,5.43,1.42,7.39ZM59.81,713.18c.1.22.21.44.31.65,2.04-1.35,4.07-2.71,6.12-4.04.43-.28,1.23-.32.61-1.08-.36-.45-.79-.1-1.23.1-2.27,1.04-3.76,3.07-5.81,4.37ZM234.19,274.79c.23-1.46-.22-2.25-1.34-2.69-.45-.18-1.01-.5-1.28-.06-.63.98.36,1.71.61,2.56.04.15.09.32.2.42.5.45.32,1.67,1.2,1.49,1.05-.2.48-1.31.6-1.72ZM180.87,466.66c-2.31,1.32-2.98,3.88-5.14,4.9,4.14-.65,4.81-1.26,5.14-4.9ZM156.47,338.69c-2.9,1.03-4.67,3.55-7.03,5.32,2.84-1.1,5.34-2.65,7.03-5.32ZM39.38,165.07c-.3-1.25-.48-2.54-.93-3.74-.65-1.75-1.52-3.42-.08-5.19.06-.07-.12-.49-.24-.52-.27-.07-.64-.09-.86.05-.76.46-.52,1.25-.47,1.92.22,2.66,1.2,5.11,2.58,7.48ZM77.23,160.62c2.15-.47,3.74-.82,5.35-1.16.84-.17,1.01-.79.79-1.42-.3-.85-.95-.57-1.5-.21-1.36.88-3.09,1.11-4.64,2.79ZM55.61,39.85c-1.31,2.43-.47,5.17-1.41,7.62-.22.56-.45,1.14.31,1.29.88.17.59-.72.73-1.15.85-2.55.24-5.18.37-7.76ZM111.76,248.46c-.01-.86-2.07-2.88-2.99-2.95-.75-.06-.69.5-.64.93.2,1.73,1.88,1.86,2.96,2.63.37.26.69-.13.68-.61ZM89.64,497.28c-1.66,2.6-3.56,5.07-4.3,8.15,1.99-2.43,3.49-5.1,4.3-8.15ZM50.38,178.22c-.72,2.42.68,3.66,1.87,4.97.29.32.79.71,1.21.27.35-.37.16-1.12-.13-1.28-1.53-.84-1.49-2.79-2.96-3.96ZM75.27,166.88c3,2.43,3.55,2.39,4.73-.44-1.62-.17-3.17-.4-4.73.44ZM31.04,304.82c.58.04,1.18,1.22,1.67.09.87-2,1.57-4.07,2.34-6.12l-.57-.23c-.45,1.02-1.51,1.75-1.53,2.95-.03,1.43-.97,2.2-1.91,3.3ZM61.13,171.99c-.38-1.92-.39-3.8.11-5.67.09-.36.41-.77-.22-.88-.44-.08-1.1-.16-1.11.47-.02,2.09-.47,4.29,1.22,6.08ZM71.96,672.95c-1.15,1.97-1.68,9.09-1.12,10.17.37-3.32.74-6.74,1.12-10.17ZM103.03,130.05c-.06.33-.44.79.19.91.53.1.88-.19.96-.77.23-1.78.47-3.55.73-5.32.05-.36,0-.67-.36-.71-.43-.05-.81.19-.76.67.18,1.81-.69,3.46-.75,5.23ZM9.15,387.24c1.39-1.39.08-3.12.81-4.59.19-.39.24-1.02-.4-1.12-.74-.12-.84.46-.92,1.04-.22,1.59.65,3.06.51,4.67ZM181.5,316.29c.1.07.2.14.29.21,1.32-1.48,2.66-2.94,3.94-4.46.41-.48.61-1.14.12-1.71-.15-.17-.57-.22-.83-.16-.82.19-.55.78-.39,1.3.28.87-.5,1.24-.88,1.78-.72,1.04-1.5,2.03-2.26,3.05ZM177.44,438.94c-.53,2.93.66,5.8-.12,8.71-.09.32.09.6.51.62.54.02.63-.27.58-.73-.33-2.87-.65-5.73-.97-8.6ZM178.34,267.42c.22-1.75.06-2.89-1.5-3.36-.55-.16-1.06-.43-1.44.19-.38.63.05.97.54,1.32.75.53,1.46,1.12,2.4,1.85ZM52.2,196.91c.04-2.36.61-4.73,0-7.43-1.31,2.73-.8,5.08,0,7.43ZM109.42,506.11c1.57-2.29,3.58-4.3,4.46-6.99-2.12,1.94-3.29,4.48-4.46,6.99ZM71.01,694.56v-6.9c-.75,2.3-.86,4.6,0,6.9ZM32.59,297.82c-1.21,1.65-2.43,3.29-3.7,5.01,2.76-.65,3.34-2.75,3.7-5.01ZM54.6,57.32c-1.23,2.17-1.1,4.54-.74,6.94.82-2.22-.33-4.73.74-6.94ZM159.45,138.33c.23,0,.45.01.68.02.17-1.43.36-2.86.49-4.3.04-.41-.19-.77-.65-.8-.37-.02-.51.27-.52.6,0,1.49,0,2.98,0,4.47ZM81.66,642.1c.04-1.13,1.05-1.99.7-3.15-.15-.49,0-1.23-.72-1.27-.72-.04-.82.66-.82,1.17,0,1.11,0,2.25.84,3.25ZM236.16,295.51c1.91-2.57,1.88-2.79-.44-3.99.11,1.29-.21,2.52.44,3.99ZM166.09,475.57c-4.2.61-4.85.86-6.04,2.2,2.28-.35,4.14-1.27,6.04-2.2ZM54.09,266.19c-1.62.8-1.15,2.14-1.35,3.23-.08.42.02.83.52.87.42.03.8-.22.82-.67.04-1.09.01-2.17.01-3.43ZM81.01,519.51c-.89-2.44.98-4.21,1.52-6.3-2.4,2.58-2.66,3.54-1.52,6.3ZM97.26,725.49c2.3-1.55,3.26-3.59,3.11-5.67-1.08,1.97-2.1,3.82-3.11,5.67ZM148.89,491.74c-.91.17-.8,1.56-1.93,1.08-.41-.17-.85.72-.44.95,1.29.72.73,1.74.65,2.78,1.33-1.35,1.05-3.14,1.71-4.81ZM9.1,348.04c.26-1.41.52-2.82.77-4.23.05-.3.18-.68-.2-.81-.43-.15-.64.17-.85.54-.82,1.47.13,2.97.28,4.49ZM82.15,552.19c2.64-.46,3.31-1.35,2.5-3.45-.16,1.61-2.08,1.73-2.5,3.45ZM55.03,102.81c1.02,1.37,2.08,2.02,3.4,2.12.43.03,1.24.11,1.19-.7-.03-.52-.57-.62-1.05-.7-1.07-.19-2.13-.42-3.54-.71ZM82.21,497.21c.97-1.65,1.87-2.25,3.07-.47.12-1.43-.11-2.1-1.28-2.13-1.29-.03-1.83.63-1.79,2.6ZM103,506.06c-1.25,1.93-2.51,3.87-3.76,5.8,1.68-1.67,3.21-3.42,3.76-5.8ZM89.17,502.54c1.33-1.78,2.56-3.61,3.04-5.8-1.33,1.77-2.55,3.6-3.04,5.8ZM85.31,498.54c-2.6.37-2.6,2.47-3.02,4.3.9-1.5,1.89-2.93,3.02-4.3ZM8.74,394.4c.27,0,.53-.02.8-.03-.52-1.78-.13-3.62-.8-5.39v5.42ZM105.89,502.23c1.74-1.24,3.37-2.36,1.79-4.75.9,2.13-2.1,2.68-1.79,4.75ZM159.2,69.18c.44-2.06.86-4.11-.07-6.15-.26,2.05.36,4.1.07,6.15ZM83.13,715.35c1.27,1.17,2.61,2.3,4.9,2.27-1.57-1.39-3.19-1.87-4.9-2.27ZM78.53,639.78c.26-1.41.55-2.79-1.07-3.64-.28-.15-.65-.31-.81.02-.15.32-.09.75-.12,1.13,1.9-.16.79,2.04,2,2.49ZM51.28,102.14c-1.11-.6-1.93-1.53-2.53-2.81q-1.07,2.1,2.53,2.81ZM88.73,133.9c1.36.47,2.35.32,3.15-.65.31-.38.58-.82.05-1.2-.4-.28-.97-.44-1.05.27-.15,1.23-1.39.8-2.14,1.58ZM114.84,124.24c1.7-.58.84-2.03,1.24-3.05.21-.53.29-.93-.39-.96-.62-.03-1.23.45-.88.98.71,1.07.28,1.97.03,3.03ZM167.57,308.96c-.8,1.43-.33,2.82.1,4.21.74-1.41.4-2.8-.1-4.21ZM78.8,654.61c1.07-2.6,1.21-4.03.64-5.36-.23,1.68-1.14,3.25-.64,5.36ZM146.63,343.57q-2.58-.48-3.48,2.55c1.15-.85,2.18-1.6,3.48-2.55ZM76.51,503.96q.19-3.04-1.24-4.38c-.36,1.57.84,2.55,1.24,4.38ZM60.13,41.85c.98-.93,1.7-1.6,2.51-2.37-1.93-.42-2.8.09-2.51,2.37ZM106.64,125.85c-.81.9-1.29,1.72-.82,2.79.12.28.45.54.72.22.68-.77.46-1.72.4-2.63,0-.06-.09-.12-.3-.38ZM8.54,397.89c-.59,1.64-.65,3.32-.53,5.47,1.37-2.06.19-3.82.53-5.47ZM180.37,288.04c-1.29-.19-2.19.03-2.72.84-.27.41.3.98.71,1,1.16.07,1.21-1.08,2.01-1.84Z"/>
      <path class="cls-1" d="M16,392.47c.58-1.01.19-1.82,1.63-1.86,1.54-.05,2.45-1.77,3.33-3.08,3.06-4.56,5.42-9.47,7.32-14.6,2.23-6.02,4.51-12.03,6.55-18.12,2.16-6.46,4.29-12.95,5.96-19.55.78-3.08,1.73-6.31.96-9.67-.2-.87-.29-2.51.78-2.62,1.12-.11.87,1.41.93,2.28.3,4.62-1.15,8.97-1.87,13.44-.43,2.66-2.81,4.64-2.1,7.5-2.84,3.79-2.57,8.73-4.81,12.8-1.75,3.19-2.25,6.94-3.64,10.34-2.52,6.17-5.01,12.33-8.75,17.88-1.47,2.18-2.96,4.42-6.29,5.25Z"/>
      <path class="cls-1" d="M104.64,4.77c-2.7,1.99-5.78,3.28-8.7,4.88-5.25,2.89-10.6,5.6-15.92,8.35-.56.29-1.37,1.14-1.82.33-.53-.94.73-.93,1.23-1.27,2.96-2.04,6.79-2.69,9.48-4.86,4.16-3.35,9.62-4.11,13.59-7.64.55-.49,1.67-1.39,2.19.27l-.07-.06Z"/>
      <path class="cls-1" d="M179.94,413.12c-.89-11.7-1.91-23.39-2.18-35.12.28-.02.55-.04.83-.05.74,11.72,1.48,23.43,2.22,35.15-.29,0-.58.02-.86.03Z"/>
      <path class="cls-1" d="M10.87,302.54c-1.25-.52-1.41-1.21-.88-2.13,2.56-4.43,5.12-8.86,7.69-13.29.23-.4.53-.77.84-1.12.23-.25.57-.31.82-.03.25.28.05.52-.11.81-2.18,3.86-4.83,7.43-6.61,11.54-.59,1.37-2.32,2.24-1.75,4.22Z"/>
      <path class="cls-1" d="M185.93,354.67c2.75-3.46,6.36-5.87,9.93-8.32.21-.14.9.41,1.4.66-3.84,2.57-7.66,5-11.33,7.66Z"/>
      <path class="cls-1" d="M104.7,4.84c.02-.31-.07-.82.07-.89,3.19-1.7,6.05-4.32,10.06-3.9.52.05,1.34-.03,1.32.65-.03.96-.96.67-1.48.55-2.47-.54-4.42.78-6.27,1.92-1.22.75-2.34,1.45-3.76,1.61,0,0,.07.07.07.07Z"/>
      <path class="cls-1" d="M176.77,366.33c.93.83,1.3,1.84,1.24,3.11-.08,1.75-.02,3.5-.17,5.29-1.01-2.69-.36-5.65-1.06-8.4,0,0,0,0,0,0Z"/>
      <path class="cls-1" d="M46.67,298.48c-.87-1.64.29-3.23.28-4.82,0-.43.63-.41.97-.21.75.43-.06.58-.12.87-.3,1.34.09,2.8-1.13,4.17Z"/>
      <path class="cls-1" d="M29.68,271.6c1.03,1.01,2.91,1.82.85,3.35-.29.21-.22.55-.05.84.18.31.62.68-.12.8-.46.08-.69-.19-.68-.68.02-1.43,0-2.87,0-4.3Z"/>
      <path class="cls-1" d="M48.3,289.32c-.76-2.14,1.56-3.47.45-5.16,0,0,.34-.34.51-.34.5,0,.62.41.59.82-.09,1.55-.63,2.94-1.55,4.68Z"/>
      <path class="cls-1" d="M25.24,531.12c.66,1.38,1.33,2.76,1.99,4.14-.2.1-.4.2-.6.3-.9-1.28-1.92-2.5-2.09-4.17.23-.09.47-.18.7-.27Z"/>
      <path class="cls-1" d="M192.57,128.2c-.06,2.13.42,4.23.51,6.34-1.53-2.01-.25-4.25-.51-6.34Z"/>
      <path class="cls-1" d="M48.33,578.2c1,.04,1.66.48,1.84,1.26.17.72,1.24,1.76.23,2.15-.93.36-.74-1.04-1.04-1.67-.28-.57-.65-1.11-1.03-1.74Z"/>
      <path class="cls-1" d="M210.82,154.94c-.15,1.48-.3,2.95-.45,4.43-.69-1.55-.9-3.05.45-4.43Z"/>
      <path class="cls-1" d="M12.49,314.78c.23,1.54,2.05,2.33,2.04,4.01-1.32-.5-1.75-1.31-2.04-4.01Z"/>
      <path class="cls-1" d="M48.74,222.19c.5,1.51-.24,2.86-.31,4.85-1.56-2.2.39-3.4.31-4.85Z"/>
      <path class="cls-1" d="M38.97,443.49c1.19,6.69.7,13.37.02,20.08-.49-1.74-1.43-3.39-1.57-5.08-.21-2.49-1-.5-1.7-.35-.1-1.41-.26-2.75,1.34-3.86.11,1.5,1.29,2.43,1.24,3.87.73-1.09-.04-2.01-.17-3.01-.45-3.43,1.03-6.8.47-10.27-.06-.4.3-.87.46-1.32,0,0-.09-.07-.09-.07Z"/>
      <path class="cls-1" d="M67.81,385.97c.63.99.17,1.93-.2,3.23-1.74-3.3-4.81-5.23-6.39-8.36,2.78,1.15,3.53,4.79,6.81,5.23-.07-.03-.15-.06-.22-.09Z"/>
      <path class="cls-1" d="M142.11,529.1c-.75-1.95-1.13-3.91-.23-6.07.95.78,1.97,1.2.69,2.58-.79.86.74,2.46-.54,3.48,0,0,.08,0,.08,0Z"/>
      <path class="cls-1" d="M126.38,418.38c2.35.68,2.55,2.2,2.34,3.77-.17,1.25-1.17,1-2.03.71-3.27-1.08-5.51-3.53-7.6-6.05-3.17-3.83-5.36-8.29-7.41-12.77-2.37-5.19-4.57-10.49-6.02-16.02-1.77-6.73-3.47-13.47-4.58-20.37-1.07-6.66-1.53-13.33-1.9-19.98-4.01,31.27,2.43,59,27.6,80.37-3.8-1.47-6.06-4.76-8.9-7.32-3.45-3.11-6-7.04-8.44-10.89-3.32-5.26-6.37-10.72-8.2-16.82-2.78-9.24-3.93-18.67-4.19-28.24-.22-8.17.82-16.23,2.36-24.24.4-2.08.54-4.21,1.02-6.31.72.84.51,1.76.42,2.63-1.78,17.16.9,33.8,5.82,50.18,2.9,9.67,6.65,18.96,12.29,27.39,1.79,2.68,3.79,5.22,6.72,6.8.64.34,1.45,1.24,2.03.53.51-.63.08-1.63-.58-2.31-.2-.2-.32-.47-.73-1.07Z"/>
      <path class="cls-1" d="M95.03,381.09c1.47,1.68,1.6,3.88,1.94,5.84.73,4.19,2.37,8.08,3.58,12.1,2.24,7.48,5.42,14.64,9.66,21.22,3.6,5.59,7.41,11.07,12.99,14.99,1.2.85,2.52,1.2,4.42,1.68-1.57.82-2.74.72-3.78.15-3.17-1.74-5.79-4.04-8.02-6.98-2.55-3.36-5.23-6.63-7.38-10.25-4.32-7.27-7.66-14.95-9.77-23.21-.76-2.98-1.64-6-2.7-8.89-.81-2.21-.11-4.51-.93-6.66Z"/>
      <path class="cls-1" d="M137.21,361.45c-.44,1.58-.02,2.89,1.26,3.92,1.95,1.56,2.93,4.07,5.31,5.27.87.44,1.55.45,2.38.24-.4,1.2,0,2.08,1,2.82,1.57,1.15,2.98,2.56,4.66,3.51,2.46,1.39,4,3.77,6.44,5.55-3.08-.2-5.64-1.37-8.19-2.53-.99-.46.72-1.41-.39-1.97-1.24-.62-1.65-2.33-3.31-2.56-.81-.11-1.17-.82-1.32-1.71-.22-1.31-.95-1.07-2.04.21.7-2.03-.1-2.77-1.26-3.67-1.46-1.13-2.99-2.32-4.19-3.65-1.46-1.61-1.27-.04-1.73.46,0,0,.04.07.04.07-.1-1.45-.24-2.89-.29-4.34-.04-1.06.39-1.78,1.63-1.61Z"/>
      <path class="cls-1" d="M147.99,478.52c-.12-.59-.36-1.08-1.07-.93-8.92,1.84-17.53,4.64-25.79,8.49-.06-.81.35-1.4,1.03-1.7,6.19-2.75,12.47-5.36,19.2-6.32,3.56-.51,6.59-2.3,10.01-3.11,1.51-.36,1.02-2.55,1.76-3.95.97,1.23-.54,2.16,0,3.3,3.35-.74,6.17-3.14,9.67-3.52-2.73,2.29-5.95,3.55-9.19,4.71-2.05.74-3.8,1.92-5.61,3.03Z"/>
      <path class="cls-1" d="M74.43,427.98c-.27,14.15-.54,28.3-.81,42.45-.2,0-.41,0-.61-.01,0-14.16-.17-28.32,1.42-42.44Z"/>
      <path class="cls-1" d="M139.22,372.14c-1.62-.43-3.28,1.54-4.9-.08.5-.74,1.4.26,2.04-.76-1.98-1.1-2.25-2.8-1.13-4.88.24.36.44.67.65.98,0,0-.04-.07-.03-.06-.51,1.1-.65,1.94.77,2.61,1,.47,2.02,1.16,2.57,2.26l.05-.06Z"/>
      <path class="cls-1" d="M128.89,353.52c2.09,2.82,4.16,5.61,6.26,8.45-1.63-.27-6.09-6.34-6.26-8.45Z"/>
      <path class="cls-1" d="M74.96,481.38c-.9,1.36-1.3,2.7.1,3.96.07.07-.03.48-.17.6-.28.24-.56.07-.8-.15-.75-.7-1.24-4.53-.67-5.4.23-.34.55-.58.98-.44.77.26.21.97.57,1.43Z"/>
      <path class="cls-1" d="M77.41,406.96c-.88-2.3-.21-4.66-.2-6.99.62,2.31.51,4.65.2,6.99Z"/>
      <path class="cls-1" d="M128.21,328.01c-2.15-2.29-2.07-5.28-2.36-8.16.77,2.74,1.54,5.47,2.31,8.21,0,0,.05-.05.05-.05Z"/>
      <path class="cls-1" d="M139.17,372.2c1.77.72,2.91,2.22,4.26,3.46-1.86-.62-4.32-.51-4.22-3.51,0,0-.05.05-.05.05Z"/>
      <path class="cls-1" d="M71.34,478.81c-.31-1.89-.61-3.78-.92-5.67,1.33,1.69,1.25,3.65,1.5,5.54-.19.04-.39.09-.58.13Z"/>
      <path class="cls-1" d="M166.06,372.68c1.74-.86,1.36-1.98,1.4-2.99.02-.36-.02-.87.51-.9.47-.02.64.33.64.79,0,1.4.53,3.08-2.55,3.1Z"/>
      <path class="cls-1" d="M113.32,208.87c-.62,1.9-1.24,3.81-1.87,5.71.14-2.07.16-4.2,1.88-5.67v-.04Z"/>
      <path class="cls-1" d="M163.36,373.23c1.31-.8,1.01-1.98.5-3.51q2.36,2.54-.5,3.51Z"/>
      <path class="cls-1" d="M103.03,253.71c-.23,1.23-.89,1.99-.63,3.01.13.48.15,1.22-.69,1.12-.81-.1-.71-.76-.42-1.24.54-.9.49-2.14,1.74-2.89Z"/>
      <path class="cls-1" d="M113.33,208.91c-.03-2.37.77-4.46,2.32-6.28-.78,2.07-1.56,4.15-2.34,6.23,0,.01.02.05.02.05Z"/>
      <path class="cls-1" d="M94.99,380.04c-1.26-1.93-1.04-3.53-1.3-5.02.33,1.46,1.38,2.75,1.3,5.02Z"/>
      <path class="cls-1" d="M133.91,608.31c-.49-2.34.95-4.62.12-7.66-1.12,4.86-1.89,9.17-3.44,13.27-.12-1.42-.42-2.69.47-4.21.91-1.56.94-3.61,1.44-5.42,1.88-6.86,3.03-13.87,4.41-20.83.48-2.4-.35-4.83.71-7.09.25-.52-.14-1.22,1.14-.44,1.51.92.61-1.51,1.4-2.09.78,3.71.57,4.18-1.9,4.01-.17,1.02,1.71,1.53,1.1,1.99-1.74,1.33.74,2.59-.27,3.93-1.11,1.48-.25,3.55-1.02,5.25-.74,1.63-.8,3.53-1.05,5.21-.5,3.37-1.44,6.66-1.74,10.07-.12,1.38-.34,2.85-1.4,3.96l.05.05Z"/>
      <path class="cls-1" d="M133.86,608.25c.42,3.77-1.05,7.28-1.5,10.91-.63,5.15-2.21,10.05-3.26,15.08-1.97,9.4-4.48,18.68-7.52,27.81-.55,1.64-1.12,3.38-1.34,5.16-.08.65-.2,1.27-1.03,1.33l.06.06c-.74-2.4.65-4.43,1.31-6.52,3.14-9.98,5.87-20.05,8.06-30.28,1.62-7.57,3.68-15.06,4.43-22.79.05-.48.14-.98.84-.7,0,0-.05-.05-.05-.05Z"/>
      <path class="cls-1" d="M115.39,680.71c-.08,4.72-1.87,9.08-3.25,13.55.14-4.71,2.23-9,3.25-13.55Z"/>
      <path class="cls-1" d="M119.21,668.55c.32,3.56-1.66,6.57-2.14,9.96-.98-1.13-.8-2.5-.39-3.35,1.04-2.13.63-4.83,2.59-6.56,0,0-.06-.06-.06-.06Z"/>
      <path class="cls-1" d="M140.04,560.72c.45-4.38-.05-8.9,1.88-13.15-1.52,4.29-.64,8.81-1.88,13.15Z"/>
      <path class="cls-1" d="M88.24,532.18c.26,1.67,0,2.75.58,3.72.28.47.18.98-.33,1.16-.66.24-.73-.34-.79-.8-.16-1.19-.36-2.39.54-4.07Z"/>
      <path class="cls-1" d="M124.27,638.13c.1,1.76.25,3.11-.17,4.58-.82-1.46-.81-2.13.17-4.58Z"/>
      <path class="cls-1" d="M89.41,560.03c.73.64.55,1.29.47,1.86-.1.77-.95.62-1.44.91-.09.05-.47-.16-.5-.3-.13-.58.44-.68.73-.99.33-.36.46-.89.74-1.47Z"/>
      <path class="cls-1" d="M75.66,524.76c.23-2.42-.48-4.82.04-7.2.31,2.42,1.68,4.82-.04,7.2Z"/>
      <path class="cls-1" d="M67.94,395.42c-1.39-1.11-1.9-2.64-2.75-3.92-.27-.4-.13-.76.4-.81.29-.03.59.03.88.04-.61,1.85,2.13,2.6,1.47,4.69Z"/>
      <path class="cls-1" d="M75.62,534.52c-.11-2-.23-4-.34-5.99,1.17,1.99.45,3.99.34,5.99Z"/>
      <path class="cls-1" d="M76.58,536.71c-.64,2,.46,4.36-1.5,5.98,1-1.91.36-4.17,1.5-5.98Z"/>
      <path class="cls-1" d="M120.83,93.2c-.58,2.23-2.18,3.63-3.58,4.96-2.56,2.42-5.34,4.47-8.85,5.7-3.72,1.31-7.48.52-11.17,1.28-1.82.37-3.28-1.79-3.38-2.7-.25-2.39-2.1-2.39-3.41-3.14-.7-.4-1.79-.51-1.7-1.41.12-1.19,1.36-.95,2.12-.83,2.09.35,4.12.21,6.17-.26.59-.14,1.48-.61,1.57.65.01.16-.19.64.4.34,2.79-1.44,5.95-1.71,8.93-2.2,4.23-.69,8.32-2.1,12.89-2.39ZM114.52,98.04c-5.15-.04-9.34,3.23-14.24,2.89,3.91,2.11,12.32.43,14.24-2.89Z"/>
      <path class="cls-1" d="M126.73,54.15c-4.08-.21-8.04.15-11.74-.21-4.19-.42-7.88,1.2-11.88,1.13-1.95-.03-2.55-1.54-3.93-2,.55-.93.66-2.33,2.05-2.42,4.57-.31,9.09-1.07,13.71-1.02,2.68.03,5.2.4,7.71,1.16,1.72.52,3.44,1.13,4.09,3.36Z"/>
      <path class="cls-1" d="M127.95,63.09c-.11.66-.16,1.46-.91,1.75-.65.25-.84-.41-1.2-.82-1.17-1.36-2.42-1.12-3.34.55-.8,1.45-4.58,2.83-6.06,2.2-.14-.06-.34-.15-.36-.26-1.05-4.33-4.31-2.48-6.93-2.56-.51-.01-1.28.67-1.57-.19-.24-.71.49-.98.96-1.41,2.62-2.43,5.89-1.87,8.98-2.04,2.41-.14,4.83,0,7.25-.07,1.73-.05,3.13,1.11,3.17,2.85Z"/>
      <path class="cls-1" d="M108.42,69.87c3.77.03,6.57,2.69,9.98,3.7-1.52.72-5.68-.73-9.98-3.7Z"/>
      <path class="cls-1" d="M136.87,102.65c.05,3.86-3.22,5.69-5.24,8.28,1.17-3.11,4.14-5.13,5.24-8.28Z"/>
      <path class="cls-1" d="M86,74.2c1.11-.8,2.21-1.61,3.34-2.38.4-.28.91-.4,1.19.16.21.42-.09.73-.41.99-1.11.9-2.42,1.33-3.72,1.8l-.41-.57Z"/>
      <path class="cls-1" d="M96.15,148.48c.87-1.06,1.09-2.31,1.52-3.68,1.02,2.51.52,3.71-1.52,3.68Z"/>
      <path class="cls-1" d="M175.71,187.33c.37,1.46-.36,2.61-1.09,3.72-2.32,3.56-3.54,7.67-5.64,11.33-.34.59-.5,1.3-1.83,2.03,2.82-6.17,5.5-11.71,8.62-17.03l-.06-.05Z"/>
      <path class="cls-1" d="M172.9,189.15c-.25-1.48,1.75-6.36,2.7-6.99.31-.2.58-.24.84,0,.33.31.39.79.12,1.07-1.58,1.66-1.75,4.17-3.66,5.92Z"/>
      <path class="cls-1" d="M175.77,187.38c1.33-2.71,2.91-5.27,4.8-7.64-1.84,2.39-1.81,5.93-4.86,7.58,0,0,.06.05.06.05Z"/>
      <path class="cls-1" d="M213.43,226.92c-1.05-1.65-1.21-3.23-1.35-5.11,1.53,2.63,1.64,3.02,1.35,5.11Z"/>
      <path class="cls-1" d="M202.22,270.08c-1.5.55-3,1.1-4.5,1.65,1.25-1.21,2.63-2.04,4.28-2.2l.21.55Z"/>
      <path class="cls-1" d="M52.44,163.78c-.77,3.06-.83,5.55-.67,8.22-1.28-1.43-1.03-5.7.67-8.22Z"/>
      <path class="cls-1" d="M71.42,82.78c.72,2.04-.99,3.81-.53,5.87-.33-1.09-1.34-1.98-.87-3.11.23-.56-1.05-2.33,1.09-1.6.12-.36.23-.73.34-1.11,0-.01-.03-.05-.03-.05Z"/>
      <path class="cls-1" d="M51.37,365.76c.09.07.42.19.41.31-.05,1.91,1.61,1.23,2.51,1.68.44.21,1.2-.18,1.3.65.04.37.05.88-.16,1.1-.53.54-1.19.18-1.71-.09-.95-.5-1.85-1.13-2.75-1.72-.5-.33-.35-.81-.24-1.27.07-.3.11-.63.64-.67Z"/>
      <path class="cls-1" d="M36.26,405.18c-.07,3.71.04,7.43-.53,11.11-.24-.01-.48-.02-.72-.03.17-3.71.34-7.41.51-11.12.25.01.49.02.74.03Z"/>
      <path class="cls-1" d="M37.71,388.67c.9,2.46.04,4.74-.38,7.05-.07.39-.28.77-.76.73-.4-.04-.5-.4-.41-.7.73-2.3,1.07-4.7,1.55-7.07Z"/>
      <path class="cls-1" d="M35.4,417.85c.6,3.03-.8,5.87-.07,8.75-1.23-1.65-1.16-5.93.07-8.75Z"/>
      <path class="cls-1" d="M37.8,429.81c.61.74.64,1.37.16,1.87-.83.87-.29,1.97-.62,2.9-.21.59,1.07.94.26,1.59-.12.1-.56.04-.61-.07-.34-.65-1.21-1.18-.8-2.05.63-1.32.41-2.96,1.62-4.24Z"/>
      <path class="cls-1" d="M38.1,371.57c-.19,1.68.62,1.79,1.95,1.13-1.06,2.3-.12,4.66-1.41,6.67.84-2.68-.61-5.11-.53-7.81Z"/>
      <path class="cls-1" d="M38.84,465.45c1.64,2.65,1.66,4.58.12,7.21.98-2.44,0-4.79-.12-7.21Z"/>
      <path class="cls-1" d="M33.81,452.47c.12-2.57.24-5.14.35-7.71.06,0,.12,0,.17,0v7.72c-.18,0-.35-.01-.53-.02Z"/>
      <path class="cls-1" d="M37.33,473.76c-.52-2.09-1.39-4.24.22-6.69-.19,2.5-.51,4.58-.22,6.69Z"/>
      <path class="cls-1" d="M37.28,421.87c-.22-1.32-.5-2.39-.16-3.55.22-.77.37-.44.85-.2.43.21,1.09.44.56.74-1.2.7-.62,1.96-1.25,3.02Z"/>
      <path class="cls-1" d="M121.93,170.77c.89-.99,1.78-1.97,3.1-3.43-.51,2.16-1.61,2.98-2.67,3.84-.14-.13-.29-.27-.43-.4Z"/>
      <path class="cls-1" d="M185.2,315.68c.85.01,2.03.51,1.8-1.14-.07-.53.14-.71.59-.71,1.46,0,1.68-1.06,1.86-2.16,1.64-.22,2.26-1.75,3.07-2.77,2.46-3.07,4.64-6.38,6.88-9.62.52-.76,1.09-1.01,2.18-.63-2.06,2.56-4.24,4.88-5.96,7.5-2.23,3.39-5.18,6.26-7.08,9.88-.11.2-.25.48-.43.53-.86.26-1.11,1.66-2.33,1.24-1.24-.43.09-1.56-.59-2.13Z"/>
      <path class="cls-1" d="M145.64,350.12c2.22-.3,4.45-.51,6.14-2.3.48-.5,1.19-.74,1.94-.52-1.96,2.26-4.73,3.22-7.3,4.49-.36.18-.74.43-1.05.04-.52-.64.03-1.16.27-1.71Z"/>
      <path class="cls-1" d="M166.39,348.09c-.2-1.82-1.13-3.53-.67-5.59,1.77,1.79,1.75,3.93,1.69,5.96-.04,1.31-1.1.24-1.63.23-.8-.01-1.49-.52-1.87-1.32.47.12.48-1.26,1.2-.37.32.4.44,1.03,1.28,1.09Z"/>
      <path class="cls-1" d="M162.06,348.4c1.58,1.94-.05,2.93-.38,4.14-.1.38-.68.39-.95,0-.39-.54-.59-1.23.08-1.64.83-.51,1.39-1.12,1.25-2.51Z"/>
      <path class="cls-1" d="M134.19,209.97c-1.87,1.64-3.74,3.29-6.04,5.3,1.57-2.68,3.62-4.13,5.3-5.92.24.21.49.41.73.62Z"/>
      <path class="cls-1" d="M42.67,177.81c1.34,1.28,1.97,2.29-.02,3.36-.23-1.07-.31-2.06.02-3.36Z"/>
    </g>
  </g>
</svg>