<svg version="1.2" xmlns="http://www.w3.org/2000/svg" viewBox="0 0 300 400" width="300" height="400"><style>.a{fill:#fff}</style><path class="a" d="m74.6 304.9c-0.1 0.9 0.1-0.6 0.3-1.7q1.9 0 3.8 0c1.6 3.4 2.4 7.6 3.4 11.6 1.9 7.3 4 14.7 4.9 22.2 1.6 13.3 0.5 26.8 0 40.1q-0.2 5.3-0.4 10.6c1.9-0.4 3.8-0.6 5.8-0.5 17.2 1.3 34.3 4 51.4 6.6q3.1 0.4 6.1 0.9c0.5 0 1.7 0.2 2.6 0.3q5.1 0.7 10.1 1.2c7.5 0.8 15 1.4 22.5 1.5 15.7 0.3 31.3-1.6 46.9-2.5 15.9-0.9 31.8-1.8 47.7-2.8-0.5-8.8-1.1-17.5-2-26.2 5.6-7.8 8.1-17.2 7.6-27-0.5-11.3-4.7-21.5-7.7-32.3-5.9-21.5-0.7-44.4 1.5-66.1 1.2-11.6 1.2-23.3-3.4-34.1-4.2-9.9-11.7-17.5-19.4-24.8-7.9-7.5-16.2-15-25.8-20.2-5.5-3-11.8-5.1-17.7-7.3q-0.4-1.4-1-2.7c-2.5-5.1-6.3-9.5-10.3-13.5-1.8-1.7-3.7-3.4-5.5-5.2q-1.3-1.3-2.6-2.7c0.1 0-0.4-0.7-0.7-1.1-0.5-0.5-0.7-0.7-0.8-0.7 0-0.2 0-0.5-0.3-1.3-0.1-0.4-0.3-2.3-0.2-1.4-0.2-2.9 0.1-3.1 0.9-6 1.7-6.2 4.5-12 6.5-18.1 4.6-14.1 3.2-28.8 0.9-43.2-2.1-13.4-5.7-26.4-10.5-39-1.9-5.1-5.8-9.1-10.7-10.4-1.8-1.7-4-3.1-6.4-4-17.5-6.5-37 3.1-46.6 18.1-5.1 7.9-7.3 17.5-7.8 26.8-0.3 4.5 0.2 8.9 0.8 13.4-1.9 0.7-3.6 1.8-4.9 3.2-8.1 9.3-6.1 22.4 4.3 29.2 1.9 1.3 4.3 2.2 6.5 2.8 0.7 0.1 1.4 0.2 2.1 0.3 0.4 1.2 0.8 2.4 1 3.5 1.7 7.7 3.1 16.3 2.2 24.2 0-0.3-0.5 2.4-0.7 2.9 0.3-0.8-0.9 1-1 1.1-1.2 1.3-1.4 1.4-2 1.9-2.2 1.8-4.6 3.4-6.8 5.2-3.3 2.7-5.9 6-8.3 9.6-0.8 1.1-1.4 2.4-2.3 3.5 0.3-0.5-1.9 1.2-2.5 1.5-7.8 4.1-16.3 7.1-24.4 10.5-16.7 7.1-33.5 13.8-44.2 29.5-9.3 13.7-11.5 30.9-13.9 47-1.5 9.8-2.9 19.7-3.2 29.7-0.3 9.5 0.7 19 1 28.6 0.5 18-6 34.1-8.9 51.7-2.4 14.5-1.8 28.8 0.7 43 4.5-1.4 9.4-1.5 13.9-0.2 8.4 2.5 16.9 4.7 25.5 6.2q2 0.4 4 0.7-1.3-0.2-2.6-0.4c2.3 0.4 4.7 0.6 7.1 0.8q1.1 0 2.2 0.1c2-17.4 4.4-34.9 6.4-52.3 1.6-13.8 3.2-30 4.9-42.3zm51.4-208.3q0.1 0.3 0.1 0.7c-1.1-0.8-1.8-1.4-0.1-0.7z"/><path  d="m255.3 301c1.2 0.6-0.2 1.7 0.7 2.2 1.4-0.6 1.3-2.1 1.8-3.2 0.3-0.7 0.9-1.5 1.4-0.7 0.8 1.5 0.9 0.4 1.3-0.1 1.7-1.9 2.5-4.2 5.4-5.4 2.5-1.1 6-1.9 7.3-5.2 0-0.2 0.6-0.3 0.9-0.2 0.5 0 0.3 0.4 0.4 0.8 0.2 2-0.5 3.9-0.5 5.9 0 11.1 2.6 21.6 7.4 31.7 2 4.2 3.9 8.8 3.5 13.7-0.1 1.6 0 4.2-0.7 4.4-1.9 0.7-1.2 2-1.7 3.1 1.1 0.1 0.6-1.5 1.8-1.4-0.3 2.9-1.9 5.1-2.1 8-0.1 2.3-0.9 4.7-1.4 7.1-1.8 7.8-2 15.9-3.5 23.8-0.8 4.1-1.1 8.3-1.3 12.6q0.7-0.1 1.4-0.1c0-0.7 0.3-1.5 1.2-2.2 0.6-0.5-0.1-0.9 0-1.3 0.1-1.6-1.2-3.7 1.5-4.3 0.6-0.1 0.5-0.9 0.5-1.4-0.3-4.2 1.1-8.3 0.4-12.6-0.1-1.1 1.6-1.3 1.5-2.5-0.3-5.8 1.5-11.2 2.1-16.8 0.6-4.7 1.7-9.4 2.6-14.1v-12.8c-2.6-2.3-3-5.8-4.5-8.7-5.3-10.5-8-21.4-5.6-33.3 0.2-1.3 0.3-2 2-2 2.7 0 3.5-1.3 2.6-3.8-0.8-2.2-1.4-4.4-0.1-6.6 0.3-0.6-0.1-1.4-0.1-2-0.2-2.1-2.2-2.6-2.9-4.3-0.9-2.2-0.7-4.3-1-6.5-0.7-3.9 0.3-7.5 0.7-11.3 0.3-2.5 2.9-4.5 1.8-7.4-0.1-0.3 0.5-0.9 0.9-1.4 0.5 0.9-0.1 1.9 0.7 2.6 0.8-0.8 0.6-1.7 0.7-2.6 0.8-5.7 0.2-11.4 0.1-17.1 0-1.4 0.2-3.5-0.1-4.3-1-2.5-0.5-5.1-1.1-7.6-0.2-1-1.5-1.1-1.3-1.3 2.6-1.9-0.5-1.7-0.9-2.3-0.4-0.7-1.1-1.2-1.5-2-1.7-3.2-2.1-6.8-3.5-9.9-0.6-1.4-2-2.3-1.8-4 0-0.6-0.1-1.2-1.1-1-1.3 0.3-1.6-0.1-0.5-1 0.4-0.4 0.5-0.7 0.1-1.1-0.4-0.4-0.7-0.5-1.1-0.1-0.9 1-0.9 0-1.2-0.4-3.1-3.1-5.1-7.3-8.4-9.9-4.9-3.9-9-8.8-14.8-11.5-4.9-2.2-8.7-6.2-13.8-8.1-0.5-0.1-1-0.6-1-1.4 0-1.1-1.7-1-1.9-2.1-1.3 1.6-2.2 0-3.1-0.5-5.1-2.2-9.2-5.8-13.4-9.2-0.8-0.6-1.5-1.1-2.1-1.8-2.2-2.8-3.6-6-5.8-8.8-0.6-0.7-1.8-1.2-1.8-2.4 0.1-3.8-3.1-3.8-5.4-5.4-0.1 1.9 1.1 2.5 1.9 3.1 2.2 1.5 3.2 3.9 3.8 6.1 1.1 3.8 2.7 7.4 3.7 11.2 1.2 4.7 4.4 8.8 3.6 14.1-0.1 0.8 0.5 1.7 0.8 2.7 0.8-0.4 1.2-0.9 1.3-1.5 0.4-5-0.8-9.8-1.8-14.8 1.9-0.1 3.1 1.1 4.5 1.9 1.7 1.1 3.5 2.3 5.2 3.6 3.2 2.3 6.7 4.1 10.2 5.9 2.6 1.4 4.7 3.6 7.4 4.8 5.1 2.4 9.3 5.9 13.7 9.2 3.1 2.3 5.9 5.1 8.6 7.9 2.6 2.7 5.2 5.4 7.1 8.6 2 3.2 4.5 6.1 5.8 9.8 0.9 2.6 2.5 5 3.6 7.6 1 2.2 1.3 4.8 3 6.8 0.3 0.3 0.7 1.1 0 1.5-1-0.2-0.4-1.8-1.5-1.9-0.4 0.4 0 0.7 0 1-0.1 2.2 2.4 3.4 2.1 5.6-0.3 1.8 0.3 3.5 0.2 5.3-0.3 3.1 1.1 6.6-1.7 9.4-0.2 0.2 0 0.8 0 1.2 1.4-0.2 1.1 0.4 0.5 1.1-0.9 0.8-1.1 1.8-0.6 2.9 0.3 0.8 0.2 1.5-0.6 2.1-0.8 0.5-0.8 1.3-0.5 2.1 0.3 0.8 0.4 1.6 0.1 2.4-2.2 6.3-2.2 12.8-1.8 19.4 0 0.7 0.6 0.8 0.9 1.1 0.7 1 1.6 2.1 1.2 3.4-0.4 1.3-1.8 1.2-2.9 1.3-2.2 0.3-4.4 0.2-6.5 0.6-2.6 0.6-5.2 1.6-7.8 2.3-2.4 0.7-3.8 3.3-6.4 3.8-1.7 0.4-2.7 2.3-4.5 2.2-1.1-5.9 0.5-11.7 0.5-17.5-0.7 2.5-0.9 5.2-2.1 8.2-0.1-1-0.1-1.2-0.2-1.5-0.8-4.9 2.5-8.7 4-12.9q4.1-11.6 5.8-23.8c1.2-8.6 1.6-17.3 1.1-26-0.1-2.4 0.3-4.8-0.6-7.1-0.2-0.6-0.2-1.4-1.1-1.2-0.9 0.1-0.8 0.9-0.6 1.5 0.9 2.9 0.8 6 0.8 9 0.1 6.7-0.5 13.4-1.2 20.1-0.4 2.9-1.5 5.6-1.4 8.6 0.1 3.7-2 6.8-3.1 10.3-0.9-0.5-0.2-1.6-1.2-1.8-1.1 0.4 0.3 2.5-1.3 2.4-2.4-0.3-2 0.9-1.7 2-0.1-0.4 0-0.8 0.5-1 0.7-0.3 1 0.4 1.1 0.9 0.2 0.4 1.3 0.7 0 1.3-0.9 0.4-0.4 1.8-1.2 2.7-0.6-0.9-0.4-1.7-0.2-2.6-2.4 3-2.5 5.9 0.7 9.3-1.7-0.6-2.3-2.1-3.3-1-0.6 0.7-0.8 1.6-0.3 2.7 1.4 2.7 0.8 5.8-0.8 8-1.4 2-2.5 3.6-1.5 6 0 0-0.2 0.2-0.3 0.3-1.1 0 0-1.4-1.1-1.5-0.6 2.7 0.9 5.5-0.4 8.1-1.5 2.8 0.3 5.8-0.9 8.8-0.5 1.1-0.8 3.5 0.9 5.5 0.5-4 0.6-7.5 1.8-11.4 1.2 6.2 0.1 12.1 0.8 18.4 1.2-1.2 0.5-2.2 1.5-3 0.5 1.9 0.4 3.5 0.2 5.3-0.8-0.3-1.1-1-1.9-0.9-0.3 2.4-1 4.7-0.3 7.1 0.7 2.9 0 5.7 0.3 8.6 0.4 4.3-0.9 8.9-0.2 13.3 0.8 4.4-1.9 8-2.2 12.2-0.1 1.5-1.1 0.9-2 0.1v3.8c0.8-0.3 0.3-1.6 1.1-1.5 0.9 3.2-1.4 6.4 0.4 9.6 0.1 0.1 0 0.5-0.1 0.7-0.5 0.7-0.6 0.7-0.3 1 0.7 0.9 0.6 1.9 0.5 2.8-0.4 2.3-0.3 4.7-1.2 6.9-0.6 1.3-0.6 2.7 2 3.7-2.1-2.5 0.6-3.2 0.7-4.7 1.5 1.8-0.7 3.8 0.4 5.6 0 0.1-0.3 0.4-0.3 0.4-0.5-0.3-1.1-0.9-1.4 0.2-0.3 0.8 0.6 1 0.8 1.5 0.3 0.6 1 2-0.1 1.7-1.2-0.3-1.2-0.1-1 0.7 0.2 1.3-0.1 2.2-1.2 3.2-0.7 0.6-1.9 2 0.8 2.1 1.6 0.1 3.7 1.2 3.4 3.9-0.1 1.1-0.4 1.9-1 2.6q2.3 1 4.4 2.6c-0.1-0.5-0.2-1 0-1.2 1.1-1.8 3.4-3.2 1.3-5.7 1.8-1 0.6-2.2 0.2-3.3-0.6 0.3 0 1.3-1.6 1.3 1.9-3.7-1.8-8.4 2.9-11.5-2.6 1.4-2.7 1.4-2.8-0.3-0.5-6-0.9-12-1-18-0.1-5.6-0.1-11.3 0.8-16.9 1-5.6 0.6-11.5 1.8-17.1 1.5-6.4 2.5-12.9 2.5-19.5 0-0.8 0.4-1.5 1.2-1.5 1.9-0.1 2.9-1.4 3.5-2.9zm-13.6 71.9c-1.8-1.3 0-2.9-0.2-4.4-0.4-2.5 0.4-5 0.4-7.6 0.2 4 1.3 8-0.2 12zm5-72.1c-1 1 0.1 3.4-1.5 3-1.6-0.4 0.1-2 0.2-3.1 0.1-1.4-1.4-2.5-0.7-3.9 0.7 0.2 0.1 1.2 1 1.3 1.9 0.3 1.8 1.9 1 2.7zm1.6 15.8c-1.1-2.3-0.3-4.5 0.2-6.7 0.4 2.2 0.8 4.4-0.2 6.7zm1.7-26.3c0-0.9-0.3-1.7-0.5-2.5-0.6-2.2 0.8-3.6 3-3.2 0.4 0.1 1.1 0.5 1.1 0-0.3-3.4 2.9-2.8 4.6-3.6 1.7-0.9 3.5-2.8 6.1-1.2-0.3-1-1.5-0.7-1.4-1.8 0.2-0.1 0.4-0.3 0.6-0.3 1.3 0.1 2.4 0 3.6-1 1.7-1.4 6.1-0.8 7.6 0.8 0.9 1 1.7 0.4 2.2-0.3 0.6-1 1.1-0.9 2.1-0.5 1.2 0.4 0.9 1.1 0.8 1.9-0.2 1 0 1.9 0.4 2.8 0.2 0.8 1.2 1.7 0.4 2.4-0.8 0.7-1.9 0.4-2.8 0 1.1-1.2 0.9-2.3-0.8-5.1-1.5 2.3-2.4 4.9-5.8 5.7-6.5 1.5-12.5 4.6-18.5 7.4-2 0.9-2.6 0.4-2.7-1.4zm17.1-0.4q-1.2-1.7-3.2-0.5c0-1 0.5-1.8 1-1.8 1.1 0.1 2.1 0.3 3.1-0.4 0.7 1.3 0.4 2.2-0.9 2.7zm-15 10.9c-0.6-0.4-0.3-1 0-1.4 1.4-1.8 1.2-4 1.7-6 0.1-0.7-0.1-1.2 0.8-1.1 0.7 0.1 1.3 0.6 0.8 1.3-0.6 0.7-0.1 1.5-0.3 2.2-0.2 0.9 0.4 1.1 1.1 1.2 0.5 0.1 0.9-0.2 1-0.6 0.3-0.8-0.1-0.8-0.8-1-1.1-0.5-0.5-1.6 0-2.2 0.9-1.2 1-1.1-0.3-1.9 1.5-0.7 1.5-0.7 2.5 0.8 0.3 0.5 1.1 0.1 1.6 0.3-0.4-0.8-0.5-1.6-0.1-2.5 2.3 1.5 4.6-0.9 7 0-0.4 0.7-1 1-1.7 1-1.4 0.1-2.3 0.3-2.7 1.9-0.3 1.2-1.3 1.3-2.1 0.3 0.3 2 1 3.7-2.4 4.3-1.2 0.2-4.4-0.1-4.7 2.9-0.1 0.4-1 0.8-1.4 0.5z"/><path  d="m70 366c0.4-2.4 2.2-4.4 1.6-7-1.7 0-0.6 1.8-2.1 2.2 0-1.3-0.6-2.7 0.8-3.5 1.1-0.7 1.2-1.6 0.9-2.5-0.4-1.2-0.3-2.3-0.3-3.5 0.3-3.7-0.1-7.4-0.9-11-1.7-7.8-1.6-15.5 0.1-23.2 0.2-0.9 0.7-1.4 1.2-2 1.3-2-0.2-4.9 1.8-6.8-0.3-0.2-0.8-0.3-1.1-0.6-0.5-0.4-0.8-1.5-0.4-1.6 2.1-0.5 2-2.7 3.2-3.9 1.8 1.4 2.4 3.1 1.8 5.2-0.1 0.5-0.4 1.5 0.3 1.2 1.7-0.6 1.4 0.7 1.8 1.4 1.4 2.5 1.6 5.4 3 8 2.4 4.5 3.4 9.9 7.5 13.5 0.8 0.7 0.5 1.7 0 2.5-0.6 0.9-1.5 1.5-2.5 2-1.3 0.5-1.3 1.9-1.4 2.9-0.2 1.2 1 1.3 1.9 1.4 1.2 0.2 1.4 0.6 1.1 1.9-0.2 1.4-1.5 2.5-1.1 4.1 1.4 5.3 1 10.8 0.3 16.1-0.5 4.6-0.6 9.2-2.6 13.5-1.1 2.3-2.3 4.7-0.1 7.4 0.3 0.4 0.8 0.9 1.2 1.5q2.1-0.3 4.1-0.2c-0.3-0.3-0.4-0.8-0.2-1.3 0.5-1.3 0.6-2.8 2.3-3.8-2.4 0.2-4.4-1.5-4-3.2 0.5-2-0.7-4.5 1.7-6 0.3-0.2-0.1-0.6-0.4-0.8-0.9-0.6-0.7-1.8-0.4-2.1 1.5-1.6 0.5-3.4 0.7-5.1 0.3-4.1 0.7-8.3 0.6-12.4-0.1-2.5 0.1-4 2.5-5.4 1.4-0.8 2-0.9 2.4 0.8 1.3-1.3-0.7-2.3 0-3.4 1.5-2.4-0.7-2.5-2-3-0.7-0.2-1.4-0.2-2.1-0.2-1.9-0.2-3-0.4-1.2-2.6 1.9-2.4 3.5-4.9 0.6-8.2-2-2.4-3.2-5.7-4.1-8.7-1.5-5.4-2.9-10.8-5-15.9-0.2-0.7-0.9-1.5-0.5-2 1.5-2.2-0.5-4.6 0.5-6.7 0.2-0.4 0.2-1.1-0.3-1.2-1.6-0.3-0.9-1.3-0.8-2.2 0.1-0.3 0.5-1.5-0.1-1-1 0.7-1.7-1.6-2.3 0.1-0.3 0.6-0.4 1.4-1.2 1.5-1.9-1.8-3.7-3.5-6-4.8-3.4-1.9-6.9-3.8-10.4-5.9-4.5-2.7-9.4-4.9-14.2-7-2.2-1-4.5-1-6.6-1.8-2.1-0.8-4.1-1.6-6.9-1.4-4.2 0.4-8.7-1.2-12.4-3.9-0.5-0.5-0.6-0.9-0.4-1.4 2-4.7 2.7-9.7 3.7-14.7 1.7-8.1 2.4-16.3 3.5-24.5 0.1-0.4-0.3-1.2 0.4-1.3 1-0.2 0.3 1.1 1.5 1.5-1.7-2.8-0.8-4.9 1-6.8-1.3-0.1-1.7-0.8-1.4-2q1-3.9 2-7.9c0.4-1.6 0.2-2.9-1.9-3.4 0.1 2.5-0.5 4.6-1.8 6.6-0.5 0.7-0.7 1.7-1 2.5-1.9 4.8-1.9 9.9-2.4 14.9-0.3 2-0.9 4.6-0.3 6.1 1.1 2.5-0.3 4.3-0.5 6.5-0.1 0.7-0.3 1.4-0.2 2.1 0.6 3.6-0.7 7-1.5 10.4-1 4.1-2.4 8.1-3.5 12.1-0.3 1.1 0.8 1.8 1.2 1.7 1.5-0.2 1.2 0.7 1.7 1.6 1.3 2.8-0.4 5.4-0.1 8.1 0.2 1.6-0.1 3.3-1.5 4.4-0.4 0.3-0.7 1.3-0.2 1.3 1.8-0.1 1.4 2.8 3.5 2.4 0.6-0.2 0.9 0.7 0.9 1.4-0.1 2.8 0.1 5.7-0.3 8.5-0.8 5-1.6 10-3.3 14.7-1.6 4.6-2.3 9.4-4.6 13.9-1.5 3-2.6 6.3-2.9 9.8-0.5 6.6 0 13.2 0.2 19.7 0.3 6.8 1.2 13.4 2.1 20.1 0.2 2.1 1.6 4.5 0.8 6-1.3 2.8 2.3 4.5 0.7 7-0.2 0.2 0.9 0.4 1.6 0.3-0.7-1.6 0-3.4-1.2-4.9-0.3-0.4-0.1-0.9 0.5-1 0.5-0.2 1.1-0.1 1.2 0.5 0.3 1 0.7 2.1 0.4 2.9-0.4 1-0.3 1.8 0 2.6q0.8 0 1.6 0.3c-0.3-0.8-0.5-1.6-0.4-2.4 0.5-3.7 0.5-7.4-1.6-10.8-0.3-0.5-0.7-1.2-0.6-1.7 0.7-4.5-0.5-8.8-0.9-13.2-0.1-0.5-0.4-0.8-0.8-0.9-0.7-0.1-0.6 0.5-0.6 0.9-0.1 1.4-0.6 3.2 0.3 4.1 1.5 1.5-0.2 1.5-0.4 2.9-0.7-1.9-1-3-1-4.3 0.1-3.9-0.7-7.9 1.1-11.8 0.6-1.3-0.7-2.4-1-3.5-0.9-3.5-0.5-7.2-0.5-10.9 0.1-4.3 2.2-8.1 3.4-12.2 2.4-8.3 5.9-16.3 7.3-25 0.5-2.9 1.1-5.8 0.8-8.8-0.3-3.2-0.2-3.3 3-2.3 0.3 0.1 0.5 0 0.8 0-0.3-3.2-3.4-4.2-4.9-6.3-2.1-2.9-2.9-6.5-0.8-9.6-0.1-0.5-0.5-1-0.1-1.5 0.9 0.9 2-0.8 3 0.1 0.9 1 2.1 1.6 3.5 1.9 0.4 0.1 1 0.6 1-0.4 0-1 0.1-1.1 1-0.9 8.8 2 17.3 4.8 24.3 11 0.2 0.2 0.6 0.4 0.6 0.4 1.4-1.9 1.6 0.4 2.3 0.7 0.5 0.2 0.9 0.5 1.4 0.8 4.6 2.4 9.4 4.5 13.8 7.5 1.1 0.7 1.4 1.4 1.4 2.5-0.2 2.5-1.5 4.2-3.8 5.5-1.7 0.8-2.2-0.7-3.3-1-1.2-0.5-2.3-1.3-3.4-2-6.1-3.5-12.8-5.5-19.6-7.4-1.4-0.4-3.4-0.3-3.9-2.5-0.1-0.3-0.6-0.7-0.8-0.3-1.1 2.2-2.8 0.6-3.7 0.1-2.8-1.7-6-1.5-9-2.1 3.6 3 8.4 3.4 12.3 5.9 0.1-2.4 1.3-1.6 2.8-0.5 0.6 0.5 1.4 1 2.2 1.4 3.4 1.5 7.4 1.4 10.9 2.9 1.5 0.6 2.8 2.5 3.7 2.5 3.6-0.1 5.5 3 8.5 3.9 1 0.2 2.4 0.8 2.5 2.3-1.6 0.8-2.1-1.4-3.5-0.9 0.9 1.1 0.5 2.6 1.9 3.6 0.7 0.4 0.7 2.2-0.1 2.6-1.2 0.5-1.8-0.8-1.9-1.7-0.2-1.3-1.1-1.9-1.9-2.8-0.8-0.8-1.7 0.1-2.4-0.4-2.1-1.6-4.3-3.1-6.4-5-1.2-1-1.8-0.8-2.5 0.4 1.7 1.1 3.3 2.3 5.1 3.4-1.7 1.1-2.9-0.7-5-0.3 3.8 1.3 6.9 2.9 9.7 5 1.2 0.9 2.4 1.9 2.5 3.6 0.1 3.1 0 6.3 0.9 9.3-1.1 0.5-0.7-0.7-1.5-0.6 0 2 0.3 4.1-0.1 6-0.4 2.7-0.4 5 0.4 7.9 1.7 5.5 4.2 11.1 2.3 17.5-1.3 4.5-0.3 9.5-0.7 14.3-0.1 1.4 0.5 3.1-0.7 4.3-1 0.9-1.2 2.1-1.3 3.4-0.3 5.8-1.7 11.5-2.9 17.2-0.5 2.1-0.1 4.3-0.4 6.4q0.4 0.1 0.8 0.3c2.3-7.9 3.4-16.1 5.2-24.1 0.6-2.7 1.5-5.2 1.9-7.9zm9.8-63.1c2.5 2.8 1.3 6.8 3.5 9.9-2.2-1.4-3.8-5.9-3.5-9.9zm-53.5-83c0.3 2.2-0.2 4.2-1.3 6.1q0.7-3 1.3-6.1zm-9.2 157.6c1.8 1.5 0.2 3-0.1 4.5-1.4-1.6-0.3-3 0.1-4.5zm-2.5-8.5c2.2 2.3 0.9 4.5 1.1 6.6-0.7-1.9-1.2-3.9-1.1-6.6zm53.1-50.2c-1.1-2.7-0.9-4.6-0.4-7 2.1 2.4 0.6 4.3 0.4 7z"/><path  d="m154.8 129.4c-1 1.6-2.4 1.2-3.8 0.8-3.6-1.1-6.6-3.6-9.9-5.4-3.1-1.8-6.4-3.5-9.3-5.9-0.2-0.2-0.9-0.3-1.2-0.2-0.7 0.4-0.1 0.9 0 1.4 0.2 4.2 0.7 8.5-0.2 12.7-0.2 1-0.1 2.1 0 3.2 0.1 0.4-0.3 1.3 1.2 0.6 1.7-0.9 3 1.2 3.1 3.2h0.1c-1 0.6-1.7 1.6-2.5-0.4-1-2.1-2.7-1.8-4.7 0.6 0.1-1.4-0.9-2.6 0.4-3.6 0.5-0.3 0.6-0.7 0.2-1-0.6-0.4-1-0.1-1.1 0.6-0.2 1.8-0.9 2.8-3.1 1.9 2.2-2.3-0.4-4.2-0.5-6.7-1.8 3.7-3.7 7-6.2 9.8-1.6 1.8-2.4 3.4-0.5 5.4 0.3 0.3 0.4 0.8 0.5 1.2-1.6 0.4-1.6-0.9-2-1.8-0.5-1-1.1-1.5-2-0.4-4.3 5.9-10.6 8.9-17.2 11.3-5.9 2.1-11.3 5.4-17 8-3 1.3-6 2.7-8.9 4.1-0.5 0.2-1.1 0.6-1.5 0-0.4-0.9 0.5-0.9 1-1.2 4.3-2 8.6-3.9 12.9-5.9 2.4-1.2 4.8-2.5 7.1-3.9 0.5-0.3 0.9-0.3 1.4-0.4 1.3 0 1.9-0.5 2-2.1 0-2.5 0.9-2.8 3.1-1.6 0 0.1-0.1 0.3-0.2 0.4-0.6 0.6-2.5-0.3-1.9 1.4 0.4 1.2 1.5 0.2 2.3 0 4.2-1.1 7.7-3.9 11.5-5.9 0.8-0.5 1.6-1.2 1.8-2.4-1.3-0.1-2.1 1.4-3.3 1-0.3-1 0.4-1 0.9-1.3 6-2.7 9.8-7.4 13.3-12.7 1.3-2.1 2-4.1 1.8-6.5 0-0.9 0.1-1.6 1.1-1.8 1.3-0.4 1.1 0.8 1.3 1.4q0.3 0.9 1.2 0.9c0 2.1 2.6 2.3 3.1 4 0.4-1.3 1-2.6-1.2-2.9-0.7-0.1-1.3-0.7-2-1.1 1.2-1.5 1.4-3.2 0.9-5-0.6-1.9 0.2-3.7 0.2-5.6 0-1.5 0.2-3.1-0.6-4.3-2.1-3.1 0.5-6.6-1-9.8 0-0.1 0-0.2 0-0.2-0.7-5.2-0.9-5.3-6.1-4.8-1.9 0.1-3.3-0.4-3.1-2.7q0.1-0.4 0-0.8c0.2-4.8 0.2-4.8-4.5-5.9-1.9-0.4-3.1-1.4-2.9-3.9 0.1-2 1.8-4.5-1.5-6.1 2.9 0.5 3.3-0.9 2.9-3-1.2-0.2-0.4 2.2-1.7 1.3-0.7-0.6-0.4-1.8 0.6-2.5 0.5-0.4 2-1-0.1-1.2-0.1 0-0.2-0.5-0.1-0.7 0.4-1.6 0.7-3.3 1.3-4.9 0.7-2 2.3-2.7 4.5-2 0.6 0.2 1.5 0.2 1.7-0.8 0.1-0.8-1.2 0.1-1.3-0.8 0.9-0.5 1.6-0.9 2.9-0.5 2.3 0.8 2.9 0.2 2.3-2.1-1.6-6.8-2.6-13.8-5.3-20.3-0.4-1 0.2-1.6 0.6-2.4 1.6-3.4 4.3-5.9 6.2-9 1.1-1.5 1.5-2.9 1.4-4.6q-0.1-0.7-0.1-1.4c-0.2-3.8-0.2-7.4 4.8-8.5 1.8-0.4 3.3-2.2 5-3.4 0.6-0.4 1.2-1.1 1.9 0.1 0.8 1.4-0.3 1.4-1 1.6-1.3 0.3-2.1 1-2.6 2.3-0.2 0.3-0.5 0.7-0.7 0.7-3.3-0.4-2.3 2.1-2.7 4.5-0.1-1.4-0.2-2.1-0.3-2.9-1.2-0.1-0.4 1-1.1 1.3-0.9-0.1-0.4-2.4-1.7-1.6-1.1 0.7-1.3 2.3-0.7 3.4 1.2 2.1 0.9 4.5 1.3 6.7 0.5 2.5-2.3 3.5-3.3 5.3-0.6 0.9-1.2 1.8-1.6 2.8 1 0.6 1.3-1 1.5-0.7 0.4 0.4 0.1 1.4 0.2 2 0.2 2.2-1.8 4.5 0.4 6.9 0.2-1.7 0.5-3 0.4-4.6-0.1-2.4 0.6-4.5 2.1-6.5 1.1-1.5 1.4-3.5 2.3-5 0.7-1.4 1.7-3.2 2.9-4.3 4.5-4.1 8.1-9.2 13.6-12.2 0.7-0.4 0.9-1 0.5-1.6-0.4-0.6-1.2-0.4-1.7 0-1 1-2.2 1.4-3.9 1.5 0.5-0.7 0.5-1.2 1.4-1.6 4.4-2.3 8.8-4.8 13.1-7.4 4.1-2.6 8-4.4 12.9-1.5 6.2 3.5 12.9 5.9 19.8 7.6 0.4 0.1 0.9 0.4 1.3 0.3 3.6-1.3 5.8 1.4 8.2 3.1 2.2 1.5 3.2 8.2 2.1 11.4-0.1 0.3-0.2 0.5-0.3 0.7-0.5 0.9-0.3 1.6 0.5 2.1 0.9 0.5 1.6 0.1 2.1-0.5 0.9-1.1 1.5-2.2 1.4-3.7 0-0.4 0.1-0.9 0.7-0.9 0.6 0 0.6 0.5 0.6 0.9 0.3 3.7 0.9 7.4-2.3 10.4-1.5 1.4 0.2 3.8-0.5 5.9-0.7 1.9-0.9 4.1-1.6 6.2-1.3 4.3-1.3 8.7-0.8 13.2 0.1 1.1 0.2 2.3 2 2.2 0.6 0 1.1 0.4 1.5 0.9 4.1 4.5 4.8 10.6 1.9 15.7-1 1.5-1.6 2.8-0.8 4.7 0.8 1.8-0.2 3.5-1.5 4.8-4.2 3.8-4.1 8.2-2.2 13.1 0.6 1.6 0.5 3.7-0.1 5.2-0.9 2-0.5 4-0.9 5.9-0.8 4-2.7 7.5-5.6 10.3-1.7 1.5-0.8 3.3-0.7 5-0.7 0.2-0.8-0.2-0.8-0.5-0.3-0.7 0.3-1.9-0.8-2-1-0.1-1.3 1.2-1.5 2-0.2 0.7 0.3 1.8 1.5 1.8 1.2 0 2.3 0.1 2.6 1.6-0.2 0.1-0.4 0.2-0.5 0.2-0.9-0.5-1.8-2.3-3-0.7-1.4 1.8 0.3 3.2 1.3 4.4 2.7 2.8 5.3 5.5 5.5 9.7 0.2 2.2-0.4 4.3-0.9 6.5-0.1 0.4-0.3 1-0.9 0.8-0.6-0.2-0.6-0.8-0.4-1.3 2.3-5.2-0.8-9-3.1-13-2.3 1.6 2 3.5-0.6 5.1-1.2-1.8-1.6-3.9-1.9-5.9-0.3-1.5-0.3-3-2.2-3.5-0.7-0.2-0.5-0.9 0.2-1.1 0.5-0.1 1.2 0.1 0.9-0.8-0.2-0.7-0.8-0.9-1.4-0.9-1.1 0-2.1 0.4-3 1.1-2.2 1.7-4.8 2.3-7.3 3.3 1.6-2 3.8-2.9 5.9-4 2.2-1.3 3.9-3 5.5-5-0.7-0.5-2.5 0.5-2.1-0.4 0.5-1 0.5-3 2.3-3.2 1.4-0.1 2.3-1 3.2-1.6 0.9-0.6-0.6-2.1-0.7-3.3-0.1-0.9-1.1-1.1-2-0.8-1.6 0.6-3 1.4-4.5 2.3-1.5 0.9-3.3 1.3-4.8-0.4-1.1-1.3-1-2.5 0.4-4 0.8 2.7 2.1 1.8 3.4 0.7 1.6-1.4 3.1-2.9 4.8-4.2-1.2 2.7-3.5 4.5-5.9 6.4 2.5 0.5 5.5-1.3 6-3.4 0.3-1.2 1.5-1.5 2.3-1.9 1.3-0.6 2.1-1.6 2.1-2.8 0-1.9 2.5-3 1.3-5.1 0.9-0.2 1.3 1 2.1 0.3 0.2-0.2 0.2-0.5-0.1-0.6-2.5-1.3-1.7-3.3-0.9-5.1 0.4-1 0.1-5.7-0.4-6.9-0.2-0.3 0-0.8 0-1.2 0.6-2.7 1.1-5.3 0.4-8.1-0.6-2.1 0.3-4.2 0.3-6.3 0-2.8-0.6-5.5-0.9-8.2-0.1-1.4-0.5-2.9-0.4-4.4 0.6-8.2 0.5-16.4-1-24.4-0.7-3.8-1.7-7.7-5.3-10.2-0.9-0.6-1.3-2-2-3-0.3-0.5-0.7-0.9-0.9-1.3-0.9-1.6-2.6-0.9-3.8-1.1-0.9-0.1 0 1.3-0.3 2.1-0.2 0.5-0.5 1.2-0.4 1.7 0.2 1-1.5 1.6-0.6 2.3 1 0.8 1-0.9 1.7-1.2 1.3-0.6 2.2 0.6 3.4 1.3q-2.9 0.7-5.9 1.3c-1.1 0.3-2.3 0.1-3.3 0.9-0.4 0.4-1 0.5-1.4 0-0.2-0.4-0.3-1 0.2-1.2 0.5-0.2 0.4-1.4 1.2-0.7 0.4 0.3 0.6 0.6 1.1 0.3 1.7-0.9 3.6-5.2 3.3-7.2-0.1-0.5-0.3-1-0.8-1.2-0.8-0.3-1.1 0.2-1.5 0.7-1.2 1.8-2.4 3.5-3.7 5 0-1.6 0.3-3.2 1.8-4.3 1.1-0.7 1.6-1.9 1.6-3.2 0-0.1-0.4-0.4-0.6-0.4-1.4 0.1-1.7 1.4-2.2 2.4-1.3 2.7-3.2 5.5-1.5 8.8 0.6 1.2-0.8 1.8-1.1 3.2-0.6-2.4-2.9-3.2-3.1-5.5 0 0-0.2-0.2-0.2-0.1-2.4 1.5-2.1-1.2-2.9-2-1.3-1.2-2.5-0.1-3.9-0.2 0.6-1.2 1.4-2.2 1.2-3.4-0.1-0.8 0.1-1.3 0.8-1.5 0.8-0.3 1.3 0.3 1.7 1 1.1 2 2.1 4 4.8 4.3 1 0.1-0.1 1.5 0.9 2.1 0.8-3 1.6-6 3.3-8.6 0.7-1.1-0.2-2.8-0.8-3-1.4-0.3-3.4-0.6-3.7 2.1-0.6-1.2 1.2-2.7-0.9-3.1-1.4-0.3-1 1.1-1.3 1.8-1-3.9-4.9-5.2-8-2.4-0.1-1.4-0.9-2.1-2.8-2.1 2.5-1.4 4.6-1.3 6.6-1 0.4 0.1 0.8 0.7 1.3 0.2 0.2-0.2 0.2-0.7 0.1-1-0.2-0.7-0.9-0.6-1.5-0.6-4 0.2-7.4 1.1-9.4 5.5 0.1-3.8-1.9-2.8-3.5-1.9-1 0.6-1.5-0.1-2.2-0.3 0 3.1-0.3 6.1 1.1 9-1.8 0.9-2.7-2.1-4.5-1.1 0.3-2 0.7-3.5 2.9-1.4 1.2-2.1-2.9-3.1-0.7-5.2-3.2 0.7-4.5 3.2-6.5 5.8 2.1-0.3 2.7-1.9 4.1-2.4 0.3 1.5-0.8 2.9-1.7 3.2-3.6 1.5-4.5 5.3-7 7.7-2.2 2.3-3.5 5.2-4.7 8.1-0.3 1-0.8 2 0.6 3 2.3 1.7 2.1 4.2 1 7-0.8 2.1-3 4.1-1.5 6.9-1-0.9-0.3-2.4-1.2-3.3-1.2 1.2 0 2.7-0.7 4-1-1.1-1.7-1.3-1.7 0.6 0 5.7 0 11.5 0.2 17.3 0.6-1.5 0.1-3.2 1.4-4.8v20.1q-0.4 0-0.7 0c-0.7-2.1-0.1-4.3-1.4-7 0.4 5.7 0.7 10.8 1 15.9 0.2 2.3-0.5 4.9 1.6 6.8 0.4 0.3 0.3 0.7 0 1.2-1.7 2.3-1.6 4.4 0.7 6.5 0.8 0.8 0.8 2.5 1.6 3.4 2.3 2.5 4 5.9 8.1 6 1.3 0 1 1.9 2.3 2.3 2.9 1.1 5.7 2.6 8.6 3.7 2.2 0.8 3.7 2.6 5.6 3.7l-0.1-0.1zm17.1-117.2c-0.2 1.2 0.6 1.4 1.5 1.6 1.6 0.4 1.7-0.9 2.4-1.9-1.3 0.8-2.7-0.4-4 0.4-0.1-0.3-0.1-0.8-0.3-1-0.6-0.4-1.2-1-2.1-0.3-0.7 0.5-1.3 1.1-0.9 1.9 0.6 1.4 1-0.9 1.8-0.1 0.7 0.8 0.9-0.9 1.6-0.6zm-48.7 57q-0.1-0.1-0.2-0.3c-1-2.6-2.8-2.9-5.2-2.1q-1 0.3-2 0.4c-2.1 0.2-2.6 0.7-1.1 2.5 2.1 2.7 4.1 5.6 5.9 8.5 0.9 1.5 1.5 2.3 2.5 0 0.4 1.5-1 3.3 1.3 3.9 0-1.4-1.1-2.9-0.4-4.1 1.8-3.2 0.5-5.9-0.8-8.8zm-11.3 16.9c0.9 0.3 1.3 2 1.5 1.7 1.7-2.3 1.4 0.4 2 0.6 3.5 1.1 3 3.7 2.3 6.2-0.6 1.9 0.4 2.7 1.9 2.6 1.5-0.1 4 0.9 4-2-0.1-3.9-0.3-7.8-0.9-11.6-0.4-2-1.8-3.7-3.8-4.5-3.1-1.2-4.6-3.8-5.8-6.6-0.2-0.6 0.4-1.7-0.7-1.7-0.9 0-0.8 1.1-0.8 1.9q-0.1 5-0.9 9.8c-0.3 1.9-0.5 4 0.5 6.1 0.6-0.9-0.1-1.8 0.7-2.6zm55.7-79.2c1.3-2.6-0.7-2.8-1.8-3.5-0.7-0.5-1.9-0.2-2.3-1.1-1-2.6-3.8-1.2-4.4-0.8-1.7 0.9-3.3 1.9-5 2.7-2.4 1.1-4.7 2.5-7 3.8-0.7 0.3-1.7 0.5-1.2 1.6 0.3 0.5-0.4 1.3 0.5 1.3 1.1-0.1 2.3-0.3 3.1-1.3 0.3-0.3 0.1-1.1 0.9-0.9 2.1 0.5 2.3 0.5 3.8-1.1 0.5-0.6 0.4-0.1 0.6 0.2 0.7 1.2 1.1 0.6 2 0 0.8-0.7 2.2-0.8 3.2-0.5 3.4 1.3 7.1 0.4 10.5 1.5 2.8 0.8 6 0.7 8.3 2.2 2 1.2 2.4 0.7 3.6-0.8-2.9-1-5.4-2.4-8.2-2.8-2-0.3-3.9-2.5-6.6-0.5zm26.4 69c0.5 0.1 1 0 1.5 0.2 1.1 0.3 1.9 3 1.2 3.5-1.2 1-1.8 2.6-0.9 3 2.4 1.2 0.8 3.1 1 4.7 2.2-0.4 3.6-2 2.5-3.5-1.3-1.9-0.5-2.9 0.6-4.3 0.7-1 1.3-2.1 1.9-3.2 1.5-2.7 1-6-1-8.1q-2.4-2.5-3.5 0.7c-0.5 1.3-0.4 2.6-0.4 4 0 0.1-0.2 0.2-0.2 0.2-0.5-0.4 0.3-1.2-0.6-1.6-0.7 1.4-0.5 3.3-2.1 4.4zm1.8-45.3c-0.3-2.2-0.4-4-0.6-5.6-0.4-2.8-0.3-6.3-4-7.5-0.5-0.2-0.6-1.4-1.4-0.7-0.6 0.5-0.1 1.2 0 1.8 0.6 2.7 2.6 5 3.1 7.8 0.3 1.5 1.1 2.9 2.9 4.2zm-11.9-19.4c0.8 1.1 1.9 1.5 3.1 1.9 3.1 1.1 6.1 2.3 8.1 5.2 0.2 0.2 0.7 0.4 0.9 0.3 0.6-0.2 0.4-0.8 0.4-1.3-0.3-2-5.6-6.6-7.6-6.6-0.1 0-0.2 0-0.2 0-1.5 0.9-3.1 0.4-4.7 0.5zm-64.4 26.8c-1.3 1.9-2.2 3.5-0.9 5.4 0.9 1.4 1.6 2.7 1.1 4.4-0.1 0.4-0.1 1 0.5 1.1 0.3 0 0.7-0.2 0.9-0.4q0.9-0.7 0.9-1.9c-0.8-0.3-0.6 0.9-1.2 0.7-0.9-2.9 0.8-6.2-1.3-9.3zm73.8 70.9c-1.5 1.4-2.5 6.1-1.7 7.5 0.2 0.4 0.4 0.9 0.9 0.6 0.5-0.2 0.6-0.6 0.3-1.1-1.2-2.2 0.5-2.6 2.6-3.1-2.4-0.6-1.6-2.5-2.1-3.9zm-68.7-13.1c0.2-3.9 0.6-7.9-0.6-12.3-0.6 4.5 0.6 8.4 0.6 12.3zm75-64.4c2.1-0.9 1.9-2.7 2.1-4.1 0.1-0.8-0.4-1-1.2-0.5-1.6 1.3-0.4 2.9-0.9 4.6zm2.6 36.7c-0.2-2.3-1.3-3.7-2.3-5.1-0.3-0.4-0.7-0.9-1.3-0.6-0.7 0.4-0.2 1.1 0.1 1.4 1.1 1.3 1.8 3 3.5 4.3zm-14-46.7c-1.5-1.7-2.3-4.2-5.4-5.1 1.4 2.7 3.8 3.5 5.4 5.1zm-65.6 33.4c0.1-1.1 0.3-1.9 0.3-2.7 0-0.6 1.8 0.2 0.7-1-0.4-0.4-1.2-0.8-1.8-0.7-0.7 0.2-0.4 1.1-0.4 1.6 0.2 0.8 0.2 1.8 1.2 2.8zm68.4 55.6c-1.2 0.8-1.9 1.8-2.1 3-0.1 0.6 0.1 1.6 1 1.7 0.9 0 0.6-0.8 0.7-1.4 0.1-1.1 0.2-2.1 0.4-3.3zm-12.5-96.8c-1.2 0.3-2.3 0.8-2.6 2.1-0.1 0.4 0.5 1 1.1 0.9 1.7-0.3 0.8-2.1 1.5-3z"/><path  d="m236.4 238.1c-1.3 3-3.6 5.2-6 7.2-1.3 1.1-3-0.3-4.2-1.4-0.4-0.4-0.5-1.3-1.3-1-1.5 0.6 0.2 0.9 0.2 1.3 0 0.2-0.5 0.5-0.7 0.6-0.7 0.3-1.4 0.4-1.9-0.4-1.6-2.1-3.3-4-4.6-6.3-2.3-4-5.2-7.7-6.5-12.3-0.3-0.7-0.9-0.8-1.3-1.2-1.8-2.1-1.8-3.9 0.1-5.8 1.9-1.8 3.7-3.9 4.9-6.2 1.8-3.1 4.6-5 7.2-7.3 3.1-2.7 6.2-0.9 8.8 0.7 2.7 1.6 5 3.9 6.9 6.5 0.9 1.3 1.9 2.5 3.2 3.2 1 0.6 1.4 1.4 1.6 2.4 0.2 1.3 0.3 2.7 2.6 1.2-1.2 3.7-4.8 5.5-3.9 9.3-1.1-0.1-1-0.6-0.9-1.1 0-0.3 0.2-0.7-0.7-1 1.1 4.7-1.1 8.2-3.6 11.6-0.2-1.1 1.1-2.2 0.4-3.6-2.1 1.5-2.3 3.8-3.6 5.7 2.1 0.4 1.5-2.6 3.3-2.1zm-10.5-31.9c-0.3 1.7-2 2.2-3.2 3.2-3 2.6-5.3 6-8.3 8.7-2 1.8-3.2 2.8-1.3 6.2 3.3 5.8 5.4 12.2 11 16.6 2.3 1.8 3.4 2.2 5.4 0.1 2.1-2.2 4-4.5 5.1-7.4 1.5-4 3.1-7.9 4.8-11.8 0.6-1.3 0.5-2.2-0.3-3.1-3.5-4.1-7-8.3-11.2-11.7-0.5-0.5-1-0.7-2-0.8z"/><path  d="m153.3 93.6c-0.7-0.8-0.5-1.6 0.5-1.8 3-0.6 3.2-2.7 3.2-5.2 0-2.1-0.6-4.3 0.5-6.7 0.6 2.4 1.1 4.4 0.7 6.5-0.2 1.6 0.1 2.2 1.9 1.5 2.2-1 3.9 0.2 5.4 1.7 1.3 1.3 2.3 0.5 3.1-0.5 0.7-0.8 1.4-1.8-0.5-2.3 1.1-0.8 2.3-0.3 3.8-0.1-2.1-3.2-2-6.5-2.4-9.8-0.2-1.1-1.4-2-1.7-3.2-0.9-3.4-1.7-6.8-0.7-10.4 0.2-0.6-0.2-1.2-0.8-1.8-1.6-1.5-1.2-2.5 0.5-3.6 1.6-1 1.7 0.3 1.7 0.9-0.1 2.1 0.4 4.1 0.9 6 1.5 7.3 1.4 14.9 3.9 22 0.5 1.5 2.6 2.9 4 3.4 2.1 0.9 3 2.6 4 4.1 0.9 1.3 1 3.2 1.3 4.8 0.2 0.7 0 1.5-0.9 1.7-0.9 0.2-0.8-0.7-0.9-1.3-0.5-1.7-1.2-3.3-1.9-4.9-1.4-3.3-4.8-3.5-7.3-5-1.3-0.7-3.7 2.1-3.6 3.9 0.1 2.2 0.3 4.3-0.6 6.3-0.1 0.4-0.2 0.8-0.6 0.7-0.6-0.1-0.7-0.7-0.4-1.1 1.3-1.6 0-3.6 0.8-5.5 0.6-1.7-5.4-4.9-7.2-4-2.3 1.1-4.5 2.4-6.8 3.7l0.1 0.1z"/><path  d="m178.8 173.8c-0.1 0.2-0.1 0.4-0.2 0.5-2.3 3.2-2.6 3.7 0.5 5.9 3.3 2.3 3.3 5.5 4 8.6 0.9 3.7 0.8 7.5 2 11.2 0.4 1-0.6 2.1-0.5 3.3-0.5-4.3-1.8-8.4-2.6-12.6-0.9-3.8-2.2-7.7-6.3-9.1-6.2-2.3-8.7-8-12.6-12.4-1.2-1.4-2.1-3.1-3.1-4.6 3.8-2.5 5.1 1.1 6.5 3 2.2 3.2 5.3 5.4 8 7.9 0.7 0.7 1.3 0.1 1.9-0.3 0.7-0.5 1.3-1.5 2.5-1.3z"/><path  d="m94.6 269.7c-1-0.4-1.8-0.2-2.5 1.5-2.7 5.8-5.9 11.3-8 17.4 0 0.2-0.3 0.3-0.8 0.6-0.1-3 0.9-5.6 2.3-7.8 2.2-3.3 2.8-7.2 4.9-10.4 2.7-4.1 1.6-7.6-0.1-11.7-1.6-3.7-3.4-7.4-4.8-11.3-0.7-2.2-2.2-4.3-3.5-6.5-1.7-2.7-3.5-5.4-5-8.2-2.8-5.5-6.4-10.7-8.8-16.4-0.3-0.8-1.7-1.6-0.5-2.6 1-0.9 1.4 1.1 2.5 0.9 0.4-0.8-0.9-1.1-0.4-2 1.2 0.6 2.2 1.1 2 2.8-0.4 2.5 2.7 2.6 3.2 4.5 0.2 1.1 2.6 1.7 1.1 2.9-1 0.7-1.6-1.2-2.2-2.1-1.1-1.3-2.2-2.8-3.9-3.6 9.1 16.9 20.6 32.7 24.5 52z"/><path  d="m136.2 62.6c0.4-0.7 1-0.6 1.5-0.7 1-0.2 2.2-0.1 1.9-1.8-0.3-1.6-1.2-2.2-2.6-1.9-0.9 0.2-1.8 0.8-2.2-0.4-0.3-1.2 1.2-1 1.8-1.6 0.1-0.1 0.3-0.2 0.4-0.2 4.1 0.4 7.9-1.3 11.9-1.3 2.3 0.1 4.5-0.6 6.7-0.9 0.8-0.1 1.7-0.7 2.2 0.3 0.2 0.6 0.3 1.4 0.1 2-0.3 0.8-1.2 0.7-1.9 0.5-1-0.1-2-0.5-1.7 1.4 0 0.6-1.7 0.5-2.6 0.1-0.4-0.2 0.5-1.2-0.6-0.9 0.4 1-2 0.7-1.1 2.3 0.5 0.8 0.6 0.7 1.2 0.6 0.7-0.1 1.9-0.6 2.1 0.5 0.2 1.1-1.1 1-1.8 1.1-2.4 0.4-4 3.2-6.9 2.4-0.4-0.2-1.2 0.2-1.2-0.2-0.2-3.4-2.8-1-3-0.9-1.7 1.4-2.9 0.3-4.2-0.4zm4.1-5c1.5 2.8 5.3 3.9 7.8 2.5 0.7-0.4 0.8-1 0.6-1.7-0.3-0.9-0.9-0.6-1.4-0.1-1.5 1.7-3.5-1.7-4.9 0.6-0.1-0.1-0.3-0.3-0.3-0.4 0.2-2.4-1.4-0.1-1.8-0.9z"/><path  d="m171.5 59.1c0.7-1.2 1.6-1.2 2.4-1.3 0.9-0.2 1.2-0.8 1.2-1.6-0.1-1.2-1.1-0.5-1.7-0.7-1-0.2-2.8 2.1-2.9-0.7-0.1-1.9 1.5-1.4 3-1.6 4-0.8 8-1.3 12.1-1.4 3 0 3.6 0.8 3.5 4.1-1.3-1.8-2.6-2.1-4.1-0.5-0.5 0.4-1.6 0.4-2.3 0.3-2.5-0.4-2.5-0.5-4.7 0.5-0.8 0.4-0.9 0.2-0.7-2-1 0.8-1.6 1.6-1.2 2.5 0.3 0.7 1.3 0.6 2.2 0.7 2.2 0 4.4-0.3 6.6 0 1.1 0.1 1.7 0.6 2.4 1.3 0.5 0.4 0.8 0.9 0.4 1.3-0.4 0.6-0.9 0.1-1.3-0.2-2.3-1.7-3.4-1.4-5 1.1-0.7 1.2-1.7 1-2.7-0.3-0.6-0.9-1.7-1.2-2.8-1.2-1.4-0.1-2.8-0.2-4.4-0.3z"/><path  d="m56.4 172.1c-2.8 2.5-5.4 5-6.9 9 6-4.4 11.7-8.7 18-12-1.6 2.4-4.1 3.7-6.4 5.1-10.5 6.5-19.1 14.6-23.7 26.4-0.1 0.4-0.3 0.9-0.5 1.2-0.3 0.5-0.4 1.2-1.1 0.9-0.6-0.2-0.8-0.9-0.5-1.3 0.9-1.2 0.2-2.4 0.3-3.6 0-0.8-1.4-2.8 1.4-2 0.6 0.2 1.3-0.9 1.6-1.6 0.6-2 2.1-3.5 3.4-5 3.2-3.8 5.8-7.9 8.6-12 1.5-2.2 3.3-4 5.8-5.1z"/><path  d="m154.9 129.5c-0.5-1.3-0.1-2 1.2-1.3 2.6 1.5 5.7 1.4 8.4 2.3 1.8 0.6 3.6 0.5 5.4-0.2 3.5-1.5 7.3-2.5 10.3-5.1 0.4-0.3 1-0.6 2.1-0.2-2.5 1-3.5 3.6-6.1 3.9-0.5 0-1.2 0.4-1.3 0.8-0.9 2.8-3.6 3.1-5.7 3-1.7-0.2-3.6-0.5-5.2-0.2-2.8 0.5-4.5-1.1-6.4-2.7-0.5 1.2 1 1.5 0.5 2.4-0.1 0-0.4 0.2-0.4 0.2-0.7-0.7-2.3-0.4-2-2 0.1-0.8 0.1-1.3-0.9-1l0.1 0.1z"/><path  d="m157.1 118.4c-1-1.7-2.5-1.9-3.5-2.7-1 0.8-0.2 1.9-0.7 3-0.8-1.5 0.3-3.8-1.9-4.4-0.4-0.1-0.8-0.6-0.9-0.5-2 1.3-2.8-0.6-3.4-1.5-1.9-2.4-5-3.6-6.2-6.6 1.9 1.3 4.1 2.5 5.8 4.1 2.5 2.3 5.7 3 8.6 4.4 2.6 1.3 5.5-0.2 6.5-2.6 0.1-0.4 0.3-0.7 0.7-0.7 0.6 0.1 0.6 0.6 0.6 1 0.2 2.1-1.5 3.8-4.2 4.2q-1.2 0.2-1.3 2.3z"/><path  d="m178.9 173.9c-0.3-1.3 0.7-2 1.4-2.7 4.1-4.7 7.2-9.9 9.3-15.7 0.2-0.6 0.5-1.1 0.8-1.7 0.2-0.5 0.5-1 1.1-0.6 0.6 0.3 0.3 0.8 0.1 1.4-1.9 3.9-3.8 7.8-5.7 11.8q1.1-1 2.2-2 0.2 0.2 0.4 0.3c-1.2 1.6-2.3 3.2-3.5 4.9-1.1-0.9 0.6-1.4-0.3-2.3-1.9 2.3-3.5 4.7-5.9 6.5z"/><path  d="m214.5 272.1c2.1-4.5 5.4-8.1 8.3-12 2.5-3.6 5.4-7 8.2-10.5 0.8-1 1.7-1.9 3.5-2.8-6 7-10.9 14.1-16.2 20.8-1.2 1.5-1.6 3.9-3.9 4.4 0 0 0.1 0.1 0.1 0.1z"/><path  d="m30.1 220.2c-0.2-3.1 0.9-5.9 1.8-8.8 0.5-1.6 1.1-3.3 1.6-5 0.2-0.5 0.8-1.1 0.2-1.7-0.2-0.2-0.7 0-1 0-1.3 0.1-0.4 1.1-0.6 1.7q-0.2 0.3-0.3 0.7c-1.1-2.9-0.9-3.6 2.8-9.1 1.1 1.4-0.1 2.5-0.4 3.7-0.2 0.7-1.2 1.5 0.5 1.9 1.2 0.3 0.6 1.2 0.3 2q-2.5 7.2-5 14.6c0 0 0.1 0 0.1 0z"/><path  d="m117 148.9c0.5 0 0.6 0.3 0.8 0.7 1.8 3.8 4.1 7.4 6.5 10.9 0.6 0.9 1.2 1.8 0 2.4-1.1 0.6-2.2-0.5-2.3-1.2-0.3-2.9-2.9-4.9-3.1-7.7-0.1-1.4-1.3-1.8-1.9-2.6-0.7-0.9-1-1.7 0-2.5z"/><path  d="m248 245.1c0.9-0.7 2.5-0.6 2.4-2.4-0.1-1-2.1-1.2-2.7-0.1-0.3 0.5-0.3 1.1-0.8 1.5l-0.8-0.4q3.2-5.6 6.5-11.2 0.3 0.1 0.6 0.2c-1.5 1.9-1.4 4.3-2 6.4-0.3 1.6 0.1 3.4-0.4 5.2-0.5 1.7-1.2 2.7-2.8 0.8z"/><path  d="m244.9 243.7c0.6 0.8 1.3 1.6 0.4 2.6-3.4 3.7-6.6 7.6-9.5 11.8-0.4 0.4-0.8 1.6-1.6 0.9-0.8-0.8 0.5-1.2 0.8-1.7 2.2-3.9 5.5-7.1 8.4-10.5 0.7-0.9 1.2-1.9 1.5-3.1z"/><path  d="m170.3 214.3c-2.3-2.8-2.1-6.4-3.2-9.5-0.1-0.3-0.1-0.9 0.5-1 0.5-0.2 0.9 0.1 1 0.5 1 3.3 1.7 6.6 1.7 10z"/><path  d="m153.4 161.6c-5.4 1.8-6.5 7.7-11.2 10 0.8-0.9 1.7-1.8 2.3-2.8 0.6-0.8 1.7-1.4 1.1-2.9-0.6-1.3 1.2-1.2 1.8-1.8 1.6-1.4 3.4-2.6 6-2.5z"/><path  d="m131.7 174.6c-0.5 0.1-1.1 0.4-1.4-0.1q-3.1-4.5-6.1-9.1c-0.4-0.6 0.3-1.1 0.8-1.4 0.6-0.2 1.3 0.2 1.2 0.7-1 2.8 2.1 3.4 2.7 5.4 0.6 1.7 2.9 2.5 2.8 4.6z"/><path  d="m156.9 103.3c1.5-2.4 2.9-4.6 4.3-6.8 0.5-0.9 1.3-1.8 2.3-1.2 0.9 0.6 0.7 1.8 0.3 2.7-0.4 0.9-0.5 1.9-1.4 2.6-1.1-0.2 0.1-1.7-0.9-1.8-1-0.2-1 1-1.6 1.5-1 0.8-1.1 2.6-3 3z"/><path  d="m137.7 106.4c3.2 1.6 4.6 5 7.6 6.8 0.6 0.4 0.7 1.1 0.2 1.6-0.5 0.6-0.9 0-1.4-0.3-3.1-1.9-4.3-5.3-6.4-8.1z"/><path  d="m238.6 323.1c0.1-0.3 0.4-0.5 0.4-0.7-1.5-4.1 0.4-8.3-0.5-12.3-0.3-1.1 0.2-1.4 1.2-2.3 0 3.8 0.4 7.3-0.1 10.7-0.3 1.3-0.3 1.7 0.4 2.8 1 1.4-0.3 1.7-1.5 1.7z"/><path  d="m130.9 98c-1.8-6-2.5-12.2-2.2-18.4 0.1 6.2 1.9 12.2 2.2 18.4z"/><path  d="m153.2 93.6c-4.2 1.8-2.2 6.2-3.8 9.1-0.3-2.2-1.3-4.4-0.4-6.7 0.7-1.9 1.9-3.3 4.3-2.4h-0.1z"/><path  d="m92.8 242.9c0.8 4.2 0.4 8.5 3 12.7-3-1.3-4.6-9.5-3-12.7z"/><path  d="m210.9 278.2c-2.5 4.3-5.4 8.4-8.6 12.3h0.1c-0.5-2.2 1.6-3.2 2.5-4.7 1.6-2.8 2.9-5.9 6-7.5 0 0-0.1-0.1 0-0.1z"/><path  d="m176.5 194.4c0.3-4.8-2.1-8.2-6.2-11 5.3 0.9 8.6 7.1 6.2 11z"/><path  d="m150 153.1q-1.3 0.9 0.1 3c-2.4-1.2-3.5-2.8-4.7-4.4-0.3-0.4-0.5-0.9-0.7-1.4-0.3-0.6-2.1-0.5-1.1-1.5 0.7-0.7 2.4 0.4 2.6 1 0.6 1.9 2.2 2.5 3.8 3.3z"/><path  d="m174.8 211.5c-1.9-2.5-2.2-5.7-0.9-7.2 1.1-1.4 3.7-1.5 6.1 0-2-0.1-3.5-1.4-5-0.1-1.3 1.3-1 2.9-0.9 4.5 1.1 0 0.9-1.2 2.1-1.4-0.5 1.4-0.9 2.6-1.4 4.2z"/><path  d="m159.3 162.8c-0.5-1.2-0.6-2.3-1.3-3.2-1.3 0.2 0.4 2.5-1.1 1.9-1.4-0.6-2.5-2.1-2.5-4.1 1.4 0.3 1.6 2.3 3.7 1.3 1.2-0.5 2.4 1.9 1.2 4.1z"/><path  d="m169.5 112.6c-2.6-1.8-1.1-4.2-1.7-6.1-0.1-0.4 0.1-0.8 0.2-1.3 0.1-0.7-1-2 0.5-2.1 1 0 0.6 1.3 0.6 2 0.2 2.4 0.3 4.7 0.4 7.5z"/><path  d="m157.5 41.7q-5.3 0-10.5 0c-0.6 0-1.5 0.2-1.5-0.7 0-0.7 0.8-0.9 1.4-0.8 3.5 0.6 7 0.5 10.6 0.6q0 0.4 0 0.9z"/><path  d="m209.2 162.4c-0.1 0.1-0.1 0.4-0.3 0.6-0.3 0.2-0.6 0-0.8-0.3-1.4-1.2-2.6-2.9-4.9-2-0.5 0.2-1.3-0.4-1.9-0.8-0.5-0.3-0.7-0.8-0.5-1.4 0.3-0.6 1.2-0.4 1.4-0.2 1.5 2 4.3 1 5.9 2.6 0.4 0.4 1.1 0.6 1.1 1.5z"/><path  d="m163.8 184.9q-2.8-4-5.7-7.9c3.5 1.4 5.2 4.2 5.7 7.9z"/><path  d="m176.5 194.4c-3.4 0.4-5.3-0.7-6.9-4.4-0.5-1.2-2.4-2.9-1-3.6 1.4-0.6 1.3 2 1.9 3.1 1.3 2.6 2.9 4.7 6 4.9 0 0 0 0 0 0z"/><path  d="m164.8 104.9c0.9 3.5 0.7 7.1 0.3 10.6-0.6-3.5-1.4-7.1-0.3-10.6z"/><path  d="m168.3 202.1c-2.9-2.8-2.9-6.4-2.8-9.9 0.6 3.4 2 6.6 2.8 9.9z"/><path  d="m148.8 105.5c2.5-1.9 5-3.9 7.5-5.8 0.2-0.1 0.7 0 0.9 0.2 0.5 0.5 0 0.8-0.4 1-2.7 1.4-4.7 3.9-8 4.7z"/><path  d="m95.7 264.4c-0.8-2.6-0.9-5.4-2-8.2 2.6 1.2 3 3 2 8.2z"/><path  d="m137.3 173.3c-0.1-0.4-0.2-1.2-0.1-1.2 2.8-1.1 4.2-3.8 6.5-5.4-0.2 1.9-4.5 6.2-6.5 6.6 0 0 0.1 0 0.1 0z"/><path  d="m175 111.2c-2.6-1.2-3.2-3.3-3.4-5.6 0-0.6 0-1.2 0.7-1.2 0.6 0 0.9 0.5 0.8 0.9-0.8 2.2 1.2 3.5 1.8 5.2 0.1 0.2 0.1 0.4 0.1 0.7z"/><path  d="m95.8 379.9q4.9 1.6 9.9 3.3-0.2 0.4-0.3 0.9c-3.2-1.6-7-1.2-9.6-4.2z"/><path  d="m131.7 174.6v0.1c2.2 1.1 3.7-0.8 5.6-1.4h-0.1c-0.3 1.8-2.2 2.3-3 3.7-0.2 0.4-1.1 0.5-1.7 0-0.7-0.6-1.5-1.3-0.8-2.4z"/><path  d="m155.2 21.7c-1 0.6-0.5-2.9-1.9-0.3-0.1 0.1-0.6-0.1-1-0.2 0.9-1.4-0.3-2.6-0.2-4 0-0.3 0.9 0 1.3 0.3 1.7 1 1.4 2.8 1.8 4.2z"/><path  d="m174.7 100.8c-0.5-2.4-2-4.4-2.5-6.9 1.2 1.9 2.8 3.3 3.9 5 1 1.7-0.4 1.6-1.4 1.8v0.1z"/><path  d="m130.3 65.9c0-0.7-0.1-1.3-0.2-2.1-0.8 0.7-0.2 1.6-0.8 2.4v-8.6q0.2 0 0.4 0 0.5 4.2 1 8.4-0.2-0.1-0.4-0.1z"/><path  d="m23 273.7c2.4 2.5 2.4 3.1 0 6.6-0.2-2.5-0.4-4.6 0-6.7z"/><path  d="m172 221.2c-2.6-0.9-2-3.2-2.4-5.4 2.5 1.3 1.5 3.8 2.4 5.4z"/><path  d="m154.6 155.8c-0.7 0.8-0.8 1.7-1.7 2.2-0.3-1.1-1.8-1-2.1-1.9 0-0.3-0.1-1.7 1.4-1.4 0.9 0.3 1.8 0.2 2.4 1.1z"/><path  d="m134.7 108.3c-3-0.1-3.9-2-4.5-5 1.8 2 3.2 3.5 4.5 5z"/><path  d="m156.6 16.6c1.2 1.8 2.3 3.4 3.4 5.1-2.9-0.6-3.9-2-3.4-5.1z"/><path  d="m192.8 159.9c2.7-3.1 6-3.5 7.3-0.9-2.5-1.3-4.7-0.6-7.3 0.9z"/><path  d="m161.2 381.9c-2.6 1.1-5.2 2-8.1 2q4-1.3 8-2.6 0.1 0.3 0.1 0.6z"/><path  d="m131.5 388.2c-3 0.4-5.9 0.4-8.9-0.3 3 0.3 5.9-1 8.9 0.3z"/><path  d="m207.3 364.1c1.7-2.1 4.3-2.4 6.6-3.3-1.9 1.7-4.3 2.4-6.6 3.3z"/><path  d="m138.6 143.8c1.4 1 3.6 1.7 2.4 4.6-0.9-1.7-2.4-2.8-2.4-4.6z"/><path  d="m114.5 386c-2.7 0.3-5.3-0.1-7.5-1.8q3.7 0.9 7.5 1.8z"/><path  d="m134.7 139.8c0.1 1.9 3.2 2.2 2.5 4.6q-3.3-1.8-2.4-4.6c0 0-0.1 0-0.1 0z"/><path  d="m214.4 272c-0.2 2.6-2 4.3-3.6 6.2 0 0 0.1 0 0.1 0-0.2-2.8 2-4.3 3.6-6.1z"/><path  d="m119.3 237.6q-0.9 3.3-1.7 6.7-0.3-0.1-0.6-0.2 0.9-3.3 1.8-6.7 0.2 0.1 0.5 0.2z"/><path  d="m140.6 387.3c-2.1 0.8-4.2 1.2-7.1 0.9 2.8-0.9 4.9-1.2 7.1-0.9z"/><path  d="m175.9 212.4c2 0.2 3.8 1 6.2-0.5-2.1 2.4-3.5 2.4-6.2 0.5z"/><path  d="m161.6 169.7c0.8 0.9 1.7 1.8 2.4 2.7 0.1 0.1-0.1 0.5-0.3 0.6-0.5 0.4-1.2 0.1-1.3-0.4-0.1-1.1-2-1.1-1.5-2.5 0.1-0.1 0.4-0.2 0.6-0.4z"/><path  d="m182.1 91.3c2.4 1.2 3.6 2.6 1.7 5 0-1.8-0.7-3.3-1.7-5z"/><path  d="m278.5 300c1.2 2.3 1.3 3.3 0.8 7 0-1.2-0.1-2.4 0-3.6 0-1.2-1.5-2-0.8-3.4z"/><path  d="m159.9 19.5c-1.1-1.9-0.5-4.3 1.7-5.9-1.1 2.1-1.9 3.8-1.7 5.9z"/><path  d="m202.3 290.5c-0.9 1.9-1.9 3.9-3.7 5.3 1.6-1.6 0.9-4.6 3.8-5.3z"/><path  d="m238.5 323c1.3 2-1.3 3.6-0.8 4.6 0.4-0.9-1-2.9 0.9-4.5 0 0-0.1-0.1-0.1-0.1z"/><path  d="m127.4 62c-0.1-2.1-0.2-4.2-0.3-6.9 1.3 2.6 0.8 4.7 0.7 6.7 0 0.1-0.2 0.1-0.4 0.2z"/><path  d="m174.7 100.7c-1.1 1.7-1.5-0.5-2.4-0.5-1.2-0.1-2.3-1-2.7-2.4 1.5 1.4 3.6 1.7 5.1 3 0 0 0-0.1 0-0.1z"/><path  d="m79.8 228.9c-0.5-1.6-2.5-2.3-2.2-4.3 0.5 1.6 2.6 2.2 2.2 4.3z"/><path  d="m123.1 69.2c1 2 0 3.5-1.1 5.1-0.6-1.6-0.2-3.2-1-4.7-0.2-0.5-0.7-1.2 0.1-1.6 0.8-0.4 1.5-0.1 1.9 0.8q0 0.2 0.1 0.4z"/></svg>