<?xml version="1.0" encoding="UTF-8"?><svg id="b" xmlns="http://www.w3.org/2000/svg" viewBox="0 0 332.79 327.4"><defs><style>.d{fill:#0198cc;}.d,.e,.f,.g,.h,.i{stroke-width:0px;}.e{fill:#48b9c0;}.f{fill:#fff;}.g{fill:#3b2e87;}.h{fill:#7bdacb;}.i{fill:#1f62a9;}</style></defs><g id="c"><path class="f" d="M179.49,326.28c-.27.52-.67.89-1.31,1.13-.06-2.9-1.99-4.51-4.06-5.97-4.41-3.12-9.32-5.4-13.91-8.23-4.84-2.99-9.59-6.11-13.52-10.3-1.39-1.48-2.59-3.08-3.42-4.94-2.09-4.68-1.28-8.81,2.76-11.96,3.4-2.65,7.1-4.9,10.59-7.43,3.16-2.28,6.07-4.85,8.51-7.92,3.07-3.86,3.5-7.86.94-12.18-3.87-6.5-9.54-11.27-15.19-16.07-3.56-3.02-7.4-5.72-10.55-9.23-6.91-7.68-8.52-16.99-8.61-26.87-.05-6.18-.31-12.36-2.75-18.22-3.23-7.76-9.16-13.12-15.73-17.92-6.88-5.02-14.39-8.98-22.12-12.49-8.89-4.03-15.52-10.26-19.49-19.24-.58-1.3-1.33-2.52-1.97-3.75-2.18-.28-3.97.5-5.76,1.22-5.06,2.05-10.11,4.12-15.58,4.91-6.78.97-13.14-.79-19.45-2.88-7.3-2.42-14.07-5.83-19.82-11.06-11.57-10.52-11.32-24.24-3.46-36.03,3.97-5.95,9.87-9.38,16.13-12.21,6.82-3.09,9.77-8.45,10.33-15.62.43-5.54.11-11.08.33-16.62.11-2.81.56-5.56,1.16-8.31,2.12-9.6,10.98-14.7,20.85-12.05,4.59,1.23,8.87,3.32,13.42,4.66,2.67.79,5.32,1.2,8.05.3,3.93-1.29,6.83-5.69,4.6-9.74-.31-.56-.44-1.21-.64-1.82-2.32-7.16,1.06-11.99,8.62-12.18,4.17-.11,8.35.15,12.47-.8,2.97-.69,5.75-1.77,8.3-3.47,1.13-.76,2.31-1.47,3.55-2.03,5.25-2.39,10.22-.24,12.11,5.22,1.16,3.36,1.33,6.9,1.76,10.39.31,2.5.65,5,1.47,7.38,1.24,3.61,3.36,4.82,7.13,4.3,3.46-.47,6.66-1.76,9.85-3.06,6.49-2.65,13.26-3.74,20.23-3.69,1.08,0,2.17-.1,3.24.02,9.07.97,15.83-3.05,21.4-9.75.54-.65,1.12-1.27,1.72-1.94.5.64.21,1.19.16,1.72-.57.61-.58,1.43-.8,2.18-1.19,4.03-2.81,7.81-5.61,11.05-4.9,5.67-11.53,7.12-18.46,7.42-8.24.35-16.04,2.19-23.5,5.62-.44.15-1.02-.05-1.28.53h.02c-.63.08-1.28.13-1.9.28-12.56,3.05-20.87-2.02-23.69-14.62-.81-3.62-1.19-7.34-1.81-11.3-7.15,4.47-15.01,5.78-23.21,5.76.04.5.01.79.09,1.06,2.89,9.37-3.32,19.71-13.45,22.41-5.96,1.59-11.53.29-17.09-1.7-3.25-1.16-6.46-2.47-9.77-3.41-3.9-1.11-6.05.23-7.04,4.14-.39,1.52-.66,3.11-.72,4.68-.2,5.75-.15,11.52-.45,17.26-.36,6.88-2.11,13.35-6.79,18.7-3.11,3.55-7.18,5.7-11.3,7.78-3.15,1.59-6.38,3.11-8.73,5.85-5.93,6.92-8.28,16.36.74,23.94,5.85,4.91,12.66,7.86,20.04,9.59,5.84,2.14,11.49,1.22,17.1-.95,4.32-1.67,8.48-3.84,13.19-4.32,1.4.05,2.8.1,4.2.14,4.25.97,6.94,3.73,8.81,7.52,1.81,3.64,3.51,7.32,6.41,10.34,3.91,4.07,9.04,5.96,13.89,8.41,11.05,5.58,21.69,11.74,30.21,20.94,5.84,6.31,9.58,13.7,10.88,22.25.77,4.15.74,8.34.89,12.54.13,3.63.45,7.3,1.2,10.84,1.84,8.75,8.93,13.21,15.4,18.12,3.52,3.57,7.5,6.68,10.77,10.5,5.08,5.94,9.3,12.26,8.89,20.57-.29,3.76-2.16,6.99-3.51,10.4h.01c-.26.25-.57.55-.88.87h.02c-.29.28-.57.57-.86.87-1.53,1.61-3.07,3.19-4.58,4.82-2.53,2.74-5.97,4.47-8.32,7.41-2.9,3.63-3.75,5.49-1.12,9.14,1.77,2.45,4.07,4.33,6.28,6.34,4.88,4.43,9.38,9.15,12.3,15.23.9,1.87-.18,3.9,1.16,5.51Z"/><path class="f" d="M199.97,33.16c.99,5.62.88,8.05-.74,14.34,3.32-.37,6.42-.02,9.14,2.06,2.83,2.17,3.86,5.07,3.66,8.97,1.9-1.52,3.56-2.71,5.06-4.08,6.18-5.66,12.93-5.96,20.1-2.21,3.56,1.87,7.16,3.69,10.55,5.84,7.14,4.52,14.98,6.91,23.26,7.88,12.94,1.52,24.9,5.54,35.64,13.07,4.29,3.01,9.15,5.11,13.47,8.11,12.57,8.72,15.71,19.5,9.78,34.49-2.82,7.13-7.7,12.94-12.52,18.77-2.06,2.5-4.07,5.04-6.19,7.49-7.65,8.9-11.45,19.21-12.13,30.91-1.02,17.69-6.73,33.99-15.44,49.32-5.22,9.19-12.84,14.93-23.28,17.35-7.95,1.84-15.84,4.03-23.18,7.92-9.21,4.88-15.59,11.67-17.68,22.24-2.43,12.28-8.35,22.73-17.76,31.09-.96.85-2.01,1.62-3.42,2.16,1.78-3.77,3.18-7.78,5.43-11.25,5.43-8.37,9.11-17.36,11.38-27.05,2.51-10.75,10.19-17.11,19.38-22.17,8.17-4.49,17.14-6.63,26.01-8.9,7.87-2.02,13.53-6.44,17.56-13.21,8.6-14.47,14.37-30,15.27-46.88.79-14.87,6.34-27.35,16.08-38.35,5.14-5.81,10.25-11.69,13.92-18.63,1.76-3.33,2.93-6.83,3.55-10.57,1.2-7.24-1.32-12.94-6.77-17.61-5.62-4.82-12.54-7.57-18.56-11.74-9.09-6.3-19.27-9.56-30.13-10.78-10.79-1.21-20.63-4.82-29.77-10.6-3.15-1.99-6.42-3.81-9.96-5.09-3.33-1.2-6.33-.87-9.12,1.35-2.31,1.84-4.65,3.63-6.94,5.5-1.56,1.28-3.35,1.93-5.32,2.16-3.2.38-4.92-1.36-4.55-4.58.07-.64.27-1.27.38-1.9.72-4.03-2.34-6.59-6.27-5.25-2.48.85-4.57,2.4-6.73,3.83-1.06.7-2.09,1.35-3.26.22-.7-1.72.36-2.94,1.21-4.14,4.3-6.08,7.39-12.64,8.24-20.12.21,0,.42.01.62.02Z"/><path class="e" d="M132.96,138.39c-3.82-8.6-9.01-15.37-14.2-21.2-.02-.02-.04-.04-.06-.07-.04,0-.07,0-.11,0-8.79-.47-17.02-.11-24.41.69-.31,1.26-.41,2.55-.2,3.87,1.67,10.64,23.02,21.89,44.87,32.97-1.43-5.09-3.33-10.47-5.9-16.25Z"/><path class="h" d="M138.86,154.64c17.42,8.83,35.16,17.55,43.53,25.79-.91-5.47-2.45-11.07-4.37-16.25-10.22-27.56-29.3-44-59.1-46.92-.05-.02-.1-.05-.16-.07,5.2,5.82,10.38,12.6,14.2,21.2,2.57,5.78,4.47,11.16,5.9,16.25Z"/><path class="d" d="M112.21,110.2c-2.07-2.16-4.04-4.22-5.82-6.25-3.39,2.2-10.63,7.53-12.21,13.86,7.39-.8,15.62-1.15,24.41-.69.04,0,.07,0,.11,0-2.2-2.46-4.39-4.75-6.48-6.93Z"/><path class="h" d="M205.83,211.82c-3.41-13.38-12.95-23.18-23.44-31.39,2.41,6.88,6.04,38.11,1.03,67.95,3.89,2.43,7.49,4.9,10.47,7.4,0,0,0,0,.01.01,0,0,0,0-.01-.01,2.89-4.2,5.57-8.45,7.72-13.01,2.92-6.18,4.92-12.48,5.33-19,.04-.62.06-1.24.07-1.85,0-.04,0-.09,0-.13.04-3.26-.33-6.58-1.19-9.96Z"/><path class="d" d="M138.86,154.64c-21.86-11.08-43.2-22.32-44.87-32.97-.21-1.32-.11-2.61.2-3.87-13.41,1.45-24.05,4.34-30.32,6.38,1.16-.31,2.34-.55,3.56-.68,1.4.05,2.8.1,4.2.14,4.25.97,6.94,3.73,8.81,7.52,1.81,3.64,3.51,7.32,6.41,10.34,3.91,4.07,9.04,5.96,13.89,8.41,11.05,5.58,21.69,11.74,30.21,20.94,5.84,6.31,9.58,13.7,10.88,22.25.77,4.15.74,8.34.89,12.54.03.85.07,1.7.13,2.55-.37-17.78,1.66-33.38-3.99-53.55Z"/><path class="d" d="M158.67,234.12c.22.17.44.33.66.5,3.52,3.57,7.5,6.68,10.77,10.5,5.08,5.94,9.3,12.26,8.89,20.57-.07.89-.23,1.75-.45,2.58,2.16-6.36,3.75-13.09,4.89-19.89-7.97-4.96-17.16-9.75-24.76-14.26Z"/><path class="e" d="M182.39,180.43c-8.37-8.23-26.12-16.96-43.53-25.79,5.65,20.17,3.62,35.76,3.99,53.55.18,2.79.5,5.58,1.07,8.3,1.78,8.46,8.45,12.91,14.74,17.63,7.6,4.51,16.79,9.29,24.76,14.26,5-29.84,1.37-61.06-1.03-67.95Z"/><path class="e" d="M193.89,255.77c-2.97-2.5-6.57-4.97-10.47-7.4-1.14,6.81-2.73,13.54-4.89,19.89-.7,2.71-2.04,5.21-3.07,7.81h.01c-.26.25-.57.55-.88.87h.02c-.29.28-.57.57-.86.87-1.26,1.33-2.54,2.65-3.79,3.99,8.85-7.17,17.32-16.35,23.93-26.03Z"/><path class="h" d="M193.91,255.79s0,0-.01-.01c-6.6,9.68-15.07,18.87-23.93,26.03-.26.28-.52.55-.78.83-2.53,2.74-5.97,4.47-8.32,7.41-2.9,3.63-3.75,5.49-1.12,9.14,1.77,2.45,4.07,4.33,6.28,6.34,4.88,4.43,9.38,9.15,12.3,15.23.9,1.87-.18,3.9,1.16,5.51h0c1.22-.92,1.73-2.25,2.08-3.66.85-3.5-.39-6.66-1.65-9.81-1.94-4.86-4.79-9.33-6.26-14.4-1.75-6.05-.11-10.03,5.49-12.81,1.73-.86,3.57-1.49,5.41-2.09,3.91-1.26,7.72-2.73,11.15-5.03,7.06-4.74,8.04-10.91,2.76-17.59-1.4-1.78-3.01-3.38-4.57-5.11Z"/><path class="i" d="M100.8,75.73c11.02.22,22.06.45,36.07-4.08,52.03-16.81,54.95-51.63,54.88-59.98-.48.6-.51,1.37-.72,2.07-1.19,4.03-2.81,7.81-5.61,11.05-4.9,5.67-11.53,7.12-18.46,7.42-3.96.17-7.83.69-11.6,1.55-33.56,12.5-49.08,27.62-54.57,41.97Z"/><path class="i" d="M98.45,86.18c.25-3.4,1-6.9,2.35-10.45-13.68-.27-27.31-.53-46.56,8.33-20.67,9.53-33.14,37.98-13.56,45.65,4.59.77,9.08-.16,13.55-1.89,1.14-.44,2.27-.92,3.4-1.39.12-.05.24-.1.36-.15.78-.32,2.8-1.11,5.86-2.1,6.27-2.04,16.92-4.93,30.32-6.38,1.58-6.33,8.82-11.66,12.21-13.86-5.03-5.74-8.44-11.18-7.95-17.77Z"/><path class="d" d="M106.4,103.95l.13-.07c8.05-5.05,16.89-9.23,25.64-12.88,18.58-7.74,34.52-19.01,46.36-35.51,8.18-11.4,13.03-24.05,13.43-38.23-.14-1.94.2-3.84-.13-5.7-.03.03-.06.07-.09.11.07,8.35-2.85,43.17-54.88,59.98-14.01,4.53-25.06,4.3-36.07,4.08-1.36,3.55-2.1,7.04-2.35,10.45-.49,6.6,2.92,12.03,7.95,17.77Z"/><path class="g" d="M143.46,37.83c-.43.15-1.01-.04-1.28.52-.63.09-1.27.14-1.88.29-12.56,3.05-20.87-2.02-23.69-14.62-.81-3.62-1.19-7.34-1.81-11.3-7.15,4.47-15.01,5.78-23.21,5.76.04.5.01.79.09,1.06,2.89,9.37-3.32,19.71-13.45,22.41-5.96,1.59-11.53.29-17.09-1.7-3.25-1.16-6.46-2.47-9.77-3.41-3.9-1.11-6.05.23-7.04,4.14-.39,1.52-.66,3.11-.72,4.68-.2,5.75-.15,11.52-.45,17.26-.36,6.88-2.11,13.35-6.79,18.7-3.11,3.55-7.18,5.7-11.3,7.78-3.15,1.59-6.38,3.11-8.73,5.85-5.93,6.92-8.28,16.36.74,23.94,5.85,4.91,12.66,7.86,20.04,9.59,1.19.44,2.37.74,3.55.94-19.58-7.67-7.11-36.12,13.56-45.65,19.24-8.87,32.88-8.61,46.56-8.33,5.49-14.35,21.01-29.47,54.57-41.97-4.07.94-8.03,2.29-11.9,4.07Z"/></g></svg>