<?xml version="1.0" encoding="UTF-8"?>
<svg id="Layer_2" data-name="Layer 2" xmlns="http://www.w3.org/2000/svg" viewBox="0 0 292.59 781.8">
  <defs>
    <style>
      .cls-1, .cls-2 {
        stroke-width: 0px;
      }

      .cls-2 {
        fill: #fff;
      }
    </style>
  </defs>
  <g id="Layer_4" data-name="Layer 4">
    <g>
      <path class="cls-2" d="M69.33,167.94c-1.47.2-1.67.38-1.27.35.38-.12.76-.21,1.13-.29.05-.02.1-.04.14-.06Z"/>
      <path class="cls-2" d="M70.27,167.43c-.19.13-.38.25-.56.34-.13.07-.26.12-.38.18.13-.02.28-.04.43-.05.19-.17.36-.33.51-.46Z"/>
      <polygon class="cls-2" points="69.75 167.9 69.75 167.9 69.76 167.89 69.76 167.89 69.75 167.9"/>
      <path class="cls-2" d="M126.42,546.12c.35-.11.71-.16,1.08-.19-.29-1.74-.58-3.47-.89-5.2-.05,1.8-.11,3.6-.18,5.39Z"/>
      <path class="cls-2" d="M279.73,244.75c.65-5.57-2.56-11.66-9.64-11.89-.51-.4-1.04-.78-1.57-1.13-.36-.24-.73-.43-1.12-.61-1.17-.53-2.36-1.11-3.61-1.41-.89-.21-1.8-.31-2.72-.32-.48-1.45-1.29-2.8-2.49-3.91-8.35-7.74-16.69-15.49-25.04-23.23-1.05-.97-2.16-1.66-3.28-2.13-.72-1.69-1.27-3.41-1.58-5.14-.3-1.63-1.1-3.05-2.2-4.21.2-.76.36-1.55.47-2.38.98-7.31-2.19-13.06-7.61-17.48-.93-4.19-3.49-7.94-6.72-10.79-4.76-4.19-9.92-7.26-16.26-6.44-3.05-2.24-6.12-4.46-9.23-6.6-7.38-.62-18.18-2.9-19.39-11.31-.71-.31-1.42-.61-2.14-.9-.06-.25-.13-.51-.23-.75-.17-.44-.35-.88-.53-1.32,1.06-5.86-2.25-12.65-9.94-12.65-.04,0-.07,0-.1,0-.13-.88-.26-1.75-.41-2.63-.58-3.44-2.14-6.18-4.29-8.27.02-.02.04-.03.05-.05l1.74-1.74c1.02-.95,1.75-2.08,2.17-3.38.2-.38.35-.77.49-1.16.57-.25,1.13-.52,1.69-.81,8.64-4.53,14.1-12.57,17.42-21.5,2.13-5.71,3.19-11.94,3.41-18.3.18-.48.32-.98.4-1.5.13-.93.25-1.86.36-2.79,0,0,0,0,.01,0,0-.07.01-.15.02-.22.56-4.57.89-9.11.75-13.75-.11-3.71-2.23-7.31-5.37-9.18-.65-2.09-1.38-4.13-2.16-6.09-2.65-6.63-5.72-12.29-12.15-15.88-5.55-3.1-11.98-2.93-18.13-2.92-9.87.02-19.72.56-29.55,1.52-9.6.94-18.98,7.83-18.5,18.5.19,4.32,2.01,8.89,4.95,12.41-.71.9-1.38,1.86-1.97,2.88-5.43,9.31-7.53,21.17-6.38,31.8.5,4.63,1.67,9.15,3.88,12.93-1.69,6.17-1.79,12.85.1,19.31.78,2.68,2.21,5.14,4.07,7.22.55-.18,1.16-.27,1.84-.27,3.56,0,5.39,2.69,5.49,5.45.39.16.79.31,1.2.44-.05,2.72.01,5.43.17,8.13-5.23.76-10.44,1.64-15.62,2.72-9,1.88-14.4,11.75-13.25,20.3.03.24.07.49.12.73,0,.79.04,1.59.13,2.37-1.93.61-3.69,1.44-5.37,2.45-7.08,2.86-14.24,5.82-19.63,11.32-.57.58-1.04,1.17-1.44,1.78-5.53,2.59-6.58,8.79-4.53,13.61-.03.06-.07.12-.1.18-5.82,11.4-8.52,25.13-12.01,37.4-1.8,6.33-3.53,12.7-5.15,19.11,6.36.95,6.03,11.3-.96,11.3-.62,0-1.19-.09-1.71-.24-2.13,9.37-3.94,18.81-5.26,28.3,1.9.27,3.59,1.52,4.1,4.04,1.5,7.28-1.21,13.54-2.67,20.35.38.35.74.75,1.05,1.25,7.45,11.66,18.62,20.31,26.09,32,.48.75.76,1.5.86,2.22.11.04.23.08.34.12.56,6.54,1.89,12.98,4.44,19.03,1.38,3.27,3.5,6.01,6.07,8.11-2.15,24.73-.21,49.46,2.94,74.04-4.34,3.31-7.14,8.45-7.33,14.52-1.14,36.06-.77,72.15,1.2,108.18.98,18.01,2.36,36,4.12,53.95,1.45,14.77,3.19,29.57,2.76,44.44-.05,1.83-.14,3.66-.27,5.49-.05.78-.11,1.56-.18,2.33,0,0,0,.09-.02.22-.73,1.96-1.48,3.91-2.23,5.86,2.29,1,3.88,3.31,2.84,6.39-3.48,10.29-5.77,22.09-15.48,28.44-.09.06-.17.1-.26.15.06,1.56.36,3.14.86,4.69-4.4,1.45-8.79,2.89-13.19,4.34-.89.29-1.64.69-2.26,1.16-3.67-.21-7.29-.43-10.98-.19-8.31.54-8.37,13.54,0,13,7.31-.48,15.04,1.54,22.23-.08,2.43-.55,4.49-1.69,6.43-3.12,4.52-.66,9.04-1.33,13.56-1.99,1.97.24,3.98.23,5.93-.08,1.31,1.08,2.94,1.84,4.88,2.18,5.18.91,9.57-2.15,12.45-6.2,6.42-9.05,9.41-20.99,8.73-31.98-.03-.5-.11-.97-.23-1.41,1.04-3.71,1.87-7.53,2.49-11.45,1.16-3.13,2.28-6.27,3.38-9.42-1.64-.82-2.84-2.44-2.76-4.86.31-9.89,1.93-19.62,3.75-29.32-1.02-.92-1.69-2.27-1.67-4.08.47-29.43,6.15-58.39,8.7-87.65.2-2.35,1.54-3.93,3.22-4.77.18-5.94.25-11.88.21-17.81-.06-8-.81-16-.68-23.99.09-5.43.49-10.84.77-16.27,1.8-4.65,3.36-9.36,4.63-14.19,1.1-.22,2.27-.13,3.33.25,1.3,9.57,1.36,19.38,4.23,28.7.09.3.22.57.34.84,0,.09-.02.17-.03.26-.14,2.2-.27,4.41-.39,6.63,1.36.56,2.46,1.75,2.85,3.7,5.05,25.14,5.15,50.75,6.98,76.21,1.61,6.47,2.89,13.01,4.16,19.55.38,1.97,1.4,3.26,2.7,3.98.43,12.13.54,24.25.31,36.27.71.84,1.21,1.92,1.35,3.24,1.33,12.49,1.77,25.05,2.78,37.57.1,1.3-.17,2.35-.69,3.19.07,3.01-.38,5.96-.86,8.9,1.66,4.28,4.46,8.03,8.32,10.22-.02.31-.04.61-.06.92-.1,1.19-.21,2.37-.33,3.55-.02.16-.05.46-.1.81-1.55,7.1-3.27,14.17-5.16,21.19,1.57,9.12,2.29,18.33,2.36,27.59,2.17,2.19,4.87,3.82,7.93,4.51,10.63,2.42,18.97-3.25,22.76-12.92,4.42-11.3,7.13-22.92,8.68-34.74,1.06-5.05,2.03-10.11,2.95-15.19-.09-.41-.14-.86-.13-1.33.04-10.33.61-20.65-.35-30.96-.23-2.49.95-4.13,2.62-4.91-.32-14.85.75-29.72,3.31-44.48,2.24-12.91,4.77-25.07,3.92-38.27-.85-13.25-3.38-26.32-3.24-39.64.01-1.34.41-2.44,1.04-3.29-2.33-7.25-5.35-14.28-9.23-21.08-.21-.37-.45-.71-.68-1.06-.51-14.91-.83-29.82-.79-44.74.05-15.33.91-30.63,1.05-45.95.15-16.62-1.08-33.21-2.32-49.77-.22-2.97-1.47-5.71-3.46-7.65-.1-1.98-.19-3.96-.3-5.94-.1-1.82-.46-3.64-1.04-5.38,1.2-.14,2.4-.31,3.59-.5.11-.29.23-.58.38-.83.75-1.28,2.01-2.18,3.4-2.62,1.03-.32,2.11-.38,3.13-.7,6.57-1.57,12.13-5.3,17.68-9.01,5.56-3.71,11.31-6.89,17.07-10.26,5.83-3.41,11.34-7.17,16.29-11.78,4.58-4.27,9-8.6,14.39-11.86.92-.56,1.83-.81,2.68-.85,3.47-3.77,6.84-7.62,9.5-11.79.3-.15.58-.33.85-.53.98-.74,2.02-1.38,3.1-1.94.35-.12.69-.26,1.04-.36,2.57-.77,4.91-2.49,6.28-4.83,1.32-2.25,1.88-5.57,1.06-8.09-.59-1.83-1.65-3.47-3.01-4.76.01-.47.08-.93.23-1.37,1.09-3.17,2.6-6,4.94-8.42.34-.35.73-.63,1.14-.86.47-9.02-3.13-17.44-8.98-23.96ZM236.23,286.14c-.12.13-.23.27-.35.41-8.41,16.09-17.6,34.18-34.63,42.05-2.39,1.1-4.89.98-6.9-.89-1.87-1.75-3.3-3.68-4.37-6.02,0,0,0-.01,0-.02-1.32.34-2.64.66-3.98.94.03-4.03-.96-7.83-2.74-11.19,2.6-5.06,5.06-10.2,7.39-15.41-.18-.49-.32-1-.39-1.54-.57-4.29.73-8.07,2.52-11.92.29-.63.65-1.14,1.05-1.55.78-7.9,3.75-15.17,5.68-22.83.23-.93.63-1.68,1.13-2.28.02-.48.04-.95.06-1.43.12-3.11,2.24-4.89,4.62-5.36,1.69,1.8,4.12,2.99,7.33,2.99.85,0,1.64-.08,2.38-.24,2.46,1.21,5.07,2.17,7.66,2.98,1.17.37,2.35.78,3.54,1.06.23.05.41.1.58.13.06.04.12.08.19.12.34.21.99.49,1.64.8-2.79,1.96-4.73,5.22-4.58,8.63.18,3.98,2.25,7.29,5.4,9.08.56,1.37,1.36,2.65,2.59,3.81,1.1,1.04,2.27,1.73,3.52,2.33.55.56,1.18,1.07,1.96,1.53.5.29,1.05.54,1.63.75-.99,1-1.97,2.01-2.91,3.06Z"/>
      <path class="cls-2" d="M71.06,166.81c.47-.41.49-.53-.79.61.06-.04.11-.08.17-.12.2-.17.41-.33.62-.5Z"/>
    </g>
    <g>
      <path class="cls-1" d="M25.32,311.71c-.86.12-1.78-.42-1.79-.98-.07-3.02-2.8-4.73-3.44-7.42-.05-.19.14-.44.28-.87.94.59.65,1.87,1.56,2.36.5.26.7.16,1-.15.29-.3.3-.55-.11-.71-.82-.33-.8-.82-.46-1.55,1.72-3.72.7-7.85,1.7-11.66,1.15-4.41-1.36-6.78-4.46-8.99-.59-.42-1.19-.66-1.82-.42-2.18.83-1.75-.55-1.45-1.71,1.42-5.55,3.77-10.78,5.83-16.1.66-1.7.86-3.52,1.56-5.22.46-1.11.17-2.79.73-4.19.33-.83.89-1.74,1.54-1.76,2.53-.07,4.15-2.2,6.47-2.64.98-.19,1.31-.88,1.35-1.78.05-1,.09-2.03-1-2.55-1.17-.56-2.34-1.15-3.57-1.54-1.01-.32-1.59-.86-.85-1.71,3.59-4.14,3.7-9.58,5.35-14.42,1.01-2.95,1.22-6.16,1.79-9.26.01-.08.11-.2.1-.21-2.47-1.91.71-3.49.33-5.45-.38-2,.09-4.63,1.04-6.13,1.01-1.6.4-2.81.71-4.12,1.53-6.37,3.35-12.68,5.2-18.96.28-.96-.81-1.79.1-2.71.46-.47-.21-1.63.71-1.92,1.17-.36.58,1.38,1.67,1.49.18-2.6,1.24-4.97,1.73-7.48.17-.87.27-1.58,1.71-1.76,1.48-.18,3.08-1.39,3.6-3,.64-1.96,2.05-2.24,3.7-2.87,2.07-.79,4.14-1.92,5.72-3.62.83-.89,1.92-1.23,2.88-1.82,1.42-.86,3.39-1.5,4.13-2.71,1.25-2.04,3.29-2.68,4.96-3.85,3.36-2.35,4.9-5.59,4.02-9.67-.61-2.83-.29-5.72-.2-8.57.05-1.6,1.53-2.04,2.87-2.03,5.81.03,11.18-1.52,16.4-4.02,1.62-.78,3.51-.97,5.04-2.13,1.76-1.33,2.74-5.63,1.36-7.36-1-1.25-2.76-.86-4.14-1.32-.43-.14-1.04.07-1.33-.38-1.58-2.46-4.55-3.33-6.29-5.54-1.32-1.68-1.65-3.87-1.61-5.9.06-3.4-.3-6.77-.18-10.18.23-7.02-.08-14.07-.43-21.09-.22-4.53-.96-9.03-1.38-13.56-.33-3.52.38-6.99.72-10.47.08-.84.4-1.7-.29-2.27-2.56-2.08-1.36-4.18-.09-6.25.94-1.53,1.67-3.09,2.21-4.83.6-1.96.16-3.47-.91-5.01-2.85-4.09-1.83-8.62-.87-12.86.25-1.11,1.67-3.47,3.24-3.82,3.89-.88,6.2-3.72,8.37-6.42,2.56-3.18,5.88-4.73,9.45-5.96,1.44-.5,2.76-1.03,3.7-2.14,1.62-1.9,3.55-1.79,5.53-.99,3.68,1.49,7.33,3.05,10.94,4.68,1.18.53,2.4.28,3.59.53,4.98,1.01,9.66,3.39,14.89,3.2.73-.03,1.48-.06,2.17-.25,2.1-.58,3.43-.16,4.37,2.1,1.15,2.77,4.21,2.76,5.85.17.85-1.34,1.93-1.17,3.19-.71,2.45.9,4.26,2.62,5.95,4.5.34.38,1.18.65.79,1.31-.28.47-.62,1.23-1.5.95-1.27-.4-1.33.78-2.1,1.33,1.57.92,2.78.02,3.95-.25,4.11-.93,5.62.25,5.42,4.34-.05,1.01-.54,2.2.95,2.97,1.09.57,0,1.25-.47,1.67-1.22,1.07-1.59,2.54-.25,3.31,3.85,2.22,3.33,6.01,3.58,9.39.32,4.26-.36,8.53-.79,12.79-.47,4.68-1.5,9.52,1.41,13.9.63.95.4,1.8-.02,2.76-1.85,4.21-3.58,8.48-5.5,12.66-.66,1.43-1.76,2.65-2.69,4.01,1.1.53,1.94.14,2.9-.07.59-.13,1.46-1.11,2.1-.16.58.87.12,1.81-.41,2.5-1.2,1.54-2.54,3.03-4.38,3.77-.55.22-1.21.22-1.1.86.09.52.62.81,1.36.63,2.26-.54,1.63,1.18,1.19,1.98-1.31,2.41-2.8,4.73-4.35,7-.86,1.25-2.06,2.24-2.97,3.5-1.4,1.95-4.08,1.93-7.37.47-.77-.34-1.47-1.84-2.41-.84-.99,1.07-2.56,1.5-2.63,3.71-.1,3-.1,6.04-.42,9.03-.21,1.95.65,2.06,2.07,1.78.31-.06.61-.26.92-.31,5.14-.81,5.42-.32,6.53,4.68,1.05,4.71,2.2,9.52,4.86,13.66,1.11,1.72,2.8,3,5.26,2.02,1.46-.58,2.45.91,3.74,1.28,1.02.29,1.89,1.09,3.13.89-.89.4-2,.08-2.68,1.16,1.14,1.1,2.78,1.22,4.06,1.97,1.86,1.09,3.87,1.39,5.88,1.78,2.18.41,4.33.66,6.02,2.47.42.45,1.7,1.48,2.67.19,1.1,2.14,2.7,1.17,4.32.9.32-.05,2.5-.35,2,2.08-.23,1.1,2.49,2.01,4.23,2.49.99.28,3.19-1.55,2.89,1.42,0,.08.23.21.38.26,3.93,1.36,5.3,2.68,7.68,6.4,3.91,6.11,6.25,12.87,8.77,19.6,1.02,2.72,2.02,5.43,2.84,8.22.26.89.83,1.91,1.57,2.41,1.42.97,1.7,2.38,2.32,3.79.78,1.79,2.07,3.41,3.35,4.93,1.62,1.94,2.55,4.66,5.49,5.26.12.02.23.41.23.63,0,3.3.75,4.39,3.85,5.29,2.76.81,3.8,3.61,6,5.07-.54.74-.92,1.44.14,2.1.55.34.91,1.34,1.5-.09.29-.71.86-.26,1.46.29,1.38,1.28,2.92,2.47,4.25,3.73,3.03,2.88,6.73,4.82,9.82,7.58,1.66,1.48,3.76.57,5.39-.25,1.41-.72,1.47-1.92,2.02.82.57,2.86,1.26,6.04,2.84,8.68,1.48,2.49,2.29,5.24,3.52,7.83,1.86,3.9,4.24,7.45,7.04,10.67,1.02,1.17.97,2.63,1.89,3.72.22.26.06,1.06-.32,1.02-2.4-.24-1.93,1.92-2.51,3.05-1.49,2.93-3.05,5.78-5.37,8.17-.63.65-1.43,1.17-.2,2.49,2.03,2.2,3.49,4.94,5.22,7.42.48.69-.06.99-.33,1.47-1.39,2.44-3.8,3.97-5.39,6.28-4.32,6.29-10.38,10.83-16.2,15.59-1.3,1.06-1.7,3.09-3.4,3.51-5.71,1.41-9.28,5.74-13.28,9.49-1.23,1.15-2.56,2.18-4.25,2.01-1.61-.17-2.26,1.12-3.36,1.7-3.48,1.81-6.23,4.64-9.38,6.91-.41.3-.41.8-.54,1.27-.32,1.17-.49,2.52-2.53,1.54-1.06-.51-2.26.95-3.3,1.63-5.17,3.36-9.6,7.65-14.2,11.72-1.82,1.61-3.4,3.48-5.4,4.89-.29.21-.58.27-1.07-.05.98-2.16,3.43-3.07,4.39-5.39-2.55,1.07-5.29,1.81-7.59,3.28-2.78,1.78-6.22,2.25-8.69,4.62-.46.44-1.38.65-2.26.62-1.89-.07-2.65,1.01-2.25,2.82.28,1.26.58,2.35-.14,3.71-.58,1.1,1.31.95,1.5,1.34.66,1.42,1.25,3.03,1.25,4.56-.02,5,.91,9.93.63,14.96-.33,5.95.61,11.89.91,17.84.03.57.24,1.45-.04,1.67-1.9,1.53-.32,2.92,0,4.38.23,1.03-.11,1.69-1.67,1.07.79.72,2.08.55,1.22,1.96-.94,1.53.13,3.28.15,4.93.08,7.04.04,14.09.79,21.12.34,3.22.5,6.48.49,9.72,0,2.86.05,5.5.86,7.35-.2-5.33.48-9.98.4-14.71-.04-2.2.66-4.6.8-6.95.06-.95,1.04-1.37,1.76-1.23.97.19.33.96.22,1.56-.76,4.45-.53,8.99-1.08,13.45-.76,6.08-.56,12.21-1.21,18.31-.53,5.01-.24,10.11-.18,15.17.04,3.62.53,7.26.35,10.86-.12,2.33,1.41,3.87,1.88,5.87.14.58.35,1.25.06,1.65-.83,1.14-.48,2.72-.15,3.39,1.16,2.35.35,4.75.51,7.04.27,3.9.32,7.81.92,11.7.24,1.53,1.4,3.23-.51,4.57-.13.09-.17.52-.07.68,2.8,4.45,1.71,9.53,2.33,14.33.15,1.13.82,2.13.51,3.39,2.29-1.45-.96-4.46,1.9-5.55,1.05,1.36.68,3.06.5,4.6-.51,4.21-.87,8.37,1.32,12.26.24.42.25.75-.11,1.07-2.33,2.03-.6,4.42-.52,6.64.03.91.98,2.44.75,2.6-3.56,2.49-.79,5.95-.88,8.65-.11,3.05.9,6.59.77,9.7-.24,5.65.54,11.25.05,16.93-.42,4.88-.12,9.95.69,14.9.3,1.84.25,3.72.9,5.52.24.67.42,1.99-.57,2.11-1.15.14-.75-1.11-.83-1.83-.41-3.54-1.15-7.04-1.04-10.63.01-.34-.36-.69-.74-1.33-1.41,8.11-2.88,15.88-4.05,23.69-.45,3.03-.31,6.17-.47,9.25-.22,4.33-.44,8.7-.91,12.98-.35,3.22-.71,6.55-.43,9.61.58,6.33-.16,12.68.66,18.99.17,1.27.96,3.52-.85,3.79-1.03.15-.26-2.19-.57-3.36-.06-.23-.15-.45-.26-.78-1.24.51-.61,1.54-.68,2.29-.1,1.05.03,2.26-1.21,2.59-1.25.33-.68.92-.3,1.35.96,1.1.23-1.56,1.33-.22-.64.4.91,2.47-1.8,1.96,1.3,3.01.04,5.95-.11,8.88-.28,5.72-.39,11.44-.38,17.16,0,1.71.09,3.32-2.32,3.57-.27.03-3.1,1-.92,2.88.85.73.25,2.01-.43,2.62-.95.85-1.22,1.88-1.23,2.95-.05,5.22.74,10.34,1.45,15.5.46,3.36,2.65,6.59,1.11,10.45-1.93-1.85-.85-4.75-2.37-6.75-.21,2.83-1.65,4.77-3.82,6.1-.59.36-.87.6-.82,1.21.19,2.34-.27,4.69.35,7.06.38,1.47.23,3.22-1.25,4.33-.84.63-.85,1.68-.53,2.22,1.17,1.98.24,3.83-.09,5.69-.27,1.49-1.57,2.56-2.4,3.66-2.75,3.66-8.99,3.92-13.19,1.52-2.99-1.71-6.55-1.97-9.94-2.46-1.22-.18-2.46-.22-3.68-.41-.74-.12-1.48-.08-1.5.72-.01.59.78.6,1.37.69,2.61.38,5.06,1.27,7.43,2.56-2.01.25-3.93.67-5.98-.07-2.92-1.06-5.97-1.76-8.92-2.76-.92-.31-1.27.07-1.45.7-.28.95.42,1.02,1.14,1.03,1.82.04,3.59.34,5.84,1.35-4.7.35-8.74-.36-13.17.24.65-1.2,1.08-2,1.51-2.8-.95-.77-1.43.39-2.32.55.2-2.86,2.31-4.87,2.71-7.93-1.2,1.62-2.19,2.95-3.18,4.29-.29.39-.56.97-1.1.76-.56-.21-.34-.79-.19-1.25,1.45-4.55,3.23-8.93,6.14-12.79.88-1.17,1.02-2.79,2.29-3.83.65-.53.25-1.14-.65-1.28-.74-.12-1.12-.64-1.02-1.41.12-.87.83-.68,1.41-.82,1.67-.41,1.12-2.57,2.72-3.3.82-.01.35,1.67,1.66,1.54-.47-1.69-.21-3.43-.51-5.1-.16-.89-2.23-1.46-1.1-2.55,1.91-1.85.89-3.98,1.3-6.46-.83,1.15-1.16,1.94-1.08,2.89.05.61-.16,1.3-.79,1.24-.61-.06-.7-.79-.68-1.4.06-1.96,1.16-3.65,1.3-5.67.14-2.06.64-4.03.42-6.21-.29-2.86.03-5.82.34-8.71.27-2.46,1.05-4.86,1.31-7.32.21-2.01-2.32-.82-2.99-2.08-.06-.11-1.55.15-1.74.55-.73,1.58-.64,1.62-1.87,1.9,1.27-2.08,2.69-4.1,1.58-6.7-.38-.88,1.14-1.28.64-2.1-1.14-1.84-.54-3.6,0-5.41.09-.29.11-.8-.07-.95-2.94-2.53-.97-5.84-1.41-8.76-.42-2.79-.27-5.68-.77-8.45-.68-3.75-.91-7.47-.75-11.27.14-3.23-1-6.35-1.12-9.62-.17-4.42-1.07-8.8-1.27-13.25-.11-2.49-.75-4.97-1.14-7.44-.56-3.48-.21-6.95-.74-10.42-1.36-8.8-1.31-17.74-2.36-26.59-.41-3.49-.49-7.08-1.05-10.64-.08.55-.17,1.11-.28,1.85-.18-.31-.29-.41-.3-.53-.19-1.44.67-2.99-.49-4.35-.11-.13-.04-.53.08-.7,2.19-3.13.66-6.44.27-9.59-.27-2.21.27-4.35-.08-6.58-.21-1.37-.05-2.95-.25-4.47-.34-2.57-.51-5.18-.5-7.78,0-1.91-.29-3.67-1.32-5.53-.62.93.22,2.02-.58,2.88-1.09-.87-1.09-1.97-1.33-3.29-1.11-6.07-.87-12.26-1.8-18.31-.85-5.47-.99-10.97-1.52-16.45-.58-6.06-.96-12.09-1.29-18.16-.21-3.82-.28-7.8-1.27-11.57-.66-2.49.47-4.92-.26-7.36-.85-2.86-.35-5.9-1-8.84-.64,3.72-1.61,7.31-1.76,11.05-.14,3.48-.66,6.95-.97,10.43-.6,6.78-2.56,13.38-2.65,20.22-.02,1.35-.98,2.37-1.38,3.4-.79,2.06.22,4.16-.9,6.07-.66,1.13.13,2.58.09,3.93-.14,4.4-.49,8.7-1.61,12.99-.29,1.11-.21,2.61-.18,3.94.05,2.02-.15,3.96-1.27,5.77-.38.62.15,1.4.83,1.72,1.04.49,1.78,1.55,2.77,1.88,2.99.99,2.04,2.97,1.15,4.62-.57,1.07-.81,2.21-.45,3.01,1.53,3.3-.11,6.49-.29,9.65-.24,4.16-.81,8.36-1.17,12.53-.32,3.72-.19,7.58-.75,11.2-1.13,7.2-.68,14.55-2,21.61-1.47,7.89-1.85,15.9-3.54,23.76-.68,3.15-.91,6.7-.26,10.09.06.3-.01.65-.1.95-1.99,6.86-1.75,14.02-2.87,20.98-.85,5.27-.88,10.62-1.87,15.86-.11.56-.27.93-.67,1.4-1,1.2-1.34,2.65-1.39,4.33-.12,3.47-.1,6.94-.71,10.44-.39,2.25.17,4.85.21,7.28.01.64,1.2,2.07-1.12,2.38-.92.12-1.54,3.11-1.66,4.97-.04.56.59.48.95.46,1.29-.08,2.64.34,3.87-.24.73-.34,1.18-.03,1.37.52.23.67-.3,1.05-.9,1.19-1.39.32-2.61,1.37-4.17,1.02-.97-.22-1.31.49-1.54,1.18-.41,1.21-1.02,2.45-1.04,3.68-.04,2.59-.46,5.08-.83,7.62-.21,1.43-.4,2.04-1.62,2.25-.62.11-1.01.22-1.27.86-.2.5-.91.74-1.05.09-.48-2.14-2.19-1.33-3.34-1.35-2.49-.05-4.97.31-7.48.04-1.25-.13-1.51,1.37-2.62,1.76-.4-1.19-1.31-1.64-2.56-1.98-1.16-.32-1.37-1.93-2.2-2.82-1.33-1.44-2.25-1.25-3.39.3-1.2,1.63-2.6,2.48-5.05,2.29-5-.4-10.05-.15-15.05.67-2.94.48-6-.41-8.84.16-3,.6-6.07.36-8.88.23-5.36-.25-10.72.14-16.07-.25-.31-.02-.81-.02-.91-.19-1.48-2.86-4.45-3.2-7.01-4.27-1.53-.64-2.55-1.89-3.63-3.12-.3-.35-.38-1.88-1.63-1.02-.05.04-.53-.37-.51-.43,1.23-2.85-1.03-2.64-2.62-3.08-.32-.09-.68-.47-.59-1.13,2.5.08,4.99-.06,7.52.4,2.84.52,5.65-.43,8.32-1.21,5.09-1.49,10.22-3.05,15.01-5.27,2.24-1.04,4.66-1.91,6.83-3.38,1.72-1.16,4.29-1.75,6.5-2.12,1.03-.17,2.03-.48,2.82-.88,3.9-1.96,6.31-5.71,8.35-9.16,1.39-2.35,2.49-5.62,2.62-8.67.15-3.49.93-6.81,1.72-10.16.24-1.03.2-1.72-.98-2.21-1.03-.43-.56-1.4-.26-2.19.94-2.45.34-4-2.29-5.01-1.66-.64-2.59-2.58-4.43-3.23-.66-.23-.6-1.08-.08-1.68.43-.49.77-.76,1.59-.47,1.23.44,1.83,1.83,3.26,1.99.79-5.31,2.58-10.36,2.71-15.72.19-7.55,1.22-15.11-.48-22.63-.23-1.02.05-2.14-.11-3.19-.08-.52.9-2.07-1.08-1.43-.49.16-.36-.95-.33-1.46.18-3.19-.26-6.36-.12-9.57.22-4.94-.27-9.89-.72-14.84-.18-2-.13-4.22-.35-6.17-.45-3.9-.4-7.82-.93-11.69-.14-1.03-.32-2.07-.36-3.11-.17-4.08-.67-8.19-.4-12.24.28-4.21-.44-8.32-.6-12.47-.14-3.73.05-7.49-.2-11.14-.65-9.45-.09-18.87-.2-28.3-.06-5.48.37-10.99.87-16.48.28-3.08.41-6.27-.31-9.38-.4-1.72-.12-3.67.12-5.16.69-4.34-.46-8.5-.31-12.74.2-5.81-.14-11.62-.32-17.42-.15-4.98-.34-9.99-.14-14.99.02-.54.11-1.13-.72-2.13-.56,6.03-.04,11.57-.33,17.29-1.51-1.74-1.72-3.75-1.32-5.6.5-2.29.19-4.55.42-6.81.66-6.24.08-12.53.8-18.79.18-1.53-.55-3.07,1.09-4.18.06-.04-.11-.42-.17-.64-.39.18-.17,1.15-.93.79-.55-.27-.31-.88-.26-1.32.05-.46.51-.98.4-1.35-.99-3.06-.03-6.18-.34-9.27-.28-2.78-.32-5.64,0-8.42.19-1.61-.17-3.07-.39-4.55-.13-.9-.14-1.77-.19-2.66-.02-.31-.02-.65.4-.77.5-.14.52-.17-.13-1.04-.33-.45-.36-.94-.25-1.4.54-2.34.49-2.43-1.78-4.24-.27-.21-1.03-.9-.29-1.37.6-.39,1.95.27,1.7-1.28-.18-1.1.27-2.14.3-3.19.1-3.73-.46-7.47.05-11.19.17-1.22-.89-1.96-.69-3.25.4-2.64-.42-5.31-.13-8.01.4-3.73-.03-4.26-3.61-4.77-.68-.1-.56-.66-.84-.98,1.18-.89.31-2.09.25-3.02-.11-1.7,1.38-3.56-.74-5.27-.63-.51.09-2.92.45-4.39.59-2.42.49-4.55-1.24-6.58-.78-.91-1.77-1.84-1.67-3.4.06-.89-.8-1.72-1.53-2.36-1.99-1.75-3.98-3.51-6-5.22-.87-.73-.7-1.55-.4-2.43-.51-.41-1.03-.82-1.54-1.24.46-.94.18-1.98-.46-2.48-3.21-2.54-5.63-6.04-9.7-8.08.67,1.4,1.22,2.53,1.76,3.66,0,0,.12-.07.12-.07ZM122,16.69c.38,1.72,4.27,9.93,5.07,10.33-1.36-3.77-.85-8.15-4.84-10.53-.04-1.47-.79-2.52-1.78-3.57-1.76-1.89-3.52-3.86-3.5-6.7,0-1.04-.67-1.09-1.41-1.3-.61-.17-.87-.01-1.11.52-.3.68-.62,1.19.11,1.93,1.18,1.2,2.65,2.46,3.11,3.96.76,2.5,2.64,3.79,4.35,5.35ZM171.44,357.08c-2.02.76-3.73,2.18-5.89,2.65-.48.1-.19,1.19.19,1.04,1.58-.61,2.27,1.41,3.49,1.12,4.19-.97,8.65-1.21,12.62-3.94-2.47-1.05-4.55.68-7.04.12,1.53-.91,2.78-1.37,4.18-1.54,2.08-.25,4.14-.69,6.23-.85.71-.05,1.16-.08,1.06-.82-.26-1.92,1.13-3.47,1.16-5.35,0-.69-.32-1.12-.64-.88-.99.73-2.23.37-3.23,1.02-3.98,2.61-8.57,4.25-12.17,7.48l.05-.07ZM116.49,177.47c-.78.66-2.33,1.03-1.97,2.23.64,2.11-.68,2.77-2.02,3.56-.4.23-.38.64-.52,1.01-.8,2.03-2.25,3.52-4.23,4.55,2.81-4.34,4.42-9.21,6.86-13.74-2.24,1.39-3.62,3.78-5.6,4.98-4.79,2.9-4.8,7.84-6.24,12.2-.13.4-.63,1.52.78,1.56.46.01,1.77-.6,1.46.76-.2.88-.91.92-1.68.27-.58-.49-1.16.06-1.41.52-.37.7-.07.98.77.91.44-.04.33.65.04.56-1.25-.41-1,.78-1.38,1.22-.3.35-.37,1.01-.98.85-.81-.22-.24-.8-.15-1.18.67-2.82,1.34-5.65,2.09-8.45.21-.79.78-1.69,0-2.21-.59-.4-1.55-.17-2.24.34-.49.36-.83,1.06-1.65.44-.78-.59-.29-1.26-.13-1.76,1.1-3.28-.76-6.26-.98-9.41-.08-1.21-.92-3.08-2.7-4.03-.11.58-.24,1.03-.26,1.48-.19,4.59-.73,9.19-1.36,13.7-.88,6.32,1.26,12.08,2.12,18.06.22,1.55.49,3.72,2.09,5.01.28.23.45.96.81.74,1.61-.99,3.74-.38,5.06-2.69,3.18-5.56,6.12-11.27,9.79-16.57,1.22-1.76,2.33-3.8,3.38-5.78,2.41-4.56,4.17-9.44,6.97-13.8,2.13.39-.44,2.28,1.02,3.04,1.98-3.28,4.42-6.16,6.92-8.99,2.53-2.86,2.27-3.71.52-7.45-.62-1.31-2.19-1.81-2.24-3.41-.08-2.59-2.03-2.15-3.69-2.19-1.81-.04-1.9,1.18-1.86,2.49.02.73.01,1.43.24,2.17.91,2.91,1.57,5.87.92,8.96-.05.22-.07.51.04.68,1.55,2.33,1.13,3.32-1.67,3.9-.16.03-.26.38-.39.59-.52-.47-1.07-.86-1.64-.11-.57.75-1.16.21-1.75.11-1.04,1.64-2.08,3.27-3.11,4.91ZM226.64,311.51c-.08.08-.17.17-.25.25-1.5.8-2.98,1.37-4.24-.38-.41-.58-.63-.24-.83.14-.73,1.38-2.63,2.01-2.23,4.19.24,1.34-3.99-.24-2.26,2.8.03.05-.26.36-.28.34-1.24-.7-1.22.58-1.8.95-1.85,1.2-2.85,2.82-3.56,4.76.06-.08.13-.14.21-.2-1.75.37-2.57,1.61-2.93,3.24-.14.63-.16.89-1.04,1.15-1.23.38-2.3,1.58-3.18,2.63-.44.53,1.31.32.86,1.46-1.43-.26-2.65.44-3.8,1.24-.42.3-.96.85-.46,1.45.37.45.62,1.42,1.4,1.04.65-.31.9-.81,1.37.24.36.81-.16,1-.48,1.4-.69.86-1.09.12-1.54-.3-1.04-.95-1.99-2.1-3.67-1.83.22,1.86,2.4,1.88,3.01,3.38-1,.45-2.18.72-2.58-.06-.94-1.83-2.24-1.81-3.74-1.12-.63-1.09.91-1.72.07-2.84-1.52-2.01-2.47-4.42-3.77-6.54-.84-1.35-1.32-3.1-2.77-4.12-1.22-.86-2.37-1.84-3.43-3.23-.98,2.48-1.55,4.9-4.08,6.53,1.42.41,2.26.72,3.12.87.64.11,1.26.39,1.27.94.02.74-.67,1.04-1.38,1.04-4.23,0-8.52.41-12.66-.17-2.55-.36-3.63.86-5.32,2.21,1.34.14,2.3-.24,3.3-.5.48-.13,1.28-.27,1.38.54.07.57-.51.75-1.01.87-3.03.68-5.95,1.71-9.04,2.2-2.23.35-4.03,1.98-5.67,3.54-.39.37-.59,1.32-.39,1.8.23.56.96.15,1.52.02,3.36-.79,6.75-1.49,10.09-2.3,4.04-.98,7.58-3.27,11.71-3.79.85-.11,1.59-.83,2.42.09,1.12,1.24-.83,1.27-.77,2.1.79.48,2.38.04,2.38,1.24,0,.99-1.4,1.1-2.25,1.55-4.25,2.24-9.24,2.13-13.49,4.37-2.88,1.52-6.31,1.79-9.02,3.8-.53.4-1.25.51-.82,1.4.43.89,4.09,2.54,4.96,2.14,5.32-2.45,11.29-2.36,16.73-4.36,2.52-.93,5.19-.64,7.82-.8,1.85-.12,3.47.73,3.67,2.53.12,1.05.22,2.13.13,3.19-.23,2.64,1.34,2.64,2.98,1.9,5.47-2.48,11.31-4.2,16.31-7.63,1.07-.74,2.37-1.04,3.27-2.34,1.08-1.56,2.83-2.92,4.58-3.65,1.03-.43,1.19-2.2,2.68-1.61-.02-.16-.03-.32-.07-.48-.59-1.92.81-1.8,1.88-1.67.94.12,1.86-.09,2.01-.85.65-3.25,2.64-4.73,5.8-4.97.17-.01.48-.27.47-.38-.29-2.21,1.82-2.89,2.91-3.72,6.9-5.23,13.77-10.47,20.06-16.44.32-.31.79-1.07,1.1-.7,1.74,2.13,2.48-.2,3.28-.84,3.49-2.78,6.89-5.69,10.2-8.69,2.39-2.16,4.57-4.54,6.88-6.79,1.88-1.83,3.8-3.63,5.7-5.44l.62.68c-11.66,13.27-25.74,23.93-39.23,35.28,2.5-.53,4.25-2.37,6.39-3.49,4.39-2.31,7.93-5.84,11.93-8.71,5.57-3.99,10.29-9.06,15.1-13.97,2.89-2.95,5.46-6.08,7.09-9.95.37-.87.73-2.23,2.43-1.91.32.06,1.52-1.05,1.42-2.21-.13-1.43-3.13-4.77-4.67-5.01-.76-.12-.83-.71-.61-1,1.25-1.67-.02-2.83-.87-3.85-1.84-2.21-3.05-4.88-5.21-6.85-.56-.51-.32-.88.24-1.36,2.15-1.84,2.82-1.76,3.76.99.88,2.57,2.44,4.69,3.86,6.94.7,1.11,1.29.97,1.8.14.5-.81,2.36-1.66.26-2.8-.69-.38-.07-.92.1-1.25.51-1.01,1.29-1.89,1.73-2.92,1.24-2.87,3.01-5.53.24-8.81-2.16-2.55-3.84-5.56-5.16-8.78-1.47-3.59-2.93-7.14-3.93-10.9-.32-1.19-.66-3.24-1.98-3.29-1.22-.05-1.31,1.97-1.74,3.11-.48,1.26-.8,1.27-2.05.7-1.94-.89-3.74-2.35-6.26-1.72-3.88.97-7.87.96-11.84.52-1.96-.22-3.93-.37-5.87-.7-.89-.15-1.12-.19-1.38.88-.64,2.72-1.51,5.39-2.47,8.02-1.39,3.82-2.66,7.74-4.57,11.3-.81,1.51-.5,3.9-2.87,4.61,1.49,1.52,1.28,3.18.38,4.85-.29.53.08,2.05-1.46.9-.38-.29-1.69.3-1.82,1.23-.15,1.09.79.57,1.33.74.57.18.99.99,1.55,1.07.95.14.93,2.06,1.99,1.27,1.16-.87-.58-1.62-.53-2.53,0-.13.18-.24.41-.53,1.09,1.65,3.08,2.16,4.23,3.76.73,1.01,1.52.72,2-.31.68-1.48,1.98-2.38,3.09-3.45.61-.59,2.18-.45,2.27-.21.54,1.47-.79.51-1.22.8-.39.26-.7.65-1,1.03-.8,1.03-1.49,2.15-2.37,3.09-.84.88-1.27,1.54.19,2.13.69.28.81.83.57,1.4-.33.78-.83.46-1.38.13-.71-.42-1.85-.35-1.6.54.52,1.82-.09,3.72.49,5.71,1.04-.88,1.86-1.58,2.66-2.27.54.59.32.91.05,1.26-1.27,1.61-3.64,2.67-2.7,5.42.1.29-.36.63-.68.51-1.29-.5-1.88.65-2.36,1.27-1.11,1.45-2.12,3.06-2.78,4.75-.53,1.35-2.54,1.48-2.38,3.14.19,2.09-.85,3.02-2.72,3.11.73,2.53,1.76,1.98,3.05.58,1.05-1.14,1.65-2.79,3.41-3.17l-.08-.08c-.62,3.19-3.98,4.25-5.34,6.87-.06.12-.32.28-.4.25-1.61-.8-1.65.44-2.01,1.77.14-1.8-.75-2.64-2.03-2.77-.59-.06-.76.89-.81,1.58-.11,1.33.65,1.56,2.34,1.13-1.78,1.6-2.94,2.83-3.33,4.56ZM188.96,695.05c-1.38.09-1.52.92-1.45,2.1.09,1.54.26,3.16-.79,4.54-.98-.56-.74-1.49-.6-2.22.91-4.7,1.32-9.46,1.43-14.21.05-2.32.6-4.67.96-6.8.67-4.02.97-8.15,1.25-12.12.33-4.72,1.5-9.38,1.22-14.13-.05-.85.15-2.11.7-2.13,1.74-.07,1.27-1.24,1.26-2.08-.13-6.02,1.34-11.92,1.17-17.98-.07-2.54.37-5.29.72-7.93.66-4.89.79-9.86,1.13-14.8.51-7.54,1-15.08,1.85-22.59.28-2.49.94-4.58,2.78-6.72.16,1.03.27,1.7.44,2.77.3-2.08-.07-1.99-.6-4.04-.87-3.35-2.96-5.32-5.83-6.87-1.67-.91-1.53-2.03.22-2.97.92-.5,1.92-.87,2.79-1.42.58-.37,1.58-.94,1.11-1.67-1.38-2.14-1.98-4.65-3.53-6.73-1.08-1.45-2.91-2.36-3.25-4.38-.42-2.58-.38-5.18-.58-7.76-.09-1.22,1.79-3.4-1.22-3.78-.1-.01-.17-.76-.15-1.15.35-6.71-.69-13.38-.52-20.08.06-2.08.07-4.18-.12-6.24-.3-3.17.44-6.43-.78-9.52-.05-.12.18-.43.35-.54,1.07-.72.82-2.11.48-2.61-1.63-2.37.12-5.82-2.58-7.78-.15-.11-.23-.62-.2-.63,2.24-1.02.4-3.5,1.86-4.96-.25,2.29.94,4.31.52,6.5.71-3.39.54-6.74-.25-10.09-.7.66.39,1.89-1.03,2.36-.27-1.3.74-2.56.03-3.77h-.02c.49-.5,1.78.97,1.66-.41-.21-2.22,1.07-4.65-.79-6.7-.03-.04-.94-1.61.05-1.26.98.35.94.31.81-.46-.57-3.57-.37-7.24-1.3-10.79-.14-.53-.07-.93-.62-.73-1.26.44-1.13-.29-1.02-1.07.19-1.36.27-2.74.62-4.05.13-.49.84-1.59,1.23-1.2,1.86,1.85,1.03-.32,1.03-.7,0-.61-.61-1.37-.56-1.75.35-2.46.06-4.91.13-7.35.07-2.38-.19-4.78.08-7.13.24-2.1-.44-4.07-.19-6.21.44-3.65.1-7.39.06-11.09-.02-2.01.47-4.12-.85-5.97-.63.4-.14.75-.11,1.1.09,1.24-.37,1.32-1.21.55-.51-.46-.96-.99-.58-1.69.22-.42.59-.91,1-1.04,1.34-.43,1.36-1.41,1.35-2.53-.03-3.42.12-6.86-.05-10.27-.16-3.04.41-6.09-.37-9.14-.41-1.62-.38-3.5,0-5.13.4-1.66-.43-3.09-.81-4.31-.45-1.43.61-2.35.33-3.17-1.36-3.94-1.11-8.04-1.53-12.07-.3-2.92.1-5.9-.79-8.93-1.81.95-3.7,2.22-5.49,2.51-3.79.62-7.49,1.67-11.28,2.3-1.5.25-2.97.04-3.57-.63-2.62-2.93-6.02-4.36-9.41-6.03-3.57-1.76-6.88-4.04-10.34-6.04-2.1-1.21-4.24-2.37-6.42-3.44-1.42-.69-2.14-1.62-1.96-3.25.06-.56.31-1.38-.77-1.46-.73-.05-1.91.31-1.89-.84.03-1.39,1.31-1.12,2.25-1.12.57,0,.97-.15.92-.81-.03-.35.2-.82-.44-.91-1.19-.18-1.22-.75-.48-1.54.32-.34.41-.72.03-1.05-.13-.11-.51-.15-.62-.05-1.94,1.68-4.21-.38-6.28.58-.66.31-2.03-.16-2.28.65-.16.53.78,1.44,1.29,2.14.23.31.63.5.94.76.7.6.48,1.11-.17,1.57-1.82,1.3-3.49,3.14-6.04,1.49-.25-.16-.65-.35-.88-.27-3.35,1.22-6.82-.54-10.31.68-2.26.79-3.97,1.63-5.19,3.93.29-2.3-.93-2.85-2.75-2.74-2.37.14-4.64-.31-6.95-.83-1.51-.34-3.16-.47-4.76-.16-.13.02-.91,1.76-1.61,2.29-2.04,1.54-.66,3.16-.35,4.75.17.87.57,1.65.68,2.58.52,4.67.16,9.36.35,14.04.23,5.6.48,11.26-.36,16.87-.07.46-.05.94.29,1.39,1.77,2.39,3.49,4.83,5.26,7.22.47.64,1.3,1.08.77,2.09-.41.79-1.74.98-1.8.88-.68-1.16-2.13-1.21-2.89-2.17-.03-.03.17-.26.27-.38.97-1.23,1.77-3.13,0-3.54-2.09-.49-.68-2.99-2.71-3.29-.79-.12-1.47-.43-2.77.54,1.64-3.07,1.86-6.05,1.73-8.34-.36-6.49.51-12.94-.06-19.42-.43-4.84.09-9.76-1.05-14.58-.31-1.33-1.99-2.44-3.31-2.49-1.84-.07-3.95.97-5.43-.19-1.46-1.14-2.97-.91-4.56-1.06,1,.42,1.99.85,2.99,1.27-.08.19-.16.38-.24.57-1.42-.27-2.79-.58-3.88-1.82-.21-.24-.09-.84-.69-.74-1.91.32-3.6.26-4.82-.51-.82-.51-1.44-.32-2.02.16-.63-2.11,1.93-2.4,2.17-4.07-2.78.04-3.63.8-3.26,3.1.36,2.22.59,4.73.07,6.58-.91,3.21-1.09,6.39-1.16,10.08-1.28-1.72-.81-3.08-.73-4.52.11-1.88-2.07-1.5-3.49-2.84.93,1.77,1.05,3.19.75,4.48-.71,3-.22,6.06-.58,9.1-.34,2.89.67,5.88.08,9.09-.89,4.86-.22,9.94-.9,14.9-.14,1.05-.02,2.13,0,3.2,0,.45.29.81.68.85.22.02.52-.34.69-.59.24-.34-.11-1.07.89-1.03.1,1.8.52,3.16,2.83,3.64,1.13.23,2.42,1.32,3.64,2.01,1.93,1.08,3.91,2.61,5.91,2.72,2.22.12,2.79,2.33,4.92,2.52,1.9.17,3.95,1.2,5.74,2.06,5.05,2.44,10.55,3.7,15.52,6.33,3.64,1.93,8.01,1.77,11.71,3.68.43.22,1.24.49,2.1-.38-3.51-1.84-6.76-4.04-10.34-5.28-3.98-1.38-7.32-3.85-11.09-5.56-3.57-1.62-6.99-3.56-10.34-5.68-1.59-1-3.63-1.98-5.59-2.72-2.03-.76-1.98-.87-2.64-2.63-.06-.16-.39-.21-.59-.31-.71-.37-1.11-1.49-2.2-.9,1.27-1.84-.91-.9-1.21-1.49-.23-.45-1.02-.64-.57-1.45,5.53,2.44,9.88,7.32,16.57,8.08.63.25-2.58.52-.22,1.28,4.42,1.43,8.31,4.16,12.61,5.97.38.16,3.49-1.38,1.93,1.56.21.08.43.17.64.23,2.58.79,4.75,2.55,7.43,3.13.5.11,3.42-.95,3.59-1.44.19-.54-.4-1.59.59-1.55,1.02.04,1.59.9,1.47,2.21.99-1.2,1.32-1.93-.14-2.9-1.42-.94-1.55-2.49-.52-4.04-1.35,3.09,3.27,3.57,2.58,6.47.85-.45,1.8-1.47,2.19.15.48,2,2.1,2,3.64,2.26-.01.85-1.53.94-1.03,2.06.72.03,1.03-1.76,1.82-.63.35.5,1.11,1.36.32,2.37-1.3,1.68-1.29-1.44-2.34-.47.37,2.92.76,5.91,1.14,8.89.56-.39.54-.73.63-1.03.15-.55-.43-1.59.57-1.54.89.05.97.82.53,1.66-.3.57.07,1.23.18,1.86.24,1.35.69,2.83-.46,4.12-.47-.6-.33-1.15-.21-1.71.03-.17.43-.42-.03-.54-.22-.06-.58-.12-.7,0-.74.74-.23,1.68-.35,2.53-.08.57.42,1.23.7,1.13,3.12-1.12,1.29.97,1.27,1.89-.03,1.13-.38,2.23-.58,3.32-.95,5.31.38,10.57.11,15.85-.08,1.63.24,3.28.38,4.91.93-1.88.04-3.95,2.33-5.61,1.63-1.18,1.66-4.13,1.96-6.43.13,1.96.96,4.28-.18,5.72-1.18,1.5-.52,3.06-.25,3.84.55,1.61,2.56,2.79.27,4.55-.08.06.01.46.13.63,2.24,3.3.15,7.03.96,10.56.26,1.13.48,2.1,1.19,3.09-1.47.87-1.43,2.1-.79,3.48.47,1.02,1.46,2.28,1.19,3.08-.54,1.57-.4,2.89.1,4.34.86,2.49,1.91,4.95,1.52,7.86-1.43-1.55-.74-3.4-1.09-5.01-.61.11-.94.45-.82.87.81,2.85.61,5.83,1.22,8.69.16.75-.19,2.05,1.37,2.16.47.03.39,1.11,0,1.15-1.68.17-.87,1.12-.68,1.86.58,2.15.5,4.34.51,6.54,0,.52-.28,1.33.41,1.49,1.46.33,1.3,1,.53,1.84-.49.53-.14.97-.12,1.5.07,2.62,2.8,4.59,1.77,7.42-.65,1.76.18,3.1.97,4.58.59,1.11.13,2.57.81,3.77.19.34-.23.91-.69.55-1.44-1.11-.43.47-.71.61.78,1.18.84,2.57.92,3.87.4,6.6,1.02,13.17,2.24,19.67.18.93-.96,1.95.19,2.66,1.52.93,1.18,2.5,1.62,3.85.74,2.25.27,4.55.7,6.83.42,2.22,1.81,4.03,1.86,6.46.04,2.04-.04,4.59,1.35,6.31,1.38,1.7,1.62,3.79,3,6.03-.94-6.51-1.37-12.52-.77-18.57-.14,4.89,1.05,9.72,1.01,14.54-.05,6.77,2.39,12.75,4.88,18.69,1.45,3.44,2.76,6.92,4.09,10.4-.54.42-1.23.48-1.37-.21-1.04-5.31-4.49-9.64-5.82-14.83-.14,1.59-.36,3.19-.1,4.69,1.06,6.07,1.21,12.22,1.87,18.32.46,4.29.62,8.61,1.03,12.91.51,5.31.91,10.65,1.57,15.93.5,4.05-.22,8.14.82,12.13.12.44.3,1.23-.91,1.22-1.42-22.79-3.97-45.49-5.71-68.78-.98,1.37-.12,2.13-.19,2.96-.45,5.68.66,11.32.6,17.02-.05,4.91.26,9.86.31,14.79.08,6.63.14,13.26-.03,19.88-.05,2.2,1.22,4.15.98,6.21-.47,4.02.49,7.9.64,11.86.24,6.48,1.95,12.84,1.67,19.37-.02.54-.38,1.21-.17,1.59,1.33,2.36,1.06,4.96,1.45,7.48.44,2.81-.27,6,2.19,8.33.27-13.38-1.28-26.66-1.27-39.99.82,2.99.53,6.03,1.21,9.09.53,2.38.2,5.24.36,7.84.37,6.09.71,12.16.77,18.26.02,1.91-.4,4.19,1.52,5.46,3.07,2.03,6.21,4,9.51,5.62,1.29.64,2.73,1.31,4.46,1.84-1.98-3.38-3.13-6.76-3.96-10.11-1.36-5.49-2.19-11.13-2.93-16.75-.86-6.57-2.19-13.08-2.13-19.76.03-3.71-.17-7.49-.68-11.09-1.07-7.55-1.17-15.15-1.78-22.7-.39-4.84-.6-9.55-2.42-14.07,1.99-1.08.87-2.83.77-4.24-.2-2.78-1.02-5.51-.67-8.59,1.47,1.38.63,2.95.89,4.3,1.42,7.45,2.52,14.94,2.98,22.52.12,1.94.39,3.91.62,5.82,1.08,8.89,1.52,17.81,2.24,26.72.27,3.39.99,6.7,1.32,10.07.29,2.98.77,5.94,1.21,8.89.5,3.38,1.12,6.78,1.35,10.2.2,2.96,1.53,5.63,1.64,8.62.13,3.53,1.5,6.75,3.58,9.63.55.76,1.65,1.71.93,2.36-.58.53-1.9.77-3.05.46-3.66-.98-6.94-2.86-10.3-4.47-1.59-.76-3.56-1.45-4.18-3.64-.61,2.12-.07,3.67,1.03,5.25,1.71,2.47,4.09,4.29,6.03,6.54,1.33,1.54,2.93,3.1,4.61,4.29,1.76,1.24,3.44,2.62,5.25,3.77,3.41,2.18,6.4,5.16,10.66,5.81.34.57,1.46.82.92,1.74-.5.86-1.38.71-2.19.44-3.22-1.1-6.61-1.88-9.63-3.4-5.3-2.67-10.39-5.76-15.29-9.15-.5-.35-1.23-.87-1.66-.73-.85.28-.51,1.25-.54,1.95-.34,7.43-.5,14.88-2.45,22.15,3.58-.44,1.92,2.47,2.78,3.94.37-2.88,2.28-1.76,3.93-1.9,1.9-.16,3.61-.41,4.96,1.42-.13-.99-.52-1.63-1.05-2.26-1.14-1.38-1.47-2.9-.29-4.45,1.21-1.59,2.34-.51,3.75-.13,3.27.88,5.37,3.67,8.47,4.68,1.36.44,2.82,1.15,4.14.97.76-.1.87-1.84.88-2.96,0-.53.39-.67.85-.6.72.1,1.3.65,1.42,1.21.22,1.02.31,2.15.12,3.17-.29,1.59,1.19.99,1.55,1.09.81.22.41-.75.42-1.19,0-.54-.48-1.18-.31-1.6,1.54-3.76,1.34-7.77,1.77-11.68.18-1.64-.79-2.72-2.62-2.65-.33-1.22,0-2.04,1.19-2.7.75-.42,1.76-.64,1.99-1.84,1.23-6.38.77-12.88,1.47-19.3.08-.73-.38-1.26-.47-1.89-.06-.4-.13-1.48-.65-1.72.88-.34,2.21-.44,1.16-1.78.55-1.99.9-4,.94-6.08.06-3.06.45-6.09.89-9.12.21-1.45.25-2.98-.4-4.56-.06,1.04-1.76.86-1.33,1.71.53,1.04,1.46,1.81-.15,2.62,1.01,2.38-.59,4.57-.53,6.89.05,1.76.13,3.53-.37,5.31-.26.95-.56,2.24.34,3.22ZM141.26,143.47c-1.02-.19-1.77.09-2.64.79-2.21,1.79-3.91,4.23-6.93,5.04-1.91.51-2.41,1.99-1.4,3.86,1.12,2.06,2.03,4.23,3.27,6.21.49.78.69,2.83,2.73,1.4.65-.46.97.69.7,1.32-.46,1.06-.44,2.01.08,3.04,1.44,2.88,1.58,2.85,3.79.64,1.7-1.69,3.13-3.72,5.31-4.89-1.16,2.19-2.65,4.07-4.3,5.85-.7.75-1.49,1.46-.92,2.75.55,1.27,1.72,2.13,2.69,2.54.82.35,1.36-1.35,1.83-2.28.54-1.07,1.04-2.17,1.5-3.28,3.05-7.41,7.58-13.75,13.68-18.94.39-.33,1.1-1.17,1.88-.28-.6,1.38-2.03,1.83-2.97,2.79-5.55,5.7-9.32,12.49-12.45,19.75-1.96,4.56-2.15,5.53-6.25,1.36-1.15-1.17-1.74-1-2.58.14-3.86,5.2-7.9,10.27-11.57,15.6-2.68,3.9-5.37,7.8-7.74,11.94-2.58,4.52-5.89,8.63-8.96,12.87-.86,1.18-2,2.16-3,3.24-.24.26-.48.46-.83.26-.51-.3-.18-.66-.09-1.04.29-1.22,1.74-1.22,2.24-2.14,1.97-3.68,4.41-7.05,6.75-10.5,4.29-6.34,8.31-12.86,12.92-18.99,3.16-4.2,6.12-8.55,9.38-12.67,1.35-1.71-.05-2.76-.74-3.42-.99-.96-2.9-.67-3.27.73-.81,3.12-4.84,4.47-4.29,8.22,0,.06-.37.21-.57.25-1.02.18-1.38.98-1.82,1.77-3.06,5.49-6.38,10.85-9.14,16.48-2.19,4.48-6.03,7.64-8.14,11.97-1.07-.37-.51-1.45-1.41-1.66-1.22,1.22-1.67,2.95-2.4,4.42-1.68,3.38-4.55,6.34-4.05,10.63.15,1.31.36,1.94,1.75,1.95,2.35.01,4.68.67,7.07.07.88-.22,1.57.33,1.54,1.39-.11,4.52,0,9.06-.45,13.54-.23,2.26.46,4.56-.21,6.68-1.32,4.15-.4,8.35-.66,12.52-.23,3.71.57,7.68-4.26,9.39-.15-1.34-.79-2.38-2.23-2.43-2.08-.07-4.13-.6-6.16-.64-1.89-.04-4.59-1.74-5.5,1.69-1.07-.54-1.46-2.09-2.87-1.75-1.7.41-3.34-.23-5.02-.16-1.8.08-2.34-2.49-4.29-2.35-.04-1.22-.2-2.45-.11-3.66.38-4.88,1.81-9.59,2.06-14.52.27-5.45,1.2-10.86,1.8-16.3.14-1.29,1.08-2.59-.2-3.93-.28-.29.34-1.38,1.01-1.78.65-.39,1.12-.19,1.67.39,1.67,1.77,3.98,1.09,5.7.59,1.56-.45,1.02-2.38.29-3.77-.16-.3.03-.79.08-1.19.22-1.6.26-2.92-.79-4.54-1.04-1.6-2.03-3.79-2.15-5.63-.24-3.82-1.94-7.22-2.9-10.71-1.29-4.73-2.67-9.32-2.7-14.24-.03-4.84-.48-9.7.93-14.46.34-1.15.08-2.49-1.16-2.93-3.19-1.12-1.64-2.56-.27-3.78,2.15-1.92,3.08-4.38,3.88-7.36-2.43,1.18-4.64,1.95-6.37,3.61-.34.32-.92.43-.85,1.06.09.79.82.75,1.31.86.54.12,1.46-.5,1.43.61-.02.84-.82.38-1.29.52-1.43.43-2.59,1.55-4.11,1.82.54,1.43-.27,2.12-1.46,2.61-.49-.73-1.04-1.42-1.45-2.19-.54-1.03-1.21-1.21-2.16-.59-3.04,1.99-6.58,2.96-9.67,4.94-2.28,1.46-4.62,2.88-6.86,4.41-2.71,1.85-5.75,3.72-6.69,7.08-.75,2.69-1.49,5.39-2.22,8.09-.54,2.01-1.69,3.95-1.77,5.95-.13,3.22-1.07,6.15-2.07,9.12-1.6,4.75-2.49,9.69-3.69,14.54-1.15,4.64-1.93,9.3-2.72,13.98-.83,4.88-.08,10.2-3.77,14.25.91,1.13,2.56,1.01,3.07,2.48.21.6.41,1.7,1.33,1.42.61-.19.87-1.11.88-1.89,0-.41.04-.82.57-1.02.57.5.44,1.15.32,1.79-.52,2.66-.34,2.77,2.33,2.05.98-.26,2.56-1.44,2.95.04.36,1.36-1.65,1.66-2.69,2.31-.3.19-.86-.08-1.2.08-1.42.66-3.63.58-4.15,2.04-.75,2.12-2.26,1.43-3.4,1.39-1.9-.06-6.01,2.41-6.53,4.27-.88,3.11-1.75,6.22-2.72,9.3-1.09,3.46-2.25,6.9-3.44,10.33-.25.73-.2,1.28.41,1.72.5.36.62-.11.89-.41,5.1-5.66,11.91-7.15,19.06-7.44,2.52-.1,4.36-.28,4.27-3.35,0-.04.22-.08.35-.13q1.26,4.91,2.57,5.09c-.81-1.48-.23-2.98-.1-4.4.13-1.38,1.33-2.22.57-4.25-1.27-3.37.12-7.21,0-10.89-.12-3.72.67-7.52.8-11.31.04-1.28-.53-2.93,1.64-3.35.51-.1.48-1.61.14-1.73-2.38-.8-1.05-1.76-.26-2.79.23-.3.47-.96.34-1.09-1.88-1.92-.47-4.08-.33-6.04.31-4.46-.4-8.88.04-13.4.27-2.81.86-5.98.05-9.11-.55-2.13.33-4.64.57-6.98.23,0,.45,0,.68,0-.37,2.63,3.05,4.65.8,7.71-.25.33.25,1.84.23,2.81-.12,4.74-.28,9.47-.4,14.21,0,.29.23.86.27.85,1.83-.32,1.62.92,1.63,2.05,0,1.82.02,1.82-.62,2.98-.94-.53.08-1.77-.91-2.44-.6.62-.68,1.63-.37,1.99,1.78,2.05.39,4.01.2,6.09-.37,3.93-.19,7.92-.26,11.88-.1,5.02.18,10.03-.37,15.05-.27,2.48-1.09,5.03-.54,7.53.87,4.02.78,8.13,1.71,12.19.83,3.61,1.4,7.28,2.59,10.83.6,1.79,1.81,3.2.28,5.69-1.75,2.84-1.59,6.76-1.11,10.21.43,3.07-.5,6.15.37,9.18.18.63,0,1.31-.61,1.75-.38-1.43-.77-2.85-1.21-4.5-1.27,1.51-1.03,3.12-1.37,4.57-.24,1.02-.52,2.05.85,2.32,1.42.28.59-1.14,1.04-1.62.17-.17.34-.35.5-.52.74,1.5,2.39,1.88,3.52,2.89.35.32,1.69.59.66,1.59-.25.24-.94.31-.39.8.23.21.96.26,1.11.09,1.16-1.37,1.54-.17,2.13.55,1.3,1.61,2.8,2.98,4.73,3.73.37-.42.1-.7.09-1-.04-.64-.91-1.59.04-1.86,1-.28,1.17.82,1.32,1.64.06.31.37.64.3.89-.72,2.59,1.52,2.75,2.68,2.47,1.85-.44,3.27.32,4.9.57,4.2.65,8.45,1.06,12.68,1.51.56.06,1.35.32,1.7-.67-2.45-1.66-2.32-4.79-3.9-7.02-.55-.77-.37-1.8.3-2.74,1.24-1.75,2.64-3.27,4.42-4.5.97-.67,2.28-1.6.73-2.89-2.26-1.88-4.86-3.23-7.61-4.27-.63-.24-1.8.3-1.85-.65-.05-1,.87-1.57,1.9-1.9,1.5-.49,3.16-.44,4.5-1.57.79-.67,2.24-1.03,1.57-2.28-.54-1.01-1.88-.65-2.86-.23-.41.18-.78.81-1.19.21-.35-.51-.15-1.14.38-1.52.8-.57,1.74-.93,2.7-.92,1.47.02,2.76.93,3.44,2,.65,1.02-.52,2.02-1.25,2.91-.89,1.09-2.2,1.58-3.46,2.5,1.73,1.22,3.3,2.33,4.88,3.45,2.17,1.54,2.47,3.14.78,5.02-.92,1.01-2,1.95-3.17,2.64-2.32,1.38-2.32,3.32-1.58,5.49.36,1.07.83,2.11,1.27,3.15,1.35,3.13,3.54,4.82,6,4.43,5.02-.8,9.92.58,14.88.78,2.51.1,5.1-.25,7.58.52.37.11.79,0,1.11-.34,1.01-1.08,2-1.13,2.94-.1.71.78,1.7.69,2.02.01.59-1.27,1.56-.99,2.48-1.01,2.21-.03,4.44-.15,6.64.04,1.53.13,3.78-1.19,4.31,1.7.02.14.75.24,1.13.2,1.71-.15,3.43-.27,5.1-.59.6-.12,1.52-.22,1.62-1.21.09-.87-.68-.99-1.16-1.38-2.75-2.27-2.83-2.69-.06-5.21,5.26-4.8,11.27-8.61,17.16-12.57.72-.49,1.48-1.56,2.68-1.34,2.14.39,4.32.08,6.48.91,2.45.95,4.99,1.98,7.71,1.95,1.37-.02,3.63.61,3.94-.68.95-3.88,1.68-7.82,2.58-11.72,1.4-6.09,1.97-12.35,4.24-18.27.6-1.57,1.1-3.37.85-5.2-.07-.52.36-1.32-.41-1.42-.82-.11-.93.85-1.06,1.4-.28,1.09,0,2.24-.49,3.36-1.12,2.49-2.03,5.04-2.19,7.85-.04.69.2,2.65-1.8,2.16h0c.29-5.19,2.47-9.94,3.51-14.97.59-2.86,2.16-5.51,2.77-8.37.6-2.84,1.4-5.6,2.38-8.3,1.12-3.09,2.49-6.06,3.23-9.3.34-1.48.01-3,.47-4.34.49-1.42-.11-1.71-1.06-2.49-1.49-1.24-3.49-1.29-4.89-2.69-2.56-2.56-6.41-3.15-8.98-6.02-.89,3.06,1.71,4.16,2.9,5.45,1.39,1.51,2.3,4.31,5.31,3.99.72-.08.92.61.4,1.21-.78.9-1.57.62-2.61.26-1.62-.56-1.82-2.32-3.32-3.09-2.57-1.32-4.07-5.29-3.32-7.55-.26.06-.48.08-.66.17-.5.24-.72,1.32-1.54.51-.21-.21-.47-.6-.4-.82.27-.88.94-.63,1.6-.47,1.01.24.69-.58.79-1.06h0c2.5.47,4.26,2.39,6.62,3.24,2.74.98,5.12,2.87,7.9,3.89.49.18.92.94,1.44.26.48-.62-.16-1.04-.59-1.39-.46-.37-.71-.88-1.56-.92-1.61-.07-2.86-1.07-3.48-2.59-.36-.88-.51-1.25-1.11-.16-.43.78-.77.04-1.12-.18-1.08-.68-.4-1.71-.52-2.59l-.08.08c1.39.29,2.79.43,4.01,1.39,1.77,1.39,3.74,2.53,5.55,3.87.96.71,1.52.64,2.7.09,1.25-.59,1.18-2.16,2.37-2.46.53.35.62.9.43,1.17-1.89,2.66,1.07,4.54,1.96,4.74,2.24.51,3.06,3.26,5.57,2.99.45-.05,1.39.02,1.7.74.46,1.09,1.02.87,1.57.15.56-.75.05-1.22-.59-1.51-.81-.38-1.65-.71-2.49-1.01-1.11-.38-.68-1.56-1.2-2.25-.05-.07.22-.55.34-.54.95.03,1.17.78,1.6,1.49.98,1.62,4.61,2.12,5.53.69,2.92-4.54,6.88-8.21,10.15-12.46,2.57-3.35,5.03-6.86,8.49-9.44.59.67.14.99-.16,1.37-2.14,2.74-4.22,5.53-6.43,8.22-3.94,4.81-7.79,9.7-12.04,14.25-.58.62-1.28,1.03.29,1.83,2.31,1.18,3.87.24,5.58-.85,7.74-4.99,13.27-12.04,18.15-19.66.7-1.1,1.56-1.89,2.68-2.28.84-.29,2.11-.11,1.64,1.25-.95,2.77-2.15,5.45-3.27,8.16-.27.64-1.14,1.44-.33,1.89.77.42,1.83.09,2.67-.58.59-.47.05-1.57,1.07-1.69.68,2.78,2.08,3.52,4.24,2.23.46-.27.68-.78,1.44-.66,3.59.57,7.12-1.08,11.27-.04-1.67-2.36-3.92-3.22-5.26-4.96-3.16-4.1-7.78-6.72-10.81-10.93-3.39-.27-3.67-3.99-6.09-5.61-2.36-1.57-4.27-4.35-5.64-7.3-.81.63-.93,2.06-1.97,1.77-.93-.25-.94-1.48-1.04-2.28-.24-1.98-1.63-3.34-2.8-4.5-1.55-1.54-1.5-3.37-1.55-5.01-.05-1.98-.39-3.75-1.6-5.17-1.2-1.42-.12-3.92-2.39-4.71.94-1.68-.07-3.08-.64-4.56-1.04-2.69-2.2-5.33-2.94-8.13-1.72-6.59-5.44-11.59-11.67-14.58-4.8-2.3-9.74-4.32-14.64-6.33-5.81-2.38-11.89-4.2-18.03-5.75-3.44-.87-6.63-2.7-9.99-3.97-.88-.33-1.5-.27-1.79-1.59-.17-.76-2.16-1.12-3.33-1.66-2.59-1.2-4.3-3.54-6.46-5.33-1.08,1.47.98,2.36.21,3.6-1.08-.09-1.08-1.14-1.6-1.68-1.09-1.13-1.8-1.18-1.94.62l.1-.1c-1.52.02-2.79.41-3.15,2.14-1.95-.63-3.08,1.03-4.27,1.9-.94.68-3.35.63-2.52,2.95l.1-.1ZM65.92,591.74c.15-.03.3-.06.46-.09.21.59.55,1.16.62,1.77.9,7.51,1.74,15.04,1.92,22.59.12,5.28.35,10.57.4,15.86.09,8.46.16,16.89-.85,25.29-.41,3.39-.86,6.78-2.61,9.89-.77,1.36-.59,3,.72,4.42,2.24,2.42,4.14,5.17,6.44,7.52,3.96,4.04,7.51,8.52,12.33,11.66.66.43,1.96.63,1.1,1.86-.61.87-1.48.75-2.36.17-1.44-.95-2.9-2.28-4.27-2.81-4.67-1.79-8.16-5.27-12.33-7.73-1.12-.66-1.32-.85-1.85.35-2.78,6.24-4.15,12.94-6.23,19.4-.19.6-.13.9.25,1.25.33.31.91.43,1.12.17,2.01-2.61,1.9-.34,2.57.93.44.83,1.7,1.13,2.55,1.69,1.27.83,2.74.88,4.05,1.55,2.57,1.3,5.5,1.68,7.74,3.88,3.04,2.99,7.7,3.05,11.08,5.61,1.1.83,2.12.03,2.26-1.15.19-1.66.51-3.47-1.31-5.07,2.48.57,2.58-.75,2.39-2.28-.09-.78-.52-1.63-.34-2.33,1.42-5.42,1.63-10.94,1.98-16.51.37-5.92,1.67-11.75,1.47-17.79-.15-4.67.69-9.39.92-14.11.24-4.79,1.27-9.54,1.64-14.35.32,2.58.51,5.16.16,7.78,1.19-1.66,1.45-3.51,1.55-5.41.17-3.42.1-6.88.58-10.25.91-6.32,1.46-12.68,2.46-18.98.54-3.39.09-6.78.82-10.15.8-3.73,1.15-7.57,1.53-11.37.5-5.11.24-10.24,1.8-15.31.66-2.14,1.36-4.84.29-7.41-.39-.94-.24-2.22.17-3.36.85-2.43.48-5.54-.56-7.05-1.53-2.22-.28-3.11.41-4.53.22-.45.65-.85-.14-1.1-1.53-.48-3.24-2.04-2.22-2.93,1.28-1.11.58-2.65,1.88-3.63,2.29-1.71,4.01-3.5,4.05-7.17.07-5.81.71-11.68,1.24-17.51.49-5.46,1.43-10.87,1.55-16.38.06-2.91.96-5.79,1.24-8.7.62-6.37,1.09-12.76,1.63-19.14.45-5.35.82-10.7,1.09-16.06.07-1.34-.22-2.72.3-4.14,1.29-3.51-.14-7.44,1.51-10.97.31-.66.1-1.63-.07-2.42-1.1-5.16-1.53-10.42-2.72-15.58-.95-4.12-1.57-8.37-1.65-12.68-.07-3.5-1.11-4.5-3.94-5.31-3.02-.87-6.11-1.3-9.18-1.91-3.54-.71-7-1.79-10.48-2.77-.6-.17-1.32-.48-1.64-.96-.73-1.1-1.75-.63-3.14-.54,2.56-2.4-.4-2.41-.93-3.51-.13.69-.24,1.34-.37,2.02-1.31-.52-.36-1.63-.88-2.47-.5,1.25-1.43,1.32-2.36,1.27-.14,0-.26-.42-.39-.65,2.12-.65.09-.83-.11-1.29-.73-1.74-3.95,1.1-3.82-2.12-.08,0-.16,0-.24,0q-2.12,0-3.56-1.88c-.08-.1-.3-.11-.46-.14-2.73-.41-4.9-2.13-7.36-3.07-1.46-.56-2.01-3.12-4.21-1.93,0,.79-.16,1.64.03,2.42,1.18,4.97,1,10.07,1.33,15.09.32,4.84.26,9.69.93,14.53.21,1.5.63,3.53-.99,5.01-.62-1.08.32-1.83.17-2.74-.88-5.47-.91-10.99-1.04-16.52-.12-5.14-.25-10.3-1.4-15.36-.24-1.07.37-2.32-.66-3.29.51,1.49-1.11,2.56-.79,3.83.94,3.73.31,7.55.82,11.31.63,4.64.79,9.34,1.15,14.02.08,1.06.07,1.06-.47.98-1.1-.16-.96-.16-.97.64-.05,2.63.48,5.2.49,7.84.01,2.19-.69,4.37.25,6.67.5,1.21,1.46,2.99.84,4.05-.81,1.38-.28,2.15-.11,3.4.28,2.06,1.98,4.27.12,6.48-1.51-4.14-1.46-8.41-1.79-12.68-.34-4.4-.02-8.87-1.21-13.83-.15,1.46-1.66,1.88-1.49,2.28,1.87,4.36,1.54,9.02,1.1,13.4-.32,3.15.04,5.94.51,8.94.24,1.54,1.2,4-1.7,4.7.68.23,1.38.25,1.45,1.35.25,3.86.67,7.72.44,11.6-.08,1.44.59,2.96-.06,4.29-.94,1.93-.82,3.65.32,5.39.44.67.33,1.28-.32,1.68-1,.61-1,1.02-.72.99,1.27-.12.42.44.49.9.3,2.18-.61,4.36-.13,6.44.79,3.38.1,6.81.69,10.18.33,1.89-.48,3.94-.34,5.56.27,3.03.5,6.14,1.07,9.17.18.98-1.07,2.58.63,2.78.69.08.71-1.78.86-2.84.25-1.74-.76-3.37-.41-5.07.69-3.34.26-6.64-.09-9.97-.48-4.58-.02-9.25-1.43-13.73-.15-.48.21-.91.54-.96.42-.06,1.1.15,1.1.65.03,2.98,1.01,5.86,1.11,8.75.12,3.44-.05,6.95.31,10.35.19,1.75-1.41,3.41-.01,5.08.69.83.64,2.18.24,2.8-.96,1.48-.23,3.07-.15,4.31.32,4.72.15,9.41.25,14.53-1.21-2.06-.6-3.89-.81-5.59-.2-1.7.66-3.79-1-5.39-.47,3.2-.13,6.36.47,9.31.53,2.63-.92,5.34.35,8.28.88-1.39,0-2.68.98-3.61.84,2.56.77,3.01-.96,4.43-.28.23-.6.49-.47.73.97,1.75.04,3.58.24,5.38.39,3.47,2.35,6.7,1.32,10.41-.76,2.73.51,5.64-.34,8.4-.11.36-.89.57-.16,1,.66.39.83-.06.86-.64.09-1.68,1.43-1.48,1.8-.68.5,1.08,1.28,2,1.67,3.18,2.24,6.75,5.5,13.07,8.55,19.47,1.19,2.49,2.83,4.83,2.61,8.11-1.19-.66-2.01-1.22-1.83-2.51.12-.86-.06-1.75-.61-2.29-2.37-2.35-3.13-5.6-4.88-8.28-.58-.9-.92-1.86-1.37-2.79-1.95-4.01-3.88-8.03-5.79-12.06-.28-.6-.63-1.04-1.26-.73-.69.34-.06.8.04,1.22,1.31,5.31,4.25,9.96,6.11,15.06,1.99,5.46,4.09,10.92,6.43,16.24,1.3,2.96,1.56,6.38,3.96,8.94.65.69.96,2.36.46,3.9-6.88-11.67-10.41-24.52-16.1-36.47-1.21,1.25-1.11,1.21-.61,2.45.37.91.75,2.02-.1,2.86-.32.31-.74.57-.34.86,2.08,1.48,1.09,3.76,1.12,5.48.14,6.99.5,14.03-.57,20.97-.28,1.82.37,3.36.28,5.03-.17,3.3-.58,6.6-.49,9.89.06,2.29.3,4.55-.31,6.79-.26.97-.3,1.82.04,2.81.61,1.8.77,4.15.31,5.51-.68,2.01-.28,3.81-.59,5.63,2.98-3.85.38-8.42,1.74-12.71,1.18-3.73.63-8.1-.32-12.17.98.2,1.69.35,2.39.5-1.11-.88-1.02-1.84-.62-3.17.34.48.63.71.68.98.61,3.38.64,6.72.41,10.2-.26,4.01.26,8.2,0,12.25-.31,4.96-.45,9.97-1.46,14.88-.06.28-.12.51.15.51,2.26,0,1.24,1.74,1.4,2.76.16,1.05.04,2.14.04,3.21.58-.65.92-1.32.96-2,.21-3.69.28-7.39.54-11.07.18-2.47-1.07-4.88-.45-7.27.84-3.25.52-6.53.47-9.75-.09-6.99-.41-13.97-.59-20.96-.12-4.94-.69-9.86-1.06-14.8ZM93.79,77.29c-.77,3.23-.53,6.55-.82,9.8-.55,6.2-.39,12.46-.63,18.69-.16,4.15,2.31,6.55,5.43,8.53,3.12,1.99,6.88,2.21,10.23,3.59,2.21.91,4.53,1.39,6.94,1.34,7.69-.17,15.26-1.21,22.57-3.58,2.81-.91,5.94-2.1,7.29-4.89,2.03-4.19,3.46-8.67,5.03-13.07.29-.8.1-1.64,1.4-1.26.36.1.95-.33,1-.89.07-.84-.5-.55-.97-.51-.63.05-1.05-.46-.72-.9,1.88-2.53.87-5.76,2.16-8.43.42-.86.07-2.32-.83-2.13-1.81.38-2.55-1.3-3.8-1.46-3.04-.4-2.02-1.98-1.28-3.52.24-.51.37-.92.45-1.51.27-2.08,1.94-3.87,1.32-6.17,2.74-2.38,1.2-4.44-.35-6.64-.52-.74-.75-2.19.87-2.05,1.64.14,1.17-.44,1.02-1.48-.3-2.2-2.44-2.2-3.6-3.35-.58-.57-1.83-.69-1.22-1.91.52-1.05,1.35-.55,2.09-.2.42.2.91.65,1.29.08.43-.65-.17-1.1-.61-1.38-1.72-1.08-3.45-2.14-5.45-2.67-1.35-.36-2.22-1.19-1.03-2.4.84-.85,2.18-1.69,3.27-1.66,1.85.05,2.08-.84,2.1-2.21.01-.82-.01-1.64.01-2.46.02-.62-.17-1.44.76-1.56,1.03-.13,1.31.38.98,1.35-.06.17.29.64.51.69.56.13.69-.38.65-.77-.2-1.66.5-3.21.54-4.84.02-.85.03-1.81-.84-2.15-3.72-1.42-5.42-5.26-8.83-7.16-1.76-.98-3.33-1.84-5.2-1.34-4.91,1.31-9.91,2.38-14.37,5-.8.47-1.51.08-2.31-.08-1.6-.31-2.47-1.86-4.06-2.09-2.36-.34-4.62-1.1-6.56-2.42-2.04-1.38-3.27-.51-4,1.22-.78,1.85-1.83,3.76-2.92,5.15-2.25,2.85-4.37,5.05-3.83,9.31.42,3.36.48,6.93.28,10.41-.12,2.01.6,2.49,2.54,2.05,2-.45,4.15-.61,5.48,1.51.75,1.2,1.7,2.09,2.79,2.97,1.01.82,1.81,2.29,1.12,3.64-.95,1.85-1.08,3.89-1.81,5.78-1.46,3.8-2.56,7.67-2.22,11.81.08.91-.41,1.45-.93,2.12-2.08,2.67-1.91,4.91.03,7.68.69.98,1.55,1.61,2.4,2.33.45.38,1.31.85.68,1.56-.41.47-1.05.95-1.93.62-2.78-1.05-5.01-2.84-7-5-.8-.87-.79-1.67-.25-2.66,2.45-4.52,4.61-9.13,4.73-14.43.02-.9,1.17-2.2-1.04-1.94-.56.07-.71-.56-.4-1.09.37-.63.67-1.35,1.36-1.69,1.36-.67,1.12-1.94.49-2.64-.72-.8-1.9-.5-2.4.59-.37.81-.97,1.09-1.71,1.13-1.86.11-2.05.96-1.51,2.57.4,1.2-.33,2.67.56,3.8,1.11,1.42,2.15-1.08,3.45-.04-.44,1.88-3.58,1.38-3.45,3.86-2.13-3.56-1.32-7.79-3.02-11.36-.15,5.66-1.08,11.28.45,16.82.17.6.41,1.52-.37,1.72-.85.21-.78-.74-1.02-1.32-.88-2.07-.08-4.35-1-6.43ZM189.3,298.79c-.83,3.81-1.77,7.61-2.43,11.45-.23,1.38-.44,2.67-1.01,3.98-.78,1.82-1.55,3.64,1.01,5.17,1.03.61,2.31,1.61,2.98,2.84,1.61,2.94,4.21,5.14,5.82,8.07.49.9,1.3.76,1.91.58,1.19-.35,2.49-.73,3.43-1.48,4.41-3.55,8.45-7.52,11.85-12.06,3.81-5.09,7.4-10.35,10.9-15.66,1.75-2.65,3.68-5.11,4.85-8.15,1.01-2.62,2.66-5,4.08-7.46.31-.54.75-.87,1.61-.71,1.42.26,1.73-.26,1.17-1.8-.8-2.22-2.67-3.48-3.95-5.25-1.55-2.15-4.04-3.21-6.11-4.77-2.84-2.15-2.86-3.84-.26-6,.44-.36,1.12-.51.77-1.24-.26-.53-.77-.77-1.42-.78-1.67-.04-3.35-.23-5.01-.18-.66.02-1.18,0-1.44-.57-.33-.71.44-.96.79-1.33,1.79-1.93,4.44-3.09,5.25-5.89.28-.98,1.49-1.85.82-2.9-.7-1.09-1.31.57-2.08.37-.31-.08-.61-.3-.91-.31-.88-.04-1.78-.26-2.59.37-2.06,1.6-4.15,3.16-6.22,4.75-.43.33-.81,1.02-1.42.45-.54-.5-.48-1.32-.09-1.81.75-.95,1.56-1.83,2.09-3.13-1.09-.06-1.94-.54-3.08-.02-1.17.53-1.96-.17-1.3-1.48.31-.63.48-.99-.16-1.39-1.29-.82-2.64-1.56-3.84-2.48-1.02-.78-1.32-.31-1.77.57-1.25,2.46-1.23,5.25-2.15,7.8-1.21,3.37-1.76,6.93-3,10.31-1.25,3.39-2.16,6.91-3.23,10.37-.81,2.61-.92,5.3-1.2,7.99-.25,2.42-.67,4.88-.77,7.36,0,.24,0,.58-.15.69-1.73,1.3-1.37,3.23-1.24,4.9.18,2.44-1.25,4.41-1.56,6.71-1.09-2.57.87-5.24-.94-7.88ZM101.68,146.46c-1.55,2.52-3.62,4.83-3.29,7.62.79,6.76,2.73,13.21,7.42,18.44.84.93,1.03,1.87.66,2.9-.27.73-.33,1.43-.31,2.16,0,.47-.15,1.12.35,1.31.54.21,1.08-.08,1.47-.59,3.47-4.51,8.03-7.76,12.59-11.02,1.2-.85,2.06-1.9,1.79-3.49-.53-3.18-.02-6.48-1.29-9.6-.37-.91-.99-3.08,1.61-1.71.81.43.85-.04.93-.76.04-.41-.13-1.42,1.03-1.25-.16.7-.3,1.36-.47,2.09,1.17,0,1.6-.52,1.64-1.51.09-2.14,1.05-1.58,2.41-.33-.74-2.29.72-3.28,1.91-4.25,1.24-1,2.65-1.83,4.1-2.5,6.1-2.83,10.98-7.28,15.65-11.93,2.31-2.29,1.66-4.01-1.45-5.13-.19-.07-.44-.34-.43-.5.08-1.88-1.09-3.74-.5-5.55,1.3-3.97.97-8.28,2.78-12.17,1.05-2.25.65-4.84,1.05-7.33-.85.09-1.06.54-1.11.88-.53,3.69-3.05,6.6-3.91,10.17-.27,1.13-1.46,2.7-2.06,2.5-2.07-.67-2.9,1.25-4.4,1.66-.61.16-1.24.57-1.93.79-5.32,1.67-10.78,2.39-16.31,2.98-4.25.45-8.47.54-12.68.13-1.74-.17-2.25-.41-1.43,1.6.71,1.71,1.47,4.38.32,5.35-1.74,1.47-.91,2.94-1.19,4.39-.15.79-.15,1.62-.18,2.43-.21,4.73-2.46,8.98-3.15,13.6-.17,1.14-.84,1.77-1.73,2.43-.77-1.42,1.18-2.35.1-3.81ZM49.72,274.18c-1.8,2.03-.8,4.09-1.14,5.9-.1.52.99,1.43-.26,1.5-.92.05-1.46-.93-1.15-1.77.44-1.19.2-2.37.26-3.54.05-.91-.55-1.36-1.37-1.37-.89-.01-1.35.58-1.23,1.44.2,1.49-.96,2.74-.66,4.26.22-1.42-.95-2.7-.15-4.21.62-1.18.43-2.17-1.21-2.65-2.8-.81-5.58-.69-8.32-.03-1.02.24-2.42-.56-3.07.86-1.65,3.65-3.58,7.12-3.66,11.4-.04,2.17.49,4.09,1.15,6.32-2.16-.99-2.32-1.02-2.63.95-.42,2.64-.54,5.32-.82,7.98-.4,3.8,1.2,6.43,4.37,8.49,2.16,1.4,4.19,3.12,5.93,5.02,3.41,3.73,6.58,7.69,9.97,11.7,1.81-3.34,3.6-6.63,4.21-10.19.71-4.09.77-8.32.62-12.51-.04-1.22.17-2.22,1.59-2.92,2.01-1,2.05-3.61.32-4.92-.54-.41-.96-.84-.93-1.61.21-5.44-.73-10.81-1.04-16.21-.07-1.17-.47-2.33-.81-3.89ZM84.03,254.57c.28,1.11-.9,3.05,1.57,2.99,6.21-.16,12.15,1.62,18.23,2.42,1.08.14,1.28-.09,1.51-1.32.5-2.64.08-5.25.17-7.85.24-6.74.85-13.45,1.22-20.18.08-1.42-.44-2.87.11-4.26.4-1.02.5-1.95-.78-2.38-1.4-.48-3.6-1.03-4.03.14-1.16,3.15-3.03,2.21-5.02,1.53-1.23-.42-2.87-.04-3.61-1.43-1.48-2.77-3.73-1.19-5.67-1.08-1.85.1-1.68,1.7-1.73,2.95-.08,2.38.1,4.77-.08,7.13-.56,7.1-1.24,14.18-1.88,21.33ZM90.06,145.03c.2-1.51.34-2.86,1.31-3.96.28-.32.49-.69.96-.51.59.22.67.85.43,1.23-2.12,3.44-1.01,7.58-2.5,11.16-.94,2.25.59,5.11-1.63,7.09.79.78-.6,2.05.48,2.65,1.39.79,2.39,1.96,3.47,3.06,1.13,1.15,1.66.55,2.02-.6.72-2.28,1.02-4.63.52-6.98-.21-.99-.24-1.85-.07-2.85.38-2.13,1.28-4.03,1.98-6.01,1.1-3.07,2.76-5.91,3.54-9.21.75-3.16,2.33-6.1,2.35-9.59.01-1.77-.41-1.35-1.39-.95-1.79.74-3.22,2.17-5.2,2.6-5.19,1.12-9.9,4.25-15.64,3.64,3.59,2.66,6.79,5.49,9.35,9.21ZM100.95,678.65c1.25-.43.91-1.28,1.02-1.97.58-3.9.98-7.84,1.81-11.69,1.24-5.76,1.9-11.59,2.64-17.41.51-4.03.84-8.05,1.07-12.1.35-6.09,1.22-12.15,1.85-18.22.43-4.11.66-8.25,1.13-12.34.65-5.69,1.4-11.39,1.75-17.1.31-5.1,1.24-10.08,1.9-15.12.28-2.16.43-4.34.63-6.52.06-.7-.12-1.39-.89-1.51-.68-.11-.84.57-1.16,1.05-.5.76-.36,1.56-.41,2.36-.1,1.3.08,2.58-.21,3.9-1.01,4.57-1.52,9.2-1.8,13.87-.2,3.31-.78,6.6-1.28,9.88-.41,2.66-.66,5.32-.41,7.99.03.36,1.08.76.55,1.43-.1.13-1.1-.46-1.71-.73,1.4,4.68-.43,9.17-.87,13.68-.46,4.75-1.33,9.46-1.18,14.28.02.63.67,1.18.19,1.82-1.72,2.3-1.17,5.09-1.57,7.65-.44,2.88-.34,5.94-.92,8.7-.75,3.54-.21,7.11-1.04,10.59-.5,2.1-.34,4.36-.57,6.53-.13,1.22,1.14,1.95.56,3.53-.83,2.26-.74,4.86-1.05,7.44ZM180.66,327.83c.3-2.56.55-4.46.75-6.36.32-3.01-.34-3.53-3.12-4.36-3.75-1.13-7.71-.14-11.38-1.44-2.72-.96-4.8-.11-6.91,1.66-4.12,3.47-8.54,6.6-11.89,10.92-.39.5-1.65.59-.83,1.52.6.68,1.15,1.9,2.56,1.13,1.27-.69,2.76-1.04,3.92-1.87,3.98-2.84,8.41-4.83,12.74-7.03,2.68-1.36,5.29-.3,7.46.74,2.3,1.1,4.93,2.09,6.69,5.08ZM161.99,92.33c-2.78-4.36-1.6-5.58,2.42-8.04.28-.17.59-.29.87-.45,1.34-.79,1.98-2,2.35-3.49.95-3.82.02-7.77.87-11.6.06-.26-.09-.65-.28-.86-.97-1.08-7.41-1.14-8.55-.12-.42.37-.28.91-.42,1.36-.86,2.62-.4,5.35-.65,8.02-.38,3.98-3.07,7.09-3.61,11.09-.29,2.18-.75,4.07.32,6.28,1.76-2.19,4.55-1.08,6.68-2.18ZM134.55,541.94c1.4-2.24.45-3.88.33-5.51-.25-3.42-.58-6.81-.61-10.25-.03-3.06-1.2-6.06-1.41-9.21-.28-4.4-.71-8.82-1.62-13.12-.34-1.62.6-3.18-.26-4.63-.86-1.45-.85-3.01-.74-4.61.04-.53-.08-1.09-.22-1.61-.28-1.07-.74,1.29-.98-.03-.11-.62-.19-1.29.25-1.89.12-.16.11-.47.08-.7-1.18-9.4-.7-18.96-2.82-28.26-.88-3.87-.38-7.85-.75-11.81-.79,3.26-1.36,6.62-1.59,9.9-.36,5.2,1.1,10.36,1.46,15.59.43,6.26,1.63,12.46,2.31,18.7.57,5.2,1.59,10.36,1.53,15.62,0,.13.05.72.29.36,1.12-1.65.42.6.84.36.07.83.1,1.67.19,2.49.52,5.06,1.42,10.07,1.98,15.11.48,4.31,1.65,8.5,1.72,13.48ZM86.66,164.17c-.8,7.45-1.22,14.52.15,21.7,1.35,7.12,3.52,13.94,5.77,21.12.97-1.13.63-1.77.47-2.5-.94-4.34-2.48-8.62-2.1-13.13.2-2.49.51-5.02.74-7.49.39-4.21.34-8.47,1.33-12.63.15-.64-.09-1.18-.48-1.54-1.85-1.76-3.22-4.03-5.88-5.54ZM162.39,355.99c.74-.82,1.36-.08,1.82.13,1.62.73,2.89.71,4.65-.14,2.47-1.19,4.63-2.94,7.25-3.84.98-.34,1.68-1.12,2.14-2.17-.76-.24-1.42-.75-1.96-.39-2.21,1.47-4.82,1.48-7.26,2.09-2.19.55-4.45.89-6.6,1.56-1.27.39-1.83,2.19-3.85,1.43-1.38-.52-2.74-.48-3.34-2.22-.33-.95-1.1-2.37-2.32-1.72-1.72.92-1.55-.56-1.93-1.2-.35-.6.23-1.64-.5-2.04-1.68-.92-2.14-2.59-2.58-4.16-.45-1.61-1.41-1.83-2.69-1.47-1.25.35-2.42,1.27-3.77.28-.08-.05-.43.14-.55.31-.47.66.6,4.6,1.35,4.99,2.21,1.17,4.48,2.25,6.64,3.49,4,2.3,7.89,4.79,11.94,6.99.93.51,2.33,1.31,3.57.08-.79-.64-1.6-1.14-2.02-1.99ZM199.64,588.66c-.39.19-.64.27-.64.33.52,5.58-1.18,10.99-1.2,16.56-.02,5.13-.49,10.27-1.07,15.38-.4,3.56-.79,7.11-.8,10.68-.02,3.88-.87,7.74-.28,11.62.23-.94.37-1.89.47-2.83.69-6.77,2.65-13.33,2.89-20.21.1-3.07.03-6.18.41-9.24.24-1.96,1.81-4.45,1.07-5.67-.8-1.31.61-2.14-.36-3.58-1.18-1.75-.72-5.02-.12-7.42.52-2.1-.42-3.67-.36-5.62ZM109.41,339.91c-.94-.71-1.7-.09-2.49-.25-5.76-1.1-11.59-1.74-17.43-2.26-1.61-.14-2.4.12-2.41,1.95-.01,1.93,1.03,3.16,3.46,3.13,4.8-.07,9.53,1.06,14.38.63,2.48-.22,3.5-1.39,4.49-3.21ZM113.31,338.13c2.02-.3,4.48-.67,6.95-1.02.68-.1,1.75.21,1.76-.77.01-.86-1.01-.88-1.74-.98-.62-.08-1.28-.09-1.85-.17-1.4-.19-3.12,1.02-3.74.5-2.2-1.85-4.63-.88-6.86-.97-4.75-.21-9.49-.74-14.22-1.06-4.9-.33-9.9-.11-14.76-1.18-.51-.11-1.47-.31-1.52.69-.05.85.76.65,1.28.73,5.36.82,10.73,1.63,16.1,2.46,3.56.55,7.11,1.28,10.69,1.58,1.11.09,3.29,1.58,3.58-1.33.04-.39.9-.17.98.17.41,1.77,1.79,1.23,3.37,1.35ZM220.85,249.47c1.94,2.33,4.78.31,6.62,2.2,1.48,1.52,2.67.34,3.45-.94,2.19-3.55,4.38-7.11,6.35-10.78,1.48-2.76,3.01-5.54,3.78-8.67-3.14,3.38-5.67,7.23-9.29,10.13-3.51,2.8-6.89,5.77-10.91,8.06ZM49.23,323.57c-1.8,2.86-3.08,5.4.16,7.78.29.21.31.75.57,1.03.63.69.49,1.08-.4.89-.69-.15-.94.02-.91.63.03.66.52,1.7.81,1.6,2.77-.98,1.06,1.33,1.54,1.99.48.65.46,2.52,1.29,1.89,2.43-1.83,1.29.53,1.44,1.1.29,1.07.8,1.86,1.9,2.35,3.55-8.38-2.84-13.21-6.4-19.26ZM228.92,260.04c2.24.75,3.12-.67,4.15-2.29,1.96-3.08,3.25-6.5,4.95-9.71,1.48-2.79,3.14-5.57,3.62-8.82.1-.68.09-1.14-.45-1.44-.59-.33-.9.24-1.11.63-1.39,2.51-2.56,5.17-4.14,7.56-2.42,3.66-4.4,7.69-8.02,10.45-.99.76-1.54,2.1-1.38,3.14.14.93,1.57.31,2.39.48ZM51.78,322.66c-.49-.03-.93-.03-1.09.44-.16.47-.21,1.02.25,1.36,2.65,1.98,3.52,5.59,6.64,7.16.53.27,1.16.92,1.22,1.46.22,2.08,1.94,3.36,3.14,4.33,2.38,1.91,1.58-2.22,3.23-2.33.15-.01.29-.13.44-.2,1.36-.61,1.16-1.7.22-2.2-1.21-.64-1.72-1.76-2.4-2.69-1.63-2.25-2.72-5.08-6.38-4.32-.3.06-.71-.34-1.04-.57-.34-.23-.65-.55-.99,0-.34.54.16.7.44.93.7.55,1.42,1.07,2.11,1.63.36.3.45.71.07,1.05-.15.14-.59.24-.64.17-1.15-1.71-4.05-2.13-3.87-4.72.1-1.38-.93-1.04-1.35-1.49ZM152.81,334.93c3.76-.47,6.88-.4,9.61-3.32,3.43-3.67,8.4-3.15,13.02-3,.5.02,1.1.66,1.38-.24.22-.71-.44-1.07-.88-1.31-1.35-.74-2.83-1.24-4.13-2.04-1.3-.8-2.57-.97-3.84-.25-2.52,1.43-5.3,2.23-7.6,4.33-1.65,1.51-1.18,1.68.46,2.5-2.61,1.28-5.93.2-8.02,3.34ZM166.57,735.95c1.63,6.85,7.34,8.58,12.58,11.06.04-1.44-.4-2.75,0-4.07.12-.41.07-.85-.56-1.14-3.98-1.88-7.92-3.84-12.02-5.84ZM159.91,128.93c.55-.24.71.12.96.3.5.37.4,1.62,1.54,1.06,1.01-.5.23-1.29.29-1.94.14-1.53-1.07-2.68-1.13-4.2-.07-1.74-1.06-2.68-2.93-2.63-1.08.03-2.17-.21-3.26-.29-.93-.07-1.77.14-1.4,1.32.27.86-.21,1.57-.16,2.38.06.94.19,1.93.95,2.4.8.5,1.2-.57,1.78-.94.47-.31.96-.6,1.41-.94.45-.34.96-.41,1.37-.12.56.39.47.97.18,1.53-.33.65-.73,1.22-1.29,1.75-1.19,1.13-2.16,2.45-2.91,4.28,2.87-1.78,4.13,2.03,6.67,1.26-1.24-1.57-2.17-3.23-2.09-5.23ZM57.55,584.19c.15-1.26.59-2.55.41-3.76-.73-4.95.12-9.94-.67-14.9-.43-2.71.05-5.56-.13-8.33-.15-2.38.69-4.9-.81-7.15-.12-.17.25-.62.17-.87-.51-1.48.2-3.25-1.23-5.09.56,13.75.86,26.96,2.26,40.1ZM197.1,543.27c-.91,3.2-.17,6.34-.63,9.44-.53,3.56,3.09,5.28,4.2,8.25-1.88-4.37,1.76-8.94-.6-13.19-.72.34-.51,1.81-1.58,1.55-1.11-.27-.26-1.49-.65-2.09-.81-1.25.88-2.9-.74-3.96ZM172.16,719.41c-5.54-3.8-9.67-9.17-14.85-13.5-.89,3.23.15,4.91,2.77,6.52,2.57,1.57,5.4,2.69,7.81,4.63,1.16.93,2.66,1.81,4.26,2.35ZM178.26,39.86c-1.04.03-1.31.71-1.46,1.31-1.11,4.4-1.7,8.85-1.01,13.39.07.48.2.96.34,1.42.2.65.75.93,1.33.84.62-.1.44-.76.48-1.21.09-.97.07-1.91.36-2.89,1.24-4.29.26-8.57-.03-12.86ZM94.91,697.23c-.73,1.54-.86,2.87-.74,4.12.18,1.8-1.76,3-1.08,4.92.84,2.36-.01,4.73-.73,6.91-1.09,3.29-1.1,4.02,1.62,5.52.64-7.13,1.63-14.12.93-21.47ZM158.37,21.51c-.54-.16-.75.41-.99.76-.48.72-.18,1.51.34,1.99.69.63,2.25,1.06,2.25,1.57-.03,2.54,3.29,3.28,2.95,6.07-.1.83.92,2.56,2.81,2.66,1.04.05.76-.43.91-.9.54-1.66.48-3.1-1.39-3.85-1.32-.53-1.43-1.83-1.95-2.88-1.1-2.23-2.37-4.33-4.93-5.41ZM203.48,587.28c-.53,9-1.09,18.47-1.68,28.58,3.11-9.9,3.23-19.32,1.68-28.58ZM59.65,340.06c.25-1,.27-1.77-.16-2.47-.22-.36-.56-.74-.97-.45-.64.44-.3,1.19-.34,1.81-.04.71-.02,2.02.62,1.82,2.02-.62,1.32,1.03,1.43,1.63.23,1.31.35,2.71.14,4.01-.29,1.82.87,2.8,2.11,2.82,1.1.02.25-1.34.35-2.08.08-.61.04-1.34.3-1.87,1.14-2.28.57-3.68-1.28-5.57-1.38-1.41-1.3-.09-2.2.35ZM18.69,727.86c6.19,2.58,12.67,4.07,19.27,6.04-.57-.88-1.17-1.15-1.81-1.52-2.08-1.22-4.51-1.53-6.59-2.7-3.38-1.91-6.81-3.41-10.87-1.82ZM193.91,482.02c.98-11.55-.45-23.04-.71-34.56-.52,11.54.3,23.04.71,34.56ZM236.75,279.86c-.48-1-.48-2.09-.92-3.12-.73-1.71-2.75-1.49-3.21-3.07-.61-2.08-1.79-3.51-4.14-3.67-.49-.03-.89-.42-.39-1.04.37-.46,1.16-.75.76-1.66-1.33-.11-1.89,1.02-2.74,1.7-.87.7-.75,1.23.06,1.9,2.35,1.92,4.76,3.75,7,5.81,1.15,1.06,1.81,2.67,3.58,3.17ZM55.24,365.9c-.03,1.38.02,1.97.82,1.12.05.48.24.99.12,1.42-.43,1.61-.17,3.19-.07,4.79.02.37-.32.77.35.76.39,0,.37-.21.37-.61.11-6.69-.06-13.37-.64-20.03-.04-.49.35-1.34-.51-1.34-.42,0-.74.81-1.38.8,0,.53-.3,1.12.37,1.52,1.4.84,1.6,1.87.37,3.05-.5.48-.31,1.05-.23,1.6.2,1.35.75,2.62.47,4.08-.22,1.14-.04,2.35-.04,2.85ZM129.72,12.12c-.15-2.81-1.64-4.36-3.87-4.11-1.24.14-2.48.68-3.11-1.01-.07-.19-.58-.34-.85-.29-.38.06-.43.48-.26.77.76,1.29,1.28,3.18,2.41,3.7,1.78.82,2.99,1.76,3.61,3.57.24.69.89,1.01,1.1.23.28-1.04.47-2.1.96-2.86ZM81.05,145.19c.05,1.3-.45,3.15,2.03,1.77.62-.35.57.32.66.84.25,1.45,1.47.46,2.2.62.62.14,1.36-.62,1.29-1.43-.06-.73-.54-1.13-1.39-.76-.31.14-.77-.13-.62-.48,1.16-2.77-1.45-3.61-2.6-5.19-.23-.31-.59-.6-1.06-.41-.47.19-.61.66-.47,1,.57,1.37-.19,2.69-.05,4.03ZM101.33,26c.64-.74,1.38-.99.9-2.29-.82-2.24-2.52-4.12-2.62-6.67-.03-.79-.92-1.55-1.76-1.39-.72.14-1.66.83-1.47,1.7.34,1.5.52,3.24,1.87,4.2.86.62,1.47,1.09,1.55,2.23.07.88.83,1.47,1.52,2.21ZM139.83,572.48c-.34.04-.67.08-1.01.12.71,5.85,1.42,11.71,2.13,17.56.13-5.94,1.31-11.99-1.11-17.68ZM65.32,672.94c-1.03.86-2.19,2.04-1.11,3.13,2.67,2.7,5.64,5.1,9.16,6.79-2.74-3.24-5.68-6.32-8.05-9.92ZM56.31,415.67c.94-1.43,1.12-17.9.24-20.15-.38,6.71-.9,13.43-.24,20.15ZM150.44,728.46c.49-4.05,2.26-7.7,2.88-11.64.12-.77.77-1.6-.33-2.02-1.25-.48-1.71.7-1.71,1.45-.02,4.11-1.85,8.08-.84,12.21ZM51.2,346.65c.04-.69-.58-.58-.62-.79-.36-1.72-1.22-3.34-.63-5.22.45-1.42-.75-2.58-1.71-2.67-1.49-.14-.63,1.44-.87,2.25-.09.3.01.66-.03.98-.35,2.72,1.06,4.77,3.86,5.46ZM54.66,381c.07-1.39.25-2.78.2-4.16-.13-3.52-.12-7.07-1.11-10.5-.16-.55,1.36-1.52-.24-1.58-1.34-.05-.61,1.22-.69,1.9-.06.5.2,1.02.26,1.54.31,2.33.6,4.68.89,6.98.3,2.4-.42,3.95.68,5.82ZM155.47,708.57c.29-5,.17-4.93-.77-6.41-.56-.88-.5-.89-1.14-.03-2.37,3.19-1.96,4.93,1.91,6.44ZM59.98,618.73c.06-.44.16-.89.16-1.33.01-3.22.17-6.46-.05-9.67-.15-2.16-.8-4.25-.01-6.43.14-.39-.32-1.04-.62-1.5-.06-.09-.79.09-1,.33-.39.46-.49.99.23,1.38.86.47.61,1.4.39,1.95-.63,1.6-.44,3.2-.26,4.8.38,3.47.9,6.93,1.17,10.46ZM156.35,23.24c.48-.95-.22-1.59-.84-1.7-1.57-.26-1.92-1.47-2.05-2.59-.12-.98-.83-1.57-1.03-2.41-.21-.88-.9-1.42-1.52-1.23-.82.25-.53,1.25-.38,1.9.58,2.52,2.5,4.35,3.55,6.65.25.55.1,1.76,1.19,1.52,1.02-.22,1.23-1.16,1.09-2.13ZM118.89,414.92c-.26.06-.51.12-.77.18.62,5.93,1.25,11.86,1.87,17.79.27-.04.54-.07.82-.11-.9-5.92-.48-12.01-1.92-17.86ZM99.89,60.62c-.78.28-2.1-.87-2.12,1.03-.02,1.73,1.15,1.43,2.16,1.46,1.22.04,2.53-.2,3.62.18,1.04.36,1.91,1.24,2.3-.49.31-1.36-.56-1.85-1.75-2.35-1.55-.66-2.85.69-4.22.17ZM43.36,729.07c-2.57-.34-4.55-1.93-6.75-3.03-1.12-.57-2.48-.48-3.51-1.41-.38-.35-1.11-.27-1.52.3-.09.12-.14.27-.2.41.35.13.79.16,1.04.39,3.09,2.92,7.21,2.46,10.94,3.35ZM134.82,16.41c.56.18,1.2.21,1.39-.63.04-.19-.45-.71-.51-.69-1.4.67-1.19-.62-1.72-1.2-1.07-1.17-1.37-2.75-2.42-3.87-.2-.21-.57-.4-.82-.36-.34.05-.47.44-.31.78.54,1.09,1.18,2.13-.39,3-.12.07.4,1.28.62,1.96,1.59-.64,2.51,1.45,4.17,1.01ZM144.96,672.38c1.65-2.98,1.23-10.98-.71-13.16.24,4.41.46,8.62.71,13.16ZM70.09,713.25c-1.09-.74-1.85-1.31-2.66-1.79-1.25-.74-2.5-1.48-3.82-2.08-.4-.18-1.2-.37-1.43.43-.13.46-.2,1.28.22,1.34,2.55.35,4.39,3.23,7.69,2.1ZM118.55,431.91c-.7-5.98-1.4-11.95-2.11-17.93-.21.03-.43.05-.64.08.33,6.02,1.21,11.98,2.74,17.85ZM137.2,333.96c-1.3-.72-2.68-.92-4.12-1.08-2.25-.25-4.44.78-6.68.12-.41-.12-.88.11-.89.58-.02.66.42.81,1.07.98,3.6.96,7.08.14,10.63-.61ZM26.77,276.28c-1.93.66-4.19,1.38-4.74,3.13-.3.95,1.13,3.11,3.15,3.44.79-2.08.34-4.47,1.6-6.56ZM40.22,722.26c2.23,1.41,4.97.81,6.89,2.63.41.38,1.28.38,1.55-.07.35-.58-.21-1.07-.81-1.19-1.44-.29-2.53-1.58-3.75-1.78-1.12-.18-3.12-2.79-3.88.41ZM221.94,263.12c1.82-.11,3.38.75,5.11.74,1.23-.01,2.52.21,2.33-1.11-.16-1.11-2.02-2.16-2.95-1.99-1.59.3-3,1.52-4.49,2.36ZM96.27,44.2c-2.14,2.58-.6,5.56-2.8,7.29-.06.05.14.62.21.62,2.01-.08,1.35,1.17,1.03,2.15-.26.81.1,1.31.76,1.45.58.12.8-.45.8-.98,0-3.31,0-6.63,0-10.54ZM95.65,218.43c.69.68-.86,2.58,1.44,2.26.98-.14,2.43.44,2.27-1.57-.14-1.68-.39-3.13-2.51-3.06-1.91.06-.59,1.61-1.19,2.38ZM97.85,674.19c-1.22,4.01-.93,8.14-1.04,12.24,1.26-4,1.31-8.11,1.04-12.24ZM64.49,655.42c-.2,0-.4,0-.6,0-.35,2.88-.7,5.76-1.03,8.64-.05.47.25.83.68.85.57.03.47-.5.55-.88.64-2.86.83-5.73.4-8.62ZM141.81,21.5c1.34,2.15,1.55,4.45,3.29,5.96.47.41.99,1.56,1.96.59.37-.36,1.11-.78.36-1.33-.92-.68-.31-2.85-1.83-2.46-1.15.29-1.18-.29-1.59-.79-.52-.63-.52-1.73-2.19-1.98ZM191.03,383.06c1.36-3.7-.55-7.71,1-11.41.04-.1-.54-.46-.83-.69-.33.42-.69.81-.71,1.41-.1,3.58.06,7.14.54,10.69ZM58.22,671.07c-.1,1.06-.11,1.97.87,1.92,1.22-.07.1-.92.27-1.3,1.07-2.54-.06-5.5,1.52-7.95.09-.14-.18-.68-.4-.8-.5-.26-.45.37-.49.54-.64,2.62-1.23,5.26-1.77,7.59ZM136.11,11.15c-.6.27-.8.64-.56,1.34.76,2.21,2.61,3.49,4.22,4.92.61.54.94-.06.74-.81-.61-2.29-2.55-3.55-3.98-5.2-.1-.12-.28-.16-.42-.24ZM192.04,655.99h-.61c.26,3.97-1.02,7.95.61,11.89v-11.89ZM144.97,579.99c-1.1,1.92-.91,5.14.75,11.53-.02-4.19.35-7.88-.75-11.53ZM115.62,192.98c-2.81,2.45-4.21,5.82-5.71,9.12,2.83-2.43,4.7-5.48,5.71-9.12ZM152.27,733.96c1.71-3.2,1.77-6.19,1.29-9.27-.38,2.95-1.8,5.75-1.29,9.27ZM108.07,571.1c.72-1.48,1.6-2.82,1.99-4.47.26-1.1-.24-1.67-.79-2.25-.23-.24-1.36.01-1.28.17,1.07,2.18-.24,4.35.08,6.55ZM120.42,464.93c1.94-1.85,1.07-4.35,1.2-6.68.03-.51-.06-1.17-.59-1.16-.58,0-.65.61-.64,1.22.06,2.27.02,4.54.02,6.63ZM52.43,717.4c.45,1.67,2.26,2.46,1.86,4.59,1.73-2.16,3.28.62,5.23-.34-2.45-1.68-5.38-2.02-7.09-4.25ZM148.57,17.62c.57-1.31.48-2.55.24-3.71-.42-1.96,2.71-.22,2.07-2.44-1.09.52-2.28.44-3.46.46-.38,0-1.13.14-1.01.35.97,1.63-.03,4.09,2.15,5.33ZM47.85,347.47c0,.81-.07,1.64.02,2.44.08.65-.46,1.54.51,1.89.41.15,1.27.21,1.26-.24-.01-.81,1.13-1.12.49-2.39-.53-1.05-1.99-.53-2.28-1.71ZM54.6,344.53c-.66-.08-.88.29-.83.86.12,1.38.89,2.64.6,4.12-.06.3.78.91,1.48.52.31-.17,1.07-.44.75-.65-1.64-1.09-.71-2.92-1.38-4.26-.16-.31-.25-.56-.62-.59ZM51.67,722.78c-1.3-2.18-3.33-3.05-6.01-3.76,1.31,3.03,4.22,2.48,6.01,3.76ZM114.26,9.37c-.04,2.4.68,4.01,1.74,5.53.53.75,1.26.55,1.92.63.46.05.49-.49.34-.7-1.25-1.71-2.16-3.68-4-5.46ZM95.54,19.82c-.82.72-1.86.95-1.62,2.08.38,1.8,1.68,3.11,2.77,4.49.2.26,1.06.13,1.56-.01.77-.22.32-.76.12-1.14-.22-.42-.03-1.48-.88-1.07-1.69.82-1.55-.39-1.68-1.32-.12-.9-.16-1.82-.26-3.04ZM146.65,19.93c-.18-1.76-1.18-3.16-1.3-4.86-.08-1.13-1.23-.76-1.83-.69-.76.09-.61,1.03-.36,1.39,1.03,1.48,1.9,3.12,3.49,4.16ZM181.53,768.43c-.78,3.11-1.18,5.53-.39,8,.31-2.42,1.33-4.81.39-8ZM59.69,564.41c-.21,0-.42,0-.62,0v10.92c1.34-3.64.13-7.28.62-10.92ZM172.94,42.42c1.75-3.19,1.35-4.34-1.73-6.1-.45,2.28,1.44,3.7,1.73,6.1ZM107.83,18.07c.22-.97.57-1.88.6-2.81.05-1.78-1.15-2.61-2.7-3.01-.25-.06-.66.02-.82.2-.26.29,0,.76.26.78,1.77.15,1.41,1.27,1.34,2.46-.05.87-.07,1.99,1.32,2.38ZM135.7,18.06c-.49.67-.13,1.32.03,1.9.2.76.85,1.83,1.58,1.34.76-.52,1.84.49,2.11-.54.3-1.12-.88-1.41-1.57-1.84-.64-.4-1.27-1.01-2.14-.86ZM149.49,125.26c1.52-3.36,2.15-6.87,1.41-10.57-.31,3.54-1.93,6.88-1.41,10.57ZM116.63,557.62c-.54,1.11-2.73.5-2.51,2,.13.92-.59,2.72,1.55,2.7.06-1.56-.13-3.2.96-4.7ZM178.31,338.11c-1.5-.4-2.79-.37-4.03-.15-.85.16-1.52.89-1.06,1.8.39.77,1.53,1.02,2.03.5.84-.87,2.16-.84,3.06-2.16ZM108.1,7.36c-2.81-.39-5.22,1.16-6.21,3.9,2.14-1.19,4.3-1.95,6.21-3.9ZM240.03,324.86c-2.13.65-6.61,4.5-6.93,5.94,2.62-1.29,5.9-4.1,6.93-5.94ZM62.26,669.01c.08,1.52-.59,2.85-.84,4.25-.07.39-.4.78.08.99.45.2.86.1,1.15-.5.81-1.67.58-3.23-.39-4.75ZM146.15,644.84c-.78-3.08.15-6.36-1.32-9.36.91,3.06-.21,6.37,1.32,9.36ZM158.34,760.27c-2.09-1.18-3.3-3.49-5.58-4.43,1.22,2.29,3.36,3.42,5.58,4.43ZM170.43,45.3c.42-2.18-1.05-3.24-1.98-4.54-.25-.36-.6-.71-.97-.47-.45.29-.48.99-.16,1.31,1.1,1.06,1.18,2.9,3.11,3.7ZM187.67,749.62c1.54-2.78.27-5.8.88-8.68-.71,2.85-.14,5.82-.88,8.68ZM137.72,547.35c-.71,2.36-.63,4.67.45,7.57.5-3.01-.74-5.24-.45-7.57ZM140.61,629.68c-.32,2.75-.56,5.54.55,8.39.6-2.92-.78-5.58-.55-8.39ZM143.55,339.7q-4.59-.36-5.03,1.38c1.5-1.15,3.59.13,5.03-1.38ZM99.97,175.62c.54-1.49-.51-2.39-1.02-3.4-.23-.45-.52-1.38-1.4-.93-.99.51-.06.99.04,1.53.27,1.4,1.05,2.23,2.38,2.8ZM55.21,709.93c.14.14.29.28.43.43,1.02-.91,2.57-1.17,3.09-2.71.09-.28.38-.51.09-.84-.26-.28-.5-.35-.78-.04-.94,1.06-1.89,2.11-2.84,3.17ZM239,272.54c-.52-.09-.97.08-.86.39.44,1.3.94,2.58,2.47,3.04.69.21,1.08-.32,1.02-.65-.27-1.54-1.81-1.93-2.63-2.78ZM62.77,683.82c1.07-.68,1.92-1.49,1.79-2.92-.04-.45-.27-.8-.66-.87-.2-.04-.69.36-.67.49.2,1.16-1.29,2.07-.47,3.3ZM172.79,142.48c.99.9,2.7.14,3.42,1.34.28.46.09,1.25.91.71.42-.27.76-.88.49-1.49-.6-1.33-3.61-1.69-4.82-.57ZM116.32,407.28c.02,2.19.89,2.9,2.6,2.81.27-.01.58.31.68-.18.06-.3.06-.85-.27-.79-1.36.23-1.73-1.17-3.01-1.83ZM208.19,248.03c.28,1.09,1.27,1.33,1.84,1.98.49.56,1.03.2,1.54.03.41-.13.37-.41.17-.74-.27-.44-.28-1.26-1.05-1.01-.86.28-1.46-.63-2.5-.27ZM200.05,570.42c-.8-1.08-.19-2.37-.65-2.91-.91-1.07-1.61.22-2.69.84,1.54.21,1.87,1.56,3.33,2.07ZM156.95,40.91c-1.1-.26-1.22.36-.99.74.66,1.08,1.38,2.14,2.24,3.06.58.62,1.18.12.98-.54-.4-1.4-1.53-2.34-2.23-3.26ZM175.82,770.11c1.13.42,1.66,1.77,2.69,1.33.41-.17,1.72-1.16.81-2.55-.71,1.5-2.12.7-3.51,1.21Z"/>
      <path class="cls-1" d="M52.02,483.79c-.83-8.31-.74-16.64-.59-24.96.2,0,.4,0,.59-.01v24.97Z"/>
      <path class="cls-1" d="M33.6,318.69c.52.41,1.03.83,1.54,1.24-.61.75-1.48,1.02-2.1.3-1.54-1.77-4.02-2.58-4.98-4.91,0,0,.09-.13.09-.13,2.17.62,3.82,2.06,5.45,3.51Z"/>
      <path class="cls-1" d="M142.33,709.86c-1-3.56-.21-6.94.87-10.3-.22,3.44.72,6.97-.87,10.3Z"/>
      <path class="cls-1" d="M258.85,220.06c-1.29-.87-2.38-1.65-3.52-2.35-.7-.43-.89-1.04-.4-1.58.48-.53.86.17,1.1.48.87,1.14,2.86,1.32,2.83,3.45Z"/>
      <path class="cls-1" d="M28.15,315.18s-.09.13-.09.13c-1.33-.88-3.01-1.49-2.74-3.6,0,0-.12.07-.12.07,1.51.68,2,2.24,2.95,3.4Z"/>
      <path class="cls-1" d="M119.61,172.55c.94.62.89,1.4.42,2.31-.99,1.93-2.39,3.48-4.13,4.84-.72-1.15.21-1.6.59-2.24,1.04-1.64,2.08-3.28,3.12-4.92Z"/>
      <path class="cls-1" d="M226.64,311.51c1.78-1.51,3.55-3.03,5.46-4.65.3,1.33-.04,1.66-1.17,2.43-1.34.92-2.62,2.27-3.96,3.39-.21.17-.73.62-1.04.1-.24-.42.27-.69.47-1.02.08-.08.17-.17.25-.25Z"/>
      <path class="cls-1" d="M150.99,136.69c.89-.4,1.46-.35.87.79-.9,1.75-2.76,2.8-3.5,4.71-.62-2.64,2.34-3.48,2.72-5.6,0,0-.1.1-.1.1Z"/>
      <path class="cls-1" d="M238.3,298.2c.31-1.68,1.89-2.55,2.75-3.87.25,2.06-.93,3.17-2.82,3.79,0,0,.08.08.08.08Z"/>
      <path class="cls-1" d="M188.52,233.62c-1.69-.13-2.53-1.2-3.1-2.87,1.6.56,2.94,1.09,3.02,2.95,0,0,.08-.08.08-.08Z"/>
      <path class="cls-1" d="M141.16,143.57c.53-.17,1.2-.54,1.55.03.41.68-.4.91-.79,1.26-.45.42-.9.85-1.46,1.38-.77-1.31.93-1.8.8-2.78,0,0-.1.1-.1.1Z"/>
      <path class="cls-1" d="M211.2,324.56c.36-.63,1.08-.02,1.5-.43.29-.28.18-1.09.92-.71.15.08.21.42.22.64.05.87-.58.59-1.09.73-1.33.38-1.3.47-1.34-.43-.08.05-.15.12-.21.2Z"/>
      <path class="cls-1" d="M132.87,256.56c-4.44-2.69-8.83-5.25-12.77-8.51-.35-.29-.93-.28-1.35-.51-1.81-1.01-3.4-1.6-2.46-4.68,1.21-3.97,1.38-8.32,1.59-12.53.43-8.39,1.12-16.77,1.02-25.17-.02-1.29.4-1.85,1.74-2.04,2.39-.35,4.57.47,6.84.79,2.77.39,5.1,2.21,8.15,1.8,1.97-.27,4.13.58,6.16,1.09,2.87.71,5.72-.53,8.57,0,.77.14,1.63-.11,2.79.8-2.61.53-4.92.61-7.02.57-4.15-.1-8.34-.26-12.45-1.23-3.1-.73-6.32-.96-9.35-2.03-2.23-.78-3.34-.28-3.39,1.93-.1,4.23-.96,8.45-.86,12.62.12,5.08-.46,10.11-.46,15.18,0,2.68-1.1,5.49-1.18,8.33-.04,1.4.68,2.01,1.73,3.01,2.55,2.41,5.78,3.8,8.3,6.19,1.23,1.17,3.02,1.69,4.21,3.02.3.33.56.56.19,1.37Z"/>
      <path class="cls-1" d="M180.93,234.06c-1.34-4.5-1.7-9.12-1.51-13.77.07-1.72-1.19-3.01-1.01-4.73.46-4.46.57-8.82,2.57-13.15,1.18-2.55,2.13-5.49,2.96-8.32,1.58-5.4,4.71-10.06,7.12-15.07,2.02-4.2,3.61-8.61,6.09-12.59.65-1.05,1.58-3.06,2.3-2.6,1.5.96-.27,2.28-.82,3.17-2.06,3.32-3.06,7.09-4.88,10.49-3.31,6.19-6.41,12.48-8.98,19.02-2.53,6.43-5.2,12.81-4.36,19.99.39,3.34.19,6.73,1.02,10.02.18.7.29,1.55.94,1.9.96.52,1.38.79,0,1.26-.21.07-.49.64-.41.76,1.12,1.64-.77,2.4-1.02,3.63,0,0,0,0,0,0Z"/>
      <path class="cls-1" d="M161.78,198.67c3.7,9.18,7.47,18.36,11.29,27.51-3.09-2.49-12.1-24.28-11.29-27.51Z"/>
      <path class="cls-1" d="M184.38,291.93c1.37,3.74-.52,7-1.5,10.39-.59-3.62.53-6.99,1.49-10.39,0,0,0,0,0,0Z"/>
      <path class="cls-1" d="M45.66,266.33c-.82-3.26-.62-6.65.58-10.03.28,3.15,1.03,6.31-.58,10.03Z"/>
      <path class="cls-1" d="M173.58,227.49c3.38,2.28,4.21,4.5,2.85,6.83-.97-2.32-1.91-4.57-2.85-6.83Z"/>
      <path class="cls-1" d="M46.4,248.82c1.24,2.24.43,3.93.32,5.59-.69-1.63-.71-3.29-.32-5.59Z"/>
      <path class="cls-1" d="M54.52,215.98c.64,1.79.57,3.13.07,4.99-.83-1.84-.79-3.18-.07-4.99Z"/>
      <path class="cls-1" d="M92.43,278.53c.63,1.79.34,3.15-.1,4.5-.32-1.37-.74-2.74.1-4.5Z"/>
      <path class="cls-1" d="M221.37,195.13c.25-.52.7-.66,1.05-.53.9.35,1.25-1.08,2.07-.59.26.15.19.66-.11.82-.95.51-1.91,1.23-3.01.29Z"/>
      <path class="cls-1" d="M89.4,296.37c-.6.93-.09,2.16-1.06,2.96-.09.08-.42-.12-.63-.2.35-1.01.7-2.01,1.04-3.02.21.08.43.17.64.25Z"/>
      <path class="cls-1" d="M181.94,307.58c-.88-1.21-.55-2.31.49-3.59.24,1.38-.07,2.47-.49,3.59Z"/>
      <path class="cls-1" d="M206.61,240.8c-.45-.45-1.48-.26-1.51-1.22-.02-.45.44-.81.82-.59.51.3,1.34.27,1.47,1.06.08.48-.26.72-.78.75Z"/>
      <path class="cls-1" d="M154.33,533.32c-1.39-1.82-1.01-4.15-1.07-6.06-.26-8.28-1.83-16.4-2.51-24.61-.51-6.08-1.8-12.07-1.74-18.24.02-2.36.18-4.97-.75-7.39-.29-.74-.23-1.75.2-2.63.48-.99.38-2.15.17-3.14-1.61-7.52-1.95-15.16-2.51-22.81-.29-3.95-.48-7.93-.9-11.89-.24-2.29-.11-4.92-.31-7.2-.34-3.89-.34-7.8-.72-11.68-.66-6.81-1.57-13.59-1.43-20.46.1-5.12.08-10.25,0-15.38-.06-3.61-.36-7.21-.44-10.82-.04-1.85.18-3.7.79-5.51.05.2.16.41.15.61-.33,6.79.54,13.54.58,20.33.04,5.88.29,11.77.73,17.66.36,4.8,1.08,9.61.78,14.51-.32,5.24.97,10.46,1.22,15.7.27,5.73.88,11.41,1.51,17.11.46,4.18.94,8.43.96,12.61.02,5.79,1.09,11.47,1.15,17.24.03,3.08,0,6.32.38,9.19.43,3.2,1.26,6.49,1.43,9.77.18,3.71.68,7.41,1.34,10.98.95,5.15.02,10.44,1.58,15.47.65,2.09-.54,4.29.51,6.4.24.48-.67.32-1.11.21h.02Z"/>
      <path class="cls-1" d="M107.37,360.61c.72,1.26.5,2.45.7,3.59,1.28,7.51.9,15.14,1.94,22.67.55,4.02.39,8.16,1.36,12.11.42,1.71.27,3.08-.67,4.76.34-1.51,0-1.98-1.42-1.64-1.11.26-.95-.99-1.9-1.95,1.55.67,3.12.98,2.3-.58-1.52-2.88-.84-5.91-1.18-8.81-1.06-9.18-1.66-18.43-1.61-27.69,0-.74-.29-1.59.48-2.45Z"/>
      <path class="cls-1" d="M154.31,533.32c1.12,1.23,1.49,2.63,1.51,4.33.06,5.03.62,10.08.38,15.08-.1,2.06.26,4.44-1.08,6.37-.76,1.09.45,1.91.3,3.11-.48,3.79-.75,7.64.07,11.49.22,1.04,1.83,1.61.86,2.95-2.7-1.98-2.37-4.99-2.34-7.78.04-3.75-.02-7.57.67-11.22.85-4.53.09-9,.34-13.49.13-2.32-.23-4.7-.65-7-.24-1.32-.37-2.55-.04-3.83,0,0-.02,0-.02,0Z"/>
      <path class="cls-1" d="M136.6,507.48c-1.5-8.19-2.38-16.45-3.28-24.7.3-.04.59-.07.89-.11,1.02,8.24,2.03,16.49,3.05,24.73l-.67.08Z"/>
      <path class="cls-1" d="M187.78,482.57c-.14-1.02-.28-2.05-.41-3.07-1.15-.12-.84,1.66-2.25,1.34,1.55-1.97-1.67-3.97.31-6,.48,1.17-.13,2.75,2.1,3.34,1.26.33,1.59,2.8.24,4.4,0,0,.02,0,.02,0Z"/>
      <path class="cls-1" d="M186.74,704.72c.56,3.46-1.14,6.58-1.18,9.94.75-3.28-.98-6.87,1.18-9.94Z"/>
      <path class="cls-1" d="M126.05,413.65c.9,3.65.16,6.86.69,9.97.03.16-.39.43-.65.58-.05.03-.46-.34-.43-.42,1.2-3.16-1.01-6.35.39-10.13Z"/>
      <path class="cls-1" d="M104.74,401.65c1.68.16,2.9,1.29,4.29,2.07.37.21-.02.45-.13.51-.25.16-.78.36-.83.29-.88-1.24-2.26-.78-3.41-1.09-.46-.13-.76-.57-.71-1.14.04-.51.32-.7.79-.64Z"/>
      <path class="cls-1" d="M107.03,349.66c1.53,1.89.23,4.25,1.2,6.26.1.21-.43.38-.77.35-.57-.05-.52-.5-.57-.89-.26-1.89.76-3.74.15-5.72Z"/>
      <path class="cls-1" d="M138.41,529.21c.41,1.67,1.55,3.21.95,4.91-.12.35.04.84-.95.95v-5.86Z"/>
      <path class="cls-1" d="M132.49,477.13c.49-2.18-.98-4.3.3-6.51.17,2.17.35,4.34.52,6.51-.27,0-.55,0-.82,0Z"/>
      <path class="cls-1" d="M126.8,432.53c-.82-1.67-.86-3.24-.68-4.89,1.4,1.69,1.51,2.39.68,4.89Z"/>
      <path class="cls-1" d="M67.07,516.33c.1-2.66-.46-6.66-.93-10.69-.39-3.29.17-6.68-.14-9.99-.67-7.24-.61-14.51-1.3-21.75-.48-4.97.08-10.03-.17-15.04-.34-6.72-.11-13.49-1.43-20.14-.33-1.66.66-3.29.06-4.97-.17-.47.38-.61.81-.64.43-.03.58.22.57.58-.16,4.5,1.16,9.04.76,13.37-.43,4.56,1.12,8.88.34,13.4-.71,4.15,1.27,8.29.77,12.52-.71,5.91,1.05,11.71.73,17.64-.19,3.53-.53,7.36.22,10.62,1.48,6.47.37,12.93,1.32,19.28.41,2.77.33,5.51.51,8.23.27,4.15.31,8.33.71,12.49.06.62-.3.96-.75,1.1-.53.16-.52-.45-.76-.74-.36-.43-.38-.9-.35-1.38.33-4.42-.48-8.79-.6-13.19-.08-3.08-.44-6.16-.36-10.68Z"/>
      <path class="cls-1" d="M69.02,543.01c.66,3.2.49,6.37.06,9.54-.1.72-.18,1.67-1.11,1.57-1.22-.13-.52-1.13-.43-1.71.48-3.13.12-6.39,1.48-9.4Z"/>
      <path class="cls-1" d="M252.45,265.19c3.41-.4,6.2.46,9.04.43.51,0,1.66.26,1.43,1.27-.19.82-1.11.68-1.66.48-.94-.33-1.5-.62-1.27.85.12.73-.77.78-1.29.75-1.48-.08-2.93-.86-4.46.17-.44.3-.68-.81-.45-1.04,1.55-1.57-.2-1.91-1.34-2.91Z"/>
      <path class="cls-1" d="M219.75,319.88c-.28-1.59,1.65-5.09,2.54-5.09.95,0,.91.5.61,1.31-.59,1.64-2.61,1.77-3.16,3.78Z"/>
      <path class="cls-1" d="M246.48,288.04c-.59-.15-.47-.52-.26-.9.38-.69.72-1.41,1.18-2.04.24-.33.63-1.01,1.09-.6.63.57.06.96-.51,1.19-.79.32-.6,1.03-.69,1.64-.07.45-.31.72-.8.71Z"/>
      <path class="cls-1" d="M106.59,98.27c5.35-.33,10.42.72,15.48,1.95,1.79.44,3.67.56,5.51.81.42.05.88.06,1.05.48.23.56-.21.92-.59,1.22-1.44,1.13-3.23,1.14-4.92,1.48.49,2.44-1.85,2.29-2.92,3.34-1.22,1.2-3.79.17-4.08,2.63-1.08-.21-2.19-.29-3.26-.41-3.7-.41-7.48-.36-11.11-1.62-1.74-.6-1.94-1.83-1.39-2.71,1.29-2.07-.43-2.14-1.44-2.71-.64-.37-1.76-.14-1.59-1.41.15-1.11.97-2.09,1.83-2,2.63.28,4.89-1.89,7.44-1.04ZM103.39,103.78c1.14,2.96,1.37,3.12,4.31,3.16,1.71.02,3.39.15,5.1.4,3.04.45,5.66-1.02,8.97-2.44-6.5-1.58-12.32-1.57-18.39-1.12Z"/>
      <path class="cls-1" d="M117.06,60.94c.31-.92.89-1.14,1.5-1.41.37-.16.96-.82.38-1.1-1.85-.88-.31-1.61-.02-2.41.49-1.32,1.62-1.45,2.77-1.45,4.6,0,9.2.32,13.7,1.23,2.54.51,5.13,1.38,6.57,3.93.4.71.82,1.47.15,2.24-.54.62-1.2,1.22-2.08.74-3.84-2.08-7.89-.27-11.78-.71-3.7-.42-7.54.14-11.2-1.07Z"/>
      <path class="cls-1" d="M116.94,92.17c3.9,0,4.17-.41,4-4.32-.08-1.84-1.45-1.87-2.52-2.49-.9-.52-2.7-.68-2.17-2.06.42-1.06,2.14-.67,3.13-.32,1.77.62,3.87,1.15,4.41,3.3.65,2.59-1.03,6.51-2.78,7.84-1.46,1.11-2.76.01-4.13.06-2.02.07-4.15-.45-5.36,1.86-.26.49-.63.46-.98.13-.48-.46-.49-.88-.07-1.48,1.37-1.96,2.7-2.52,6.46-2.51Z"/>
      <path class="cls-1" d="M115.67,41.37c6.08-2.22,12.34-3.71,18.74-4.62.43-.06.95-.22,1.04.2.57,2.59,3.1,2.57,4.76,3.68.4.27,1.11.49,1.15.79.09.75,1.57,1.05.65,2.04-.95,1.02-1.37-.1-1.96-.52-4.8-3.42-9.88-4.23-15.56-2.26-2.47.86-5.23.88-7.86,1.26-.4.06-.81-.02-.96-.56Z"/>
      <path class="cls-1" d="M131.06,69.66c-1.22-.09-2.05-.06-2.46-1.72-.4-1.61-2.49-.83-3.76-1.33-.73-.29-2.09.33-1.89-1.16.15-1.14,1.16-.99,2.11-.91,2.98.24,5.98.56,8.96.48,1.89-.05,3.44.85,5.19,1.08.44.06.79.25.77.76-.01.37-.27.6-.61.65-2.83.48-5.64,1.05-8.31,2.15Z"/>
      <path class="cls-1" d="M126.13,87.82c4.7,2.67,9.12,8.93,7.12,13.04-.21.42-.14,1.04-.79,1.04-.66,0-.79-.57-.72-1.05.68-4.39-1.84-7.35-4.55-10.22-.76-.8-1.22-1.64-1.06-2.81Z"/>
      <path class="cls-1" d="M115.44,131.56c-.01,3.94,1.05,7.77-1.41,11.27-.32.46-.76,1.29-1.55.84-.75-.42-.43-1.11-.12-1.72,1.5-2.89.67-6.31,2.05-9.24.17-.36.13-.82,1.03-1.16Z"/>
      <path class="cls-1" d="M43.67,283.95c.57,1.85.65,3.63-.01,5.41-.62-1.82-.57-3.64.01-5.41Z"/>
      <path class="cls-1" d="M47.11,290.82c.64,1.17.65,2.35-.01,4.26-.62-1.86-.6-3.04.01-4.26Z"/>
      <path class="cls-1" d="M47.24,297.71c-.42,1.65-.66,2.61-1.02,4.02-.76-1.68-.97-2.76,1.02-4.02Z"/>
      <path class="cls-1" d="M171.39,357.15c.62.82,1.78-.02,2.48.82-.85,1.59-2.09,1.04-3.35.78.11-.76,1.1-.88.91-1.67,0,0-.04.06-.04.06Z"/>
    </g>
  </g>
</svg>