<svg version="1.2" xmlns="http://www.w3.org/2000/svg" viewBox="0 0 142 40" height="1em" class="h1"><style>.a{fill:currentColor}</style><path fill-rule="evenodd" class="a" d="m35.9 33.8c-2.6 1.2-3.8 1.9-4.9 1.9q-1.6 0-2.5-0.9-0.9-1-0.9-2.2 0-1.5 3-6.5 4.6-7.4 11.7-17.2-1.5 1.5-8 8.3-14.3 15-16.7 17-0.4 0.4-1.2 0.4-0.7 0-1.6-0.6-0.8-0.7-0.8-1.4v-0.2q0.1-1 4.5-9.6 4.4-8.7 7.4-13.8-4.4 4.9-8.9 10.9-8.6 11.4-12.6 19.4-0.4 0.8-0.9 0.8-0.5 0-1.5-0.3-2.1-0.5-2.1-1.9 0-0.9 3.5-6.1 3.4-5.2 8-11.3 4.5-6.2 9.4-11.9 6.8-7.9 8.7-7.9 0.3 0 0.6 0.2 0.3 0.1 0.3 0.1 0.1 0 0.2-0.1 0.3-0.3 1.2-0.3 0.9 0 1.7 0.3 0.9 0.4 0.9 0.8 0 0.3-2.4 4.5-7.8 13.9-10.5 19.1 2.6-3.1 7.4-8.2 4.8-5.2 10-10.3 6.9-6.7 8.3-6.7 0.5 0 1.3 0.2 1.5 0.4 2.8 0.4 0.4 0.1 0.7 0.4 0.2 0.2 0.2 0.5 0 0.2-0.1 0.4-7.6 10.1-12.9 17.9-5.2 7.7-6.4 10.4c1.6-0.3 4.9-1.3 8.8-4.2q0.2-0.2 0.3-0.3 0.1 0 0.2-0.1 0.8-1.4 1.8-2.6 1.6-1.7 3.4-3.2 3.9-3.1 7.2-3.1 1.3 0 2.1 0.5 0.8 0.4 1 1 0.5-0.8 0.9-1 0.4-0.3 1.2-0.3 1.8 0 1.8 1.3 0 0.6-0.3 0.9-0.3 0.3-1.3 2.1-1 1.7-2.3 4.4-1.2 2.6-1.5 4.6-0.1 0.2-0.1 0.6 0 1.3 0.7 1.3 0.1 0 0.3 0 0.1-0.2 0.3-0.5 0.5-0.8 1.5-2.6 1-1.8 3.2-5.4 2.1-3.6 2.6-4.4 0.8-1.5 1.4-2.2 1.1-1.4 3.6-1.4 0.5 0 0.5 0.7 0 1.2-2 4.2l-1 1.5q5.6-6.3 9.5-6.3 0.9 0 1.5 0.6 0.7 0.5 0.7 1.5 0 0.9-1.4 3-1.2 2.2-2.3 3.6-0.6 0.8-1.4 0.8-0.7 0-1.1-0.5-0.4-0.6-0.4-1.3 0-1.6 1.7-3.7-0.8 0.1-3.9 3-3 3-5.2 5.4-0.6 0.7-1.3 1.5 0 0.6-0.2 0.9-0.6 1.3-3 3.2-0.1 0.1-0.3 0.3-0.6 0.8-1.1 0.8-0.1 0-0.1 0-1.4 0.8-2.7 0.8-1.8 0-2.7-1.2-0.9-1.1-0.9-2.5 0-1.4 0.5-2.5-2 2.6-4.5 4.3-2.5 1.8-4.1 1.8-1.6 0-2.6-1-1.3-1.2-1.3-3.3 0-0.1 0-0.2-1.8 1.3-4.6 2.7zm20.7-14.2q-4 0-8.3 4.5-1.6 1.6-2.9 3.8-1.2 2.3-1.2 3.1 0 0.8 0.4 0.8 0.7 0 3.7-2.6 3-2.6 4-3.8 1.1-1.4 4.3-5.8zm33.9-10.5q0 1.3-1.2 2.7-1.3 1.3-2.6 1.3-1.4 0-1.4-1.4 0-1.4 1.2-2.6 1.2-1.3 2.6-1.3 0.7 0 1.1 0.3 0.3 0.4 0.3 1zm-7.6 25.3q-2.5 1.4-4.3 1.4-1.9 0-3.2-1.2-1.4-1.3-1.4-2.5 0-1.3 1.3-3.8 1.3-2.5 2.6-4.6 1.3-2 1.3-2.2 0-0.2-0.5-0.7-0.5-0.5-0.5-0.8 0-0.2 1-1.3 1-1 2.4-2 1.4-1.1 2.1-1.1 0.7 0 1.3 0.7 0.6 0.7 0.6 1.2 0 0.5-5.6 10.2 0 0.1-0.4 0.6-0.3 0.5-0.5 0.8-0.1 0.3-0.4 0.8-0.4 0.9-0.4 1.5 0 0.8 1.1 0.8 1 0 2.2-0.7 0.4-0.2 0.7-0.5 0.1-2 0.9-3.9 1-2.2 2.5-4 1.6-1.7 3.5-3.2 3.8-3.1 7.1-3.1 1.3 0 2.1 0.5 0.8 0.4 1 1 0.6-0.8 0.9-1 0.4-0.3 1.2-0.3 1.8 0 1.8 1.3 0 0.6-0.3 0.9-0.3 0.3-1.3 2.1-1 1.7-2.2 4.4-1.2 2.6-1.6 4.6 0 0.2 0 0.6 0 1.3 0.7 1.3 0.6 0 1.5-0.6 0.1 0 0.1-0.1 0.3-0.5 1.4-2.4 1-1.8 3.2-5.4 2.1-3.6 2.6-4.4 0.9-1.5 1.4-2.2 1.1-1.4 3.6-1.4 0.6 0 0.6 0.7 0 1.2-2.1 4.2l-1 1.5q4.1-4.5 6.9-5.7 1.3-0.6 2.4-0.6 1.1 0 1.8 0.6 0.6 0.6 0.6 1.3 0 0.7-0.5 1.7-0.5 1-1 1.8-0.5 0.8-1.3 2-0.8 1.2-0.9 1.3-0.1 0.1-0.4 0.5-0.2 0.5-0.4 0.7-0.1 0.2-0.5 0.7-0.3 0.6-0.5 0.9-0.2 0.4-0.5 0.9-0.3 0.5-0.5 0.9-0.1 0.4-0.3 0.8-0.3 0.8-0.3 1.4 0 1 1.4 1 0.7 0 1.8-0.8 0.5-0.2 0.9-0.5 0-2 0.9-3.9 1-2.2 2.5-4 1.6-1.7 3.4-3.2 3.9-3.1 7.2-3.1 1.3 0 2.1 0.5 0.8 0.4 1 1 0.5-0.8 0.9-1 0.4-0.3 1.2-0.3 1.8 0 1.8 1.3 0 0.6-0.3 0.9-0.3 0.3-1.4 2.1-0.9 1.7-2.2 4.4-1.2 2.6-1.5 4.6-0.1 0.2-0.1 0.6 0 1.3 0.7 1.3 0.7 0 1.7-0.7 0.9-0.6 1.7-1.4 0.8-0.8 1.5-1.6 0.7-0.8 0.8-0.9 0.2-0.1 0.4-0.1 0.5 0 0.6 0.7 0.1 0.7 0.1 1.4 0 0.7-0.2 1-0.6 1.3-3 3.2-2.3 1.9-4.2 1.9-1.8 0-2.7-1.2-0.9-1.1-0.9-2.5 0-1.4 0.4-2.5-1.9 2.6-4.4 4.3-2.6 1.8-4.2 1.8-1.5 0-2.6-1-0.3-0.3-0.5-0.6-1.4 1-2.4 1.3-1 0.4-2.3 0.4-1.2-0.1-2.4-1.1-1.3-1.1-1.3-2.6 0-1.5 0.8-3.4 0.8-1.9 1.7-3.3 0.8-1.4 2-3.2 1.2-1.8 1.3-2.3-0.8 0.1-3.9 3-3 3-5 5.2-2 2.2-4.8 5.9-0.8 1-1.3 1-0.3 0-0.8-0.1-1.6 0.9-2.9 0.9-1.9 0-2.8-1.2-0.9-1.1-0.9-2.5 0-1.4 0.5-2.5-2 2.6-4.5 4.3-2.5 1.8-4.1 1.8-1.6 0-2.6-1-0.2-0.2-0.4-0.4-0.1 0.1-0.3 0.2zm15.5-14.8q-4 0-8.3 4.5-1.5 1.6-2.8 3.8-1.3 2.3-1.3 3.1 0 0.8 0.5 0.8 0.6 0 3.6-2.6 3-2.6 4-3.8 1.1-1.4 4.3-5.8zm36.3 0q-4.1 0-8.4 4.5-1.5 1.6-2.8 3.8-1.2 2.3-1.2 3.1 0 0.8 0.4 0.8 0.7 0 3.7-2.6 3-2.6 4-3.8 1.1-1.4 4.3-5.8z"/></svg>
