<svg version="1.2" xmlns="http://www.w3.org/2000/svg" viewBox="0 0 132 40" height="1em" class="h1"><style>.a{fill:currentColor}</style><path fill-rule="evenodd" class="a" d="m38 3.7q-0.2 0.2-0.5 0.2-0.3 0-0.6 0.1-0.3 0-0.6 0.1-0.3 0.1-0.4 0.4-0.3-0.3-0.7-0.6-0.4-0.2-0.8-0.4-0.3 0.1-0.7 0.2-0.3 0.2-0.6 0.2-0.2 0-0.5-0.2-0.2 0.2-0.6 0.3-0.3 0.1-0.7 0.2-0.4 0.1-0.7 0.3-0.3 0.2-0.4 0.5-0.1-0.2-0.4-0.1-0.2 0.1-0.2-0.2-1.1 0.4-2.2 0.7-1 0.2-2.1 0.5-1.1 0.3-2.2 0.7-1 0.3-2 0.9 0 0 0 0.1 0 0.3 0.1 0.6 0.1 0.3 0.1 0.5-0.6 2-0.8 4.1-0.2 2.1-0.5 4.1v0.1q0 0.2 0.1 0.3 0.2 0 0.2 0.2l-0.1 0.1q-0.1 0.1-0.2 0.3 0 0.2 0 0.4 0 0.1 0 0.4-0.5 1.8-0.7 3.8-0.2 1.9-0.5 3.8l-0.3 2.2q0 0.2-0.1 0.4 0 0.2 0 0.4 0 1 0.1 2 0.2 1 0.1 2.1 0.3 0.4 0.3 0.8 0 0.2 0 0.4 0 0.1-0.1 0.3 0.5 0.4 1 0.6 0.6 0.2 1.1 0.6v0.1q0 0.3-0.1 0.7-0.1 0.3-0.2 0.6-0.1 0.3-0.2 0.7 0 0.5-0.2 0.7-0.1 0.2-0.4 0.4-0.3 0.2-0.6 0.2-0.1 0-0.3-0.1-0.2-0.1-0.3-0.2-0.2 0-0.4 0.2-0.3 0.2-0.5 0.2-0.2 0-0.3 0-0.1-0.1-0.2-0.1-0.1-0.4-0.4-0.6-0.2-0.3-0.6-0.5 0.1-0.4-0.1-0.7-0.2-0.2-0.4-0.6-0.1-0.4-0.1-1-0.1-0.6-0.5-0.9 0.1-0.2 0.1-0.6 0-0.2 0-0.4-0.1-0.2-0.2-0.3-0.1-0.2 0.1-0.2 0.1-0.1 0.1-0.3v-0.1q-0.2-1.1-0.2-2.2 0-1.1 0.1-2.2 0-1.1 0-2.1 0.2-0.2 0.3-0.6 0.1-0.3 0.2-0.8 0-0.4 0-0.8 0.1-0.4 0.1-0.7 0.1-1.8 0.5-3.6 0.4-1.9 0.4-3.8 0.2-0.2 0.2-0.7 0.1-0.4 0.1-0.9 0-0.4 0-0.9 0.1-0.5 0.3-0.8 0-0.9 0.2-1.8 0.1-1 0.1-1.9 0-0.5-0.1-1-0.3-0.1-0.6-0.1-0.3 0-0.7 0.1-0.4 0.2-0.5 0.5-0.8 0-1.5 0.2-0.6 0.2-1.3 0.2h-0.4q-0.1 0-0.3 0-0.2 0.1-0.5 0.1-0.2 0.1-0.2 0.4-1 0.1-2 0.4-0.9 0.4-1.9 0.8-0.9 0.3-1.9 0.7-0.9 0.3-2 0.4-0.3 0.2-0.4 0.7-0.7-0.1-1.2-0.4-0.5-0.3-1.2-0.5-0.2-0.7-0.2-1.4 0-0.8 0.3-1.5 0.4-0.8 1.1-1.1 0.2 0 0.3 0 0.1 0 0.3 0 0.5 0 1-0.2 0.6-0.2 1.1-0.2 0.2 0 0.4 0.1 0.2-0.1 0.5-0.2 0.4-0.1 0.7-0.1 0.3-0.1 0.6-0.3 0.2-0.2 0.3-0.5 0.2 0.2 0.4 0.2 0.2 0 0.4 0 0.4 0 0.9-0.1 0.4-0.2 0.7-0.6 0.2 0.3 0.6 0.3 0.5 0 0.9-0.2 0.5-0.3 0.9-0.3 0.3 0 0.5 0.2 0.4-0.2 0.9-0.4 0.4-0.2 0.9-0.3 0.6-0.1 1-0.3 0.4-0.2 0.7-0.5 0.2 0.1 0.5 0.1 0.6 0 1.1-0.2 0.5-0.1 1-0.3h0.7q0.3-0.1 0.5-0.2 0.2-0.1 0.4-0.2 0.3-0.1 0.5-0.2 0.3 0 0.6 0 0.8-0.4 1.7-0.7 0.9-0.2 1.8-0.4 0.9-0.2 1.8-0.4 0.9-0.3 1.7-0.7h0.1q0.6 0 1.3-0.3 0.6-0.2 1.2-0.6 0.1 0 0.2 0h0.2q0.9 0 1.8-0.2 0.9-0.3 1.8-0.3 0.6 0 0.9 0.2 0.3 0.1 0.6 0.3 0.3 0.2 0.6 0.4 0.2 0.2 0.7 0.3 0.3 0.6 0.3 1.2 0 0.7 0 1.3zm10.9 16q-0.1 0.3-0.3 0.6-0.1 0.3-0.1 0.7-0.3 0.1-0.6 0.2-0.2 0.1-0.5 0.2-0.3 0-0.6 0.2-0.2 0.1-0.4 0.3-0.1 0.5-0.1 0.9 0 0.6 0.2 1-0.1 0.3-0.1 0.6 0 0.3 0 0.6 0 1.1 0.2 2.2 0.3 1 0.3 2.1 0 0.2 0 0.4 0 0.2 0 0.3 0 0.7 0.5 1-0.1 0.1-0.1 0.3 0 0.2 0.1 0.4 0 0.2 0 0.4 0.2 0.4 0.3 0.6 0.2 0.3 0.3 0.6-0.3 0.5-0.6 0.9-0.3 0.3-0.5 0.9-0.1 0-0.3 0-0.2 0-0.3 0.1-0.1 0.1-0.2 0.2-0.1 0.2-0.2 0.3-0.1 0.2-0.3 0.2h-0.1q-0.1 0.1-0.3 0-0.1 0-0.2 0 0 0-0.2 0-0.3-0.3-0.4-0.7-0.1-0.5-0.1-0.9 0-0.5 0.1-0.8-0.3-0.3-0.4-0.9-0.1-0.6-0.2-1-0.2-1.2-0.6-2.4-0.3-1.1-0.4-2.3 0-0.5 0-0.9v-1.7q0-0.5 0-0.9 0-0.3 0-0.5 0.1-0.3 0.1-0.6 0-0.4-0.3-0.8-2.3 0.1-4.4 0.9-2.1 0.7-4.1 1.7-0.2 0.8-0.2 1.5 0 0.7 0 1.5v1.4q0 0.9 0 1.4 0.2 1 1 1.5 0.8 0.5 1.6 0.7 0 0.5-0.2 0.9-0.1 0.3-0.4 0.6-0.2 0.3-0.5 0.5-0.3 0.3-0.6 0.6-0.3-0.1-0.5-0.2-0.3-0.1-0.6-0.1-0.3 0-0.6 0-0.3-0.1-0.6-0.2l-0.7-0.9q-0.4-0.5-0.8-1v-0.3q0-0.9-0.3-1.7-0.3-0.8-0.5-1.7 0.1-0.3 0.1-0.6 0.1-0.3 0.1-0.6 0-0.7-0.1-1.3 0-0.6 0-1.2h-0.1q-0.3 0-0.7 0.1-0.3 0.2-0.6 0.3-0.3 0.2-0.6 0.4-0.3 0.1-0.5 0.1-0.1 0-0.2 0-0.1-0.1-0.2-0.1-0.2 0-0.4 0.2-0.2 0.1-0.5 0.3-0.3 0.1-0.6 0.2-0.3 0.2-0.6 0.2-0.4 0-0.9-0.4 0-0.3 0-0.5 0-0.3 0-0.5 0-0.3-0.1-0.6 0.2-0.4 0.6-0.6 0.4-0.3 0.8-0.5 0.4-0.2 0.8-0.4 0.4-0.2 0.7-0.6h0.2q0.5 0 0.9-0.2 0.4-0.2 0.8-0.2 0.2 0 0.3-0.5l0.1 0.1q0.7 0 1.3-0.5 0.4-2.1 0.6-4.1 0.2-2.1 0.2-4.2 0-0.2-0.1-0.4-0.1-0.2-0.1-0.4v-0.5q0-0.4 0-0.8 0.1-0.4 0.2-0.8 0.3-0.2 0.7-0.2 0.4 0 0.8 0.2 0.4 0.1 0.8 0.1 0.3 0.3 0.5 0.7 0.1 0.3 0.2 0.7 0 0.4 0 0.8 0 0.3 0 0.7 0 0.7 0.1 1.4 0.2 0.7 0.2 1.4 0 0.1-0.1 0.2-0.1 0.1-0.1 0.5 0 0.3 0 0.7 0.1 0.4 0.1 0.8 0 0.5-0.1 0.9-0.2 0.5-0.3 1 2-0.2 4.1-0.5 2-0.3 3.9-1 0-0.1 0-0.2 0-0.2 0-0.4 0-0.2 0-0.5 0-0.4 0.2-0.6-0.1-0.9-0.2-1.8-0.1-0.9-0.1-1.9v-1.8q0-1 0-1.9 0.3-0.1 0.6-0.1 0.3 0 0.6 0.2 0.4 0.1 0.8 0.1 0.3 0 0.5-0.1 0.3 0.4 0.5 0.9 0.1 0.5 0.2 1.1 0.1 0.5 0.2 1.1 0.1 0.5 0.5 0.8v0.1q0 0.2-0.1 0.2-0.1 0.1-0.1 0.3v0.1q0.1 0.5 0.2 1.1 0 0.6 0.1 1.2 0 0.5 0.1 1.1 0.1 0.5 0.4 1 0.1-0.1 0.4-0.1 0.7 0 1 0.5 0.4 0.4 0.7 0.9zm8.6 10.8q-0.1 0.3-0.4 0.5-0.2 0.2-0.4 0.4-0.2 0.1-0.5 0.1-0.3 0-0.6 0-0.2 0-0.4 0-0.2 0-0.3 0.2-0.3-0.1-0.4-0.3-0.2-0.2-0.5-0.2-0.1 0-0.3 0-0.5-0.6-0.9-1.2-0.4-0.6-0.7-1.2-0.1-1.2-0.2-2.4-0.1-0.3-0.1-0.6-0.1-0.3-0.1-0.6 0-0.3 0-0.6 0.1-0.3 0.1-0.6 0.1-0.9 0.3-1.9 0.2-0.9 0.3-1.8 0.1-0.9 0.1-1.8 0-1-0.3-1.8v-0.1q0.1-0.3 0.1-0.5 0.1-0.2 0.2-0.4 0-0.4-0.2-0.5 0.1-0.3 0.3-0.4 0.3-0.1 0.3-0.3 0-0.2 0-0.3 0.3-0.1 0.5-0.2 0.3-0.1 0.6 0 0.4 0.1 0.7 0.3 0.4 0.2 0.7 0.4 0.5 1.6 0.4 3.4-0.1 1.7-0.4 3.5-0.2 1.8-0.2 3.5-0.1 1.7 0.5 3.1 0.2 0.1 0.3-0.1 0.1-0.1 0.3-0.1 0.1 0.1 0.1 0.1 0.2 0.6 0.5 1.2 0.3 0.6 0.6 1.2zm28.3 2.1q0 0.5-0.4 0.8-0.3 0.2-0.7 0.4-0.4 0.1-0.9 0.2-0.4 0-0.8 0-0.1 0-0.3 0-0.1 0-0.3 0-0.2 0-0.2 0.2 0 0.1-0.1 0.2-0.2-0.1-0.4-0.1-0.1 0-0.3 0-0.2 0-0.4 0-0.2 0-0.4 0-0.3 0-0.4 0-0.1-0.1-0.2-0.2-0.1-0.1-0.2-0.2-0.1 0-0.2-0.1-0.3-0.1-0.4 0-0.1 0-0.4-0.2-0.4-0.4-0.7-0.8-0.3-0.5-0.6-1-0.2-0.6-0.5-1.1-0.3-0.5-0.7-0.9h-0.3q-0.6 0-0.8 0.5-0.2-0.1-0.3-0.3-0.2-0.1-0.4-0.2-0.7 0.2-1.6 0.4-0.8 0.1-1.6 0.1h-0.5q-0.1 0-0.4 0-0.3 0.1-0.6 0.3-0.2 0.2-0.6 0.2-0.2 0-0.4-0.2-0.2 0-0.2 0.2 0 0.2-0.2 0.2h-0.3q-0.5 0-0.9 0-0.5 0-0.9 0-0.6 0-1.3-0.1-0.2 0.1-0.4 0.1-0.1 0-0.2 0.2 0 0.1-0.1 0.3-0.1 0.1-0.2 0.2-0.1 0-0.3 0 0 0.4-0.3 0.6-0.3 0.2-0.3 0.7-0.3 0.2-0.6 0.5-0.2 0.3-0.4 0.6-0.2 0.3-0.5 0.6-0.2 0.3-0.6 0.5-0.2 0.2-0.1 0.6-0.4 0.3-0.9 0.5-0.5 0.3-1 0.3-0.9 0-1.3-1 0-0.4 0-0.7 0.1-0.4 0.2-0.8 0.1-0.3 0.3-0.6 0.2-0.3 0.6-0.4 0-0.3-0.2-0.4-0.2-0.1-0.2-0.4 0.9-0.5 1.5-1.1 0.7-0.7 1.2-1.5 0.6-0.8 1.1-1.6 0.6-0.7 1.3-1.4v-0.7q1-1 1.3-2.3 0.3-0.1 0.4-0.4 0.2-0.2 0.2-0.6 0.1 0 0.2-0.1 0-0.2 0.3-0.1 0.3-0.8 0.6-1.5 0.4-0.6 0.7-1.3 0.4-0.7 0.7-1.4 0.3-0.7 0.4-1.6 0.4 0 0.5-0.4 0-0.4 0.1-0.8 0.5-0.4 0.7-1 0.3-0.7 0.5-1.3 0.2-0.7 0.4-1.4 0.3-0.7 0.7-1.2v-0.1q0-0.2-0.1-0.2-0.1-0.1-0.1-0.2 0 0 0-0.1 0.4-0.1 0.6-0.5 0.2-0.4 0.6-0.6 0.7 0.6 1.2 0.7 0.5 0.1 1.4 0.2 0.4 0.4 0.4 1.1 0.1 0.6 0.3 1.3 0.2 1 0.5 2 0.4 1 0.5 2.1 0.1 0.6 0.4 1.1 0.2 0.6 0.3 1.2 0.1 0.4 0 1 0 0.6 0.2 1l0.2 0.5q0.2 0.4 0.3 0.8 0.1 0.4 0.2 0.8 0.3 1 0.5 2.1 0.2 1.1 0.6 2.1 0.2 0.3 0.5 0.4 0.4 0.2 0.8 0.2 0.5 0 0.9 0 0.4 0 0.7 0h0.3q0.2 0 0.4 0.1 0.1 0.2 0.1 0.4 0 0.4-0.2 0.7-0.3 0.2-0.3 0.5 0 0.2 0.1 0.4-0.1-0.1-0.4-0.1-0.7 0-1.4 0.3 0.2 0.5 0.7 0.9 0.4 0.4 0.9 0.7 0.3-0.2 0.7-0.2 0.4 0 0.7 0.2 0.4 0.1 0.8 0.1 0.3 0 0.4-0.1 0.3 0.3 0.4 0.6 0.2 0.3 0.4 0.6zm-10.2-5.2q-0.1-0.6-0.3-0.8-0.1-0.3-0.2-0.7-0.1-0.4-0.2-0.9 0-0.6-0.1-1.1-0.2-1.1-0.5-2.2-0.3-1.1-0.7-2.2 0.1-0.2 0.1-0.3v-0.1q-0.3-0.3-0.4-0.8-0.2-0.5-0.3-1-0.1-0.5-0.3-0.8-0.1-0.5-0.5-0.7-0.1 0.2-0.1 0.4 0 0.3 0 0.5 0.1 0.1 0.1 0.4-0.4 0.1-0.5 0.5-0.2 0.3-0.5 0.5-0.3 1.1-0.7 2-0.5 0.9-1.1 1.9-0.5 0.9-1 1.8-0.5 1-0.8 2-0.4 0.3-0.6 0.7-0.1 0.5-0.1 1 0.3 0.1 0.6 0.1 0.4 0 0.8 0 0.3 0 0.7 0.1 0.3 0.1 0.6 0.3 0.4-0.1 0.9-0.1 0.5-0.1 0.8-0.3 0.7 0.2 1.5 0.2 0.3 0 0.7-0.1 0.4 0 0.8-0.1 0.3 0 0.4 0.2 0.2 0.1 0.5 0.1 0.2-0.1 0.2-0.3 0-0.1 0.2-0.2zm37-8.8q-0.5 0.2-1 0.2-0.3 0-0.4-0.1-0.5 0.4-1.2 0.6-0.6 0.2-1.3 0.3-0.6 0.2-1.3 0.4-0.6 0.2-1.1 0.7-0.3 0-0.5 0-0.4 0-0.7 0.2-0.3 0.1-0.7 0.3-0.2 0-0.3 0-0.2 0-0.4 0.1-0.2 0.1-0.3 0.2 0 0.2-0.1 0.3 0 1.2 0.2 2.4 0.2 1.1 0.2 2.3v0.1q0.1 0.6 0.4 1.1 0.3 0.4 0.3 0.9 0 0.2-0.1 0.4 0.9 0.2 1.1 0.9 0.3 0.6 0.5 1.4 0.2 0.8 0.5 1.4 0.3 0.7 1.2 0.9 0.1 0.3 0.1 0.6 0 0.4 0 0.7 0 0.5-0.1 0.9 0 0.4-0.3 0.8-0.5 0-0.8 0-0.2 0-0.7 0.2-0.6-0.4-1.1-0.8-0.5-0.6-1-1.1-0.4-0.6-0.8-1.2-0.5-0.6-1-1.2-1.7 0.4-3.5 0.6-1.7 0.1-3.5 0.1-0.1 0.1-0.2 0.1-0.1 0-0.3 0-0.1 0-0.2 0.1 0 0 0 0.2-0.2-0.2-0.5-0.2-0.3-0.1-0.5-0.1-0.2 0-0.4 0.1-0.1 0-0.3 0.1-1.2-0.3-2.4-0.7-1.2-0.4-2.4-0.7 0-0.2-0.1-0.3-0.1-0.1-0.2-0.4-1.4-0.8-2.4-2-0.9-1.3-0.7-3l-0.3-0.5q0-0.5 0.3-0.7-0.2-0.2-0.5-0.5 0.3-0.4 0.5-0.9 0.3-0.5 0.4-1.1 0-0.1 0-0.3 0-0.1 0.1-0.3 0-0.2 0.1-0.4 0.2-0.3 0.3-0.5 0.5-1.1 1.1-2.1 0.7-1 1.7-1.8 0-0.6 0.3-0.9 0.2-0.4 0.5-0.7 0.4-0.3 0.7-0.7 0.3-0.3 0.5-0.7 0.6-0.6 1.3-1.1 0.7-0.6 1.1-1.3 0.6-0.2 1.1-0.5 0.6-0.3 0.9-0.8 0.8-0.1 1.6-0.3 0.8-0.2 1.6-0.2 0.4 0 0.9 0.1 0.5 0.2 0.7 0.5 0.1 0.1 0.1 0.2v0.2q0 0 0.1 0.1 0 0 0.2 0 0 0.7-0.2 1.5-0.2 0.7-0.8 1.1-0.5-0.1-1-0.1-0.6 0-1.2 0.2-0.5 0.3-1 0.6-0.5 0.3-1 0.6-0.6 0.3-1.2 0.4 0 0.3-0.1 0.5 0 0.2 0 0.5-0.1 0-0.2 0-0.1-0.1-0.3-0.1-0.2 0-0.3 0.3 0 0.2-0.1 0.4-0.6 0.2-1.1 0.7-0.4 0.5-0.7 1-0.3 0.6-0.7 1.1-0.4 0.5-1 0.7-0.3 1.1-0.5 2.1-0.3 1-0.6 2 0.1 0.4 0.1 0.8 0 0.6-0.1 1 0.2 0.3 0.3 0.6l0.4 0.8q0.2 0.4 0.4 0.7 0.2 0.3 0.4 0.5 0.4 0.3 1.2 0.5 0.7 0.2 1.3 0.7 0.1 0 0.2 0 0.1-0.1 0.1-0.1 0.4 0 0.9 0.2 0.4 0.2 0.6 0.2 1.8 0 4-0.2 2.1-0.3 4-0.6 0-0.3 0-0.6 0-0.4-0.1-0.8-0.1-0.4-0.4-0.7 0-0.5 0-1 0-0.5 0-1 0-0.8 0-1.7-0.1-0.9-0.4-1.7-0.5 0-0.8 0.2-0.4 0.2-0.7 0.2-0.2 0-0.3-0.1-0.4 0.5-1 0.7-0.6 0.2-1.2 0.4-0.6 0.2-1.2 0.4-0.6 0.2-1.1 0.5-0.3-0.1-0.5-0.1-0.2 0-0.5 0.1-0.2 0-0.4 0-0.7-0.6-0.7-1.5 0-0.4 0.1-0.8 0.2-0.5 0.4-0.9 0.2-0.1 0.4-0.1 0.3 0 0.5-0.1 0.2 0 0.4-0.1 0.1-0.1 0.2-0.4 0.1 0.1 0.1 0.1 0.1 0 0.2 0 0 0 0.1 0 0.1 0 0.1 0 0.1 0.1 0.1 0.2 1.4-0.8 2.8-1.3 1.5-0.6 3-1 1.6-0.4 3.1-0.8 1.6-0.4 3.1-0.8 0.2-0.2 0.5-0.3 0.2-0.1 0.4-0.3 0.2 0.1 0.6 0.1 0.4 0 1-0.1 0.5-0.2 0.9-0.5 0.1 0 0.2 0h0.2q0.7 0 1.3-0.2 0.5-0.2 1.1-0.5h0.2q1 0 2-0.2 1-0.3 2-0.3 0.5 0 0.8 0.1 0.1-0.2 0.3-0.4 0.3-0.2 0.4-0.5 1.1-0.3 1.9-0.9 0.9-0.6 1.8-1 0.5-0.3 1-0.4 0.5-0.1 1-0.3 0.2 0 0.4-0.1 0.2 0 0.4 0 0.6 0 1.1 0.2 0.6 0.2 1.2 0.2 0.1 0 0.2 0 0.2 0 0.3 0 0.5 0.7 1.4 1 0.2 0.5 0.5 0.9 0.3 0.3 0.6 0.7 0.2 0.3 0.5 0.7 0.2 0.4 0.3 1-0.2 0.3-0.2 0.7-0.1 0.3-0.1 0.6 0 0.4 0 0.8 0.1 0.4 0.1 0.7v0.5q-0.1 0.2-0.2 0.5-0.2 0.2-0.2 0.4-0.5 1.2-0.5 2.5-0.1 0.4-0.3 0.7-0.1 0.4-0.3 0.7-0.1 0.3-0.2 0.7 0 0.3 0 0.7-0.5 1.2-1.2 2.1-0.8 1-1.5 2-0.7 0.2-1.3 0.6-0.5 0.5-1.1 1-1 0.3-2 0.7-0.9 0.5-1.7 1.2-0.7 0.1-1.3 0.2-0.6 0.1-1.2 0.4h-0.4q-0.3 0-0.4-0.1-0.4 0.2-0.9 0.3-0.5 0-0.9 0-0.6 0-1.2 0-0.6-0.1-1.1-0.2-0.4-0.5-1-0.7-0.6-0.3-1-0.5-1-1.3-1.4-2.5-0.4-1.3-0.9-2.8 0.1-0.5 0.2-0.9 0.2-0.5 0.2-1 0.6-1.7 1.5-3.1 1-1.4 2.3-2.7 0-0.2 0-0.3 0.1-0.1 0.1-0.4 0 0 0.1 0 0.2 0 0.3-0.1 0.1-0.1 0.1-0.3zm15.2-0.9q0-0.2 0-0.3-0.3-0.1-0.6-0.3-0.3-0.1-0.7-0.1-0.2 0-0.4 0-0.1-0.2-0.2-0.3-0.2-0.1-0.4-0.1-0.1-0.1-0.3-0.2-0.2 0-0.3-0.2-0.1-0.2-0.3-0.5 0-0.3-0.3-0.4-0.3 0.3-0.7 0.5-0.4 0.1-0.9 0.3-0.3 0.2-0.7 0.4-0.4 0.2-0.7 0.5h-0.6q-0.2 0.4-0.5 0.6-0.4 0.2-0.6 0.5-0.6 0.3-1 0.7-0.4 0.3-0.9 0.7-0.4 0.4-0.8 0.9-0.4 0.4-0.9 0.8-0.4 0.9-0.9 1.6-0.5 0.6-1 1.3-0.4 0.7-0.7 1.5-0.3 0.8-0.3 2v0.3q0 0.2 0 0.3 0.4 0.5 0.7 1 0.3 0.6 0.9 0.8 0.7 0.2 1.4 0.2 0.8 0 1.5 0.2 1.5-0.3 3-1 1.5-0.7 2.8-1.6 0.2-0.2 0.4-0.3 0.3-0.2 0.5-0.4 0.1-0.2 0.2-0.4 0.1-0.2 0.3-0.4 0.2-0.4 0.6-0.8 0.3-0.4 0.7-0.8 0.1-0.7 0.4-1.4 0.3-0.7 0.5-1.3 0.3-0.7 0.4-1.4 0.2-0.7 0.2-1.4 0-0.2 0-0.4 0-0.2 0-0.3 0.2-0.4 0.2-0.8z"/></svg>
